<svg><defs><font id="Montserrat-Black" horiz-adv-x="0"><font-face font-family="Montserrat Black" font-weight="900" panose-1="0 0 10 0 0 0 0 0 0 0" ascent="800" descent="-200" x-height="547" cap-height="700" bbox="-931 -270.003 1755 1106" underline-thickness="50" underline-position="-50" unicode-range="U+000D-U+FB02"/><glyph glyph-name="fi" unicode="fi" horiz-adv-x="832" d="M294 517h119.001V352h-112V0h-226v352h-75v165h75v3c0 71.333 21.333 127.833 64 169.5s102.667 62.5 180 62.5c25.333 0 50-2.333 74-7s44-11.334 60-20.001l-54-157c-18.667 8.667-35.667 13-51 13-16.667 0-29.834-5.167-39.501-15.5S294 539.333 294 518v-1zm262.001 30h226V0h-226v547zm14.5 76.5c-25 21.667-37.5 49.168-37.5 82.501s12.5 60.833 37.5 82.5 57.833 32.5 98.5 32.5c41.333 0 74.333-10.333 99-31s37-47.334 37-80.001c0-34.667-12.333-63.167-37-85.5s-57.667-33.5-99-33.5c-40.667 0-73.5 10.833-98.5 32.5z"/><glyph glyph-name="fl" unicode="fl" horiz-adv-x="752" d="M294 517h119.001V352h-112V0h-226v352h-75v165h75v3c0 71.333 21.333 127.833 64 169.5s102.667 62.5 180 62.5c25.333 0 50-2.333 74-7s44-11.334 60-20.001l-54-157c-18.667 8.667-35.667 13-51 13-16.667 0-29.834-5.167-39.501-15.5S294 539.333 294 518v-1zm182.001 225h226V0h-226v742z"/><glyph glyph-name=".notdef" horiz-adv-x="587" d="M40 700h507V0H40v700zM467 70v560H120V70h347z"/><glyph glyph-name="NULL"/><glyph glyph-name="NULL"/><glyph glyph-name="nonmarkingreturn" horiz-adv-x="300"/><glyph glyph-name="space" horiz-adv-x="300"/><glyph glyph-name="exclam" unicode="!" horiz-adv-x="314" d="M22 700h270l-45-432H67zM62 25c-24.667 23.333-37 51.666-37 84.999 0 34 12.333 62.167 37 84.5s56.334 33.5 95.001 33.5 70.334-11.167 95.001-33.5 37-50.5 37-84.5c0-33.333-12.333-61.666-37-84.999s-56.334-35-95.001-35S86.667 1.667 62 25z"/><glyph glyph-name="quotedbl" unicode="&quot;" horiz-adv-x="489" d="M32 700h190l-15-300H47zm235 0h190l-15-300H282z"/><glyph glyph-name="numbersign" unicode="#" horiz-adv-x="740" d="M587 413l-15-126h121V137H553L536 0H376l17 137h-99L277 0H117l17 137H13v150h140l15 126H47v150h140l17 137h160l-17-137h99l17 137h160l-17-137h121V413H587zm-160 0h-99l-15-126h99z"/><glyph glyph-name="dollar" unicode="$" horiz-adv-x="657" d="M583.5 73.5C543.167 31.833 485.669 4.33 411.002-9.004v-111h-141v106c-50 2.667-97.833 10.334-143.5 23.001s-83.5 28.334-113.5 47.001l76 172c33.333-19.333 70.666-34.833 111.999-46.5s81-17.5 119-17.5c32.667 0 56 3.167 70 9.5s21 15.833 21 28.5c0 14.667-9.167 25.667-27.5 33s-48.5 15.333-90.5 24c-54 11.333-99 23.5-135 36.5s-67.333 34.333-94 64-40 69.834-40 120.501c0 58.667 21.167 109 63.5 151S190.667 699.666 270 711v109h141V713c80-7.333 147.667-26.666 203-57.999l-71-171c-68.667 34.667-133.667 52-195 52-60.667 0-91-14.667-91-44 0-14 9-24.5 27-31.5s47.667-14.5 89-22.5c53.333-10 98.333-21.5 135-34.5s68.5-34.167 95.5-63.5S644 270.667 644 220c0-56-20.167-104.833-60.5-146.5z"/><glyph glyph-name="percent" unicode="%" horiz-adv-x="917" d="M68 372c-34.667 34.667-51.996 82.334-51.996 143.001 0 40.667 8 75.667 24 105s38.167 51.666 66.5 66.999 60.166 23 95.499 23 67.166-7.667 95.499-23 50.5-37.666 66.5-66.999 24-64.333 24-105c0-60.667-17.333-108.334-52-143.001S256.668 320 202 320s-99.333 17.333-134 52zm545.004 328h169l-478-700h-169zm-379.5-251.5c8.333 13.667 12.5 35.834 12.5 66.501s-4.167 52.834-12.5 66.501-18.833 20.5-31.5 20.5-23.167-6.833-31.5-20.5-12.5-35.834-12.5-66.501 4.167-52.834 12.5-66.501 18.833-20.5 31.5-20.5 23.167 6.833 31.5 20.5zM581.004 42c-34.667 34.667-51.996 82.334-51.996 143.001 0 40.667 8 75.667 24 105s38.167 51.666 66.5 66.999 60.166 23 95.499 23 67.166-7.667 95.499-23 50.5-37.666 66.5-66.999 24-64.333 24-105c0-60.667-17.333-108.334-52-143.001s-79.334-52-134.001-52S615.67 7.333 581.004 42zm165.504 76.5c8.333 13.667 12.5 35.834 12.5 66.501s-4.167 52.834-12.5 66.501-18.833 20.5-31.5 20.5-23.167-6.833-31.5-20.5-12.5-35.834-12.5-66.501 4.167-52.834 12.5-66.501 18.833-20.5 31.5-20.5 23.167 6.833 31.5 20.5z"/><glyph glyph-name="ampersand" unicode="&amp;" horiz-adv-x="777" d="M681 180l65.998-56.001-121-137-74 64c-69.333-44.667-147.333-67-234-67-55.333 0-105.166 8.833-149.499 26.5S89.333 52.333 64 83s-38 65.334-38 104.001c0 44 11 82.167 33 114.5s56.333 61.5 103 87.5c-40 42.667-60 87.334-60 134.001 0 37.333 10.5 70.166 31.5 98.499s50.5 50.5 88.5 66.5 82 24 132 24c46 0 86.5-7.167 121.5-21.5s62.167-35 81.5-62 29-58.167 29-93.5-9.833-66.833-29.5-94.5-50.167-53.167-91.5-76.5l74-63c12 26.667 21 57 27 91l181-54C733.667 279.334 711.667 226.667 681 180zM319.498 554.999c-8.333-7.333-12.502-17.001-12.502-29.001 0-8.667 2.5-17 7.5-25s14.167-18.333 27.5-31c36.667 20 55 40 55 60 0 10.667-3.667 19.334-11 26.001s-17.666 10-30.999 10c-15.333 0-27.166-3.667-35.499-11zm94.498-386.001l-128 109.999c-26-18.667-39-41-39-67 0-17.333 7.833-31.666 23.5-42.999s37.167-17 64.5-17c26.667 0 53 5.667 79 17z"/><glyph glyph-name="quotesingle" unicode="'" horiz-adv-x="254" d="M32 700h190l-15-300H47z"/><glyph glyph-name="parenleft" unicode="(" horiz-adv-x="381" d="M81 16.5C58.333 96.833 47 182.668 47 274.001S58.333 451.167 81 531.5 136.667 682 180 742h216c-44.667-79.333-77.167-156.833-97.5-232.5S268 355.333 268 274s10.167-159.833 30.5-235.5S351.333-114.667 396-194H180c-43.333 60-76.333 130.167-99 210.5z"/><glyph glyph-name="parenright" unicode=")" horiz-adv-x="381" d="M-15-194C29.667-114.667 62.167-37.169 82.5 38.498s30.5 154.167 30.5 235.5-10.167 159.833-30.5 235.5-52.833 153.167-97.5 232.5h216c43.333-60 76.333-130.167 99-210.5s34-166.166 34-257.499S322.667 96.833 300 16.5 244.333-134 201-194H-15z"/><glyph glyph-name="asterisk" unicode="*" horiz-adv-x="473" d="M371 532l96-51-69-112-98 60 3-107H169l3 107-98-60L6 481l96 51-96 51 68 112 98-60-3 107h134l-3-107 98 60 69-112z"/><glyph glyph-name="plus" unicode="+" horiz-adv-x="620" d="M565 265H400V105H220v160H55v170h165v160h180V435h165V265z"/><glyph glyph-name="comma" unicode="," horiz-adv-x="304" d="M247 213c24.667-23.333 36.999-54.335 36.999-93.002 0-17.333-2.333-34.666-7-51.999S261.665 24.333 244.998-11l-70-149h-140l50 169c-20.667 10-36.667 24.5-48 43.5s-17 41.5-17 67.5c0 38.667 12.333 69.667 37 93s56.334 35 95.001 35 70.334-11.667 95.001-35z"/><glyph glyph-name="hyphen" unicode="-" horiz-adv-x="390" d="M45 374h300V204H45v170z"/><glyph glyph-name="period" unicode="." horiz-adv-x="304" d="M57.5 26.5C32.5 50.833 20 82 20 120s12.5 68.833 37.5 92.5S114 248 152 248s69.5-11.833 94.5-35.5S284 158 284 120s-12.5-69.167-37.5-93.5S190-10 152-10 82.5 2.167 57.5 26.5z"/><glyph glyph-name="slash" unicode="/" horiz-adv-x="440" d="M290 842h200L160-100H-40z"/><glyph glyph-name="zero" unicode="0" horiz-adv-x="692" d="M181.5 27.5c-47.667 29-85 71-112 126S29 274 29 350s13.5 141.5 40.5 196.5 64.333 97 112 126S284 716 346 716s116.833-14.5 164.5-43.5 85-71 112-126S663 426 663 350s-13.5-141.5-40.5-196.5-64.333-97-112-126S408-16 346-16 229.167-1.5 181.5 27.5zM426 350c0 118-26.667 177-80 177s-80-59-80-177 26.667-177 80-177 80 59 80 177z"/><glyph glyph-name="one" unicode="1" horiz-adv-x="418" d="M361 700V0H125v522H5v178h356z"/><glyph glyph-name="two" unicode="2" horiz-adv-x="608" d="M589 183l-.001-183h-561v145l253 234c22 20.667 36.667 38.334 44 53.001s11 29 11 43c0 17.333-5.833 30.833-17.5 40.5s-28.5 14.5-50.5 14.5c-21.333 0-41.333-5.667-60-17s-33-27.333-43-48l-178 89c26.667 50 65.667 89.5 117 118.5s113.333 43.5 186 43.5c55.333 0 104.333-9 147-27s76-43.667 100-77 36-71.666 36-114.999c0-38.667-8.167-74.834-24.5-108.501S500.333 316.667 453 274l-100-91h236z"/><glyph glyph-name="three" unicode="3" horiz-adv-x="614" d="M546.5 350.5c29-35 43.5-77.166 43.5-126.499 0-42-11.5-81.167-34.5-117.5S497 40.668 449 18.001s-107.667-34-179-34c-49.333 0-98.5 5.333-147.5 16S30.667 26.335-6 47.002l80 174c28.667-16.667 59.5-29.334 92.5-38.001s64.833-13 95.5-13c27.333 0 49.333 4.667 66 14s25 22.666 25 39.999c0 32-27.667 48-83 48h-93v145l103 105H30v178h522V555L422 423c54-13.333 95.5-37.5 124.5-72.5z"/><glyph glyph-name="four" unicode="4" horiz-adv-x="712" d="M708 120h-93V0H386v120H23v150l297 430h242L298 303h95v107h222V303h93V120z"/><glyph glyph-name="five" unicode="5" horiz-adv-x="619" d="M531.5 391.5c46.333-41 69.501-94.833 69.501-161.5 0-44-11.5-84.5-34.5-121.5s-58.5-67-106.5-90-107.667-34.5-179-34.5c-49.333 0-98.5 5.333-147.5 16S41.668 26.334 5.001 47.001l80 174c29.333-16.667 60.166-29.334 92.499-38.001s63.833-13 94.5-13c27.333 0 49.5 4.833 66.5 14.5S364 207.667 364 225c0 16.667-7.667 29.167-23 37.5S298 275 258 275H55l35 425h465V522H284l-5-69h36c98 0 170.167-20.5 216.5-61.5z"/><glyph glyph-name="six" unicode="6" horiz-adv-x="661" d="M528 425c36.667-18.667 66-45.001 88-79.001s33-73 33-117c0-48.667-12.5-91.667-37.5-129s-59.167-66-102.5-86-91.333-30-144-30c-67.333 0-126.166 13-176.499 39s-89.5 64.667-117.5 116-42 114.333-42 189c0 80 16.167 149.333 48.5 208S155.167 639.333 213.5 670s126.166 46 203.499 46c42 0 82-4.833 120-14.5s70.333-23.167 97-40.5l-85-165c-34.667 24.667-77 37-127 37-40.667 0-74.167-10.167-100.5-30.5s-43.5-49.833-51.5-88.5c36.667 26 83 39 139 39 42.667 0 82.334-9.333 119.001-28zM401 165.999c13.333 12.667 20 30 20 52s-6.667 39.5-20 52.5-30.666 19.5-51.999 19.5-38.666-6.5-51.999-19.5-20-30.5-20-52.5 6.667-39.333 20-52 30.666-19 51.999-19 38.666 6.333 51.999 19z"/><glyph glyph-name="seven" unicode="7" horiz-adv-x="645" d="M620 700V555L387 0H129l222 517H216V415H21v285h599z"/><glyph glyph-name="eight" unicode="8" horiz-adv-x="678" d="M628.5 300.5c16.333-27 24.498-57.833 24.498-92.5 0-44.667-13.167-84-39.5-118s-63.333-60.167-111-78.5S400.331-16 338.998-16s-115.833 9.167-163.5 27.5S90.831 56 64.498 90s-39.5 73.333-39.5 118c0 34.667 8.167 65.5 24.5 92.5s39.5 49.833 69.5 68.5c-46 36.667-69 82.667-69 138 0 42 12.167 78.667 36.5 110s58.333 55.666 102 72.999 93.834 26 150.501 26 106.834-8.667 150.501-26 77.667-41.666 102-72.999S628 549 628 507c0-55.333-23-101.333-69-138 30-18.667 53.167-41.5 69.5-68.5zM298.498 541c-10.333-10.667-15.5-25.334-15.5-44.001s5.167-33.334 15.5-44.001 23.833-16 40.5-16 30.167 5.333 40.5 16 15.5 25.334 15.5 44.001-5.167 33.334-15.5 44.001-23.833 16-40.5 16-30.167-5.333-40.5-16zm96-378c14.333 13.333 21.5 31 21.5 53s-7.167 39.667-21.5 53-32.833 20-55.5 20-41.167-6.667-55.5-20-21.5-31-21.5-53 7.167-39.667 21.5-53 32.833-20 55.5-20 41.167 6.667 55.5 20z"/><glyph glyph-name="nine" unicode="9" horiz-adv-x="661" d="M472.5 677c50.333-26 89.5-64.666 117.5-115.999s42-114.333 42-189c0-80-16.167-149.333-48.5-208S505.834 60.667 447.501 30 321.335-16 244.002-16c-42 0-82 4.833-120 14.5s-70.333 23.167-97 40.5l85 165c34.667-24.667 77-37 127-37 40.667 0 74.167 10.167 100.5 30.5s43.5 49.833 51.5 88.5c-36.667-26-83-39-139-39-42.667 0-82.334 9.333-119.001 28s-66 45-88 79-33 73-33 117c0 48.667 12.5 91.667 37.5 129s59.167 66 102.5 86 91.333 30 144 30c67.333 0 126.166-13 176.499-39zM364 429.501c13.333 13 20 30.5 20 52.5s-6.667 39.333-20 52-30.666 19-51.999 19-38.666-6.333-51.999-19-20-30-20-52 6.667-39.5 20-52.5 30.666-19.5 51.999-19.5 38.666 6.5 51.999 19.5z"/><glyph glyph-name="colon" unicode=":" horiz-adv-x="304" d="M57.5 335.5C32.5 359.833 20 391 20 429s12.5 68.833 37.5 92.5S114 557 152 557s69.5-11.833 94.5-35.5S284 467 284 429s-12.5-69.167-37.5-93.5S190 299 152 299s-69.5 12.167-94.5 36.5zm0-309C32.5 50.833 20 82 20 120s12.5 68.833 37.5 92.5S114 248 152 248s69.5-11.833 94.5-35.5S284 158 284 120s-12.5-69.167-37.5-93.5S190-10 152-10 82.5 2.167 57.5 26.5z"/><glyph glyph-name="semicolon" unicode=";" horiz-adv-x="304" d="M57.5 335.5C32.5 359.833 20 391 20 429s12.5 68.833 37.5 92.5S114 557 152 557s69.5-11.833 94.5-35.5S284 467 284 429s-12.5-69.167-37.5-93.5S190 299 152 299s-69.5 12.167-94.5 36.5zM247 213c24.667-23.333 36.999-54.335 36.999-93.002 0-17.333-2.333-34.666-7-51.999S261.665 24.333 244.998-11l-70-149h-140l50 169c-20.667 10-36.667 24.5-48 43.5s-17 41.5-17 67.5c0 38.667 12.333 69.667 37 93s56.334 35 95.001 35 70.334-11.667 95.001-35z"/><glyph glyph-name="less" unicode="&lt;" horiz-adv-x="620" d="M565 454L262 350l303-104V76L55 261v178l510 185V454z"/><glyph glyph-name="equal" unicode="=" horiz-adv-x="620" d="M55 565h510V395H55v170zm0-260h510V135H55v170z"/><glyph glyph-name="greater" unicode="&gt;" horiz-adv-x="620" d="M565 439V261L55 76v170l303 104L55 454v170z"/><glyph glyph-name="question" unicode="?" horiz-adv-x="606" d="M228 346.5c14 21 33.999 43.831 59.999 68.498 16.667 16 28.834 29 36.501 39s11.5 20.667 11.5 32c0 14.667-6.333 26.167-19 34.5s-28.667 12.5-48 12.5c-21.333 0-41.333-6.167-60-18.5s-33.334-28.833-44.001-49.5l-178 89c26.667 50.667 66.167 90.334 118.5 119.001s116.833 43 193.5 43c81.333 0 147.333-16.667 198-50s76-80.333 76-141c0-28-4.833-52.5-14.5-73.5s-21.167-38.667-34.5-53-30.333-30.166-51-47.499c-21.333-18.667-36.666-33.667-45.999-45s-14-24-14-38H207c0 31.333 7 57.5 21 78.5zM214.999 24.998c-24.667 23.333-37 51.666-37 84.999 0 34 12.333 62.167 37 84.5s56.334 33.5 95.001 33.5 70.334-11.167 95.001-33.5 37-50.5 37-84.5c0-33.333-12.333-61.666-37-84.999s-56.334-35-95.001-35-70.334 11.667-95.001 35z"/><glyph glyph-name="at" unicode="@" horiz-adv-x="1037" d="M777.5 656.5c73-38.333 129.67-90.498 170.003-156.498s60.5-139 60.5-219c0-61.333-10.5-113.833-31.5-157.5s-49.333-76.667-85-99-75.167-33.5-118.5-33.5c-38 0-70.333 7.333-97 22s-47 36.334-61 65.001c-29.333-58-80-87-152-87-36.667 0-71.167 10.167-103.5 30.5s-58.5 49.5-78.5 87.5-30 81.667-30 131 9.833 92.833 29.5 130.5 45.667 66.667 78 87 67.166 30.5 104.499 30.5c52.667 0 93.667-16.333 123-49v40h192v-286c0-36.667 13-55 39-55 16 0 28.5 10.333 37.5 31s13.5 57 13.5 109c0 60-14.167 113.333-42.5 160s-68.333 83.167-120 109.5-111.167 39.5-178.5 39.5-127-14.5-179-43.5-92.333-69-121-120-43-107.833-43-170.5c0-64.667 14.167-122.5 42.5-173.5s68.166-90.833 119.499-119.5 110.333-43 177-43c70 0 137.333 14.667 202 44l42-123c-30-14.667-67.167-26.334-111.5-35.001s-88.5-13-132.5-13c-98 0-184.5 20.167-259.5 60.5S130.668-53.832 90.001 16.501s-61 149.166-61 236.499c0 86 20.5 164 61.5 234s99.167 125.333 174.5 166S427.667 714 527 714c94 0 177.5-19.167 250.5-57.5zM570.003 172.002c13.333 16 20 38.667 20 68s-6.667 51.833-20 67.5-30.666 23.5-51.999 23.5-38.5-7.833-51.5-23.5-19.5-38.167-19.5-67.5 6.5-52 19.5-68 30.167-24 51.5-24 38.666 8 51.999 24z"/><glyph glyph-name="A" unicode="A" horiz-adv-x="806" d="M534 122H268L221 0H-19l306 700h232L825 0H581zm-65 170l-68 176-68-176h136z"/><glyph glyph-name="B" unicode="B" horiz-adv-x="773" d="M713 299c22.667-29.333 34-64.669 34-106.002 0-61.333-25.333-108.833-76-142.5S547-.002 451-.002H57v700h374c93.333 0 163.833-16.667 211.5-50S714 572.332 714 516.999c0-32.667-8.167-62-24.5-88s-40.5-47-72.5-63c41.333-15.333 73.333-37.666 96-66.999zM289 534.997v-104h110c51.333 0 77 17.333 77 52s-25.667 52-77 52H289zm220-315c0 36.667-26 55-78 55H289v-110h142c52 0 78 18.333 78 55z"/><glyph glyph-name="C" unicode="C" horiz-adv-x="744" d="M219 30.5c-59.333 31-105.833 74.331-139.5 129.998S29 279.332 29 349.999 45.833 483.833 79.5 539.5s80.167 99 139.5 130S345 716 419 716c68 0 128.667-12 182-36s97.333-58.667 132-104L584 443c-43.333 54.667-94.333 82-153 82-49.333 0-89-15.833-119-47.5s-45-74.167-45-127.5 15-95.833 45-127.5S381.667 175 431 175c58.667 0 109.667 27.333 153 82l149-133c-34.667-45.333-78.667-80-132-104S487-16 419-16C345-16 278.333-.5 219 30.5z"/><glyph glyph-name="D" unicode="D" horiz-adv-x="826" d="M57 700h345c78 0 146.833-14.167 206.5-42.5s106-68.833 139-121.5S797 421.333 797 350s-16.5-133.333-49.5-186-79.333-93.167-139-121.5S480 0 402 0H57v700zm335-516c50.667 0 91.167 14.5 121.5 43.5S559 297.333 559 350s-15.167 93.5-45.5 122.5S442.667 516 392 516h-99V184h99z"/><glyph glyph-name="E" unicode="E" horiz-adv-x="673" d="M639 178V0H57v700h569V522H289v-82h296V270H289v-92h350z"/><glyph glyph-name="F" unicode="F" horiz-adv-x="644" d="M293 522V402h292V224H293V0H57v700h569V522H293z"/><glyph glyph-name="G" unicode="G" horiz-adv-x="769" d="M520 369l205.001-.002v-296c-41.333-28.667-89.333-50.667-144-66s-108.334-23-161.001-23c-74.667 0-141.667 15.5-201 46.5s-105.833 74.333-139.5 130S29 279.332 29 349.999 45.833 483.833 79.5 539.5s80.667 99 141 130S349 716 425 716c68.667 0 130.167-11.5 184.5-34.5S709 625 745 581L594 448c-44 51.333-96.333 77-157 77-52 0-93.333-15.667-124-47s-46-74-46-128c0-52.667 15.167-95 45.5-127s70.833-48 121.5-48c30 0 58.667 5.667 86 17v177z"/><glyph glyph-name="H" unicode="H" horiz-adv-x="804" d="M747 700V0H511v258H293V0H57v700h236V452h218v248h236z"/><glyph glyph-name="I" unicode="I" horiz-adv-x="350" d="M57 700h236V0H57v700z"/><glyph glyph-name="J" unicode="J" horiz-adv-x="574" d="M85.5 10.5C41.167 28.167 4.667 53.998-24 87.998l127 150c18.667-23.333 37-40.666 55-51.999s36.667-17 56-17c24.667 0 43.5 7.333 56.5 22S290 227.333 290 256v266H52v178h471V270c0-95.333-24.5-166.833-73.5-214.5S328.667-16 234-16c-54.667 0-104.167 8.833-148.5 26.5z"/><glyph glyph-name="K" unicode="K" horiz-adv-x="765" d="M342 232l-53-59V0H57v700h232V446l230 254h257L496 392 790 0H517z"/><glyph glyph-name="L" unicode="L" horiz-adv-x="617" d="M57 700h236V183h316V0H57v700z"/><glyph glyph-name="M" unicode="M" horiz-adv-x="954" d="M682 0l-2 319L528 63H424L272 308V0H57v700h194l228-373 222 373h194l2-700H682z"/><glyph glyph-name="N" unicode="N" horiz-adv-x="804" d="M747 700V0H553L287 318V0H57v700h194l266-318v318h230z"/><glyph glyph-name="O" unicode="O" horiz-adv-x="848" d="M221 31c-60 31.333-107 74.833-141 130.5S29 280 29 350s17 132.833 51 188.5 81 99.167 141 130.5 127.667 47 203 47 143-15.667 203-47 107-74.833 141-130.5S819 420 819 350s-17-132.833-51-188.5S687 62.333 627 31 499.333-16 424-16 281-.333 221 31zm282.5 165.5c23.667 14.333 42.5 34.666 56.5 60.999s21 57.166 21 92.499-7 66.166-21 92.499-32.833 46.666-56.5 60.999-50.167 21.5-79.5 21.5-55.833-7.167-79.5-21.5S302 468.83 288 442.497s-21-57.166-21-92.499 7-66.166 21-92.499 32.833-46.666 56.5-60.999S394.667 175 424 175s55.833 7.167 79.5 21.5z"/><glyph glyph-name="P" unicode="P" horiz-adv-x="743" d="M563 668c48-21.333 85-52 111-92s39-86.667 39-140-13-100-39-140-63-70.667-111-92-104.333-32-169-32H293V0H57v700h337c64.667 0 121-10.667 169-32zM451 375.5c16 14.333 24 34.5 24 60.5s-8 46.167-24 60.5-40 21.5-72 21.5h-86V354h86c32 0 56 7.167 72 21.5z"/><glyph glyph-name="Q" unicode="Q" horiz-adv-x="848" d="M857-88c-24.667-29.333-54.333-51.498-89-66.498s-73-22.5-115-22.5-79.667 5.167-113 15.5-66.666 27.666-99.999 51.999-71.333 58.833-114 103.5c-58.667 12-110.334 34.833-155.001 68.5s-79.5 75.167-104.5 124.5S29 290.667 29 350c0 70 17 132.833 51 188.5s81 99.167 141 130.5 127.667 47 203 47 143-15.667 203-47 107-74.833 141-130.5S819 420 819 350c0-76.667-20.333-144.5-61-203.5S662.333 44 593 16c10-10.667 20.167-18.167 30.5-22.5S645.333-13 658-13c34.667 0 67 15 97 45zM344.501 503.502c-23.667-14.333-42.5-34.666-56.5-60.999s-21-57.166-21-92.499 7-66.166 21-92.499 32.833-46.666 56.5-60.999 50.167-21.5 79.5-21.5 55.833 7.167 79.5 21.5 42.5 34.666 56.5 60.999 21 57.166 21 92.499-7 66.166-21 92.499-32.833 46.666-56.5 60.999-50.167 21.5-79.5 21.5-55.833-7.167-79.5-21.5z"/><glyph glyph-name="R" unicode="R" horiz-adv-x="745" d="M357 176h-63.999V0h-236v700h337c64.667 0 121-10.667 169-32s85-52 111-92 39-86.667 39-140c0-50-11.333-93.667-34-131S623.667 238 581 216L728 0H476zm94.001 320.5c-16 14.333-40 21.5-72 21.5h-86V354h86c32 0 56 7.167 72 21.5s24 34.5 24 60.5-8 46.167-24 60.5z"/><glyph glyph-name="S" unicode="S" horiz-adv-x="657" d="M148.5 3.5c-55 13-100.165 30.499-135.498 52.499l76 172c33.333-19.333 70.666-34.833 111.999-46.5s81-17.5 119-17.5c32.667 0 56 3.167 70 9.5s21 15.833 21 28.5c0 14.667-9.167 25.667-27.5 33s-48.5 15.333-90.5 24c-54 11.333-99 23.5-135 36.5s-67.333 34.333-94 64-40 69.834-40 120.501c0 44 12.333 84 37 120s61.5 64.333 110.5 85 108.5 31 178.5 31c48 0 95.167-5.167 141.5-15.5S578.667 675 614 655l-71-171c-68.667 34.667-133.667 52-195 52-60.667 0-91-14.667-91-44 0-14 9-24.5 27-31.5s47.667-14.5 89-22.5c53.333-10 98.333-21.5 135-34.5s68.5-34.167 95.5-63.5S644 270.667 644 220c0-44-12.333-83.833-37-119.5s-61.5-64-110.5-85S388-16 318-16c-58 0-114.5 6.5-169.5 19.5z"/><glyph glyph-name="T" unicode="T" horiz-adv-x="654" d="M209 517H4v183h646V517H445V0H209v517z"/><glyph glyph-name="U" unicode="U" horiz-adv-x="784" d="M141 71c-60 58-90 139.333-90 244v385h236V322c0-51.333 9.167-88.666 27.5-111.999s44.833-35 79.5-35 61.167 11.667 79.5 35S501 270.667 501 322v378h232V315c0-104.667-30-186-90-244S499.333-16 392-16 201 13 141 71z"/><glyph glyph-name="V" unicode="V" horiz-adv-x="786" d="M805 700L509 0H277L-19 700h254l167-409 171 409h232z"/><glyph glyph-name="W" unicode="W" horiz-adv-x="1206" d="M1196 700L972 0H719L606 374 487 0H234L10 700h243l122-398 129 398h217l122-403 129 403h224z"/><glyph glyph-name="X" unicode="X" horiz-adv-x="762" d="M500 0L379 187 261 0H-8l253 353L1 700h265l119-176 116 176h254L512 362 770 0H500z"/><glyph glyph-name="Y" unicode="Y" horiz-adv-x="710" d="M473 254V0H237v257L-27 700h249l143-242 144 242h228z"/><glyph glyph-name="Z" unicode="Z" horiz-adv-x="687" d="M675 183V0H32v145l320 372H42v183h617V555L339 183h336z"/><glyph glyph-name="bracketleft" unicode="[" horiz-adv-x="410" d="M57 742h343V572H283V-24h117v-170H57v936z"/><glyph glyph-name="backslash" unicode="\" horiz-adv-x="440" d="M280-100L-50 842h200l330-942H280z"/><glyph glyph-name="bracketright" unicode="]" horiz-adv-x="410" d="M10-194v170h117v596H10v170h343v-936H10z"/><glyph glyph-name="asciicircum" unicode="^" horiz-adv-x="620" d="M414 139L310 390 206 139H36l185 422h178l185-422H414z"/><glyph glyph-name="underscore" unicode="_" horiz-adv-x="500" d="M0 0h500v-120H0V0z"/><glyph glyph-name="grave" unicode="`" horiz-adv-x="600" d="M58 767h215l132-160H255z"/><glyph glyph-name="a" unicode="a" horiz-adv-x="639" d="M515 492.5c50.667-43 75.999-109.167 75.999-198.5V0h-210v72c-26-54.667-77.667-82-155-82-43.333 0-80.166 7.5-110.499 22.5s-53.333 35.333-69 61S23 128 23 160c0 54 20.667 95 62 123s104 42 188 42h91c-7.333 42.667-41.666 64-102.999 64-24.667 0-49.667-3.833-75-11.5s-47-18.167-65-31.5l-72 149c31.333 19.333 69.166 34.5 113.499 45.5S251 557 295 557c96 0 169.333-21.5 220-64.5zM336.999 139c12.667 8.667 21.999 21.667 27.999 39v38h-56c-46 0-69-15.333-69-46 0-12.667 4.833-23.167 14.5-31.5s22.834-12.5 39.501-12.5c16 0 30.333 4.333 43 13z"/><glyph glyph-name="b" unicode="b" horiz-adv-x="700" d="M547.5 522.5c40.333-23 72.333-56 96-99S679 330.667 679 274s-11.833-106.667-35.5-150-55.667-76.5-96-99.5S463-10 415-10c-67.333 0-117.333 18.333-150 55V0H50v742h226V510c32 31.333 78.333 47 139 47 48 0 92.167-11.5 132.5-34.5zM425 194.5c16.667 19 25 45.5 25 79.5s-8.333 60.333-25 79-38 28-64 28-47.333-9.333-64-28-25-45-25-79 8.333-60.5 25-79.5 38-28.5 64-28.5 47.333 9.5 64 28.5z"/><glyph glyph-name="c" unicode="c" horiz-adv-x="615" d="M177.5 26c-49 24-87.333 57.67-115 101.003s-41.5 92.333-41.5 147 13.833 103.5 41.5 146.5 66 76.5 115 100.5 104.5 36 166.5 36c66.667 0 123.667-14.333 171-43s80-68.334 98-119.001l-175-86c-21.333 48-53 72-95 72-26.667 0-48.834-9.333-66.501-28s-26.5-45-26.5-79c0-34.667 8.833-61.334 26.5-80.001s39.834-28 66.501-28c42 0 73.667 24 95 72l175-86C595 101.334 562.333 61.667 515 33S410.667-10 344-10c-62 0-117.5 12-166.5 36z"/><glyph glyph-name="d" unicode="d" horiz-adv-x="705" d="M655 742V0H440v45c-32.667-36.667-82.667-55-150-55-48 0-92.167 11.5-132.5 34.5s-72.333 56.167-96 99.5S26 217.333 26 274s11.833 106.5 35.5 149.5 55.667 76 96 99S242 557 290 557c60.667 0 107-15.667 139-47v232h226zM408 194.5c16.667 19 25 45.5 25 79.5s-8.333 60.333-25 79-38 28-64 28-47.333-9.333-64-28-25-45-25-79 8.333-60.5 25-79.5 38-28.5 64-28.5 47.333 9.5 64 28.5z"/><glyph glyph-name="e" unicode="e" horiz-adv-x="653" d="M629 221l-379.999.001c8-20.667 21.333-36.5 40-47.5s42-16.5 70-16.5c24 0 44.167 3 60.5 9s34.166 16.333 53.499 31l118-119c-53.333-58.667-133-88-239-88-66 0-124 12.167-174 36.5S89.333 84.667 62 128s-41 92-41 146c0 54.667 13.5 103.5 40.5 146.5s64 76.5 111 100.5 99.833 36 158.5 36c55.333 0 105.833-11 151.5-33s82-54.333 109-97S632 333.333 632 274c0-3.333-1-21-3-53zM275.001 384.001c-15.333-12.667-25.335-30.667-30.002-54h176c-4.667 22.667-14.667 40.5-30 53.5s-34.666 19.5-57.999 19.5-42.666-6.333-57.999-19z"/><glyph glyph-name="f" unicode="f" horiz-adv-x="426" d="M294 517h119.001V352h-112V0h-226v352h-75v165h75v3c0 71.333 21.333 127.833 64 169.5s102.667 62.5 180 62.5c25.333 0 50-2.333 74-7s44-11.334 60-20.001l-54-157c-18.667 8.667-35.667 13-51 13-16.667 0-29.834-5.167-39.501-15.5S294 539.333 294 518v-1z"/><glyph glyph-name="g" unicode="g" horiz-adv-x="711" d="M661 547V109.001c0-104-28.833-182.167-86.5-234.5s-139.834-78.5-246.501-78.5c-54.667 0-105.667 5.833-153 17.5s-87.666 28.5-120.999 50.5l76 154c21.333-16 48.333-29 81-39s64-15 94-15c45.333 0 78.333 9.667 99 29S435 40.667 435 78v10c-34-38.667-84.333-58-151-58-46.667 0-90.167 10.833-130.5 32.5S81 115.167 57 155.5 21 242 21 294s12 98 36 138 56.167 70.833 96.5 92.5S237.333 557 284 557c74.667 0 128.667-24 162-72v62h215zM410.5 230.501c17.667 16.333 26.5 37.5 26.5 63.5s-8.833 47-26.5 63-39.834 24-66.501 24c-27.333 0-49.833-8-67.5-24s-26.5-37-26.5-63 9-47.167 27-63.5 40.333-24.5 67-24.5 48.834 8.167 66.501 24.5z"/><glyph glyph-name="h" unicode="h" horiz-adv-x="702" d="M592.5 496c41-40.667 61.5-102 61.5-184V0H428v273c0 62.667-22.333 94-67 94-25.333 0-45.833-8.833-61.5-26.5S276 295 276 257V0H50v742h226V503c42 36 93.333 54 154 54 67.333 0 121.5-20.333 162.5-61z"/><glyph glyph-name="i" unicode="i" horiz-adv-x="326" d="M50 547h226V0H50v547zm14.5 76.5c-25 21.667-37.5 49.168-37.5 82.501s12.5 60.833 37.5 82.5 57.833 32.5 98.5 32.5c41.333 0 74.333-10.333 99-31s37-47.334 37-80.001c0-34.667-12.333-63.167-37-85.5S204.333 591 163 591c-40.667 0-73.5 10.833-98.5 32.5z"/><glyph glyph-name="j" unicode="j" horiz-adv-x="334" d="M-94-177l54 157.001c16-8.667 33-13 51-13 14 0 25.333 5.167 34 15.5S58 8.667 58 30v517h226V28c0-71.333-21.167-127.833-63.5-169.5S119.667-204 45-204c-58 0-104.333 9-139 27zM72.5 623.501c-25 21.667-37.5 49.168-37.5 82.501s12.5 60.833 37.5 82.5 57.833 32.5 98.5 32.5c41.333 0 74.333-10.333 99-31s37-47.334 37-80.001c0-34.667-12.333-63.167-37-85.5s-57.667-33.5-99-33.5c-40.667 0-73.5 10.833-98.5 32.5z"/><glyph glyph-name="k" unicode="k" horiz-adv-x="713" d="M312 168l-36-39V0H50v742h226V388l157 159h267L474 310 718 0H445z"/><glyph glyph-name="l" unicode="l" horiz-adv-x="326" d="M50 742h226V0H50v742z"/><glyph glyph-name="m" unicode="m" horiz-adv-x="1040" d="M932.5 496c39.667-40.667 59.5-102 59.5-184V0H766v273c0 62.667-20.333 94-61 94-21.333 0-38.5-8-51.5-24S634 301.667 634 267V0H408v273c0 62.667-20.333 94-61 94-21.333 0-38.5-8-51.5-24S276 301.667 276 267V0H50v547h215v-51c40.667 40.667 92.334 61 155.001 61 36.667 0 69.667-6.833 99-20.5s53.333-34.5 72-62.5c22 26.667 48.667 47.167 80 61.5S736.667 557 774 557c66 0 118.833-20.333 158.5-61z"/><glyph glyph-name="n" unicode="n" horiz-adv-x="702" d="M592.5 496c41-40.667 61.5-102 61.5-184V0H428v273c0 62.667-22.333 94-67 94-25.333 0-45.833-8.833-61.5-26.5S276 295 276 257V0H50v547h215v-54c21.333 21.333 46 37.333 74 48s58.333 16 91 16c67.333 0 121.5-20.333 162.5-61z"/><glyph glyph-name="o" unicode="o" horiz-adv-x="678" d="M175.5 26.5c-48.333 24.333-86.166 58-113.499 101s-41 91.833-41 146.5 13.667 103.5 41 146.5S127.167 497 175.5 521s102.833 36 163.5 36c61.333 0 116.166-12 164.499-36s86-57.5 113-100.5 40.5-91.833 40.5-146.5-13.5-103.5-40.5-146.5-64.667-76.667-113-101S400.333-10 339-10c-60.667 0-115.167 12.167-163.5 36.5zm227.5 168c16.667 19 25 45.5 25 79.5s-8.333 60.333-25 79-38 28-64 28-47.333-9.333-64-28-25-45-25-79 8.333-60.5 25-79.5 38-28.5 64-28.5 47.333 9.5 64 28.5z"/><glyph glyph-name="p" unicode="p" horiz-adv-x="700" d="M547.5 522.5c40.333-23 72.333-56.167 96-99.5S679 329.667 679 273s-11.833-106.5-35.5-149.5-55.667-76-96-99S463-10 415-10c-60.667 0-107 15.667-139 47v-231H50v741h215v-45c32.667 36.667 82.667 55 150 55 48 0 92.167-11.5 132.5-34.5zM425 194c16.667 18.667 25 45 25 79s-8.333 60.5-25 79.5-38 28.5-64 28.5-47.333-9.5-64-28.5-25-45.5-25-79.5 8.333-60.333 25-79 38-28 64-28 47.333 9.333 64 28z"/><glyph glyph-name="q" unicode="q" horiz-adv-x="700" d="M650 547v-741H424V37c-32-31.333-78.333-47-139-47-48 0-92.167 11.5-132.5 34.5s-72.333 56-96 99S21 216.333 21 273s11.833 106.667 35.5 150 55.667 76.5 96 99.5S237 557 285 557c67.333 0 117.333-18.333 150-55v45h215zM403 194c16.667 18.667 25 45 25 79s-8.333 60.5-25 79.5-38 28.5-64 28.5-47.333-9.5-64-28.5-25-45.5-25-79.5 8.333-60.333 25-79 38-28 64-28 47.333 9.333 64 28z"/><glyph glyph-name="r" unicode="r" horiz-adv-x="456" d="M442 557V357c-18 2.667-34.667 4-50 4-77.333 0-116-39.333-116-118V0H50v547h215v-59c40 46 99 69 177 69z"/><glyph glyph-name="s" unicode="s" horiz-adv-x="565" d="M126 5C80.667 15 44.002 28.004 16.002 44.004l62 149c25.333-15.333 55.333-27.333 90-36s68.334-13 101.001-13c26 0 44.167 2.167 54.5 6.5s15.5 10.833 15.5 19.5-6.5 14.667-19.5 18-34.167 6.666-63.5 9.999c-44.667 5.333-82.667 12.166-114 20.499s-58.833 24.5-82.5 48.5-35.5 58.333-35.5 103c0 35.333 10.667 67 32 95s53.166 50.333 95.499 67 93.166 25 152.499 25c41.333 0 81.833-3.833 121.5-11.5s73.5-18.834 101.5-33.501l-62-149c-48 26.667-100.667 40-158 40-49.333 0-74-8.667-74-26 0-8.667 6.667-14.834 20-18.501s34.333-7.167 63-10.5c44.667-5.333 82.5-12.333 113.5-21s58.333-25 82-49 35.5-58.333 35.5-103c0-34-10.667-65-32-93s-53.333-50.333-96-67S324.667-10 264-10c-46.667 0-92.667 5-138 15z"/><glyph glyph-name="t" unicode="t" horiz-adv-x="460" d="M453 19C419-.333 372.667-10 314-10c-76.667 0-135.667 18.5-177 55.5S75 138 75 212v140H0v165h75v153h226V517h112V352H301V214c0-16.667 4.333-29.667 13-39s20-14 34-14c19.333 0 36.333 5 51 15z"/><glyph glyph-name="u" unicode="u" horiz-adv-x="698" d="M648 547V.001H433v52c-20-20.667-43.333-36.167-70-46.5s-55-15.5-85-15.5c-69.333 0-125 21.167-167 63.5S48 159.667 48 245v302h226V284c0-37.333 6-64 18-80s29.667-24 53-24c22 0 40.333 8.833 55 26.5s22 45.5 22 83.5v257h226z"/><glyph glyph-name="v" unicode="v" horiz-adv-x="644" d="M659 547L439 0H205L-15 547h232l110-293 118 293h214z"/><glyph glyph-name="w" unicode="w" horiz-adv-x="977" d="M983 547L793 0H573l-83 253L404 0H184L-6 547h214l94-289 98 289h192l95-292 98 292h198z"/><glyph glyph-name="x" unicode="x" horiz-adv-x="645" d="M395 0l-75 117L236 0H-9l207 271L-3 547h255l78-116 82 116h237L448 281 654 0H395z"/><glyph glyph-name="y" unicode="y" horiz-adv-x="644" d="M659 547L434.002-11c-28.667-71.333-64.334-121.333-107.001-150s-95-43-157-43c-30.667 0-61.5 4.5-92.5 13.5s-55.5 20.833-73.5 35.5l75 155c11.333-8.667 24.166-15.667 38.499-21s28.166-8 41.499-8c24.667 0 43.334 7.333 56.001 22L-15 547h232l113-293 115 293h214z"/><glyph glyph-name="z" unicode="z" horiz-adv-x="570" d="M552 165V0H30v130l226 252H38v165h503V417L315 165h237z"/><glyph glyph-name="braceleft" unicode="{" horiz-adv-x="438" d="M328 318c-12.667-20.667-33.334-35.334-62.001-44.001 28.667-8.667 49.334-23.334 62.001-44.001s19-50.667 19-90v-95c0-22 6-39 18-51s29.667-18 53-18h10v-170h-74c-76.667 0-134.667 18.333-174 55s-59 89.334-59 158.001v126c0 14.667-3.833 25.667-11.5 33s-18.167 11-31.5 11H45v170h33c13.333 0 23.833 3.667 31.5 11s11.5 18.333 11.5 33v126c0 68.667 19.667 121.334 59 158.001s97.333 55 174 55h74V572h-10c-23.333 0-41-6-53-18s-18-29-18-51v-95c0-39.333-6.333-69.333-19-90z"/><glyph glyph-name="bar" unicode="|" horiz-adv-x="320" d="M57 742h206v-936H57v936z"/><glyph glyph-name="braceright" unicode="}" horiz-adv-x="438" d="M393 359V189h-33c-13.333 0-23.833-3.667-31.5-11S317 159.667 317 145V19c0-68.667-19.667-121.334-59-158.001s-97.333-55-174-55H10v170h10c23.333 0 41 6 53 18s18 29 18 51v95c0 39.333 6.333 69.333 19 90s33.334 35.334 62.001 44.001c-28.667 8.667-49.334 23.334-62.001 44.001s-19 50.667-19 90v95c0 22-6 39-18 51s-29.667 18-53 18H10v170h74c76.667 0 134.667-18.333 174-55S317 597.667 317 529V403c0-14.667 3.833-25.667 11.5-33s18.167-11 31.5-11h33z"/><glyph glyph-name="asciitilde" unicode="~" horiz-adv-x="620" d="M346.5 247.5c-18.333 8.333-37.833 19.833-58.5 34.5-14.667 10-26 17.167-34 21.5s-16.333 6.5-25 6.5c-14.667 0-26.667-5.5-36-16.5S178.667 267 178 247H40c.667 68.667 16.834 122.667 48.501 162s72.5 59 122.5 59c23.333 0 44.166-4.167 62.499-12.5s37.833-19.833 58.5-34.5c14.667-10 26-17.167 34-21.5s16.333-6.5 25-6.5c14.667 0 26.667 5.5 36 16.5s14.333 26.5 15 46.5h138c-.667-68.667-16.834-122.667-48.501-162s-72.5-59-122.5-59c-23.333 0-44.166 4.167-62.499 12.5z"/><glyph glyph-name="uni00A0" horiz-adv-x="300"/><glyph glyph-name="exclamdown" unicode="¡" horiz-adv-x="314" d="M252 522c24.667-23.333 37-51.666 37-84.999 0-34-12.333-62.167-37-84.5s-56.334-33.5-95.001-33.5-70.334 11.167-95.001 33.5-37 50.5-37 84.5c0 33.333 12.333 61.666 37 84.999s56.334 35 95.001 35 70.334-11.667 95.001-35zm40-676H22l45 433h180z"/><glyph glyph-name="cent" unicode="¢" horiz-adv-x="615" d="M438 238l175-86c-14.667-42.667-40.334-77.667-77.001-105s-80.667-45-132-53v-114h-141V-2c-73.333 14-132 45.833-176 95.5s-66 109.834-66 180.501c0 70 22 129.833 66 179.5s102.667 81.5 176 95.5v118h141v-114c51.333-8 95.333-25.667 132-53s62.334-62.333 77.001-105l-175-86c-21.333 48-53 72-95 72-26.667 0-48.834-9.333-66.501-28s-26.5-45-26.5-79c0-34.667 8.833-61.334 26.5-80.001s39.834-28 66.501-28c42 0 73.667 24 95 72z"/><glyph glyph-name="sterling" unicode="£" horiz-adv-x="694" d="M356 178h304V0H30v178h90v106H30v132h90c3.333 96 36 170 98 222s148.333 78 259 78c40.667 0 79-3.833 115-11.5s67-18.167 93-31.5l-68-178c-18.667 10-38.5 17.5-59.5 22.5S516.333 525 497 525c-89.333 0-136.333-36.333-141-109h210V284H356V178z"/><glyph glyph-name="currency" unicode="¤" horiz-adv-x="700" d="M578 214l102.999-103.001-125-125-105 105c-32.667-14.667-66.667-22-102-22-34.667 0-68.667 7-102 21l-104-104-125 125 102 102c-16.667 34.667-25 71.334-25 110.001 0 35.333 7.333 69.333 22 102l-99 99 125 125 97-97c34.667 16.667 71 25 109 25 38.667 0 75.334-8.333 110.001-25l97 97 125-125-99-99c14-33.333 21-67.333 21-102 0-38-8.333-74.333-25-109zm-172.501 52.999c15.667 15.333 23.5 34 23.5 56s-7.833 40.833-23.5 56.5-34.5 23.5-56.5 23.5-40.667-7.833-56-23.5-23-34.5-23-56.5 7.667-40.667 23-56 34-23 56-23 40.833 7.667 56.5 23z"/><glyph glyph-name="yen" unicode="¥" horiz-adv-x="770" d="M544 310h119V198H503v-26h160V60H503V0H267v60H107v112h160v26H107v112h120L-27 700h252l170-257 171 257h231z"/><glyph glyph-name="brokenbar" unicode="¦" horiz-adv-x="320" d="M57 742h206V392H57v350zm0-586h206v-350H57v350z"/><glyph glyph-name="section" unicode="§" horiz-adv-x="549" d="M471 189c24.667-26 37.001-60.667 37.001-104 0-37.333-9.5-70.666-28.5-99.999s-47.333-52.5-85-69.5-83.5-25.5-137.5-25.5c-43.333 0-87.333 5-132 15s-81 23-109 39l62 149c25.333-14.667 54.5-26.5 87.5-35.5s62.833-13.5 89.5-13.5c18.667 0 32.5 3 41.5 9s13.5 14 13.5 24c0 12-7.333 21-22 27s-38 11.667-70 17c-40 7.333-73.333 15.333-100 24s-49.834 24-69.501 46-29.5 52.667-29.5 92c0 52 18.333 95 55 129-24 26-36 60.333-36 103 0 58 23.667 105 71 141s117 54 209 54c34 0 72.5-3.833 115.5-11.5S510.667 679.667 536 665l-62-149c-48 26.667-103.333 40-166 40-48 0-72-11-72-33 0-10 6.167-17.167 18.5-21.5S288 492 318 486c40-7.333 74.167-16.166 102.5-26.499s53-27.5 74-51.5 31.5-57.333 31.5-100c0-46.667-18.333-86.334-55-119.001zm-235.999 86c14-5.333 37.667-11.333 71-18 16.667 11.333 25 25.333 25 42 0 12.667-7 21.667-21 27s-37.667 11.333-71 18c-16.667-11.333-25-25.333-25-42 0-12.667 7-21.667 21-27z"/><glyph glyph-name="dieresis" unicode="¨" horiz-adv-x="600" d="M124.5 623.5C107.5 639.833 99 661 99 687s8.5 47.333 25.5 64 38.5 25 64.5 25 47.5-8.333 64.5-25 25.5-38 25.5-64-8.5-47.167-25.5-63.5S215 599 189 599s-47.5 8.167-64.5 24.5zm222 0C329.5 639.833 321 661 321 687s8.5 47.333 25.5 64 38.5 25 64.5 25 47.5-8.333 64.5-25 25.5-38 25.5-64-8.5-47.167-25.5-63.5S437 599 411 599s-47.5 8.167-64.5 24.5z"/><glyph glyph-name="copyright" unicode="©" horiz-adv-x="764" d="M202.5 44c-53.667 31.333-96.001 73.999-127.001 127.999s-46.5 113.333-46.5 178 15.5 124 46.5 178 73.5 96.667 127.5 128 114 47 180 47 125.833-15.333 179.5-46S658.333 584.165 689 530.498s46-113.167 46-178.5-15.667-125.166-47-179.499S614 75.333 560 44 446.333-3 381-3 256.167 12.667 202.5 44zm311.999 75.999c39.667 23.333 70.666 55.33 92.999 95.996s33.5 86 33.5 136-11 95-33 135-52.5 71.333-91.5 94-83.5 34-133.5 34-94.667-11.667-134-35-70.166-55.166-92.499-95.499-33.5-85.166-33.5-134.499 11.167-94.166 33.5-134.499 53-72.166 92-95.499 83.167-35 132.5-35 93.833 11.667 133.5 35zm-229.001 57.496c-33 17-58.667 40.502-77 70.502s-27.5 64-27.5 102 9.167 72 27.5 102 44 53.5 77 70.5 70.167 25.5 111.5 25.5c44 0 82-10 114-30s54-47.667 66-83l-128-65c-12 26.667-29.667 40-53 40-14 0-26-5.333-36-16s-15-25.334-15-44.001 5-33.334 15-44.001 22-16 36-16c23.333 0 41 13.333 53 40l128-65c-12-35.333-34-63-66-83s-70-30-114-30c-41.333 0-78.5 8.5-111.5 25.5z"/><glyph glyph-name="ordfeminine" unicode="ª" horiz-adv-x="422" d="M386 593l-.002-172.999h-142v42c-16-32-48.667-48-98-48-41.333 0-73.166 9.667-95.499 29s-33.5 43.666-33.5 72.999c0 65.333 53.667 98 161 98h53c-5.333 22-27 33-65 33-14 0-28.833-2.167-44.5-6.5S92.332 630 80.999 622l-48 93c20.667 12 45.334 21.167 74.001 27.5s57 9.5 85 9.5c129.333 0 194-53 194-159zm-169.002-86.999c7.333 4.667 12.668 11.667 16.001 21v19h-31c-27.333 0-41-8-41-24 0-6.667 2.833-12.167 8.5-16.5s13.167-6.5 22.5-6.5 17.666 2.333 24.999 7z"/><glyph glyph-name="guillemotleft" unicode="«" horiz-adv-x="643" d="M25 274l138 200h200L230 274 363 74H163zm265 0l138 200h200L495 274 628 74H428z"/><glyph glyph-name="logicalnot" unicode="¬" horiz-adv-x="620" d="M565 95H385v170H55v170h510V95z"/><glyph glyph-name="uni00AD" unicode="­" horiz-adv-x="390" d="M45 374h300V204H45v170z"/><glyph glyph-name="registered" unicode="®" horiz-adv-x="764" d="M562.5 657c53.667-30.667 95.833-72.835 126.5-126.502s46-113.167 46-178.5-15.667-125.166-47-179.499S614 75.333 560 44 446.333-3 381-3 256.167 12.667 202.5 44s-96 74-127 128S29 285.333 29 350s15.5 124 46.5 178S149 624.667 203 656s114 47 180 47 125.833-15.333 179.5-46zm78.499-305.001c0 50-11 94.997-33 134.997s-52.5 71.333-91.5 94-83.5 34-133.5 34-94.667-11.667-134-35-70.166-55.166-92.499-95.499S123 399.331 123 349.998s11.167-94.166 33.5-134.499 53-72.166 92-95.499S331.667 85 381 85c36.667 0 71 6.667 103 20s59.667 32.333 83 57H445l-62 96h-23v-96H216v376h179c55.333 0 98.666-12.667 129.999-38s47-59.333 47-102c0-52.667-20-90.667-60-114l69-107c40 49.333 60 107.666 60 174.999zm-255 4.997c13.333 0 23.666 3.667 30.999 11s11 17.333 11 30-3.667 22.667-11 30-17.666 11-30.999 11h-26v-82h26z"/><glyph glyph-name="macron" unicode="¯" horiz-adv-x="600" d="M90 746h420V628H90v118z"/><glyph glyph-name="degree" unicode="°" horiz-adv-x="416" d="M114 373c-28.667 16-51.5 37.833-68.5 65.5S20 496.667 20 530s8.5 63.833 25.5 91.5S85.333 671 114 687s60 24 94 24 65.333-8 94-24 51.5-37.833 68.5-65.5S396 563.333 396 530s-8.5-63.833-25.5-91.5S330.667 389 302 373s-60-24-94-24-65.333 8-94 24zm148.5 102c14.333 14.667 21.5 33 21.5 55s-7.167 40.333-21.5 55-32.5 22-54.5 22-40.167-7.333-54.5-22-21.5-33-21.5-55 7.167-40.333 21.5-55 32.5-22 54.5-22 40.167 7.333 54.5 22z"/><glyph glyph-name="plusminus" unicode="±" horiz-adv-x="620" d="M565 548V387H400V235H220v152H55v161h165v152h180V548h165zM55 170h510V0H55v170z"/><glyph glyph-name="uni00B2" unicode="²" horiz-adv-x="430" d="M401 441l.002-114h-366v91l159 136c24 20 36 38 36 54 0 8.667-3.333 15.5-10 20.5s-16.667 7.5-30 7.5c-30.667 0-53-12.667-67-38l-116 55c15.333 30 39.666 54 72.999 72S154.667 752 204 752c55.333 0 99.833-12 133.5-36s50.5-56 50.5-96c0-21.333-5.667-41.833-17-61.5s-32.333-43.167-63-70.5l-55-47h148z"/><glyph glyph-name="uni00B3" unicode="³" horiz-adv-x="430" d="M387 536.5c18.667-21 27.998-46.167 27.998-75.5 0-25.333-7.5-48.833-22.5-70.5s-38.5-39.334-70.5-53.001-71.667-20.5-119-20.5c-36 0-71.667 3.833-107 11.5s-64.333 17.834-87 30.501l52 109c20.667-11.333 43.334-20 68.001-26s48-9 70-9c38.667 0 58 9.333 58 28 0 16-16 24-48 24h-72v91l63 55h-168v111h358v-91l-83-71c34.667-8 61.334-22.5 80.001-43.5z"/><glyph glyph-name="acute" unicode="´" horiz-adv-x="600" d="M327 767h215L345 607H195z"/><glyph glyph-name="uni00B5" unicode="µ" horiz-adv-x="700" d="M650 547V0H455v51c-14-20.667-31-36-51-46s-41.333-15-64-15-44 4.667-64 14v-198H50v741h226V284c0-37.333 6-64 18-80s29.667-24 53-24c22 0 40.333 8.833 55 26.5s22 45.5 22 83.5v257h226z"/><glyph glyph-name="paragraph" unicode="¶" horiz-adv-x="730" d="M229 333c-41.333 1.333-78.832 10.5-112.499 27.5s-60.167 40.667-79.5 71-29 65.5-29 105.5c0 41.333 10.667 77.5 32 108.5S91.667 700.333 131 717s85 25 137 25h405v-842H491v687h-80v-687H229v433z"/><glyph glyph-name="periodcentered" unicode="·" horiz-adv-x="344" d="M76.5 195C52.167 219 40 250.667 40 290s12.167 70.666 36.5 93.999 56.166 35 95.499 35 71.166-11.667 95.499-35 36.5-54.666 36.5-93.999-12.167-71-36.5-95-56.166-36-95.499-36-71.166 12-95.499 36z"/><glyph glyph-name="cedilla" unicode="¸" horiz-adv-x="600" d="M205-234c-18.667 4-33.333 8.999-44 14.999l28 83c20-8 40-12 60-12 32 0 48 8 48 24 0 13.333-13.667 20-41 20h-41l27 114h116l-14-62c29.333-4 50.833-13.5 64.5-28.5s20.5-32.167 20.5-51.5c0-33.333-15.5-59.666-46.5-78.999s-72.167-29-123.5-29c-17.333 0-35.333 2-54 6z"/><glyph glyph-name="uni00B9" unicode="¹" horiz-adv-x="430" d="M386 438V327H64v111h88v193H74v111h238V438h74z"/><glyph glyph-name="ordmasculine" unicode="º" horiz-adv-x="438" d="M114.5 435.5c-31 14.333-55.167 34.333-72.5 60s-26 54.834-26 87.501 8.667 61.834 26 87.501 41.5 45.667 72.5 60 65.833 21.5 104.5 21.5c39.333 0 74.333-7.167 105-21.5s54.667-34.333 72-60 26-54.834 26-87.501-8.667-61.834-26-87.501-41.333-45.667-72-60S258.333 414 219 414c-38.667 0-73.5 7.167-104.5 21.5zm142 104c9.667 10.333 14.5 24.833 14.5 43.5 0 19.333-4.833 34-14.5 44s-22.167 15-37.5 15-27.833-5-37.5-15-14.5-24.667-14.5-44c0-18.667 4.833-33.167 14.5-43.5S203.667 524 219 524s27.833 5.167 37.5 15.5z"/><glyph glyph-name="guillemotright" unicode="»" horiz-adv-x="643" d="M15 74l133 200L15 474h200l138-200L215 74H15zm265 0l133 200-133 200h200l138-200L480 74H280z"/><glyph glyph-name="onequarter" unicode="¼" horiz-adv-x="1057" d="M386 396V285H64v111h88v193H74v111h238V396h74zm297 304h169L374 0H205zm364-632h-50V0H845v68H626v94l175 253h167L806 182h57v55h134v-55h50V68z"/><glyph glyph-name="onehalf" unicode="½" horiz-adv-x="1057" d="M386 396V285H64v111h88v193H74v111h238V396h74zm297 304h169L374 0H205zm345-586l.002-114h-366v91l159 136c24 20 36 38 36 54 0 8.667-3.333 15.5-10 20.5s-16.667 7.5-30 7.5c-30.667 0-53-12.667-67-38l-116 55c15.333 30 39.666 54 72.999 72S781.667 425 831 425c55.333 0 99.833-12 133.5-36s50.5-56 50.5-96c0-21.333-5.667-41.833-17-61.5s-32.333-43.167-63-70.5l-55-47h148z"/><glyph glyph-name="threequarters" unicode="¾" horiz-adv-x="1057" d="M387 494.5c18.667-21 27.998-46.167 27.998-75.5 0-25.333-7.5-48.833-22.5-70.5s-38.5-39.334-70.5-53.001-71.667-20.5-119-20.5c-36 0-71.667 3.833-107 11.5s-64.333 17.834-87 30.501l52 109c20.667-11.333 43.334-20 68.001-26s48-9 70-9c38.667 0 58 9.333 58 28 0 16-16 24-48 24h-72v91l63 55h-168v111h358v-91l-83-71c34.667-8 61.334-22.5 80.001-43.5zM682.998 700h169l-478-700h-169zM1047 68h-50V0H845v68H626v94l175 253h167L806 182h57v55h134v-55h50V68z"/><glyph glyph-name="questiondown" unicode="¿" horiz-adv-x="606" d="M201 352.5c-24.667 22.333-37 50.5-37 84.5 0 33.333 12.333 61.666 37 84.999s56.334 35 95.001 35 70.334-11.667 95.001-35 37-51.666 37-84.999c0-34-12.333-62.167-37-84.5S334.668 319 296.001 319 225.667 330.167 201 352.5zM109-119C58.333-85.667 33.001-38.665 33.001 22.002c0 28 4.833 52.5 14.5 73.5s21.167 38.667 34.5 53 30.333 30.166 51 47.499c21.333 18.667 36.666 33.667 45.999 45s14 24 14 38h206c0-31.333-7-57.5-21-78.5s-34-43.833-60-68.5c-16.667-16-28.834-29-36.501-39s-11.5-20.667-11.5-32c0-14.667 6.333-26.167 19-34.5s28.667-12.5 48-12.5c21.333 0 41.333 6.167 60 18.5s33.334 28.833 44.001 49.5l178-89C592.333-57.666 552.833-97.333 500.5-126S383.667-169 307-169c-81.333 0-147.333 16.667-198 50z"/><glyph glyph-name="Agrave" unicode="À" horiz-adv-x="806" d="M534 122H268L221 0H-19l306 700h232L825 0H581zm-65 170l-68 176-68-176h136zM161 917h215l132-160H358z"/><glyph glyph-name="Aacute" unicode="Á" horiz-adv-x="806" d="M534 122H268L221 0H-19l306 700h232L825 0H581zm-65 170l-68 176-68-176h136zm-39 625h215L448 757H298z"/><glyph glyph-name="Acircumflex" unicode="Â" horiz-adv-x="806" d="M534 122H268L221 0H-19l306 700h232L825 0H581zm-65 170l-68 176-68-176h136zm18 465l-84 77-84-77H179l128 160h192l128-160H487z"/><glyph glyph-name="Atilde" unicode="Ã" horiz-adv-x="806" d="M534 122H268L221 0H-19l306 700h232L825 0H581zm-65 170l-68 176-68-176h136zm-37 465c-15.333 6.667-31.333 15.667-48 27-11.333 7.333-20.5 12.833-27.5 16.5S342.667 806 336 806c-12.667 0-23-4.333-31-13s-12.667-20.667-14-36H184c1.333 53.333 14.166 95.5 38.499 126.5s57.5 46.5 99.5 46.5c19.333 0 36.666-3.333 51.999-10s31.333-15.667 48-27c11.333-8 20.5-13.667 27.5-17s13.833-5 20.5-5c12.667 0 23 4.167 31 12.5s12.667 19.5 14 33.5h107c-1.333-51.333-14.166-92.5-38.499-123.5s-57.5-46.5-99.5-46.5c-19.333 0-36.666 3.333-51.999 10z"/><glyph glyph-name="Adieresis" unicode="Ä" horiz-adv-x="806" d="M534 122H268L221 0H-19l306 700h232L825 0H581zm-65 170l-68 176-68-176h136zM227.5 773.5C210.5 789.833 202 811 202 837s8.5 47.333 25.5 64 38.5 25 64.5 25 47.5-8.333 64.5-25 25.5-38 25.5-64-8.5-47.167-25.5-63.5S318 749 292 749s-47.5 8.167-64.5 24.5zm222 0C432.5 789.833 424 811 424 837s8.5 47.333 25.5 64 38.5 25 64.5 25 47.5-8.333 64.5-25 25.5-38 25.5-64-8.5-47.167-25.5-63.5S540 749 514 749s-47.5 8.167-64.5 24.5z"/><glyph glyph-name="Aring" unicode="Å" horiz-adv-x="806" d="M534 122H268L221 0H-19l306 700h232L825 0H581zm-65 170l-68 176-68-176h136zM332 761c-21.333 12-38.166 28.167-50.499 48.5s-18.5 42.833-18.5 67.5 6.167 47.167 18.5 67.5S310.667 981 332 993s45 18 71 18 49.667-6 71-18 38.166-28.167 50.499-48.5 18.5-42.833 18.5-67.5-6.167-47.167-18.5-67.5S495.333 773 474 761s-45-18-71-18-49.667 6-71 18zm109.5 77c10.333 10 15.5 23 15.5 39s-5.167 29-15.5 39-23.166 15-38.499 15-28.166-5-38.499-15-15.5-23-15.5-39 5.167-29 15.5-39 23.166-15 38.499-15 28.166 5 38.499 15z"/><glyph glyph-name="AE" unicode="Æ" horiz-adv-x="1119" d="M1085 178V0H503v122H282L221 0H-19l369 700h722V522H735v-82h296V270H735v-92h350zM503 292v230h-23L366 292h137z"/><glyph glyph-name="Ccedilla" unicode="Ç" horiz-adv-x="744" d="M219 30.5c-59.333 31-105.833 74.331-139.5 129.998S29 279.332 29 349.999 45.833 483.833 79.5 539.5s80.167 99 139.5 130S345 716 419 716c68 0 128.667-12 182-36s97.333-58.667 132-104L584 443c-43.333 54.667-94.333 82-153 82-49.333 0-89-15.833-119-47.5s-45-74.167-45-127.5 15-95.833 45-127.5S381.667 175 431 175c58.667 0 109.667 27.333 153 82l149-133c-34.667-45.333-78.667-80-132-104S487-16 419-16C345-16 278.333-.5 219 30.5zm78-264.502c-18.667 4-33.333 8.999-44 14.999l28 83c20-8 40-12 60-12 32 0 48 8 48 24 0 13.333-13.667 20-41 20h-41l27 114h116l-14-62c29.333-4 50.833-13.5 64.5-28.5s20.5-32.167 20.5-51.5c0-33.333-15.5-59.666-46.5-78.999s-72.167-29-123.5-29c-17.333 0-35.333 2-54 6z"/><glyph glyph-name="Egrave" unicode="È" horiz-adv-x="673" d="M639 178V0H57v700h569V522H289v-82h296V270H289v-92h350zM100 917h215l132-160H297z"/><glyph glyph-name="Eacute" unicode="É" horiz-adv-x="673" d="M639 178V0H57v700h569V522H289v-82h296V270H289v-92h350zM369 917h215L387 757H237z"/><glyph glyph-name="Ecircumflex" unicode="Ê" horiz-adv-x="673" d="M639 178V0H57v700h569V522H289v-82h296V270H289v-92h350zM426 757l-84 77-84-77H118l128 160h192l128-160H426z"/><glyph glyph-name="Edieresis" unicode="Ë" horiz-adv-x="673" d="M639 178V0H57v700h569V522H289v-82h296V270H289v-92h350zM166.5 773.5C149.5 789.833 141 811 141 837s8.5 47.333 25.5 64 38.5 25 64.5 25 47.5-8.333 64.5-25 25.5-38 25.5-64-8.5-47.167-25.5-63.5S257 749 231 749s-47.5 8.167-64.5 24.5zm222 0C371.5 789.833 363 811 363 837s8.5 47.333 25.5 64 38.5 25 64.5 25 47.5-8.333 64.5-25 25.5-38 25.5-64-8.5-47.167-25.5-63.5S479 749 453 749s-47.5 8.167-64.5 24.5z"/><glyph glyph-name="Igrave" unicode="Ì" horiz-adv-x="350" d="M57 700h236V0H57v700zM-67 917h215l132-160H130z"/><glyph glyph-name="Iacute" unicode="Í" horiz-adv-x="350" d="M57 700h236V0H57v700zm145 217h215L220 757H70z"/><glyph glyph-name="Icircumflex" unicode="Î" horiz-adv-x="350" d="M57 700h236V0H57v700zm202 57l-84 77-84-77H-49L79 917h192l128-160H259z"/><glyph glyph-name="Idieresis" unicode="Ï" horiz-adv-x="350" d="M57 700h236V0H57v700zM-.5 773.5C-17.5 789.833-26 811-26 837s8.5 47.333 25.5 64S38 926 64 926s47.5-8.333 64.5-25 25.5-38 25.5-64-8.5-47.167-25.5-63.5S90 749 64 749s-47.5 8.167-64.5 24.5zm222 0C204.5 789.833 196 811 196 837s8.5 47.333 25.5 64 38.5 25 64.5 25 47.5-8.333 64.5-25 25.5-38 25.5-64-8.5-47.167-25.5-63.5S312 749 286 749s-47.5 8.167-64.5 24.5z"/><glyph glyph-name="Eth" unicode="Ð" horiz-adv-x="846" d="M77 700h345c78 0 146.833-14.167 206.5-42.5s106-68.833 139-121.5S817 421.333 817 350s-16.5-133.333-49.5-186-79.333-93.167-139-121.5S500 0 422 0H77v700zm335-516c50.667 0 91.167 14.5 121.5 43.5S579 297.333 579 350s-15.167 93.5-45.5 122.5S462.667 516 412 516h-99V184h99zM-9 423h470V287H-9v136z"/><glyph glyph-name="Ntilde" unicode="Ñ" horiz-adv-x="804" d="M747 700V0H553L287 318V0H57v700h194l266-318v318h230zm-316 57c-15.333 6.667-31.333 15.667-48 27-11.333 7.333-20.5 12.833-27.5 16.5S341.667 806 335 806c-12.667 0-23-4.333-31-13s-12.667-20.667-14-36H183c1.333 53.333 14.166 95.5 38.499 126.5s57.5 46.5 99.5 46.5c19.333 0 36.666-3.333 51.999-10s31.333-15.667 48-27c11.333-8 20.5-13.667 27.5-17s13.833-5 20.5-5c12.667 0 23 4.167 31 12.5s12.667 19.5 14 33.5h107c-1.333-51.333-14.166-92.5-38.499-123.5s-57.5-46.5-99.5-46.5c-19.333 0-36.666 3.333-51.999 10z"/><glyph glyph-name="Ograve" unicode="Ò" horiz-adv-x="848" d="M221 31c-60 31.333-107 74.833-141 130.5S29 280 29 350s17 132.833 51 188.5 81 99.167 141 130.5 127.667 47 203 47 143-15.667 203-47 107-74.833 141-130.5S819 420 819 350s-17-132.833-51-188.5S687 62.333 627 31 499.333-16 424-16 281-.333 221 31zm282.5 165.5c23.667 14.333 42.5 34.666 56.5 60.999s21 57.166 21 92.499-7 66.166-21 92.499-32.833 46.666-56.5 60.999-50.167 21.5-79.5 21.5-55.833-7.167-79.5-21.5S302 468.83 288 442.497s-21-57.166-21-92.499 7-66.166 21-92.499 32.833-46.666 56.5-60.999S394.667 175 424 175s55.833 7.167 79.5 21.5zM182 917h215l132-160H379z"/><glyph glyph-name="Oacute" unicode="Ó" horiz-adv-x="848" d="M221 31c-60 31.333-107 74.833-141 130.5S29 280 29 350s17 132.833 51 188.5 81 99.167 141 130.5 127.667 47 203 47 143-15.667 203-47 107-74.833 141-130.5S819 420 819 350s-17-132.833-51-188.5S687 62.333 627 31 499.333-16 424-16 281-.333 221 31zm282.5 165.5c23.667 14.333 42.5 34.666 56.5 60.999s21 57.166 21 92.499-7 66.166-21 92.499-32.833 46.666-56.5 60.999-50.167 21.5-79.5 21.5-55.833-7.167-79.5-21.5S302 468.83 288 442.497s-21-57.166-21-92.499 7-66.166 21-92.499 32.833-46.666 56.5-60.999S394.667 175 424 175s55.833 7.167 79.5 21.5zM451 917h215L469 757H319z"/><glyph glyph-name="Ocircumflex" unicode="Ô" horiz-adv-x="848" d="M221 31c-60 31.333-107 74.833-141 130.5S29 280 29 350s17 132.833 51 188.5 81 99.167 141 130.5 127.667 47 203 47 143-15.667 203-47 107-74.833 141-130.5S819 420 819 350s-17-132.833-51-188.5S687 62.333 627 31 499.333-16 424-16 281-.333 221 31zm282.5 165.5c23.667 14.333 42.5 34.666 56.5 60.999s21 57.166 21 92.499-7 66.166-21 92.499-32.833 46.666-56.5 60.999-50.167 21.5-79.5 21.5-55.833-7.167-79.5-21.5S302 468.83 288 442.497s-21-57.166-21-92.499 7-66.166 21-92.499 32.833-46.666 56.5-60.999S394.667 175 424 175s55.833 7.167 79.5 21.5zM508 757l-84 77-84-77H200l128 160h192l128-160H508z"/><glyph glyph-name="Otilde" unicode="Õ" horiz-adv-x="848" d="M221 31c-60 31.333-107 74.833-141 130.5S29 280 29 350s17 132.833 51 188.5 81 99.167 141 130.5 127.667 47 203 47 143-15.667 203-47 107-74.833 141-130.5S819 420 819 350s-17-132.833-51-188.5S687 62.333 627 31 499.333-16 424-16 281-.333 221 31zm282.5 165.5c23.667 14.333 42.5 34.666 56.5 60.999s21 57.166 21 92.499-7 66.166-21 92.499-32.833 46.666-56.5 60.999-50.167 21.5-79.5 21.5-55.833-7.167-79.5-21.5S302 468.83 288 442.497s-21-57.166-21-92.499 7-66.166 21-92.499 32.833-46.666 56.5-60.999S394.667 175 424 175s55.833 7.167 79.5 21.5zM453 757c-15.333 6.667-31.333 15.667-48 27-11.333 7.333-20.5 12.833-27.5 16.5S363.667 806 357 806c-12.667 0-23-4.333-31-13s-12.667-20.667-14-36H205c1.333 53.333 14.166 95.5 38.499 126.5s57.5 46.5 99.5 46.5c19.333 0 36.666-3.333 51.999-10s31.333-15.667 48-27c11.333-8 20.5-13.667 27.5-17s13.833-5 20.5-5c12.667 0 23 4.167 31 12.5s12.667 19.5 14 33.5h107c-1.333-51.333-14.166-92.5-38.499-123.5s-57.5-46.5-99.5-46.5c-19.333 0-36.666 3.333-51.999 10z"/><glyph glyph-name="Odieresis" unicode="Ö" horiz-adv-x="848" d="M221 31c-60 31.333-107 74.833-141 130.5S29 280 29 350s17 132.833 51 188.5 81 99.167 141 130.5 127.667 47 203 47 143-15.667 203-47 107-74.833 141-130.5S819 420 819 350s-17-132.833-51-188.5S687 62.333 627 31 499.333-16 424-16 281-.333 221 31zm282.5 165.5c23.667 14.333 42.5 34.666 56.5 60.999s21 57.166 21 92.499-7 66.166-21 92.499-32.833 46.666-56.5 60.999-50.167 21.5-79.5 21.5-55.833-7.167-79.5-21.5S302 468.83 288 442.497s-21-57.166-21-92.499 7-66.166 21-92.499 32.833-46.666 56.5-60.999S394.667 175 424 175s55.833 7.167 79.5 21.5zm-255 577C231.5 789.833 223 811 223 837s8.5 47.333 25.5 64 38.5 25 64.5 25 47.5-8.333 64.5-25 25.5-38 25.5-64-8.5-47.167-25.5-63.5S339 749 313 749s-47.5 8.167-64.5 24.5zm222 0C453.5 789.833 445 811 445 837s8.5 47.333 25.5 64 38.5 25 64.5 25 47.5-8.333 64.5-25 25.5-38 25.5-64-8.5-47.167-25.5-63.5S561 749 535 749s-47.5 8.167-64.5 24.5z"/><glyph glyph-name="multiply" unicode="×" horiz-adv-x="620" d="M430 350l120-120-120-120-120 120-120-120L70 230l120 120L70 470l120 120 120-120 120 120 120-120z"/><glyph glyph-name="Oslash" unicode="Ø" horiz-adv-x="848" d="M221 31c-60 31.333-107 74.833-141 130.5S29 280 29 350s17 132.833 51 188.5 81 99.167 141 130.5 127.667 47 203 47 143-15.667 203-47 107-74.833 141-130.5S819 420 819 350s-17-132.833-51-188.5S687 62.333 627 31 499.333-16 424-16 281-.333 221 31zm282.5 165.5c23.667 14.333 42.5 34.666 56.5 60.999s21 57.166 21 92.499-7 66.166-21 92.499-32.833 46.666-56.5 60.999-50.167 21.5-79.5 21.5-55.833-7.167-79.5-21.5S302 468.83 288 442.497s-21-57.166-21-92.499 7-66.166 21-92.499 32.833-46.666 56.5-60.999S394.667 175 424 175s55.833 7.167 79.5 21.5zM657 770h130L191-70H61z"/><glyph glyph-name="Ugrave" unicode="Ù" horiz-adv-x="784" d="M141 71c-60 58-90 139.333-90 244v385h236V322c0-51.333 9.167-88.666 27.5-111.999s44.833-35 79.5-35 61.167 11.667 79.5 35S501 270.667 501 322v378h232V315c0-104.667-30-186-90-244S499.333-16 392-16 201 13 141 71zm11 846h215l132-160H349z"/><glyph glyph-name="Uacute" unicode="Ú" horiz-adv-x="784" d="M141 71c-60 58-90 139.333-90 244v385h236V322c0-51.333 9.167-88.666 27.5-111.999s44.833-35 79.5-35 61.167 11.667 79.5 35S501 270.667 501 322v378h232V315c0-104.667-30-186-90-244S499.333-16 392-16 201 13 141 71zm280 846h215L439 757H289z"/><glyph glyph-name="Ucircumflex" unicode="Û" horiz-adv-x="784" d="M141 71c-60 58-90 139.333-90 244v385h236V322c0-51.333 9.167-88.666 27.5-111.999s44.833-35 79.5-35 61.167 11.667 79.5 35S501 270.667 501 322v378h232V315c0-104.667-30-186-90-244S499.333-16 392-16 201 13 141 71zm337 686l-84 77-84-77H170l128 160h192l128-160H478z"/><glyph glyph-name="Udieresis" unicode="Ü" horiz-adv-x="784" d="M141 71c-60 58-90 139.333-90 244v385h236V322c0-51.333 9.167-88.666 27.5-111.999s44.833-35 79.5-35 61.167 11.667 79.5 35S501 270.667 501 322v378h232V315c0-104.667-30-186-90-244S499.333-16 392-16 201 13 141 71zm77.5 702.5C201.5 789.833 193 811 193 837s8.5 47.333 25.5 64 38.5 25 64.5 25 47.5-8.333 64.5-25 25.5-38 25.5-64-8.5-47.167-25.5-63.5S309 749 283 749s-47.5 8.167-64.5 24.5zm222 0C423.5 789.833 415 811 415 837s8.5 47.333 25.5 64 38.5 25 64.5 25 47.5-8.333 64.5-25 25.5-38 25.5-64-8.5-47.167-25.5-63.5S531 749 505 749s-47.5 8.167-64.5 24.5z"/><glyph glyph-name="Yacute" unicode="Ý" horiz-adv-x="710" d="M473 254V0H237v257L-27 700h249l143-242 144 242h228zm-91 663h215L400 757H250z"/><glyph glyph-name="Thorn" unicode="Þ" horiz-adv-x="743" d="M563 601c48-21.333 85-52 111-92s39-86.667 39-140-13-100-39-140-63-70.667-111-92-104.333-32-169-32H293V0H57v701h236v-68h101c64.667 0 121-10.667 169-32zM451 308.5c16 14.333 24 34.5 24 60.5s-8 46.167-24 60.5-40 21.5-72 21.5h-86V287h86c32 0 56 7.167 72 21.5z"/><glyph glyph-name="germandbls" unicode="ß" horiz-adv-x="714" d="M660.5 325.5c21.667-31 32.499-68.499 32.499-112.499 0-70-23.667-124.667-71-164s-111.333-59-192-59c-22 0-44.5 1.5-67.5 4.5s-41.167 6.833-54.5 11.5l22 172c20.667-8 42.667-12 66-12 20 0 36.333 4.667 49 14s19 22.333 19 39c0 34.667-25.333 52-76 52h-52v170c23.333 1.333 42 8.166 56 20.499s21 28.833 21 49.5c0 20-6 36.167-18 48.5s-27.667 18.5-47 18.5c-22 0-39.5-6.5-52.5-19.5s-19.5-31.5-19.5-55.5V0h-226v472c0 59.333 13.333 110 40 152s62.5 73.833 107.5 95.5 94.833 32.5 149.5 32.5c58.667 0 109.334-9.667 152.001-29s75.167-45.5 97.5-78.5S630 574.333 630 533c0-53.333-21.333-99-64-137 41.333-16 72.833-39.5 94.5-70.5z"/><glyph glyph-name="agrave" unicode="à" horiz-adv-x="639" d="M515 492.5c50.667-43 75.999-109.167 75.999-198.5V0h-210v72c-26-54.667-77.667-82-155-82-43.333 0-80.166 7.5-110.499 22.5s-53.333 35.333-69 61S23 128 23 160c0 54 20.667 95 62 123s104 42 188 42h91c-7.333 42.667-41.666 64-102.999 64-24.667 0-49.667-3.833-75-11.5s-47-18.167-65-31.5l-72 149c31.333 19.333 69.166 34.5 113.499 45.5S251 557 295 557c96 0 169.333-21.5 220-64.5zM336.999 139c12.667 8.667 21.999 21.667 27.999 39v38h-56c-46 0-69-15.333-69-46 0-12.667 4.833-23.167 14.5-31.5s22.834-12.5 39.501-12.5c16 0 30.333 4.333 43 13zM78.998 767h215l132-160h-150z"/><glyph glyph-name="aacute" unicode="á" horiz-adv-x="639" d="M515 492.5c50.667-43 75.999-109.167 75.999-198.5V0h-210v72c-26-54.667-77.667-82-155-82-43.333 0-80.166 7.5-110.499 22.5s-53.333 35.333-69 61S23 128 23 160c0 54 20.667 95 62 123s104 42 188 42h91c-7.333 42.667-41.666 64-102.999 64-24.667 0-49.667-3.833-75-11.5s-47-18.167-65-31.5l-72 149c31.333 19.333 69.166 34.5 113.499 45.5S251 557 295 557c96 0 169.333-21.5 220-64.5zM336.999 139c12.667 8.667 21.999 21.667 27.999 39v38h-56c-46 0-69-15.333-69-46 0-12.667 4.833-23.167 14.5-31.5s22.834-12.5 39.501-12.5c16 0 30.333 4.333 43 13zm10.999 628h215l-197-160h-150z"/><glyph glyph-name="acircumflex" unicode="â" horiz-adv-x="639" d="M515 492.5c50.667-43 75.999-109.167 75.999-198.5V0h-210v72c-26-54.667-77.667-82-155-82-43.333 0-80.166 7.5-110.499 22.5s-53.333 35.333-69 61S23 128 23 160c0 54 20.667 95 62 123s104 42 188 42h91c-7.333 42.667-41.666 64-102.999 64-24.667 0-49.667-3.833-75-11.5s-47-18.167-65-31.5l-72 149c31.333 19.333 69.166 34.5 113.499 45.5S251 557 295 557c96 0 169.333-21.5 220-64.5zM336.999 139c12.667 8.667 21.999 21.667 27.999 39v38h-56c-46 0-69-15.333-69-46 0-12.667 4.833-23.167 14.5-31.5s22.834-12.5 39.501-12.5c16 0 30.333 4.333 43 13zm67.999 468l-84 77-84-77h-140l128 160h192l128-160h-140z"/><glyph glyph-name="atilde" unicode="ã" horiz-adv-x="639" d="M515 492.5c50.667-43 75.999-109.167 75.999-198.5V0h-210v72c-26-54.667-77.667-82-155-82-43.333 0-80.166 7.5-110.499 22.5s-53.333 35.333-69 61S23 128 23 160c0 54 20.667 95 62 123s104 42 188 42h91c-7.333 42.667-41.666 64-102.999 64-24.667 0-49.667-3.833-75-11.5s-47-18.167-65-31.5l-72 149c31.333 19.333 69.166 34.5 113.499 45.5S251 557 295 557c96 0 169.333-21.5 220-64.5zM336.999 139c12.667 8.667 21.999 21.667 27.999 39v38h-56c-46 0-69-15.333-69-46 0-12.667 4.833-23.167 14.5-31.5s22.834-12.5 39.501-12.5c16 0 30.333 4.333 43 13zm12.999 468c-15.333 6.667-31.333 15.667-48 27-11.333 7.333-20.5 12.833-27.5 16.5s-13.833 5.5-20.5 5.5c-12.667 0-23-4.333-31-13s-12.667-20.667-14-36h-107c1.333 53.333 14.166 95.5 38.499 126.5s57.5 46.5 99.5 46.5c19.333 0 36.666-3.333 51.999-10s31.333-15.667 48-27c11.333-8 20.5-13.667 27.5-17s13.833-5 20.5-5c12.667 0 23 4.167 31 12.5s12.667 19.5 14 33.5h107c-1.333-51.333-14.166-92.5-38.499-123.5s-57.5-46.5-99.5-46.5c-19.333 0-36.666 3.333-51.999 10z"/><glyph glyph-name="adieresis" unicode="ä" horiz-adv-x="639" d="M515 492.5c50.667-43 75.999-109.167 75.999-198.5V0h-210v72c-26-54.667-77.667-82-155-82-43.333 0-80.166 7.5-110.499 22.5s-53.333 35.333-69 61S23 128 23 160c0 54 20.667 95 62 123s104 42 188 42h91c-7.333 42.667-41.666 64-102.999 64-24.667 0-49.667-3.833-75-11.5s-47-18.167-65-31.5l-72 149c31.333 19.333 69.166 34.5 113.499 45.5S251 557 295 557c96 0 169.333-21.5 220-64.5zM336.999 139c12.667 8.667 21.999 21.667 27.999 39v38h-56c-46 0-69-15.333-69-46 0-12.667 4.833-23.167 14.5-31.5s22.834-12.5 39.501-12.5c16 0 30.333 4.333 43 13zM145.498 623.5c-17 16.333-25.5 37.5-25.5 63.5s8.5 47.333 25.5 64 38.5 25 64.5 25 47.5-8.333 64.5-25 25.5-38 25.5-64-8.5-47.167-25.5-63.5-38.5-24.5-64.5-24.5-47.5 8.167-64.5 24.5zm222 0c-17 16.333-25.5 37.5-25.5 63.5s8.5 47.333 25.5 64 38.5 25 64.5 25 47.5-8.333 64.5-25 25.5-38 25.5-64-8.5-47.167-25.5-63.5-38.5-24.5-64.5-24.5-47.5 8.167-64.5 24.5z"/><glyph glyph-name="aring" unicode="å" horiz-adv-x="639" d="M515 492.5c50.667-43 75.999-109.167 75.999-198.5V0h-210v72c-26-54.667-77.667-82-155-82-43.333 0-80.166 7.5-110.499 22.5s-53.333 35.333-69 61S23 128 23 160c0 54 20.667 95 62 123s104 42 188 42h91c-7.333 42.667-41.666 64-102.999 64-24.667 0-49.667-3.833-75-11.5s-47-18.167-65-31.5l-72 149c31.333 19.333 69.166 34.5 113.499 45.5S251 557 295 557c96 0 169.333-21.5 220-64.5zM336.999 139c12.667 8.667 21.999 21.667 27.999 39v38h-56c-46 0-69-15.333-69-46 0-12.667 4.833-23.167 14.5-31.5s22.834-12.5 39.501-12.5c16 0 30.333 4.333 43 13zm-87.001 469c-21.333 12-38.166 28.167-50.499 48.5s-18.5 42.833-18.5 67.5 6.167 47.167 18.5 67.5 29.166 36.5 50.499 48.5 45 18 71 18 49.667-6 71-18 38.166-28.167 50.499-48.5 18.5-42.833 18.5-67.5-6.167-47.167-18.5-67.5-29.166-36.5-50.499-48.5-45-18-71-18-49.667 6-71 18zm109.5 77c10.333 10 15.5 23 15.5 39s-5.167 29-15.5 39-23.166 15-38.499 15-28.166-5-38.499-15-15.5-23-15.5-39 5.167-29 15.5-39 23.166-15 38.499-15 28.166 5 38.499 15z"/><glyph glyph-name="ae" unicode="æ" horiz-adv-x="1003" d="M978 219l-378.998.001c7.333-20 20.166-35.333 38.499-46s41.5-16 69.5-16c21.333 0 41 3.167 59 9.5s36.667 16.5 56 30.5l118-119c-27.333-28.667-61-50.5-101-65.5s-85-22.5-135-22.5c-46 0-89 6.667-129 20s-74.667 34-104 62c-24-30-52.5-51.167-85.5-63.5s-71.5-18.5-115.5-18.5c-76.667 0-137 16.167-181 48.5s-66 75.5-66 129.5c0 50.667 20.833 90 62.5 118s104.167 42 187.5 42h90c-8.667 40.667-42.334 61-101.001 61-26 0-51.5-3.833-76.5-11.5s-46.5-18.167-64.5-31.5l-72 149c31.333 19.333 68.833 34.5 112.5 45.5s87.834 16.5 132.501 16.5c85.333 0 151.333-20 198-60 26.667 19.333 56.5 34.166 89.5 44.499s67.5 15.5 103.5 15.5c52.667 0 101.667-11 147-33S913.667 469.833 941 427.5s41-92.833 41-151.5c0-16.667-1.333-35.667-4-57zM623.502 383.001c-15.667-13.333-25.832-31.666-30.499-54.999h173c-4.667 23.333-14.5 41.666-29.5 54.999s-33.5 20-55.5 20c-22.667 0-41.834-6.667-57.501-20zm-276.498-237.5c12 13 18 31.167 18 54.5v19h-56c-46 0-69-15.333-69-46 0-14.667 4.833-26.167 14.5-34.5s23.5-12.5 41.5-12.5c22 0 39 6.5 51 19.5z"/><glyph glyph-name="ccedilla" unicode="ç" horiz-adv-x="615" d="M177.5 26c-49 24-87.333 57.67-115 101.003s-41.5 92.333-41.5 147 13.833 103.5 41.5 146.5 66 76.5 115 100.5 104.5 36 166.5 36c66.667 0 123.667-14.333 171-43s80-68.334 98-119.001l-175-86c-21.333 48-53 72-95 72-26.667 0-48.834-9.333-66.501-28s-26.5-45-26.5-79c0-34.667 8.833-61.334 26.5-80.001s39.834-28 66.501-28c42 0 73.667 24 95 72l175-86C595 101.334 562.333 61.667 515 33S410.667-10 344-10c-62 0-117.5 12-166.5 36zM221-233.997c-18.667 4-33.333 8.999-44 14.999l28 83c20-8 40-12 60-12 32 0 48 8 48 24 0 13.333-13.667 20-41 20h-41l27 114h116l-14-62c29.333-4 50.833-13.5 64.5-28.5s20.5-32.167 20.5-51.5c0-33.333-15.5-59.666-46.5-78.999s-72.167-29-123.5-29c-17.333 0-35.333 2-54 6z"/><glyph glyph-name="egrave" unicode="è" horiz-adv-x="653" d="M629 221l-379.999.001c8-20.667 21.333-36.5 40-47.5s42-16.5 70-16.5c24 0 44.167 3 60.5 9s34.166 16.333 53.499 31l118-119c-53.333-58.667-133-88-239-88-66 0-124 12.167-174 36.5S89.333 84.667 62 128s-41 92-41 146c0 54.667 13.5 103.5 40.5 146.5s64 76.5 111 100.5 99.833 36 158.5 36c55.333 0 105.833-11 151.5-33s82-54.333 109-97S632 333.333 632 274c0-3.333-1-21-3-53zM275.001 384.001c-15.333-12.667-25.335-30.667-30.002-54h176c-4.667 22.667-14.667 40.5-30 53.5s-34.666 19.5-57.999 19.5-42.666-6.333-57.999-19zm-190.002 383h215l132-160h-150z"/><glyph glyph-name="eacute" unicode="é" horiz-adv-x="653" d="M629 221l-379.999.001c8-20.667 21.333-36.5 40-47.5s42-16.5 70-16.5c24 0 44.167 3 60.5 9s34.166 16.333 53.499 31l118-119c-53.333-58.667-133-88-239-88-66 0-124 12.167-174 36.5S89.333 84.667 62 128s-41 92-41 146c0 54.667 13.5 103.5 40.5 146.5s64 76.5 111 100.5 99.833 36 158.5 36c55.333 0 105.833-11 151.5-33s82-54.333 109-97S632 333.333 632 274c0-3.333-1-21-3-53zM275.001 384.001c-15.333-12.667-25.335-30.667-30.002-54h176c-4.667 22.667-14.667 40.5-30 53.5s-34.666 19.5-57.999 19.5-42.666-6.333-57.999-19zm78.998 383h215l-197-160h-150z"/><glyph glyph-name="ecircumflex" unicode="ê" horiz-adv-x="653" d="M629 221l-379.999.001c8-20.667 21.333-36.5 40-47.5s42-16.5 70-16.5c24 0 44.167 3 60.5 9s34.166 16.333 53.499 31l118-119c-53.333-58.667-133-88-239-88-66 0-124 12.167-174 36.5S89.333 84.667 62 128s-41 92-41 146c0 54.667 13.5 103.5 40.5 146.5s64 76.5 111 100.5 99.833 36 158.5 36c55.333 0 105.833-11 151.5-33s82-54.333 109-97S632 333.333 632 274c0-3.333-1-21-3-53zM275.001 384.001c-15.333-12.667-25.335-30.667-30.002-54h176c-4.667 22.667-14.667 40.5-30 53.5s-34.666 19.5-57.999 19.5-42.666-6.333-57.999-19zm135.998 223l-84 77-84-77h-140l128 160h192l128-160h-140z"/><glyph glyph-name="edieresis" unicode="ë" horiz-adv-x="653" d="M629 221l-379.999.001c8-20.667 21.333-36.5 40-47.5s42-16.5 70-16.5c24 0 44.167 3 60.5 9s34.166 16.333 53.499 31l118-119c-53.333-58.667-133-88-239-88-66 0-124 12.167-174 36.5S89.333 84.667 62 128s-41 92-41 146c0 54.667 13.5 103.5 40.5 146.5s64 76.5 111 100.5 99.833 36 158.5 36c55.333 0 105.833-11 151.5-33s82-54.333 109-97S632 333.333 632 274c0-3.333-1-21-3-53zM275.001 384.001c-15.333-12.667-25.335-30.667-30.002-54h176c-4.667 22.667-14.667 40.5-30 53.5s-34.666 19.5-57.999 19.5-42.666-6.333-57.999-19zm-123.502 239.5c-17 16.333-25.5 37.5-25.5 63.5s8.5 47.333 25.5 64 38.5 25 64.5 25 47.5-8.333 64.5-25 25.5-38 25.5-64-8.5-47.167-25.5-63.5-38.5-24.5-64.5-24.5-47.5 8.167-64.5 24.5zm222 0c-17 16.333-25.5 37.5-25.5 63.5s8.5 47.333 25.5 64 38.5 25 64.5 25 47.5-8.333 64.5-25 25.5-38 25.5-64-8.5-47.167-25.5-63.5-38.5-24.5-64.5-24.5-47.5 8.167-64.5 24.5z"/><glyph glyph-name="igrave" unicode="ì" horiz-adv-x="326" d="M50 547h226V0H50v547zM-79 767h215l132-160H118z"/><glyph glyph-name="iacute" unicode="í" horiz-adv-x="326" d="M50 547h226V0H50v547zm140 220h215L208 607H58z"/><glyph glyph-name="icircumflex" unicode="î" horiz-adv-x="326" d="M50 547h226V0H50v547zm172 60l-59 67-59-67H-36L69 767h188l105-160H222z"/><glyph glyph-name="idieresis" unicode="ï" horiz-adv-x="326" d="M50 547h226V0H50v547zm-39.5 76.5C-5.167 639.833-13 661-13 687s7.833 47.333 23.5 64S46 776 70 776c23.333 0 42.833-8.333 58.5-25s23.5-38 23.5-64-7.833-47.167-23.5-63.5S93.333 599 70 599c-24 0-43.833 8.167-59.5 24.5zm187 0C181.833 639.833 174 661 174 687s7.833 47.333 23.5 64 35.5 25 59.5 25c23.333 0 42.833-8.333 58.5-25s23.5-38 23.5-64-7.833-47.167-23.5-63.5S280.333 599 257 599c-24 0-43.833 8.167-59.5 24.5z"/><glyph glyph-name="eth" unicode="ð" horiz-adv-x="676" d="M655 338c0-73.333-14.332-136.666-42.999-189.999s-68.834-94-120.501-122-112.167-42-181.5-42c-54 0-103 10.167-147 30.5S84.333 63.667 59 101s-38 80-38 128c0 44 11 83 33 117s51.833 60.333 89.5 79 79.167 28 124.5 28c61.333 0 110.333-14.333 147-43-2 52.667-15 94-39 124l-232-84-35 91 146 53c-16 1.333-28.333 2-37 2-44 0-84.333-6-121-18L76 741c53.333 11.333 105.333 17 156 17 110 0 200.333-24.667 271-74l93 34 35-91-51-19c50-68.667 75-158.667 75-270zM383.001 166.5c14.667 13 22 30.167 22 51.5s-7.333 38.666-22 51.999-33 20-55 20-40.333-6.667-55-20-22-30.666-22-51.999 7.333-38.5 22-51.5 33-19.5 55-19.5 40.333 6.5 55 19.5z"/><glyph glyph-name="ntilde" unicode="ñ" horiz-adv-x="702" d="M592.5 496c41-40.667 61.5-102 61.5-184V0H428v273c0 62.667-22.333 94-67 94-25.333 0-45.833-8.833-61.5-26.5S276 295 276 257V0H50v547h215v-54c21.333 21.333 46 37.333 74 48s58.333 16 91 16c67.333 0 121.5-20.333 162.5-61zM384 607c-15.333 6.667-31.333 15.667-48 27-11.333 7.333-20.5 12.833-27.5 16.5S294.667 656 288 656c-12.667 0-23-4.333-31-13s-12.667-20.667-14-36H136c1.333 53.333 14.166 95.5 38.499 126.5s57.5 46.5 99.5 46.5c19.333 0 36.666-3.333 51.999-10s31.333-15.667 48-27c11.333-8 20.5-13.667 27.5-17s13.833-5 20.5-5c12.667 0 23 4.167 31 12.5s12.667 19.5 14 33.5h107c-1.333-51.333-14.166-92.5-38.499-123.5s-57.5-46.5-99.5-46.5c-19.333 0-36.666 3.333-51.999 10z"/><glyph glyph-name="ograve" unicode="ò" horiz-adv-x="678" d="M175.5 26.5c-48.333 24.333-86.166 58-113.499 101s-41 91.833-41 146.5 13.667 103.5 41 146.5S127.167 497 175.5 521s102.833 36 163.5 36c61.333 0 116.166-12 164.499-36s86-57.5 113-100.5 40.5-91.833 40.5-146.5-13.5-103.5-40.5-146.5-64.667-76.667-113-101S400.333-10 339-10c-60.667 0-115.167 12.167-163.5 36.5zm227.5 168c16.667 19 25 45.5 25 79.5s-8.333 60.333-25 79-38 28-64 28-47.333-9.333-64-28-25-45-25-79 8.333-60.5 25-79.5 38-28.5 64-28.5 47.333 9.5 64 28.5zM94 767h215l132-160H291z"/><glyph glyph-name="oacute" unicode="ó" horiz-adv-x="678" d="M175.5 26.5c-48.333 24.333-86.166 58-113.499 101s-41 91.833-41 146.5 13.667 103.5 41 146.5S127.167 497 175.5 521s102.833 36 163.5 36c61.333 0 116.166-12 164.499-36s86-57.5 113-100.5 40.5-91.833 40.5-146.5-13.5-103.5-40.5-146.5-64.667-76.667-113-101S400.333-10 339-10c-60.667 0-115.167 12.167-163.5 36.5zm227.5 168c16.667 19 25 45.5 25 79.5s-8.333 60.333-25 79-38 28-64 28-47.333-9.333-64-28-25-45-25-79 8.333-60.5 25-79.5 38-28.5 64-28.5 47.333 9.5 64 28.5zM363 767h215L381 607H231z"/><glyph glyph-name="ocircumflex" unicode="ô" horiz-adv-x="678" d="M175.5 26.5c-48.333 24.333-86.166 58-113.499 101s-41 91.833-41 146.5 13.667 103.5 41 146.5S127.167 497 175.5 521s102.833 36 163.5 36c61.333 0 116.166-12 164.499-36s86-57.5 113-100.5 40.5-91.833 40.5-146.5-13.5-103.5-40.5-146.5-64.667-76.667-113-101S400.333-10 339-10c-60.667 0-115.167 12.167-163.5 36.5zm227.5 168c16.667 19 25 45.5 25 79.5s-8.333 60.333-25 79-38 28-64 28-47.333-9.333-64-28-25-45-25-79 8.333-60.5 25-79.5 38-28.5 64-28.5 47.333 9.5 64 28.5zM420 607l-84 77-84-77H112l128 160h192l128-160H420z"/><glyph glyph-name="otilde" unicode="õ" horiz-adv-x="678" d="M175.5 26.5c-48.333 24.333-86.166 58-113.499 101s-41 91.833-41 146.5 13.667 103.5 41 146.5S127.167 497 175.5 521s102.833 36 163.5 36c61.333 0 116.166-12 164.499-36s86-57.5 113-100.5 40.5-91.833 40.5-146.5-13.5-103.5-40.5-146.5-64.667-76.667-113-101S400.333-10 339-10c-60.667 0-115.167 12.167-163.5 36.5zm227.5 168c16.667 19 25 45.5 25 79.5s-8.333 60.333-25 79-38 28-64 28-47.333-9.333-64-28-25-45-25-79 8.333-60.5 25-79.5 38-28.5 64-28.5 47.333 9.5 64 28.5zM365 607c-15.333 6.667-31.333 15.667-48 27-11.333 7.333-20.5 12.833-27.5 16.5S275.667 656 269 656c-12.667 0-23-4.333-31-13s-12.667-20.667-14-36H117c1.333 53.333 14.166 95.5 38.499 126.5s57.5 46.5 99.5 46.5c19.333 0 36.666-3.333 51.999-10s31.333-15.667 48-27c11.333-8 20.5-13.667 27.5-17s13.833-5 20.5-5c12.667 0 23 4.167 31 12.5s12.667 19.5 14 33.5h107c-1.333-51.333-14.166-92.5-38.499-123.5s-57.5-46.5-99.5-46.5c-19.333 0-36.666 3.333-51.999 10z"/><glyph glyph-name="odieresis" unicode="ö" horiz-adv-x="678" d="M175.5 26.5c-48.333 24.333-86.166 58-113.499 101s-41 91.833-41 146.5 13.667 103.5 41 146.5S127.167 497 175.5 521s102.833 36 163.5 36c61.333 0 116.166-12 164.499-36s86-57.5 113-100.5 40.5-91.833 40.5-146.5-13.5-103.5-40.5-146.5-64.667-76.667-113-101S400.333-10 339-10c-60.667 0-115.167 12.167-163.5 36.5zm227.5 168c16.667 19 25 45.5 25 79.5s-8.333 60.333-25 79-38 28-64 28-47.333-9.333-64-28-25-45-25-79 8.333-60.5 25-79.5 38-28.5 64-28.5 47.333 9.5 64 28.5zm-242.5 429C143.5 639.833 135 661 135 687s8.5 47.333 25.5 64 38.5 25 64.5 25 47.5-8.333 64.5-25 25.5-38 25.5-64-8.5-47.167-25.5-63.5S251 599 225 599s-47.5 8.167-64.5 24.5zm222 0C365.5 639.833 357 661 357 687s8.5 47.333 25.5 64 38.5 25 64.5 25 47.5-8.333 64.5-25 25.5-38 25.5-64-8.5-47.167-25.5-63.5S473 599 447 599s-47.5 8.167-64.5 24.5z"/><glyph glyph-name="divide" unicode="÷" horiz-adv-x="620" d="M230 493c-21.333 20.667-32 47-32 79s10.667 58 32 78 48 30 80 30 58.667-10 80-30 32-46 32-78-10.667-58.333-32-79-48-31-80-31-58.667 10.333-80 31zM55 435h510V265H55v170zM230 51c-21.333 20.667-32 47-32 79s10.667 58 32 78 48 30 80 30 58.667-10 80-30 32-46 32-78-10.667-58.333-32-79-48-31-80-31-58.667 10.333-80 31z"/><glyph glyph-name="oslash" unicode="ø" horiz-adv-x="678" d="M175.5 26.5c-48.333 24.333-86.166 58-113.499 101s-41 91.833-41 146.5 13.667 103.5 41 146.5S127.167 497 175.5 521s102.833 36 163.5 36c61.333 0 116.166-12 164.499-36s86-57.5 113-100.5 40.5-91.833 40.5-146.5-13.5-103.5-40.5-146.5-64.667-76.667-113-101S400.333-10 339-10c-60.667 0-115.167 12.167-163.5 36.5zm227.5 168c16.667 19 25 45.5 25 79.5s-8.333 60.333-25 79-38 28-64 28-47.333-9.333-64-28-25-45-25-79 8.333-60.5 25-79.5 38-28.5 64-28.5 47.333 9.5 64 28.5zM509 610h95L163-70H68z"/><glyph glyph-name="ugrave" unicode="ù" horiz-adv-x="698" d="M648 547V.001H433v52c-20-20.667-43.333-36.167-70-46.5s-55-15.5-85-15.5c-69.333 0-125 21.167-167 63.5S48 159.667 48 245v302h226V284c0-37.333 6-64 18-80s29.667-24 53-24c22 0 40.333 8.833 55 26.5s22 45.5 22 83.5v257h226zM106 767.001h215l132-160H303z"/><glyph glyph-name="uacute" unicode="ú" horiz-adv-x="698" d="M648 547V.001H433v52c-20-20.667-43.333-36.167-70-46.5s-55-15.5-85-15.5c-69.333 0-125 21.167-167 63.5S48 159.667 48 245v302h226V284c0-37.333 6-64 18-80s29.667-24 53-24c22 0 40.333 8.833 55 26.5s22 45.5 22 83.5v257h226zM375 767.001h215l-197-160H243z"/><glyph glyph-name="ucircumflex" unicode="û" horiz-adv-x="698" d="M648 547V.001H433v52c-20-20.667-43.333-36.167-70-46.5s-55-15.5-85-15.5c-69.333 0-125 21.167-167 63.5S48 159.667 48 245v302h226V284c0-37.333 6-64 18-80s29.667-24 53-24c22 0 40.333 8.833 55 26.5s22 45.5 22 83.5v257h226zm-216 60.001l-84 77-84-77H124l128 160h192l128-160H432z"/><glyph glyph-name="udieresis" unicode="ü" horiz-adv-x="698" d="M648 547V.001H433v52c-20-20.667-43.333-36.167-70-46.5s-55-15.5-85-15.5c-69.333 0-125 21.167-167 63.5S48 159.667 48 245v302h226V284c0-37.333 6-64 18-80s29.667-24 53-24c22 0 40.333 8.833 55 26.5s22 45.5 22 83.5v257h226zm-475.5 76.501c-17 16.333-25.5 37.5-25.5 63.5s8.5 47.333 25.5 64 38.5 25 64.5 25 47.5-8.333 64.5-25 25.5-38 25.5-64-8.5-47.167-25.5-63.5-38.5-24.5-64.5-24.5-47.5 8.167-64.5 24.5zm222 0c-17 16.333-25.5 37.5-25.5 63.5s8.5 47.333 25.5 64 38.5 25 64.5 25 47.5-8.333 64.5-25 25.5-38 25.5-64-8.5-47.167-25.5-63.5-38.5-24.5-64.5-24.5-47.5 8.167-64.5 24.5z"/><glyph glyph-name="yacute" unicode="ý" horiz-adv-x="644" d="M659 547L434.002-11c-28.667-71.333-64.334-121.333-107.001-150s-95-43-157-43c-30.667 0-61.5 4.5-92.5 13.5s-55.5 20.833-73.5 35.5l75 155c11.333-8.667 24.166-15.667 38.499-21s28.166-8 41.499-8c24.667 0 43.334 7.333 56.001 22L-15 547h232l113-293 115 293h214zM340.002 767h215l-197-160h-150z"/><glyph glyph-name="thorn" unicode="þ" horiz-adv-x="700" d="M547.5 522.5c40.333-23 72.333-56.167 96-99.5S679 329.667 679 273s-11.833-106.5-35.5-149.5-55.667-76-96-99S463-10 415-10c-60.667 0-107 15.667-139 47v-231H50v936h226V513c32 29.333 78.333 44 139 44 48 0 92.167-11.5 132.5-34.5zM425 194c16.667 18.667 25 45 25 79s-8.333 60.5-25 79.5-38 28.5-64 28.5-47.333-9.5-64-28.5-25-45.5-25-79.5 8.333-60.333 25-79 38-28 64-28 47.333 9.333 64 28z"/><glyph glyph-name="ydieresis" unicode="ÿ" horiz-adv-x="644" d="M659 547L434.002-11c-28.667-71.333-64.334-121.333-107.001-150s-95-43-157-43c-30.667 0-61.5 4.5-92.5 13.5s-55.5 20.833-73.5 35.5l75 155c11.333-8.667 24.166-15.667 38.499-21s28.166-8 41.499-8c24.667 0 43.334 7.333 56.001 22L-15 547h232l113-293 115 293h214zm-521.498 76.5c-17 16.333-25.5 37.5-25.5 63.5s8.5 47.333 25.5 64 38.5 25 64.5 25 47.5-8.333 64.5-25 25.5-38 25.5-64-8.5-47.167-25.5-63.5-38.5-24.5-64.5-24.5-47.5 8.167-64.5 24.5zm222 0c-17 16.333-25.5 37.5-25.5 63.5s8.5 47.333 25.5 64 38.5 25 64.5 25 47.5-8.333 64.5-25 25.5-38 25.5-64-8.5-47.167-25.5-63.5-38.5-24.5-64.5-24.5-47.5 8.167-64.5 24.5z"/><glyph glyph-name="Amacron" unicode="Ā" horiz-adv-x="806" d="M534 122H268L221 0H-19l306 700h232L825 0H581zm-65 170l-68 176-68-176h136zM193 896h420V778H193v118z"/><glyph glyph-name="amacron" unicode="ā" horiz-adv-x="639" d="M515 492.5c50.667-43 75.999-109.167 75.999-198.5V0h-210v72c-26-54.667-77.667-82-155-82-43.333 0-80.166 7.5-110.499 22.5s-53.333 35.333-69 61S23 128 23 160c0 54 20.667 95 62 123s104 42 188 42h91c-7.333 42.667-41.666 64-102.999 64-24.667 0-49.667-3.833-75-11.5s-47-18.167-65-31.5l-72 149c31.333 19.333 69.166 34.5 113.499 45.5S251 557 295 557c96 0 169.333-21.5 220-64.5zM336.999 139c12.667 8.667 21.999 21.667 27.999 39v38h-56c-46 0-69-15.333-69-46 0-12.667 4.833-23.167 14.5-31.5s22.834-12.5 39.501-12.5c16 0 30.333 4.333 43 13zM110.998 746h420V628h-420v118z"/><glyph glyph-name="Abreve" unicode="Ă" horiz-adv-x="806" d="M534 122H268L221 0H-19l306 700h232L825 0H581zm-65 170l-68 176-68-176h136zM255 793c-38 30.667-58.335 72-61.002 124h135c1.333-18.667 8.833-33.5 22.5-44.5s30.834-16.5 51.501-16.5 37.834 5.5 51.501 16.5 21.167 25.833 22.5 44.5h135c-2.667-52-23-93.333-61-124s-87.333-46-148-46-110 15.333-148 46z"/><glyph glyph-name="abreve" unicode="ă" horiz-adv-x="639" d="M515 492.5c50.667-43 75.999-109.167 75.999-198.5V0h-210v72c-26-54.667-77.667-82-155-82-43.333 0-80.166 7.5-110.499 22.5s-53.333 35.333-69 61S23 128 23 160c0 54 20.667 95 62 123s104 42 188 42h91c-7.333 42.667-41.666 64-102.999 64-24.667 0-49.667-3.833-75-11.5s-47-18.167-65-31.5l-72 149c31.333 19.333 69.166 34.5 113.499 45.5S251 557 295 557c96 0 169.333-21.5 220-64.5zM336.999 139c12.667 8.667 21.999 21.667 27.999 39v38h-56c-46 0-69-15.333-69-46 0-12.667 4.833-23.167 14.5-31.5s22.834-12.5 39.501-12.5c16 0 30.333 4.333 43 13zM172.998 643c-38 30.667-58.335 72-61.002 124h135c1.333-18.667 8.833-33.5 22.5-44.5S300.33 706 320.997 706s37.834 5.5 51.501 16.5 21.167 25.833 22.5 44.5h135c-2.667-52-23-93.333-61-124s-87.333-46-148-46-110 15.333-148 46z"/><glyph glyph-name="Aogonek" unicode="Ą" horiz-adv-x="806" d="M534 122H268L221 0H-19l306 700h232L825 0H581zm-65 170l-68 176-68-176h136zm152-499c-28 22-42 51.998-42 89.998 0 36.667 14.5 69.334 43.5 98.001S692.667 32.333 746 49l79-49c-42-18.667-71.5-35.5-88.5-50.5S711-81 711-97c0-12 4.5-21.833 13.5-29.5S746.667-138 764-138c19.333 0 39 4.667 59 14l27-93c-12-6.667-28.5-12.167-49.5-16.5S758.333-240 737-240c-49.333 0-88 11-116 33z"/><glyph glyph-name="aogonek" unicode="ą" horiz-adv-x="639" d="M515 492.5c50.667-43 75.999-109.167 75.999-198.5V0h-210v72c-26-54.667-77.667-82-155-82-43.333 0-80.166 7.5-110.499 22.5s-53.333 35.333-69 61S23 128 23 160c0 54 20.667 95 62 123s104 42 188 42h91c-7.333 42.667-41.666 64-102.999 64-24.667 0-49.667-3.833-75-11.5s-47-18.167-65-31.5l-72 149c31.333 19.333 69.166 34.5 113.499 45.5S251 557 295 557c96 0 169.333-21.5 220-64.5zM336.999 139c12.667 8.667 21.999 21.667 27.999 39v38h-56c-46 0-69-15.333-69-46 0-12.667 4.833-23.167 14.5-31.5s22.834-12.5 39.501-12.5c16 0 30.333 4.333 43 13zm49.999-346c-28 22-42 51.998-42 89.998 0 36.667 14.5 69.334 43.5 98.001S458.665 32.333 511.998 49l79-49c-42-18.667-71.5-35.5-88.5-50.5s-25.5-30.5-25.5-46.5c0-12 4.5-21.833 13.5-29.5s22.167-11.5 39.5-11.5c19.333 0 39 4.667 59 14l27-93c-12-6.667-28.5-12.167-49.5-16.5s-42.167-6.5-63.5-6.5c-49.333 0-88 11-116 33z"/><glyph glyph-name="Cacute" unicode="Ć" horiz-adv-x="744" d="M219 30.5c-59.333 31-105.833 74.331-139.5 129.998S29 279.332 29 349.999 45.833 483.833 79.5 539.5s80.167 99 139.5 130S345 716 419 716c68 0 128.667-12 182-36s97.333-58.667 132-104L584 443c-43.333 54.667-94.333 82-153 82-49.333 0-89-15.833-119-47.5s-45-74.167-45-127.5 15-95.833 45-127.5S381.667 175 431 175c58.667 0 109.667 27.333 153 82l149-133c-34.667-45.333-78.667-80-132-104S487-16 419-16C345-16 278.333-.5 219 30.5zm226 887.498h215l-197-160H313z"/><glyph glyph-name="cacute" unicode="ć" horiz-adv-x="615" d="M177.5 26c-49 24-87.333 57.67-115 101.003s-41.5 92.333-41.5 147 13.833 103.5 41.5 146.5 66 76.5 115 100.5 104.5 36 166.5 36c66.667 0 123.667-14.333 171-43s80-68.334 98-119.001l-175-86c-21.333 48-53 72-95 72-26.667 0-48.834-9.333-66.501-28s-26.5-45-26.5-79c0-34.667 8.833-61.334 26.5-80.001s39.834-28 66.501-28c42 0 73.667 24 95 72l175-86C595 101.334 562.333 61.667 515 33S410.667-10 344-10c-62 0-117.5 12-166.5 36zM351 767.003h215l-197-160H219z"/><glyph glyph-name="Ccircumflex" unicode="Ĉ" horiz-adv-x="744" d="M219 30.5c-59.333 31-105.833 74.331-139.5 129.998S29 279.332 29 349.999 45.833 483.833 79.5 539.5s80.167 99 139.5 130S345 716 419 716c68 0 128.667-12 182-36s97.333-58.667 132-104L584 443c-43.333 54.667-94.333 82-153 82-49.333 0-89-15.833-119-47.5s-45-74.167-45-127.5 15-95.833 45-127.5S381.667 175 431 175c58.667 0 109.667 27.333 153 82l149-133c-34.667-45.333-78.667-80-132-104S487-16 419-16C345-16 278.333-.5 219 30.5zm283 727.498l-84 77-84-77H194l128 160h192l128-160H502z"/><glyph glyph-name="ccircumflex" unicode="ĉ" horiz-adv-x="615" d="M177.5 26c-49 24-87.333 57.67-115 101.003s-41.5 92.333-41.5 147 13.833 103.5 41.5 146.5 66 76.5 115 100.5 104.5 36 166.5 36c66.667 0 123.667-14.333 171-43s80-68.334 98-119.001l-175-86c-21.333 48-53 72-95 72-26.667 0-48.834-9.333-66.501-28s-26.5-45-26.5-79c0-34.667 8.833-61.334 26.5-80.001s39.834-28 66.501-28c42 0 73.667 24 95 72l175-86C595 101.334 562.333 61.667 515 33S410.667-10 344-10c-62 0-117.5 12-166.5 36zM408 607.003l-84 77-84-77H100l128 160h192l128-160H408z"/><glyph glyph-name="Cdotaccent" unicode="Ċ" horiz-adv-x="744" d="M219 30.5c-59.333 31-105.833 74.331-139.5 129.998S29 279.332 29 349.999 45.833 483.833 79.5 539.5s80.167 99 139.5 130S345 716 419 716c68 0 128.667-12 182-36s97.333-58.667 132-104L584 443c-43.333 54.667-94.333 82-153 82-49.333 0-89-15.833-119-47.5s-45-74.167-45-127.5 15-95.833 45-127.5S381.667 175 431 175c58.667 0 109.667 27.333 153 82l149-133c-34.667-45.333-78.667-80-132-104S487-16 419-16C345-16 278.333-.5 219 30.5zm117 749.498c-21.333 21.333-32 48.666-32 81.999s10.667 60.666 32 81.999 48.666 32 81.999 32 60.666-10.667 81.999-32 32-48.666 32-81.999-10.667-60.666-32-81.999-48.666-32-81.999-32-60.666 10.667-81.999 32z"/><glyph glyph-name="cdotaccent" unicode="ċ" horiz-adv-x="615" d="M177.5 26c-49 24-87.333 57.67-115 101.003s-41.5 92.333-41.5 147 13.833 103.5 41.5 146.5 66 76.5 115 100.5 104.5 36 166.5 36c66.667 0 123.667-14.333 171-43s80-68.334 98-119.001l-175-86c-21.333 48-53 72-95 72-26.667 0-48.834-9.333-66.501-28s-26.5-45-26.5-79c0-34.667 8.833-61.334 26.5-80.001s39.834-28 66.501-28c42 0 73.667 24 95 72l175-86C595 101.334 562.333 61.667 515 33S410.667-10 344-10c-62 0-117.5 12-166.5 36zM242 629.003c-21.333 21.333-32 48.666-32 81.999s10.667 60.666 32 81.999 48.666 32 81.999 32 60.666-10.667 81.999-32 32-48.666 32-81.999-10.667-60.666-32-81.999-48.666-32-81.999-32-60.666 10.667-81.999 32z"/><glyph glyph-name="Ccaron" unicode="Č" horiz-adv-x="744" d="M219 30.5c-59.333 31-105.833 74.331-139.5 129.998S29 279.332 29 349.999 45.833 483.833 79.5 539.5s80.167 99 139.5 130S345 716 419 716c68 0 128.667-12 182-36s97.333-58.667 132-104L584 443c-43.333 54.667-94.333 82-153 82-49.333 0-89-15.833-119-47.5s-45-74.167-45-127.5 15-95.833 45-127.5S381.667 175 431 175c58.667 0 109.667 27.333 153 82l149-133c-34.667-45.333-78.667-80-132-104S487-16 419-16C345-16 278.333-.5 219 30.5zm423 887.498l-128-160H322l-128 160h140l84-77 84 77h140z"/><glyph glyph-name="ccaron" unicode="č" horiz-adv-x="615" d="M177.5 26c-49 24-87.333 57.67-115 101.003s-41.5 92.333-41.5 147 13.833 103.5 41.5 146.5 66 76.5 115 100.5 104.5 36 166.5 36c66.667 0 123.667-14.333 171-43s80-68.334 98-119.001l-175-86c-21.333 48-53 72-95 72-26.667 0-48.834-9.333-66.501-28s-26.5-45-26.5-79c0-34.667 8.833-61.334 26.5-80.001s39.834-28 66.501-28c42 0 73.667 24 95 72l175-86C595 101.334 562.333 61.667 515 33S410.667-10 344-10c-62 0-117.5 12-166.5 36zM548 767.003l-128-160H228l-128 160h140l84-77 84 77h140z"/><glyph glyph-name="Dcaron" unicode="Ď" horiz-adv-x="826" d="M57 700h345c78 0 146.833-14.167 206.5-42.5s106-68.833 139-121.5S797 421.333 797 350s-16.5-133.333-49.5-186-79.333-93.167-139-121.5S480 0 402 0H57v700zm335-516c50.667 0 91.167 14.5 121.5 43.5S559 297.333 559 350s-15.167 93.5-45.5 122.5S442.667 516 392 516h-99V184h99zm191 733L455 757H263L135 917h140l84-77 84 77h140z"/><glyph glyph-name="dcaron" unicode="ď" horiz-adv-x="705" d="M655 742V0H440v45c-32.667-36.667-82.667-55-150-55-48 0-92.167 11.5-132.5 34.5s-72.333 56.167-96 99.5S26 217.333 26 274s11.833 106.5 35.5 149.5 55.667 76 96 99S242 557 290 557c60.667 0 107-15.667 139-47v232h226zM408 194.5c16.667 19 25 45.5 25 79.5s-8.333 60.333-25 79-38 28-64 28-47.333-9.333-64-28-25-45-25-79 8.333-60.5 25-79.5 38-28.5 64-28.5 47.333 9.5 64 28.5zM728 792h158l-30-210H728v210z"/><glyph glyph-name="Dcroat" unicode="Đ" horiz-adv-x="846" d="M77 700h345c78 0 146.833-14.167 206.5-42.5s106-68.833 139-121.5S817 421.333 817 350s-16.5-133.333-49.5-186-79.333-93.167-139-121.5S500 0 422 0H77v700zm335-516c50.667 0 91.167 14.5 121.5 43.5S579 297.333 579 350s-15.167 93.5-45.5 122.5S462.667 516 412 516h-99V184h99zM-9 423h470V287H-9v136z"/><glyph glyph-name="dcroat" unicode="đ" horiz-adv-x="705" d="M655 742V0H440v45c-32.667-36.667-82.667-55-150-55-48 0-92.167 11.5-132.5 34.5s-72.333 56.167-96 99.5S26 217.333 26 274s11.833 106.5 35.5 149.5 55.667 76 96 99S242 557 290 557c60.667 0 107-15.667 139-47v232h226zM408 194.5c16.667 19 25 45.5 25 79.5s-8.333 60.333-25 79-38 28-64 28-47.333-9.333-64-28-25-45-25-79 8.333-60.5 25-79.5 38-28.5 64-28.5 47.333 9.5 64 28.5zM278 695h428V585H278v110z"/><glyph glyph-name="Emacron" unicode="Ē" horiz-adv-x="673" d="M639 178V0H57v700h569V522H289v-82h296V270H289v-92h350zM132 896h420V778H132v118z"/><glyph glyph-name="emacron" unicode="ē" horiz-adv-x="653" d="M629 221l-379.999.001c8-20.667 21.333-36.5 40-47.5s42-16.5 70-16.5c24 0 44.167 3 60.5 9s34.166 16.333 53.499 31l118-119c-53.333-58.667-133-88-239-88-66 0-124 12.167-174 36.5S89.333 84.667 62 128s-41 92-41 146c0 54.667 13.5 103.5 40.5 146.5s64 76.5 111 100.5 99.833 36 158.5 36c55.333 0 105.833-11 151.5-33s82-54.333 109-97S632 333.333 632 274c0-3.333-1-21-3-53zM275.001 384.001c-15.333-12.667-25.335-30.667-30.002-54h176c-4.667 22.667-14.667 40.5-30 53.5s-34.666 19.5-57.999 19.5-42.666-6.333-57.999-19zm-158.002 362h420v-118h-420v118z"/><glyph glyph-name="Ebreve" unicode="Ĕ" horiz-adv-x="673" d="M639 178V0H57v700h569V522H289v-82h296V270H289v-92h350zM194 793c-38 30.667-58.335 72-61.002 124h135c1.333-18.667 8.833-33.5 22.5-44.5s30.834-16.5 51.501-16.5 37.834 5.5 51.501 16.5 21.167 25.833 22.5 44.5h135c-2.667-52-23-93.333-61-124s-87.333-46-148-46-110 15.333-148 46z"/><glyph glyph-name="ebreve" unicode="ĕ" horiz-adv-x="653" d="M629 221l-379.999.001c8-20.667 21.333-36.5 40-47.5s42-16.5 70-16.5c24 0 44.167 3 60.5 9s34.166 16.333 53.499 31l118-119c-53.333-58.667-133-88-239-88-66 0-124 12.167-174 36.5S89.333 84.667 62 128s-41 92-41 146c0 54.667 13.5 103.5 40.5 146.5s64 76.5 111 100.5 99.833 36 158.5 36c55.333 0 105.833-11 151.5-33s82-54.333 109-97S632 333.333 632 274c0-3.333-1-21-3-53zM275.001 384.001c-15.333-12.667-25.335-30.667-30.002-54h176c-4.667 22.667-14.667 40.5-30 53.5s-34.666 19.5-57.999 19.5-42.666-6.333-57.999-19zm-96.002 259c-38 30.667-58.335 72-61.002 124h135c1.333-18.667 8.833-33.5 22.5-44.5s30.834-16.5 51.501-16.5 37.834 5.5 51.501 16.5 21.167 25.833 22.5 44.5h135c-2.667-52-23-93.333-61-124s-87.333-46-148-46-110 15.333-148 46z"/><glyph glyph-name="Edotaccent" unicode="Ė" horiz-adv-x="673" d="M639 178V0H57v700h569V522H289v-82h296V270H289v-92h350zM260 779c-21.333 21.333-32 48.666-32 81.999s10.667 60.666 32 81.999 48.666 32 81.999 32 60.666-10.667 81.999-32 32-48.666 32-81.999-10.667-60.666-32-81.999-48.666-32-81.999-32-60.666 10.667-81.999 32z"/><glyph glyph-name="edotaccent" unicode="ė" horiz-adv-x="653" d="M629 221l-379.999.001c8-20.667 21.333-36.5 40-47.5s42-16.5 70-16.5c24 0 44.167 3 60.5 9s34.166 16.333 53.499 31l118-119c-53.333-58.667-133-88-239-88-66 0-124 12.167-174 36.5S89.333 84.667 62 128s-41 92-41 146c0 54.667 13.5 103.5 40.5 146.5s64 76.5 111 100.5 99.833 36 158.5 36c55.333 0 105.833-11 151.5-33s82-54.333 109-97S632 333.333 632 274c0-3.333-1-21-3-53zM275.001 384.001c-15.333-12.667-25.335-30.667-30.002-54h176c-4.667 22.667-14.667 40.5-30 53.5s-34.666 19.5-57.999 19.5-42.666-6.333-57.999-19zm-30.002 245c-21.333 21.333-32 48.666-32 81.999s10.667 60.666 32 81.999 48.666 32 81.999 32 60.666-10.667 81.999-32 32-48.666 32-81.999-10.667-60.666-32-81.999-48.666-32-81.999-32-60.666 10.667-81.999 32z"/><glyph glyph-name="Eogonek" unicode="Ę" horiz-adv-x="673" d="M639 178V0H57v700h569V522H289v-82h296V270H289v-92h350zM435-207c-28 22-42 51.998-42 89.998 0 36.667 14.5 69.334 43.5 98.001S506.667 32.333 560 49l79-49c-42-18.667-71.5-35.5-88.5-50.5S525-81 525-97c0-12 4.5-21.833 13.5-29.5S560.667-138 578-138c19.333 0 39 4.667 59 14l27-93c-12-6.667-28.5-12.167-49.5-16.5S572.333-240 551-240c-49.333 0-88 11-116 33z"/><glyph glyph-name="eogonek" unicode="ę" horiz-adv-x="653" d="M629 221l-379.999.002c8-20.667 21.333-36.5 40-47.5s42-16.5 70-16.5c24 0 44.167 3 60.5 9s34.166 16.333 53.499 31l119-119c-14.667-16-29-28.333-43-37-44-27.333-73.5-50.833-88.5-70.5s-22.5-39.5-22.5-59.5c0-14.667 4.833-26.5 14.5-35.5s23.167-13.5 40.5-13.5c18 0 37 4.667 57 14l27-93c-12-6.667-28.5-12.167-49.5-16.5s-42.167-6.5-63.5-6.5c-50 0-88.833 11.167-116.5 33.5S306-153.332 306-113.999c0 19.333 4.5 38 13.5 56s21.5 34 37.5 48h-5c-66 0-124 12.167-174 36.5S89.333 84.667 62 128s-41 92-41 146c0 54.667 13.5 103.5 40.5 146.5s64 76.5 111 100.5 99.833 36 158.5 36c55.333 0 105.833-11 151.5-33s82-54.333 109-97S632 333.333 632 274c0-3.333-1-21-3-53zM275.001 384.002c-15.333-12.667-25.335-30.667-30.002-54h176c-4.667 22.667-14.667 40.5-30 53.5s-34.666 19.5-57.999 19.5-42.666-6.333-57.999-19z"/><glyph glyph-name="Ecaron" unicode="Ě" horiz-adv-x="673" d="M639 178V0H57v700h569V522H289v-82h296V270H289v-92h350zm-73 739L438 757H246L118 917h140l84-77 84 77h140z"/><glyph glyph-name="ecaron" unicode="ě" horiz-adv-x="653" d="M629 221l-379.999.001c8-20.667 21.333-36.5 40-47.5s42-16.5 70-16.5c24 0 44.167 3 60.5 9s34.166 16.333 53.499 31l118-119c-53.333-58.667-133-88-239-88-66 0-124 12.167-174 36.5S89.333 84.667 62 128s-41 92-41 146c0 54.667 13.5 103.5 40.5 146.5s64 76.5 111 100.5 99.833 36 158.5 36c55.333 0 105.833-11 151.5-33s82-54.333 109-97S632 333.333 632 274c0-3.333-1-21-3-53zM275.001 384.001c-15.333-12.667-25.335-30.667-30.002-54h176c-4.667 22.667-14.667 40.5-30 53.5s-34.666 19.5-57.999 19.5-42.666-6.333-57.999-19zm275.998 383l-128-160h-192l-128 160h140l84-77 84 77h140z"/><glyph glyph-name="Gcircumflex" unicode="Ĝ" horiz-adv-x="769" d="M520 369l205.001-.002v-296c-41.333-28.667-89.333-50.667-144-66s-108.334-23-161.001-23c-74.667 0-141.667 15.5-201 46.5s-105.833 74.333-139.5 130S29 279.332 29 349.999 45.833 483.833 79.5 539.5s80.667 99 141 130S349 716 425 716c68.667 0 130.167-11.5 184.5-34.5S709 625 745 581L594 448c-44 51.333-96.333 77-157 77-52 0-93.333-15.667-124-47s-46-74-46-128c0-52.667 15.167-95 45.5-127s70.833-48 121.5-48c30 0 58.667 5.667 86 17v177zm-11.999 388.998l-84 77-84-77h-140l128 160h192l128-160h-140z"/><glyph glyph-name="gcircumflex" unicode="ĝ" horiz-adv-x="711" d="M661 547V109.001c0-104-28.833-182.167-86.5-234.5s-139.834-78.5-246.501-78.5c-54.667 0-105.667 5.833-153 17.5s-87.666 28.5-120.999 50.5l76 154c21.333-16 48.333-29 81-39s64-15 94-15c45.333 0 78.333 9.667 99 29S435 40.667 435 78v10c-34-38.667-84.333-58-151-58-46.667 0-90.167 10.833-130.5 32.5S81 115.167 57 155.5 21 242 21 294s12 98 36 138 56.167 70.833 96.5 92.5S237.333 557 284 557c74.667 0 128.667-24 162-72v62h215zM410.5 230.501c17.667 16.333 26.5 37.5 26.5 63.5s-8.833 47-26.5 63-39.834 24-66.501 24c-27.333 0-49.833-8-67.5-24s-26.5-37-26.5-63 9-47.167 27-63.5 40.333-24.5 67-24.5 48.834 8.167 66.501 24.5zm28.5 376.5l-84 77-84-77H131l128 160h192l128-160H439z"/><glyph glyph-name="Gbreve" unicode="Ğ" horiz-adv-x="769" d="M520 369l205.001-.002v-296c-41.333-28.667-89.333-50.667-144-66s-108.334-23-161.001-23c-74.667 0-141.667 15.5-201 46.5s-105.833 74.333-139.5 130S29 279.332 29 349.999 45.833 483.833 79.5 539.5s80.667 99 141 130S349 716 425 716c68.667 0 130.167-11.5 184.5-34.5S709 625 745 581L594 448c-44 51.333-96.333 77-157 77-52 0-93.333-15.667-124-47s-46-74-46-128c0-52.667 15.167-95 45.5-127s70.833-48 121.5-48c30 0 58.667 5.667 86 17v177zM276.001 793.998c-38 30.667-58.335 72-61.002 124h135c1.333-18.667 8.833-33.5 22.5-44.5s30.834-16.5 51.501-16.5 37.834 5.5 51.501 16.5 21.167 25.833 22.5 44.5h135c-2.667-52-23-93.333-61-124s-87.333-46-148-46-110 15.333-148 46z"/><glyph glyph-name="gbreve" unicode="ğ" horiz-adv-x="711" d="M661 547V109.001c0-104-28.833-182.167-86.5-234.5s-139.834-78.5-246.501-78.5c-54.667 0-105.667 5.833-153 17.5s-87.666 28.5-120.999 50.5l76 154c21.333-16 48.333-29 81-39s64-15 94-15c45.333 0 78.333 9.667 99 29S435 40.667 435 78v10c-34-38.667-84.333-58-151-58-46.667 0-90.167 10.833-130.5 32.5S81 115.167 57 155.5 21 242 21 294s12 98 36 138 56.167 70.833 96.5 92.5S237.333 557 284 557c74.667 0 128.667-24 162-72v62h215zM410.5 230.501c17.667 16.333 26.5 37.5 26.5 63.5s-8.833 47-26.5 63-39.834 24-66.501 24c-27.333 0-49.833-8-67.5-24s-26.5-37-26.5-63 9-47.167 27-63.5 40.333-24.5 67-24.5 48.834 8.167 66.501 24.5zM207 643.001c-38 30.667-58.335 72-61.002 124h135c1.333-18.667 8.833-33.5 22.5-44.5s30.834-16.5 51.501-16.5 37.834 5.5 51.501 16.5 21.167 25.833 22.5 44.5h135c-2.667-52-23-93.333-61-124s-87.333-46-148-46-110 15.333-148 46z"/><glyph glyph-name="Gdotaccent" unicode="Ġ" horiz-adv-x="769" d="M520 369l205.001-.002v-296c-41.333-28.667-89.333-50.667-144-66s-108.334-23-161.001-23c-74.667 0-141.667 15.5-201 46.5s-105.833 74.333-139.5 130S29 279.332 29 349.999 45.833 483.833 79.5 539.5s80.667 99 141 130S349 716 425 716c68.667 0 130.167-11.5 184.5-34.5S709 625 745 581L594 448c-44 51.333-96.333 77-157 77-52 0-93.333-15.667-124-47s-46-74-46-128c0-52.667 15.167-95 45.5-127s70.833-48 121.5-48c30 0 58.667 5.667 86 17v177zM342.001 779.998c-21.333 21.333-32 48.666-32 81.999s10.667 60.666 32 81.999 48.666 32 81.999 32 60.666-10.667 81.999-32 32-48.666 32-81.999-10.667-60.666-32-81.999-48.666-32-81.999-32-60.666 10.667-81.999 32z"/><glyph glyph-name="gdotaccent" unicode="ġ" horiz-adv-x="711" d="M661 547V109.001c0-104-28.833-182.167-86.5-234.5s-139.834-78.5-246.501-78.5c-54.667 0-105.667 5.833-153 17.5s-87.666 28.5-120.999 50.5l76 154c21.333-16 48.333-29 81-39s64-15 94-15c45.333 0 78.333 9.667 99 29S435 40.667 435 78v10c-34-38.667-84.333-58-151-58-46.667 0-90.167 10.833-130.5 32.5S81 115.167 57 155.5 21 242 21 294s12 98 36 138 56.167 70.833 96.5 92.5S237.333 557 284 557c74.667 0 128.667-24 162-72v62h215zM410.5 230.501c17.667 16.333 26.5 37.5 26.5 63.5s-8.833 47-26.5 63-39.834 24-66.501 24c-27.333 0-49.833-8-67.5-24s-26.5-37-26.5-63 9-47.167 27-63.5 40.333-24.5 67-24.5 48.834 8.167 66.501 24.5zM273 629.001c-21.333 21.333-32 48.666-32 81.999s10.667 60.666 32 81.999 48.666 32 81.999 32 60.666-10.667 81.999-32 32-48.666 32-81.999-10.667-60.666-32-81.999-48.666-32-81.999-32-60.666 10.667-81.999 32z"/><glyph glyph-name="Gcommaaccent" unicode="Ģ" horiz-adv-x="769" d="M520 369l205.001-.002v-296c-41.333-28.667-89.333-50.667-144-66s-108.334-23-161.001-23c-74.667 0-141.667 15.5-201 46.5s-105.833 74.333-139.5 130S29 279.332 29 349.999 45.833 483.833 79.5 539.5s80.667 99 141 130S349 716 425 716c68.667 0 130.167-11.5 184.5-34.5S709 625 745 581L594 448c-44 51.333-96.333 77-157 77-52 0-93.333-15.667-124-47s-46-74-46-128c0-52.667 15.167-95 45.5-127s70.833-48 121.5-48c30 0 58.667 5.667 86 17v177zM476.001-70.502c16-13.667 24-31.833 24-54.5 0-24.667-8.333-51.334-25-80.001l-39-65h-99l26 79c-28.667 10.667-43 32.667-43 66 0 22.667 8 40.834 24 54.501s38 20.5 66 20.5 50-6.833 66-20.5z"/><glyph glyph-name="gcommaaccent" unicode="ģ" horiz-adv-x="711" d="M661 547V109.001c0-104-28.833-182.167-86.5-234.5s-139.834-78.5-246.501-78.5c-54.667 0-105.667 5.833-153 17.5s-87.666 28.5-120.999 50.5l76 154c21.333-16 48.333-29 81-39s64-15 94-15c45.333 0 78.333 9.667 99 29S435 40.667 435 78v10c-34-38.667-84.333-58-151-58-46.667 0-90.167 10.833-130.5 32.5S81 115.167 57 155.5 21 242 21 294s12 98 36 138 56.167 70.833 96.5 92.5S237.333 557 284 557c74.667 0 128.667-24 162-72v62h215zM410.5 230.501c17.667 16.333 26.5 37.5 26.5 63.5s-8.833 47-26.5 63-39.834 24-66.501 24c-27.333 0-49.833-8-67.5-24s-26.5-37-26.5-63 9-47.167 27-63.5 40.333-24.5 67-24.5 48.834 8.167 66.501 24.5zm51.5 441.5c0-23.333-9-41.665-27-54.998s-44.667-20-80-20-62 6.667-80 20-27 31.666-27 54.999c0 21.333 10 48 30 80l54 85h118l-39-100c34-10.667 51-32.334 51-65.001z"/><glyph glyph-name="Hcircumflex" unicode="Ĥ" horiz-adv-x="804" d="M747 700V0H511v258H293V0H57v700h236V452h218v248h236zm-261 57l-84 77-84-77H178l128 160h192l128-160H486z"/><glyph glyph-name="hcircumflex" unicode="ĥ" horiz-adv-x="702" d="M592.5 496c41-40.667 61.5-102 61.5-184V0H428v273c0 62.667-22.333 94-67 94-25.333 0-45.833-8.833-61.5-26.5S276 295 276 257V0H50v742h226V503c42 36 93.333 54 154 54 67.333 0 121.5-20.333 162.5-61zM247 799l-84 77-84-77H-61L67 959h192l128-160H247z"/><glyph glyph-name="Hbar" unicode="Ħ" horiz-adv-x="844" d="M767 700V0H531v258H313V0H77v700h236V452h218v248h236zM-9 643h862V507H-9v136z"/><glyph glyph-name="hbar" unicode="ħ" horiz-adv-x="702" d="M592.5 496c41-40.667 61.5-102 61.5-184V0H428v273c0 62.667-22.333 94-67 94-25.333 0-45.833-8.833-61.5-26.5S276 295 276 257V0H50v742h226V503c42 36 93.333 54 154 54 67.333 0 121.5-20.333 162.5-61zM0 695h428V585H0v110z"/><glyph glyph-name="Itilde" unicode="Ĩ" horiz-adv-x="350" d="M57 700h236V0H57v700zm147 57c-15.333 6.667-31.333 15.667-48 27-11.333 7.333-20.5 12.833-27.5 16.5S114.667 806 108 806c-12.667 0-23-4.333-31-13s-12.667-20.667-14-36H-44c1.333 53.333 14.166 95.5 38.499 126.5s57.5 46.5 99.5 46.5c19.333 0 36.666-3.333 51.999-10s31.333-15.667 48-27c11.333-8 20.5-13.667 27.5-17s13.833-5 20.5-5c12.667 0 23 4.167 31 12.5s12.667 19.5 14 33.5h107c-1.333-51.333-14.166-92.5-38.499-123.5s-57.5-46.5-99.5-46.5c-19.333 0-36.666 3.333-51.999 10z"/><glyph glyph-name="itilde" unicode="ĩ" horiz-adv-x="326" d="M50 547h226V0H50v547zm136 62c-14.667 8-29.667 18.667-45 32-6.667 5.333-13 10-19 14s-11 6-15 6c-18.667 0-28-18-28-54H-26c0 57.333 9.833 100.5 29.5 129.5S52 780 90 780c18.667 0 35.334-4 50.001-12s29.667-18.667 45-32c6.667-5.333 13-10 19-14s11-6 15-6c18.667 0 28 17 28 51h105c0-56-9.833-98.333-29.5-127s-48.5-43-86.5-43c-18.667 0-35.334 4-50.001 12z"/><glyph glyph-name="Imacron" unicode="Ī" horiz-adv-x="350" d="M57 700h236V0H57v700zM5 895h340V777H5v118z"/><glyph glyph-name="imacron" unicode="ī" horiz-adv-x="326" d="M50 547h226V0H50v547zM-7 746h340V628H-7v118z"/><glyph glyph-name="Ibreve" unicode="Ĭ" horiz-adv-x="350" d="M57 700h236V0H57v700zm-30 93c-38 30.667-58.335 72-61.002 124h135c1.333-18.667 8.833-33.5 22.5-44.5s30.834-16.5 51.501-16.5 37.834 5.5 51.501 16.5 21.167 25.833 22.5 44.5h135c-2.667-52-23-93.333-61-124s-87.333-46-148-46-110 15.333-148 46z"/><glyph glyph-name="ibreve" unicode="ĭ" horiz-adv-x="326" d="M50 547h226V0H50v547zm-19 96c-34 30.667-51.331 72-51.998 124h130c0-18.667 4.667-33.834 14-45.501s22.666-17.5 39.999-17.5 30.666 5.833 39.999 17.5 14 26.834 14 45.501h130c-.667-52-18-93.333-52-124s-78-46-132-46-98 15.333-132 46z"/><glyph glyph-name="Iogonek" unicode="Į" horiz-adv-x="350" d="M57 700h236V0H57v700zm71.5-906c-26.333 22.667-39.501 53.002-39.501 91.002 0 36.667 12.667 69.667 38 99s60.666 51.666 105.999 66.999l60-51c-26-16.667-44.333-32.334-55-47.001s-16-30.667-16-48c0-12.667 3.667-23 11-31s16.333-12 27-12c12 0 22.667 3.667 32 11l26-90c-23.333-15.333-51.666-23-84.999-23-43.333 0-78.166 11.333-104.499 34z"/><glyph glyph-name="iogonek" unicode="į" horiz-adv-x="326" d="M50 547h226V0H50v547zm14.5 76.5c-25 21.667-37.5 49.168-37.5 82.501s12.5 60.833 37.5 82.5 57.833 32.5 98.5 32.5c41.333 0 74.333-10.333 99-31s37-47.334 37-80.001c0-34.667-12.333-63.167-37-85.5S204.333 591 163 591c-40.667 0-73.5 10.833-98.5 32.5zm47-829.499c-26.333 22.667-39.501 53.002-39.501 91.002 0 36.667 12.667 69.667 38 99s60.666 51.666 105.999 66.999l60-51c-26-16.667-44.333-32.334-55-47.001s-16-30.667-16-48c0-12.667 3.667-23 11-31s16.333-12 27-12c12 0 22.667 3.667 32 11l26-90c-23.333-15.333-51.666-23-84.999-23-43.333 0-78.166 11.333-104.499 34z"/><glyph glyph-name="Idotaccent" unicode="İ" horiz-adv-x="350" d="M57 700h236V0H57v700zm36 79c-21.333 21.333-32 48.666-32 81.999s10.667 60.666 32 81.999 48.666 32 81.999 32 60.666-10.667 81.999-32 32-48.666 32-81.999-10.667-60.666-32-81.999-48.666-32-81.999-32S114.333 757.667 93 779z"/><glyph glyph-name="dotlessi" unicode="ı" horiz-adv-x="326" d="M50 547h226V0H50v547z"/><glyph glyph-name="IJ" unicode="Ĳ" horiz-adv-x="729" d="M163.5 6.5c-51 15-95.167 35.832-132.5 62.499l86 167c32-20.667 65.833-36.5 101.5-47.5s68.5-16.5 98.5-16.5c43.333 0 75 11.167 95 33.5s30 57.833 30 106.5v388h236v-375c0-72-14.5-133.667-43.5-185S564.667 49.833 512 23.5 398-16 328-16c-58.667 0-113.5 7.5-164.5 22.5zM51 699.999h236v-364H51v364z"/><glyph glyph-name="ij" unicode="ĳ" horiz-adv-x="660" d="M50 547h226V0H50v547zm14.5 76.5c-25 21.667-37.5 49.168-37.5 82.501s12.5 60.833 37.5 82.5 57.833 32.5 98.5 32.5c41.333 0 74.333-10.333 99-31s37-47.334 37-80.001c0-34.667-12.333-63.167-37-85.5S204.333 591 163 591c-40.667 0-73.5 10.833-98.5 32.5zM232-176.999l54 157.001c16-8.667 33-13 51-13 14 0 25.333 5.167 34 15.5s13 26.166 13 47.499v517h226v-519c0-71.333-21.167-127.833-63.5-169.5s-100.833-62.5-175.5-62.5c-58 0-104.333 9-139 27zm166.5 800.501c-25 21.667-37.5 49.168-37.5 82.501s12.5 60.833 37.5 82.5 57.833 32.5 98.5 32.5c41.333 0 74.333-10.333 99-31s37-47.334 37-80.001c0-34.667-12.333-63.167-37-85.5s-57.667-33.5-99-33.5c-40.667 0-73.5 10.833-98.5 32.5z"/><glyph glyph-name="Jcircumflex" unicode="Ĵ" horiz-adv-x="574" d="M85.5 10.5C41.167 28.167 4.667 53.998-24 87.998l127 150c18.667-23.333 37-40.666 55-51.999s36.667-17 56-17c24.667 0 43.5 7.333 56.5 22S290 227.333 290 256v266H52v178h471V270c0-95.333-24.5-166.833-73.5-214.5S328.667-16 234-16c-54.667 0-104.167 8.833-148.5 26.5zM372 756.998l-84 77-84-77H64l128 160h192l128-160H372z"/><glyph glyph-name="jcircumflex" unicode="ĵ" horiz-adv-x="334" d="M-94-177l54 157.001c16-8.667 33-13 51-13 14 0 25.333 5.167 34 15.5S58 8.667 58 30v517h226V28c0-71.333-21.167-127.833-63.5-169.5S119.667-204 45-204c-58 0-104.333 9-139 27zm324 784.001l-59 67-59-67H-28l105 160h188l105-160H230z"/><glyph glyph-name="Kcommaaccent" unicode="Ķ" horiz-adv-x="765" d="M342 232l-53-59V0H57v700h232V446l230 254h257L496 392 790 0H517zM450-70.5c16-13.667 24-31.833 24-54.5 0-24.667-8.333-51.334-25-80.001l-39-65h-99l26 79c-28.667 10.667-43 32.667-43 66 0 22.667 8 40.834 24 54.501S356-50 384-50s50-6.833 66-20.5z"/><glyph glyph-name="kcommaaccent" unicode="ķ" horiz-adv-x="713" d="M312 168l-36-39V0H50v742h226V388l157 159h267L474 310 718 0H445zm77-238.5c16-13.667 24-31.833 24-54.5 0-24.667-8.333-51.334-25-80.001l-39-65h-99l26 79c-28.667 10.667-43 32.667-43 66 0 22.667 8 40.834 24 54.501S295-50 323-50s50-6.833 66-20.5z"/><glyph glyph-name="kgreenlandic" unicode="ĸ" horiz-adv-x="690" d="M312 168l-36-39V0H50v547h226V388l157 159h267L474 310 718 0H445z"/><glyph glyph-name="Lacute" unicode="Ĺ" horiz-adv-x="617" d="M57 700h236V183h316V0H57v700zm145 217h215L220 757H70z"/><glyph glyph-name="lacute" unicode="ĺ" horiz-adv-x="326" d="M50 742h226V0H50v742zm140 220h215L208 802H58z"/><glyph glyph-name="Lcommaaccent" unicode="Ļ" horiz-adv-x="617" d="M57 700h236V183h316V0H57v700zM411-70.5c16-13.667 24-31.833 24-54.5 0-24.667-8.333-51.334-25-80.001l-39-65h-99l26 79c-28.667 10.667-43 32.667-43 66 0 22.667 8 40.834 24 54.501S317-50 345-50s50-6.833 66-20.5z"/><glyph glyph-name="lcommaaccent" unicode="ļ" horiz-adv-x="326" d="M50 742h226V0H50v742zM229-70.5c16-13.667 24-31.833 24-54.5 0-24.667-8.333-51.334-25-80.001l-39-65H90l26 79c-28.667 10.667-43 32.667-43 66 0 22.667 8 40.834 24 54.501S135-50 163-50s50-6.833 66-20.5z"/><glyph glyph-name="Lcaron" unicode="Ľ" horiz-adv-x="617" d="M57 700h236V183h316V0H57v700zm366 50h158l-30-210H423v210z"/><glyph glyph-name="lcaron" unicode="ľ" horiz-adv-x="326" d="M50 742h226V0H50v742zm296 50h158l-30-210H346v210z"/><glyph glyph-name="Ldot" unicode="Ŀ" horiz-adv-x="617" d="M57 700h236V183h316V0H57v700zm345-341c-21.333 21.333-32 48.666-32 81.999s10.667 60.666 32 81.999 48.666 32 81.999 32 60.666-10.667 81.999-32 32-48.666 32-81.999-10.667-60.666-32-81.999-48.666-32-81.999-32-60.666 10.667-81.999 32z"/><glyph glyph-name="ldot" unicode="ŀ" horiz-adv-x="506" d="M50 742h226V0H50v742zm292.5-446.5c-19 19-28.5 43.833-28.5 74.5 0 30 9.5 54.5 28.5 73.5S386 472 416 472c30.667 0 55.5-9.5 74.5-28.5S519 400 519 370c0-30.667-9.5-55.5-28.5-74.5S446.667 267 416 267c-30 0-54.5 9.5-73.5 28.5z"/><glyph glyph-name="Lslash" unicode="Ł" horiz-adv-x="637" d="M77 700h236V183h316V0H77v700zM-36 304l445 330 70-100L34 204z"/><glyph glyph-name="lslash" unicode="ł" horiz-adv-x="366" d="M70 742h226V0H70v742zM-48 274l392 290 70-100L22 174z"/><glyph glyph-name="Nacute" unicode="Ń" horiz-adv-x="804" d="M747 700V0H553L287 318V0H57v700h194l266-318v318h230zM429 917h215L447 757H297z"/><glyph glyph-name="nacute" unicode="ń" horiz-adv-x="702" d="M592.5 496c41-40.667 61.5-102 61.5-184V0H428v273c0 62.667-22.333 94-67 94-25.333 0-45.833-8.833-61.5-26.5S276 295 276 257V0H50v547h215v-54c21.333 21.333 46 37.333 74 48s58.333 16 91 16c67.333 0 121.5-20.333 162.5-61zM382 767h215L400 607H250z"/><glyph glyph-name="Ncommaaccent" unicode="Ņ" horiz-adv-x="804" d="M747 700V0H553L287 318V0H57v700h194l266-318v318h230zM468-70.5c16-13.667 24-31.833 24-54.5 0-24.667-8.333-51.334-25-80.001l-39-65h-99l26 79c-28.667 10.667-43 32.667-43 66 0 22.667 8 40.834 24 54.501S374-50 402-50s50-6.833 66-20.5z"/><glyph glyph-name="ncommaaccent" unicode="ņ" horiz-adv-x="702" d="M592.5 496c41-40.667 61.5-102 61.5-184V0H428v273c0 62.667-22.333 94-67 94-25.333 0-45.833-8.833-61.5-26.5S276 295 276 257V0H50v547h215v-54c21.333 21.333 46 37.333 74 48s58.333 16 91 16c67.333 0 121.5-20.333 162.5-61zM421-70.5c16-13.667 24-31.833 24-54.5 0-24.667-8.333-51.334-25-80.001l-39-65h-99l26 79c-28.667 10.667-43 32.667-43 66 0 22.667 8 40.834 24 54.501S327-50 355-50s50-6.833 66-20.5z"/><glyph glyph-name="Ncaron" unicode="Ň" horiz-adv-x="804" d="M747 700V0H553L287 318V0H57v700h194l266-318v318h230zM626 917L498 757H306L178 917h140l84-77 84 77h140z"/><glyph glyph-name="ncaron" unicode="ň" horiz-adv-x="702" d="M592.5 496c41-40.667 61.5-102 61.5-184V0H428v273c0 62.667-22.333 94-67 94-25.333 0-45.833-8.833-61.5-26.5S276 295 276 257V0H50v547h215v-54c21.333 21.333 46 37.333 74 48s58.333 16 91 16c67.333 0 121.5-20.333 162.5-61zM579 767L451 607H259L131 767h140l84-77 84 77h140z"/><glyph glyph-name="napostrophe" unicode="ŉ" horiz-adv-x="879" d="M28 700h145l-30-264H28v264zm741.5-204c41-40.667 61.5-102 61.5-184V0H605v273c0 62.667-22.333 94-67 94-25.333 0-45.833-8.833-61.5-26.5S453 295 453 257V0H227v547h215v-54c21.333 21.333 46 37.333 74 48s58.333 16 91 16c67.333 0 121.5-20.333 162.5-61z"/><glyph glyph-name="Eng" unicode="Ŋ" horiz-adv-x="804" d="M747 700l-.001-597.999c0-104.667-23.833-181.834-71.5-231.501S556.332-204 460.999-204c-80 0-145.667 17-197 51l108 158c24-16.667 47-25 69-25 21.333 0 38.333 5.5 51 16.5S512.333 23.667 515 45L287 318V0H57v700h194l266-318v318h230z"/><glyph glyph-name="eng" unicode="ŋ" horiz-adv-x="702" d="M592.5 496c41-40.667 61.499-101.999 61.499-183.999v-284c0-71.333-21.167-127.833-63.5-169.5s-100.833-62.5-175.5-62.5c-57.333 0-103.666 9-138.999 27l54 157c16-8.667 33-13 51-13 14 0 25.333 5.167 34 15.5S428 8.667 428 30v243c0 62.667-22.333 94-67 94-25.333 0-45.833-8.833-61.5-26.5S276 295 276 257V0H50v547h215v-54c21.333 21.333 46 37.333 74 48s58.333 16 91 16c67.333 0 121.5-20.333 162.5-61z"/><glyph glyph-name="Omacron" unicode="Ō" horiz-adv-x="848" d="M221 31c-60 31.333-107 74.833-141 130.5S29 280 29 350s17 132.833 51 188.5 81 99.167 141 130.5 127.667 47 203 47 143-15.667 203-47 107-74.833 141-130.5S819 420 819 350s-17-132.833-51-188.5S687 62.333 627 31 499.333-16 424-16 281-.333 221 31zm282.5 165.5c23.667 14.333 42.5 34.666 56.5 60.999s21 57.166 21 92.499-7 66.166-21 92.499-32.833 46.666-56.5 60.999-50.167 21.5-79.5 21.5-55.833-7.167-79.5-21.5S302 468.83 288 442.497s-21-57.166-21-92.499 7-66.166 21-92.499 32.833-46.666 56.5-60.999S394.667 175 424 175s55.833 7.167 79.5 21.5zM214 896h420V778H214v118z"/><glyph glyph-name="omacron" unicode="ō" horiz-adv-x="678" d="M175.5 26.5c-48.333 24.333-86.166 58-113.499 101s-41 91.833-41 146.5 13.667 103.5 41 146.5S127.167 497 175.5 521s102.833 36 163.5 36c61.333 0 116.166-12 164.499-36s86-57.5 113-100.5 40.5-91.833 40.5-146.5-13.5-103.5-40.5-146.5-64.667-76.667-113-101S400.333-10 339-10c-60.667 0-115.167 12.167-163.5 36.5zm227.5 168c16.667 19 25 45.5 25 79.5s-8.333 60.333-25 79-38 28-64 28-47.333-9.333-64-28-25-45-25-79 8.333-60.5 25-79.5 38-28.5 64-28.5 47.333 9.5 64 28.5zM126 746h420V628H126v118z"/><glyph glyph-name="Obreve" unicode="Ŏ" horiz-adv-x="848" d="M221 31c-60 31.333-107 74.833-141 130.5S29 280 29 350s17 132.833 51 188.5 81 99.167 141 130.5 127.667 47 203 47 143-15.667 203-47 107-74.833 141-130.5S819 420 819 350s-17-132.833-51-188.5S687 62.333 627 31 499.333-16 424-16 281-.333 221 31zm282.5 165.5c23.667 14.333 42.5 34.666 56.5 60.999s21 57.166 21 92.499-7 66.166-21 92.499-32.833 46.666-56.5 60.999-50.167 21.5-79.5 21.5-55.833-7.167-79.5-21.5S302 468.83 288 442.497s-21-57.166-21-92.499 7-66.166 21-92.499 32.833-46.666 56.5-60.999S394.667 175 424 175s55.833 7.167 79.5 21.5zM276 793c-38 30.667-58.335 72-61.002 124h135c1.333-18.667 8.833-33.5 22.5-44.5s30.834-16.5 51.501-16.5 37.834 5.5 51.501 16.5 21.167 25.833 22.5 44.5h135c-2.667-52-23-93.333-61-124s-87.333-46-148-46-110 15.333-148 46z"/><glyph glyph-name="obreve" unicode="ŏ" horiz-adv-x="678" d="M175.5 26.5c-48.333 24.333-86.166 58-113.499 101s-41 91.833-41 146.5 13.667 103.5 41 146.5S127.167 497 175.5 521s102.833 36 163.5 36c61.333 0 116.166-12 164.499-36s86-57.5 113-100.5 40.5-91.833 40.5-146.5-13.5-103.5-40.5-146.5-64.667-76.667-113-101S400.333-10 339-10c-60.667 0-115.167 12.167-163.5 36.5zm227.5 168c16.667 19 25 45.5 25 79.5s-8.333 60.333-25 79-38 28-64 28-47.333-9.333-64-28-25-45-25-79 8.333-60.5 25-79.5 38-28.5 64-28.5 47.333 9.5 64 28.5zM188 643c-38 30.667-58.335 72-61.002 124h135c1.333-18.667 8.833-33.5 22.5-44.5s30.834-16.5 51.501-16.5 37.834 5.5 51.501 16.5 21.167 25.833 22.5 44.5h135c-2.667-52-23-93.333-61-124s-87.333-46-148-46-110 15.333-148 46z"/><glyph glyph-name="Ohungarumlaut" unicode="Ő" horiz-adv-x="848" d="M221 31c-60 31.333-107 74.833-141 130.5S29 280 29 350s17 132.833 51 188.5 81 99.167 141 130.5 127.667 47 203 47 143-15.667 203-47 107-74.833 141-130.5S819 420 819 350s-17-132.833-51-188.5S687 62.333 627 31 499.333-16 424-16 281-.333 221 31zm282.5 165.5c23.667 14.333 42.5 34.666 56.5 60.999s21 57.166 21 92.499-7 66.166-21 92.499-32.833 46.666-56.5 60.999-50.167 21.5-79.5 21.5-55.833-7.167-79.5-21.5S302 468.83 288 442.497s-21-57.166-21-92.499 7-66.166 21-92.499 32.833-46.666 56.5-60.999S394.667 175 424 175s55.833 7.167 79.5 21.5zM284 917h195l-97-160H232zm234 0h195l-97-160H466z"/><glyph glyph-name="ohungarumlaut" unicode="ő" horiz-adv-x="678" d="M175.5 26.5c-48.333 24.333-86.166 58-113.499 101s-41 91.833-41 146.5 13.667 103.5 41 146.5S127.167 497 175.5 521s102.833 36 163.5 36c61.333 0 116.166-12 164.499-36s86-57.5 113-100.5 40.5-91.833 40.5-146.5-13.5-103.5-40.5-146.5-64.667-76.667-113-101S400.333-10 339-10c-60.667 0-115.167 12.167-163.5 36.5zm227.5 168c16.667 19 25 45.5 25 79.5s-8.333 60.333-25 79-38 28-64 28-47.333-9.333-64-28-25-45-25-79 8.333-60.5 25-79.5 38-28.5 64-28.5 47.333 9.5 64 28.5zM196 767h195l-97-160H144zm234 0h195l-97-160H378z"/><glyph glyph-name="OE" unicode="Œ" horiz-adv-x="1149" d="M1115 178V0H424c-78 0-146.833 14.167-206.5 42.5s-106 68.833-139 121.5S29 278.667 29 350s16.5 133.333 49.5 186 79.333 93.167 139 121.5S346 700 424 700h678V522H765v-82h296V270H765v-92h350zm-582 6v332h-99c-50.667 0-91.167-14.5-121.5-43.5S267 402.667 267 350s15.167-93.5 45.5-122.5S383.333 184 434 184h99z"/><glyph glyph-name="oe" unicode="œ" horiz-adv-x="1062" d="M1037 221l-383.002-.001c7.333-20.667 20.5-36.5 39.5-47.5s43.167-16.5 72.5-16.5c21.333 0 40.5 3.167 57.5 9.5s35.167 16.5 54.5 30.5l121-119c-27.333-28.667-61.666-50.5-102.999-65.5s-86.666-22.5-135.999-22.5c-90 0-163.333 24-220 72-25.333-23.333-55.333-41.166-90-53.499S377-10 335-10c-60 0-113.833 12.167-161.5 36.5s-85 58-112 101S21 219.333 21 274s13.5 103.5 40.5 146.5 64.333 76.5 112 100.5S275 557 335 557c42 0 80-6 114-18s63.667-29.333 89-52c26 22.667 56 40 90 52s71 18 111 18c54 0 104-11 150-33s82.833-54 110.5-96 41.5-92.333 41.5-151c0-16-1.333-34.667-4-56zM679.998 383.999c-15.333-12.667-25.333-30.667-30-54h176c-4 23.333-13.5 41.333-28.5 54s-34.5 19-58.5 19-43.667-6.333-59-19zm-277-189.5c16.667 19 25 45.5 25 79.5s-8.333 60.333-25 79-38 28-64 28-47.333-9.333-64-28-25-45-25-79 8.333-60.5 25-79.5 38-28.5 64-28.5 47.333 9.5 64 28.5z"/><glyph glyph-name="Racute" unicode="Ŕ" horiz-adv-x="745" d="M357 176h-63.999V0h-236v700h337c64.667 0 121-10.667 169-32s85-52 111-92 39-86.667 39-140c0-50-11.333-93.667-34-131S623.667 238 581 216L728 0H476zm94.001 320.5c-16 14.333-40 21.5-72 21.5h-86V354h86c32 0 56 7.167 72 21.5s24 34.5 24 60.5-8 46.167-24 60.5zm-45 420.5h215l-197-160h-150z"/><glyph glyph-name="racute" unicode="ŕ" horiz-adv-x="456" d="M442 557V357c-18 2.667-34.667 4-50 4-77.333 0-116-39.333-116-118V0H50v547h215v-59c40 46 99 69 177 69zM272 767h215L290 607H140z"/><glyph glyph-name="Rcommaaccent" unicode="Ŗ" horiz-adv-x="745" d="M357 176h-63.999V0h-236v700h337c64.667 0 121-10.667 169-32s85-52 111-92 39-86.667 39-140c0-50-11.333-93.667-34-131S623.667 238 581 216L728 0H476zm94.001 320.5c-16 14.333-40 21.5-72 21.5h-86V354h86c32 0 56 7.167 72 21.5s24 34.5 24 60.5-8 46.167-24 60.5zm-6-567c16-13.667 24-31.833 24-54.5 0-24.667-8.333-51.334-25-80.001l-39-65h-99l26 79c-28.667 10.667-43 32.667-43 66 0 22.667 8 40.834 24 54.501s38 20.5 66 20.5 50-6.833 66-20.5z"/><glyph glyph-name="rcommaaccent" unicode="ŗ" horiz-adv-x="456" d="M442 557V357c-18 2.667-34.667 4-50 4-77.333 0-116-39.333-116-118V0H50v547h215v-59c40 46 99 69 177 69zM229-70.5c16-13.667 24-31.833 24-54.5 0-24.667-8.333-51.334-25-80.001l-39-65H90l26 79c-28.667 10.667-43 32.667-43 66 0 22.667 8 40.834 24 54.501S135-50 163-50s50-6.833 66-20.5z"/><glyph glyph-name="Rcaron" unicode="Ř" horiz-adv-x="745" d="M357 176h-63.999V0h-236v700h337c64.667 0 121-10.667 169-32s85-52 111-92 39-86.667 39-140c0-50-11.333-93.667-34-131S623.667 238 581 216L728 0H476zm94.001 320.5c-16 14.333-40 21.5-72 21.5h-86V354h86c32 0 56 7.167 72 21.5s24 34.5 24 60.5-8 46.167-24 60.5zm152 420.5l-128-160h-192l-128 160h140l84-77 84 77h140z"/><glyph glyph-name="rcaron" unicode="ř" horiz-adv-x="456" d="M442 557V357c-18 2.667-34.667 4-50 4-77.333 0-116-39.333-116-118V0H50v547h215v-59c40 46 99 69 177 69zm27 210L341 607H149L21 767h140l84-77 84 77h140z"/><glyph glyph-name="Sacute" unicode="Ś" horiz-adv-x="657" d="M148.5 3.5c-55 13-100.165 30.499-135.498 52.499l76 172c33.333-19.333 70.666-34.833 111.999-46.5s81-17.5 119-17.5c32.667 0 56 3.167 70 9.5s21 15.833 21 28.5c0 14.667-9.167 25.667-27.5 33s-48.5 15.333-90.5 24c-54 11.333-99 23.5-135 36.5s-67.333 34.333-94 64-40 69.834-40 120.501c0 44 12.333 84 37 120s61.5 64.333 110.5 85 108.5 31 178.5 31c48 0 95.167-5.167 141.5-15.5S578.667 675 614 655l-71-171c-68.667 34.667-133.667 52-195 52-60.667 0-91-14.667-91-44 0-14 9-24.5 27-31.5s47.667-14.5 89-22.5c53.333-10 98.333-21.5 135-34.5s68.5-34.167 95.5-63.5S644 270.667 644 220c0-44-12.333-83.833-37-119.5s-61.5-64-110.5-85S388-16 318-16c-58 0-114.5 6.5-169.5 19.5zm207.502 913.499h215l-197-160h-150z"/><glyph glyph-name="sacute" unicode="ś" horiz-adv-x="565" d="M126 5C80.667 15 44.002 28.004 16.002 44.004l62 149c25.333-15.333 55.333-27.333 90-36s68.334-13 101.001-13c26 0 44.167 2.167 54.5 6.5s15.5 10.833 15.5 19.5-6.5 14.667-19.5 18-34.167 6.666-63.5 9.999c-44.667 5.333-82.667 12.166-114 20.499s-58.833 24.5-82.5 48.5-35.5 58.333-35.5 103c0 35.333 10.667 67 32 95s53.166 50.333 95.499 67 93.166 25 152.499 25c41.333 0 81.833-3.833 121.5-11.5s73.5-18.834 101.5-33.501l-62-149c-48 26.667-100.667 40-158 40-49.333 0-74-8.667-74-26 0-8.667 6.667-14.834 20-18.501s34.333-7.167 63-10.5c44.667-5.333 82.5-12.333 113.5-21s58.333-25 82-49 35.5-58.333 35.5-103c0-34-10.667-65-32-93s-53.333-50.333-96-67S324.667-10 264-10c-46.667 0-92.667 5-138 15zm177.002 762.004h215l-197-160h-150z"/><glyph glyph-name="Scircumflex" unicode="Ŝ" horiz-adv-x="657" d="M148.5 3.5c-55 13-100.165 30.499-135.498 52.499l76 172c33.333-19.333 70.666-34.833 111.999-46.5s81-17.5 119-17.5c32.667 0 56 3.167 70 9.5s21 15.833 21 28.5c0 14.667-9.167 25.667-27.5 33s-48.5 15.333-90.5 24c-54 11.333-99 23.5-135 36.5s-67.333 34.333-94 64-40 69.834-40 120.501c0 44 12.333 84 37 120s61.5 64.333 110.5 85 108.5 31 178.5 31c48 0 95.167-5.167 141.5-15.5S578.667 675 614 655l-71-171c-68.667 34.667-133.667 52-195 52-60.667 0-91-14.667-91-44 0-14 9-24.5 27-31.5s47.667-14.5 89-22.5c53.333-10 98.333-21.5 135-34.5s68.5-34.167 95.5-63.5S644 270.667 644 220c0-44-12.333-83.833-37-119.5s-61.5-64-110.5-85S388-16 318-16c-58 0-114.5 6.5-169.5 19.5zm264.502 753.499l-84 77-84-77h-140l128 160h192l128-160h-140z"/><glyph glyph-name="scircumflex" unicode="ŝ" horiz-adv-x="565" d="M126 5C80.667 15 44.002 28.004 16.002 44.004l62 149c25.333-15.333 55.333-27.333 90-36s68.334-13 101.001-13c26 0 44.167 2.167 54.5 6.5s15.5 10.833 15.5 19.5-6.5 14.667-19.5 18-34.167 6.666-63.5 9.999c-44.667 5.333-82.667 12.166-114 20.499s-58.833 24.5-82.5 48.5-35.5 58.333-35.5 103c0 35.333 10.667 67 32 95s53.166 50.333 95.499 67 93.166 25 152.499 25c41.333 0 81.833-3.833 121.5-11.5s73.5-18.834 101.5-33.501l-62-149c-48 26.667-100.667 40-158 40-49.333 0-74-8.667-74-26 0-8.667 6.667-14.834 20-18.501s34.333-7.167 63-10.5c44.667-5.333 82.5-12.333 113.5-21s58.333-25 82-49 35.5-58.333 35.5-103c0-34-10.667-65-32-93s-53.333-50.333-96-67S324.667-10 264-10c-46.667 0-92.667 5-138 15zm234.002 602.004l-84 77-84-77h-140l128 160h192l128-160h-140z"/><glyph glyph-name="Scedilla" unicode="Ş" horiz-adv-x="657" d="M148.5 3.5c-55 13-100.165 30.499-135.498 52.499l76 172c33.333-19.333 70.666-34.833 111.999-46.5s81-17.5 119-17.5c32.667 0 56 3.167 70 9.5s21 15.833 21 28.5c0 14.667-9.167 25.667-27.5 33s-48.5 15.333-90.5 24c-54 11.333-99 23.5-135 36.5s-67.333 34.333-94 64-40 69.834-40 120.501c0 44 12.333 84 37 120s61.5 64.333 110.5 85 108.5 31 178.5 31c48 0 95.167-5.167 141.5-15.5S578.667 675 614 655l-71-171c-68.667 34.667-133.667 52-195 52-60.667 0-91-14.667-91-44 0-14 9-24.5 27-31.5s47.667-14.5 89-22.5c53.333-10 98.333-21.5 135-34.5s68.5-34.167 95.5-63.5S644 270.667 644 220c0-44-12.333-83.833-37-119.5s-61.5-64-110.5-85S388-16 318-16c-58 0-114.5 6.5-169.5 19.5zm85.502-237.501c-18.667 4-33.333 8.999-44 14.999l28 83c20-8 40-12 60-12 32 0 48 8 48 24 0 13.333-13.667 20-41 20h-41l27 114h116l-14-62c29.333-4 50.833-13.5 64.5-28.5s20.5-32.167 20.5-51.5c0-33.333-15.5-59.666-46.5-78.999s-72.167-29-123.5-29c-17.333 0-35.333 2-54 6z"/><glyph glyph-name="scedilla" unicode="ş" horiz-adv-x="565" d="M126 5C80.667 15 44.002 28.004 16.002 44.004l62 149c25.333-15.333 55.333-27.333 90-36s68.334-13 101.001-13c26 0 44.167 2.167 54.5 6.5s15.5 10.833 15.5 19.5-6.5 14.667-19.5 18-34.167 6.666-63.5 9.999c-44.667 5.333-82.667 12.166-114 20.499s-58.833 24.5-82.5 48.5-35.5 58.333-35.5 103c0 35.333 10.667 67 32 95s53.166 50.333 95.499 67 93.166 25 152.499 25c41.333 0 81.833-3.833 121.5-11.5s73.5-18.834 101.5-33.501l-62-149c-48 26.667-100.667 40-158 40-49.333 0-74-8.667-74-26 0-8.667 6.667-14.834 20-18.501s34.333-7.167 63-10.5c44.667-5.333 82.5-12.333 113.5-21s58.333-25 82-49 35.5-58.333 35.5-103c0-34-10.667-65-32-93s-53.333-50.333-96-67S324.667-10 264-10c-46.667 0-92.667 5-138 15zm55.002-238.996c-18.667 4-33.333 8.999-44 14.999l28 83c20-8 40-12 60-12 32 0 48 8 48 24 0 13.333-13.667 20-41 20h-41l27 114h116l-14-62c29.333-4 50.833-13.5 64.5-28.5s20.5-32.167 20.5-51.5c0-33.333-15.5-59.666-46.5-78.999s-72.167-29-123.5-29c-17.333 0-35.333 2-54 6z"/><glyph glyph-name="Scaron" unicode="Š" horiz-adv-x="657" d="M148.5 3.5c-55 13-100.165 30.499-135.498 52.499l76 172c33.333-19.333 70.666-34.833 111.999-46.5s81-17.5 119-17.5c32.667 0 56 3.167 70 9.5s21 15.833 21 28.5c0 14.667-9.167 25.667-27.5 33s-48.5 15.333-90.5 24c-54 11.333-99 23.5-135 36.5s-67.333 34.333-94 64-40 69.834-40 120.501c0 44 12.333 84 37 120s61.5 64.333 110.5 85 108.5 31 178.5 31c48 0 95.167-5.167 141.5-15.5S578.667 675 614 655l-71-171c-68.667 34.667-133.667 52-195 52-60.667 0-91-14.667-91-44 0-14 9-24.5 27-31.5s47.667-14.5 89-22.5c53.333-10 98.333-21.5 135-34.5s68.5-34.167 95.5-63.5S644 270.667 644 220c0-44-12.333-83.833-37-119.5s-61.5-64-110.5-85S388-16 318-16c-58 0-114.5 6.5-169.5 19.5zm404.502 913.499l-128-160h-192l-128 160h140l84-77 84 77h140z"/><glyph glyph-name="scaron" unicode="š" horiz-adv-x="565" d="M126 5C80.667 15 44.002 28.004 16.002 44.004l62 149c25.333-15.333 55.333-27.333 90-36s68.334-13 101.001-13c26 0 44.167 2.167 54.5 6.5s15.5 10.833 15.5 19.5-6.5 14.667-19.5 18-34.167 6.666-63.5 9.999c-44.667 5.333-82.667 12.166-114 20.499s-58.833 24.5-82.5 48.5-35.5 58.333-35.5 103c0 35.333 10.667 67 32 95s53.166 50.333 95.499 67 93.166 25 152.499 25c41.333 0 81.833-3.833 121.5-11.5s73.5-18.834 101.5-33.501l-62-149c-48 26.667-100.667 40-158 40-49.333 0-74-8.667-74-26 0-8.667 6.667-14.834 20-18.501s34.333-7.167 63-10.5c44.667-5.333 82.5-12.333 113.5-21s58.333-25 82-49 35.5-58.333 35.5-103c0-34-10.667-65-32-93s-53.333-50.333-96-67S324.667-10 264-10c-46.667 0-92.667 5-138 15zm374.002 762.004l-128-160h-192l-128 160h140l84-77 84 77h140z"/><glyph glyph-name="uni0162" unicode="Ţ" horiz-adv-x="654" d="M209 517H4v183h646V517H445V0H209v517zm23-751c-18.667 4-33.333 8.999-44 14.999l28 83c20-8 40-12 60-12 32 0 48 8 48 24 0 13.333-13.667 20-41 20h-41l27 114h116l-14-62c29.333-4 50.833-13.5 64.5-28.5s20.5-32.167 20.5-51.5c0-33.333-15.5-59.666-46.5-78.999s-72.167-29-123.5-29c-17.333 0-35.333 2-54 6z"/><glyph glyph-name="uni0163" unicode="ţ" horiz-adv-x="460" d="M453 19C419-.333 372.667-10 314-10c-76.667 0-135.667 18.5-177 55.5S75 138 75 212v140H0v165h75v153h226V517h112V352H301V214c0-16.667 4.333-29.667 13-39s20-14 34-14c19.333 0 36.333 5 51 15zM179-234c-18.667 4-33.333 8.999-44 14.999l28 83c20-8 40-12 60-12 32 0 48 8 48 24 0 13.333-13.667 20-41 20h-41l27 114h116l-14-62c29.333-4 50.833-13.5 64.5-28.5s20.5-32.167 20.5-51.5c0-33.333-15.5-59.666-46.5-78.999s-72.167-29-123.5-29c-17.333 0-35.333 2-54 6z"/><glyph glyph-name="Tcaron" unicode="Ť" horiz-adv-x="654" d="M209 517H4v183h646V517H445V0H209v517zm342 400L423 757H231L103 917h140l84-77 84 77h140z"/><glyph glyph-name="tcaron" unicode="ť" horiz-adv-x="460" d="M453 19C419-.333 372.667-10 314-10c-76.667 0-135.667 18.5-177 55.5S75 138 75 212v140H0v165h75v153h226V517h112V352H301V214c0-16.667 4.333-29.667 13-39s20-14 34-14c19.333 0 36.333 5 51 15zM349 771h148l-20-210H349v210z"/><glyph glyph-name="Tbar" unicode="Ŧ" horiz-adv-x="654" d="M209 517H4v183h646V517H445V0H209v517zM92 383h470V247H92v136z"/><glyph glyph-name="tbar" unicode="ŧ" horiz-adv-x="470" d="M458 19C424-.333 377.667-10 319-10c-76.667 0-135.667 18.5-177 55.5S80 138 80 212v140H5v165h75v153h226V517h112V352H306V214c0-16.667 4.333-29.667 13-39s20-14 34-14c19.333 0 36.333 5 51 15zM18 316h387V206H18v110z"/><glyph glyph-name="Utilde" unicode="Ũ" horiz-adv-x="784" d="M141 71c-60 58-90 139.333-90 244v385h236V322c0-51.333 9.167-88.666 27.5-111.999s44.833-35 79.5-35 61.167 11.667 79.5 35S501 270.667 501 322v378h232V315c0-104.667-30-186-90-244S499.333-16 392-16 201 13 141 71zm282 686c-15.333 6.667-31.333 15.667-48 27-11.333 7.333-20.5 12.833-27.5 16.5S333.667 806 327 806c-12.667 0-23-4.333-31-13s-12.667-20.667-14-36H175c1.333 53.333 14.166 95.5 38.499 126.5s57.5 46.5 99.5 46.5c19.333 0 36.666-3.333 51.999-10s31.333-15.667 48-27c11.333-8 20.5-13.667 27.5-17s13.833-5 20.5-5c12.667 0 23 4.167 31 12.5s12.667 19.5 14 33.5h107c-1.333-51.333-14.166-92.5-38.499-123.5s-57.5-46.5-99.5-46.5c-19.333 0-36.666 3.333-51.999 10z"/><glyph glyph-name="utilde" unicode="ũ" horiz-adv-x="698" d="M648 547V.001H433v52c-20-20.667-43.333-36.167-70-46.5s-55-15.5-85-15.5c-69.333 0-125 21.167-167 63.5S48 159.667 48 245v302h226V284c0-37.333 6-64 18-80s29.667-24 53-24c22 0 40.333 8.833 55 26.5s22 45.5 22 83.5v257h226zm-271 60.001c-15.333 6.667-31.333 15.667-48 27-11.333 7.333-20.5 12.833-27.5 16.5s-13.833 5.5-20.5 5.5c-12.667 0-23-4.333-31-13s-12.667-20.667-14-36H129c1.333 53.333 14.166 95.5 38.499 126.5s57.5 46.5 99.5 46.5c19.333 0 36.666-3.333 51.999-10s31.333-15.667 48-27c11.333-8 20.5-13.667 27.5-17s13.833-5 20.5-5c12.667 0 23 4.167 31 12.5s12.667 19.5 14 33.5h107c-1.333-51.333-14.166-92.5-38.499-123.5s-57.5-46.5-99.5-46.5c-19.333 0-36.666 3.333-51.999 10z"/><glyph glyph-name="Umacron" unicode="Ū" horiz-adv-x="784" d="M141 71c-60 58-90 139.333-90 244v385h236V322c0-51.333 9.167-88.666 27.5-111.999s44.833-35 79.5-35 61.167 11.667 79.5 35S501 270.667 501 322v378h232V315c0-104.667-30-186-90-244S499.333-16 392-16 201 13 141 71zm43 825h420V778H184v118z"/><glyph glyph-name="umacron" unicode="ū" horiz-adv-x="698" d="M648 547V.001H433v52c-20-20.667-43.333-36.167-70-46.5s-55-15.5-85-15.5c-69.333 0-125 21.167-167 63.5S48 159.667 48 245v302h226V284c0-37.333 6-64 18-80s29.667-24 53-24c22 0 40.333 8.833 55 26.5s22 45.5 22 83.5v257h226zM138 746.001h420v-118H138v118z"/><glyph glyph-name="Ubreve" unicode="Ŭ" horiz-adv-x="784" d="M141 71c-60 58-90 139.333-90 244v385h236V322c0-51.333 9.167-88.666 27.5-111.999s44.833-35 79.5-35 61.167 11.667 79.5 35S501 270.667 501 322v378h232V315c0-104.667-30-186-90-244S499.333-16 392-16 201 13 141 71zm105 722c-38 30.667-58.335 72-61.002 124h135c1.333-18.667 8.833-33.5 22.5-44.5s30.834-16.5 51.501-16.5 37.834 5.5 51.501 16.5 21.167 25.833 22.5 44.5h135c-2.667-52-23-93.333-61-124s-87.333-46-148-46-110 15.333-148 46z"/><glyph glyph-name="ubreve" unicode="ŭ" horiz-adv-x="698" d="M648 547V.001H433v52c-20-20.667-43.333-36.167-70-46.5s-55-15.5-85-15.5c-69.333 0-125 21.167-167 63.5S48 159.667 48 245v302h226V284c0-37.333 6-64 18-80s29.667-24 53-24c22 0 40.333 8.833 55 26.5s22 45.5 22 83.5v257h226zm-448 96.001c-38 30.667-58.335 72-61.002 124h135c1.333-18.667 8.833-33.5 22.5-44.5s30.834-16.5 51.501-16.5 37.834 5.5 51.501 16.5 21.167 25.833 22.5 44.5h135c-2.667-52-23-93.333-61-124s-87.333-46-148-46-110 15.333-148 46z"/><glyph glyph-name="Uring" unicode="Ů" horiz-adv-x="784" d="M141 71c-60 58-90 139.333-90 244v385h236V322c0-51.333 9.167-88.666 27.5-111.999s44.833-35 79.5-35 61.167 11.667 79.5 35S501 270.667 501 322v378h232V315c0-104.667-30-186-90-244S499.333-16 392-16 201 13 141 71zm182 690c-21.333 12-38.166 28.167-50.499 48.5s-18.5 42.833-18.5 67.5 6.167 47.167 18.5 67.5S301.667 981 323 993s45 18 71 18 49.667-6 71-18 38.166-28.167 50.499-48.5 18.5-42.833 18.5-67.5-6.167-47.167-18.5-67.5S486.333 773 465 761s-45-18-71-18-49.667 6-71 18zm109.5 77c10.333 10 15.5 23 15.5 39s-5.167 29-15.5 39-23.166 15-38.499 15-28.166-5-38.499-15-15.5-23-15.5-39 5.167-29 15.5-39 23.166-15 38.499-15 28.166 5 38.499 15z"/><glyph glyph-name="uring" unicode="ů" horiz-adv-x="698" d="M648 547V.001H433v52c-20-20.667-43.333-36.167-70-46.5s-55-15.5-85-15.5c-69.333 0-125 21.167-167 63.5S48 159.667 48 245v302h226V284c0-37.333 6-64 18-80s29.667-24 53-24c22 0 40.333 8.833 55 26.5s22 45.5 22 83.5v257h226zm-371 61.001c-21.333 12-38.166 28.167-50.499 48.5s-18.5 42.833-18.5 67.5 6.167 47.167 18.5 67.5 29.166 36.5 50.499 48.5 45 18 71 18 49.667-6 71-18 38.166-28.167 50.499-48.5 18.5-42.833 18.5-67.5-6.167-47.167-18.5-67.5-29.166-36.5-50.499-48.5-45-18-71-18-49.667 6-71 18zm109.5 77c10.333 10 15.5 23 15.5 39s-5.167 29-15.5 39-23.166 15-38.499 15-28.166-5-38.499-15-15.5-23-15.5-39 5.167-29 15.5-39 23.166-15 38.499-15 28.166 5 38.499 15z"/><glyph glyph-name="Uhungarumlaut" unicode="Ű" horiz-adv-x="784" d="M141 71c-60 58-90 139.333-90 244v385h236V322c0-51.333 9.167-88.666 27.5-111.999s44.833-35 79.5-35 61.167 11.667 79.5 35S501 270.667 501 322v378h232V315c0-104.667-30-186-90-244S499.333-16 392-16 201 13 141 71zm113 846h195l-97-160H202zm234 0h195l-97-160H436z"/><glyph glyph-name="uhungarumlaut" unicode="ű" horiz-adv-x="698" d="M648 547V.001H433v52c-20-20.667-43.333-36.167-70-46.5s-55-15.5-85-15.5c-69.333 0-125 21.167-167 63.5S48 159.667 48 245v302h226V284c0-37.333 6-64 18-80s29.667-24 53-24c22 0 40.333 8.833 55 26.5s22 45.5 22 83.5v257h226zM208 767.001h195l-97-160H156zm234 0h195l-97-160H390z"/><glyph glyph-name="Uogonek" unicode="Ų" horiz-adv-x="784" d="M733 700l.001-385c0-80-17-145.5-51-196.5s-81.333-88.167-142-111.5C489.334-13 453.667-31.167 433-47.5S402-80.333 402-97c0-12 4.5-21.833 13.5-29.5S437.667-138 455-138c19.333 0 39 4.667 59 14l27-93c-12-6.667-28.5-12.167-49.5-16.5S449.333-240 428-240c-49.333 0-88 11-116 33s-42 52-42 90c0 40 17.333 75.333 52 106C235.333 1 168.5 35.167 121.5 91.5S51 222.333 51 315v385h236V322c0-51.333 9.167-88.666 27.5-111.999s44.833-35 79.5-35 61.167 11.667 79.5 35S501 270.667 501 322v378h232z"/><glyph glyph-name="uogonek" unicode="ų" horiz-adv-x="698" d="M648 547V.001H433v52c-20-20.667-43.333-36.167-70-46.5s-55-15.5-85-15.5c-69.333 0-125 21.167-167 63.5S48 159.667 48 245v302h226V284c0-37.333 6-64 18-80s29.667-24 53-24c22 0 40.333 8.833 55 26.5s22 45.5 22 83.5v257h226zM444-206.999c-28 22-42 51.998-42 89.998 0 36.667 14.5 69.334 43.5 98.001S515.667 32.334 569 49.001l79-49c-42-18.667-71.5-35.5-88.5-50.5s-25.5-30.5-25.5-46.5c0-12 4.5-21.833 13.5-29.5s22.167-11.5 39.5-11.5c19.333 0 39 4.667 59 14l27-93c-12-6.667-28.5-12.167-49.5-16.5s-42.167-6.5-63.5-6.5c-49.333 0-88 11-116 33z"/><glyph glyph-name="Wcircumflex" unicode="Ŵ" horiz-adv-x="1206" d="M1196 700L972 0H719L606 374 487 0H234L10 700h243l122-398 129 398h217l122-403 129 403h224zm-509 57l-84 77-84-77H379l128 160h192l128-160H687z"/><glyph glyph-name="wcircumflex" unicode="ŵ" horiz-adv-x="977" d="M983 547L793 0H573l-83 253L404 0H184L-6 547h214l94-289 98 289h192l95-292 98 292h198zm-410 60l-84 77-84-77H265l128 160h192l128-160H573z"/><glyph glyph-name="Ycircumflex" unicode="Ŷ" horiz-adv-x="710" d="M473 254V0H237v257L-27 700h249l143-242 144 242h228zm-34 503l-84 77-84-77H131l128 160h192l128-160H439z"/><glyph glyph-name="ycircumflex" unicode="ŷ" horiz-adv-x="644" d="M659 547L434.002-11c-28.667-71.333-64.334-121.333-107.001-150s-95-43-157-43c-30.667 0-61.5 4.5-92.5 13.5s-55.5 20.833-73.5 35.5l75 155c11.333-8.667 24.166-15.667 38.499-21s28.166-8 41.499-8c24.667 0 43.334 7.333 56.001 22L-15 547h232l113-293 115 293h214zm-261.998 60l-84 77-84-77h-140l128 160h192l128-160h-140z"/><glyph glyph-name="Ydieresis" unicode="Ÿ" horiz-adv-x="710" d="M473 254V0H237v257L-27 700h249l143-242 144 242h228zM179.5 773.5C162.5 789.833 154 811 154 837s8.5 47.333 25.5 64 38.5 25 64.5 25 47.5-8.333 64.5-25 25.5-38 25.5-64-8.5-47.167-25.5-63.5S270 749 244 749s-47.5 8.167-64.5 24.5zm222 0C384.5 789.833 376 811 376 837s8.5 47.333 25.5 64 38.5 25 64.5 25 47.5-8.333 64.5-25 25.5-38 25.5-64-8.5-47.167-25.5-63.5S492 749 466 749s-47.5 8.167-64.5 24.5z"/><glyph glyph-name="Zacute" unicode="Ź" horiz-adv-x="687" d="M675 183V0H32v145l320 372H42v183h617V555L339 183h336zM381 917h215L399 757H249z"/><glyph glyph-name="zacute" unicode="ź" horiz-adv-x="570" d="M552 165V0H30v130l226 252H38v165h503V417L315 165h237zM317 767h215L335 607H185z"/><glyph glyph-name="Zdotaccent" unicode="Ż" horiz-adv-x="687" d="M675 183V0H32v145l320 372H42v183h617V555L339 183h336zM272 779c-21.333 21.333-32 48.666-32 81.999s10.667 60.666 32 81.999 48.666 32 81.999 32 60.666-10.667 81.999-32 32-48.666 32-81.999-10.667-60.666-32-81.999-48.666-32-81.999-32-60.666 10.667-81.999 32z"/><glyph glyph-name="zdotaccent" unicode="ż" horiz-adv-x="570" d="M552 165V0H30v130l226 252H38v165h503V417L315 165h237zM208 629c-21.333 21.333-32 48.666-32 81.999s10.667 60.666 32 81.999 48.666 32 81.999 32 60.666-10.667 81.999-32 32-48.666 32-81.999-10.667-60.666-32-81.999-48.666-32-81.999-32-60.666 10.667-81.999 32z"/><glyph glyph-name="Zcaron" unicode="Ž" horiz-adv-x="687" d="M675 183V0H32v145l320 372H42v183h617V555L339 183h336zm-97 734L450 757H258L130 917h140l84-77 84 77h140z"/><glyph glyph-name="zcaron" unicode="ž" horiz-adv-x="570" d="M552 165V0H30v130l226 252H38v165h503V417L315 165h237zm-38 602L386 607H194L66 767h140l84-77 84 77h140z"/><glyph glyph-name="longs" unicode="ſ" horiz-adv-x="366" d="M406 745c24-4.667 44-11.333 60-20l-54-157c-18.667 8.667-35.667 13-51 13-16 0-27.833-5-35.5-15S314 540 314 518V0H88v352H13v165h75v3c0 71.333 21.333 127.833 64 169.5S254.667 752 332 752c25.333 0 50-2.333 74-7z"/><glyph glyph-name="uni018F" unicode="Ə" horiz-adv-x="818" d="M596 669.5c60.667-31 108.003-74.333 142.003-130s51-118.834 51-189.501c0-71.333-16.333-134.666-49-189.999S662.169 61.5 604.502 30.5 481.668-16 409.001-16c-74.667 0-140.667 15.5-198 46.5s-102 75-134 132-48 122.833-48 197.5v38h518c-7.333 38.667-25.333 69.5-54 92.5s-64 34.5-106 34.5c-29.333 0-61.333-7.5-96-22.5S228.667 467.667 208 443L69 586c34 37.333 80.333 68.333 139 93s119 37 181 37c77.333 0 146.333-15.5 207-46.5zM503.003 186c23.333 19.333 38.002 46.666 44.002 81.999h-276c6-35.333 20.667-62.666 44-81.999s54.666-29 93.999-29 70.666 9.667 93.999 29z"/><glyph glyph-name="florin" unicode="ƒ" horiz-adv-x="520" d="M362 517l118.998.001-20-165h-112l-40-324c-9.333-71.333-37.5-127.833-84.5-169.5s-107.833-62.5-182.5-62.5c-57.333 0-102.666 9-135.999 27l73 157c16-8.667 32.667-13 50-13 14 0 26 5.167 36 15.5S81.332 8.667 83.999 30l39 322h-75l20 165h76v3c8.667 72 36.834 128.667 84.501 170s110.167 62 187.5 62c25.333 0 49.833-2.333 73.5-7s42.834-11.334 57.501-20.001l-73-157c-18.667 8.667-35.334 13-50.001 13-16.667 0-30.5-5.167-41.5-15.5S364.667 539.333 362 518v-1z"/><glyph glyph-name="Ohorn" unicode="Ơ" horiz-adv-x="848" d="M793 486.5c17.333-41.667 25.999-87.166 25.999-136.499 0-70-17-132.833-51-188.5s-81-99.167-141-130.5-127.667-47-203-47-143 15.667-203 47-107 74.833-141 130.5-51 118.5-51 188.5 17.167 132.833 51.5 188.5 82.333 99.167 144 130.5 131.5 47 209.5 47c30.667 0 67.334-2.667 110.001-8 28-3.333 49.333-5 64-5 20.667 0 37 5.167 49 15.5s18 24.5 18 42.5c0 22.667-6.667 41.667-20 57l128 45c24.667-31.333 37-68.333 37-111 0-38-8.833-70.167-26.5-96.5s-42.5-46.5-74.5-60.5c32-30.667 56.667-66.834 74-108.501zM503.499 196.501c23.667 14.333 42.5 34.666 56.5 60.999s21 57.166 21 92.499-7 66.166-21 92.499-32.833 46.666-56.5 60.999-50.167 21.5-79.5 21.5-55.833-7.167-79.5-21.5-42.5-34.666-56.5-60.999-21-57.166-21-92.499 7-66.166 21-92.499 32.833-46.666 56.5-60.999 50.167-21.5 79.5-21.5 55.833 7.167 79.5 21.5z"/><glyph glyph-name="ohorn" unicode="ơ" horiz-adv-x="678" d="M657 274c0-54.667-13.669-103.502-41.002-146.502s-65.166-76.667-113.499-101-102.833-36.5-163.5-36.5c-61.333 0-116.166 12.167-164.499 36.5s-86 58-113 101S21 219.331 21 273.998s13.667 103.5 41 146.5 65.333 76.5 114 100.5 104 36 166 36c22 0 47-2 75-6 21.333-2.667 35.333-4 42-4 16 0 28.333 5.5 37 16.5s13 25.833 13 44.5c0 20.667-7.333 39.667-22 57l128 45c26-32.667 39-69.667 39-111 0-29.333-6-55.666-18-78.999s-29-43-51-59c48-51.333 72-113.666 72-186.999zm-254.002-79.502c16.667 19 25 45.5 25 79.5s-8.333 60.333-25 79-38 28-64 28-47.333-9.333-64-28-25-45-25-79 8.333-60.5 25-79.5 38-28.5 64-28.5 47.333 9.5 64 28.5z"/><glyph glyph-name="Uhorn" unicode="Ư" horiz-adv-x="804" d="M141 71c-60 58-90 139.333-90 244v385h236V322c0-51.333 9.167-88.666 27.5-111.999s44.833-35 79.5-35 61.167 11.667 79.5 35S501 270.667 501 322v378h232V315c0-104.667-30-186-90-244S499.333-16 392-16 201 13 141 71zm469 629h40.001c14.667 0 27.5 5.667 38.5 17s16.5 26 16.5 44c0 22.667-6.667 41.667-20 57l128 45c24.667-31.333 37-68.333 37-111 0-60.667-18.333-107.5-55-140.5S706.667 562 640 562h-30v138z"/><glyph glyph-name="uhorn" unicode="ư" horiz-adv-x="718" d="M648 547V.001H433v52c-20-20.667-43.333-36.167-70-46.5s-55-15.5-85-15.5c-69.333 0-125 21.167-167 63.5S48 159.667 48 245v302h226V284c0-37.333 6-64 18-80s29.667-24 53-24c22 0 40.333 8.833 55 26.5s22 45.5 22 83.5v257h226zm-143 .001h40.001c14.667 0 27.5 5.667 38.5 17s16.5 26 16.5 44c0 22.667-6.667 41.667-20 57l128 45c24.667-31.333 37-68.333 37-111 0-60.667-18.333-107.5-55-140.5s-88.334-49.5-155.001-49.5h-30v138z"/><glyph glyph-name="uni01B7" unicode="Ʒ" horiz-adv-x="654" d="M586.5 350.5c30.333-35 45.501-76.831 45.501-125.498 0-42.667-11.833-82.334-35.5-119.001s-60.5-66.167-110.5-88.5-112-33.5-186-33.5c-50.667 0-101.5 5.333-152.5 16s-94.833 26.334-131.5 47.001l76 174c30-16.667 62.667-29.334 98-38.001s69.333-13 102-13c31.333 0 56.166 4.667 74.499 14S394 206.667 394 224c0 32-31 48-93 48h-94v145l109 105H49v178h543V555L456 424c56.667-14 100.167-38.5 130.5-73.5z"/><glyph glyph-name="uni01C4" unicode="Ǆ" horiz-adv-x="1442" d="M57 700h345c78 0 146.833-14.167 206.5-42.5s106-68.833 139-121.5S797 421.333 797 350s-16.5-133.333-49.5-186-79.333-93.167-139-121.5S480 0 402 0H57v700zm335-516c50.667 0 91.167 14.5 121.5 43.5S559 297.333 559 350s-15.167 93.5-45.5 122.5S442.667 516 392 516h-99V184h99zm1042-1V0H791v145l320 372H801v183h617V555l-320-372h336zm-97 734l-128-160h-192L889 917h140l84-77 84 77h140z"/><glyph glyph-name="uni01C5" unicode="ǅ" horiz-adv-x="1396" d="M57 700h345c78 0 146.833-14.167 206.5-42.5s106-68.833 139-121.5S797 421.333 797 350s-16.5-133.333-49.5-186-79.333-93.167-139-121.5S480 0 402 0H57v700zm335-516c50.667 0 91.167 14.5 121.5 43.5S559 297.333 559 350s-15.167 93.5-45.5 122.5S442.667 516 392 516h-99V184h99zm986-19V0H856v130l226 252H864v165h503V417l-226-252h237zm-38 602l-128-160h-192L892 767h140l84-77 84 77h140z"/><glyph glyph-name="uni01C6" unicode="ǆ" horiz-adv-x="1258" d="M655 742V0H440v45c-32.667-36.667-82.667-55-150-55-48 0-92.167 11.5-132.5 34.5s-72.333 56.167-96 99.5S26 217.333 26 274s11.833 106.5 35.5 149.5 55.667 76 96 99S242 557 290 557c60.667 0 107-15.667 139-47v232h226zM408 194.5c16.667 19 25 45.5 25 79.5s-8.333 60.333-25 79-38 28-64 28-47.333-9.333-64-28-25-45-25-79 8.333-60.5 25-79.5 38-28.5 64-28.5 47.333 9.5 64 28.5zm834-29.5V0H720v130l226 252H728v165h503V417l-226-252h237zm-38 602l-128-160H884L756 767h140l84-77 84 77h140z"/><glyph glyph-name="uni01C7" unicode="Ǉ" horiz-adv-x="1191" d="M57 700h236V183h316V0H57v700zM702.5 10.5C658.167 28.167 621.667 53.998 593 87.998l127 150c18.667-23.333 37-40.666 55-51.999s36.667-17 56-17c24.667 0 43.5 7.333 56.5 22S907 227.333 907 256v266H669v178h471V270c0-95.333-24.5-166.833-73.5-214.5S945.667-16 851-16c-54.667 0-104.167 8.833-148.5 26.5z"/><glyph glyph-name="uni01C8" unicode="ǈ" horiz-adv-x="951" d="M57 700h236V183h316V0H57v700zm466-877l54 157.001c16-8.667 33-13 51-13 14 0 25.333 5.167 34 15.5S675 8.667 675 30v517h226V28c0-71.333-21.167-127.833-63.5-169.5S736.667-204 662-204c-58 0-104.333 9-139 27zm166.5 800.501c-25 21.667-37.5 49.168-37.5 82.501s12.5 60.833 37.5 82.5 57.833 32.5 98.5 32.5c41.333 0 74.333-10.333 99-31s37-47.334 37-80.001c0-34.667-12.333-63.167-37-85.5s-57.667-33.5-99-33.5c-40.667 0-73.5 10.833-98.5 32.5z"/><glyph glyph-name="uni01C9" unicode="ǉ" horiz-adv-x="660" d="M50 742h226V0H50v742zm182-919l54 157.001c16-8.667 33-13 51-13 14 0 25.333 5.167 34 15.5S384 8.667 384 30v517h226V28c0-71.333-21.167-127.833-63.5-169.5S445.667-204 371-204c-58 0-104.333 9-139 27zm166.5 800.501c-25 21.667-37.5 49.168-37.5 82.501s12.5 60.833 37.5 82.5 57.833 32.5 98.5 32.5c41.333 0 74.333-10.333 99-31s37-47.334 37-80.001c0-34.667-12.333-63.167-37-85.5s-57.667-33.5-99-33.5c-40.667 0-73.5 10.833-98.5 32.5z"/><glyph glyph-name="uni01CA" unicode="Ǌ" horiz-adv-x="1378" d="M747 700V0H553L287 318V0H57v700h194l266-318v318h230zM889.5 10.5C845.167 28.167 808.667 53.998 780 87.998l127 150c18.667-23.333 37-40.666 55-51.999s36.667-17 56-17c24.667 0 43.5 7.333 56.5 22S1094 227.333 1094 256v266H856v178h471V270c0-95.333-24.5-166.833-73.5-214.5S1132.667-16 1038-16c-54.667 0-104.167 8.833-148.5 26.5z"/><glyph glyph-name="uni01CB" unicode="ǋ" horiz-adv-x="1138" d="M747 700V0H553L287 318V0H57v700h194l266-318v318h230zm-37-877l54 157.001c16-8.667 33-13 51-13 14 0 25.333 5.167 34 15.5S862 8.667 862 30v517h226V28c0-71.333-21.167-127.833-63.5-169.5S923.667-204 849-204c-58 0-104.333 9-139 27zm166.5 800.501c-25 21.667-37.5 49.168-37.5 82.501s12.5 60.833 37.5 82.5 57.833 32.5 98.5 32.5c41.333 0 74.333-10.333 99-31s37-47.334 37-80.001c0-34.667-12.333-63.167-37-85.5s-57.667-33.5-99-33.5c-40.667 0-73.5 10.833-98.5 32.5z"/><glyph glyph-name="uni01CC" unicode="ǌ" horiz-adv-x="1036" d="M592.5 496c41-40.667 61.5-102 61.5-184V0H428v273c0 62.667-22.333 94-67 94-25.333 0-45.833-8.833-61.5-26.5S276 295 276 257V0H50v547h215v-54c21.333 21.333 46 37.333 74 48s58.333 16 91 16c67.333 0 121.5-20.333 162.5-61zM608-177l54 157.001c16-8.667 33-13 51-13 14 0 25.333 5.167 34 15.5S760 8.667 760 30v517h226V28c0-71.333-21.167-127.833-63.5-169.5S821.667-204 747-204c-58 0-104.333 9-139 27zm166.5 800.501c-25 21.667-37.5 49.168-37.5 82.501s12.5 60.833 37.5 82.5 57.833 32.5 98.5 32.5c41.333 0 74.333-10.333 99-31s37-47.334 37-80.001c0-34.667-12.333-63.167-37-85.5s-57.667-33.5-99-33.5c-40.667 0-73.5 10.833-98.5 32.5z"/><glyph glyph-name="uni01CD" unicode="Ǎ" horiz-adv-x="806" d="M534 122H268L221 0H-19l306 700h232L825 0H581zm-65 170l-68 176-68-176h136zm158 625L499 757H307L179 917h140l84-77 84 77h140z"/><glyph glyph-name="uni01CE" unicode="ǎ" horiz-adv-x="639" d="M515 492.5c50.667-43 75.999-109.167 75.999-198.5V0h-210v72c-26-54.667-77.667-82-155-82-43.333 0-80.166 7.5-110.499 22.5s-53.333 35.333-69 61S23 128 23 160c0 54 20.667 95 62 123s104 42 188 42h91c-7.333 42.667-41.666 64-102.999 64-24.667 0-49.667-3.833-75-11.5s-47-18.167-65-31.5l-72 149c31.333 19.333 69.166 34.5 113.499 45.5S251 557 295 557c96 0 169.333-21.5 220-64.5zM336.999 139c12.667 8.667 21.999 21.667 27.999 39v38h-56c-46 0-69-15.333-69-46 0-12.667 4.833-23.167 14.5-31.5s22.834-12.5 39.501-12.5c16 0 30.333 4.333 43 13zm207.999 628l-128-160h-192l-128 160h140l84-77 84 77h140z"/><glyph glyph-name="uni01D3" unicode="Ǔ" horiz-adv-x="784" d="M141 71c-60 58-90 139.333-90 244v385h236V322c0-51.333 9.167-88.666 27.5-111.999s44.833-35 79.5-35 61.167 11.667 79.5 35S501 270.667 501 322v378h232V315c0-104.667-30-186-90-244S499.333-16 392-16 201 13 141 71zm477 846L490 757H298L170 917h140l84-77 84 77h140z"/><glyph glyph-name="uni01D4" unicode="ǔ" horiz-adv-x="698" d="M648 547V.001H433v52c-20-20.667-43.333-36.167-70-46.5s-55-15.5-85-15.5c-69.333 0-125 21.167-167 63.5S48 159.667 48 245v302h226V284c0-37.333 6-64 18-80s29.667-24 53-24c22 0 40.333 8.833 55 26.5s22 45.5 22 83.5v257h226zm-76 220.001l-128-160H252l-128 160h140l84-77 84 77h140z"/><glyph glyph-name="uni01E4" unicode="Ǥ" horiz-adv-x="816" d="M520 369l205.001-.002v-296c-41.333-28.667-89.333-50.667-144-66s-108.334-23-161.001-23c-74.667 0-141.667 15.5-201 46.5s-105.833 74.333-139.5 130S29 279.332 29 349.999 45.833 483.833 79.5 539.5s80.667 99 141 130S349 716 425 716c68.667 0 130.167-11.5 184.5-34.5S709 625 745 581L594 448c-44 51.333-96.333 77-157 77-52 0-93.333-15.667-124-47s-46-74-46-128c0-52.667 15.167-95 45.5-127s70.833-48 121.5-48c30 0 58.667 5.667 86 17v177zm-131.802-30.49h413.603V205.233H388.198V338.51z"/><glyph glyph-name="uni01E5" unicode="ǥ" horiz-adv-x="725" d="M724-10h-79c-19.333-64-56-112.333-110-145s-124.333-49-211-49c-52.667 0-102.667 6-150 18s-87.333 28.667-120 50L130 8c20-16 46.333-29 79-39s65.334-15 98.001-15C354.334-46 388.667-34.333 410-11H262v80h173v45l2 39c-36.667-40.667-91-61-163-61-50.667 0-95 10-133 30s-67.5 47.5-88.5 82.5S21 279.333 21 324s10.333 84.5 31 119.5 50 62.5 88 82.5 82.333 30 133 30c78 0 135.667-24.667 173-74v65h215V109c0-18-.333-31-1-39h64v-80zM412.5 264.5c16.333 14.333 24.5 34.166 24.5 59.499s-8.167 45.166-24.5 59.499-39.166 21.5-68.499 21.5-52.333-7.167-69-21.5-25-34.166-25-59.499 8.333-45.166 25-59.499 39.667-21.5 69-21.5 52.166 7.167 68.499 21.5z"/><glyph glyph-name="Gcaron" unicode="Ǧ" horiz-adv-x="769" d="M520 369l205.001-.002v-296c-41.333-28.667-89.333-50.667-144-66s-108.334-23-161.001-23c-74.667 0-141.667 15.5-201 46.5s-105.833 74.333-139.5 130S29 279.332 29 349.999 45.833 483.833 79.5 539.5s80.667 99 141 130S349 716 425 716c68.667 0 130.167-11.5 184.5-34.5S709 625 745 581L594 448c-44 51.333-96.333 77-157 77-52 0-93.333-15.667-124-47s-46-74-46-128c0-52.667 15.167-95 45.5-127s70.833-48 121.5-48c30 0 58.667 5.667 86 17v177zm128.001 548.998l-128-160h-192l-128 160h140l84-77 84 77h140z"/><glyph glyph-name="gcaron" unicode="ǧ" horiz-adv-x="711" d="M661 547V109.001c0-104-28.833-182.167-86.5-234.5s-139.834-78.5-246.501-78.5c-54.667 0-105.667 5.833-153 17.5s-87.666 28.5-120.999 50.5l76 154c21.333-16 48.333-29 81-39s64-15 94-15c45.333 0 78.333 9.667 99 29S435 40.667 435 78v10c-34-38.667-84.333-58-151-58-46.667 0-90.167 10.833-130.5 32.5S81 115.167 57 155.5 21 242 21 294s12 98 36 138 56.167 70.833 96.5 92.5S237.333 557 284 557c74.667 0 128.667-24 162-72v62h215zM410.5 230.501c17.667 16.333 26.5 37.5 26.5 63.5s-8.833 47-26.5 63-39.834 24-66.501 24c-27.333 0-49.833-8-67.5-24s-26.5-37-26.5-63 9-47.167 27-63.5 40.333-24.5 67-24.5 48.834 8.167 66.501 24.5zm168.5 536.5l-128-160H259l-128 160h140l84-77 84 77h140z"/><glyph glyph-name="uni01E8" unicode="Ǩ" horiz-adv-x="765" d="M342 232l-53-59V0H57v700h232V446l230 254h257L496 392 790 0H517zm266 685L480 757H288L160 917h140l84-77 84 77h140z"/><glyph glyph-name="uni01E9" unicode="ǩ" horiz-adv-x="713" d="M312 168l-36-39V0H50v742h226V388l157 159h267L474 310 718 0H445zm75 794L259 802H67L-61 962H79l84-77 84 77h140z"/><glyph glyph-name="uni01EA" unicode="Ǫ" horiz-adv-x="848" d="M433-97c0-12 4.5-21.831 13.5-29.498s22.167-11.5 39.5-11.5c19.333 0 39 4.667 59 14l27-93c-12-6.667-28.5-12.167-49.5-16.5s-42.167-6.5-63.5-6.5c-49.333 0-88 11-116 33s-42 52-42 90c0 40 17.333 75.333 52 106-63.333 9.333-119.5 30.666-168.5 63.999S97.333 128.667 70 180 29 288 29 350c0 70 17 132.833 51 188.5s81 99.167 141 130.5 127.667 47 203 47 143-15.667 203-47 107-74.833 141-130.5S819 420 819 350c0-83.333-23.5-155.333-70.5-216S640 30.333 564 5C476.667-24.333 433-58.333 433-97zM288 257.502c14-26.333 32.833-46.666 56.5-60.999s50.167-21.5 79.5-21.5 55.833 7.167 79.5 21.5 42.5 34.666 56.5 60.999 21 57.166 21 92.499-7 66.166-21 92.499-32.833 46.666-56.5 60.999-50.167 21.5-79.5 21.5-55.833-7.167-79.5-21.5S302 468.833 288 442.5s-21-57.166-21-92.499 7-66.166 21-92.499z"/><glyph glyph-name="uni01EB" unicode="ǫ" horiz-adv-x="678" d="M371-41c-17.333-17.333-25.999-35.668-25.999-55.001 0-12 4.5-22 13.5-30s22.167-12 39.5-12c19.333 0 39 4.667 59 14l27-93c-12-6.667-28.5-12.167-49.5-16.5s-42.167-6.5-63.5-6.5c-49.333 0-88 11-116 33s-42 52-42 90c0 22 5.333 42.5 16 61.5s26 35.833 46 50.5c-50 8-94.167 24.833-132.5 50.5s-68.166 58.167-89.499 97.5-32 83-32 131c0 54.667 13.667 103.5 41 146.5s65.166 76.5 113.499 100.5 102.833 36 163.5 36c61.333 0 116.166-12 164.499-36s86-57.5 113-100.5 40.5-91.833 40.5-146.5c0-60.667-17.167-114-51.5-160s-80.833-80.333-139.5-103C420-6.334 388.333-23.667 371-41zm-95.999 393.998c-16.667-18.667-25-45-25-79s8.333-60.5 25-79.5 38-28.5 64-28.5 47.333 9.5 64 28.5 25 45.5 25 79.5-8.333 60.333-25 79-38 28-64 28-47.333-9.333-64-28z"/><glyph glyph-name="uni01EE" unicode="Ǯ" horiz-adv-x="654" d="M586.5 350.5c30.333-35 45.501-76.831 45.501-125.498 0-42.667-11.833-82.334-35.5-119.001s-60.5-66.167-110.5-88.5-112-33.5-186-33.5c-50.667 0-101.5 5.333-152.5 16s-94.833 26.334-131.5 47.001l76 174c30-16.667 62.667-29.334 98-38.001s69.333-13 102-13c31.333 0 56.166 4.667 74.499 14S394 206.667 394 224c0 32-31 48-93 48h-94v145l109 105H49v178h543V555L456 424c56.667-14 100.167-38.5 130.5-73.5zm-45.499 566.502l-128-160h-192l-128 160h140l84-77 84 77h140z"/><glyph glyph-name="uni01EF" unicode="ǯ" horiz-adv-x="585" d="M527.5 178.5C556.5 141.5 571 97 571 45c0-44-11.333-84.833-34-122.5s-57.834-68.167-105.501-91.5-106.5-35-176.5-35c-48.667 0-97.167 5.833-145.5 17.5s-90.5 28.5-126.5 50.5l76 174c29.333-18.667 60.333-32.667 93-42S216.333-18 247-18c27.333 0 49.333 5.5 66 16.5S338 25 338 45c0 38.667-27.667 58-83 58h-93v145l107 121H15v178h518V402L402 255c54.667-14 96.5-39.5 125.5-76.5zM496 767L368 607H176L48 767h140l84-77 84 77h140z"/><glyph glyph-name="Aringacute" unicode="Ǻ" horiz-adv-x="806" d="M534 122H268L221 0H-19l306 700h232L825 0H581zm-65 170l-68 176-68-176h136zm58 648c10.667-20 15.999-41 15.999-63 0-24.667-6.167-47.167-18.5-67.5S495.333 773 474 761s-45-18-71-18-49.667 6-71 18-38.166 28.167-50.499 48.5-18.5 42.833-18.5 67.5 6.167 47.167 18.5 67.5S310.667 981 332 993s45 18 71 18c14 0 29.667-2.333 47-7l92 97 109-81zm-85.501-102c10.333 10 15.5 23 15.5 39s-5.167 29-15.5 39-23.166 15-38.499 15-28.166-5-38.499-15-15.5-23-15.5-39 5.167-29 15.5-39 23.166-15 38.499-15 28.166 5 38.499 15z"/><glyph glyph-name="aringacute" unicode="ǻ" horiz-adv-x="639" d="M515 492.5c50.667-43 75.999-109.167 75.999-198.5V0h-210v72c-26-54.667-77.667-82-155-82-43.333 0-80.166 7.5-110.499 22.5s-53.333 35.333-69 61S23 128 23 160c0 54 20.667 95 62 123s104 42 188 42h91c-7.333 42.667-41.666 64-102.999 64-24.667 0-49.667-3.833-75-11.5s-47-18.167-65-31.5l-72 149c31.333 19.333 69.166 34.5 113.499 45.5S251 557 295 557c96 0 169.333-21.5 220-64.5zM336.999 139c12.667 8.667 21.999 21.667 27.999 39v38h-56c-46 0-69-15.333-69-46 0-12.667 4.833-23.167 14.5-31.5s22.834-12.5 39.501-12.5c16 0 30.333 4.333 43 13zm107.999 648c10.667-20 15.999-41 15.999-63 0-24.667-6.167-47.167-18.5-67.5S413.331 620 391.998 608s-45-18-71-18-49.667 6-71 18-38.166 28.167-50.499 48.5-18.5 42.833-18.5 67.5 6.167 47.167 18.5 67.5 29.166 36.5 50.499 48.5 45 18 71 18c14 0 29.667-2.333 47-7l92 97 109-81zm-85.501-102c10.333 10 15.5 23 15.5 39s-5.167 29-15.5 39-23.166 15-38.499 15-28.166-5-38.499-15-15.5-23-15.5-39 5.167-29 15.5-39 23.166-15 38.499-15 28.166 5 38.499 15z"/><glyph glyph-name="AEacute" unicode="Ǽ" horiz-adv-x="1119" d="M1085 178V0H503v122H282L221 0H-19l369 700h722V522H735v-82h296V270H735v-92h350zM503 292v230h-23L366 292h137zm143 625h215L664 757H514z"/><glyph glyph-name="aeacute" unicode="ǽ" horiz-adv-x="1003" d="M978 219l-378.998.001c7.333-20 20.166-35.333 38.499-46s41.5-16 69.5-16c21.333 0 41 3.167 59 9.5s36.667 16.5 56 30.5l118-119c-27.333-28.667-61-50.5-101-65.5s-85-22.5-135-22.5c-46 0-89 6.667-129 20s-74.667 34-104 62c-24-30-52.5-51.167-85.5-63.5s-71.5-18.5-115.5-18.5c-76.667 0-137 16.167-181 48.5s-66 75.5-66 129.5c0 50.667 20.833 90 62.5 118s104.167 42 187.5 42h90c-8.667 40.667-42.334 61-101.001 61-26 0-51.5-3.833-76.5-11.5s-46.5-18.167-64.5-31.5l-72 149c31.333 19.333 68.833 34.5 112.5 45.5s87.834 16.5 132.501 16.5c85.333 0 151.333-20 198-60 26.667 19.333 56.5 34.166 89.5 44.499s67.5 15.5 103.5 15.5c52.667 0 101.667-11 147-33S913.667 469.833 941 427.5s41-92.833 41-151.5c0-16.667-1.333-35.667-4-57zM623.502 383.001c-15.667-13.333-25.832-31.666-30.499-54.999h173c-4.667 23.333-14.5 41.666-29.5 54.999s-33.5 20-55.5 20c-22.667 0-41.834-6.667-57.501-20zm-276.498-237.5c12 13 18 31.167 18 54.5v19h-56c-46 0-69-15.333-69-46 0-14.667 4.833-26.167 14.5-34.5s23.5-12.5 41.5-12.5c22 0 39 6.5 51 19.5zm158 621.5h215l-197-160h-150z"/><glyph glyph-name="Oslashacute" unicode="Ǿ" horiz-adv-x="848" d="M221 31c-60 31.333-107 74.833-141 130.5S29 280 29 350s17 132.833 51 188.5 81 99.167 141 130.5 127.667 47 203 47 143-15.667 203-47 107-74.833 141-130.5S819 420 819 350s-17-132.833-51-188.5S687 62.333 627 31 499.333-16 424-16 281-.333 221 31zm282.5 165.5c23.667 14.333 42.5 34.666 56.5 60.999s21 57.166 21 92.499-7 66.166-21 92.499-32.833 46.666-56.5 60.999-50.167 21.5-79.5 21.5-55.833-7.167-79.5-21.5S302 468.83 288 442.497s-21-57.166-21-92.499 7-66.166 21-92.499 32.833-46.666 56.5-60.999S394.667 175 424 175s55.833 7.167 79.5 21.5zM657 770h130L191-70H61zM451 917h215L469 757H319z"/><glyph glyph-name="oslashacute" unicode="ǿ" horiz-adv-x="678" d="M175.5 26.5c-48.333 24.333-86.166 58-113.499 101s-41 91.833-41 146.5 13.667 103.5 41 146.5S127.167 497 175.5 521s102.833 36 163.5 36c61.333 0 116.166-12 164.499-36s86-57.5 113-100.5 40.5-91.833 40.5-146.5-13.5-103.5-40.5-146.5-64.667-76.667-113-101S400.333-10 339-10c-60.667 0-115.167 12.167-163.5 36.5zm227.5 168c16.667 19 25 45.5 25 79.5s-8.333 60.333-25 79-38 28-64 28-47.333-9.333-64-28-25-45-25-79 8.333-60.5 25-79.5 38-28.5 64-28.5 47.333 9.5 64 28.5zM509 610h95L163-70H68zM360 767h215L378 607H228z"/><glyph glyph-name="uni0200" unicode="Ȁ" horiz-adv-x="806" d="M534 122H268L221 0H-19l306 700h232L825 0H581zm-65 170l-68 176-68-176h136zM114 917h195l52-160H211zm234 0h195l52-160H445z"/><glyph glyph-name="uni0201" unicode="ȁ" horiz-adv-x="639" d="M515 492.5c50.667-43 75.999-109.167 75.999-198.5V0h-210v72c-26-54.667-77.667-82-155-82-43.333 0-80.166 7.5-110.499 22.5s-53.333 35.333-69 61S23 128 23 160c0 54 20.667 95 62 123s104 42 188 42h91c-7.333 42.667-41.666 64-102.999 64-24.667 0-49.667-3.833-75-11.5s-47-18.167-65-31.5l-72 149c31.333 19.333 69.166 34.5 113.499 45.5S251 557 295 557c96 0 169.333-21.5 220-64.5zM336.999 139c12.667 8.667 21.999 21.667 27.999 39v38h-56c-46 0-69-15.333-69-46 0-12.667 4.833-23.167 14.5-31.5s22.834-12.5 39.501-12.5c16 0 30.333 4.333 43 13zM31.998 767h195l52-160h-150zm234 0h195l52-160h-150z"/><glyph glyph-name="uni0202" unicode="Ȃ" horiz-adv-x="806" d="M534 122H268L221 0H-19l306 700h232L825 0H581zm-65 170l-68 176-68-176h136zM255 881c38 30.667 87.335 46 148.002 46s110-15.333 148-46 58.333-72 61-124h-135c-1.333 18.667-8.833 33.5-22.5 44.5S423.668 818 403.001 818s-37.834-5.5-51.501-16.5-21.167-25.833-22.5-44.5H194c2.667 52 23 93.333 61 124z"/><glyph glyph-name="uni0203" unicode="ȃ" horiz-adv-x="639" d="M515 492.5c50.667-43 75.999-109.167 75.999-198.5V0h-210v72c-26-54.667-77.667-82-155-82-43.333 0-80.166 7.5-110.499 22.5s-53.333 35.333-69 61S23 128 23 160c0 54 20.667 95 62 123s104 42 188 42h91c-7.333 42.667-41.666 64-102.999 64-24.667 0-49.667-3.833-75-11.5s-47-18.167-65-31.5l-72 149c31.333 19.333 69.166 34.5 113.499 45.5S251 557 295 557c96 0 169.333-21.5 220-64.5zM336.999 139c12.667 8.667 21.999 21.667 27.999 39v38h-56c-46 0-69-15.333-69-46 0-12.667 4.833-23.167 14.5-31.5s22.834-12.5 39.501-12.5c16 0 30.333 4.333 43 13zM172.998 731c38 30.667 87.335 46 148.002 46s110-15.333 148-46 58.333-72 61-124H395c-1.333 18.667-8.833 33.5-22.5 44.5S341.666 668 320.999 668s-37.834-5.5-51.501-16.5-21.167-25.833-22.5-44.5h-135c2.667 52 23 93.333 61 124z"/><glyph glyph-name="uni0204" unicode="Ȅ" horiz-adv-x="673" d="M639 178V0H57v700h569V522H289v-82h296V270H289v-92h350zM53 917h195l52-160H150zm234 0h195l52-160H384z"/><glyph glyph-name="uni0205" unicode="ȅ" horiz-adv-x="653" d="M629 221l-379.999.001c8-20.667 21.333-36.5 40-47.5s42-16.5 70-16.5c24 0 44.167 3 60.5 9s34.166 16.333 53.499 31l118-119c-53.333-58.667-133-88-239-88-66 0-124 12.167-174 36.5S89.333 84.667 62 128s-41 92-41 146c0 54.667 13.5 103.5 40.5 146.5s64 76.5 111 100.5 99.833 36 158.5 36c55.333 0 105.833-11 151.5-33s82-54.333 109-97S632 333.333 632 274c0-3.333-1-21-3-53zM275.001 384.001c-15.333-12.667-25.335-30.667-30.002-54h176c-4.667 22.667-14.667 40.5-30 53.5s-34.666 19.5-57.999 19.5-42.666-6.333-57.999-19zm-237.002 383h195l52-160h-150zm234 0h195l52-160h-150z"/><glyph glyph-name="uni0206" unicode="Ȇ" horiz-adv-x="673" d="M639 178V0H57v700h569V522H289v-82h296V270H289v-92h350zM194 881c38 30.667 87.335 46 148.002 46s110-15.333 148-46 58.333-72 61-124h-135c-1.333 18.667-8.833 33.5-22.5 44.5S362.668 818 342.001 818s-37.834-5.5-51.501-16.5-21.167-25.833-22.5-44.5H133c2.667 52 23 93.333 61 124z"/><glyph glyph-name="uni0207" unicode="ȇ" horiz-adv-x="653" d="M629 221l-379.999.001c8-20.667 21.333-36.5 40-47.5s42-16.5 70-16.5c24 0 44.167 3 60.5 9s34.166 16.333 53.499 31l118-119c-53.333-58.667-133-88-239-88-66 0-124 12.167-174 36.5S89.333 84.667 62 128s-41 92-41 146c0 54.667 13.5 103.5 40.5 146.5s64 76.5 111 100.5 99.833 36 158.5 36c55.333 0 105.833-11 151.5-33s82-54.333 109-97S632 333.333 632 274c0-3.333-1-21-3-53zM275.001 384.001c-15.333-12.667-25.335-30.667-30.002-54h176c-4.667 22.667-14.667 40.5-30 53.5s-34.666 19.5-57.999 19.5-42.666-6.333-57.999-19zm-96.002 347c38 30.667 87.335 46 148.002 46s110-15.333 148-46 58.333-72 61-124h-135c-1.333 18.667-8.833 33.5-22.5 44.5s-30.834 16.5-51.501 16.5-37.834-5.5-51.501-16.5-21.167-25.833-22.5-44.5h-135c2.667 52 23 93.333 61 124z"/><glyph glyph-name="uni0208" unicode="Ȉ" horiz-adv-x="350" d="M57 700h236V0H57v700zm-171 217H81l52-160H-17zm234 0h195l52-160H217z"/><glyph glyph-name="uni0209" unicode="ȉ" horiz-adv-x="326" d="M50 547h226V0H50v547zm-176 220H69l52-160H-29zm234 0h195l52-160H205z"/><glyph glyph-name="uni020A" unicode="Ȋ" horiz-adv-x="350" d="M57 700h236V0H57v700zM27 881c38 30.667 87.335 46 148.002 46s110-15.333 148-46 58.333-72 61-124h-135c-1.333 18.667-8.833 33.5-22.5 44.5S195.668 818 175.001 818s-37.834-5.5-51.501-16.5-21.167-25.833-22.5-44.5H-34c2.667 52 23 93.333 61 124z"/><glyph glyph-name="uni020B" unicode="ȋ" horiz-adv-x="326" d="M50 547h226V0H50v547zM31 731c34 30.667 77.998 46 131.998 46s98-15.333 132-46 51.333-72 52-124h-130c0 18.667-4.667 33.834-14 45.501s-22.666 17.5-39.999 17.5-30.666-5.833-39.999-17.5-14-26.834-14-45.501H-21c.667 52 18 93.333 52 124z"/><glyph glyph-name="uni020C" unicode="Ȍ" horiz-adv-x="848" d="M221 31c-60 31.333-107 74.833-141 130.5S29 280 29 350s17 132.833 51 188.5 81 99.167 141 130.5 127.667 47 203 47 143-15.667 203-47 107-74.833 141-130.5S819 420 819 350s-17-132.833-51-188.5S687 62.333 627 31 499.333-16 424-16 281-.333 221 31zm282.5 165.5c23.667 14.333 42.5 34.666 56.5 60.999s21 57.166 21 92.499-7 66.166-21 92.499-32.833 46.666-56.5 60.999-50.167 21.5-79.5 21.5-55.833-7.167-79.5-21.5S302 468.83 288 442.497s-21-57.166-21-92.499 7-66.166 21-92.499 32.833-46.666 56.5-60.999S394.667 175 424 175s55.833 7.167 79.5 21.5zM135 917h195l52-160H232zm234 0h195l52-160H466z"/><glyph glyph-name="uni020D" unicode="ȍ" horiz-adv-x="678" d="M175.5 26.5c-48.333 24.333-86.166 58-113.499 101s-41 91.833-41 146.5 13.667 103.5 41 146.5S127.167 497 175.5 521s102.833 36 163.5 36c61.333 0 116.166-12 164.499-36s86-57.5 113-100.5 40.5-91.833 40.5-146.5-13.5-103.5-40.5-146.5-64.667-76.667-113-101S400.333-10 339-10c-60.667 0-115.167 12.167-163.5 36.5zm227.5 168c16.667 19 25 45.5 25 79.5s-8.333 60.333-25 79-38 28-64 28-47.333-9.333-64-28-25-45-25-79 8.333-60.5 25-79.5 38-28.5 64-28.5 47.333 9.5 64 28.5zM47 767h195l52-160H144zm234 0h195l52-160H378z"/><glyph glyph-name="uni020E" unicode="Ȏ" horiz-adv-x="848" d="M221 31c-60 31.333-107 74.833-141 130.5S29 280 29 350s17 132.833 51 188.5 81 99.167 141 130.5 127.667 47 203 47 143-15.667 203-47 107-74.833 141-130.5S819 420 819 350s-17-132.833-51-188.5S687 62.333 627 31 499.333-16 424-16 281-.333 221 31zm282.5 165.5c23.667 14.333 42.5 34.666 56.5 60.999s21 57.166 21 92.499-7 66.166-21 92.499-32.833 46.666-56.5 60.999-50.167 21.5-79.5 21.5-55.833-7.167-79.5-21.5S302 468.83 288 442.497s-21-57.166-21-92.499 7-66.166 21-92.499 32.833-46.666 56.5-60.999S394.667 175 424 175s55.833 7.167 79.5 21.5zM276 881c38 30.667 87.335 46 148.002 46s110-15.333 148-46 58.333-72 61-124h-135c-1.333 18.667-8.833 33.5-22.5 44.5S444.668 818 424.001 818s-37.834-5.5-51.501-16.5-21.167-25.833-22.5-44.5H215c2.667 52 23 93.333 61 124z"/><glyph glyph-name="uni020F" unicode="ȏ" horiz-adv-x="678" d="M175.5 26.5c-48.333 24.333-86.166 58-113.499 101s-41 91.833-41 146.5 13.667 103.5 41 146.5S127.167 497 175.5 521s102.833 36 163.5 36c61.333 0 116.166-12 164.499-36s86-57.5 113-100.5 40.5-91.833 40.5-146.5-13.5-103.5-40.5-146.5-64.667-76.667-113-101S400.333-10 339-10c-60.667 0-115.167 12.167-163.5 36.5zm227.5 168c16.667 19 25 45.5 25 79.5s-8.333 60.333-25 79-38 28-64 28-47.333-9.333-64-28-25-45-25-79 8.333-60.5 25-79.5 38-28.5 64-28.5 47.333 9.5 64 28.5zM188 731c38 30.667 87.335 46 148.002 46s110-15.333 148-46 58.333-72 61-124h-135c-1.333 18.667-8.833 33.5-22.5 44.5S356.668 668 336.001 668s-37.834-5.5-51.501-16.5-21.167-25.833-22.5-44.5H127c2.667 52 23 93.333 61 124z"/><glyph glyph-name="uni0210" unicode="Ȑ" horiz-adv-x="745" d="M357 176h-63.999V0h-236v700h337c64.667 0 121-10.667 169-32s85-52 111-92 39-86.667 39-140c0-50-11.333-93.667-34-131S623.667 238 581 216L728 0H476zm94.001 320.5c-16 14.333-40 21.5-72 21.5h-86V354h86c32 0 56 7.167 72 21.5s24 34.5 24 60.5-8 46.167-24 60.5zm-361 420.5h195l52-160h-150zm234 0h195l52-160h-150z"/><glyph glyph-name="uni0211" unicode="ȑ" horiz-adv-x="456" d="M442 557V357c-18 2.667-34.667 4-50 4-77.333 0-116-39.333-116-118V0H50v547h215v-59c40 46 99 69 177 69zM-44 767h195l52-160H53zm234 0h195l52-160H287z"/><glyph glyph-name="uni0212" unicode="Ȓ" horiz-adv-x="745" d="M357 176h-63.999V0h-236v700h337c64.667 0 121-10.667 169-32s85-52 111-92 39-86.667 39-140c0-50-11.333-93.667-34-131S623.667 238 581 216L728 0H476zm94.001 320.5c-16 14.333-40 21.5-72 21.5h-86V354h86c32 0 56 7.167 72 21.5s24 34.5 24 60.5-8 46.167-24 60.5zm-220 384.5c38 30.667 87.335 46 148.002 46s110-15.333 148-46 58.333-72 61-124h-135c-1.333 18.667-8.833 33.5-22.5 44.5S399.669 818 379.002 818s-37.834-5.5-51.501-16.5-21.167-25.833-22.5-44.5h-135c2.667 52 23 93.333 61 124z"/><glyph glyph-name="uni0213" unicode="ȓ" horiz-adv-x="456" d="M442 557V357c-18 2.667-34.667 4-50 4-77.333 0-116-39.333-116-118V0H50v547h215v-59c40 46 99 69 177 69zM97 731c38 30.667 87.335 46 148.002 46s110-15.333 148-46 58.333-72 61-124h-135c-1.333 18.667-8.833 33.5-22.5 44.5S265.668 668 245.001 668s-37.834-5.5-51.501-16.5-21.167-25.833-22.5-44.5H36c2.667 52 23 93.333 61 124z"/><glyph glyph-name="uni0214" unicode="Ȕ" horiz-adv-x="784" d="M141 71c-60 58-90 139.333-90 244v385h236V322c0-51.333 9.167-88.666 27.5-111.999s44.833-35 79.5-35 61.167 11.667 79.5 35S501 270.667 501 322v378h232V315c0-104.667-30-186-90-244S499.333-16 392-16 201 13 141 71zm-36 846h195l52-160H202zm234 0h195l52-160H436z"/><glyph glyph-name="uni0215" unicode="ȕ" horiz-adv-x="698" d="M648 547V.001H433v52c-20-20.667-43.333-36.167-70-46.5s-55-15.5-85-15.5c-69.333 0-125 21.167-167 63.5S48 159.667 48 245v302h226V284c0-37.333 6-64 18-80s29.667-24 53-24c22 0 40.333 8.833 55 26.5s22 45.5 22 83.5v257h226zM59 767.001h195l52-160H156zm234 0h195l52-160H390z"/><glyph glyph-name="uni0216" unicode="Ȗ" horiz-adv-x="784" d="M141 71c-60 58-90 139.333-90 244v385h236V322c0-51.333 9.167-88.666 27.5-111.999s44.833-35 79.5-35 61.167 11.667 79.5 35S501 270.667 501 322v378h232V315c0-104.667-30-186-90-244S499.333-16 392-16 201 13 141 71zm105 810c38 30.667 87.335 46 148.002 46s110-15.333 148-46 58.333-72 61-124h-135c-1.333 18.667-8.833 33.5-22.5 44.5S414.668 818 394.001 818s-37.834-5.5-51.501-16.5-21.167-25.833-22.5-44.5H185c2.667 52 23 93.333 61 124z"/><glyph glyph-name="uni0217" unicode="ȗ" horiz-adv-x="698" d="M648 547V.001H433v52c-20-20.667-43.333-36.167-70-46.5s-55-15.5-85-15.5c-69.333 0-125 21.167-167 63.5S48 159.667 48 245v302h226V284c0-37.333 6-64 18-80s29.667-24 53-24c22 0 40.333 8.833 55 26.5s22 45.5 22 83.5v257h226zM200 731.001c38 30.667 87.335 46 148.002 46s110-15.333 148-46 58.333-72 61-124h-135c-1.333 18.667-8.833 33.5-22.5 44.5s-30.834 16.5-51.501 16.5-37.834-5.5-51.501-16.5-21.167-25.833-22.5-44.5H139c2.667 52 23 93.333 61 124z"/><glyph glyph-name="Scommaaccent" unicode="Ș" horiz-adv-x="657" d="M148.5 3.5c-55 13-100.165 30.499-135.498 52.499l76 172c33.333-19.333 70.666-34.833 111.999-46.5s81-17.5 119-17.5c32.667 0 56 3.167 70 9.5s21 15.833 21 28.5c0 14.667-9.167 25.667-27.5 33s-48.5 15.333-90.5 24c-54 11.333-99 23.5-135 36.5s-67.333 34.333-94 64-40 69.834-40 120.501c0 44 12.333 84 37 120s61.5 64.333 110.5 85 108.5 31 178.5 31c48 0 95.167-5.167 141.5-15.5S578.667 675 614 655l-71-171c-68.667 34.667-133.667 52-195 52-60.667 0-91-14.667-91-44 0-14 9-24.5 27-31.5s47.667-14.5 89-22.5c53.333-10 98.333-21.5 135-34.5s68.5-34.167 95.5-63.5S644 270.667 644 220c0-44-12.333-83.833-37-119.5s-61.5-64-110.5-85S388-16 318-16c-58 0-114.5 6.5-169.5 19.5zm246.502-74.001c16-13.667 24-31.833 24-54.5 0-24.667-8.333-51.334-25-80.001l-39-65h-99l26 79c-28.667 10.667-43 32.667-43 66 0 22.667 8 40.834 24 54.501s38 20.5 66 20.5 50-6.833 66-20.5z"/><glyph glyph-name="scommaaccent" unicode="ș" horiz-adv-x="565" d="M126 5C80.667 15 44.002 28.004 16.002 44.004l62 149c25.333-15.333 55.333-27.333 90-36s68.334-13 101.001-13c26 0 44.167 2.167 54.5 6.5s15.5 10.833 15.5 19.5-6.5 14.667-19.5 18-34.167 6.666-63.5 9.999c-44.667 5.333-82.667 12.166-114 20.499s-58.833 24.5-82.5 48.5-35.5 58.333-35.5 103c0 35.333 10.667 67 32 95s53.166 50.333 95.499 67 93.166 25 152.499 25c41.333 0 81.833-3.833 121.5-11.5s73.5-18.834 101.5-33.501l-62-149c-48 26.667-100.667 40-158 40-49.333 0-74-8.667-74-26 0-8.667 6.667-14.834 20-18.501s34.333-7.167 63-10.5c44.667-5.333 82.5-12.333 113.5-21s58.333-25 82-49 35.5-58.333 35.5-103c0-34-10.667-65-32-93s-53.333-50.333-96-67S324.667-10 264-10c-46.667 0-92.667 5-138 15zm216.002-75.496c16-13.667 24-31.833 24-54.5 0-24.667-8.333-51.334-25-80.001l-39-65h-99l26 79c-28.667 10.667-43 32.667-43 66 0 22.667 8 40.834 24 54.5s38 20.5 66 20.5 50-6.832 66-20.5z"/><glyph glyph-name="uni021A" unicode="Ț" horiz-adv-x="654" d="M209 517H4v183h646V517H445V0H209v517zM393-70.5c16-13.667 24-31.833 24-54.5 0-24.667-8.333-51.334-25-80.001l-39-65h-99l26 79c-28.667 10.667-43 32.667-43 66 0 22.667 8 40.834 24 54.501S299-50 327-50s50-6.833 66-20.5z"/><glyph glyph-name="uni021B" unicode="ț" horiz-adv-x="460" d="M453 19C419-.333 372.667-10 314-10c-76.667 0-135.667 18.5-177 55.5S75 138 75 212v140H0v165h75v153h226V517h112V352H301V214c0-16.667 4.333-29.667 13-39s20-14 34-14c19.333 0 36.333 5 51 15zM340-70.5c16-13.667 24-31.833 24-54.5 0-24.667-8.333-51.334-25-80.001l-39-65h-99l26 79c-28.667 10.667-43 32.667-43 66 0 22.667 8 40.834 24 54.501S246-50 274-50s50-6.833 66-20.5z"/><glyph glyph-name="uni021E" unicode="Ȟ" horiz-adv-x="804" d="M747 700V0H511v258H293V0H57v700h236V452h218v248h236zM626 917L498 757H306L178 917h140l84-77 84 77h140z"/><glyph glyph-name="uni021F" unicode="ȟ" horiz-adv-x="702" d="M592.5 496c41-40.667 61.5-102 61.5-184V0H428v273c0 62.667-22.333 94-67 94-25.333 0-45.833-8.833-61.5-26.5S276 295 276 257V0H50v742h226V503c42 36 93.333 54 154 54 67.333 0 121.5-20.333 162.5-61zM387 962L259 802H67L-61 962H79l84-77 84 77h140z"/><glyph glyph-name="uni022A" unicode="Ȫ" horiz-adv-x="848" d="M221 31c-60 31.333-107 74.833-141 130.5S29 280 29 350s17 132.833 51 188.5 81 99.167 141 130.5 127.667 47 203 47 143-15.667 203-47 107-74.833 141-130.5S819 420 819 350s-17-132.833-51-188.5S687 62.333 627 31 499.333-16 424-16 281-.333 221 31zm282.5 165.5c23.667 14.333 42.5 34.666 56.5 60.999s21 57.166 21 92.499-7 66.166-21 92.499-32.833 46.666-56.5 60.999-50.167 21.5-79.5 21.5-55.833-7.167-79.5-21.5S302 468.83 288 442.497s-21-57.166-21-92.499 7-66.166 21-92.499 32.833-46.666 56.5-60.999S394.667 175 424 175s55.833 7.167 79.5 21.5zM257 772c-16 15.333-24 35.333-24 60s8.167 44.834 24.5 60.501 36.5 23.5 60.5 23.5 44.167-7.833 60.5-23.5S403 856.667 403 832s-8-44.667-24-60-36.333-23-61-23-45 7.667-61 23zm212 0c-16 15.333-24 35.333-24 60s8.167 44.834 24.5 60.501 36.5 23.5 60.5 23.5 44.167-7.833 60.5-23.5S615 856.667 615 832s-8-44.667-24-60-36.333-23-61-23-45 7.667-61 23zm-255 289h420V949H214v112z"/><glyph glyph-name="uni022B" unicode="ȫ" horiz-adv-x="678" d="M175.5 26.5c-48.333 24.333-86.166 58-113.499 101s-41 91.833-41 146.5 13.667 103.5 41 146.5S127.167 497 175.5 521s102.833 36 163.5 36c61.333 0 116.166-12 164.499-36s86-57.5 113-100.5 40.5-91.833 40.5-146.5-13.5-103.5-40.5-146.5-64.667-76.667-113-101S400.333-10 339-10c-60.667 0-115.167 12.167-163.5 36.5zm227.5 168c16.667 19 25 45.5 25 79.5s-8.333 60.333-25 79-38 28-64 28-47.333-9.333-64-28-25-45-25-79 8.333-60.5 25-79.5 38-28.5 64-28.5 47.333 9.5 64 28.5zM169 622c-16 15.333-24 35.333-24 60s8.167 44.834 24.5 60.501 36.5 23.5 60.5 23.5 44.167-7.833 60.5-23.5S315 706.667 315 682s-8-44.667-24-60-36.333-23-61-23-45 7.667-61 23zm212 0c-16 15.333-24 35.333-24 60s8.167 44.834 24.5 60.501 36.5 23.5 60.5 23.5 44.167-7.833 60.5-23.5S527 706.667 527 682s-8-44.667-24-60-36.333-23-61-23-45 7.667-61 23zM126 911h420V799H126v112z"/><glyph glyph-name="uni022C" unicode="Ȭ" horiz-adv-x="848" d="M221 31c-60 31.333-107 74.833-141 130.5S29 280 29 350s17 132.833 51 188.5 81 99.167 141 130.5 127.667 47 203 47 143-15.667 203-47 107-74.833 141-130.5S819 420 819 350s-17-132.833-51-188.5S687 62.333 627 31 499.333-16 424-16 281-.333 221 31zm282.5 165.5c23.667 14.333 42.5 34.666 56.5 60.999s21 57.166 21 92.499-7 66.166-21 92.499-32.833 46.666-56.5 60.999-50.167 21.5-79.5 21.5-55.833-7.167-79.5-21.5S302 468.83 288 442.497s-21-57.166-21-92.499 7-66.166 21-92.499 32.833-46.666 56.5-60.999S394.667 175 424 175s55.833 7.167 79.5 21.5zM448 756c-15.333 6-31.33 14.333-47.997 25-7.333 4.667-14.333 8.5-21 11.5s-12.334 4.5-17.001 4.5c-11.333 0-20.833-3.833-28.5-11.5s-12.167-17.5-13.5-29.5h-110c0 47.333 12.167 84 36.5 110S304.668 905 348 905c19.333 0 36.5-3 51.5-9s31.167-14 48.5-24c7.333-4.667 14.666-8.667 21.999-12s13.333-5 18-5c12 0 21.833 4 29.5 12s12.167 17.667 13.5 29h107c0-46.667-11.833-83.167-35.5-109.5s-57.833-39.5-102.5-39.5c-19.333 0-36.666 3-52 9zm-233.997 305h420V949h-420v112z"/><glyph glyph-name="uni022D" unicode="ȭ" horiz-adv-x="678" d="M175.5 26.5c-48.333 24.333-86.166 58-113.499 101s-41 91.833-41 146.5 13.667 103.5 41 146.5S127.167 497 175.5 521s102.833 36 163.5 36c61.333 0 116.166-12 164.499-36s86-57.5 113-100.5 40.5-91.833 40.5-146.5-13.5-103.5-40.5-146.5-64.667-76.667-113-101S400.333-10 339-10c-60.667 0-115.167 12.167-163.5 36.5zm227.5 168c16.667 19 25 45.5 25 79.5s-8.333 60.333-25 79-38 28-64 28-47.333-9.333-64-28-25-45-25-79 8.333-60.5 25-79.5 38-28.5 64-28.5 47.333 9.5 64 28.5zM360 606c-15.333 6-31.33 14.333-47.997 25-7.333 4.667-14.333 8.5-21 11.5s-12.334 4.5-17.001 4.5c-11.333 0-20.833-3.833-28.5-11.5s-12.167-17.5-13.5-29.5h-110c0 47.333 12.167 84 36.5 110S216.668 755 260 755c19.333 0 36.5-3 51.5-9s31.167-14 48.5-24c7.333-4.667 14.666-8.667 21.999-12s13.333-5 18-5c12 0 21.833 4 29.5 12s12.167 17.667 13.5 29h107c0-46.667-11.833-83.167-35.5-109.5s-57.833-39.5-102.5-39.5c-19.333 0-36.666 3-52 9zM126.003 911h420V799h-420v112z"/><glyph glyph-name="uni0230" unicode="Ȱ" horiz-adv-x="848" d="M221 31c-60 31.333-107 74.833-141 130.5S29 280 29 350s17 132.833 51 188.5 81 99.167 141 130.5 127.667 47 203 47 143-15.667 203-47 107-74.833 141-130.5S819 420 819 350s-17-132.833-51-188.5S687 62.333 627 31 499.333-16 424-16 281-.333 221 31zm282.5 165.5c23.667 14.333 42.5 34.666 56.5 60.999s21 57.166 21 92.499-7 66.166-21 92.499-32.833 46.666-56.5 60.999-50.167 21.5-79.5 21.5-55.833-7.167-79.5-21.5S302 468.83 288 442.497s-21-57.166-21-92.499 7-66.166 21-92.499 32.833-46.666 56.5-60.999S394.667 175 424 175s55.833 7.167 79.5 21.5zM359.5 771c-17 16-25.5 37-25.5 63s8.5 47.333 25.5 64 38.5 25 64.5 25 47.5-8.333 64.5-25 25.5-38 25.5-64-8.5-47-25.5-63-38.5-24-64.5-24-47.5 8-64.5 24zM214 1071h420V959H214v112z"/><glyph glyph-name="uni0231" unicode="ȱ" horiz-adv-x="678" d="M175.5 26.5c-48.333 24.333-86.166 58-113.499 101s-41 91.833-41 146.5 13.667 103.5 41 146.5S127.167 497 175.5 521s102.833 36 163.5 36c61.333 0 116.166-12 164.499-36s86-57.5 113-100.5 40.5-91.833 40.5-146.5-13.5-103.5-40.5-146.5-64.667-76.667-113-101S400.333-10 339-10c-60.667 0-115.167 12.167-163.5 36.5zm227.5 168c16.667 19 25 45.5 25 79.5s-8.333 60.333-25 79-38 28-64 28-47.333-9.333-64-28-25-45-25-79 8.333-60.5 25-79.5 38-28.5 64-28.5 47.333 9.5 64 28.5zM271.5 621c-17 16-25.5 37-25.5 63s8.5 47.333 25.5 64 38.5 25 64.5 25 47.5-8.333 64.5-25 25.5-38 25.5-64-8.5-47-25.5-63-38.5-24-64.5-24-47.5 8-64.5 24zM126 921h420V809H126v112z"/><glyph glyph-name="uni0232" unicode="Ȳ" horiz-adv-x="710" d="M473 254V0H237v257L-27 700h249l143-242 144 242h228zM145 896h420V778H145v118z"/><glyph glyph-name="uni0233" unicode="ȳ" horiz-adv-x="644" d="M659 547L434.002-11c-28.667-71.333-64.334-121.333-107.001-150s-95-43-157-43c-30.667 0-61.5 4.5-92.5 13.5s-55.5 20.833-73.5 35.5l75 155c11.333-8.667 24.166-15.667 38.499-21s28.166-8 41.499-8c24.667 0 43.334 7.333 56.001 22L-15 547h232l113-293 115 293h214zM103.002 746h420V628h-420v118z"/><glyph glyph-name="uni0237" unicode="ȷ" horiz-adv-x="334" d="M-94-177l54 157.001c16-8.667 33-13 51-13 14 0 25.333 5.167 34 15.5S58 8.667 58 30v517h226V28c0-71.333-21.167-127.833-63.5-169.5S119.667-204 45-204c-58 0-104.333 9-139 27z"/><glyph glyph-name="uni0259" unicode="ə" horiz-adv-x="653" d="M24 326l379.999-.001c-8 20.667-21.333 36.5-40 47.5s-42 16.5-70 16.5c-24 0-44.167-3-60.5-9s-34.166-16.333-53.499-31l-118 119c53.333 58.667 133 88 239 88 66 0 124-12.167 174-36.5S563.667 462.333 591 419s41-92 41-146c0-54.667-13.5-103.5-40.5-146.5S527.5 50 480.5 26 380.667-10 322-10c-55.333 0-105.833 11-151.5 33s-82 54.333-109 97S21 213.667 21 273c0 3.333 1 21 3 53zm353.999-163.001c15.333 12.667 25.335 30.667 30.002 54h-176c4.667-22.667 14.667-40.5 30-53.5s34.666-19.5 57.999-19.5 42.666 6.333 57.999 19z"/><glyph glyph-name="uni0292" unicode="ʒ" horiz-adv-x="585" d="M527.5 178.5C556.5 141.5 571 97 571 45c0-44-11.333-84.833-34-122.5s-57.834-68.167-105.501-91.5-106.5-35-176.5-35c-48.667 0-97.167 5.833-145.5 17.5s-90.5 28.5-126.5 50.5l76 174c29.333-18.667 60.333-32.667 93-42S216.333-18 247-18c27.333 0 49.333 5.5 66 16.5S338 25 338 45c0 38.667-27.667 58-83 58h-93v145l107 121H15v178h518V402L402 255c54.667-14 96.5-39.5 125.5-76.5z"/><glyph glyph-name="uni02B9" unicode="ʹ" horiz-adv-x="254" d="M32 700h190l-15-300H47z"/><glyph glyph-name="uni02BA" unicode="ʺ" horiz-adv-x="489" d="M32 700h190l-15-300H47zm235 0h190l-15-300H282z"/><glyph glyph-name="uni02BB" unicode="ʻ" horiz-adv-x="304" d="M267 759.5c11.333-19 17.001-41.498 17.001-67.498 0-38.667-12.333-69.667-37-93s-56.334-35-95.001-35-70.334 11.667-95.001 35-37 54.333-37 93c0 17.333 2.333 34.666 7 51.999S42.333 787.667 59 823l70 149h140l-50-169c20.667-10 36.667-24.5 48-43.5z"/><glyph glyph-name="uni02BC" unicode="ʼ" horiz-adv-x="202" d="M28 700h145l-30-264H28v264z"/><glyph glyph-name="uni02BE" unicode="ʾ" horiz-adv-x="600" d="M300 670c15.333 0 28.166 5 38.499 15s15.5 23 15.5 39-5.167 29-15.5 39-23.166 15-38.499 15v80c26 0 49.667-6 71-18s38.166-28.167 50.499-48.5 18.5-42.833 18.5-67.5-6.167-47.167-18.5-67.5S392.333 620 371 608s-45-18-71-18v80z"/><glyph glyph-name="uni02BF" unicode="ʿ" horiz-adv-x="600" d="M229 608c-21.333 12-38.166 28.167-50.499 48.5s-18.5 42.833-18.5 67.5 6.167 47.167 18.5 67.5S207.667 828 229 840s45 18 71 18v-80c-15.333 0-28.166-5-38.499-15s-15.5-23-15.5-39 5.167-29 15.5-39 23.166-15 38.499-15v-80c-26 0-49.667 6-71 18z"/><glyph glyph-name="circumflex" unicode="ˆ" horiz-adv-x="600" d="M384 607l-84 77-84-77H76l128 160h192l128-160H384z"/><glyph glyph-name="caron" unicode="ˇ" horiz-adv-x="600" d="M524 767L396 607H204L76 767h140l84-77 84 77h140z"/><glyph glyph-name="uni02C8" unicode="ˈ" horiz-adv-x="202" d="M29 701h144V497H29v204z"/><glyph glyph-name="uni02C9" unicode="ˉ" horiz-adv-x="600" d="M90 746h420V628H90v118z"/><glyph glyph-name="uni02CA" unicode="ˊ" horiz-adv-x="600" d="M327 767h215L345 607H195z"/><glyph glyph-name="uni02CB" unicode="ˋ" horiz-adv-x="600" d="M58 767h215l132-160H255z"/><glyph glyph-name="uni02CC" unicode="ˌ" horiz-adv-x="206" d="M29-30h148v-204H29v204z"/><glyph glyph-name="breve" unicode="˘" horiz-adv-x="600" d="M152 643c-38 30.667-58.335 72-61.002 124h135c1.333-18.667 8.833-33.5 22.5-44.5s30.834-16.5 51.501-16.5 37.834 5.5 51.501 16.5 21.167 25.833 22.5 44.5h135c-2.667-52-23-93.333-61-124s-87.333-46-148-46-110 15.333-148 46z"/><glyph glyph-name="dotaccent" unicode="˙" horiz-adv-x="600" d="M218 629c-21.333 21.333-32 48.666-32 81.999s10.667 60.666 32 81.999 48.666 32 81.999 32 60.666-10.667 81.999-32 32-48.666 32-81.999-10.667-60.666-32-81.999-48.666-32-81.999-32-60.666 10.667-81.999 32z"/><glyph glyph-name="ring" unicode="˚" horiz-adv-x="600" d="M229 608c-21.333 12-38.166 28.167-50.499 48.5s-18.5 42.833-18.5 67.5 6.167 47.167 18.5 67.5S207.667 828 229 840s45 18 71 18 49.667-6 71-18 38.166-28.167 50.499-48.5 18.5-42.833 18.5-67.5-6.167-47.167-18.5-67.5S392.333 620 371 608s-45-18-71-18-49.667 6-71 18zm109.5 77c10.333 10 15.5 23 15.5 39s-5.167 29-15.5 39-23.166 15-38.499 15-28.166-5-38.499-15-15.5-23-15.5-39 5.167-29 15.5-39 23.166-15 38.499-15 28.166 5 38.499 15z"/><glyph glyph-name="ogonek" unicode="˛" horiz-adv-x="600" d="M96-207c-28 22-42 51.998-42 89.998 0 36.667 14.5 69.334 43.5 98.001S167.667 32.333 221 49l79-49c-42-18.667-71.5-35.5-88.5-50.5S186-81 186-97c0-12 4.5-21.833 13.5-29.5S221.667-138 239-138c19.333 0 39 4.667 59 14l27-93c-12-6.667-28.5-12.167-49.5-16.5S233.333-240 212-240c-49.333 0-88 11-116 33z"/><glyph glyph-name="tilde" unicode="˜" horiz-adv-x="600" d="M329 607c-15.333 6.667-31.333 15.667-48 27-11.333 7.333-20.5 12.833-27.5 16.5S239.667 656 233 656c-12.667 0-23-4.333-31-13s-12.667-20.667-14-36H81c1.333 53.333 14.166 95.5 38.499 126.5s57.5 46.5 99.5 46.5c19.333 0 36.666-3.333 51.999-10s31.333-15.667 48-27c11.333-8 20.5-13.667 27.5-17s13.833-5 20.5-5c12.667 0 23 4.167 31 12.5s12.667 19.5 14 33.5h107c-1.333-51.333-14.166-92.5-38.499-123.5s-57.5-46.5-99.5-46.5c-19.333 0-36.666 3.333-51.999 10z"/><glyph glyph-name="hungarumlaut" unicode="˝" horiz-adv-x="600" d="M160 767h195l-97-160H108zm234 0h195l-97-160H342z"/><glyph glyph-name="gravecomb" unicode="̀" d="M-542 767h215l132-160h-150z"/><glyph glyph-name="acutecomb" unicode="́" d="M-273 767h215l-197-160h-150z"/><glyph glyph-name="uni0302" unicode="̂" d="M-216 607l-84 77-84-77h-140l128 160h192l128-160h-140z"/><glyph glyph-name="tildecomb" unicode="̃" d="M-271 607c-15.333 6.667-31.333 15.667-48 27-11.333 7.333-20.5 12.833-27.5 16.5s-13.833 5.5-20.5 5.5c-12.667 0-23-4.333-31-13s-12.667-20.667-14-36h-107c1.333 53.333 14.166 95.5 38.499 126.5s57.5 46.5 99.5 46.5c19.333 0 36.666-3.333 51.999-10s31.333-15.667 48-27c11.333-8 20.5-13.667 27.5-17s13.833-5 20.5-5c12.667 0 23 4.167 31 12.5s12.667 19.5 14 33.5h107c-1.333-51.333-14.166-92.5-38.499-123.5s-57.5-46.5-99.5-46.5c-19.333 0-36.666 3.333-51.999 10z"/><glyph glyph-name="uni0304" unicode="̄" d="M-510 746h420V628h-420v118z"/><glyph glyph-name="uni0306" unicode="̆" d="M-448 643c-38 30.667-58.335 72-61.002 124h135c1.333-18.667 8.833-33.5 22.5-44.5s30.834-16.5 51.501-16.5 37.834 5.5 51.501 16.5 21.167 25.833 22.5 44.5h135c-2.667-52-23-93.333-61-124s-87.333-46-148-46-110 15.333-148 46z"/><glyph glyph-name="uni0307" unicode="̇" d="M-382 629c-21.333 21.333-32 48.666-32 81.999s10.667 60.666 32 81.999 48.666 32 81.999 32 60.666-10.667 81.999-32 32-48.666 32-81.999-10.667-60.666-32-81.999-48.666-32-81.999-32-60.666 10.667-81.999 32z"/><glyph glyph-name="uni0308" unicode="̈" d="M-475.5 623.5c-17 16.333-25.5 37.5-25.5 63.5s8.5 47.333 25.5 64 38.5 25 64.5 25 47.5-8.333 64.5-25 25.5-38 25.5-64-8.5-47.167-25.5-63.5S-385 599-411 599s-47.5 8.167-64.5 24.5zm222 0c-17 16.333-25.5 37.5-25.5 63.5s8.5 47.333 25.5 64 38.5 25 64.5 25 47.5-8.333 64.5-25S-99 713-99 687s-8.5-47.167-25.5-63.5S-163 599-189 599s-47.5 8.167-64.5 24.5z"/><glyph glyph-name="hookabovecomb" unicode="̉" d="M-325 662c17.333 8 29.334 16.5 36.001 25.5s10 18.5 10 28.5c0 12-3.833 21.333-11.5 28s-17.834 10-30.501 10c-18.667 0-37.667-6.667-57-20l-46 84c34.667 26.667 77.667 40 129 40 42 0 76-11.333 102-34s39-52.334 39-89.001c0-32-8.667-59.167-26-81.5s-43-41.166-77-56.499z"/><glyph glyph-name="uni030A" unicode="̊" d="M-371 608c-21.333 12-38.166 28.167-50.499 48.5s-18.5 42.833-18.5 67.5 6.167 47.167 18.5 67.5S-392.333 828-371 840s45 18 71 18 49.667-6 71-18 38.166-28.167 50.499-48.5 18.5-42.833 18.5-67.5-6.167-47.167-18.5-67.5S-207.667 620-229 608s-45-18-71-18-49.667 6-71 18zm109.5 77c10.333 10 15.5 23 15.5 39s-5.167 29-15.5 39-23.166 15-38.499 15-28.166-5-38.499-15-15.5-23-15.5-39 5.167-29 15.5-39 23.166-15 38.499-15 28.166 5 38.499 15z"/><glyph glyph-name="uni030B" unicode="̋" d="M-440 767h195l-97-160h-150zm234 0h195l-97-160h-150z"/><glyph glyph-name="uni030C" unicode="̌" d="M-76 767l-128-160h-192l-128 160h140l84-77 84 77h140z"/><glyph glyph-name="uni030F" unicode="̏" d="M-589 767h195l52-160h-150zm234 0h195l52-160h-150z"/><glyph glyph-name="uni0311" unicode="̑" d="M-448 731c38 30.667 87.335 46 148.002 46s110-15.333 148-46 58.333-72 61-124h-135c-1.333 18.667-8.833 33.5-22.5 44.5s-30.834 16.5-51.501 16.5-37.834-5.5-51.501-16.5-21.167-25.833-22.5-44.5h-135c2.667 52 23 93.333 61 124z"/><glyph glyph-name="uni0312" unicode="̒" d="M-193 672c0-23.333-9-41.665-27-54.998s-44.667-20-80-20-62 6.667-80 20-27 31.666-27 54.999c0 21.333 10 48 30 80l54 85h118l-39-100c34-10.667 51-32.334 51-65.001z"/><glyph glyph-name="uni031B" unicode="̛" d="M-330 547h40.001c14.667 0 27.5 5.667 38.5 17s16.5 26 16.5 44c0 22.667-6.667 41.667-20 57l128 45c24.667-31.333 37-68.333 37-111 0-60.667-18.333-107.5-55-140.5S-233.333 409-300 409h-30v138z"/><glyph glyph-name="dotbelowcomb" unicode="̣" d="M-364.5-202c-17 16-25.5 37-25.5 63s8.5 47.333 25.5 64S-326-50-300-50s47.5-8.333 64.5-25 25.5-38 25.5-64-8.5-47-25.5-63-38.5-24-64.5-24-47.5 8-64.5 24z"/><glyph glyph-name="uni0324" unicode="̤" d="M-467-194c-16 15.333-24 35.333-24 60s8.167 44.834 24.5 60.501 36.5 23.5 60.5 23.5 44.167-7.833 60.5-23.5S-321-109.333-321-134s-8-44.667-24-60-36.333-23-61-23-45 7.667-61 23zm212 0c-16 15.333-24 35.333-24 60s8.167 44.834 24.5 60.501 36.5 23.5 60.5 23.5 44.167-7.833 60.5-23.5S-109-109.333-109-134s-8-44.667-24-60-36.333-23-61-23-45 7.667-61 23z"/><glyph glyph-name="uni0326" unicode="̦" d="M-234-70.5c16-13.667 24-31.833 24-54.5 0-24.667-8.333-51.334-25-80.001l-39-65h-99l26 79c-28.667 10.667-43 32.667-43 66 0 22.667 8 40.834 24 54.501S-328-50-300-50s50-6.833 66-20.5z"/><glyph glyph-name="uni0327" unicode="̧" d="M-395-234c-18.667 4-33.333 8.999-44 14.999l28 83c20-8 40-12 60-12 32 0 48 8 48 24 0 13.333-13.667 20-41 20h-41l27 114h116l-14-62c29.333-4 50.833-13.5 64.5-28.5s20.5-32.167 20.5-51.5c0-33.333-15.5-59.666-46.5-78.999s-72.167-29-123.5-29c-17.333 0-35.333 2-54 6z"/><glyph glyph-name="uni0328" unicode="̨" d="M-504-207c-28 22-42 51.998-42 89.998 0 36.667 14.5 69.334 43.5 98.001S-432.333 32.333-379 49l79-49c-42-18.667-71.5-35.5-88.5-50.5S-414-81-414-97c0-12 4.5-21.833 13.5-29.5S-378.333-138-361-138c19.333 0 39 4.667 59 14l27-93c-12-6.667-28.5-12.167-49.5-16.5s-42.167-6.5-63.5-6.5c-49.333 0-88 11-116 33z"/><glyph glyph-name="uni032E" unicode="̮" d="M-447-181.5c-38 29-58.667 67.167-62 114.5h127c2-17.333 10.5-31.166 25.5-41.499s33.833-15.5 56.5-15.5 41.5 5.167 56.5 15.5S-220-84.333-218-67h127c-3.333-47.333-24-85.5-62-114.5S-240-225-300-225s-109 14.5-147 43.5z"/><glyph glyph-name="uni0331" unicode="̱" d="M-510-74h420v-118h-420v118z"/><glyph glyph-name="uni0335" unicode="̵" d="M-514 488h428V378h-428v110z"/><glyph glyph-name="uni0336" unicode="̶" d="M-931 500h862V364h-862v136z"/><glyph glyph-name="uni0337" unicode="̷" d="M-531 305l392 290 70-100-392-290z"/><glyph glyph-name="uni0338" unicode="̸" d="M-148 610h95L-494-70h-95z"/><glyph glyph-name="uni0394" unicode="Δ" horiz-adv-x="806" d="M825 0H-19l306 700h232zM278 183h246L401 485z"/><glyph glyph-name="uni03A9" unicode="Ω" horiz-adv-x="878" d="M8 183l120 .001c-24.667 26-44.167 57-58.5 93s-21.5 75.333-21.5 118c0 62 17 117.5 51 166.5s80.833 87.167 140.5 114.5 126.167 41 199.5 41 139.833-13.667 199.5-41S745 609.335 779 560.002s51-105 51-167c0-42-7.167-81-21.5-117s-33.833-67-58.5-93h120v-183H480v170c36 19.333 64.333 45.666 85 78.999S596 319.667 596 361c0 51.333-14.833 91.5-44.5 120.5S484.333 525 439 525s-82.833-14.5-112.5-43.5S282 412.333 282 361c0-41.333 10.333-79 31-113s49-60 85-78V0H8v183z"/><glyph glyph-name="uni03BC" unicode="μ" horiz-adv-x="700" d="M650 547V0H455v51c-14-20.667-31-36-51-46s-41.333-15-64-15-44 4.667-64 14v-198H50v741h226V284c0-37.333 6-64 18-80s29.667-24 53-24c22 0 40.333 8.833 55 26.5s22 45.5 22 83.5v257h226z"/><glyph glyph-name="pi" unicode="π" horiz-adv-x="733" d="M720 391H614.002V0h-185v391h-37l-40-391h-185l40 391h-13c-12.667 0-22.834-3.833-30.501-11.5s-11.5-17.5-11.5-29.5c0-7.333 1.667-16.833 5-28.5s7.666-22.834 12.999-33.501l-154-52c-11.333 23.333-20.5 48.833-27.5 76.5S-22 365.333-22 388c0 30.667 8 58 24 82s38 42.833 66 56.5 60 20.5 96 20.5h556V391z"/><glyph glyph-name="uni0400" unicode="Ѐ" horiz-adv-x="678" d="M644 178V0H62v700h569V522H294v-82h296V270H294v-92h350zM105 917h215l132-160H302z"/><glyph glyph-name="uni0401" unicode="Ё" horiz-adv-x="678" d="M644 178V0H62v700h569V522H294v-82h296V270H294v-92h350zM171.5 773.5C154.5 789.833 146 811 146 837s8.5 47.333 25.5 64 38.5 25 64.5 25 47.5-8.333 64.5-25 25.5-38 25.5-64-8.5-47.167-25.5-63.5S262 749 236 749s-47.5 8.167-64.5 24.5zm222 0C376.5 789.833 368 811 368 837s8.5 47.333 25.5 64 38.5 25 64.5 25 47.5-8.333 64.5-25 25.5-38 25.5-64-8.5-47.167-25.5-63.5S484 749 458 749s-47.5 8.167-64.5 24.5z"/><glyph glyph-name="uni0402" unicode="Ђ" horiz-adv-x="868" d="M591 447c84 0 147.998-20.5 191.998-61.5s66-98.167 66-171.5c0-75.333-23.667-131.333-71-168S669.332-9 593.999-9c-28.667 0-56.667 2.333-84 7l22 175c6.667-3.333 16.334-5 29.001-5 14.667 0 27.667 3.333 39 10s17 17.667 17 33-7.5 28-22.5 38-34.833 15-59.5 15c-26 0-53.333-5.667-82-17V0H221v517H16v183h678V517H453v-86c49.333 10.667 95.333 16 138 16z"/><glyph glyph-name="uni0403" unicode="Ѓ" horiz-adv-x="611" d="M595 517H294V0H62v700h533V517zM345 917h215L363 757H213z"/><glyph glyph-name="uni0404" unicode="Є" horiz-adv-x="723" d="M206 30.5c-56.667 31-100.998 74.331-132.998 129.998s-48 118.834-48 189.501 16 133.834 48 189.501 76.333 99 133 130S327.336 716 400.003 716c68 0 128.667-12 182-36s97.333-58.667 132-104l-149-133c-43.333 54.667-94.333 82-153 82-32.667 0-60.5-8-83.5-24s-40.167-38.667-51.5-68h218V263h-217c11.333-28 28.666-49.667 51.999-65s50.666-23 81.999-23c58.667 0 109.667 27.333 153 82l149-133c-34.667-45.333-78.667-80-132-104s-114-36-182-36C327.334-16 262.667-.5 206 30.5z"/><glyph glyph-name="uni0405" unicode="Ѕ" horiz-adv-x="672" d="M157.5 3.5c-55 13-100.165 30.499-135.498 52.499l76 172c33.333-19.333 70.666-34.833 111.999-46.5s81-17.5 119-17.5c32.667 0 56 3.167 70 9.5s21 15.833 21 28.5c0 14.667-9.167 25.667-27.5 33s-48.5 15.333-90.5 24c-54 11.333-99 23.5-135 36.5s-67.333 34.333-94 64-40 69.834-40 120.501c0 44 12.333 84 37 120s61.5 64.333 110.5 85 108.5 31 178.5 31c48 0 95.167-5.167 141.5-15.5S587.667 675 623 655l-71-171c-68.667 34.667-133.667 52-195 52-60.667 0-91-14.667-91-44 0-14 9-24.5 27-31.5s47.667-14.5 89-22.5c53.333-10 98.333-21.5 135-34.5s68.5-34.167 95.5-63.5S653 270.667 653 220c0-44-12.333-83.833-37-119.5s-61.5-64-110.5-85S397-16 327-16c-58 0-114.5 6.5-169.5 19.5z"/><glyph glyph-name="uni0406" unicode="І" horiz-adv-x="356" d="M62 700h232V0H62v700z"/><glyph glyph-name="uni0407" unicode="Ї" horiz-adv-x="350" d="M57 700h236V0H57v700zM-.5 773.5C-17.5 789.833-26 811-26 837s8.5 47.333 25.5 64S38 926 64 926s47.5-8.333 64.5-25 25.5-38 25.5-64-8.5-47.167-25.5-63.5S90 749 64 749s-47.5 8.167-64.5 24.5zm222 0C204.5 789.833 196 811 196 837s8.5 47.333 25.5 64 38.5 25 64.5 25 47.5-8.333 64.5-25 25.5-38 25.5-64-8.5-47.167-25.5-63.5S312 749 286 749s-47.5 8.167-64.5 24.5z"/><glyph glyph-name="uni0408" unicode="Ј" horiz-adv-x="601" d="M112.5 10.5C68.167 28.167 31.667 53.998 3 87.998l127 150c18.667-23.333 37-40.666 55-51.999s36.667-17 56-17c24.667 0 43.5 7.333 56.5 22S317 227.333 317 256v266H79v178h471V270c0-95.333-24.5-166.833-73.5-214.5S355.667-16 261-16c-54.667 0-104.167 8.833-148.5 26.5z"/><glyph glyph-name="uni0409" unicode="Љ" horiz-adv-x="1182" d="M745 700l-.003-700h-232v517h-160l-2-81c-2.667-100-10.667-182-24-246S290.331 76.167 256.998 40.5s-81-53.5-143-53.5C82.665-13 49.332-8.667 14 0l12 189c8.667-2 17.334-3 26.001-3 24.667 0 43.5 10 56.5 30s21.833 46.667 26.5 80 8 77 10 131l9 273h591zm347-273.5c47.333-39 71.001-96.5 71.001-172.5 0-82-27-144.833-81-188.5s-128-65.5-222-65.5h-347v700h232V485h145c87.333 0 154.666-19.5 201.999-58.5zm-189.002-239c15.333 15 23 35.833 23 62.5 0 46.667-27.333 70-82 70h-99V165h99c24 0 43.667 7.5 59 22.5z"/><glyph glyph-name="uni040A" unicode="Њ" horiz-adv-x="1160" d="M1074 404.5c45.333-39 68-94.167 68-165.5 0-75.333-24.833-134-74.5-176S949.333 0 862 0H507v272H294V0H62v700h232V455h213v245h232V463h143c82.667 0 146.667-19.5 192-58.5zM885.5 182c13 11.333 19.5 28 19.5 50s-6.333 38.5-19 49.5-30.667 16.5-54 16.5h-93V165h93c22.667 0 40.5 5.667 53.5 17z"/><glyph glyph-name="uni040B" unicode="Ћ" horiz-adv-x="874" d="M779.5 363c46.333-45.333 69.501-113.332 69.501-203.999v-159h-232v130c0 37.333-7.833 65.166-23.5 83.499s-37.167 27.5-64.5 27.5c-24.667 0-50-6.333-76-19V0h-232v517h-205v183h667V517h-230V415c51.333 10.667 95.666 16 132.999 16 82.667 0 147.167-22.667 193.5-68z"/><glyph glyph-name="uni040C" unicode="Ќ" horiz-adv-x="765" d="M551 360L758 0H492L358 253h-66V0H56v700h236V439h72l149 261h246zM421 917h215L439 757H289z"/><glyph glyph-name="uni040D" unicode="Ѝ" horiz-adv-x="819" d="M62 700h232V336l241 364h222V0H525v363L285 0H62v700zm106 217h215l132-160H365z"/><glyph glyph-name="uni040E" unicode="Ў" horiz-adv-x="764" d="M762 700L481.001 173.001C447.668 110.334 406.835 62.667 358.502 30s-101.5-49-159.5-49c-44.667 0-90 9.333-136 28l55 170c29.333-8 53.333-12 72-12 17.333 0 32.166 3 44.499 9s24.166 16 35.499 30L2 700h249l139-295 144 295h228zm-547.999 83.001c-34 28.667-51.001 71.667-51.001 129h157c0-22.667 4.5-39 13.5-49s24.833-15 47.5-15 38.834 5 48.501 15 14.5 26.333 14.5 49h157c0-57.333-17.333-100.333-52-129s-90.667-43-168-43-133 14.333-167 43z"/><glyph glyph-name="uni040F" unicode="Џ" horiz-adv-x="810" d="M748 0H513v-137H297V0H62v700h232V183h222v517h232V0z"/><glyph glyph-name="uni0410" unicode="А" horiz-adv-x="850" d="M556 122H290L243 0H3l306 700h232L847 0H603zm-65 170l-68 176-68-176h136z"/><glyph glyph-name="uni0411" unicode="Б" horiz-adv-x="745" d="M62 700h607V522H294v-81h167c85.333 0 150.833-18.167 196.5-54.5S726 297.667 726 229c0-71.333-26-127.333-78-168S523.667 0 431 0H62v700zm353-535c23.333 0 41.5 5 54.5 15s19.5 24.333 19.5 43c0 36-24.667 54-74 54H294V165h121z"/><glyph glyph-name="uni0412" unicode="В" horiz-adv-x="743" d="M690 304.5c20.667-27.667 31.001-61.501 31.001-101.501 0-62.667-24.833-112.167-74.5-148.5S526.667-.001 436-.001H62v700h355c86.667 0 153.834-16 201.501-48s71.5-77 71.5-135c0-33.333-7.833-62.666-23.5-87.999S628.667 383 600 367c39.333-14 69.333-34.833 90-62.5zM294.001 430.999h100c38.667 0 58 17 58 51 0 35.333-19.333 53-58 53h-100v-104zm189-210c0 36-19.333 54-58 54h-131v-110h131c38.667 0 58 18.667 58 56z"/><glyph glyph-name="uni0413" unicode="Г" horiz-adv-x="611" d="M595 517H294V0H62v700h533V517z"/><glyph glyph-name="uni0414" unicode="Д" horiz-adv-x="864" d="M847 183l-.002-320h-216V0h-398v-137h-216v320h20c40.667 0 69.334 25.667 86.001 77S150.333 387 155 487l8 213h592V183h92zM343.998 295.5c-8-47-20.333-84.5-37-112.5h216v334h-161l-2-50c-2.667-67.333-8-124.5-16-171.5z"/><glyph glyph-name="uni0415" unicode="Е" horiz-adv-x="678" d="M644 178V0H62v700h569V522H294v-82h296V270H294v-92h350z"/><glyph glyph-name="uni0416" unicode="Ж" horiz-adv-x="1140" d="M747 253h-61V0H456v253h-63L277 0H6l188 368L16 700h246l125-261h69v261h230V439h65l127 261h246L947 368 1134 0H863z"/><glyph glyph-name="uni0417" unicode="З" horiz-adv-x="672" d="M618.5 297c21-29.333 31.5-62.667 31.5-100 0-44-15.5-82.167-46.5-114.5s-72.667-57-125-74S368-17 304-17C202-17 105 3.333 13 44l69 163c32.667-13.333 66.667-23.5 102-30.5s68.666-10.5 99.999-10.5c38 0 68.833 5.333 92.5 16s35.5 26.334 35.5 47.001c0 28-23 42-69 42h-189v170h169c20 0 35.167 3.667 45.5 11s15.5 17.666 15.5 30.999c0 17.333-9.167 30.666-27.5 39.999s-42.5 14-72.5 14c-28 0-58.333-4-91-12s-63.667-19.333-93-34l-69 175c77.333 35.333 161.333 53 252 53 60.667 0 116.834-8.333 168.501-25s93-40.834 124-72.501S622 552.664 622 509.997c0-31.333-8-59.666-24-84.999s-38.333-45.666-67-60.999c37.333-15.333 66.5-37.666 87.5-66.999z"/><glyph glyph-name="uni0418" unicode="И" horiz-adv-x="819" d="M62 700h232V336l241 364h222V0H525v363L285 0H62v700z"/><glyph glyph-name="uni0419" unicode="Й" horiz-adv-x="819" d="M62 700h232V336l241 364h222V0H525v363L285 0H62v700zm180 83c-34 28.667-51.001 71.667-51.001 129h157c0-22.667 4.5-39 13.5-49s24.833-15 47.5-15 38.834 5 48.501 15 14.5 26.333 14.5 49h157c0-57.333-17.333-100.333-52-129s-90.667-43-168-43-133 14.333-167 43z"/><glyph glyph-name="uni041A" unicode="К" horiz-adv-x="765" d="M551 360L758 0H492L358 253h-66V0H56v700h236V439h72l149 261h246z"/><glyph glyph-name="uni041B" unicode="Л" horiz-adv-x="807" d="M745 700l-.003-700h-232v517h-160l-2-81c-2.667-100-10.667-182-24-246S290.331 76.167 256.998 40.5s-81-53.5-143-53.5C82.665-13 49.332-8.667 14 0l12 189c8.667-2 17.334-3 26.001-3 24.667 0 43.5 10 56.5 30s21.833 46.667 26.5 80 8 77 10 131l9 273h591z"/><glyph glyph-name="uni041C" unicode="М" horiz-adv-x="963" d="M687 0l-2 319L533 63H429L277 308V0H62v700h194l228-373 222 373h194l2-700H687z"/><glyph glyph-name="uni041D" unicode="Н" horiz-adv-x="814" d="M752 700V0H516v258H298V0H62v700h236V452h218v248h236z"/><glyph glyph-name="uni041E" unicode="О" horiz-adv-x="836" d="M215 31c-60 31.333-107 74.833-141 130.5S23 280 23 350s17 132.833 51 188.5 81 99.167 141 130.5 127.667 47 203 47 143-15.667 203-47 107-74.833 141-130.5S813 420 813 350s-17-132.833-51-188.5S681 62.333 621 31 493.333-16 418-16 275-.333 215 31zm282.5 165.5c23.667 14.333 42.5 34.666 56.5 60.999s21 57.166 21 92.499-7 66.166-21 92.499-32.833 46.666-56.5 60.999-50.167 21.5-79.5 21.5-55.833-7.167-79.5-21.5S296 468.83 282 442.497s-21-57.166-21-92.499 7-66.166 21-92.499 32.833-46.666 56.5-60.999S388.667 175 418 175s55.833 7.167 79.5 21.5z"/><glyph glyph-name="uni041F" unicode="П" horiz-adv-x="801" d="M739 700V0H507v517H294V0H62v700h677z"/><glyph glyph-name="uni0420" unicode="Р" horiz-adv-x="737" d="M568 668c48-21.333 85-52 111-92s39-86.667 39-140-13-100-39-140-63-70.667-111-92-104.333-32-169-32H298V0H62v700h337c64.667 0 121-10.667 169-32zM456 375.5c16 14.333 24 34.5 24 60.5s-8 46.167-24 60.5-40 21.5-72 21.5h-86V354h86c32 0 56 7.167 72 21.5z"/><glyph glyph-name="uni0421" unicode="С" horiz-adv-x="737" d="M214 30.5c-59.333 31-105.833 74.331-139.5 129.998S24 279.332 24 349.999 40.833 483.833 74.5 539.5s80.167 99 139.5 130S340 716 414 716c68 0 128.667-12 182-36s97.333-58.667 132-104L579 443c-43.333 54.667-94.333 82-153 82-49.333 0-89-15.833-119-47.5s-45-74.167-45-127.5 15-95.833 45-127.5S376.667 175 426 175c58.667 0 109.667 27.333 153 82l149-133c-34.667-45.333-78.667-80-132-104S482-16 414-16C340-16 273.333-.5 214 30.5z"/><glyph glyph-name="uni0422" unicode="Т" horiz-adv-x="674" d="M658 517H453V0H221v517H16v183h642V517z"/><glyph glyph-name="uni0423" unicode="У" horiz-adv-x="764" d="M762 700L481.001 173.001C447.668 110.334 406.835 62.667 358.502 30s-101.5-49-159.5-49c-44.667 0-90 9.333-136 28l55 170c29.333-8 53.333-12 72-12 17.333 0 32.166 3 44.499 9s24.166 16 35.499 30L2 700h249l139-295 144 295h228z"/><glyph glyph-name="uni0424" unicode="Ф" horiz-adv-x="980" d="M866 134.5c-61.333-53.667-150.667-84.499-268-92.499v-78H382v79c-118 10-207.5 41.333-268.5 94S22 261.668 22 353.001 52.5 516.167 113.5 568.5 264 652 382 662v73h216v-73c118-8.667 207.5-39.5 268.5-92.5S958 444.333 958 353c0-92-30.667-164.833-92-218.5zM698.999 266.501c20.667 20.333 30.999 49.5 30.999 87.5 0 37.333-10.5 66-31.5 86s-54.5 33.333-100.5 40v-254c46.667 6.667 80.334 20.167 101.001 40.5zm-416.501 1.5c21.667-20 54.832-33.666 99.499-40.999v252c-47.333-6.667-81.166-19.834-101.499-39.501s-30.5-48.5-30.5-86.5c0-36.667 10.833-65 32.5-85z"/><glyph glyph-name="uni0425" unicode="Х" horiz-adv-x="789" d="M288 701l102-165 102 165h273L538 367 786 0H508L390 181 274 0H3l246 356L18 701h270z"/><glyph glyph-name="uni0426" unicode="Ц" horiz-adv-x="857" d="M840 183v-320H624V0H62v700h232V183h222v517h232V183h92z"/><glyph glyph-name="uni0427" unicode="Ч" horiz-adv-x="765" d="M703 700l.002-700h-232v224c-46.667-14-89-21-127-21-102.667 0-180.834 24.333-234.501 73s-80.5 119.667-80.5 213v211h232V515c0-42.667 9.333-74.167 28-94.5s47-30.5 85-30.5c39.333 0 71.666 5.333 96.999 16v294h232z"/><glyph glyph-name="uni0428" unicode="Ш" horiz-adv-x="1101" d="M1039 700V0H62v700h232V183h141v517h232V183h140v517h232z"/><glyph glyph-name="uni0429" unicode="Щ" horiz-adv-x="1141" d="M1039 700V0H62v700h232V183h141v517h232V183h140v517h232zm85-517v-320H908V0H802v183h322z"/><glyph glyph-name="uni042A" unicode="Ъ" horiz-adv-x="865" d="M775 426.5c47.333-39 71.001-96.5 71.001-172.5 0-82-27-144.833-81-188.5s-128-65.5-222-65.5h-347v517h-180v183h412V485h145c87.333 0 154.666-19.5 201.999-58.5zm-188.999-239c15.333 15 23 35.833 23 62.5 0 46.667-27.333 70-82 70h-99V165h99c24 0 43.667 7.5 59 22.5z"/><glyph glyph-name="uni042B" unicode="Ы" horiz-adv-x="1070" d="M641 426.5c47.333-39 71.001-96.5 71.001-172.5 0-82-27-144.833-81-188.5s-128-65.5-222-65.5h-347v700h232V485h145c87.333 0 154.666-19.5 201.999-58.5zm-188.999-239c15.333 15 23 35.833 23 62.5 0 46.667-27.333 70-82 70h-99V165h99c24 0 43.667 7.5 59 22.5zm324 512.5h232V0h-232v700z"/><glyph glyph-name="uni042C" unicode="Ь" horiz-adv-x="731" d="M641 426.5c47.333-39 71.001-96.5 71.001-172.5 0-82-27-144.833-81-188.5s-128-65.5-222-65.5h-347v700h232V485h145c87.333 0 154.666-19.5 201.999-58.5zm-188.999-239c15.333 15 23 35.833 23 62.5 0 46.667-27.333 70-82 70h-99V165h99c24 0 43.667 7.5 59 22.5z"/><glyph glyph-name="uni042D" unicode="Э" horiz-adv-x="723" d="M517 669.5c56.667-31 100.998-74.331 132.998-129.998s48-118.834 48-189.501-16-133.834-48-189.501-76.333-99-133-130S395.664-16 322.997-16c-68 0-128.667 12-182 36s-97.333 58.667-132 104l149 133c43.333-54.667 94.333-82 153-82 32.667 0 60.5 8 83.5 24s40.167 38.667 51.5 68h-218v170h217c-11.333 28-28.666 49.667-51.999 65s-50.666 23-81.999 23c-58.667 0-109.667-27.333-153-82l-149 133c34.667 45.333 78.667 80 132 104s114 36 182 36c72.667 0 137.334-15.5 194.001-46.5z"/><glyph glyph-name="uni042E" unicode="Ю" horiz-adv-x="1133" d="M921 669c58.667-31.333 104.668-74.834 138.001-130.501s50-118.5 50-188.5-16.667-132.833-50-188.5-79.333-99.167-138-130.5-124.667-47-198-47c-62.667 0-120 11.5-172 34.5s-95.667 55.167-131 96.5-59.666 89-72.999 143h-53v-258h-232v700h232v-248h55c14.667 52.667 39.667 98.834 75 138.501S502.668 661 554.001 683 661.667 716 723 716c73.333 0 139.333-15.667 198-47zM798.001 196.499c22.667 14.333 40.5 34.666 53.5 60.999s19.5 57.166 19.5 92.499-6.5 66.166-19.5 92.499-30.833 46.666-53.5 60.999-47.667 21.5-75 21.5c-28 0-53.333-7.167-76-21.5s-40.5-34.666-53.5-60.999-19.5-57.166-19.5-92.499 6.5-66.166 19.5-92.499 30.833-46.666 53.5-60.999 48-21.5 76-21.5c27.333 0 52.333 7.167 75 21.5z"/><glyph glyph-name="uni042F" unicode="Я" horiz-adv-x="738" d="M676 700l-.001-700h-232v166h-63l-107-166h-247l138 200c-45.333 21.333-80.166 51.5-104.499 90.5S24 375.667 24 429c0 55.333 13.167 103.333 39.5 144s63.833 72 112.5 94 106 33 172 33h328zM261.999 433c0-59.333 30-89 90-89h92v174h-92c-60 0-90-28.333-90-85z"/><glyph glyph-name="uni0430" unicode="а" horiz-adv-x="621" d="M506 492.5c50.667-43 75.999-109.167 75.999-198.5V0h-210v72c-26-54.667-77.667-82-155-82-43.333 0-80.166 7.5-110.499 22.5s-53.333 35.333-69 61S14 128 14 160c0 54 20.667 95 62 123s104 42 188 42h91c-7.333 42.667-41.666 64-102.999 64-24.667 0-49.667-3.833-75-11.5s-47-18.167-65-31.5l-72 149c31.333 19.333 69.166 34.5 113.499 45.5S242 557 286 557c96 0 169.333-21.5 220-64.5zM327.999 139c12.667 8.667 21.999 21.667 27.999 39v38h-56c-46 0-69-15.333-69-46 0-12.667 4.833-23.167 14.5-31.5s22.834-12.5 39.501-12.5c16 0 30.333 4.333 43 13z"/><glyph glyph-name="uni0431" unicode="б" horiz-adv-x="686" d="M602 421c44.667-43.333 66.998-103.002 66.998-179.002 0-51.333-13.833-96.5-41.5-135.5s-65.5-69.167-113.5-90.5-101.667-32-161-32c-97.333 0-175.833 29-235.5 87s-89.5 147.333-89.5 268c0 227.333 101.333 359.333 304 396l272 49 30-185-230-41c-54-9.333-92.833-23.666-116.5-42.999s-38.167-47.666-43.5-84.999c46.667 37.333 103.334 56 170.001 56 80.667 0 143.334-21.667 188.001-65zM416.498 177.998c15 18 22.5 39.667 22.5 65 0 28-7.833 49.667-23.5 65s-36.5 23-62.5 23c-26.667 0-48-7.833-64-23.5s-24-37.5-24-65.5c0-26.667 8.167-48.5 24.5-65.5s37.5-25.5 63.5-25.5c27.333 0 48.5 9 63.5 27z"/><glyph glyph-name="uni0432" unicode="в" horiz-adv-x="629" d="M608 160c0-50-19.667-89.167-59-117.5S452 0 376 0H53v547h307c73.333 0 130.333-12.5 171-37.5s61-60.167 61-105.5c0-25.333-6.333-48-19-68s-31-36.333-55-49c60-22.667 90-65 90-127zM251 331h89c32.667 0 49 13 49 39 0 12.667-3.833 22-11.5 28s-20.167 9-37.5 9h-89v-76zm154-150c0 26-16.333 39-49 39H251v-80h105c32.667 0 49 13.667 49 41z"/><glyph glyph-name="uni0433" unicode="г" horiz-adv-x="543" d="M531 371H278V0H53v547h478V371z"/><glyph glyph-name="uni0434" unicode="д" horiz-adv-x="746" d="M733 177v-284.999H524v108H222v-108H13v285h16c32 0 54.333 15.167 67 45.5S116 296.667 118 354l7 193h535V177h73zm-420.5 60.501c-4.333-24.333-12.834-44.5-25.501-60.5h148v194h-113l-1-34c-1.333-42-4.166-75.167-8.499-99.5z"/><glyph glyph-name="uni0435" unicode="е" horiz-adv-x="656" d="M625 221l-379.999.001c8-20.667 21.333-36.5 40-47.5s42-16.5 70-16.5c24 0 44.167 3 60.5 9s34.166 16.333 53.499 31l118-119c-53.333-58.667-133-88-239-88-66 0-124 12.167-174 36.5S85.333 84.667 58 128s-41 92-41 146c0 54.667 13.5 103.5 40.5 146.5s64 76.5 111 100.5 99.833 36 158.5 36c55.333 0 105.833-11 151.5-33s82-54.333 109-97S628 333.333 628 274c0-3.333-1-21-3-53zM271.001 384.001c-15.333-12.667-25.335-30.667-30.002-54h176c-4.667 22.667-14.667 40.5-30 53.5s-34.666 19.5-57.999 19.5-42.666-6.333-57.999-19z"/><glyph glyph-name="uni0436" unicode="ж" horiz-adv-x="990" d="M641 182h-34V0H384v182h-36L265 0H-1l157 282L10 547h238l95-192h41v192h223V355h39l96 192h238L834 282 991 0H724z"/></font>
</defs>
</svg>
