<svg><defs><font id="Montserrat-Medium" horiz-adv-x="0"><font-face font-family="Montserrat Medium" font-weight="500" panose-1="0 0 6 0 0 0 0 0 0 0" ascent="800" descent="-200" x-height="530" cap-height="700" bbox="-840 -263.001 1613 1053" underline-thickness="50" underline-position="-50" unicode-range="U+000D-U+FB02"/><glyph glyph-name="fi" unicode="fi" horiz-adv-x="712" d="M199 576v-46.001h154v-79H201v-451h-96v451H15v79h90v47c0 52.667 15.333 94.334 46 125.001s73.667 46 129 46c21.333 0 41.333-2.667 60-8s34.667-13 48-23l-29-73c-22 16.667-46.667 25-74 25-57.333 0-86-31-86-93zm325-46.001h96v-530h-96v530zm1.5 120c-12.333 12-18.5 26.668-18.5 44.001s6.167 32.166 18.5 44.499 27.833 18.5 46.5 18.5 34.167-5.833 46.5-17.5 18.5-26.167 18.5-43.5c0-18-6.167-33.167-18.5-45.5s-27.833-18.5-46.5-18.5-34.167 6-46.5 18z"/><glyph glyph-name="fl" unicode="fl" horiz-adv-x="632" d="M199 576v-46.001h154v-79H201v-451h-96v451H15v79h90v47c0 52.667 15.333 94.334 46 125.001s73.667 46 129 46c21.333 0 41.333-2.667 60-8s34.667-13 48-23l-29-73c-22 16.667-46.667 25-74 25-57.333 0-86-31-86-93zm245 165.999h96v-742h-96v742z"/><glyph glyph-name=".notdef" horiz-adv-x="587" d="M40 700h507V0H40v700zM467 70v560H120V70h347z"/><glyph glyph-name="NULL"/><glyph glyph-name="NULL"/><glyph glyph-name="nonmarkingreturn" horiz-adv-x="269"/><glyph glyph-name="space" horiz-adv-x="269"/><glyph glyph-name="exclam" unicode="!" horiz-adv-x="268" d="M78 700h113l-19-479H96zM88 12.5C75.333 24.833 69 40 69 58s6.333 33.167 19 45.5 28.334 18.5 47.001 18.5 34-6.167 46-18.5 18-27.5 18-45.5-6.167-33.167-18.5-45.5-27.5-18.5-45.5-18.5C116.334-6 100.667.167 88 12.5z"/><glyph glyph-name="quotedbl" unicode="&quot;" horiz-adv-x="391" d="M63 700h84l-7-270H69zm181 0h84l-7-270h-71z"/><glyph glyph-name="numbersign" unicode="#" horiz-adv-x="703" d="M529 447l-24-194h139v-73H496L474 0h-71l22 180H236L214 0h-71l22 180H27v73h147l25 194H59v73h149l22 180h71l-22-180h188l22 180h71l-22-180h138v-73H529zm-71 0H270l-25-194h189z"/><glyph glyph-name="dollar" unicode="$" horiz-adv-x="621" d="M520.5 57C480.833 20.333 423.334-.999 348.001-6.999v-113h-64v113C235.334-4.332 189.167 4.835 145.5 20.502S67 56.002 41 80.002l37 78c24-22 54.333-40.167 91-54.5s75-22.833 115-25.5v232c-46.667 11.333-85.5 23.666-116.5 36.999s-57 33-78 59-31.5 60-31.5 102c0 52.667 19.167 97.334 57.5 134.001s94.5 58 168.5 64v114h64v-113c38-1.333 74.833-7.333 110.5-18s66.5-25 92.5-43l-33-80c-54 34-110.667 52.667-170 56v-233c48.667-12 88.667-24.5 120-37.5s57.833-32.333 79.5-58S580 233.668 580 191.001c0-52.667-19.833-97.334-59.5-134.001zM189.001 445.001c22-16 53.667-29.333 95-40v216c-42.667-5.333-74.667-17.833-96-37.5s-32-43.5-32-71.5c0-28.667 11-51 33-67zm259.5-331.5c22.333 19 33.5 42.833 33.5 71.5 0 29.333-11.5 51.833-34.5 67.5s-56.167 29.5-99.5 41.5v-215c44.667 4 78.167 15.5 100.5 34.5z"/><glyph glyph-name="percent" unicode="%" horiz-adv-x="843" d="M82 377c-30 35.333-45 81.333-45 138s15 102.667 45 138 69.333 53 118 53 87.834-17.5 117.501-52.5 44.5-81.167 44.5-138.5-14.833-103.5-44.5-138.5S248.667 324 200 324s-88 17.667-118 53zm540 323h77L221 0h-77zM272 416.5c17.333 23.667 26 56.5 26 98.5s-8.667 74.833-26 98.5-41.333 35.5-72 35.5c-30 0-53.833-12-71.5-36S102 556.333 102 515s8.833-74 26.5-98 41.5-36 71.5-36c30.667 0 54.667 11.833 72 35.5zm253.5-370C495.833 81.5 481 127.667 481 185s14.833 103.5 44.5 138.5S594.334 376 643.001 376s88-17.667 118-53 45-81.333 45-138-15-102.667-45-138-69.333-53-118-53S555.167 11.5 525.5 46.5zm189 40.5c17.667 24 26.5 56.667 26.5 98s-8.833 74-26.5 98-41.5 36-71.5 36c-30.667 0-54.667-11.833-72-35.5S545 227 545 185s8.667-74.833 26-98.5S612.333 51 643 51c30 0 53.833 12 71.5 36z"/><glyph glyph-name="ampersand" unicode="&amp;" horiz-adv-x="686" d="M617-11l-92.997 92.997c-62-60-140-90-234-90-46.667 0-88.667 7.667-126 23s-66.5 36.833-87.5 64.5-31.5 59.167-31.5 94.5c0 42.667 13.167 80.5 39.5 113.5s69.833 66.833 130.5 101.5c-30.667 30.667-52.334 58.334-65.001 83.001s-19 50.334-19 77.001c0 47.333 17.167 85.333 51.5 114S262.668 706 320 706c53.333 0 95.666-13 126.999-39s47-61.667 47-107c0-35.333-11.5-67-34.5-95s-61.167-57.333-114.5-88l173-172c20 38 34.333 80.333 43 127l77-25C626 245.666 605.667 192.333 577 147l94-94zM246.503 612.497c-17.667-15.667-26.501-36.166-26.501-61.499 0-18 4.833-35.333 14.5-52s28.5-39.334 56.5-68.001c46 26 77.833 48.333 95.5 67s26.5 39 26.5 61c0 23.333-8.167 42-24.5 56s-39.166 21-68.499 21c-31.333 0-55.833-7.833-73.5-23.5zm220.499-474.499l-199 198c-48-26.667-81.5-51.5-100.5-74.5s-28.5-48.833-28.5-77.5c0-33.333 14.5-60.333 43.5-81s66.833-31 113.5-31c69.333 0 126.333 22 171 66z"/><glyph glyph-name="quotesingle" unicode="'" horiz-adv-x="210" d="M63 700h84l-7-270H69z"/><glyph glyph-name="parenleft" unicode="(" horiz-adv-x="337" d="M126 17.5c-20.667 79.667-31 165.17-31 256.503s10.333 177.166 31 257.499 50 150.5 88 210.5h91c-40-70-69.333-143.333-88-220s-28-159.334-28-248.001S198.333 102.667 217 26s48-150 88-220h-91c-38 61.333-67.333 131.833-88 211.5z"/><glyph glyph-name="parenright" unicode=")" horiz-adv-x="338" d="M32-194c40 70 69.5 143.331 88.5 219.998S149 185.332 149 273.999 139.5 445.333 120.5 522 72 672 32 742h91c38.667-60 68.334-130 89.001-210s31-166 31-258c0-91.333-10.333-177-31-257S161.667-133.333 123-194H32z"/><glyph glyph-name="asterisk" unicode="*" horiz-adv-x="400" d="M262 556l119-67-31-55-121 71 1-136h-60l1 136-121-71-31 55 120 67-120 66 31 56 121-71-1 135h60l-1-135 121 71 31-56z"/><glyph glyph-name="plus" unicode="+" horiz-adv-x="582" d="M515 310H333V131h-84v179H67v79h182v180h84V389h182v-79z"/><glyph glyph-name="comma" unicode="," horiz-adv-x="227" d="M161.5 111.5c12.333-13 18.501-29.168 18.501-48.501 0-10-1.167-19.667-3.5-29S169.668 10.333 163.001-9l-47-139h-63l37 149C77.334 5.667 67.167 13.5 59.5 24.5S48 48.333 48 63c0 20 6.333 36.333 19 49s28.667 19 48 19c18.667 0 34.167-6.5 46.5-19.5z"/><glyph glyph-name="hyphen" unicode="-" horiz-adv-x="383" d="M57 316h269v-83H57v83z"/><glyph glyph-name="period" unicode="." horiz-adv-x="227" d="M66 13.5C52.667 26.5 45.999 43 45.999 63c0 19.333 6.667 35.5 20 48.5s29.333 19.5 48 19.5 34.334-6.333 47.001-19 19-29 19-49-6.5-36.5-19.5-49.5S132-6 114-6C95.333-6 79.333.5 66 13.5z"/><glyph glyph-name="slash" unicode="/" horiz-adv-x="352" d="M302 842h87L59-100h-87z"/><glyph glyph-name="zero" unicode="0" horiz-adv-x="667" d="M186.5 34.5C143.5 62.833 109.667 104 85 158S48 276 48 350s12.333 138 37 192 58.5 95.167 101.5 123.5S278.667 708 334 708c54.667 0 103.5-14.167 146.5-42.5S557.333 596 582 542s37-118 37-192-12.333-138-37-192-58.5-95.167-101.5-123.5S388.667-8 334-8C278.667-8 229.5 6.167 186.5 34.5zm282 115.5c33.667 46 50.5 112.667 50.5 200s-16.833 154-50.5 200S390 619 334 619c-56.667 0-101.834-23-135.501-69s-50.5-112.667-50.5-200 16.833-154 50.5-200S277.333 81 334 81c56 0 100.833 23 134.5 69z"/><glyph glyph-name="one" unicode="1" horiz-adv-x="370" d="M265 700V0h-99v613H8v87h257z"/><glyph glyph-name="two" unicode="2" horiz-adv-x="574" d="M540 87l.002-87h-503v68l285 275c34.667 33.333 58 62.166 70 86.499s18 48.833 18 73.5c0 36.667-12.833 65.167-38.5 85.5s-62.5 30.5-110.5 30.5c-77.333 0-137-25.333-179-76l-68 59c27.333 33.333 63.166 59.333 107.499 78s93.833 28 148.5 28c73.333 0 131.666-17.5 174.999-52.5s65-82.5 65-142.5c0-37.333-8-72.666-24-105.999s-46.333-71.333-91-114L181 87h359z"/><glyph glyph-name="three" unicode="3" horiz-adv-x="572" d="M473 342.5c36-35.667 54-81.165 54-136.498 0-40-10-76.167-30-108.5s-49.833-58-89.5-77-88.167-28.5-145.5-28.5c-50 0-98 7.5-144 22.5S34.333 50.335 5 77.002l46 79c24-22.667 54.667-40.834 92-54.501s77-20.5 119-20.5c52 0 92.5 11 121.5 33s43.5 52.333 43.5 91-14.333 68.667-43 90-72 32-130 32h-56v70l176 216H37v87h462v-68l-183-226c68.667-6.667 121-27.834 157-63.501z"/><glyph glyph-name="four" unicode="4" horiz-adv-x="669" d="M657 172H524V0h-97v172H38v70l358 458h108L161 258h269v152h94V258h133v-86z"/><glyph glyph-name="five" unicode="5" horiz-adv-x="574" d="M468.5 364.5c47-37.667 70.502-89.166 70.502-154.499 0-41.333-9.833-78.5-29.5-111.5s-49.334-59-89.001-78-88.5-28.5-146.5-28.5c-49.333 0-97 7.5-143 22.5s-84 35.833-114 62.5l46 79c24-22.667 54.667-40.834 92-54.501S231.667 81 273 81c52.667 0 93.5 11.167 122.5 33.5S439 167.333 439 206c0 42-16 73.833-48 95.5S304.333 334 227 334H68l37 366h395v-87H189l-19-192h78c100 0 173.5-18.833 220.5-56.5z"/><glyph glyph-name="six" unicode="6" horiz-adv-x="617" d="M473.5 399c36.333-17.333 64.834-42.168 85.501-74.501s31-69.5 31-111.5c0-44-10.833-82.667-32.5-116S506.167 37.833 468.5 19.5 388.666-8 341.999-8c-94 0-166.5 30.333-217.5 91s-76.5 146.667-76.5 258c0 78 13.833 144.5 41.5 199.5s66.334 96.667 116.001 125S313 708 379 708c34 0 66-3.5 96-10.5s56-17.167 78-30.5l-38-78c-33.333 22-78 33-134 33-72.667 0-129.667-22.5-171-67.5S148 444 148 358c0-10.667.333-19 1-25 20 30 47.5 52.833 82.5 68.5S306 425 350 425c46 0 87.167-8.667 123.5-26zm-23.499-289.002c28.667 24.667 42.999 57.667 42.999 99s-14.5 74.166-43.5 98.499-67.833 36.5-116.5 36.5c-31.333 0-59.166-6-83.499-18s-43.333-28.333-57-49-20.5-43.667-20.5-69c0-24.667 6.5-47.167 19.5-67.5s32-36.666 57-48.999 54.833-18.5 89.5-18.5c46 0 83.333 12.333 112 37z"/><glyph glyph-name="seven" unicode="7" horiz-adv-x="598" d="M558 700v-68L275 0H169l277 613H126V488H30v212h528z"/><glyph glyph-name="eight" unicode="8" horiz-adv-x="644" d="M568 301c21.333-28.667 32.001-62.999 32.001-102.999 0-42-11.333-78.5-34-109.5s-55-54.833-97-71.5-91.333-25-148-25c-56 0-104.833 8.333-146.5 25s-73.834 40.5-96.501 71.5-34 67.5-34 109.5c0 40 10.5 74.333 31.5 103s51.5 50.667 91.5 66c-32 15.333-56.333 35.666-73 60.999s-25 55.333-25 90c0 38.667 10.5 72.334 31.5 101.001s50.5 50.667 88.5 66 82 23 132 23c50.667 0 95.167-7.667 133.5-23s68-37.333 89-66S575 556.667 575 518c0-34-8.5-63.833-25.5-89.5S508 382.333 476 367c40-15.333 70.667-37.333 92-66zM209.001 596.501c-27.333-20.333-41.003-47.833-41.003-82.5s13.5-62 40.5-82 64.5-30 112.5-30c48.667 0 86.834 10 114.501 30s41.5 47.333 41.5 82-14.167 62.167-42.5 82.5-66.166 30.5-113.499 30.5-84.666-10.167-111.999-30.5zm242.997-489c32 23 48 54.167 48 93.5 0 38.667-16 69.167-48 91.5s-75.667 33.5-131 33.5-98.666-11.167-129.999-33.5-47-52.833-47-91.5c0-39.333 15.667-70.5 47-93.5s74.666-34.5 129.999-34.5 99 11.5 131 34.5z"/><glyph glyph-name="nine" unicode="9" horiz-adv-x="617" d="M492.5 617c51-60.667 76.5-146.665 76.5-257.998 0-78-13.833-144.5-41.5-199.5s-66.334-96.667-116.001-125-107.5-42.5-173.5-42.5c-34 0-66 3.5-96 10.5s-56 17.167-78 30.5l38 78c34-22 79-33 135-33 72.667 0 129.5 22.5 170.5 67.5s61.5 110.5 61.5 196.5v25c-20-30-47.667-52.833-83-68.5s-75-23.5-119-23.5c-46 0-87.167 8.667-123.5 26S78.833 343.168 58.5 375.501s-30.5 69.5-30.5 111.5c0 44 10.833 82.667 32.5 116s51.167 59.166 88.5 77.499S228.333 708 275 708c94 0 166.5-30.333 217.5-91zM368 374.002c24.667 12 43.832 28.333 57.499 49s20.5 43.667 20.5 69c0 24.667-6.5 47.167-19.5 67.5s-32 36.666-57 48.999-55.167 18.5-90.5 18.5c-46 0-83.167-12.333-111.5-37s-42.5-57.667-42.5-99 14.333-74.166 43-98.499 67.334-36.5 116.001-36.5c31.333 0 59.333 6 84 18z"/><glyph glyph-name="colon" unicode=":" horiz-adv-x="227" d="M66 417.5c-13.333 13-20.001 29.5-20.001 49.5 0 19.333 6.667 35.5 20 48.5s29.333 19.5 48 19.5 34.334-6.333 47.001-19 19-29 19-49-6.5-36.5-19.5-49.5S132 398 114 398c-18.667 0-34.667 6.5-48 19.5zm-.001-404C52.666 26.5 45.998 43 45.998 63c0 19.333 6.667 35.5 20 48.5s29.333 19.5 48 19.5 34.334-6.333 47.001-19 19-29 19-49-6.5-36.5-19.5-49.5-28.5-19.5-46.5-19.5c-18.667 0-34.667 6.5-48 19.5z"/><glyph glyph-name="semicolon" unicode=";" horiz-adv-x="227" d="M66 417.5c-13.333 13-20.001 29.5-20.001 49.5 0 19.333 6.667 35.5 20 48.5s29.333 19.5 48 19.5 34.334-6.333 47.001-19 19-29 19-49-6.5-36.5-19.5-49.5S132 398 114 398c-18.667 0-34.667 6.5-48 19.5zm95.499-306C173.832 98.5 180 82.332 180 62.999c0-10-1.167-19.667-3.5-29S169.667 10.333 163-9l-47-139H53L90 1C77.333 5.667 67.166 13.5 59.499 24.5s-11.5 23.833-11.5 38.5c0 20 6.333 36.333 19 49s28.667 19 48 19c18.667 0 34.167-6.5 46.5-19.5z"/><glyph glyph-name="less" unicode="&lt;" horiz-adv-x="582" d="M515 487L160 350l355-137v-83L67 307v86l448 177v-83z"/><glyph glyph-name="equal" unicode="=" horiz-adv-x="582" d="M67 508h448v-79H67v79zm0-237h448v-79H67v79z"/><glyph glyph-name="greater" unicode="&gt;" horiz-adv-x="582" d="M515 393v-86L67 130v83l356 137L67 487v83z"/><glyph glyph-name="question" unicode="?" horiz-adv-x="573" d="M241.5 291.5c9 20.333 19.998 37.5 32.998 51.5s30.167 30.667 51.5 50c26.667 23.333 46.334 43.5 59.001 60.5s19 37.5 19 61.5c0 32.667-12.667 58.834-38 78.501s-60.333 29.5-105 29.5c-78 0-137.667-26.333-179-79l-73 52c28 36 63.833 63.667 107.5 83s94.167 29 151.5 29c72.667 0 130.334-15.833 173.001-47.5s64-75.167 64-130.5c0-27.333-4.5-51.5-13.5-72.5s-19.833-38.5-32.5-52.5-29.667-30.667-51-50c-27.333-24.667-47.5-46.334-60.5-65.001S328 248.333 328 221H228c0 26.667 4.5 50.167 13.5 70.5zm-9.002-279c-12.333 12.333-18.5 27.5-18.5 45.5s6.167 33.167 18.5 45.5 27.833 18.5 46.5 18.5 34-6.167 46-18.5 18-27.5 18-45.5-6.167-33.167-18.5-45.5-27.5-18.5-45.5-18.5c-18.667 0-34.167 6.167-46.5 18.5z"/><glyph glyph-name="at" unicode="@" horiz-adv-x="1034" d="M761 651.5c70.667-37 125.831-88.83 165.498-155.497s59.5-142.667 59.5-228-15.667-152.333-47-201-75-73-131-73c-32 0-58.5 8.167-79.5 24.5s-34.5 39.833-40.5 70.5c-20-30.667-46.167-54.167-78.5-70.5s-69.5-24.5-111.5-24.5c-46.667 0-88.667 11-126 33s-66.5 52.5-87.5 91.5-31.5 83.167-31.5 132.5c0 48.667 10.5 92.5 31.5 131.5s50.167 69.333 87.5 91 79.333 32.5 126 32.5c38.667 0 73.667-7.167 105-21.5s57.333-35.5 78-63.5v81h87v-360c0-24.667 5.333-42.834 16-54.501s24.334-17.5 41.001-17.5c29.333 0 52.166 17.167 68.499 51.5s24.5 82.833 24.5 145.5c0 74-16.667 139.167-50 195.5s-80.166 100.166-140.499 131.499-129.5 47-207.5 47c-78.667 0-148.167-16.333-208.5-49S204.333 513.667 171 455s-50-125.667-50-201c0-76 16.5-143.333 49.5-202s79.333-104.5 139-137.5S438-135 516-135c32.667 0 66 3.667 100 11s65 18.333 93 33l22-64c-29.333-15.333-63.333-27-102-35s-76.334-12-113.001-12c-91.333 0-172.5 19.5-243.5 58.5S146.332-50.333 106.999 19s-59 147.666-59 234.999 19.833 165.333 59.5 234S202.833 610.333 274.5 649 428 707 520 707c90 0 170.333-18.5 241-55.5zM599.497 94.003c25.667 14.667 46 35.5 61 62.5s22.5 58.5 22.5 94.5-7.5 67.5-22.5 94.5-35.333 47.667-61 62-54.834 21.5-87.501 21.5c-50.667 0-91.667-16.167-123-48.5s-47-75.5-47-129.5 15.833-97.333 47.5-130 72.5-49 122.5-49c32.667 0 61.834 7.333 87.501 22z"/><glyph glyph-name="A" unicode="A" horiz-adv-x="732" d="M551 175H179L102 0H-1l317 700h99L733 0H628zm-35 80L365 598 214 255h302z"/><glyph glyph-name="B" unicode="B" horiz-adv-x="757" d="M672 301.5c23.333-29.667 35-67.165 35-112.498 0-60.667-22.833-107.334-68.5-140.001s-112.167-49-199.5-49H105v700h314c80 0 141.833-16 185.5-48s65.5-76.333 65.5-133c0-36.667-8.5-68.334-25.5-95.001s-39.833-47-68.5-61c40.667-11.333 72.667-31.833 96-61.5zM205 619.002v-224h205c51.333 0 90.833 9.5 118.5 28.5s41.5 46.833 41.5 83.5-13.833 64.5-41.5 83.5-67.167 28.5-118.5 28.5H205zm358-510c28.667 18.667 42.999 48 42.999 88 0 78-57 117-171 117h-230v-233h230c56.667 0 99.334 9.333 128.001 28z"/><glyph glyph-name="C" unicode="C" horiz-adv-x="723" d="M228.5 38.5c-56.333 31-100.498 73.667-132.498 128s-48 115.5-48 183.5 16 129.167 48 183.5 76.333 97 133 128 120 46.5 190 46.5c54.667 0 104.667-9.167 150-27.5s84-45.5 116-81.5l-65-63c-52.667 55.333-118.334 83-197.001 83-52 0-99-11.667-141-35s-74.833-55.5-98.5-96.5-35.5-86.833-35.5-137.5 11.833-96.5 35.5-137.5 56.5-73.167 98.5-96.5 89-35 141-35c78 0 143.667 28 197 84l65-63c-32-36-70.833-63.333-116.5-82S472.667-8 418-8C348-8 284.833 7.5 228.5 38.5z"/><glyph glyph-name="D" unicode="D" horiz-adv-x="826" d="M105 700h295c74 0 139.667-14.667 197-44s101.833-70.5 133.5-123.5S778 418.667 778 350s-15.833-129.5-47.5-182.5S654.333 73.333 597 44 474 0 400 0H105v700zM394 87c56.667 0 106.5 11 149.5 33s76.167 52.833 99.5 92.5S678 298 678 350s-11.667 97.833-35 137.5-56.5 70.5-99.5 92.5-92.833 33-149.5 33H205V87h189z"/><glyph glyph-name="E" unicode="E" horiz-adv-x="670" d="M613 87V0H105v700h494v-87H205V398h351v-85H205V87h408z"/><glyph glyph-name="F" unicode="F" horiz-adv-x="635" d="M205 613V369h351v-86H205V0H105v700h494v-87H205z"/><glyph glyph-name="G" unicode="G" horiz-adv-x="772" d="M590 354l95.999-.002v-273c-34.667-28.667-75-50.667-121-66s-94-23-144-23c-70.667 0-134.334 15.5-191.001 46.5s-101.167 73.667-133.5 128-48.5 115.5-48.5 183.5 16.167 129.333 48.5 184 77 97.334 134 128.001 121.167 46 192.5 46c56 0 106.833-9.167 152.5-27.5s84.5-45.166 116.5-80.499l-62-62c-56 54-123.667 81-203 81-53.333 0-101.166-11.5-143.499-34.5s-75.5-55-99.5-96-36-87.167-36-138.5c0-50.667 12-96.5 36-137.5s57.167-73.167 99.5-96.5 89.833-35 142.5-35C488.666 81 543.333 96 590 126v228z"/><glyph glyph-name="H" unicode="H" horiz-adv-x="812" d="M707 700V0H607v312H205V0H105v700h100V399h402v301h100z"/><glyph glyph-name="I" unicode="I" horiz-adv-x="310" d="M105 700h100V0H105v700z"/><glyph glyph-name="J" unicode="J" horiz-adv-x="513" d="M78 18.5C42 36.167 13 61-9 93l58 68c38.667-55.333 87.334-83 146.001-83 39.333 0 69.166 12 89.499 36S315 173.333 315 220v393H62v87h352V225c0-77.333-18.5-135.5-55.5-174.5S267-8 195-8C153-8 114 .833 78 18.5z"/><glyph glyph-name="K" unicode="K" horiz-adv-x="719" d="M333 311L205 181V0H105v700h100V309l380 391h114L400 385 718 0H601z"/><glyph glyph-name="L" unicode="L" horiz-adv-x="594" d="M105 700h100V87h379V0H105v700z"/><glyph glyph-name="M" unicode="M" horiz-adv-x="955" d="M754 0l-1 510L500 85h-46L201 507V0h-96v700h82l292-492 288 492h82l1-700h-96z"/><glyph glyph-name="N" unicode="N" horiz-adv-x="812" d="M707 700V0h-82L205 522V0H105v700h82l420-522v522h100z"/><glyph glyph-name="O" unicode="O" horiz-adv-x="840" d="M230 38.5c-56.667 31-101.167 73.833-133.5 128.5S48 282.667 48 350s16.167 128.333 48.5 183 76.833 97.5 133.5 128.5S350.334 708 421.001 708c70 0 133.333-15.5 190-46.5s101-73.667 133-128 48-115.5 48-183.5-16-129.167-48-183.5-76.333-97-133-128-120-46.5-190-46.5C350.334-8 286.667 7.5 230 38.5zM559.5 116c41 23.333 73.333 55.5 97 96.5S692 299.333 692 350s-11.833 96.5-35.5 137.5-56 73.167-97 96.5-87.167 35-138.5 35-97.833-11.667-139.5-35-74.334-55.5-98.001-96.5-35.5-86.833-35.5-137.5 11.833-96.5 35.5-137.5 56.334-73.167 98.001-96.5S369.667 81 421 81s97.5 11.667 138.5 35z"/><glyph glyph-name="P" unicode="P" horiz-adv-x="722" d="M592 635c52-43.333 78-103 78-179s-26-135.667-78-179-123.333-65-214-65H205V0H105v700h273c90.667 0 162-21.667 214-65zm-72-295.5c33.333 27 50 65.833 50 116.5s-16.667 89.5-50 116.5S438.334 613 375.001 613h-170V299h170c63.333 0 111.666 13.5 144.999 40.5z"/><glyph glyph-name="Q" unicode="Q" horiz-adv-x="840" d="M826-64c-22.667-26.667-49.003-46.999-79.003-60.999s-62.333-21-97-21c-44 0-85.167 10.5-123.5 31.5s-82.166 56.833-131.499 107.5c-66 3.333-125.5 21-178.5 53s-94.333 74.5-124 127.5-44.5 111.833-44.5 176.5c0 67.333 16.167 128.333 48.5 183s76.833 97.5 133.5 128.5 120.334 46.5 191.001 46.5c70 0 133.333-15.5 190-46.5s101-73.667 133-128 48-115.5 48-183.5c0-57.333-11.5-110-34.5-158s-55.333-88.333-97-121S571 15.667 517 3c23.333-24.667 45.833-42.5 67.5-53.5S628.333-67 651-67c49.333 0 92 20 128 60zM183.497 212.501c23.667-41 56.334-73.167 98.001-96.5s88.167-35 139.5-35c50.667 0 96.667 11.667 138 35s73.833 55.5 97.5 96.5 35.5 86.833 35.5 137.5-11.833 96.5-35.5 137.5-56.167 73.167-97.5 96.5-87.333 35-138 35c-51.333 0-97.833-11.667-139.5-35s-74.334-55.5-98.001-96.5-35.5-86.833-35.5-137.5 11.833-96.5 35.5-137.5z"/><glyph glyph-name="R" unicode="R" horiz-adv-x="727" d="M573 0L422.001 215c-18.667-1.333-33.334-2-44.001-2H205V0H105v700h273c90.667 0 162-21.667 214-65s78-103 78-179c0-54-13.333-100-40-138s-64.667-65.667-114-83L682 0H573zm-52.999 339c33.333 27.333 50 66.333 50 117s-16.667 89.5-50 116.5S438.335 613 375.002 613h-170V298h170c63.333 0 111.666 13.667 144.999 41z"/><glyph glyph-name="S" unicode="S" horiz-adv-x="621" d="M156.5 16.5c-49 16.333-87.503 37.498-115.503 63.498l37 78c26.667-24 60.834-43.5 102.501-58.5s84.5-22.5 128.5-22.5c58 0 101.333 9.833 130 29.5s43 45.834 43 78.501c0 24-7.833 43.5-23.5 58.5s-35 26.5-58 34.5-55.5 17-97.5 27c-52.667 12.667-95.167 25.334-127.5 38.001s-60 32.167-83 58.5-34.5 61.833-34.5 106.5c0 37.333 9.833 71 29.5 101s49.5 54 89.5 72 89.667 27 149 27c41.333 0 82-5.333 122-16s74.333-26 103-46l-33-80c-29.333 18.667-60.666 32.834-93.999 42.501s-66 14.5-98 14.5c-56.667 0-99.167-10.333-127.5-31s-42.5-47.334-42.5-80.001c0-24 8-43.5 24-58.5s35.833-26.667 59.5-35 55.834-17.166 96.501-26.499c52.667-12.667 95-25.334 127-38.001s59.5-32 82.5-58S580 235 580 191c0-36.667-10-70.167-30-100.5s-50.333-54.333-91-72S368.333-8 309-8C256.333-8 205.5.167 156.5 16.5z"/><glyph glyph-name="T" unicode="T" horiz-adv-x="587" d="M244 613H4v87h579v-87H343V0h-99v613z"/><glyph glyph-name="U" unicode="U" horiz-adv-x="791" d="M177 72c-52 53.333-78 130-78 230v398h100V306c0-150 65.667-225 197-225 64 0 113 18.5 147 55.5S594 230 594 306v394h97V302c0-100.667-26-177.5-78-230.5S488.333-8 395-8 229 18.667 177 72z"/><glyph glyph-name="V" unicode="V" horiz-adv-x="712" d="M713 700L406 0h-99L-1 700h108l252-575 254 575h100z"/><glyph glyph-name="W" unicode="W" horiz-adv-x="1126" d="M1094 700L860 0H755L564 559 373 0H266L32 700h103l189-569 197 569h92l193-572 193 572h95z"/><glyph glyph-name="X" unicode="X" horiz-adv-x="673" d="M545 0L335 289 128 0H13l263 359L29 700h114l196-269 194 269h109L395 362 660 0H545z"/><glyph glyph-name="Y" unicode="Y" horiz-adv-x="647" d="M373 242V0h-99v244L-4 700h107l224-369 225 369h99z"/><glyph glyph-name="Z" unicode="Z" horiz-adv-x="657" d="M628 87V0H43v68l440 545H50v87h565v-68L177 87h451z"/><glyph glyph-name="bracketleft" unicode="[" horiz-adv-x="333" d="M105 742h209v-79H201v-778h113v-79H105v936z"/><glyph glyph-name="backslash" unicode="\" horiz-adv-x="352" d="M292-100L-38 842h87l330-942h-87z"/><glyph glyph-name="bracketright" unicode="]" horiz-adv-x="333" d="M19-194v79h113v778H19v79h209v-936H19z"/><glyph glyph-name="asciicircum" unicode="^" horiz-adv-x="583" d="M431 142L292 479 152 142H75l177 416h80l176-416h-77z"/><glyph glyph-name="underscore" unicode="_" horiz-adv-x="500" d="M0 0h500v-62H0V0z"/><glyph glyph-name="grave" unicode="`" horiz-adv-x="600" d="M117 737h122l136-130h-90z"/><glyph glyph-name="a" unicode="a" horiz-adv-x="598" d="M452.5 481c39-36 58.501-89.669 58.501-161.002v-320h-91v70c-16-24.667-38.833-43.5-68.5-56.5S286.667-6.002 246-6.002c-59.333 0-106.833 14.333-142.5 43S50 103.332 50 149.999s17 84.167 51 112.5 88 42.5 162 42.5h152v19c0 41.333-12 73-36 95s-59.333 33-106 33c-31.333 0-62-5.167-92-15.5S125.667 412.333 105 395l-40 72c27.333 22 60 38.833 98 50.5S241.333 535 284 535c73.333 0 129.5-18 168.5-54zM357.001 92.498c26.667 16.333 45.998 39.5 57.998 69.5v74h-148c-81.333 0-122-27.333-122-82 0-26.667 10.333-47.667 31-63s49.334-23 86.001-23 68.334 8.167 95.001 24.5z"/><glyph glyph-name="b" unicode="b" horiz-adv-x="682" d="M510 501c40.667-22.667 72.5-54.332 95.5-94.999s34.5-87.667 34.5-141-11.5-100.5-34.5-141.5-54.833-72.833-95.5-95.5-86.667-34-138-34c-39.333 0-75.333 7.667-108 23S204.333 54.667 183 84V0H91v742h96V450c21.333 28 48 49.167 80 63.5S334 535 372 535c51.333 0 97.333-11.333 138-34zm-54.5-399.498c27 15.667 48.333 37.667 64 66s23.5 60.833 23.5 97.5-7.833 69.167-23.5 97.5-37 50.166-64 65.499-57.5 23-91.5 23c-33.333 0-63.666-7.667-90.999-23s-48.666-37.166-63.999-65.499-23-60.833-23-97.5 7.667-69.167 23-97.5 36.666-50.333 63.999-66 57.666-23.5 90.999-23.5c34 0 64.5 7.833 91.5 23.5z"/><glyph glyph-name="c" unicode="c" horiz-adv-x="571" d="M177.5 29C135.167 52.333 102 84.498 78 125.498s-36 87.5-36 139.5 12 98.5 36 139.5 57.167 73 99.5 96 90.5 34.5 144.5 34.5c48 0 90.833-9.667 128.5-29s66.834-47.333 87.501-84l-73-47c-16.667 25.333-37.334 44.333-62.001 57s-52 19-82 19c-34.667 0-65.834-7.667-93.501-23s-49.334-37.166-65.001-65.499-23.5-60.833-23.5-97.5c0-37.333 7.833-70.166 23.5-98.499s37.334-50.166 65.001-65.499 58.834-23 93.501-23c30 0 57.333 6.333 82 19s45.334 31.667 62.001 57l73-46C517.334 71.334 488.167 43.167 450.5 23.5S370-6 322-6C268-6 219.833 5.667 177.5 29z"/><glyph glyph-name="d" unicode="d" horiz-adv-x="682" d="M591 742V-.002h-92v84c-21.333-29.333-48.333-51.666-81-66.999s-68.667-23-108-23c-51.333 0-97.333 11.333-138 34s-72.5 54.5-95.5 95.5S42 211.666 42 264.999s11.5 100.333 34.5 141S131.333 478.333 172 501s86.667 34 138 34c38 0 73-7.167 105-21.5s58.667-35.5 80-63.5v292h96zM409 101.498c27.333 15.667 48.666 37.667 63.999 66s23 60.833 23 97.5-7.667 69.167-23 97.5-36.666 50.166-63.999 65.499-57.666 23-90.999 23c-34 0-64.5-7.667-91.5-23s-48.333-37.166-64-65.499-23.5-60.833-23.5-97.5 7.833-69.167 23.5-97.5 37-50.333 64-66 57.5-23.5 91.5-23.5c33.333 0 63.666 7.833 90.999 23.5z"/><glyph glyph-name="e" unicode="e" horiz-adv-x="612" d="M568 233H137.999c6-46.667 26.5-84.167 61.5-112.5s78.5-42.5 130.5-42.5c63.333 0 114.333 21.333 153 64l53-62c-24-28-53.833-49.333-89.5-64s-75.5-22-119.5-22c-56 0-105.667 11.5-149 34.5s-76.833 55.167-100.5 96.5-35.5 88-35.5 140c0 51.333 11.5 97.666 34.5 138.999s54.667 73.5 95 96.5 85.833 34.5 136.5 34.5 95.834-11.5 135.501-34.5 70.667-55.167 93-96.5S570 315.333 570 262c0-7.333-.667-17-2-29zM192.499 412c-31-28-49.167-64.667-54.5-110h340c-5.333 44.667-23.5 81.167-54.5 109.5s-69.5 42.5-115.5 42.5-84.5-14-115.5-42z"/><glyph glyph-name="f" unicode="f" horiz-adv-x="353" d="M199 576v-46.001h154v-79H201v-451h-96v451H15v79h90v47c0 52.667 15.333 94.334 46 125.001s73.667 46 129 46c21.333 0 41.333-2.667 60-8s34.667-13 48-23l-29-73c-22 16.667-46.667 25-74 25-57.333 0-86-31-86-93z"/><glyph glyph-name="g" unicode="g" horiz-adv-x="690" d="M598 530V72c0-92.667-23-161.167-69-205.5S414.333-200 323-200c-50 0-97.667 6.833-143 20.5S98-146.333 70-121l46 74c24.667-21.333 55.167-38.166 91.5-50.499s73.833-18.5 112.5-18.5c62 0 107.833 14.667 137.5 44s44.5 74 44.5 134v42c-22.667-27.333-50.5-47.833-83.5-61.5s-68.833-20.5-107.5-20.5c-50.667 0-96.5 10.833-137.5 32.5s-73.167 52-96.5 91-35 83.5-35 133.5 11.667 94.5 35 133.5 55.5 69.167 96.5 90.5 86.833 32 137.5 32c40 0 77.167-7.333 111.5-22S485 476.667 507 448v82h91zM415.5 128c27.667 14.667 49.331 35.167 64.998 61.5s23.5 56.166 23.5 89.499c0 51.333-17 92.833-51 124.5s-77.667 47.5-131 47.5c-54 0-98-15.833-132-47.5s-51-73.167-51-124.5c0-33.333 7.833-63.166 23.5-89.499s37.334-46.833 65.001-61.5 59.167-22 94.5-22c34.667 0 65.834 7.333 93.501 22z"/><glyph glyph-name="h" unicode="h" horiz-adv-x="681" d="M534.5 476.5c39.667-39 59.5-96.167 59.5-171.5V0h-96v294c0 51.333-12.333 90-37 116s-60 39-106 39c-52 0-93-15.167-123-45.5s-45-73.833-45-130.5V0H91v742h96V455c20 25.333 46.167 45 78.5 59S334 535 374 535c67.333 0 120.833-19.5 160.5-58.5z"/><glyph glyph-name="i" unicode="i" horiz-adv-x="279" d="M91 530h96V0H91v530zm1.5 120C80.167 662 74 676.668 74 694.001s6.167 32.166 18.5 44.499S120.333 757 139 757s34.167-5.833 46.5-17.5S204 713.333 204 696c0-18-6.167-33.167-18.5-45.5S157.667 632 139 632s-34.167 6-46.5 18z"/><glyph glyph-name="j" unicode="j" horiz-adv-x="284" d="M-42-192c-20 5.333-36.667 13.332-50 23.999l31 74c20-16.667 46-25 78-25 25.333 0 44.833 7.833 58.5 23.5S96-56.667 96-26v556h96V-24c0-54.667-14.667-97.667-44-129s-71-47-125-47c-23.333 0-45 2.667-65 8zM97.5 649.999C85.167 661.999 79 676.667 79 694s6.167 32.166 18.5 44.499 27.833 18.5 46.5 18.5 34.167-5.833 46.5-17.5 18.5-26.167 18.5-43.5c0-18-6.167-33.167-18.5-45.5s-27.833-18.5-46.5-18.5-34.167 6-46.5 18z"/><glyph glyph-name="k" unicode="k" horiz-adv-x="616" d="M297 247L187 145V0H91v742h96V266l289 264h116L369 311 614 0H496z"/><glyph glyph-name="l" unicode="l" horiz-adv-x="279" d="M91 742h96V0H91v742z"/><glyph glyph-name="m" unicode="m" horiz-adv-x="1057" d="M912.5 477c39-38.667 58.502-95.999 58.502-171.999v-305h-96v294c0 51.333-11.833 90-35.5 116s-57.5 39-101.5 39c-48.667 0-87.334-15.167-116.001-45.5s-43-73.833-43-130.5v-273h-96v294c0 51.333-11.833 90-35.5 116s-57.5 39-101.5 39c-48.667 0-87.334-15.167-116.001-45.5s-43-73.833-43-130.5v-273H91v530h92v-79c19.333 27.333 44.666 48.166 75.999 62.499s67 21.5 107 21.5c41.333 0 78-8.333 110-25s56.667-41 74-73c20 30.667 47.833 54.667 83.5 72S709.333 535 754 535c66.667 0 119.5-19.333 158.5-58z"/><glyph glyph-name="n" unicode="n" horiz-adv-x="681" d="M534.5 476.5c39.667-39 59.5-96.167 59.5-171.5V0h-96v294c0 51.333-12.333 90-37 116s-60 39-106 39c-52 0-93-15.167-123-45.5s-45-73.833-45-130.5V0H91v530h92v-80c19.333 27.333 45.5 48.333 78.5 63S332 535 374 535c67.333 0 120.833-19.5 160.5-58.5z"/><glyph glyph-name="o" unicode="o" horiz-adv-x="635" d="M176 29c-42 23.333-74.833 55.5-98.5 96.5S42 213 42 265s11.833 98.5 35.5 139.5 56.5 73 98.5 96S265.333 535 318 535s99.834-11.5 141.501-34.5 74.334-55 98.001-96 35.5-87.5 35.5-139.5-11.833-98.5-35.5-139.5-56.334-73.167-98.001-96.5S370.667-6 318-6 218 5.667 176 29zm233.5 72.5c27 15.667 48.167 37.667 63.5 66s23 60.833 23 97.5-7.667 69.167-23 97.5-36.5 50.166-63.5 65.499-57.5 23-91.5 23-64.5-7.667-91.5-23-48.333-37.166-64-65.499S139 301.667 139 265s7.833-69.167 23.5-97.5 37-50.333 64-66S284 78 318 78s64.5 7.833 91.5 23.5z"/><glyph glyph-name="p" unicode="p" horiz-adv-x="682" d="M510 501c40.667-22.667 72.5-54.333 95.5-95S640 318.333 640 265s-11.5-100.5-34.5-141.5S550.667 50.667 510 28 423.333-6 372-6c-38 0-72.833 7.333-104.5 22S209 52 187 80v-274H91v724h92v-84c21.333 29.333 48.333 51.5 81 66.5S332.667 535 372 535c51.333 0 97.333-11.333 138-34zm-54.5-399.499c27 15.667 48.335 37.668 64.002 66.001s23.5 60.833 23.5 97.5-7.833 69.167-23.5 97.5-37 50.166-64 65.499-57.5 23-91.5 23c-33.333 0-63.5-7.833-90.5-23.5s-48.333-37.5-64-65.5-23.5-60.333-23.5-97 7.667-69.167 23-97.5 36.666-50.333 63.999-66 57.666-23.5 90.999-23.5c34 0 64.5 7.833 91.5 23.5z"/><glyph glyph-name="q" unicode="q" horiz-adv-x="682" d="M591 530v-724.001h-96v274c-22-28-48.833-49.333-80.5-64s-66.5-22-104.5-22c-51.333 0-97.333 11.333-138 34s-72.5 54.5-95.5 95.5S42 211.666 42 264.999s11.5 100.333 34.5 141S131.333 478.333 172 501s86.667 34 138 34c39.333 0 75.333-7.5 108-22.5s59.667-37.167 81-66.5v84h92zM409 101.499c27.333 15.667 48.668 37.666 64.001 65.999s23 60.833 23 97.5-7.833 69-23.5 97-37 49.833-64 65.5-57.167 23.5-90.5 23.5c-34 0-64.5-7.667-91.5-23s-48.333-37.166-64-65.499-23.5-60.833-23.5-97.5 7.833-69.167 23.5-97.5 37-50.333 64-66 57.5-23.5 91.5-23.5c33.333 0 63.666 7.833 90.999 23.5z"/><glyph glyph-name="r" unicode="r" horiz-adv-x="410" d="M257 511c32.667 16 72.331 24 118.998 24v-93c-5.333.667-12.666 1-21.999 1-52 0-92.833-15.5-122.5-46.5s-44.5-75.167-44.5-132.5V0h-96v530h92v-89c16.667 30.667 41.334 54 74.001 70z"/><glyph glyph-name="s" unicode="s" horiz-adv-x="501" d="M118 11.5C78 23.167 46.669 38 24.002 56l40 76c23.333-16.667 51.666-30 84.999-40s67-15 101-15c84 0 126 24 126 72 0 16-5.667 28.667-17 38s-25.5 16.166-42.5 20.499-41.167 9.166-72.5 14.499c-42.667 6.667-77.5 14.334-104.5 23.001S89.334 268.333 70.001 289s-29 49.667-29 87c0 48 20 86.5 60 115.5s93.667 43.5 161 43.5c35.333 0 70.666-4.333 105.999-13s64.333-20.334 87-35.001l-41-76c-43.333 28-94.333 42-153 42-40.667 0-71.667-6.667-93-20s-32-31-32-53c0-17.333 6-31 18-41s26.833-17.333 44.5-22 42.5-10 74.5-16c42.667-7.333 77.167-15.166 103.5-23.499S425.333 255 444 235s28-48 28-84c0-48-20.5-86.167-61.5-114.5S313.667-6 243-6c-43.333 0-85 5.833-125 17.5z"/><glyph glyph-name="t" unicode="t" horiz-adv-x="414" d="M389 31c-14-12-31.334-21.167-52.001-27.5s-42-9.5-64-9.5C219.666-6 178.333 8.333 149 37s-44 69.667-44 123v291H15v79h90v116h96V530h152v-79H201V164c0-28.667 7.167-50.667 21.5-66s34.833-23 61.5-23c29.333 0 54.333 8.333 75 25z"/><glyph glyph-name="u" unicode="u" horiz-adv-x="677" d="M585 530l.001-530.001h-91v80c-19.333-27.333-44.833-48.5-76.5-63.5s-66.167-22.5-103.5-22.5c-70.667 0-126.334 19.5-167.001 58.5s-61 96.5-61 172.5v305h96v-294c0-51.333 12.333-90.166 37-116.499S279 80 325 80c50.667 0 90.667 15.333 120 46s44 74 44 130v274h96z"/><glyph glyph-name="v" unicode="v" horiz-adv-x="559" d="M560 530L328 0h-98L-2 530H98l182-425 186 425h94z"/><glyph glyph-name="w" unicode="w" horiz-adv-x="899" d="M893 530L695 0h-92L450 402 295 0h-92L6 530h91l154-422 160 422h81l157-424 158 424h86z"/><glyph glyph-name="x" unicode="x" horiz-adv-x="552" d="M429 0L276 203 121 0H14l209 271L24 530h107l146-191 145 191h105L327 271 538 0H429z"/><glyph glyph-name="y" unicode="y" horiz-adv-x="559" d="M560 530L302.999-53c-22.667-54-49.167-92-79.5-114s-66.833-33-109.5-33c-26 0-51.167 4.167-75.5 12.5s-44.5 20.5-60.5 36.5l41 72c27.333-26 59-39 95-39 23.333 0 42.833 6.167 58.5 18.5S202.333-66 215-36l17 37L-2 530H98l185-424 183 424h94z"/><glyph glyph-name="z" unicode="z" horiz-adv-x="521" d="M484 79V0H40v62l313 389H46v79h430v-63L163 79h321z"/><glyph glyph-name="braceleft" unicode="{" horiz-adv-x="351" d="M220 304c-8.667-14-22.667-24-42-30 19.333-6 33.333-16 42-30s13-34.667 13-62V-37c0-52 24.667-78 74-78h25v-79h-44c-50 0-87.667 12.5-113 37.5S137-94.667 137-46v230c0 33.333-15 50-45 50H57v80h35c30 0 45 16.667 45 50v230c0 48.667 12.667 85.5 38 110.5S238 742 288 742h44v-79h-25c-49.333 0-74-26-74-78V366c0-27.333-4.333-48-13-62z"/><glyph glyph-name="bar" unicode="|" horiz-adv-x="299" d="M105 742h89v-936h-89v936z"/><glyph glyph-name="braceright" unicode="}" horiz-adv-x="351" d="M293 314v-80h-34c-29.333 0-44-16.667-44-50V-46c0-48.667-12.833-85.5-38.5-110.5S113-194 63-194H19v79h24c50.667 0 76 26 76 78v219c0 28 4.167 48.833 12.5 62.5s22.166 23.5 41.499 29.5c-19.333 6-33.166 15.833-41.499 29.5S119 338 119 366v219c0 52-25.333 78-76 78H19v79h44c50 0 87.833-12.5 113.5-37.5S215 642.667 215 594V364c0-33.333 14.667-50 44-50h34z"/><glyph glyph-name="asciitilde" unicode="~" horiz-adv-x="582" d="M330 279.5c-18 9.667-38 23.501-60 41.501-16.667 14-30.5 24.333-41.5 31s-22.833 10-35.5 10c-21.333 0-38.333-8.167-51-24.5s-19.667-38.166-21-65.499H58c1.333 54 13.833 94.833 37.5 122.5s55.167 41.5 94.5 41.5c24 0 44.833-4.833 62.5-14.5s37.5-23.834 59.5-42.501c17.333-14 31.333-24.167 42-30.5s22.334-9.5 35.001-9.5c22 0 39.167 8.167 51.5 24.5s19.166 38.5 20.499 66.5h63c-1.333-54.667-13.833-95.834-37.5-123.501S431.333 265 392 265c-23.333 0-44 4.833-62 14.5z"/><glyph glyph-name="uni00A0" horiz-adv-x="269"/><glyph glyph-name="exclamdown" unicode="¡" horiz-adv-x="268" d="M180.5 516c12.333-12.667 18.5-28 18.5-46 0-17.333-6-32.166-18-44.499s-27.333-18.5-46-18.5-34.334 6.167-47.001 18.5-19 27.166-19 44.499c0 18 6.333 33.333 19 46s28.334 19 47.001 19c18 0 33.167-6.333 45.5-19zM191-154H78l18 463h76z"/><glyph glyph-name="cent" unicode="¢" horiz-adv-x="571" d="M465 154l72.999-46.001c-18.667-33.333-44.667-59.666-78-78.999s-71.333-30.666-114-33.999v-115h-64v116c-46.667 5.333-88.167 20.166-124.5 44.499S92.833 96.333 72.5 135 42 217 42 265s10.167 91.167 30.5 129.5 48.5 69.666 84.5 93.999 77.667 39.166 125 44.499v117h64v-116c42.667-3.333 80.667-14.5 114-33.5s59.333-45.167 78-78.5l-73-47c-28 42.667-67.667 67.334-119 74.001v-369c51.333 6.667 91 31.334 119 74.001zm-286.501-12.001c26.333-32.667 60.833-52.667 103.5-60v365c-42.667-8-77.167-28.333-103.5-61s-39.5-73-39.5-121c0-49.333 13.167-90.333 39.5-123z"/><glyph glyph-name="sterling" unicode="£" horiz-adv-x="646" d="M238 87h377.999V0h-586v87h109v230h-109v66h109v65c0 52.667 11.5 98.5 34.5 137.5s56.667 69.167 101 90.5 97.5 32 159.5 32c40.667 0 76.834-4 108.501-12s61.167-20.667 88.5-38l-33-83c-43.333 29.333-101 44-173 44-61.333 0-107.833-14.667-139.5-44S238 503.667 238 449v-66h266v-66H238V87z"/><glyph glyph-name="currency" unicode="¤" horiz-adv-x="700" d="M566 159L669 57 613-2 507 103c-48-32-100.333-48-157-48-28.667 0-56.5 4.167-83.5 12.5S215 88 193 104L86-2 31 57l103 103c-17.333 22.667-30.833 47.667-40.5 75S79 290.333 79 319c0 57.333 17.667 110 53 158L31 578l55 59 105-104c48 34 101 51 159 51 57.333 0 110.333-16.667 159-50l104 103 56-59-101-100c36-47.333 54-100.333 54-159s-18.667-112-56-160zm-119 0c30 16.667 53.833 39.167 71.5 67.5s26.5 59.166 26.5 92.499-8.833 64.333-26.5 93S477 463.333 447 480s-62.333 25-97 25-66.667-8.333-96-25-52.666-39.334-69.999-68.001-26-59.667-26-93 8.667-64.166 26-92.499S224.667 175.667 254 159s61.333-25 96-25 67 8.333 97 25z"/><glyph glyph-name="yen" unicode="¥" horiz-adv-x="707" d="M434 312h180v-57H403v-81h211v-57H403V0h-99v117H93v57h211v81H93v57h181L-4 700h106l253-354 254 354h102z"/><glyph glyph-name="brokenbar" unicode="¦" horiz-adv-x="299" d="M105 742h89V392h-89v350zm0-586h89v-350h-89v350z"/><glyph glyph-name="section" unicode="§" horiz-adv-x="500" d="M445 218.5c-13.333-21.667-31.33-39.498-53.997-53.498 35.333-25.333 53-61.666 53-108.999 0-32-8.833-60.333-26.5-85s-42.5-43.667-74.5-57-69-20-111-20c-38.667 0-77.334 6-116.001 18s-68.667 27.333-90 46l31 73c22-17.333 49-31.666 81-42.999s64.667-17 98-17c38 0 67.833 7.167 89.5 21.5s32.5 34.833 32.5 61.5c0 18.667-5.833 33.667-17.5 45s-26.5 20.166-44.5 26.499-42.333 13.166-73 20.499c-40 10-72.333 20-97 30s-45.834 25.333-63.501 46-26.5 48.667-26.5 84c0 28 6.667 53.167 20 75.5s31.666 40.5 54.999 54.5c-35.333 24-53 59.667-53 107 0 49.333 20.5 88.833 61.5 118.5s96.833 44.5 167.5 44.5c32 0 65.667-4.5 101-13.5s63.333-21.167 84-36.5l-31-73c-44 30.667-97.667 46-161 46-44 0-77.667-7.167-101-21.5s-35-34.833-35-61.5c0-18 5.667-32.5 17-43.5s25.333-19.5 42-25.5 40.667-13 72-21c40.667-10 73.5-20 98.5-30s46.5-25.833 64.5-47.5 27-50.834 27-87.501c0-26.667-6.667-50.834-20-72.501zm-306.997 44.502c12-12 27.168-21.168 45.501-27.501s43.5-13.5 75.5-21.5l50-13c22 6.667 39.5 17.834 52.5 33.501s19.5 34.167 19.5 55.5c0 19.333-6 35-18 47s-27 21.167-45 27.5-42.667 13.5-74 21.5c-22.667 5.333-39.334 9.666-50.001 12.999-22-6.667-39.833-17.667-53.5-33s-20.5-33.666-20.5-54.999c0-20 6-36 18-48z"/><glyph glyph-name="dieresis" unicode="¨" horiz-adv-x="600" d="M171 638.5c-10 9.667-15 21.834-15 36.501s5 27 15 37 22 15 36 15 26-5 36-15 15-22.333 15-37-5-26.834-15-36.501-22-14.5-36-14.5-26 4.833-36 14.5zm186 0c-10 9.667-15 21.834-15 36.501s5 27 15 37 22 15 36 15 26-5 36-15 15-22.333 15-37-5-26.834-15-36.501-22-14.5-36-14.5-26 4.833-36 14.5z"/><glyph glyph-name="copyright" unicode="©" horiz-adv-x="802" d="M221.5 44c-53.667 31.333-96.001 73.999-127.001 127.999s-46.5 113.333-46.5 178 15.5 124 46.5 178 73.5 96.667 127.5 128 114 47 180 47 125.833-15.333 179.5-46S677.333 584.165 708 530.498s46-113.167 46-178.5-15.667-125.166-47-179.499S633 75.333 579 44 465.333-3 400-3 275.167 12.667 221.5 44zm334.499 38.999c46.667 27.333 83.497 64.667 110.497 112s40.5 99.666 40.5 156.999-13.167 109.333-39.5 156-62.666 83.334-108.999 110.001-98.5 40-156.5 40c-57.333 0-109.5-13.667-156.5-41s-83.833-64.5-110.5-111.5-40-98.833-40-155.5 13.333-108.5 40-155.5 63.334-84.167 110.001-111.5 98.334-41 155.001-41c57.333 0 109.333 13.667 156 41zM301.996 170c-32 17.333-57 41.667-75 73s-27 67-27 107 9 75.667 27 107 43 55.666 75 72.999 68.333 26 109 26c34.667 0 66.334-7.333 95.001-22s51-34.334 67-59.001l-57-41c-24 36-59.333 54-106 54-38.667 0-70.667-12.667-96-38s-38-58.666-38-99.999 12.667-74.666 38-99.999 57.333-38 96-38c46.667 0 82 18 106 54l57-40c-16-25.333-38.333-45.333-67-60s-60.334-22-95.001-22c-40.667 0-77 8.667-109 26z"/><glyph glyph-name="ordfeminine" unicode="ª" horiz-adv-x="404" d="M339 617l-.003-189h-64v40c-9.333-13.333-23.666-24-42.999-32s-42.333-12-69-12c-40 0-71 8.667-93 26s-33 40-33 68 11.167 50.333 33.5 67 56.5 25 102.5 25h97v9c0 26-7.167 45-21.5 57S212.332 694 183 694c-20 0-39.833-3.167-59.5-9.5S87 669.667 73 659l-26 45c17.333 13.333 38.833 23.833 64.5 31.5S163.333 747 190 747c99.333 0 149-43.333 149-130zm-69.003-96v46h-88c-52.667 0-79-15.333-79-46 0-15.333 6.5-27.333 19.5-36s31.167-13 54.5-13c45.333 0 76.333 16.333 93 49z"/><glyph glyph-name="guillemotleft" unicode="«" horiz-adv-x="504" d="M46 265l144 192h88L137 265 278 74h-88zm192 0l144 192h88L329 265 470 74h-88z"/><glyph glyph-name="logicalnot" unicode="¬" horiz-adv-x="582" d="M515 133h-85v178H67v79h448V133z"/><glyph glyph-name="uni00AD" unicode="­" horiz-adv-x="383" d="M57 316h269v-83H57v83z"/><glyph glyph-name="registered" unicode="®" horiz-adv-x="802" d="M581.5 657c53.667-30.667 95.833-72.835 126.5-126.502s46-113.167 46-178.5-15.667-125.166-47-179.499S633 75.333 579 44 465.333-3 400-3 275.167 12.667 221.5 44s-96 74-127 128S48 285.333 48 350s15.5 124 46.5 178S168 624.667 222 656s114 47 180 47 125.833-15.333 179.5-46zM555.999 82.999c46.667 27.333 83.497 64.667 110.497 112s40.5 99.666 40.5 156.999-13.167 109.333-39.5 156-62.666 83.334-108.999 110.001-98.5 40-156.5 40c-57.333 0-109.5-13.667-156.5-41s-83.833-64.5-110.5-111.5-40-98.833-40-155.5 13.333-108.5 40-155.5 63.334-84.167 110.001-111.5 98.334-41 155.001-41c57.333 0 109.333 13.667 156 41zM558.996 337c-14.667-21.333-35.333-36.667-62-46l91-141h-69l-83 128h-109V150h-68v400h160c50 0 89.5-12.333 118.5-37s43.5-57.667 43.5-99c0-30-7.333-55.667-22-77zm-70.499 17.999c17.667 14 26.5 33.667 26.5 59s-8.833 44.833-26.5 58.5-42.5 20.5-74.5 20.5h-88v-159h88c32 0 56.833 7 74.5 21z"/><glyph glyph-name="macron" unicode="¯" horiz-adv-x="600" d="M137 702h326v-60H137v60z"/><glyph glyph-name="degree" unicode="°" horiz-adv-x="419" d="M126.5 402.5c-25 14.333-44.833 34-59.5 59S45 514 45 544c0 29.333 7.333 56.5 22 81.5s34.5 44.667 59.5 59S179 706 209 706s57.667-7.167 83-21.5 45.333-34 60-59 22-52.167 22-81.5c0-30-7.333-57.5-22-82.5s-34.667-44.667-60-59-53-21.5-83-21.5-57.5 7.167-82.5 21.5zm159.5 64c20.667 21 31 46.833 31 77.5s-10.333 56.5-31 77.5-46.334 31.5-77.001 31.5-56.334-10.333-77.001-31-31-46.667-31-78 10.333-57.333 31-78 46.334-31 77.001-31 56.334 10.5 77.001 31.5z"/><glyph glyph-name="plusminus" unicode="±" horiz-adv-x="582" d="M515 438v-79H333V185h-84v174H67v79h182v174h84V438h182zM67 79h448V0H67v79z"/><glyph glyph-name="uni00B2" unicode="²" horiz-adv-x="430" d="M380 385v-57.999H46v45l185 162c23.333 20.667 39.166 37.5 47.499 50.5s12.5 26.167 12.5 39.5c0 18.667-8.333 33.834-25 45.501s-41.667 17.5-75 17.5c-24.667 0-46.667-3.833-66-11.5s-35.333-18.834-48-33.501l-49 38c35.333 44.667 91.333 67 168 67 52.667 0 93.334-11 122.001-33s43-50.333 43-85c0-21.333-5.333-41.333-16-60S314 527.667 284 501L152 385h228z"/><glyph glyph-name="uni00B3" unicode="³" horiz-adv-x="430" d="M345.5 532.5c23.667-21.667 35.498-49.166 35.498-82.499 0-36.667-15.667-67.167-47-91.5s-75.666-36.5-132.999-36.5c-36 0-69.833 4.667-101.5 14S43.665 357.667 26.998 373l28 53c16.667-13.333 37.834-24 63.501-32s53.167-12 82.5-12c36 0 63.333 6 82 18s28 28.667 28 50-8.833 37.833-26.5 49.5-44.167 17.5-79.5 17.5h-47v47l112 120h-230v58h321v-45l-118-127c44.667-3.333 78.834-15.833 102.501-37.5z"/><glyph glyph-name="acute" unicode="´" horiz-adv-x="600" d="M361 737h122L315 607h-90z"/><glyph glyph-name="uni00B5" unicode="µ" horiz-adv-x="682" d="M590 530V-.001h-91v82c-18-30-41.833-52.167-71.5-66.5S366-6.001 332-6.001c-64 0-112.333 20.333-145 61v-249H91v724h96v-294c0-51.333 12.5-90.166 37.5-116.499S284.667 80 330 80c50.667 0 90.667 15.333 120 46s44 74 44 130v274h96z"/><glyph glyph-name="paragraph" unicode="¶" horiz-adv-x="648" d="M227 384c-62 .667-112.166 17.167-150.499 49.5s-57.5 75.5-57.5 129.5c0 54.667 20.167 98.167 60.5 130.5S173.667 742 241 742h302v-842h-80v767H307v-767h-80v484z"/><glyph glyph-name="periodcentered" unicode="·" horiz-adv-x="267" d="M85.5 225.5C72.5 238.5 66 255 66 275s6.5 36.333 19.5 49 29.167 19 48.5 19c18.667 0 34.334-6.333 47.001-19s19-29 19-49-6.333-36.5-19-49.5S152.667 206 134 206c-19.333 0-35.5 6.5-48.5 19.5z"/><glyph glyph-name="cedilla" unicode="¸" horiz-adv-x="600" d="M186-202l21 49c20-11.333 42.667-17 68-17 37.333 0 56 13.333 56 40 0 12-4.667 21.5-14 28.5S293.334-91 274.001-91h-27l25 98h55l-15-57c28-2.667 49.5-11.5 64.5-26.5s22.5-33.833 22.5-56.5c0-28-11.333-50.167-34-66.5s-52.667-24.5-90-24.5c-34.667 0-64.334 7.333-89.001 22z"/><glyph glyph-name="uni00B9" unicode="¹" horiz-adv-x="430" d="M370 385v-58H81v58h116v299H89v58h179V385h102z"/><glyph glyph-name="ordmasculine" unicode="º" horiz-adv-x="418" d="M117.5 445c-27 14-48 33.333-63 58S32 555.334 32 586.001s7.5 58.334 22.5 83.001 36 43.834 63 57.501 57.5 20.5 91.5 20.5 64.5-6.833 91.5-20.5 48-32.834 63-57.501 22.5-52.334 22.5-83.001-7.5-58.334-22.5-83.001-36-44-63-58-57.5-21-91.5-21-64.5 7-91.5 21zm171 66c20.333 19.333 30.5 44.333 30.5 75s-10.167 55.667-30.5 75-46.833 29-79.5 29-59.167-9.667-79.5-29S99 616.667 99 586s10.167-55.667 30.5-75 46.833-29 79.5-29 59.167 9.667 79.5 29z"/><glyph glyph-name="guillemotright" unicode="»" horiz-adv-x="504" d="M34 74l141 191L34 457h88l144-192L122 74H34zm192 0l141 191-141 192h88l144-192L314 74h-88z"/><glyph glyph-name="onequarter" unicode="¼" horiz-adv-x="1034" d="M370 343v-58H81v58h116v299H89v58h179V343h102zm348 357h76L316 0h-76zm289-601h-81V0h-69v99H626v47l201 269h78L711 157h152v83h63v-83h81V99z"/><glyph glyph-name="onehalf" unicode="½" horiz-adv-x="1034" d="M370 343v-58H81v58h116v299H89v58h179V343h102zm348 357h76L316 0h-76zM984 58V.001H650v45l185 162c23.333 20.667 39.166 37.5 47.499 50.5s12.5 26.167 12.5 39.5c0 18.667-8.333 33.834-25 45.501s-41.667 17.5-75 17.5c-24.667 0-46.667-3.833-66-11.5s-35.333-18.834-48-33.501l-49 38c35.333 44.667 91.333 67 168 67 52.667 0 93.334-11 122.001-33s43-50.333 43-85c0-21.333-5.333-41.333-16-60S918 200.667 888 174L756 58h228z"/><glyph glyph-name="threequarters" unicode="¾" horiz-adv-x="1034" d="M345.5 490.5c23.667-21.667 35.498-49.166 35.498-82.499 0-36.667-15.667-67.167-47-91.5s-75.666-36.5-132.999-36.5c-36 0-69.833 4.667-101.5 14S43.665 315.667 26.998 331l28 53c16.667-13.333 37.834-24 63.501-32s53.167-12 82.5-12c36 0 63.333 6 82 18s28 28.667 28 50-8.833 37.833-26.5 49.5-44.167 17.5-79.5 17.5h-47v47l112 120h-230v58h321v-45l-118-127c44.667-3.333 78.834-15.833 102.501-37.5zm372.498 209.501h76l-478-700h-76zm289.002-601h-81v-99h-69v99H626v47l201 269h78l-194-258h152v83h63v-83h81v-58z"/><glyph glyph-name="questiondown" unicode="¿" horiz-adv-x="573" d="M248.5 425c-12.333 12-18.5 26.999-18.5 44.999s6.167 33.333 18.5 46 27.833 19 46.5 19 34.167-6.333 46.5-19 18.5-28 18.5-46c0-17.333-6.167-32.166-18.5-44.499S313.667 407 295 407s-34.167 6-46.5 18zm-115-540.501C90.5-84.501 68.999-43 68.999 9c0 26.667 4.5 50.334 13.5 71.001s19.833 38 32.5 52 29.334 30.333 50.001 49c26.667 22.667 46.667 43.167 60 61.5s20 40.5 20 66.5h100c0-25.333-4.5-47.833-13.5-67.5s-20-36.334-33-50.001-30.167-29.834-51.5-48.501c-26.667-24-46.334-44.333-59.001-61s-19-36.667-19-60c0-28 13-51.5 39-70.5s60.667-28.5 104-28.5c78 0 137.667 26.333 179 79l73-52c-28-36-63.667-63.667-107-83s-93.666-29-150.999-29c-72 0-129.5 15.5-172.5 46.5z"/><glyph glyph-name="Agrave" unicode="À" horiz-adv-x="732" d="M551 175H179L102 0H-1l317 700h99L733 0H628zm-35 80L365 598 214 255h302zM183 887h122l136-130h-90z"/><glyph glyph-name="Aacute" unicode="Á" horiz-adv-x="732" d="M551 175H179L102 0H-1l317 700h99L733 0H628zm-35 80L365 598 214 255h302zm-89 632h122L381 757h-90z"/><glyph glyph-name="Acircumflex" unicode="Â" horiz-adv-x="732" d="M551 175H179L102 0H-1l317 700h99L733 0H628zm-35 80L365 598 214 255h302zm-58 502l-92 77-92-77h-87l133 130h92l133-130h-87z"/><glyph glyph-name="Atilde" unicode="Ã" horiz-adv-x="732" d="M551 175H179L102 0H-1l317 700h99L733 0H628zm-35 80L365 598 214 255h302zM394.5 770c-11.667 6.667-26.168 16.666-43.501 29.999-10 9.333-18.667 16.166-26 20.499s-14.666 6.5-21.999 6.5c-14.667 0-26.667-5.5-36-16.5s-14.333-26.167-15-45.5h-54c1.333 37.333 10.833 67 28.5 89s40.834 33 69.501 33c16 0 30.167-3.5 42.5-10.5s26.5-17.167 42.5-30.5c11.333-9.333 20.333-16.166 27-20.499s13.667-6.5 21-6.5c14.667 0 26.667 5.333 36 16s14.333 25.334 15 44.001h54c-1.333-36-10.833-64.833-28.5-86.5S464.667 760 436 760c-16 0-29.833 3.333-41.5 10z"/><glyph glyph-name="Adieresis" unicode="Ä" horiz-adv-x="732" d="M551 175H179L102 0H-1l317 700h99L733 0H628zm-35 80L365 598 214 255h302zM237 788.5c-10 9.667-15 21.834-15 36.501s5 27 15 37 22 15 36 15 26-5 36-15 15-22.333 15-37-5-26.834-15-36.501-22-14.5-36-14.5-26 4.833-36 14.5zm186 0c-10 9.667-15 21.834-15 36.501s5 27 15 37 22 15 36 15 26-5 36-15 15-22.333 15-37-5-26.834-15-36.501-22-14.5-36-14.5-26 4.833-36 14.5z"/><glyph glyph-name="Aring" unicode="Å" horiz-adv-x="732" d="M551 175H179L102 0H-1l317 700h99L733 0H628zm-35 80L365 598 214 255h302zM287 795.5c-21.333 21-32 46.5-32 76.5s10.667 55.833 32 77.5 47.333 32.5 78 32.5c31.333 0 57.666-10.833 78.999-32.5s32-47.5 32-77.5-10.667-55.5-32-76.5S396.333 764 365 764c-30.667 0-56.667 10.5-78 31.5zM412.5 825c12.333 12.667 18.502 28.334 18.502 47.001 0 19.333-6.333 35.333-19 48s-28.334 19-47.001 19-34.167-6.333-46.5-19-18.5-28.667-18.5-48c0-18.667 6.167-34.334 18.5-47.001s27.833-19 46.5-19c19.333 0 35.166 6.333 47.499 19z"/><glyph glyph-name="AE" unicode="Æ" horiz-adv-x="1047" d="M991 87V0H483v175H205L102 0H-1l417 700h561v-87H582V398h351v-85H582V87h409zM483 255v358h-20L252 255h231z"/><glyph glyph-name="Ccedilla" unicode="Ç" horiz-adv-x="723" d="M228.5 38.5c-56.333 31-100.498 73.667-132.498 128s-48 115.5-48 183.5 16 129.167 48 183.5 76.333 97 133 128 120 46.5 190 46.5c54.667 0 104.667-9.167 150-27.5s84-45.5 116-81.5l-65-63c-52.667 55.333-118.334 83-197.001 83-52 0-99-11.667-141-35s-74.833-55.5-98.5-96.5-35.5-86.833-35.5-137.5 11.833-96.5 35.5-137.5 56.5-73.167 98.5-96.5 89-35 141-35c78 0 143.667 28 197 84l65-63c-32-36-70.833-63.333-116.5-82S472.667-8 418-8C348-8 284.833 7.5 228.5 38.5zM288.002-202l21 49c20-11.333 42.667-17 68-17 37.333 0 56 13.333 56 40 0 12-4.667 21.5-14 28.5S395.336-91 376.003-91h-27l25 98h55l-15-57c28-2.667 49.5-11.5 64.5-26.5s22.5-33.833 22.5-56.5c0-28-11.333-50.167-34-66.5s-52.667-24.5-90-24.5c-34.667 0-64.334 7.333-89.001 22z"/><glyph glyph-name="Egrave" unicode="È" horiz-adv-x="670" d="M613 87V0H105v700h494v-87H205V398h351v-85H205V87h408zM170 887h122l136-130h-90z"/><glyph glyph-name="Eacute" unicode="É" horiz-adv-x="670" d="M613 87V0H105v700h494v-87H205V398h351v-85H205V87h408zM414 887h122L368 757h-90z"/><glyph glyph-name="Ecircumflex" unicode="Ê" horiz-adv-x="670" d="M613 87V0H105v700h494v-87H205V398h351v-85H205V87h408zM445 757l-92 77-92-77h-87l133 130h92l133-130h-87z"/><glyph glyph-name="Edieresis" unicode="Ë" horiz-adv-x="670" d="M613 87V0H105v700h494v-87H205V398h351v-85H205V87h408zM224 788.5c-10 9.667-15 21.834-15 36.501s5 27 15 37 22 15 36 15 26-5 36-15 15-22.333 15-37-5-26.834-15-36.501-22-14.5-36-14.5-26 4.833-36 14.5zm186 0c-10 9.667-15 21.834-15 36.501s5 27 15 37 22 15 36 15 26-5 36-15 15-22.333 15-37-5-26.834-15-36.501-22-14.5-36-14.5-26 4.833-36 14.5z"/><glyph glyph-name="Igrave" unicode="Ì" horiz-adv-x="310" d="M105 700h100V0H105v700zM-28 887H94l136-130h-90z"/><glyph glyph-name="Iacute" unicode="Í" horiz-adv-x="310" d="M105 700h100V0H105v700zm111 187h122L170 757H80z"/><glyph glyph-name="Icircumflex" unicode="Î" horiz-adv-x="310" d="M105 700h100V0H105v700zm142 57l-92 77-92-77h-87l133 130h92l133-130h-87z"/><glyph glyph-name="Idieresis" unicode="Ï" horiz-adv-x="310" d="M105 700h100V0H105v700zm-79 88.5c-10 9.667-15 21.834-15 36.501s5 27 15 37 22 15 36 15 26-5 36-15 15-22.333 15-37-5-26.834-15-36.501S76 774 62 774s-26 4.833-36 14.5zm186 0c-10 9.667-15 21.834-15 36.501s5 27 15 37 22 15 36 15 26-5 36-15 15-22.333 15-37-5-26.834-15-36.501-22-14.5-36-14.5-26 4.833-36 14.5z"/><glyph glyph-name="Eth" unicode="Ð" horiz-adv-x="834" d="M113 700h295c74 0 139.667-14.667 197-44s101.833-70.5 133.5-123.5S786 418.667 786 350s-15.833-129.5-47.5-182.5S662.333 73.333 605 44 482 0 408 0H113v700zM402 87c56.667 0 106.5 11 149.5 33s76.167 52.833 99.5 92.5S686 298 686 350s-11.667 97.833-35 137.5-56.5 70.5-99.5 92.5-92.833 33-149.5 33H213V87h189zM11 396h400v-79H11v79z"/><glyph glyph-name="Ntilde" unicode="Ñ" horiz-adv-x="812" d="M707 700V0h-82L205 522V0H105v700h82l420-522v522h100zm-273.5 70c-11.667 6.667-26.168 16.666-43.501 29.999-10 9.333-18.667 16.166-26 20.499s-14.666 6.5-21.999 6.5c-14.667 0-26.667-5.5-36-16.5s-14.333-26.167-15-45.5h-54c1.333 37.333 10.833 67 28.5 89s40.834 33 69.501 33c16 0 30.167-3.5 42.5-10.5s26.5-17.167 42.5-30.5c11.333-9.333 20.333-16.166 27-20.499s13.667-6.5 21-6.5c14.667 0 26.667 5.333 36 16s14.333 25.334 15 44.001h54c-1.333-36-10.833-64.833-28.5-86.5S503.667 760 475 760c-16 0-29.833 3.333-41.5 10z"/><glyph glyph-name="Ograve" unicode="Ò" horiz-adv-x="840" d="M230 38.5c-56.667 31-101.167 73.833-133.5 128.5S48 282.667 48 350s16.167 128.333 48.5 183 76.833 97.5 133.5 128.5S350.334 708 421.001 708c70 0 133.333-15.5 190-46.5s101-73.667 133-128 48-115.5 48-183.5-16-129.167-48-183.5-76.333-97-133-128-120-46.5-190-46.5C350.334-8 286.667 7.5 230 38.5zM559.5 116c41 23.333 73.333 55.5 97 96.5S692 299.333 692 350s-11.833 96.5-35.5 137.5-56 73.167-97 96.5-87.167 35-138.5 35-97.833-11.667-139.5-35-74.334-55.5-98.001-96.5-35.5-86.833-35.5-137.5 11.833-96.5 35.5-137.5 56.334-73.167 98.001-96.5S369.667 81 421 81s97.5 11.667 138.5 35zM238 887h122l136-130h-90z"/><glyph glyph-name="Oacute" unicode="Ó" horiz-adv-x="840" d="M230 38.5c-56.667 31-101.167 73.833-133.5 128.5S48 282.667 48 350s16.167 128.333 48.5 183 76.833 97.5 133.5 128.5S350.334 708 421.001 708c70 0 133.333-15.5 190-46.5s101-73.667 133-128 48-115.5 48-183.5-16-129.167-48-183.5-76.333-97-133-128-120-46.5-190-46.5C350.334-8 286.667 7.5 230 38.5zM559.5 116c41 23.333 73.333 55.5 97 96.5S692 299.333 692 350s-11.833 96.5-35.5 137.5-56 73.167-97 96.5-87.167 35-138.5 35-97.833-11.667-139.5-35-74.334-55.5-98.001-96.5-35.5-86.833-35.5-137.5 11.833-96.5 35.5-137.5 56.334-73.167 98.001-96.5S369.667 81 421 81s97.5 11.667 138.5 35zM482 887h122L436 757h-90z"/><glyph glyph-name="Ocircumflex" unicode="Ô" horiz-adv-x="840" d="M230 38.5c-56.667 31-101.167 73.833-133.5 128.5S48 282.667 48 350s16.167 128.333 48.5 183 76.833 97.5 133.5 128.5S350.334 708 421.001 708c70 0 133.333-15.5 190-46.5s101-73.667 133-128 48-115.5 48-183.5-16-129.167-48-183.5-76.333-97-133-128-120-46.5-190-46.5C350.334-8 286.667 7.5 230 38.5zM559.5 116c41 23.333 73.333 55.5 97 96.5S692 299.333 692 350s-11.833 96.5-35.5 137.5-56 73.167-97 96.5-87.167 35-138.5 35-97.833-11.667-139.5-35-74.334-55.5-98.001-96.5-35.5-86.833-35.5-137.5 11.833-96.5 35.5-137.5 56.334-73.167 98.001-96.5S369.667 81 421 81s97.5 11.667 138.5 35zM513 757l-92 77-92-77h-87l133 130h92l133-130h-87z"/><glyph glyph-name="Otilde" unicode="Õ" horiz-adv-x="840" d="M230 38.5c-56.667 31-101.167 73.833-133.5 128.5S48 282.667 48 350s16.167 128.333 48.5 183 76.833 97.5 133.5 128.5S350.334 708 421.001 708c70 0 133.333-15.5 190-46.5s101-73.667 133-128 48-115.5 48-183.5-16-129.167-48-183.5-76.333-97-133-128-120-46.5-190-46.5C350.334-8 286.667 7.5 230 38.5zM559.5 116c41 23.333 73.333 55.5 97 96.5S692 299.333 692 350s-11.833 96.5-35.5 137.5-56 73.167-97 96.5-87.167 35-138.5 35-97.833-11.667-139.5-35-74.334-55.5-98.001-96.5-35.5-86.833-35.5-137.5 11.833-96.5 35.5-137.5 56.334-73.167 98.001-96.5S369.667 81 421 81s97.5 11.667 138.5 35zm-110 654c-11.667 6.667-26.168 16.666-43.501 29.999-10 9.333-18.667 16.166-26 20.499s-14.666 6.5-21.999 6.5c-14.667 0-26.667-5.5-36-16.5s-14.333-26.167-15-45.5h-54c1.333 37.333 10.833 67 28.5 89s40.834 33 69.501 33c16 0 30.167-3.5 42.5-10.5s26.5-17.167 42.5-30.5c11.333-9.333 20.333-16.166 27-20.499s13.667-6.5 21-6.5c14.667 0 26.667 5.333 36 16s14.333 25.334 15 44.001h54c-1.333-36-10.833-64.833-28.5-86.5S519.667 760 491 760c-16 0-29.833 3.333-41.5 10z"/><glyph glyph-name="Odieresis" unicode="Ö" horiz-adv-x="840" d="M230 38.5c-56.667 31-101.167 73.833-133.5 128.5S48 282.667 48 350s16.167 128.333 48.5 183 76.833 97.5 133.5 128.5S350.334 708 421.001 708c70 0 133.333-15.5 190-46.5s101-73.667 133-128 48-115.5 48-183.5-16-129.167-48-183.5-76.333-97-133-128-120-46.5-190-46.5C350.334-8 286.667 7.5 230 38.5zM559.5 116c41 23.333 73.333 55.5 97 96.5S692 299.333 692 350s-11.833 96.5-35.5 137.5-56 73.167-97 96.5-87.167 35-138.5 35-97.833-11.667-139.5-35-74.334-55.5-98.001-96.5-35.5-86.833-35.5-137.5 11.833-96.5 35.5-137.5 56.334-73.167 98.001-96.5S369.667 81 421 81s97.5 11.667 138.5 35zM292 788.5c-10 9.667-15 21.834-15 36.501s5 27 15 37 22 15 36 15 26-5 36-15 15-22.333 15-37-5-26.834-15-36.501-22-14.5-36-14.5-26 4.833-36 14.5zm186 0c-10 9.667-15 21.834-15 36.501s5 27 15 37 22 15 36 15 26-5 36-15 15-22.333 15-37-5-26.834-15-36.501-22-14.5-36-14.5-26 4.833-36 14.5z"/><glyph glyph-name="multiply" unicode="×" horiz-adv-x="582" d="M347 350l129-130-54-58-131 132-131-132-53 58 129 130-129 130 53 58 131-132 131 132 54-58z"/><glyph glyph-name="Oslash" unicode="Ø" horiz-adv-x="840" d="M230 38.5c-56.667 31-101.167 73.833-133.5 128.5S48 282.667 48 350s16.167 128.333 48.5 183 76.833 97.5 133.5 128.5S350.334 708 421.001 708c70 0 133.333-15.5 190-46.5s101-73.667 133-128 48-115.5 48-183.5-16-129.167-48-183.5-76.333-97-133-128-120-46.5-190-46.5C350.334-8 286.667 7.5 230 38.5zM559.5 116c41 23.333 73.333 55.5 97 96.5S692 299.333 692 350s-11.833 96.5-35.5 137.5-56 73.167-97 96.5-87.167 35-138.5 35-97.833-11.667-139.5-35-74.334-55.5-98.001-96.5-35.5-86.833-35.5-137.5 11.833-96.5 35.5-137.5 56.334-73.167 98.001-96.5S369.667 81 421 81s97.5 11.667 138.5 35zM683 770h78L159-70H81z"/><glyph glyph-name="Ugrave" unicode="Ù" horiz-adv-x="791" d="M177 72c-52 53.333-78 130-78 230v398h100V306c0-150 65.667-225 197-225 64 0 113 18.5 147 55.5S594 230 594 306v394h97V302c0-100.667-26-177.5-78-230.5S488.333-8 395-8 229 18.667 177 72zm36 815h122l136-130h-90z"/><glyph glyph-name="Uacute" unicode="Ú" horiz-adv-x="791" d="M177 72c-52 53.333-78 130-78 230v398h100V306c0-150 65.667-225 197-225 64 0 113 18.5 147 55.5S594 230 594 306v394h97V302c0-100.667-26-177.5-78-230.5S488.333-8 395-8 229 18.667 177 72zm280 815h122L411 757h-90z"/><glyph glyph-name="Ucircumflex" unicode="Û" horiz-adv-x="791" d="M177 72c-52 53.333-78 130-78 230v398h100V306c0-150 65.667-225 197-225 64 0 113 18.5 147 55.5S594 230 594 306v394h97V302c0-100.667-26-177.5-78-230.5S488.333-8 395-8 229 18.667 177 72zm311 685l-92 77-92-77h-87l133 130h92l133-130h-87z"/><glyph glyph-name="Udieresis" unicode="Ü" horiz-adv-x="791" d="M177 72c-52 53.333-78 130-78 230v398h100V306c0-150 65.667-225 197-225 64 0 113 18.5 147 55.5S594 230 594 306v394h97V302c0-100.667-26-177.5-78-230.5S488.333-8 395-8 229 18.667 177 72zm90 716.5c-10 9.667-15 21.834-15 36.501s5 27 15 37 22 15 36 15 26-5 36-15 15-22.333 15-37-5-26.834-15-36.501-22-14.5-36-14.5-26 4.833-36 14.5zm186 0c-10 9.667-15 21.834-15 36.501s5 27 15 37 22 15 36 15 26-5 36-15 15-22.333 15-37-5-26.834-15-36.501-22-14.5-36-14.5-26 4.833-36 14.5z"/><glyph glyph-name="Yacute" unicode="Ý" horiz-adv-x="647" d="M373 242V0h-99v244L-4 700h107l224-369 225 369h99zm12 645h122L339 757h-90z"/><glyph glyph-name="Thorn" unicode="Þ" horiz-adv-x="722" d="M592 548.5c52-43.667 78-103.5 78-179.5s-26-135.667-78-179-123.333-65-214-65H205V0H105v700h100v-86h173c90.667 0 162-21.833 214-65.5zM520 252c33.333 27.333 50 66.333 50 117s-16.667 89.667-50 117-81.666 41-144.999 41h-170V211h170c63.333 0 111.666 13.667 144.999 41z"/><glyph glyph-name="germandbls" unicode="ß" horiz-adv-x="676" d="M592 322.5c27.333-32.333 41.001-72.499 41.001-120.499 0-42.667-10.333-79.667-31-111s-49.167-55.333-85.5-72-77.833-25-124.5-25-85 5.333-115 16l15 81c26-8.667 58-13 96-13 46 0 82.333 11 109 33s40 53 40 93-14.5 71-43.5 93-67.833 33-116.5 33h-57v81c50 .667 89.333 13.167 118 37.5s43 56.833 43 97.5c0 36-12.167 64.667-36.5 86s-58.5 32-102.5 32c-48.667 0-86.667-13.833-114-41.5s-41-67.834-41-120.501V0h-96v494c0 54.667 10.667 101 32 139s51 66.667 89 86 81.333 29 130 29c46.667 0 87.667-8.667 123-26s62.333-41 81-71 28-63.667 28-101c0-36-8.333-67.667-25-95s-38.667-49.333-66-66c45.333-12 81.666-34.167 108.999-66.5z"/><glyph glyph-name="agrave" unicode="à" horiz-adv-x="598" d="M452.5 481c39-36 58.501-89.669 58.501-161.002v-320h-91v70c-16-24.667-38.833-43.5-68.5-56.5S286.667-6.002 246-6.002c-59.333 0-106.833 14.333-142.5 43S50 103.332 50 149.999s17 84.167 51 112.5 88 42.5 162 42.5h152v19c0 41.333-12 73-36 95s-59.333 33-106 33c-31.333 0-62-5.167-92-15.5S125.667 412.333 105 395l-40 72c27.333 22 60 38.833 98 50.5S241.333 535 284 535c73.333 0 129.5-18 168.5-54zM357.001 92.498c26.667 16.333 45.998 39.5 57.998 69.5v74h-148c-81.333 0-122-27.333-122-82 0-26.667 10.333-47.667 31-63s49.334-23 86.001-23 68.334 8.167 95.001 24.5zm-249.002 644.5h122l136-130h-90z"/><glyph glyph-name="aacute" unicode="á" horiz-adv-x="598" d="M452.5 481c39-36 58.501-89.669 58.501-161.002v-320h-91v70c-16-24.667-38.833-43.5-68.5-56.5S286.667-6.002 246-6.002c-59.333 0-106.833 14.333-142.5 43S50 103.332 50 149.999s17 84.167 51 112.5 88 42.5 162 42.5h152v19c0 41.333-12 73-36 95s-59.333 33-106 33c-31.333 0-62-5.167-92-15.5S125.667 412.333 105 395l-40 72c27.333 22 60 38.833 98 50.5S241.333 535 284 535c73.333 0 129.5-18 168.5-54zM357.001 92.498c26.667 16.333 45.998 39.5 57.998 69.5v74h-148c-81.333 0-122-27.333-122-82 0-26.667 10.333-47.667 31-63s49.334-23 86.001-23 68.334 8.167 95.001 24.5zm-5.002 644.5h122l-168-130h-90z"/><glyph glyph-name="acircumflex" unicode="â" horiz-adv-x="598" d="M452.5 481c39-36 58.501-89.669 58.501-161.002v-320h-91v70c-16-24.667-38.833-43.5-68.5-56.5S286.667-6.002 246-6.002c-59.333 0-106.833 14.333-142.5 43S50 103.332 50 149.999s17 84.167 51 112.5 88 42.5 162 42.5h152v19c0 41.333-12 73-36 95s-59.333 33-106 33c-31.333 0-62-5.167-92-15.5S125.667 412.333 105 395l-40 72c27.333 22 60 38.833 98 50.5S241.333 535 284 535c73.333 0 129.5-18 168.5-54zM357.001 92.498c26.667 16.333 45.998 39.5 57.998 69.5v74h-148c-81.333 0-122-27.333-122-82 0-26.667 10.333-47.667 31-63s49.334-23 86.001-23 68.334 8.167 95.001 24.5zm25.998 514.5l-92 77-92-77h-87l133 130h92l133-130h-87z"/><glyph glyph-name="atilde" unicode="ã" horiz-adv-x="598" d="M452.5 481c39-36 58.501-89.669 58.501-161.002v-320h-91v70c-16-24.667-38.833-43.5-68.5-56.5S286.667-6.002 246-6.002c-59.333 0-106.833 14.333-142.5 43S50 103.332 50 149.999s17 84.167 51 112.5 88 42.5 162 42.5h152v19c0 41.333-12 73-36 95s-59.333 33-106 33c-31.333 0-62-5.167-92-15.5S125.667 412.333 105 395l-40 72c27.333 22 60 38.833 98 50.5S241.333 535 284 535c73.333 0 129.5-18 168.5-54zM357.001 92.498c26.667 16.333 45.998 39.5 57.998 69.5v74h-148c-81.333 0-122-27.333-122-82 0-26.667 10.333-47.667 31-63s49.334-23 86.001-23 68.334 8.167 95.001 24.5zm-37.502 527.5c-11.667 6.667-26.168 16.666-43.501 29.999-10 9.333-18.667 16.166-26 20.499s-14.666 6.5-21.999 6.5c-14.667 0-26.667-5.5-36-16.5s-14.333-26.167-15-45.5h-54c1.333 37.333 10.833 67 28.5 89s40.834 33 69.501 33c16 0 30.167-3.5 42.5-10.5s26.5-17.167 42.5-30.5c11.333-9.333 20.333-16.166 27-20.499s13.667-6.5 21-6.5c14.667 0 26.667 5.333 36 16s14.333 25.334 15 44.001h54c-1.333-36-10.833-64.833-28.5-86.5s-40.834-32.5-69.501-32.5c-16 0-29.833 3.333-41.5 10z"/><glyph glyph-name="adieresis" unicode="ä" horiz-adv-x="598" d="M452.5 481c39-36 58.501-89.669 58.501-161.002v-320h-91v70c-16-24.667-38.833-43.5-68.5-56.5S286.667-6.002 246-6.002c-59.333 0-106.833 14.333-142.5 43S50 103.332 50 149.999s17 84.167 51 112.5 88 42.5 162 42.5h152v19c0 41.333-12 73-36 95s-59.333 33-106 33c-31.333 0-62-5.167-92-15.5S125.667 412.333 105 395l-40 72c27.333 22 60 38.833 98 50.5S241.333 535 284 535c73.333 0 129.5-18 168.5-54zM357.001 92.498c26.667 16.333 45.998 39.5 57.998 69.5v74h-148c-81.333 0-122-27.333-122-82 0-26.667 10.333-47.667 31-63s49.334-23 86.001-23 68.334 8.167 95.001 24.5zm-195.002 546c-10 9.667-15 21.834-15 36.501s5 27 15 37 22 15 36 15 26-5 36-15 15-22.333 15-37-5-26.834-15-36.501-22-14.5-36-14.5-26 4.833-36 14.5zm186 0c-10 9.667-15 21.834-15 36.501s5 27 15 37 22 15 36 15 26-5 36-15 15-22.333 15-37-5-26.834-15-36.501-22-14.5-36-14.5-26 4.833-36 14.5z"/><glyph glyph-name="aring" unicode="å" horiz-adv-x="598" d="M452.5 481c39-36 58.501-89.669 58.501-161.002v-320h-91v70c-16-24.667-38.833-43.5-68.5-56.5S286.667-6.002 246-6.002c-59.333 0-106.833 14.333-142.5 43S50 103.332 50 149.999s17 84.167 51 112.5 88 42.5 162 42.5h152v19c0 41.333-12 73-36 95s-59.333 33-106 33c-31.333 0-62-5.167-92-15.5S125.667 412.333 105 395l-40 72c27.333 22 60 38.833 98 50.5S241.333 535 284 535c73.333 0 129.5-18 168.5-54zM357.001 92.498c26.667 16.333 45.998 39.5 57.998 69.5v74h-148c-81.333 0-122-27.333-122-82 0-26.667 10.333-47.667 31-63s49.334-23 86.001-23 68.334 8.167 95.001 24.5zm-145.002 533c-21.333 21-32 46.5-32 76.5s10.667 55.833 32 77.5 47.333 32.5 78 32.5c31.333 0 57.666-10.833 78.999-32.5s32-47.5 32-77.5-10.667-55.5-32-76.5-47.666-31.5-78.999-31.5c-30.667 0-56.667 10.5-78 31.5zm125.5 29.5c12.333 12.667 18.502 28.334 18.502 47.001 0 19.333-6.333 35.333-19 48s-28.334 19-47.001 19-34.167-6.333-46.5-19-18.5-28.667-18.5-48c0-18.667 6.167-34.334 18.5-47.001s27.833-19 46.5-19c19.333 0 35.166 6.333 47.499 19z"/><glyph glyph-name="ae" unicode="æ" horiz-adv-x="989" d="M944 235H512.002c5.333-47.333 25.333-85.333 60-114s78.667-43 132-43c62 0 113 21.333 153 64l54-62c-24.667-28-54.834-49.333-90.501-64s-75.5-22-119.5-22c-49.333 0-94 8.833-134 26.5s-73 44.5-99 80.5c-20.667-37.333-49.667-64.5-87-81.5s-79-25.5-125-25.5c-64 0-114.333 14.667-151 44s-55 68-55 116c0 44 17 80 51 108s88 42 162 42h152v20c0 41.333-11.833 73-35.5 95S320.667 452 274 452c-32 0-63-5.167-93-15.5s-55.333-24.166-76-41.499l-40 72c27.333 22 60 38.833 98 50.5s78 17.5 120 17.5c98 0 163.667-31.333 197-94 23.333 29.333 52.5 52.333 87.5 69s73.5 25 115.5 25c50 0 95.167-11.5 135.5-34.5s71.833-54.833 94.5-95.5S947 318.667 947 268c0-12.667-1-23.667-3-33zM570.002 414c-32-26.667-51.002-63.334-57.002-110.001h339c-5.333 46.667-24.166 83.334-56.499 110.001s-70.166 40-113.499 40c-42.667 0-80-13.333-112-40zM374.5 104c27 24 40.5 56.333 40.5 97v34H267c-81.333 0-122-26.333-122-79 0-28 10.5-49.667 31.5-65s50.167-23 87.5-23c46.667 0 83.5 12 110.5 36z"/><glyph glyph-name="ccedilla" unicode="ç" horiz-adv-x="571" d="M177.5 29C135.167 52.333 102 84.498 78 125.498s-36 87.5-36 139.5 12 98.5 36 139.5 57.167 73 99.5 96 90.5 34.5 144.5 34.5c48 0 90.833-9.667 128.5-29s66.834-47.333 87.501-84l-73-47c-16.667 25.333-37.334 44.333-62.001 57s-52 19-82 19c-34.667 0-65.834-7.667-93.501-23s-49.334-37.166-65.001-65.499-23.5-60.833-23.5-97.5c0-37.333 7.833-70.166 23.5-98.499s37.334-50.166 65.001-65.499 58.834-23 93.501-23c30 0 57.333 6.333 82 19s45.334 31.667 62.001 57l73-46C517.334 71.334 488.167 43.167 450.5 23.5S370-6 322-6C268-6 219.833 5.667 177.5 29zm8.5-231.002l21 49c20-11.333 42.667-17 68-17 37.333 0 56 13.333 56 40 0 12-4.667 21.5-14 28.5s-23.666 10.5-42.999 10.5h-27l25 98h55l-15-57c28-2.667 49.5-11.5 64.5-26.5s22.5-33.833 22.5-56.5c0-28-11.333-50.167-34-66.5s-52.667-24.5-90-24.5c-34.667 0-64.334 7.333-89.001 22z"/><glyph glyph-name="egrave" unicode="è" horiz-adv-x="612" d="M568 233H137.999c6-46.667 26.5-84.167 61.5-112.5s78.5-42.5 130.5-42.5c63.333 0 114.333 21.333 153 64l53-62c-24-28-53.833-49.333-89.5-64s-75.5-22-119.5-22c-56 0-105.667 11.5-149 34.5s-76.833 55.167-100.5 96.5-35.5 88-35.5 140c0 51.333 11.5 97.666 34.5 138.999s54.667 73.5 95 96.5 85.833 34.5 136.5 34.5 95.834-11.5 135.501-34.5 70.667-55.167 93-96.5S570 315.333 570 262c0-7.333-.667-17-2-29zM192.499 412c-31-28-49.167-64.667-54.5-110h340c-5.333 44.667-23.5 81.167-54.5 109.5s-69.5 42.5-115.5 42.5-84.5-14-115.5-42zm-68.5 325h122l136-130h-90z"/><glyph glyph-name="eacute" unicode="é" horiz-adv-x="612" d="M568 233H137.999c6-46.667 26.5-84.167 61.5-112.5s78.5-42.5 130.5-42.5c63.333 0 114.333 21.333 153 64l53-62c-24-28-53.833-49.333-89.5-64s-75.5-22-119.5-22c-56 0-105.667 11.5-149 34.5s-76.833 55.167-100.5 96.5-35.5 88-35.5 140c0 51.333 11.5 97.666 34.5 138.999s54.667 73.5 95 96.5 85.833 34.5 136.5 34.5 95.834-11.5 135.501-34.5 70.667-55.167 93-96.5S570 315.333 570 262c0-7.333-.667-17-2-29zM192.499 412c-31-28-49.167-64.667-54.5-110h340c-5.333 44.667-23.5 81.167-54.5 109.5s-69.5 42.5-115.5 42.5-84.5-14-115.5-42zm175.5 325h122l-168-130h-90z"/><glyph glyph-name="ecircumflex" unicode="ê" horiz-adv-x="612" d="M568 233H137.999c6-46.667 26.5-84.167 61.5-112.5s78.5-42.5 130.5-42.5c63.333 0 114.333 21.333 153 64l53-62c-24-28-53.833-49.333-89.5-64s-75.5-22-119.5-22c-56 0-105.667 11.5-149 34.5s-76.833 55.167-100.5 96.5-35.5 88-35.5 140c0 51.333 11.5 97.666 34.5 138.999s54.667 73.5 95 96.5 85.833 34.5 136.5 34.5 95.834-11.5 135.501-34.5 70.667-55.167 93-96.5S570 315.333 570 262c0-7.333-.667-17-2-29zM192.499 412c-31-28-49.167-64.667-54.5-110h340c-5.333 44.667-23.5 81.167-54.5 109.5s-69.5 42.5-115.5 42.5-84.5-14-115.5-42zm206.5 195l-92 77-92-77h-87l133 130h92l133-130h-87z"/><glyph glyph-name="edieresis" unicode="ë" horiz-adv-x="612" d="M568 233H137.999c6-46.667 26.5-84.167 61.5-112.5s78.5-42.5 130.5-42.5c63.333 0 114.333 21.333 153 64l53-62c-24-28-53.833-49.333-89.5-64s-75.5-22-119.5-22c-56 0-105.667 11.5-149 34.5s-76.833 55.167-100.5 96.5-35.5 88-35.5 140c0 51.333 11.5 97.666 34.5 138.999s54.667 73.5 95 96.5 85.833 34.5 136.5 34.5 95.834-11.5 135.501-34.5 70.667-55.167 93-96.5S570 315.333 570 262c0-7.333-.667-17-2-29zM192.499 412c-31-28-49.167-64.667-54.5-110h340c-5.333 44.667-23.5 81.167-54.5 109.5s-69.5 42.5-115.5 42.5-84.5-14-115.5-42zm-14.5 226.5c-10 9.667-15 21.834-15 36.501s5 27 15 37 22 15 36 15 26-5 36-15 15-22.333 15-37-5-26.834-15-36.501-22-14.5-36-14.5-26 4.833-36 14.5zm186 0c-10 9.667-15 21.834-15 36.501s5 27 15 37 22 15 36 15 26-5 36-15 15-22.333 15-37-5-26.834-15-36.501-22-14.5-36-14.5-26 4.833-36 14.5z"/><glyph glyph-name="igrave" unicode="ì" horiz-adv-x="279" d="M91 530h96V0H91v530zM-44 737H78l136-130h-90z"/><glyph glyph-name="iacute" unicode="í" horiz-adv-x="279" d="M91 530h96V0H91v530zm109 207h122L154 607H64z"/><glyph glyph-name="icircumflex" unicode="î" horiz-adv-x="279" d="M91 530h96V0H91v530zm120 77l-72 74-72-74h-82L94 737h90l109-130h-82z"/><glyph glyph-name="idieresis" unicode="ï" horiz-adv-x="279" d="M91 530h96V0H91v530zM32 639.5c-9.333 9.667-14 21.5-14 35.5 0 14.667 4.667 26.834 14 36.501s21.333 14.5 36 14.5c14 0 25.667-4.833 35-14.5s14-21.834 14-36.501-4.667-26.667-14-36-21-14-35-14c-14.667 0-26.667 4.833-36 14.5zm143 0c-9.333 9.667-14 21.5-14 35.5 0 14.667 4.667 26.834 14 36.501s21 14.5 35 14.5c14.667 0 26.667-4.833 36-14.5s14-21.834 14-36.501-4.667-26.667-14-36-21.333-14-36-14c-14 0-25.667 4.833-35 14.5z"/><glyph glyph-name="eth" unicode="ð" horiz-adv-x="640" d="M598 345c0-72-11.836-134.5-35.503-187.5s-58.334-93.833-104-122.5-100.5-43-164.5-43c-47.334 0-90.167 9.167-128.5 27.5S96.997 64 74.997 98s-33 73.333-33 118 11 83.834 33 117.501 52.333 59.667 91 78 82.334 27.5 131.001 27.5c45.333 0 85.5-9.167 120.5-27.5s62.5-44.833 82.5-79.5c.667 8 1 19.333 1 34 0 99.333-26.667 173-80 221l-267-107-26 63 217 88c-29.333 9.333-60.666 14-93.999 14-52 0-100.333-7.667-145-23l-16 82c48.667 14.667 102.334 22 161.001 22 78 0 144.333-17.667 199-53l89 36 26-64-56-22c59.333-66.667 89-159.334 89-278.001zM392.497 93c26.333 13.333 46.333 30.832 60 52.499s20.5 45.167 20.5 70.5c0 26.667-7.167 50.834-21.5 72.501s-34 38.667-59 51-53.5 18.5-85.5 18.5c-52 0-93-13-123-39s-45-60.333-45-103 15-77.167 45-103.5 69-39.5 117-39.5c34.667 0 65.167 6.667 91.5 20z"/><glyph glyph-name="ntilde" unicode="ñ" horiz-adv-x="681" d="M534.5 476.5c39.667-39 59.5-96.167 59.5-171.5V0h-96v294c0 51.333-12.333 90-37 116s-60 39-106 39c-52 0-93-15.167-123-45.5s-45-73.833-45-130.5V0H91v530h92v-80c19.333 27.333 45.5 48.333 78.5 63S332 535 374 535c67.333 0 120.833-19.5 160.5-58.5zM371.5 620c-11.667 6.667-26.168 16.666-43.501 29.999-10 9.333-18.667 16.166-26 20.499s-14.666 6.5-21.999 6.5c-14.667 0-26.667-5.5-36-16.5s-14.333-26.167-15-45.5h-54c1.333 37.333 10.833 67 28.5 89s40.834 33 69.501 33c16 0 30.167-3.5 42.5-10.5s26.5-17.167 42.5-30.5c11.333-9.333 20.333-16.166 27-20.499s13.667-6.5 21-6.5c14.667 0 26.667 5.333 36 16s14.333 25.334 15 44.001h54c-1.333-36-10.833-64.833-28.5-86.5S441.667 610 413 610c-16 0-29.833 3.333-41.5 10z"/><glyph glyph-name="ograve" unicode="ò" horiz-adv-x="635" d="M176 29c-42 23.333-74.833 55.5-98.5 96.5S42 213 42 265s11.833 98.5 35.5 139.5 56.5 73 98.5 96S265.333 535 318 535s99.834-11.5 141.501-34.5 74.334-55 98.001-96 35.5-87.5 35.5-139.5-11.833-98.5-35.5-139.5-56.334-73.167-98.001-96.5S370.667-6 318-6 218 5.667 176 29zm233.5 72.5c27 15.667 48.167 37.667 63.5 66s23 60.833 23 97.5-7.667 69.167-23 97.5-36.5 50.166-63.5 65.499-57.5 23-91.5 23-64.5-7.667-91.5-23-48.333-37.166-64-65.499S139 301.667 139 265s7.833-69.167 23.5-97.5 37-50.333 64-66S284 78 318 78s64.5 7.833 91.5 23.5zM134 737h122l136-130h-90z"/><glyph glyph-name="oacute" unicode="ó" horiz-adv-x="635" d="M176 29c-42 23.333-74.833 55.5-98.5 96.5S42 213 42 265s11.833 98.5 35.5 139.5 56.5 73 98.5 96S265.333 535 318 535s99.834-11.5 141.501-34.5 74.334-55 98.001-96 35.5-87.5 35.5-139.5-11.833-98.5-35.5-139.5-56.334-73.167-98.001-96.5S370.667-6 318-6 218 5.667 176 29zm233.5 72.5c27 15.667 48.167 37.667 63.5 66s23 60.833 23 97.5-7.667 69.167-23 97.5-36.5 50.166-63.5 65.499-57.5 23-91.5 23-64.5-7.667-91.5-23-48.333-37.166-64-65.499S139 301.667 139 265s7.833-69.167 23.5-97.5 37-50.333 64-66S284 78 318 78s64.5 7.833 91.5 23.5zM378 737h122L332 607h-90z"/><glyph glyph-name="ocircumflex" unicode="ô" horiz-adv-x="635" d="M176 29c-42 23.333-74.833 55.5-98.5 96.5S42 213 42 265s11.833 98.5 35.5 139.5 56.5 73 98.5 96S265.333 535 318 535s99.834-11.5 141.501-34.5 74.334-55 98.001-96 35.5-87.5 35.5-139.5-11.833-98.5-35.5-139.5-56.334-73.167-98.001-96.5S370.667-6 318-6 218 5.667 176 29zm233.5 72.5c27 15.667 48.167 37.667 63.5 66s23 60.833 23 97.5-7.667 69.167-23 97.5-36.5 50.166-63.5 65.499-57.5 23-91.5 23-64.5-7.667-91.5-23-48.333-37.166-64-65.499S139 301.667 139 265s7.833-69.167 23.5-97.5 37-50.333 64-66S284 78 318 78s64.5 7.833 91.5 23.5zM409 607l-92 77-92-77h-87l133 130h92l133-130h-87z"/><glyph glyph-name="otilde" unicode="õ" horiz-adv-x="635" d="M176 29c-42 23.333-74.833 55.5-98.5 96.5S42 213 42 265s11.833 98.5 35.5 139.5 56.5 73 98.5 96S265.333 535 318 535s99.834-11.5 141.501-34.5 74.334-55 98.001-96 35.5-87.5 35.5-139.5-11.833-98.5-35.5-139.5-56.334-73.167-98.001-96.5S370.667-6 318-6 218 5.667 176 29zm233.5 72.5c27 15.667 48.167 37.667 63.5 66s23 60.833 23 97.5-7.667 69.167-23 97.5-36.5 50.166-63.5 65.499-57.5 23-91.5 23-64.5-7.667-91.5-23-48.333-37.166-64-65.499S139 301.667 139 265s7.833-69.167 23.5-97.5 37-50.333 64-66S284 78 318 78s64.5 7.833 91.5 23.5zm-64 518.5c-11.667 6.667-26.168 16.666-43.501 29.999-10 9.333-18.667 16.166-26 20.499s-14.666 6.5-21.999 6.5c-14.667 0-26.667-5.5-36-16.5s-14.333-26.167-15-45.5h-54c1.333 37.333 10.833 67 28.5 89s40.834 33 69.501 33c16 0 30.167-3.5 42.5-10.5s26.5-17.167 42.5-30.5c11.333-9.333 20.333-16.166 27-20.499s13.667-6.5 21-6.5c14.667 0 26.667 5.333 36 16s14.333 25.334 15 44.001h54c-1.333-36-10.833-64.833-28.5-86.5S415.667 610 387 610c-16 0-29.833 3.333-41.5 10z"/><glyph glyph-name="odieresis" unicode="ö" horiz-adv-x="635" d="M176 29c-42 23.333-74.833 55.5-98.5 96.5S42 213 42 265s11.833 98.5 35.5 139.5 56.5 73 98.5 96S265.333 535 318 535s99.834-11.5 141.501-34.5 74.334-55 98.001-96 35.5-87.5 35.5-139.5-11.833-98.5-35.5-139.5-56.334-73.167-98.001-96.5S370.667-6 318-6 218 5.667 176 29zm233.5 72.5c27 15.667 48.167 37.667 63.5 66s23 60.833 23 97.5-7.667 69.167-23 97.5-36.5 50.166-63.5 65.499-57.5 23-91.5 23-64.5-7.667-91.5-23-48.333-37.166-64-65.499S139 301.667 139 265s7.833-69.167 23.5-97.5 37-50.333 64-66S284 78 318 78s64.5 7.833 91.5 23.5zM188 638.5c-10 9.667-15 21.834-15 36.501s5 27 15 37 22 15 36 15 26-5 36-15 15-22.333 15-37-5-26.834-15-36.501-22-14.5-36-14.5-26 4.833-36 14.5zm186 0c-10 9.667-15 21.834-15 36.501s5 27 15 37 22 15 36 15 26-5 36-15 15-22.333 15-37-5-26.834-15-36.501-22-14.5-36-14.5-26 4.833-36 14.5z"/><glyph glyph-name="divide" unicode="÷" horiz-adv-x="582" d="M250.5 504.5c-11 11.667-16.5 25.832-16.5 42.499 0 17.333 5.5 31.666 16.5 42.999s24.5 17 40.5 17c16.667 0 30.5-5.667 41.5-17s16.5-25.666 16.5-42.999-5.5-31.666-16.5-42.999-24.833-17-41.5-17c-16 0-29.5 5.833-40.5 17.5zM67 388.998h448v-79H67v79zm183.5-278.5c-11 11.667-16.5 26.167-16.5 43.5 0 16.667 5.5 30.667 16.5 42s24.5 17 40.5 17c16.667 0 30.5-5.667 41.5-17s16.5-25.333 16.5-42c0-17.333-5.5-31.833-16.5-43.5s-24.833-17.5-41.5-17.5c-16 0-29.5 5.833-40.5 17.5z"/><glyph glyph-name="oslash" unicode="ø" horiz-adv-x="635" d="M176 29c-42 23.333-74.833 55.5-98.5 96.5S42 213 42 265s11.833 98.5 35.5 139.5 56.5 73 98.5 96S265.333 535 318 535s99.834-11.5 141.501-34.5 74.334-55 98.001-96 35.5-87.5 35.5-139.5-11.833-98.5-35.5-139.5-56.334-73.167-98.001-96.5S370.667-6 318-6 218 5.667 176 29zm233.5 72.5c27 15.667 48.167 37.667 63.5 66s23 60.833 23 97.5-7.667 69.167-23 97.5-36.5 50.166-63.5 65.499-57.5 23-91.5 23-64.5-7.667-91.5-23-48.333-37.166-64-65.499S139 301.667 139 265s7.833-69.167 23.5-97.5 37-50.333 64-66S284 78 318 78s64.5 7.833 91.5 23.5zM508 598h59L127-71H67z"/><glyph glyph-name="ugrave" unicode="ù" horiz-adv-x="677" d="M585 530l.001-530.001h-91v80c-19.333-27.333-44.833-48.5-76.5-63.5s-66.167-22.5-103.5-22.5c-70.667 0-126.334 19.5-167.001 58.5s-61 96.5-61 172.5v305h96v-294c0-51.333 12.333-90.166 37-116.499S279 80 325 80c50.667 0 90.667 15.333 120 46s44 74 44 130v274h96zM153.001 736.999h122l136-130h-90z"/><glyph glyph-name="uacute" unicode="ú" horiz-adv-x="677" d="M585 530l.001-530.001h-91v80c-19.333-27.333-44.833-48.5-76.5-63.5s-66.167-22.5-103.5-22.5c-70.667 0-126.334 19.5-167.001 58.5s-61 96.5-61 172.5v305h96v-294c0-51.333 12.333-90.166 37-116.499S279 80 325 80c50.667 0 90.667 15.333 120 46s44 74 44 130v274h96zM397.001 736.999h122l-168-130h-90z"/><glyph glyph-name="ucircumflex" unicode="û" horiz-adv-x="677" d="M585 530l.001-530.001h-91v80c-19.333-27.333-44.833-48.5-76.5-63.5s-66.167-22.5-103.5-22.5c-70.667 0-126.334 19.5-167.001 58.5s-61 96.5-61 172.5v305h96v-294c0-51.333 12.333-90.166 37-116.499S279 80 325 80c50.667 0 90.667 15.333 120 46s44 74 44 130v274h96zm-156.999 76.999l-92 77-92-77h-87l133 130h92l133-130h-87z"/><glyph glyph-name="udieresis" unicode="ü" horiz-adv-x="677" d="M585 530l.001-530.001h-91v80c-19.333-27.333-44.833-48.5-76.5-63.5s-66.167-22.5-103.5-22.5c-70.667 0-126.334 19.5-167.001 58.5s-61 96.5-61 172.5v305h96v-294c0-51.333 12.333-90.166 37-116.499S279 80 325 80c50.667 0 90.667 15.333 120 46s44 74 44 130v274h96zM207.001 638.499c-10 9.667-15 21.834-15 36.501s5 27 15 37 22 15 36 15 26-5 36-15 15-22.333 15-37-5-26.834-15-36.501-22-14.5-36-14.5-26 4.833-36 14.5zm186 0c-10 9.667-15 21.834-15 36.501s5 27 15 37 22 15 36 15 26-5 36-15 15-22.333 15-37-5-26.834-15-36.501-22-14.5-36-14.5-26 4.833-36 14.5z"/><glyph glyph-name="yacute" unicode="ý" horiz-adv-x="559" d="M560 530L302.999-53c-22.667-54-49.167-92-79.5-114s-66.833-33-109.5-33c-26 0-51.167 4.167-75.5 12.5s-44.5 20.5-60.5 36.5l41 72c27.333-26 59-39 95-39 23.333 0 42.833 6.167 58.5 18.5S202.333-66 215-36l17 37L-2 530H98l185-424 183 424h94zM326.999 737h122l-168-130h-90z"/><glyph glyph-name="thorn" unicode="þ" horiz-adv-x="682" d="M510 501c40.667-22.667 72.499-54.332 95.499-94.999s34.5-87.667 34.5-141-11.5-100.5-34.5-141.5-54.833-72.833-95.5-95.5-86.667-34-138-34c-38 0-72.833 7.333-104.5 22s-58.5 36-80.5 64v-274h-96v936h96v-291c21.333 27.333 47.833 48.166 79.5 62.499S333.333 535 372 535c51.333 0 97.333-11.333 138-34zm-54.501-399.498c27 15.667 48.335 37.668 64.002 66.001s23.5 60.833 23.5 97.5-7.833 69.167-23.5 97.5-37 50.166-64 65.499-57.5 23-91.5 23c-33.333 0-63.5-7.833-90.5-23.5s-48.333-37.5-64-65.5-23.5-60.333-23.5-97 7.667-69.167 23-97.5 36.666-50.333 63.999-66 57.666-23.5 90.999-23.5c34 0 64.5 7.833 91.5 23.5z"/><glyph glyph-name="ydieresis" unicode="ÿ" horiz-adv-x="559" d="M560 530L302.999-53c-22.667-54-49.167-92-79.5-114s-66.833-33-109.5-33c-26 0-51.167 4.167-75.5 12.5s-44.5 20.5-60.5 36.5l41 72c27.333-26 59-39 95-39 23.333 0 42.833 6.167 58.5 18.5S202.333-66 215-36l17 37L-2 530H98l185-424 183 424h94zM136.999 638.5c-10 9.667-15 21.834-15 36.501s5 27 15 37 22 15 36 15 26-5 36-15 15-22.333 15-37-5-26.834-15-36.501-22-14.5-36-14.5-26 4.833-36 14.5zm186 0c-10 9.667-15 21.834-15 36.501s5 27 15 37 22 15 36 15 26-5 36-15 15-22.333 15-37-5-26.834-15-36.501-22-14.5-36-14.5-26 4.833-36 14.5z"/><glyph glyph-name="Amacron" unicode="Ā" horiz-adv-x="732" d="M551 175H179L102 0H-1l317 700h99L733 0H628zm-35 80L365 598 214 255h302zM203 852h326v-60H203v60z"/><glyph glyph-name="amacron" unicode="ā" horiz-adv-x="598" d="M452.5 481c39-36 58.501-89.669 58.501-161.002v-320h-91v70c-16-24.667-38.833-43.5-68.5-56.5S286.667-6.002 246-6.002c-59.333 0-106.833 14.333-142.5 43S50 103.332 50 149.999s17 84.167 51 112.5 88 42.5 162 42.5h152v19c0 41.333-12 73-36 95s-59.333 33-106 33c-31.333 0-62-5.167-92-15.5S125.667 412.333 105 395l-40 72c27.333 22 60 38.833 98 50.5S241.333 535 284 535c73.333 0 129.5-18 168.5-54zM357.001 92.498c26.667 16.333 45.998 39.5 57.998 69.5v74h-148c-81.333 0-122-27.333-122-82 0-26.667 10.333-47.667 31-63s49.334-23 86.001-23 68.334 8.167 95.001 24.5zm-229.002 609.5h326v-60h-326v60z"/><glyph glyph-name="Abreve" unicode="Ă" horiz-adv-x="732" d="M551 175H179L102 0H-1l317 700h99L733 0H628zm-35 80L365 598 214 255h302zM251.5 788c-30.333 24.667-46.166 57.667-47.499 99h65c.667-24 10.167-43.333 28.5-58s41.166-22 68.499-22 50.166 7.333 68.499 22 27.833 34 28.5 58h65c-1.333-41.333-17.166-74.333-47.499-99S412 751 366 751s-84.167 12.333-114.5 37z"/><glyph glyph-name="abreve" unicode="ă" horiz-adv-x="598" d="M452.5 481c39-36 58.501-89.669 58.501-161.002v-320h-91v70c-16-24.667-38.833-43.5-68.5-56.5S286.667-6.002 246-6.002c-59.333 0-106.833 14.333-142.5 43S50 103.332 50 149.999s17 84.167 51 112.5 88 42.5 162 42.5h152v19c0 41.333-12 73-36 95s-59.333 33-106 33c-31.333 0-62-5.167-92-15.5S125.667 412.333 105 395l-40 72c27.333 22 60 38.833 98 50.5S241.333 535 284 535c73.333 0 129.5-18 168.5-54zM357.001 92.498c26.667 16.333 45.998 39.5 57.998 69.5v74h-148c-81.333 0-122-27.333-122-82 0-26.667 10.333-47.667 31-63s49.334-23 86.001-23 68.334 8.167 95.001 24.5zm-180.502 545.5c-30.333 24.667-46.166 57.667-47.499 99h65c.667-24 10.167-43.333 28.5-58s41.166-22 68.499-22 50.166 7.333 68.499 22 27.833 34 28.5 58h65c-1.333-41.333-17.166-74.333-47.499-99s-68.5-37-114.5-37-84.167 12.333-114.5 37z"/><glyph glyph-name="Aogonek" unicode="Ą" horiz-adv-x="732" d="M551 175H179L102 0H-1l317 700h99L733 0H628zm-35 80L365 598 214 255h302zm61-451.5c-21.333 18.333-32.002 42.833-32.002 73.5 0 29.333 11.333 57.5 34 84.5s59 50.5 109 70.5l45-32c-42.667-18.667-73.167-37.5-91.5-56.5s-27.5-38.833-27.5-59.5c0-16 5.667-28.667 17-38s26-14 44-14c24.667 0 45.334 5.667 62.001 17l18-49c-25.333-16-55.333-24-90-24-37.333 0-66.666 9.167-87.999 27.5z"/><glyph glyph-name="aogonek" unicode="ą" horiz-adv-x="598" d="M452.5 481c39-36 58.501-89.669 58.501-161.002v-320h-91v70c-16-24.667-38.833-43.5-68.5-56.5S286.667-6.002 246-6.002c-59.333 0-106.833 14.333-142.5 43S50 103.332 50 149.999s17 84.167 51 112.5 88 42.5 162 42.5h152v19c0 41.333-12 73-36 95s-59.333 33-106 33c-31.333 0-62-5.167-92-15.5S125.667 412.333 105 395l-40 72c27.333 22 60 38.833 98 50.5S241.333 535 284 535c73.333 0 129.5-18 168.5-54zM357.001 92.498c26.667 16.333 45.998 39.5 57.998 69.5v74h-148c-81.333 0-122-27.333-122-82 0-26.667 10.333-47.667 31-63s49.334-23 86.001-23 68.334 8.167 95.001 24.5zm-2.002-289c-21.333 18.333-32.002 42.833-32.002 73.5 0 29.333 11.333 57.5 34 84.5s59 50.5 109 70.5l45-32c-42.667-18.667-73.167-37.5-91.5-56.5s-27.5-38.833-27.5-59.5c0-16 5.667-28.667 17-38s26-14 44-14c24.667 0 45.334 5.667 62.001 17l18-49c-25.333-16-55.333-24-90-24-37.333 0-66.666 9.167-87.999 27.5z"/><glyph glyph-name="Cacute" unicode="Ć" horiz-adv-x="723" d="M228.5 38.5c-56.333 31-100.498 73.667-132.498 128s-48 115.5-48 183.5 16 129.167 48 183.5 76.333 97 133 128 120 46.5 190 46.5c54.667 0 104.667-9.167 150-27.5s84-45.5 116-81.5l-65-63c-52.667 55.333-118.334 83-197.001 83-52 0-99-11.667-141-35s-74.833-55.5-98.5-96.5-35.5-86.833-35.5-137.5 11.833-96.5 35.5-137.5 56.5-73.167 98.5-96.5 89-35 141-35c78 0 143.667 28 197 84l65-63c-32-36-70.833-63.333-116.5-82S472.667-8 418-8C348-8 284.833 7.5 228.5 38.5zM472.002 887h122l-168-130h-90z"/><glyph glyph-name="cacute" unicode="ć" horiz-adv-x="571" d="M177.5 29C135.167 52.333 102 84.498 78 125.498s-36 87.5-36 139.5 12 98.5 36 139.5 57.167 73 99.5 96 90.5 34.5 144.5 34.5c48 0 90.833-9.667 128.5-29s66.834-47.333 87.501-84l-73-47c-16.667 25.333-37.334 44.333-62.001 57s-52 19-82 19c-34.667 0-65.834-7.667-93.501-23s-49.334-37.166-65.001-65.499-23.5-60.833-23.5-97.5c0-37.333 7.833-70.166 23.5-98.499s37.334-50.166 65.001-65.499 58.834-23 93.501-23c30 0 57.333 6.333 82 19s45.334 31.667 62.001 57l73-46C517.334 71.334 488.167 43.167 450.5 23.5S370-6 322-6C268-6 219.833 5.667 177.5 29zM364 736.998h122l-168-130h-90z"/><glyph glyph-name="Ccircumflex" unicode="Ĉ" horiz-adv-x="723" d="M228.5 38.5c-56.333 31-100.498 73.667-132.498 128s-48 115.5-48 183.5 16 129.167 48 183.5 76.333 97 133 128 120 46.5 190 46.5c54.667 0 104.667-9.167 150-27.5s84-45.5 116-81.5l-65-63c-52.667 55.333-118.334 83-197.001 83-52 0-99-11.667-141-35s-74.833-55.5-98.5-96.5-35.5-86.833-35.5-137.5 11.833-96.5 35.5-137.5 56.5-73.167 98.5-96.5 89-35 141-35c78 0 143.667 28 197 84l65-63c-32-36-70.833-63.333-116.5-82S472.667-8 418-8C348-8 284.833 7.5 228.5 38.5zM503.002 757l-92 77-92-77h-87l133 130h92l133-130h-87z"/><glyph glyph-name="ccircumflex" unicode="ĉ" horiz-adv-x="571" d="M177.5 29C135.167 52.333 102 84.498 78 125.498s-36 87.5-36 139.5 12 98.5 36 139.5 57.167 73 99.5 96 90.5 34.5 144.5 34.5c48 0 90.833-9.667 128.5-29s66.834-47.333 87.501-84l-73-47c-16.667 25.333-37.334 44.333-62.001 57s-52 19-82 19c-34.667 0-65.834-7.667-93.501-23s-49.334-37.166-65.001-65.499-23.5-60.833-23.5-97.5c0-37.333 7.833-70.166 23.5-98.499s37.334-50.166 65.001-65.499 58.834-23 93.501-23c30 0 57.333 6.333 82 19s45.334 31.667 62.001 57l73-46C517.334 71.334 488.167 43.167 450.5 23.5S370-6 322-6C268-6 219.833 5.667 177.5 29zM395 606.998l-92 77-92-77h-87l133 130h92l133-130h-87z"/><glyph glyph-name="Cdotaccent" unicode="Ċ" horiz-adv-x="723" d="M228.5 38.5c-56.333 31-100.498 73.667-132.498 128s-48 115.5-48 183.5 16 129.167 48 183.5 76.333 97 133 128 120 46.5 190 46.5c54.667 0 104.667-9.167 150-27.5s84-45.5 116-81.5l-65-63c-52.667 55.333-118.334 83-197.001 83-52 0-99-11.667-141-35s-74.833-55.5-98.5-96.5-35.5-86.833-35.5-137.5 11.833-96.5 35.5-137.5 56.5-73.167 98.5-96.5 89-35 141-35c78 0 143.667 28 197 84l65-63c-32-36-70.833-63.333-116.5-82S472.667-8 418-8C348-8 284.833 7.5 228.5 38.5zM369.002 792c-11.333 11.333-17 25.333-17 42s5.667 30.667 17 42 25.333 17 42 17 30.667-5.667 42-17 17-25.333 17-42-5.667-30.667-17-42-25.333-17-42-17-30.667 5.667-42 17z"/><glyph glyph-name="cdotaccent" unicode="ċ" horiz-adv-x="571" d="M177.5 29C135.167 52.333 102 84.498 78 125.498s-36 87.5-36 139.5 12 98.5 36 139.5 57.167 73 99.5 96 90.5 34.5 144.5 34.5c48 0 90.833-9.667 128.5-29s66.834-47.333 87.501-84l-73-47c-16.667 25.333-37.334 44.333-62.001 57s-52 19-82 19c-34.667 0-65.834-7.667-93.501-23s-49.334-37.166-65.001-65.499-23.5-60.833-23.5-97.5c0-37.333 7.833-70.166 23.5-98.499s37.334-50.166 65.001-65.499 58.834-23 93.501-23c30 0 57.333 6.333 82 19s45.334 31.667 62.001 57l73-46C517.334 71.334 488.167 43.167 450.5 23.5S370-6 322-6C268-6 219.833 5.667 177.5 29zM261 641.998c-11.333 11.333-17 25.333-17 42s5.667 30.667 17 42 25.333 17 42 17 30.667-5.667 42-17 17-25.333 17-42-5.667-30.667-17-42-25.333-17-42-17-30.667 5.667-42 17z"/><glyph glyph-name="Ccaron" unicode="Č" horiz-adv-x="723" d="M228.5 38.5c-56.333 31-100.498 73.667-132.498 128s-48 115.5-48 183.5 16 129.167 48 183.5 76.333 97 133 128 120 46.5 190 46.5c54.667 0 104.667-9.167 150-27.5s84-45.5 116-81.5l-65-63c-52.667 55.333-118.334 83-197.001 83-52 0-99-11.667-141-35s-74.833-55.5-98.5-96.5-35.5-86.833-35.5-137.5 11.833-96.5 35.5-137.5 56.5-73.167 98.5-96.5 89-35 141-35c78 0 143.667 28 197 84l65-63c-32-36-70.833-63.333-116.5-82S472.667-8 418-8C348-8 284.833 7.5 228.5 38.5zM590.002 887l-133-130h-92l-133 130h87l92-76 92 76h87z"/><glyph glyph-name="ccaron" unicode="č" horiz-adv-x="571" d="M177.5 29C135.167 52.333 102 84.498 78 125.498s-36 87.5-36 139.5 12 98.5 36 139.5 57.167 73 99.5 96 90.5 34.5 144.5 34.5c48 0 90.833-9.667 128.5-29s66.834-47.333 87.501-84l-73-47c-16.667 25.333-37.334 44.333-62.001 57s-52 19-82 19c-34.667 0-65.834-7.667-93.501-23s-49.334-37.166-65.001-65.499-23.5-60.833-23.5-97.5c0-37.333 7.833-70.166 23.5-98.499s37.334-50.166 65.001-65.499 58.834-23 93.501-23c30 0 57.333 6.333 82 19s45.334 31.667 62.001 57l73-46C517.334 71.334 488.167 43.167 450.5 23.5S370-6 322-6C268-6 219.833 5.667 177.5 29zM482 736.998l-133-130h-92l-133 130h87l92-76 92 76h87z"/><glyph glyph-name="Dcaron" unicode="Ď" horiz-adv-x="826" d="M105 700h295c74 0 139.667-14.667 197-44s101.833-70.5 133.5-123.5S778 418.667 778 350s-15.833-129.5-47.5-182.5S654.333 73.333 597 44 474 0 400 0H105v700zM394 87c56.667 0 106.5 11 149.5 33s76.167 52.833 99.5 92.5S678 298 678 350s-11.667 97.833-35 137.5-56.5 70.5-99.5 92.5-92.833 33-149.5 33H205V87h189zm164 799L425 756h-92L200 886h87l92-76 92 76h87z"/><glyph glyph-name="dcaron" unicode="ď" horiz-adv-x="682" d="M591 742V-.002h-92v84c-21.333-29.333-48.333-51.666-81-66.999s-68.667-23-108-23c-51.333 0-97.333 11.333-138 34s-72.5 54.5-95.5 95.5S42 211.666 42 264.999s11.5 100.333 34.5 141S131.333 478.333 172 501s86.667 34 138 34c38 0 73-7.167 105-21.5s58.667-35.5 80-63.5v292h96zM409 101.498c27.333 15.667 48.666 37.667 63.999 66s23 60.833 23 97.5-7.667 69.167-23 97.5-36.666 50.166-63.999 65.499-57.666 23-90.999 23c-34 0-64.5-7.667-91.5-23s-48.333-37.166-64-65.499-23.5-60.833-23.5-97.5 7.833-69.167 23.5-97.5 37-50.333 64-66 57.5-23.5 91.5-23.5c33.333 0 63.666 7.833 90.999 23.5zm271 673.5h79l-12-193h-67v193z"/><glyph glyph-name="Dcroat" unicode="Đ" horiz-adv-x="834" d="M113 700h295c74 0 139.667-14.667 197-44s101.833-70.5 133.5-123.5S786 418.667 786 350s-15.833-129.5-47.5-182.5S662.333 73.333 605 44 482 0 408 0H113v700zM402 87c56.667 0 106.5 11 149.5 33s76.167 52.833 99.5 92.5S686 298 686 350s-11.667 97.833-35 137.5-56.5 70.5-99.5 92.5-92.833 33-149.5 33H213V87h189zM11 396h400v-79H11v79z"/><glyph glyph-name="dcroat" unicode="đ" horiz-adv-x="682" d="M591 742V-.002h-92v84c-21.333-29.333-48.333-51.666-81-66.999s-68.667-23-108-23c-51.333 0-97.333 11.333-138 34s-72.5 54.5-95.5 95.5S42 211.666 42 264.999s11.5 100.333 34.5 141S131.333 478.333 172 501s86.667 34 138 34c38 0 73-7.167 105-21.5s58.667-35.5 80-63.5v292h96zM409 101.498c27.333 15.667 48.666 37.667 63.999 66s23 60.833 23 97.5-7.667 69.167-23 97.5-36.666 50.166-63.999 65.499-57.666 23-90.999 23c-34 0-64.5-7.667-91.5-23s-48.333-37.166-64-65.499-23.5-60.833-23.5-97.5 7.833-69.167 23.5-97.5 37-50.333 64-66 57.5-23.5 91.5-23.5c33.333 0 63.666 7.833 90.999 23.5zm-123 566.5h396v-68H286v68z"/><glyph glyph-name="Emacron" unicode="Ē" horiz-adv-x="670" d="M613 87V0H105v700h494v-87H205V398h351v-85H205V87h408zM190 852h326v-60H190v60z"/><glyph glyph-name="emacron" unicode="ē" horiz-adv-x="612" d="M568 233H137.999c6-46.667 26.5-84.167 61.5-112.5s78.5-42.5 130.5-42.5c63.333 0 114.333 21.333 153 64l53-62c-24-28-53.833-49.333-89.5-64s-75.5-22-119.5-22c-56 0-105.667 11.5-149 34.5s-76.833 55.167-100.5 96.5-35.5 88-35.5 140c0 51.333 11.5 97.666 34.5 138.999s54.667 73.5 95 96.5 85.833 34.5 136.5 34.5 95.834-11.5 135.501-34.5 70.667-55.167 93-96.5S570 315.333 570 262c0-7.333-.667-17-2-29zM192.499 412c-31-28-49.167-64.667-54.5-110h340c-5.333 44.667-23.5 81.167-54.5 109.5s-69.5 42.5-115.5 42.5-84.5-14-115.5-42zm-48.5 290h326v-60h-326v60z"/><glyph glyph-name="Ebreve" unicode="Ĕ" horiz-adv-x="670" d="M613 87V0H105v700h494v-87H205V398h351v-85H205V87h408zM238.5 788c-30.333 24.667-46.166 57.667-47.499 99h65c.667-24 10.167-43.333 28.5-58s41.166-22 68.499-22 50.166 7.333 68.499 22 27.833 34 28.5 58h65c-1.333-41.333-17.166-74.333-47.499-99S399 751 353 751s-84.167 12.333-114.5 37z"/><glyph glyph-name="ebreve" unicode="ĕ" horiz-adv-x="612" d="M568 233H137.999c6-46.667 26.5-84.167 61.5-112.5s78.5-42.5 130.5-42.5c63.333 0 114.333 21.333 153 64l53-62c-24-28-53.833-49.333-89.5-64s-75.5-22-119.5-22c-56 0-105.667 11.5-149 34.5s-76.833 55.167-100.5 96.5-35.5 88-35.5 140c0 51.333 11.5 97.666 34.5 138.999s54.667 73.5 95 96.5 85.833 34.5 136.5 34.5 95.834-11.5 135.501-34.5 70.667-55.167 93-96.5S570 315.333 570 262c0-7.333-.667-17-2-29zM192.499 412c-31-28-49.167-64.667-54.5-110h340c-5.333 44.667-23.5 81.167-54.5 109.5s-69.5 42.5-115.5 42.5-84.5-14-115.5-42zm0 226c-30.333 24.667-46.166 57.667-47.499 99h65c.667-24 10.167-43.333 28.5-58s41.166-22 68.499-22 50.166 7.333 68.499 22 27.833 34 28.5 58h65c-1.333-41.333-17.166-74.333-47.499-99s-68.5-37-114.5-37-84.167 12.333-114.5 37z"/><glyph glyph-name="Edotaccent" unicode="Ė" horiz-adv-x="670" d="M613 87V0H105v700h494v-87H205V398h351v-85H205V87h408zM311 792c-11.333 11.333-17 25.333-17 42s5.667 30.667 17 42 25.333 17 42 17 30.667-5.667 42-17 17-25.333 17-42-5.667-30.667-17-42-25.333-17-42-17-30.667 5.667-42 17z"/><glyph glyph-name="edotaccent" unicode="ė" horiz-adv-x="612" d="M568 233H137.999c6-46.667 26.5-84.167 61.5-112.5s78.5-42.5 130.5-42.5c63.333 0 114.333 21.333 153 64l53-62c-24-28-53.833-49.333-89.5-64s-75.5-22-119.5-22c-56 0-105.667 11.5-149 34.5s-76.833 55.167-100.5 96.5-35.5 88-35.5 140c0 51.333 11.5 97.666 34.5 138.999s54.667 73.5 95 96.5 85.833 34.5 136.5 34.5 95.834-11.5 135.501-34.5 70.667-55.167 93-96.5S570 315.333 570 262c0-7.333-.667-17-2-29zM192.499 412c-31-28-49.167-64.667-54.5-110h340c-5.333 44.667-23.5 81.167-54.5 109.5s-69.5 42.5-115.5 42.5-84.5-14-115.5-42zm72.5 230c-11.333 11.333-17 25.333-17 42s5.667 30.667 17 42 25.333 17 42 17 30.667-5.667 42-17 17-25.333 17-42-5.667-30.667-17-42-25.333-17-42-17-30.667 5.667-42 17z"/><glyph glyph-name="Eogonek" unicode="Ę" horiz-adv-x="670" d="M613 87V0H105v700h494v-87H205V398h351v-85H205V87h408zM457-196.5c-21.333 18.333-32.002 42.833-32.002 73.5 0 29.333 11.333 57.5 34 84.5s59 50.5 109 70.5l45-32c-42.667-18.667-73.167-37.5-91.5-56.5s-27.5-38.833-27.5-59.5c0-16 5.667-28.667 17-38s26-14 44-14c24.667 0 45.334 5.667 62.001 17l18-49c-25.333-16-55.333-24-90-24-37.333 0-66.666 9.167-87.999 27.5z"/><glyph glyph-name="eogonek" unicode="ę" horiz-adv-x="612" d="M568 233H137.999c6-46.667 26.5-84.167 61.5-112.5s78.5-42.5 130.5-42.5c63.333 0 114.333 21.333 153 64l53-62c-6-6.667-13.167-13.667-21.5-21S500.333 46.667 497 44c-42-35.333-71.333-65.166-88-89.499s-25-46.833-25-67.5c0-18 5.667-31.667 17-41s26.333-14 45-14c10.667 0 21.5 1.5 32.5 4.5s20.5 7.167 28.5 12.5l19-49c-26.667-16-56.667-24-90-24-36.667 0-65.834 9.5-87.501 28.5s-32.5 44.5-32.5 76.5c0 41.333 16.333 79.666 49 114.999-16-1.333-28.667-2-38-2-56 0-105.667 11.5-149 34.5s-76.833 55.167-100.5 96.5-35.5 88-35.5 140c0 51.333 11.5 97.666 34.5 138.999s54.667 73.5 95 96.5 85.833 34.5 136.5 34.5 95.834-11.5 135.501-34.5 70.667-55.167 93-96.5S570 315.333 570 262c0-7.333-.667-17-2-29zM192.499 412c-31-28-49.167-64.667-54.5-110h340c-5.333 44.667-23.5 81.167-54.5 109.5s-69.5 42.5-115.5 42.5-84.5-14-115.5-42z"/><glyph glyph-name="Ecaron" unicode="Ě" horiz-adv-x="670" d="M613 87V0H105v700h494v-87H205V398h351v-85H205V87h408zm-81 800L399 757h-92L174 887h87l92-76 92 76h87z"/><glyph glyph-name="ecaron" unicode="ě" horiz-adv-x="612" d="M568 233H137.999c6-46.667 26.5-84.167 61.5-112.5s78.5-42.5 130.5-42.5c63.333 0 114.333 21.333 153 64l53-62c-24-28-53.833-49.333-89.5-64s-75.5-22-119.5-22c-56 0-105.667 11.5-149 34.5s-76.833 55.167-100.5 96.5-35.5 88-35.5 140c0 51.333 11.5 97.666 34.5 138.999s54.667 73.5 95 96.5 85.833 34.5 136.5 34.5 95.834-11.5 135.501-34.5 70.667-55.167 93-96.5S570 315.333 570 262c0-7.333-.667-17-2-29zM192.499 412c-31-28-49.167-64.667-54.5-110h340c-5.333 44.667-23.5 81.167-54.5 109.5s-69.5 42.5-115.5 42.5-84.5-14-115.5-42zm293.5 325l-133-130h-92l-133 130h87l92-76 92 76h87z"/><glyph glyph-name="Gcircumflex" unicode="Ĝ" horiz-adv-x="772" d="M590 354l95.999-.002v-273c-34.667-28.667-75-50.667-121-66s-94-23-144-23c-70.667 0-134.334 15.5-191.001 46.5s-101.167 73.667-133.5 128-48.5 115.5-48.5 183.5 16.167 129.333 48.5 184 77 97.334 134 128.001 121.167 46 192.5 46c56 0 106.833-9.167 152.5-27.5s84.5-45.166 116.5-80.499l-62-62c-56 54-123.667 81-203 81-53.333 0-101.166-11.5-143.499-34.5s-75.5-55-99.5-96-36-87.167-36-138.5c0-50.667 12-96.5 36-137.5s57.167-73.167 99.5-96.5 89.833-35 142.5-35C488.666 81 543.333 96 590 126v228zm-88.001 402.998l-92 77-92-77h-87l133 130h92l133-130h-87z"/><glyph glyph-name="gcircumflex" unicode="ĝ" horiz-adv-x="690" d="M598 530V72c0-92.667-23-161.167-69-205.5S414.333-200 323-200c-50 0-97.667 6.833-143 20.5S98-146.333 70-121l46 74c24.667-21.333 55.167-38.166 91.5-50.499s73.833-18.5 112.5-18.5c62 0 107.833 14.667 137.5 44s44.5 74 44.5 134v42c-22.667-27.333-50.5-47.833-83.5-61.5s-68.833-20.5-107.5-20.5c-50.667 0-96.5 10.833-137.5 32.5s-73.167 52-96.5 91-35 83.5-35 133.5 11.667 94.5 35 133.5 55.5 69.167 96.5 90.5 86.833 32 137.5 32c40 0 77.167-7.333 111.5-22S485 476.667 507 448v82h91zM415.5 128c27.667 14.667 49.331 35.167 64.998 61.5s23.5 56.166 23.5 89.499c0 51.333-17 92.833-51 124.5s-77.667 47.5-131 47.5c-54 0-98-15.833-132-47.5s-51-73.167-51-124.5c0-33.333 7.833-63.166 23.5-89.499s37.334-46.833 65.001-61.5 59.167-22 94.5-22c34.667 0 65.834 7.333 93.501 22zm5.497 479l-92 77-92-77h-87l133 130h92l133-130h-87z"/><glyph glyph-name="Gbreve" unicode="Ğ" horiz-adv-x="772" d="M590 354l95.999-.002v-273c-34.667-28.667-75-50.667-121-66s-94-23-144-23c-70.667 0-134.334 15.5-191.001 46.5s-101.167 73.667-133.5 128-48.5 115.5-48.5 183.5 16.167 129.333 48.5 184 77 97.334 134 128.001 121.167 46 192.5 46c56 0 106.833-9.167 152.5-27.5s84.5-45.166 116.5-80.499l-62-62c-56 54-123.667 81-203 81-53.333 0-101.166-11.5-143.499-34.5s-75.5-55-99.5-96-36-87.167-36-138.5c0-50.667 12-96.5 36-137.5s57.167-73.167 99.5-96.5 89.833-35 142.5-35C488.666 81 543.333 96 590 126v228zM295.499 787.998c-30.333 24.667-46.166 57.667-47.499 99h65c.667-24 10.167-43.333 28.5-58s41.166-22 68.499-22 50.166 7.333 68.499 22 27.833 34 28.5 58h65c-1.333-41.333-17.166-74.333-47.499-99s-68.5-37-114.5-37-84.167 12.333-114.5 37z"/><glyph glyph-name="gbreve" unicode="ğ" horiz-adv-x="690" d="M598 530V72c0-92.667-23-161.167-69-205.5S414.333-200 323-200c-50 0-97.667 6.833-143 20.5S98-146.333 70-121l46 74c24.667-21.333 55.167-38.166 91.5-50.499s73.833-18.5 112.5-18.5c62 0 107.833 14.667 137.5 44s44.5 74 44.5 134v42c-22.667-27.333-50.5-47.833-83.5-61.5s-68.833-20.5-107.5-20.5c-50.667 0-96.5 10.833-137.5 32.5s-73.167 52-96.5 91-35 83.5-35 133.5 11.667 94.5 35 133.5 55.5 69.167 96.5 90.5 86.833 32 137.5 32c40 0 77.167-7.333 111.5-22S485 476.667 507 448v82h91zM415.5 128c27.667 14.667 49.331 35.167 64.998 61.5s23.5 56.166 23.5 89.499c0 51.333-17 92.833-51 124.5s-77.667 47.5-131 47.5c-54 0-98-15.833-132-47.5s-51-73.167-51-124.5c0-33.333 7.833-63.166 23.5-89.499s37.334-46.833 65.001-61.5 59.167-22 94.5-22c34.667 0 65.834 7.333 93.501 22zM214.497 638c-30.333 24.667-46.166 57.667-47.499 99h65c.667-24 10.167-43.333 28.5-58s41.166-22 68.499-22 50.166 7.333 68.499 22 27.833 34 28.5 58h65c-1.333-41.333-17.166-74.333-47.499-99s-68.5-37-114.5-37-84.167 12.333-114.5 37z"/><glyph glyph-name="Gdotaccent" unicode="Ġ" horiz-adv-x="772" d="M590 354l95.999-.002v-273c-34.667-28.667-75-50.667-121-66s-94-23-144-23c-70.667 0-134.334 15.5-191.001 46.5s-101.167 73.667-133.5 128-48.5 115.5-48.5 183.5 16.167 129.333 48.5 184 77 97.334 134 128.001 121.167 46 192.5 46c56 0 106.833-9.167 152.5-27.5s84.5-45.166 116.5-80.499l-62-62c-56 54-123.667 81-203 81-53.333 0-101.166-11.5-143.499-34.5s-75.5-55-99.5-96-36-87.167-36-138.5c0-50.667 12-96.5 36-137.5s57.167-73.167 99.5-96.5 89.833-35 142.5-35C488.666 81 543.333 96 590 126v228zM367.999 791.998c-11.333 11.333-17 25.333-17 42s5.667 30.667 17 42 25.333 17 42 17 30.667-5.667 42-17 17-25.333 17-42-5.667-30.667-17-42-25.333-17-42-17-30.667 5.667-42 17z"/><glyph glyph-name="gdotaccent" unicode="ġ" horiz-adv-x="690" d="M598 530V72c0-92.667-23-161.167-69-205.5S414.333-200 323-200c-50 0-97.667 6.833-143 20.5S98-146.333 70-121l46 74c24.667-21.333 55.167-38.166 91.5-50.499s73.833-18.5 112.5-18.5c62 0 107.833 14.667 137.5 44s44.5 74 44.5 134v42c-22.667-27.333-50.5-47.833-83.5-61.5s-68.833-20.5-107.5-20.5c-50.667 0-96.5 10.833-137.5 32.5s-73.167 52-96.5 91-35 83.5-35 133.5 11.667 94.5 35 133.5 55.5 69.167 96.5 90.5 86.833 32 137.5 32c40 0 77.167-7.333 111.5-22S485 476.667 507 448v82h91zM415.5 128c27.667 14.667 49.331 35.167 64.998 61.5s23.5 56.166 23.5 89.499c0 51.333-17 92.833-51 124.5s-77.667 47.5-131 47.5c-54 0-98-15.833-132-47.5s-51-73.167-51-124.5c0-33.333 7.833-63.166 23.5-89.499s37.334-46.833 65.001-61.5 59.167-22 94.5-22c34.667 0 65.834 7.333 93.501 22zM286.997 642c-11.333 11.333-17 25.333-17 42s5.667 30.667 17 42 25.333 17 42 17 30.667-5.667 42-17 17-25.333 17-42-5.667-30.667-17-42-25.333-17-42-17-30.667 5.667-42 17z"/><glyph glyph-name="Gcommaaccent" unicode="Ģ" horiz-adv-x="772" d="M590 354l95.999-.002v-273c-34.667-28.667-75-50.667-121-66s-94-23-144-23c-70.667 0-134.334 15.5-191.001 46.5s-101.167 73.667-133.5 128-48.5 115.5-48.5 183.5 16.167 129.333 48.5 184 77 97.334 134 128.001 121.167 46 192.5 46c56 0 106.833-9.167 152.5-27.5s84.5-45.166 116.5-80.499l-62-62c-56 54-123.667 81-203 81-53.333 0-101.166-11.5-143.499-34.5s-75.5-55-99.5-96-36-87.167-36-138.5c0-50.667 12-96.5 36-137.5s57.167-73.167 99.5-96.5 89.833-35 142.5-35C488.666 81 543.333 96 590 126v228zM441.999-107.002c9.333-8.667 14.002-19.666 14.002-32.999 0-16-4.333-33-13-51l-30-72h-50l23 80c-10 3.333-17.833 8.666-23.5 15.999s-8.5 16.333-8.5 27c0 13.333 4.667 24.333 14 33s21.666 13 36.999 13 27.666-4.333 36.999-13z"/><glyph glyph-name="gcommaaccent" unicode="ģ" horiz-adv-x="690" d="M598 530V72c0-92.667-23-161.167-69-205.5S414.333-200 323-200c-50 0-97.667 6.833-143 20.5S98-146.333 70-121l46 74c24.667-21.333 55.167-38.166 91.5-50.499s73.833-18.5 112.5-18.5c62 0 107.833 14.667 137.5 44s44.5 74 44.5 134v42c-22.667-27.333-50.5-47.833-83.5-61.5s-68.833-20.5-107.5-20.5c-50.667 0-96.5 10.833-137.5 32.5s-73.167 52-96.5 91-35 83.5-35 133.5 11.667 94.5 35 133.5 55.5 69.167 96.5 90.5 86.833 32 137.5 32c40 0 77.167-7.333 111.5-22S485 476.667 507 448v82h91zM415.5 128c27.667 14.667 49.331 35.167 64.998 61.5s23.5 56.166 23.5 89.499c0 51.333-17 92.833-51 124.5s-77.667 47.5-131 47.5c-54 0-98-15.833-132-47.5s-51-73.167-51-124.5c0-33.333 7.833-63.166 23.5-89.499s37.334-46.833 65.001-61.5 59.167-22 94.5-22c34.667 0 65.834 7.333 93.501 22zm-39.503 545.5c6-7 9-15.833 9-26.5 0-14-5-25.167-15-33.5s-23.667-12.5-41-12.5-31 4.333-41 13-15 19.667-15 33 5 30 15 50l37 94h55l-29-102c10.667-3.333 19-8.5 25-15.5z"/><glyph glyph-name="Hcircumflex" unicode="Ĥ" horiz-adv-x="812" d="M707 700V0H607v312H205V0H105v700h100V399h402v301h100zm-210 57l-92 77-92-77h-87l133 130h92l133-130h-87z"/><glyph glyph-name="hcircumflex" unicode="ĥ" horiz-adv-x="681" d="M534.5 476.5c39.667-39 59.5-96.167 59.5-171.5V0h-96v294c0 51.333-12.333 90-37 116s-60 39-106 39c-52 0-93-15.167-123-45.5s-45-73.833-45-130.5V0H91v742h96V455c20 25.333 46.167 45 78.5 59S334 535 374 535c67.333 0 120.833-19.5 160.5-58.5zM231 799l-92 77-92-77h-87L93 929h92l133-130h-87z"/><glyph glyph-name="Hbar" unicode="Ħ" horiz-adv-x="828" d="M715 700V0H615v312H213V0H113v700h100V399h402v301h100zM9 592h807v-79H9v79z"/><glyph glyph-name="hbar" unicode="ħ" horiz-adv-x="681" d="M534.5 476.5c39.667-39 59.5-96.167 59.5-171.5V0h-96v294c0 51.333-12.333 90-37 116s-60 39-106 39c-52 0-93-15.167-123-45.5s-45-73.833-45-130.5V0H91v742h96V455c20 25.333 46.167 45 78.5 59S334 535 374 535c67.333 0 120.833-19.5 160.5-58.5zM0 668h396v-68H0v68z"/><glyph glyph-name="Itilde" unicode="Ĩ" horiz-adv-x="310" d="M105 700h100V0H105v700zm78.5 70c-11.667 6.667-26.168 16.666-43.501 29.999-10 9.333-18.667 16.166-26 20.499s-14.666 6.5-21.999 6.5c-14.667 0-26.667-5.5-36-16.5s-14.333-26.167-15-45.5h-54c1.333 37.333 10.833 67 28.5 89s40.834 33 69.501 33c16 0 30.167-3.5 42.5-10.5s26.5-17.167 42.5-30.5c11.333-9.333 20.333-16.166 27-20.499s13.667-6.5 21-6.5c14.667 0 26.667 5.333 36 16s14.333 25.334 15 44.001h54c-1.333-36-10.833-64.833-28.5-86.5S253.667 760 225 760c-16 0-29.833 3.333-41.5 10z"/><glyph glyph-name="itilde" unicode="ĩ" horiz-adv-x="279" d="M91 530h96V0H91v530zm69 90.5c-10.667 7-22.667 17.167-36 30.5-9.333 9.333-16.833 16-22.5 20S90 677 84 677c-10.667 0-19-5.5-25-16.5s-9-26.167-9-45.5H-4c0 38.667 7.333 68.667 22 90s35 32 61 32c15.333 0 28.333-3.5 39-10.5s22.667-17.167 36-30.5c8.667-8.667 16-15.167 22-19.5s12-6.5 18-6.5c10.667 0 19 5.333 25 16s9 25 9 43h54c0-37.333-7.333-66.5-22-87.5S225 610 199 610c-15.333 0-28.333 3.5-39 10.5z"/><glyph glyph-name="Imacron" unicode="Ī" horiz-adv-x="310" d="M105 700h100V0H105v700zM22 852h266v-60H22v60z"/><glyph glyph-name="imacron" unicode="ī" horiz-adv-x="279" d="M91 530h96V0H91v530zM6 702h266v-60H6v60z"/><glyph glyph-name="Ibreve" unicode="Ĭ" horiz-adv-x="310" d="M105 700h100V0H105v700zm-64.5 88c-30.333 24.667-46.166 57.667-47.499 99h65c.667-24 10.167-43.333 28.5-58s41.166-22 68.499-22 50.166 7.333 68.499 22 27.833 34 28.5 58h65c-1.333-41.333-17.166-74.333-47.499-99S201 751 155 751s-84.167 12.333-114.5 37z"/><glyph glyph-name="ibreve" unicode="ĭ" horiz-adv-x="279" d="M91 530h96V0H91v530zM40.5 638c-25.667 24.667-38.502 57.667-38.502 99h62c0-24.667 6.833-44.167 20.5-58.5s31.834-21.5 54.501-21.5 40.834 7.167 54.501 21.5S214 712.333 214 737h62c0-41.333-12.833-74.333-38.5-99S179 601 139 601s-72.833 12.333-98.5 37z"/><glyph glyph-name="Iogonek" unicode="Į" horiz-adv-x="310" d="M105 700h100V0H105v700zm.5-897.5c-18.333 17.667-27.499 41.167-27.499 70.5 0 58 30.667 110.667 92 158l35-31c-22.667-21.333-38.167-41.5-46.5-60.5s-12.5-37.5-12.5-55.5c0-16 4.167-28.667 12.5-38s18.833-14 31.5-14c11.333 0 22.666 4 33.999 12l17-48c-15.333-13.333-36.333-20-63-20-30 0-54.167 8.833-72.5 26.5z"/><glyph glyph-name="iogonek" unicode="į" horiz-adv-x="279" d="M91 530h96V0H91v530zm1.5 120C80.167 662 74 676.668 74 694.001s6.167 32.166 18.5 44.499S120.333 757 139 757s34.167-5.833 46.5-17.5S204 713.333 204 696c0-18-6.167-33.167-18.5-45.5S157.667 632 139 632s-34.167 6-46.5 18zm-5-847.499c-18.333 17.667-27.499 41.167-27.499 70.5 0 58 30.667 110.667 92 158l35-31c-22.667-21.333-38.167-41.5-46.5-60.5s-12.5-37.5-12.5-55.5c0-16 4.167-28.667 12.5-38s18.833-14 31.5-14c11.333 0 22.666 4 33.999 12l17-48c-15.333-13.333-36.333-20-63-20-30 0-54.167 8.833-72.5 26.5z"/><glyph glyph-name="Idotaccent" unicode="İ" horiz-adv-x="310" d="M105 700h100V0H105v700zm8 92c-11.333 11.333-17 25.333-17 42s5.667 30.667 17 42 25.333 17 42 17 30.667-5.667 42-17 17-25.333 17-42-5.667-30.667-17-42-25.333-17-42-17-30.667 5.667-42 17z"/><glyph glyph-name="dotlessi" unicode="ı" horiz-adv-x="279" d="M91 530h96V0H91v530z"/><glyph glyph-name="IJ" unicode="Ĳ" horiz-adv-x="720" d="M197 11c-41.333 12.667-78.002 30-110.002 52l39 80c29.333-20 61.333-35.333 96-46s70.334-16 107.001-16C391.666 81 439.333 99.333 472 136s49 92 49 166v398h100V307c0-102-26.333-180-79-234S417.666-8 326.999-8C281.666-8 238.333-1.667 197 11zM98.998 700h100V309h-100v391z"/><glyph glyph-name="ij" unicode="ĳ" horiz-adv-x="563" d="M91 530h96V0H91v530zm1.5 120C80.167 662 74 676.668 74 694.001s6.167 32.166 18.5 44.499S120.333 757 139 757s34.167-5.833 46.5-17.5S204 713.333 204 696c0-18-6.167-33.167-18.5-45.5S157.667 632 139 632s-34.167 6-46.5 18zM237-191.999c-20 5.333-36.667 13.332-50 23.999l31 74c20-16.667 46-25 78-25 25.333 0 44.833 7.833 58.5 23.5S375-56.666 375-25.999v556h96v-554c0-54.667-14.667-97.667-44-129s-71-47-125-47c-23.333 0-45 2.667-65 8zM376.5 650c-12.333 12-18.5 26.668-18.5 44.001s6.167 32.166 18.5 44.499S404.333 757 423 757s34.167-5.833 46.5-17.5S488 713.333 488 696c0-18-6.167-33.167-18.5-45.5S441.667 632 423 632s-34.167 6-46.5 18z"/><glyph glyph-name="Jcircumflex" unicode="Ĵ" horiz-adv-x="513" d="M78 18.5C42 36.167 13 61-9 93l58 68c38.667-55.333 87.334-83 146.001-83 39.333 0 69.166 12 89.499 36S315 173.333 315 220v393H62v87h352V225c0-77.333-18.5-135.5-55.5-174.5S267-8 195-8C153-8 114 .833 78 18.5zM331 757l-92 77-92-77H60l133 130h92l133-130h-87z"/><glyph glyph-name="jcircumflex" unicode="ĵ" horiz-adv-x="284" d="M-42-192c-20 5.333-36.667 13.332-50 23.999l31 74c20-16.667 46-25 78-25 25.333 0 44.833 7.833 58.5 23.5S96-56.667 96-26v556h96V-24c0-54.667-14.667-97.667-44-129s-71-47-125-47c-23.333 0-45 2.667-65 8zm258 798.999l-72 74-72-74h-82l109 130h90l109-130h-82z"/><glyph glyph-name="Kcommaaccent" unicode="Ķ" horiz-adv-x="719" d="M333 311L205 181V0H105v700h100V309l380 391h114L400 385 718 0H601zm79-418c9.333-8.667 14.002-19.666 14.002-32.999 0-16-4.333-33-13-51l-30-72h-50l23 80c-10 3.333-17.833 8.666-23.5 15.999s-8.5 16.333-8.5 27c0 13.333 4.667 24.333 14 33s21.666 13 36.999 13 27.666-4.333 36.999-13z"/><glyph glyph-name="kcommaaccent" unicode="ķ" horiz-adv-x="616" d="M297 247L187 145V0H91v742h96V266l289 264h116L369 311 614 0H496zm53-354c9.333-8.667 14.002-19.666 14.002-32.999 0-16-4.333-33-13-51l-30-72h-50l23 80c-10 3.333-17.833 8.666-23.5 15.999s-8.5 16.333-8.5 27c0 13.333 4.667 24.333 14 33s21.666 13 36.999 13 27.666-4.333 36.999-13z"/><glyph glyph-name="kgreenlandic" unicode="ĸ" horiz-adv-x="606" d="M297 247L187 145V0H91v530h96V266l289 264h116L369 311 614 0H496z"/><glyph glyph-name="Lacute" unicode="Ĺ" horiz-adv-x="594" d="M105 700h100V87h379V0H105v700zm111 187h122L170 757H80z"/><glyph glyph-name="lacute" unicode="ĺ" horiz-adv-x="279" d="M91 742h96V0H91v742zm109 207h122L154 819H64z"/><glyph glyph-name="Lcommaaccent" unicode="Ļ" horiz-adv-x="594" d="M105 700h100V87h379V0H105v700zm288-807c9.333-8.667 14.002-19.666 14.002-32.999 0-16-4.333-33-13-51l-30-72h-50l23 80c-10 3.333-17.833 8.666-23.5 15.999s-8.5 16.333-8.5 27c0 13.333 4.667 24.333 14 33s21.666 13 36.999 13 27.666-4.333 36.999-13z"/><glyph glyph-name="lcommaaccent" unicode="ļ" horiz-adv-x="279" d="M91 742h96V0H91v742zm85-849c9.333-8.667 14.002-19.666 14.002-32.999 0-16-4.333-33-13-51l-30-72h-50l23 80c-10 3.333-17.833 8.666-23.5 15.999s-8.5 16.333-8.5 27c0 13.333 4.667 24.333 14 33s21.666 13 36.999 13 27.666-4.333 36.999-13z"/><glyph glyph-name="Lcaron" unicode="Ľ" horiz-adv-x="594" d="M105 700h100V87h379V0H105v700zm333 33h79l-12-193h-67v193z"/><glyph glyph-name="lcaron" unicode="ľ" horiz-adv-x="279" d="M91 742h96V0H91v742zm185 33h79l-12-193h-67v193z"/><glyph glyph-name="Ldot" unicode="Ŀ" horiz-adv-x="594" d="M105 700h100V87h379V0H105v700zm304-351.5c-12 11.667-18 26.5-18 44.5s6 32.833 18 44.5 26.333 17.5 43 17.5 30.834-5.833 42.501-17.5 17.5-26.5 17.5-44.5-5.833-32.833-17.5-44.5S468.667 331 452 331s-31 5.833-43 17.5z"/><glyph glyph-name="ldot" unicode="ŀ" horiz-adv-x="346" d="M91 742h96V0H91v742zm179.5-425.5c-11 11-16.5 24.5-16.5 40.5s5.5 29.5 16.5 40.5S295.333 414 312 414c16 0 29.5-5.5 40.5-16.5S369 373 369 357s-5.5-29.5-16.5-40.5S328 300 312 300c-16.667 0-30.5 5.5-41.5 16.5z"/><glyph glyph-name="Lslash" unicode="Ł" horiz-adv-x="602" d="M113 700h100V87h379V0H113v700zM9 303l316 240 44-56L53 247z"/><glyph glyph-name="lslash" unicode="ł" horiz-adv-x="295" d="M99 742h96V0H99v742zM-7 286l265 202 43-58L36 229z"/><glyph glyph-name="Nacute" unicode="Ń" horiz-adv-x="812" d="M707 700V0h-82L205 522V0H105v700h82l420-522v522h100zM466 887h122L420 757h-90z"/><glyph glyph-name="nacute" unicode="ń" horiz-adv-x="681" d="M534.5 476.5c39.667-39 59.5-96.167 59.5-171.5V0h-96v294c0 51.333-12.333 90-37 116s-60 39-106 39c-52 0-93-15.167-123-45.5s-45-73.833-45-130.5V0H91v530h92v-80c19.333 27.333 45.5 48.333 78.5 63S332 535 374 535c67.333 0 120.833-19.5 160.5-58.5zM404 737h122L358 607h-90z"/><glyph glyph-name="Ncommaaccent" unicode="Ņ" horiz-adv-x="812" d="M707 700V0h-82L205 522V0H105v700h82l420-522v522h100zM442-107c9.333-8.667 14.002-19.666 14.002-32.999 0-16-4.333-33-13-51l-30-72h-50l23 80c-10 3.333-17.833 8.666-23.5 15.999s-8.5 16.333-8.5 27c0 13.333 4.667 24.333 14 33s21.666 13 36.999 13 27.666-4.333 36.999-13z"/><glyph glyph-name="ncommaaccent" unicode="ņ" horiz-adv-x="681" d="M534.5 476.5c39.667-39 59.5-96.167 59.5-171.5V0h-96v294c0 51.333-12.333 90-37 116s-60 39-106 39c-52 0-93-15.167-123-45.5s-45-73.833-45-130.5V0H91v530h92v-80c19.333 27.333 45.5 48.333 78.5 63S332 535 374 535c67.333 0 120.833-19.5 160.5-58.5zM380-107c9.333-8.667 14.002-19.666 14.002-32.999 0-16-4.333-33-13-51l-30-72h-50l23 80c-10 3.333-17.833 8.666-23.5 15.999s-8.5 16.333-8.5 27c0 13.333 4.667 24.333 14 33s21.666 13 36.999 13 27.666-4.333 36.999-13z"/><glyph glyph-name="Ncaron" unicode="Ň" horiz-adv-x="812" d="M707 700V0h-82L205 522V0H105v700h82l420-522v522h100zM584 887L451 757h-92L226 887h87l92-76 92 76h87z"/><glyph glyph-name="ncaron" unicode="ň" horiz-adv-x="681" d="M534.5 476.5c39.667-39 59.5-96.167 59.5-171.5V0h-96v294c0 51.333-12.333 90-37 116s-60 39-106 39c-52 0-93-15.167-123-45.5s-45-73.833-45-130.5V0H91v530h92v-80c19.333 27.333 45.5 48.333 78.5 63S332 535 374 535c67.333 0 120.833-19.5 160.5-58.5zM522 737L389 607h-92L164 737h87l92-76 92 76h87z"/><glyph glyph-name="napostrophe" unicode="ŉ" horiz-adv-x="770" d="M56 700h66l-16-261H53zm568.5-223.5c39.667-39 59.5-96.167 59.5-171.5V0h-96v294c0 51.333-12.333 90-37 116s-60 39-106 39c-52 0-93-15.167-123-45.5s-45-73.833-45-130.5V0h-96v530h92v-80c19.333 27.333 45.5 48.333 78.5 63S422 535 464 535c67.333 0 120.833-19.5 160.5-58.5z"/><glyph glyph-name="Eng" unicode="Ŋ" horiz-adv-x="812" d="M707 700l-.002-658c0-82-18.167-142.833-54.5-182.5s-90.5-59.5-162.5-59.5c-35.333 0-68.666 6.833-99.999 20.5s-58 33.167-80 58.5l49 72c34.667-43.333 78.334-65 131.001-65 76 0 115 45.333 117 136L205 522V0H105v700h82l420-522v522h100z"/><glyph glyph-name="eng" unicode="ŋ" horiz-adv-x="681" d="M534.5 476.5c39.667-39 59.499-96.168 59.499-171.501v-329c0-54.667-14.667-97.667-44-129s-71-47-125-47c-22.667 0-44.167 2.667-64.5 8s-37.166 13.333-50.499 24l31 74c20.667-16.667 46.667-25 78-25 25.333 0 44.833 7.833 58.5 23.5S498-56.667 498-26v320c0 51.333-12.333 90-37 116s-60 39-106 39c-52 0-93-15.167-123-45.5s-45-73.833-45-130.5V0H91v530h92v-80c19.333 27.333 45.5 48.333 78.5 63S332 535 374 535c67.333 0 120.833-19.5 160.5-58.5z"/><glyph glyph-name="Omacron" unicode="Ō" horiz-adv-x="840" d="M230 38.5c-56.667 31-101.167 73.833-133.5 128.5S48 282.667 48 350s16.167 128.333 48.5 183 76.833 97.5 133.5 128.5S350.334 708 421.001 708c70 0 133.333-15.5 190-46.5s101-73.667 133-128 48-115.5 48-183.5-16-129.167-48-183.5-76.333-97-133-128-120-46.5-190-46.5C350.334-8 286.667 7.5 230 38.5zM559.5 116c41 23.333 73.333 55.5 97 96.5S692 299.333 692 350s-11.833 96.5-35.5 137.5-56 73.167-97 96.5-87.167 35-138.5 35-97.833-11.667-139.5-35-74.334-55.5-98.001-96.5-35.5-86.833-35.5-137.5 11.833-96.5 35.5-137.5 56.334-73.167 98.001-96.5S369.667 81 421 81s97.5 11.667 138.5 35zM258 852h326v-60H258v60z"/><glyph glyph-name="omacron" unicode="ō" horiz-adv-x="635" d="M176 29c-42 23.333-74.833 55.5-98.5 96.5S42 213 42 265s11.833 98.5 35.5 139.5 56.5 73 98.5 96S265.333 535 318 535s99.834-11.5 141.501-34.5 74.334-55 98.001-96 35.5-87.5 35.5-139.5-11.833-98.5-35.5-139.5-56.334-73.167-98.001-96.5S370.667-6 318-6 218 5.667 176 29zm233.5 72.5c27 15.667 48.167 37.667 63.5 66s23 60.833 23 97.5-7.667 69.167-23 97.5-36.5 50.166-63.5 65.499-57.5 23-91.5 23-64.5-7.667-91.5-23-48.333-37.166-64-65.499S139 301.667 139 265s7.833-69.167 23.5-97.5 37-50.333 64-66S284 78 318 78s64.5 7.833 91.5 23.5zM154 702h326v-60H154v60z"/><glyph glyph-name="Obreve" unicode="Ŏ" horiz-adv-x="840" d="M230 38.5c-56.667 31-101.167 73.833-133.5 128.5S48 282.667 48 350s16.167 128.333 48.5 183 76.833 97.5 133.5 128.5S350.334 708 421.001 708c70 0 133.333-15.5 190-46.5s101-73.667 133-128 48-115.5 48-183.5-16-129.167-48-183.5-76.333-97-133-128-120-46.5-190-46.5C350.334-8 286.667 7.5 230 38.5zM559.5 116c41 23.333 73.333 55.5 97 96.5S692 299.333 692 350s-11.833 96.5-35.5 137.5-56 73.167-97 96.5-87.167 35-138.5 35-97.833-11.667-139.5-35-74.334-55.5-98.001-96.5-35.5-86.833-35.5-137.5 11.833-96.5 35.5-137.5 56.334-73.167 98.001-96.5S369.667 81 421 81s97.5 11.667 138.5 35zm-253 672c-30.333 24.667-46.166 57.667-47.499 99h65c.667-24 10.167-43.333 28.5-58s41.166-22 68.499-22 50.166 7.333 68.499 22 27.833 34 28.5 58h65c-1.333-41.333-17.166-74.333-47.499-99S467 751 421 751s-84.167 12.333-114.5 37z"/><glyph glyph-name="obreve" unicode="ŏ" horiz-adv-x="635" d="M176 29c-42 23.333-74.833 55.5-98.5 96.5S42 213 42 265s11.833 98.5 35.5 139.5 56.5 73 98.5 96S265.333 535 318 535s99.834-11.5 141.501-34.5 74.334-55 98.001-96 35.5-87.5 35.5-139.5-11.833-98.5-35.5-139.5-56.334-73.167-98.001-96.5S370.667-6 318-6 218 5.667 176 29zm233.5 72.5c27 15.667 48.167 37.667 63.5 66s23 60.833 23 97.5-7.667 69.167-23 97.5-36.5 50.166-63.5 65.499-57.5 23-91.5 23-64.5-7.667-91.5-23-48.333-37.166-64-65.499S139 301.667 139 265s7.833-69.167 23.5-97.5 37-50.333 64-66S284 78 318 78s64.5 7.833 91.5 23.5zM202.5 638c-30.333 24.667-46.166 57.667-47.499 99h65c.667-24 10.167-43.333 28.5-58s41.166-22 68.499-22 50.166 7.333 68.499 22 27.833 34 28.5 58h65c-1.333-41.333-17.166-74.333-47.499-99S363 601 317 601s-84.167 12.333-114.5 37z"/><glyph glyph-name="Ohungarumlaut" unicode="Ő" horiz-adv-x="840" d="M230 38.5c-56.667 31-101.167 73.833-133.5 128.5S48 282.667 48 350s16.167 128.333 48.5 183 76.833 97.5 133.5 128.5S350.334 708 421.001 708c70 0 133.333-15.5 190-46.5s101-73.667 133-128 48-115.5 48-183.5-16-129.167-48-183.5-76.333-97-133-128-120-46.5-190-46.5C350.334-8 286.667 7.5 230 38.5zM559.5 116c41 23.333 73.333 55.5 97 96.5S692 299.333 692 350s-11.833 96.5-35.5 137.5-56 73.167-97 96.5-87.167 35-138.5 35-97.833-11.667-139.5-35-74.334-55.5-98.001-96.5-35.5-86.833-35.5-137.5 11.833-96.5 35.5-137.5 56.334-73.167 98.001-96.5S369.667 81 421 81s97.5 11.667 138.5 35zM383 887h102L374 757h-81zm174 0h101L549 757h-81z"/><glyph glyph-name="ohungarumlaut" unicode="ő" horiz-adv-x="635" d="M176 29c-42 23.333-74.833 55.5-98.5 96.5S42 213 42 265s11.833 98.5 35.5 139.5 56.5 73 98.5 96S265.333 535 318 535s99.834-11.5 141.501-34.5 74.334-55 98.001-96 35.5-87.5 35.5-139.5-11.833-98.5-35.5-139.5-56.334-73.167-98.001-96.5S370.667-6 318-6 218 5.667 176 29zm233.5 72.5c27 15.667 48.167 37.667 63.5 66s23 60.833 23 97.5-7.667 69.167-23 97.5-36.5 50.166-63.5 65.499-57.5 23-91.5 23-64.5-7.667-91.5-23-48.333-37.166-64-65.499S139 301.667 139 265s7.833-69.167 23.5-97.5 37-50.333 64-66S284 78 318 78s64.5 7.833 91.5 23.5zM279 737h102L270 607h-81zm174 0h101L445 607h-81z"/><glyph glyph-name="OE" unicode="Œ" horiz-adv-x="1126" d="M1069 87V.001H426c-74 0-139.667 14.667-197 44s-101.833 70.5-133.5 123.5-47.5 113.5-47.5 181.5c0 68.667 15.833 129.667 47.5 183S171.667 626.667 229 656s123 44 197 44h629v-87H660V398h352v-85H660V87h409zm-508 .001v526H431c-56.667 0-106.334-11-149.001-33s-75.667-53-99-93-35-86-35-138c0-51.333 11.667-96.833 35-136.5s56.333-70.5 99-92.5 92.334-33 149.001-33h130z"/><glyph glyph-name="oe" unicode="œ" horiz-adv-x="1067" d="M1023 233l-430.004-.001c6-46.667 26.333-84.167 61-112.5s78-42.5 130-42.5c64 0 115 21.333 153 64l53-62c-24-28-53.833-49.333-89.5-64s-75.5-22-119.5-22c-52.667 0-99.5 10.5-140.5 31.5s-73.167 50.167-96.5 87.5c-22.667-37.333-53.667-66.5-93-87.5s-83.666-31.5-132.999-31.5c-52.667 0-100 11.667-142 35s-74.833 55.5-98.5 96.5-35.5 87.5-35.5 139.5 11.833 98.5 35.5 139.5 56.5 73 98.5 96 89.333 34.5 142 34.5c50 0 94.333-10.333 133-31s69.334-49.667 92.001-87c22.667 37.333 52.834 66.333 90.501 87s80.5 31 128.5 31c50.667 0 95.834-11.5 135.501-34.5s70.667-55.167 93-96.5S1024 315.333 1024 262c0-13.333-.333-23-1-29zM647.496 411.999c-31-28-49.168-64.667-54.501-110h340c-5.333 44.667-23.666 81.167-54.999 109.5s-70 42.5-116 42.5c-45.333 0-83.5-14-114.5-42zm-238.001-310.5c27 15.667 48.167 37.667 63.5 66s23 60.833 23 97.5-7.667 69.167-23 97.5-36.5 50.166-63.5 65.499-57.5 23-91.5 23-64.5-7.667-91.5-23-48.333-37.166-64-65.499-23.5-60.833-23.5-97.5 7.833-69.167 23.5-97.5 37-50.333 64-66 57.5-23.5 91.5-23.5 64.5 7.833 91.5 23.5z"/><glyph glyph-name="Racute" unicode="Ŕ" horiz-adv-x="727" d="M573 0L422.001 215c-18.667-1.333-33.334-2-44.001-2H205V0H105v700h273c90.667 0 162-21.667 214-65s78-103 78-179c0-54-13.333-100-40-138s-64.667-65.667-114-83L682 0H573zm-52.999 339c33.333 27.333 50 66.333 50 117s-16.667 89.5-50 116.5S438.335 613 375.002 613h-170V298h170c63.333 0 111.666 13.667 144.999 41zm-88 548h122l-168-130h-90z"/><glyph glyph-name="racute" unicode="ŕ" horiz-adv-x="410" d="M257 511c32.667 16 72.331 24 118.998 24v-93c-5.333.667-12.666 1-21.999 1-52 0-92.833-15.5-122.5-46.5s-44.5-75.167-44.5-132.5V0h-96v530h92v-89c16.667 30.667 41.334 54 74.001 70zm37.997 226h122l-168-130h-90z"/><glyph glyph-name="Rcommaaccent" unicode="Ŗ" horiz-adv-x="727" d="M573 0L422.001 215c-18.667-1.333-33.334-2-44.001-2H205V0H105v700h273c90.667 0 162-21.667 214-65s78-103 78-179c0-54-13.333-100-40-138s-64.667-65.667-114-83L682 0H573zm-52.999 339c33.333 27.333 50 66.333 50 117s-16.667 89.5-50 116.5S438.335 613 375.002 613h-170V298h170c63.333 0 111.666 13.667 144.999 41zm-112-446c9.333-8.667 14.002-19.666 14.002-32.999 0-16-4.333-33-13-51l-30-72h-50l23 80c-10 3.333-17.833 8.666-23.5 15.999s-8.5 16.333-8.5 27c0 13.333 4.667 24.333 14 33s21.666 13 36.999 13 27.666-4.333 36.999-13z"/><glyph glyph-name="rcommaaccent" unicode="ŗ" horiz-adv-x="410" d="M257 511c32.667 16 72.331 24 118.998 24v-93c-5.333.667-12.666 1-21.999 1-52 0-92.833-15.5-122.5-46.5s-44.5-75.167-44.5-132.5V0h-96v530h92v-89c16.667 30.667 41.334 54 74.001 70zm-81.003-618c9.333-8.667 14.002-19.666 14.002-32.999 0-16-4.333-33-13-51l-30-72h-50l23 80c-10 3.333-17.833 8.666-23.5 15.999s-8.5 16.333-8.5 27c0 13.333 4.667 24.333 14 33s21.666 13 36.999 13 27.666-4.333 36.999-13z"/><glyph glyph-name="Rcaron" unicode="Ř" horiz-adv-x="727" d="M573 0L422.001 215c-18.667-1.333-33.334-2-44.001-2H205V0H105v700h273c90.667 0 162-21.667 214-65s78-103 78-179c0-54-13.333-100-40-138s-64.667-65.667-114-83L682 0H573zm-52.999 339c33.333 27.333 50 66.333 50 117s-16.667 89.5-50 116.5S438.335 613 375.002 613h-170V298h170c63.333 0 111.666 13.667 144.999 41zm30 548l-133-130h-92l-133 130h87l92-76 92 76h87z"/><glyph glyph-name="rcaron" unicode="ř" horiz-adv-x="410" d="M257 511c32.667 16 72.331 24 118.998 24v-93c-5.333.667-12.666 1-21.999 1-52 0-92.833-15.5-122.5-46.5s-44.5-75.167-44.5-132.5V0h-96v530h92v-89c16.667 30.667 41.334 54 74.001 70zm155.997 226l-133-130h-92l-133 130h87l92-76 92 76h87z"/><glyph glyph-name="Sacute" unicode="Ś" horiz-adv-x="621" d="M156.5 16.5c-49 16.333-87.503 37.498-115.503 63.498l37 78c26.667-24 60.834-43.5 102.501-58.5s84.5-22.5 128.5-22.5c58 0 101.333 9.833 130 29.5s43 45.834 43 78.501c0 24-7.833 43.5-23.5 58.5s-35 26.5-58 34.5-55.5 17-97.5 27c-52.667 12.667-95.167 25.334-127.5 38.001s-60 32.167-83 58.5-34.5 61.833-34.5 106.5c0 37.333 9.833 71 29.5 101s49.5 54 89.5 72 89.667 27 149 27c41.333 0 82-5.333 122-16s74.333-26 103-46l-33-80c-29.333 18.667-60.666 32.834-93.999 42.501s-66 14.5-98 14.5c-56.667 0-99.167-10.333-127.5-31s-42.5-47.334-42.5-80.001c0-24 8-43.5 24-58.5s35.833-26.667 59.5-35 55.834-17.166 96.501-26.499c52.667-12.667 95-25.334 127-38.001s59.5-32 82.5-58S580 235 580 191c0-36.667-10-70.167-30-100.5s-50.333-54.333-91-72S368.333-8 309-8C256.333-8 205.5.167 156.5 16.5zm226.497 870.498h122l-168-130h-90z"/><glyph glyph-name="sacute" unicode="ś" horiz-adv-x="501" d="M118 11.5C78 23.167 46.669 38 24.002 56l40 76c23.333-16.667 51.666-30 84.999-40s67-15 101-15c84 0 126 24 126 72 0 16-5.667 28.667-17 38s-25.5 16.166-42.5 20.499-41.167 9.166-72.5 14.499c-42.667 6.667-77.5 14.334-104.5 23.001S89.334 268.333 70.001 289s-29 49.667-29 87c0 48 20 86.5 60 115.5s93.667 43.5 161 43.5c35.333 0 70.666-4.333 105.999-13s64.333-20.334 87-35.001l-41-76c-43.333 28-94.333 42-153 42-40.667 0-71.667-6.667-93-20s-32-31-32-53c0-17.333 6-31 18-41s26.833-17.333 44.5-22 42.5-10 74.5-16c42.667-7.333 77.167-15.166 103.5-23.499S425.333 255 444 235s28-48 28-84c0-48-20.5-86.167-61.5-114.5S313.667-6 243-6c-43.333 0-85 5.833-125 17.5zM309.002 737h122l-168-130h-90z"/><glyph glyph-name="Scircumflex" unicode="Ŝ" horiz-adv-x="621" d="M156.5 16.5c-49 16.333-87.503 37.498-115.503 63.498l37 78c26.667-24 60.834-43.5 102.501-58.5s84.5-22.5 128.5-22.5c58 0 101.333 9.833 130 29.5s43 45.834 43 78.501c0 24-7.833 43.5-23.5 58.5s-35 26.5-58 34.5-55.5 17-97.5 27c-52.667 12.667-95.167 25.334-127.5 38.001s-60 32.167-83 58.5-34.5 61.833-34.5 106.5c0 37.333 9.833 71 29.5 101s49.5 54 89.5 72 89.667 27 149 27c41.333 0 82-5.333 122-16s74.333-26 103-46l-33-80c-29.333 18.667-60.666 32.834-93.999 42.501s-66 14.5-98 14.5c-56.667 0-99.167-10.333-127.5-31s-42.5-47.334-42.5-80.001c0-24 8-43.5 24-58.5s35.833-26.667 59.5-35 55.834-17.166 96.501-26.499c52.667-12.667 95-25.334 127-38.001s59.5-32 82.5-58S580 235 580 191c0-36.667-10-70.167-30-100.5s-50.333-54.333-91-72S368.333-8 309-8C256.333-8 205.5.167 156.5 16.5zm257.497 740.498l-92 77-92-77h-87l133 130h92l133-130h-87z"/><glyph glyph-name="scircumflex" unicode="ŝ" horiz-adv-x="501" d="M118 11.5C78 23.167 46.669 38 24.002 56l40 76c23.333-16.667 51.666-30 84.999-40s67-15 101-15c84 0 126 24 126 72 0 16-5.667 28.667-17 38s-25.5 16.166-42.5 20.499-41.167 9.166-72.5 14.499c-42.667 6.667-77.5 14.334-104.5 23.001S89.334 268.333 70.001 289s-29 49.667-29 87c0 48 20 86.5 60 115.5s93.667 43.5 161 43.5c35.333 0 70.666-4.333 105.999-13s64.333-20.334 87-35.001l-41-76c-43.333 28-94.333 42-153 42-40.667 0-71.667-6.667-93-20s-32-31-32-53c0-17.333 6-31 18-41s26.833-17.333 44.5-22 42.5-10 74.5-16c42.667-7.333 77.167-15.166 103.5-23.499S425.333 255 444 235s28-48 28-84c0-48-20.5-86.167-61.5-114.5S313.667-6 243-6c-43.333 0-85 5.833-125 17.5zM340.002 607l-92 77-92-77h-87l133 130h92l133-130h-87z"/><glyph glyph-name="Scedilla" unicode="Ş" horiz-adv-x="621" d="M156.5 16.5c-49 16.333-87.503 37.498-115.503 63.498l37 78c26.667-24 60.834-43.5 102.501-58.5s84.5-22.5 128.5-22.5c58 0 101.333 9.833 130 29.5s43 45.834 43 78.501c0 24-7.833 43.5-23.5 58.5s-35 26.5-58 34.5-55.5 17-97.5 27c-52.667 12.667-95.167 25.334-127.5 38.001s-60 32.167-83 58.5-34.5 61.833-34.5 106.5c0 37.333 9.833 71 29.5 101s49.5 54 89.5 72 89.667 27 149 27c41.333 0 82-5.333 122-16s74.333-26 103-46l-33-80c-29.333 18.667-60.666 32.834-93.999 42.501s-66 14.5-98 14.5c-56.667 0-99.167-10.333-127.5-31s-42.5-47.334-42.5-80.001c0-24 8-43.5 24-58.5s35.833-26.667 59.5-35 55.834-17.166 96.501-26.499c52.667-12.667 95-25.334 127-38.001s59.5-32 82.5-58S580 235 580 191c0-36.667-10-70.167-30-100.5s-50.333-54.333-91-72S368.333-8 309-8C256.333-8 205.5.167 156.5 16.5zm51.497-218.502l21 49c20-11.333 42.667-17 68-17 37.333 0 56 13.333 56 40 0 12-4.667 21.5-14 28.5s-23.666 10.5-42.999 10.5h-27l25 98h55l-15-57c28-2.667 49.5-11.5 64.5-26.5s22.5-33.833 22.5-56.5c0-28-11.333-50.167-34-66.5s-52.667-24.5-90-24.5c-34.667 0-64.334 7.333-89.001 22z"/><glyph glyph-name="scedilla" unicode="ş" horiz-adv-x="501" d="M118 11.5C78 23.167 46.669 38 24.002 56l40 76c23.333-16.667 51.666-30 84.999-40s67-15 101-15c84 0 126 24 126 72 0 16-5.667 28.667-17 38s-25.5 16.166-42.5 20.499-41.167 9.166-72.5 14.499c-42.667 6.667-77.5 14.334-104.5 23.001S89.334 268.333 70.001 289s-29 49.667-29 87c0 48 20 86.5 60 115.5s93.667 43.5 161 43.5c35.333 0 70.666-4.333 105.999-13s64.333-20.334 87-35.001l-41-76c-43.333 28-94.333 42-153 42-40.667 0-71.667-6.667-93-20s-32-31-32-53c0-17.333 6-31 18-41s26.833-17.333 44.5-22 42.5-10 74.5-16c42.667-7.333 77.167-15.166 103.5-23.499S425.333 255 444 235s28-48 28-84c0-48-20.5-86.167-61.5-114.5S313.667-6 243-6c-43.333 0-85 5.833-125 17.5zM134.002-202l21 49c20-11.333 42.667-17 68-17 37.333 0 56 13.333 56 40 0 12-4.667 21.5-14 28.5S241.336-91 222.003-91h-27l25 98h55l-15-57c28-2.667 49.5-11.5 64.5-26.5s22.5-33.833 22.5-56.5c0-28-11.333-50.167-34-66.5s-52.667-24.5-90-24.5c-34.667 0-64.334 7.333-89.001 22z"/><glyph glyph-name="Scaron" unicode="Š" horiz-adv-x="621" d="M156.5 16.5c-49 16.333-87.503 37.498-115.503 63.498l37 78c26.667-24 60.834-43.5 102.501-58.5s84.5-22.5 128.5-22.5c58 0 101.333 9.833 130 29.5s43 45.834 43 78.501c0 24-7.833 43.5-23.5 58.5s-35 26.5-58 34.5-55.5 17-97.5 27c-52.667 12.667-95.167 25.334-127.5 38.001s-60 32.167-83 58.5-34.5 61.833-34.5 106.5c0 37.333 9.833 71 29.5 101s49.5 54 89.5 72 89.667 27 149 27c41.333 0 82-5.333 122-16s74.333-26 103-46l-33-80c-29.333 18.667-60.666 32.834-93.999 42.501s-66 14.5-98 14.5c-56.667 0-99.167-10.333-127.5-31s-42.5-47.334-42.5-80.001c0-24 8-43.5 24-58.5s35.833-26.667 59.5-35 55.834-17.166 96.501-26.499c52.667-12.667 95-25.334 127-38.001s59.5-32 82.5-58S580 235 580 191c0-36.667-10-70.167-30-100.5s-50.333-54.333-91-72S368.333-8 309-8C256.333-8 205.5.167 156.5 16.5zm344.497 870.498l-133-130h-92l-133 130h87l92-76 92 76h87z"/><glyph glyph-name="scaron" unicode="š" horiz-adv-x="501" d="M118 11.5C78 23.167 46.669 38 24.002 56l40 76c23.333-16.667 51.666-30 84.999-40s67-15 101-15c84 0 126 24 126 72 0 16-5.667 28.667-17 38s-25.5 16.166-42.5 20.499-41.167 9.166-72.5 14.499c-42.667 6.667-77.5 14.334-104.5 23.001S89.334 268.333 70.001 289s-29 49.667-29 87c0 48 20 86.5 60 115.5s93.667 43.5 161 43.5c35.333 0 70.666-4.333 105.999-13s64.333-20.334 87-35.001l-41-76c-43.333 28-94.333 42-153 42-40.667 0-71.667-6.667-93-20s-32-31-32-53c0-17.333 6-31 18-41s26.833-17.333 44.5-22 42.5-10 74.5-16c42.667-7.333 77.167-15.166 103.5-23.499S425.333 255 444 235s28-48 28-84c0-48-20.5-86.167-61.5-114.5S313.667-6 243-6c-43.333 0-85 5.833-125 17.5zM427.002 737l-133-130h-92l-133 130h87l92-76 92 76h87z"/><glyph glyph-name="uni0162" unicode="Ţ" horiz-adv-x="587" d="M244 613H4v87h579v-87H343V0h-99v613zm-65-815l21 49c20-11.333 42.667-17 68-17 37.333 0 56 13.333 56 40 0 12-4.667 21.5-14 28.5S286.334-91 267.001-91h-27l25 98h55l-15-57c28-2.667 49.5-11.5 64.5-26.5s22.5-33.833 22.5-56.5c0-28-11.333-50.167-34-66.5s-52.667-24.5-90-24.5c-34.667 0-64.334 7.333-89.001 22z"/><glyph glyph-name="uni0163" unicode="ţ" horiz-adv-x="414" d="M389 31c-14-12-31.334-21.167-52.001-27.5s-42-9.5-64-9.5C219.666-6 178.333 8.333 149 37s-44 69.667-44 123v291H15v79h90v116h96V530h152v-79H201V164c0-28.667 7.167-50.667 21.5-66s34.833-23 61.5-23c29.333 0 54.333 8.333 75 25zM138.999-202l21 49c20-11.333 42.667-17 68-17 37.333 0 56 13.333 56 40 0 12-4.667 21.5-14 28.5S246.333-91 227-91h-27l25 98h55l-15-57c28-2.667 49.5-11.5 64.5-26.5S352-110.333 352-133c0-28-11.333-50.167-34-66.5S265.333-224 228-224c-34.667 0-64.334 7.333-89.001 22z"/><glyph glyph-name="Tcaron" unicode="Ť" horiz-adv-x="587" d="M244 613H4v87h579v-87H343V0h-99v613zm228 274L339 757h-92L114 887h87l92-76 92 76h87z"/><glyph glyph-name="tcaron" unicode="ť" horiz-adv-x="414" d="M389 31c-14-12-31.334-21.167-52.001-27.5s-42-9.5-64-9.5C219.666-6 178.333 8.333 149 37s-44 69.667-44 123v291H15v79h90v116h96V530h152v-79H201V164c0-28.667 7.167-50.667 21.5-66s34.833-23 61.5-23c29.333 0 54.333 8.333 75 25zM284.999 765h76l-11-169h-65v169z"/><glyph glyph-name="Tbar" unicode="Ŧ" horiz-adv-x="587" d="M244 613H4v87h579v-87H343V0h-99v613zM93 379h400v-79H93v79z"/><glyph glyph-name="tbar" unicode="ŧ" horiz-adv-x="424" d="M394 31c-14-12-31.334-21.167-52.001-27.5s-42-9.5-64-9.5C224.666-6 183.333 8.333 154 37s-44 69.667-44 123v291H20v79h90v116h96V530h152v-79H206V164c0-28.667 7.167-50.667 21.5-66s34.833-23 61.5-23c29.333 0 54.333 8.333 75 25zM31.999 321h315v-67h-315v67z"/><glyph glyph-name="Utilde" unicode="Ũ" horiz-adv-x="791" d="M177 72c-52 53.333-78 130-78 230v398h100V306c0-150 65.667-225 197-225 64 0 113 18.5 147 55.5S594 230 594 306v394h97V302c0-100.667-26-177.5-78-230.5S488.333-8 395-8 229 18.667 177 72zm247.5 698c-11.667 6.667-26.168 16.666-43.501 29.999-10 9.333-18.667 16.166-26 20.499s-14.666 6.5-21.999 6.5c-14.667 0-26.667-5.5-36-16.5s-14.333-26.167-15-45.5h-54c1.333 37.333 10.833 67 28.5 89s40.834 33 69.501 33c16 0 30.167-3.5 42.5-10.5s26.5-17.167 42.5-30.5c11.333-9.333 20.333-16.166 27-20.499s13.667-6.5 21-6.5c14.667 0 26.667 5.333 36 16s14.333 25.334 15 44.001h54c-1.333-36-10.833-64.833-28.5-86.5S494.667 760 466 760c-16 0-29.833 3.333-41.5 10z"/><glyph glyph-name="utilde" unicode="ũ" horiz-adv-x="677" d="M585 530l.001-530.001h-91v80c-19.333-27.333-44.833-48.5-76.5-63.5s-66.167-22.5-103.5-22.5c-70.667 0-126.334 19.5-167.001 58.5s-61 96.5-61 172.5v305h96v-294c0-51.333 12.333-90.166 37-116.499S279 80 325 80c50.667 0 90.667 15.333 120 46s44 74 44 130v274h96zm-220.499 89.999c-11.667 6.667-26.168 16.666-43.501 29.999-10 9.333-18.667 16.166-26 20.499s-14.666 6.5-21.999 6.5c-14.667 0-26.667-5.5-36-16.5s-14.333-26.167-15-45.5h-54c1.333 37.333 10.833 67 28.5 89s40.834 33 69.501 33c16 0 30.167-3.5 42.5-10.5s26.5-17.167 42.5-30.5c11.333-9.333 20.333-16.166 27-20.499s13.667-6.5 21-6.5c14.667 0 26.667 5.333 36 16s14.333 25.334 15 44.001h54c-1.333-36-10.833-64.833-28.5-86.5s-40.834-32.5-69.501-32.5c-16 0-29.833 3.333-41.5 10z"/><glyph glyph-name="Umacron" unicode="Ū" horiz-adv-x="791" d="M177 72c-52 53.333-78 130-78 230v398h100V306c0-150 65.667-225 197-225 64 0 113 18.5 147 55.5S594 230 594 306v394h97V302c0-100.667-26-177.5-78-230.5S488.333-8 395-8 229 18.667 177 72zm56 780h326v-60H233v60z"/><glyph glyph-name="umacron" unicode="ū" horiz-adv-x="677" d="M585 530l.001-530.001h-91v80c-19.333-27.333-44.833-48.5-76.5-63.5s-66.167-22.5-103.5-22.5c-70.667 0-126.334 19.5-167.001 58.5s-61 96.5-61 172.5v305h96v-294c0-51.333 12.333-90.166 37-116.499S279 80 325 80c50.667 0 90.667 15.333 120 46s44 74 44 130v274h96zM173.001 701.999h326v-60h-326v60z"/><glyph glyph-name="Ubreve" unicode="Ŭ" horiz-adv-x="791" d="M177 72c-52 53.333-78 130-78 230v398h100V306c0-150 65.667-225 197-225 64 0 113 18.5 147 55.5S594 230 594 306v394h97V302c0-100.667-26-177.5-78-230.5S488.333-8 395-8 229 18.667 177 72zm104.5 716c-30.333 24.667-46.166 57.667-47.499 99h65c.667-24 10.167-43.333 28.5-58s41.166-22 68.499-22 50.166 7.333 68.499 22 27.833 34 28.5 58h65c-1.333-41.333-17.166-74.333-47.499-99S442 751 396 751s-84.167 12.333-114.5 37z"/><glyph glyph-name="ubreve" unicode="ŭ" horiz-adv-x="677" d="M585 530l.001-530.001h-91v80c-19.333-27.333-44.833-48.5-76.5-63.5s-66.167-22.5-103.5-22.5c-70.667 0-126.334 19.5-167.001 58.5s-61 96.5-61 172.5v305h96v-294c0-51.333 12.333-90.166 37-116.499S279 80 325 80c50.667 0 90.667 15.333 120 46s44 74 44 130v274h96zM221.501 637.999c-30.333 24.667-46.166 57.667-47.499 99h65c.667-24 10.167-43.333 28.5-58s41.166-22 68.499-22 50.166 7.333 68.499 22 27.833 34 28.5 58h65c-1.333-41.333-17.166-74.333-47.499-99s-68.5-37-114.5-37-84.167 12.333-114.5 37z"/><glyph glyph-name="Uring" unicode="Ů" horiz-adv-x="791" d="M177 72c-52 53.333-78 130-78 230v398h100V306c0-150 65.667-225 197-225 64 0 113 18.5 147 55.5S594 230 594 306v394h97V302c0-100.667-26-177.5-78-230.5S488.333-8 395-8 229 18.667 177 72zm140 723.5c-21.333 21-32 46.5-32 76.5s10.667 55.833 32 77.5 47.333 32.5 78 32.5c31.333 0 57.666-10.833 78.999-32.5s32-47.5 32-77.5-10.667-55.5-32-76.5S426.333 764 395 764c-30.667 0-56.667 10.5-78 31.5zM442.5 825c12.333 12.667 18.502 28.334 18.502 47.001 0 19.333-6.333 35.333-19 48s-28.334 19-47.001 19-34.167-6.333-46.5-19-18.5-28.667-18.5-48c0-18.667 6.167-34.334 18.5-47.001s27.833-19 46.5-19c19.333 0 35.166 6.333 47.499 19z"/><glyph glyph-name="uring" unicode="ů" horiz-adv-x="677" d="M585 530l.001-530.001h-91v80c-19.333-27.333-44.833-48.5-76.5-63.5s-66.167-22.5-103.5-22.5c-70.667 0-126.334 19.5-167.001 58.5s-61 96.5-61 172.5v305h96v-294c0-51.333 12.333-90.166 37-116.499S279 80 325 80c50.667 0 90.667 15.333 120 46s44 74 44 130v274h96zm-327.999 95.499c-21.333 21-32 46.5-32 76.5s10.667 55.833 32 77.5 47.333 32.5 78 32.5c31.333 0 57.666-10.833 78.999-32.5s32-47.5 32-77.5-10.667-55.5-32-76.5-47.666-31.5-78.999-31.5c-30.667 0-56.667 10.5-78 31.5zm125.5 29.5c12.333 12.667 18.502 28.334 18.502 47.001 0 19.333-6.333 35.333-19 48s-28.334 19-47.001 19-34.167-6.333-46.5-19-18.5-28.667-18.5-48c0-18.667 6.167-34.334 18.5-47.001s27.833-19 46.5-19c19.333 0 35.166 6.333 47.499 19z"/><glyph glyph-name="Uhungarumlaut" unicode="Ű" horiz-adv-x="791" d="M177 72c-52 53.333-78 130-78 230v398h100V306c0-150 65.667-225 197-225 64 0 113 18.5 147 55.5S594 230 594 306v394h97V302c0-100.667-26-177.5-78-230.5S488.333-8 395-8 229 18.667 177 72zm181 815h102L349 757h-81zm174 0h101L524 757h-81z"/><glyph glyph-name="uhungarumlaut" unicode="ű" horiz-adv-x="677" d="M585 530l.001-530.001h-91v80c-19.333-27.333-44.833-48.5-76.5-63.5s-66.167-22.5-103.5-22.5c-70.667 0-126.334 19.5-167.001 58.5s-61 96.5-61 172.5v305h96v-294c0-51.333 12.333-90.166 37-116.499S279 80 325 80c50.667 0 90.667 15.333 120 46s44 74 44 130v274h96zM298.001 736.999h102l-111-130h-81zm174 0h101l-109-130h-81z"/><glyph glyph-name="Uogonek" unicode="Ų" horiz-adv-x="791" d="M691 700l-.001-398c0-78.667-15.667-142.334-47-191.001s-76-83-134-103c-96-34-144-75.333-144-124 0-16 5.667-28.667 17-38s26.333-14 45-14c10.667 0 21.5 1.5 32.5 4.5s20.5 7.167 28.5 12.5l19-49c-26.667-16-56.667-24-90-24-37.333 0-66.666 9.167-87.999 27.5s-32 42.833-32 73.5C298-78.334 321-39.667 367-7c-84.667 5.333-150.5 34.5-197.5 87.5S99 207.333 99 302v398h100V306c0-150 65.667-225 197-225 64 0 113 18.5 147 55.5S594 230 594 306v394h97z"/><glyph glyph-name="uogonek" unicode="ų" horiz-adv-x="677" d="M585 530l.001-530.001h-91v80c-19.333-27.333-44.833-48.5-76.5-63.5s-66.167-22.5-103.5-22.5c-70.667 0-126.334 19.5-167.001 58.5s-61 96.5-61 172.5v305h96v-294c0-51.333 12.333-90.166 37-116.499S279 80 325 80c50.667 0 90.667 15.333 120 46s44 74 44 130v274h96zM429.001-196.501c-21.333 18.333-32.002 42.833-32.002 73.5 0 29.333 11.333 57.5 34 84.5s59 50.5 109 70.5l45-32c-42.667-18.667-73.167-37.5-91.5-56.5s-27.5-38.833-27.5-59.5c0-16 5.667-28.667 17-38s26-14 44-14c24.667 0 45.334 5.667 62.001 17l18-49c-25.333-16-55.333-24-90-24-37.333 0-66.666 9.167-87.999 27.5z"/><glyph glyph-name="Wcircumflex" unicode="Ŵ" horiz-adv-x="1126" d="M1094 700L860 0H755L564 559 373 0H266L32 700h103l189-569 197 569h92l193-572 193 572h95zm-438 57l-92 77-92-77h-87l133 130h92l133-130h-87z"/><glyph glyph-name="wcircumflex" unicode="ŵ" horiz-adv-x="899" d="M893 530L695 0h-92L450 402 295 0h-92L6 530h91l154-422 160 422h81l157-424 158 424h86zm-354 75l-92 77-92-77h-87l133 130h92l133-130h-87z"/><glyph glyph-name="Ycircumflex" unicode="Ŷ" horiz-adv-x="647" d="M373 242V0h-99v244L-4 700h107l224-369 225 369h99zm43 515l-92 77-92-77h-87l133 130h92l133-130h-87z"/><glyph glyph-name="ycircumflex" unicode="ŷ" horiz-adv-x="559" d="M560 530L302.999-53c-22.667-54-49.167-92-79.5-114s-66.833-33-109.5-33c-26 0-51.167 4.167-75.5 12.5s-44.5 20.5-60.5 36.5l41 72c27.333-26 59-39 95-39 23.333 0 42.833 6.167 58.5 18.5S202.333-66 215-36l17 37L-2 530H98l185-424 183 424h94zm-202.001 77l-92 77-92-77h-87l133 130h92l133-130h-87z"/><glyph glyph-name="Ydieresis" unicode="Ÿ" horiz-adv-x="647" d="M373 242V0h-99v244L-4 700h107l224-369 225 369h99zM195 788.5c-10 9.667-15 21.834-15 36.501s5 27 15 37 22 15 36 15 26-5 36-15 15-22.333 15-37-5-26.834-15-36.501-22-14.5-36-14.5-26 4.833-36 14.5zm186 0c-10 9.667-15 21.834-15 36.501s5 27 15 37 22 15 36 15 26-5 36-15 15-22.333 15-37-5-26.834-15-36.501-22-14.5-36-14.5-26 4.833-36 14.5z"/><glyph glyph-name="Zacute" unicode="Ź" horiz-adv-x="657" d="M628 87V0H43v68l440 545H50v87h565v-68L177 87h451zM397 887h122L351 757h-90z"/><glyph glyph-name="zacute" unicode="ź" horiz-adv-x="521" d="M484 79V0H40v62l313 389H46v79h430v-63L163 79h321zM323 737h122L277 607h-90z"/><glyph glyph-name="Zdotaccent" unicode="Ż" horiz-adv-x="657" d="M628 87V0H43v68l440 545H50v87h565v-68L177 87h451zM294 792c-11.333 11.333-17 25.333-17 42s5.667 30.667 17 42 25.333 17 42 17 30.667-5.667 42-17 17-25.333 17-42-5.667-30.667-17-42-25.333-17-42-17-30.667 5.667-42 17z"/><glyph glyph-name="zdotaccent" unicode="ż" horiz-adv-x="521" d="M484 79V0H40v62l313 389H46v79h430v-63L163 79h321zM220 642c-11.333 11.333-17 25.333-17 42s5.667 30.667 17 42 25.333 17 42 17 30.667-5.667 42-17 17-25.333 17-42-5.667-30.667-17-42-25.333-17-42-17-30.667 5.667-42 17z"/><glyph glyph-name="Zcaron" unicode="Ž" horiz-adv-x="657" d="M628 87V0H43v68l440 545H50v87h565v-68L177 87h451zM515 887L382 757h-92L157 887h87l92-76 92 76h87z"/><glyph glyph-name="zcaron" unicode="ž" horiz-adv-x="521" d="M484 79V0H40v62l313 389H46v79h430v-63L163 79h321zm-43 658L308 607h-92L83 737h87l92-76 92 76h87z"/><glyph glyph-name="longs" unicode="ſ" horiz-adv-x="306" d="M350 740c18.667-5.333 34.666-13 47.999-23l-29-73c-22 16.667-46.667 25-74 25s-48.166-7.833-62.499-23.5-21.5-38.834-21.5-69.501v-576h-96v451H25v79h90v47c0 52.667 15.333 94.334 46 125.001s73.667 46 129 46c21.333 0 41.333-2.667 60-8z"/><glyph glyph-name="uni018F" unicode="Ə" horiz-adv-x="817" d="M590.5 661.5c55.667-31 99.333-73.668 131-128.001S769 418.333 769 351c0-68-15.667-129.333-47-184S647.667 69.5 593 38.5 477-8 409-8C340.333-8 278.666 7.667 223.999 39s-97.667 74.5-129 129.5-47 116.833-47 185.5v28h620c-4.667 45.333-19.167 86-43.5 122s-56 64.167-95 84.5-81.5 30.5-127.5 30.5c-42.667 0-83-6.833-121-20.5s-71-34.167-99-61.5l-60 69c33.333 32 74.333 57 123 75S346.333 708 403 708c69.333 0 131.833-15.5 187.5-46.5zm-9.001-524.001c46.333 39.667 74.5 92.834 84.5 159.501h-515c10.667-66.667 39.167-119.834 85.5-159.501s103.833-59.5 172.5-59.5 126.167 19.833 172.5 59.5z"/><glyph glyph-name="florin" unicode="ƒ" horiz-adv-x="449" d="M309 643.5c-16.667-15.667-26.998-38.833-30.998-69.5l-7-57h154l-9-79h-152l-58-467c-6-52-25.333-93.5-58-124.5s-75-46.5-127-46.5c-23.333 0-45 2.833-65 8.5s-36 13.834-48 24.501l36 73c20-16.667 44.333-25 73-25 26 0 47.167 8 63.5 24s26.166 39 29.499 69l58 464h-91l10 79h91l7 60c6 52 25.833 93.5 59.5 124.5s77.167 46.5 130.5 46.5c21.333 0 41.833-2.833 61.5-8.5s35.5-13.834 47.5-24.501l-37-73c-18.667 16.667-42 25-70 25-28.667 0-51.334-7.833-68.001-23.5z"/><glyph glyph-name="Ohorn" unicode="Ơ" horiz-adv-x="840" d="M754.5 512.5c25-49.667 37.503-103.834 37.503-162.501 0-68-16-129.167-48-183.5s-76.333-97-133-128-120-46.5-190-46.5c-70.667 0-134.334 15.5-191.001 46.5s-101.167 73.833-133.5 128.5-48.5 115.667-48.5 183c0 68 16.167 129.167 48.5 183.5s77.166 97 134.499 128 121.666 46.5 192.999 46.5c30.667 0 68-2.667 112-8 37.333-4 64-6 80-6 30.667 0 54.167 6.167 70.5 18.5s24.5 30.5 24.5 54.5c0 20.667-6.667 41.334-20 62.001l60 24c18.667-27.333 28-57.333 28-90 0-36.667-11-66.167-33-88.5s-53.333-35.833-94-40.5c43.333-31.333 77.5-71.833 102.5-121.5zM559.003 116c41.333 23.333 73.833 55.5 97.5 96.5s35.5 86.833 35.5 137.5-11.833 96.5-35.5 137.5-56.167 73.167-97.5 96.5-87.333 35-138 35c-51.333 0-97.833-11.667-139.5-35s-74.334-55.5-98.001-96.5-35.5-86.833-35.5-137.5 11.833-96.5 35.5-137.5 56.334-73.167 98.001-96.5 88.167-35 139.5-35c50.667 0 96.667 11.667 138 35z"/><glyph glyph-name="ohorn" unicode="ơ" horiz-adv-x="635" d="M568 383.5c16.667-35.667 25.001-75.165 25.001-118.498 0-52-11.833-98.5-35.5-139.5s-56.334-73.167-98.001-96.5-88.834-35-141.501-35-100 11.667-142 35-74.833 55.5-98.5 96.5-35.5 87.5-35.5 139.5 12 98.5 36 139.5 57 73 99 96 89.333 34.5 142 34.5c13.333 0 26.333-.5 39-1.5s21.667-1.5 27-1.5c16.667-2 35-3 55-3 24.667 0 43.5 6.333 56.5 19s19.5 28.667 19.5 48c0 22-7 43-21 63l60 23c19.333-27.333 29-57 29-89 0-29.333-7.5-54.333-22.5-75s-36.5-35.334-64.5-44.001c30.667-24.667 54.334-54.834 71.001-90.501zM409.001 101.502c27.333 15.667 48.668 37.667 64.001 66s23 60.833 23 97.5-7.667 69.167-23 97.5-36.5 50.166-63.5 65.499-57.5 23-91.5 23-64.5-7.667-91.5-23-48.333-37.166-64-65.499-23.5-60.833-23.5-97.5 7.833-69.167 23.5-97.5 37-50.333 64-66 57.5-23.5 91.5-23.5c33.333 0 63.666 7.833 90.999 23.5z"/><glyph glyph-name="Uhorn" unicode="Ư" horiz-adv-x="799" d="M177 72c-52 53.333-78 130-78 230v398h100V306c0-150 65.667-225 197-225 64 0 113 18.5 147 55.5S594 230 594 306v394h97V302c0-100.667-26-177.5-78-230.5S488.333-8 395-8 229 18.667 177 72zm465 628l18-.001c21.333 0 37.333 6 48 18s16 27.667 16 47c0 24-6.667 45-20 63l61 23c18.667-25.333 28-55 28-89 0-41.333-11.833-74.166-35.5-98.499S701.333 627 660 627h-18v73z"/><glyph glyph-name="uhorn" unicode="ư" horiz-adv-x="685" d="M585 530l.001-530.001h-91v80c-19.333-27.333-44.833-48.5-76.5-63.5s-66.167-22.5-103.5-22.5c-70.667 0-126.334 19.5-167.001 58.5s-61 96.5-61 172.5v305h96v-294c0-51.333 12.333-90.166 37-116.499S279 80 325 80c50.667 0 90.667 15.333 120 46s44 74 44 130v274h96zm-64.999-.001l18-.001c21.333 0 37.333 6 48 18s16 27.667 16 47c0 24-6.667 45-20 63l61 23c18.667-25.333 28-55 28-89 0-41.333-11.833-74.166-35.5-98.499s-56.167-36.5-97.5-36.5h-18v73z"/><glyph glyph-name="uni01B7" unicode="Ʒ" horiz-adv-x="623" d="M514 344.5c40-35.667 60.003-81.832 60.003-138.499 0-40.667-10.333-77.167-31-109.5s-51.834-57.833-93.501-76.5-92.5-28-152.5-28c-54 0-104.833 7.5-152.5 22.5s-85.5 35.5-113.5 61.5l37 79c25.333-23.333 58.166-41.833 98.499-55.5s83.166-20.5 128.499-20.5c56.667 0 100.5 11.167 131.5 33.5s46.5 53.5 46.5 93.5c0 38-15.333 67.833-46 89.5s-77 32.5-139 32.5h-58v69l192 218H58v85h483v-68l-200-227c75.333-4.667 133-24.834 173-60.501z"/><glyph glyph-name="uni01C4" unicode="Ǆ" horiz-adv-x="1454" d="M105 700h295c74 0 139.667-14.667 197-44s101.833-70.5 133.5-123.5S778 418.667 778 350s-15.833-129.5-47.5-182.5S654.333 73.333 597 44 474 0 400 0H105v700zM394 87c56.667 0 106.5 11 149.5 33s76.167 52.833 99.5 92.5S678 298 678 350s-11.667 97.833-35 137.5-56.5 70.5-99.5 92.5-92.833 33-149.5 33H205V87h189zm1026 0V0H835v68l440 545H842v87h565v-68L969 87h451zm-113 800l-133-130h-92L949 887h87l92-76 92 76h87z"/><glyph glyph-name="uni01C5" unicode="ǅ" horiz-adv-x="1347" d="M105 700h295c74 0 139.667-14.667 197-44s101.833-70.5 133.5-123.5S778 418.667 778 350s-15.833-129.5-47.5-182.5S654.333 73.333 597 44 474 0 400 0H105v700zM394 87c56.667 0 106.5 11 149.5 33s76.167 52.833 99.5 92.5S678 298 678 350s-11.667 97.833-35 137.5-56.5 70.5-99.5 92.5-92.833 33-149.5 33H205V87h189zm916-8V0H866v62l313 389H872v79h430v-63L989 79h321zm-43 658l-133-130h-92L909 737h87l92-76 92 76h87z"/><glyph glyph-name="uni01C6" unicode="ǆ" horiz-adv-x="1211" d="M591 742V-.002h-92v84c-21.333-29.333-48.333-51.666-81-66.999s-68.667-23-108-23c-51.333 0-97.333 11.333-138 34s-72.5 54.5-95.5 95.5S42 211.666 42 264.999s11.5 100.333 34.5 141S131.333 478.333 172 501s86.667 34 138 34c38 0 73-7.167 105-21.5s58.667-35.5 80-63.5v292h96zM409 101.498c27.333 15.667 48.666 37.667 63.999 66s23 60.833 23 97.5-7.667 69.167-23 97.5-36.666 50.166-63.999 65.499-57.666 23-90.999 23c-34 0-64.5-7.667-91.5-23s-48.333-37.166-64-65.499-23.5-60.833-23.5-97.5 7.833-69.167 23.5-97.5 37-50.333 64-66 57.5-23.5 91.5-23.5c33.333 0 63.666 7.833 90.999 23.5zm754-22.5v-79H719v62l313 389H725v79h430v-63l-313-388h321zm-43 658l-133-130h-92l-133 130h87l92-76 92 76h87z"/><glyph glyph-name="uni01C7" unicode="Ǉ" horiz-adv-x="1107" d="M105 700h100V87h379V0H105v700zM672 18.5C636 36.167 607 61 585 93l58 68c38.667-55.333 87.334-83 146.001-83 39.333 0 69.166 12 89.499 36S909 173.333 909 220v393H656v87h352V225c0-77.333-18.5-135.5-55.5-174.5S861-8 789-8c-42 0-81 8.833-117 26.5z"/><glyph glyph-name="uni01C8" unicode="ǈ" horiz-adv-x="878" d="M105 700h100V87h379V0H105v700zm447-892c-20 5.333-36.667 13.332-50 23.999l31 74c20-16.667 46-25 78-25 25.333 0 44.833 7.833 58.5 23.5S690-56.667 690-26v556h96V-24c0-54.667-14.667-97.667-44-129s-71-47-125-47c-23.333 0-45 2.667-65 8zm139.5 841.999c-12.333 12-18.5 26.668-18.5 44.001s6.167 32.166 18.5 44.499 27.833 18.5 46.5 18.5 34.167-5.833 46.5-17.5 18.5-26.167 18.5-43.5c0-18-6.167-33.167-18.5-45.5s-27.833-18.5-46.5-18.5-34.167 6-46.5 18z"/><glyph glyph-name="uni01C9" unicode="ǉ" horiz-adv-x="563" d="M91 742h96V0H91v742zm146-934c-20 5.333-36.667 13.332-50 23.999l31 74c20-16.667 46-25 78-25 25.333 0 44.833 7.833 58.5 23.5S375-56.667 375-26v556h96V-24c0-54.667-14.667-97.667-44-129s-71-47-125-47c-23.333 0-45 2.667-65 8zm139.5 841.999c-12.333 12-18.5 26.668-18.5 44.001s6.167 32.166 18.5 44.499 27.833 18.5 46.5 18.5 34.167-5.833 46.5-17.5 18.5-26.167 18.5-43.5c0-18-6.167-33.167-18.5-45.5s-27.833-18.5-46.5-18.5-34.167 6-46.5 18z"/><glyph glyph-name="uni01CA" unicode="Ǌ" horiz-adv-x="1325" d="M707 700V0h-82L205 522V0H105v700h82l420-522v522h100zM890 18.5C854 36.167 825 61 803 93l58 68c38.667-55.333 87.334-83 146.001-83 39.333 0 69.166 12 89.499 36s30.5 59.333 30.5 106v393H874v87h352V225c0-77.333-18.5-135.5-55.5-174.5S1079-8 1007-8c-42 0-81 8.833-117 26.5z"/><glyph glyph-name="uni01CB" unicode="ǋ" horiz-adv-x="1096" d="M707 700V0h-82L205 522V0H105v700h82l420-522v522h100zm63-892c-20 5.333-36.667 13.332-50 23.999l31 74c20-16.667 46-25 78-25 25.333 0 44.833 7.833 58.5 23.5S908-56.667 908-26v556h96V-24c0-54.667-14.667-97.667-44-129s-71-47-125-47c-23.333 0-45 2.667-65 8zm139.5 841.999c-12.333 12-18.5 26.668-18.5 44.001s6.167 32.166 18.5 44.499 27.833 18.5 46.5 18.5 34.167-5.833 46.5-17.5 18.5-26.167 18.5-43.5c0-18-6.167-33.167-18.5-45.5s-27.833-18.5-46.5-18.5-34.167 6-46.5 18z"/><glyph glyph-name="uni01CC" unicode="ǌ" horiz-adv-x="965" d="M534.5 476.5c39.667-39 59.5-96.167 59.5-171.5V0h-96v294c0 51.333-12.333 90-37 116s-60 39-106 39c-52 0-93-15.167-123-45.5s-45-73.833-45-130.5V0H91v530h92v-80c19.333 27.333 45.5 48.333 78.5 63S332 535 374 535c67.333 0 120.833-19.5 160.5-58.5zM639-192c-20 5.333-36.667 13.332-50 23.999l31 74c20-16.667 46-25 78-25 25.333 0 44.833 7.833 58.5 23.5S777-56.667 777-26v556h96V-24c0-54.667-14.667-97.667-44-129s-71-47-125-47c-23.333 0-45 2.667-65 8zm139.5 841.999c-12.333 12-18.5 26.668-18.5 44.001s6.167 32.166 18.5 44.499 27.833 18.5 46.5 18.5 34.167-5.833 46.5-17.5 18.5-26.167 18.5-43.5c0-18-6.167-33.167-18.5-45.5s-27.833-18.5-46.5-18.5-34.167 6-46.5 18z"/><glyph glyph-name="uni01CD" unicode="Ǎ" horiz-adv-x="732" d="M551 175H179L102 0H-1l317 700h99L733 0H628zm-35 80L365 598 214 255h302zm29 632L412 757h-92L187 887h87l92-76 92 76h87z"/><glyph glyph-name="uni01CE" unicode="ǎ" horiz-adv-x="598" d="M452.5 481c39-36 58.501-89.669 58.501-161.002v-320h-91v70c-16-24.667-38.833-43.5-68.5-56.5S286.667-6.002 246-6.002c-59.333 0-106.833 14.333-142.5 43S50 103.332 50 149.999s17 84.167 51 112.5 88 42.5 162 42.5h152v19c0 41.333-12 73-36 95s-59.333 33-106 33c-31.333 0-62-5.167-92-15.5S125.667 412.333 105 395l-40 72c27.333 22 60 38.833 98 50.5S241.333 535 284 535c73.333 0 129.5-18 168.5-54zM357.001 92.498c26.667 16.333 45.998 39.5 57.998 69.5v74h-148c-81.333 0-122-27.333-122-82 0-26.667 10.333-47.667 31-63s49.334-23 86.001-23 68.334 8.167 95.001 24.5zm112.998 644.5l-133-130h-92l-133 130h87l92-76 92 76h87z"/><glyph glyph-name="uni01D3" unicode="Ǔ" horiz-adv-x="791" d="M177 72c-52 53.333-78 130-78 230v398h100V306c0-150 65.667-225 197-225 64 0 113 18.5 147 55.5S594 230 594 306v394h97V302c0-100.667-26-177.5-78-230.5S488.333-8 395-8 229 18.667 177 72zm398 815L442 757h-92L217 887h87l92-76 92 76h87z"/><glyph glyph-name="uni01D4" unicode="ǔ" horiz-adv-x="677" d="M585 530l.001-530.001h-91v80c-19.333-27.333-44.833-48.5-76.5-63.5s-66.167-22.5-103.5-22.5c-70.667 0-126.334 19.5-167.001 58.5s-61 96.5-61 172.5v305h96v-294c0-51.333 12.333-90.166 37-116.499S279 80 325 80c50.667 0 90.667 15.333 120 46s44 74 44 130v274h96zm-69.999 206.999l-133-130h-92l-133 130h87l92-76 92 76h87z"/><glyph glyph-name="uni01E4" unicode="Ǥ" horiz-adv-x="807" d="M590 354l95.999-.002v-273c-34.667-28.667-75-50.667-121-66s-94-23-144-23c-70.667 0-134.334 15.5-191.001 46.5s-101.167 73.667-133.5 128-48.5 115.5-48.5 183.5 16.167 129.333 48.5 184 77 97.334 134 128.001 121.167 46 192.5 46c56 0 106.833-9.167 152.5-27.5s84.5-45.166 116.5-80.499l-62-62c-56 54-123.667 81-203 81-53.333 0-101.166-11.5-143.499-34.5s-75.5-55-99.5-96-36-87.167-36-138.5c0-50.667 12-96.5 36-137.5s57.167-73.167 99.5-96.5 89.833-35 142.5-35C488.666 81 543.333 96 590 126v228zm-188.883-77.002h383.105v-79H401.117v79z"/><glyph glyph-name="uni01E5" unicode="ǥ" horiz-adv-x="698" d="M662-58l-85-.002c-36-94.667-120.667-142-254-142-50 0-97.667 6.833-143 20.5s-82 33.167-110 58.5l46 74c24.667-21.333 55.167-38.166 91.5-50.499s73.833-18.5 112.5-18.5c71.333 0 121.333 19.333 150 58H284v65l213 1c3.333 18 5 36 5 54v60c-22.667-26-50.5-45.667-83.5-59s-68.833-20-107.5-20c-50.667 0-96.5 10.333-137.5 31S100.333 123.833 77 161.5 42 242 42 290s11.667 90.5 35 127.5 55.5 65.833 96.5 86.5 86.833 31 137.5 31c40.667 0 78-7 112-21s62-34.667 84-62v78h91V72c0-24.667-1.333-46-4-64h68v-66zM453 169.998c34 30.667 51 70.667 51 120 0 32-7.833 60.5-23.5 85.5s-37.167 44.5-64.5 58.5-58.666 21-93.999 21-66.833-7-94.5-21-49.334-33.5-65.001-58.5-23.5-53.5-23.5-85.5c0-49.333 17-89.333 51-120s78-46 132-46c53.333 0 97 15.333 131 46z"/><glyph glyph-name="Gcaron" unicode="Ǧ" horiz-adv-x="772" d="M590 354l95.999-.002v-273c-34.667-28.667-75-50.667-121-66s-94-23-144-23c-70.667 0-134.334 15.5-191.001 46.5s-101.167 73.667-133.5 128-48.5 115.5-48.5 183.5 16.167 129.333 48.5 184 77 97.334 134 128.001 121.167 46 192.5 46c56 0 106.833-9.167 152.5-27.5s84.5-45.166 116.5-80.499l-62-62c-56 54-123.667 81-203 81-53.333 0-101.166-11.5-143.499-34.5s-75.5-55-99.5-96-36-87.167-36-138.5c0-50.667 12-96.5 36-137.5s57.167-73.167 99.5-96.5 89.833-35 142.5-35C488.666 81 543.333 96 590 126v228zm-1.001 532.998l-133-130h-92l-133 130h87l92-76 92 76h87z"/><glyph glyph-name="gcaron" unicode="ǧ" horiz-adv-x="690" d="M598 530V72c0-92.667-23-161.167-69-205.5S414.333-200 323-200c-50 0-97.667 6.833-143 20.5S98-146.333 70-121l46 74c24.667-21.333 55.167-38.166 91.5-50.499s73.833-18.5 112.5-18.5c62 0 107.833 14.667 137.5 44s44.5 74 44.5 134v42c-22.667-27.333-50.5-47.833-83.5-61.5s-68.833-20.5-107.5-20.5c-50.667 0-96.5 10.833-137.5 32.5s-73.167 52-96.5 91-35 83.5-35 133.5 11.667 94.5 35 133.5 55.5 69.167 96.5 90.5 86.833 32 137.5 32c40 0 77.167-7.333 111.5-22S485 476.667 507 448v82h91zM415.5 128c27.667 14.667 49.331 35.167 64.998 61.5s23.5 56.166 23.5 89.499c0 51.333-17 92.833-51 124.5s-77.667 47.5-131 47.5c-54 0-98-15.833-132-47.5s-51-73.167-51-124.5c0-33.333 7.833-63.166 23.5-89.499s37.334-46.833 65.001-61.5 59.167-22 94.5-22c34.667 0 65.834 7.333 93.501 22zm92.497 609l-133-130h-92l-133 130h87l92-76 92 76h87z"/><glyph glyph-name="uni01E8" unicode="Ǩ" horiz-adv-x="719" d="M333 311L205 181V0H105v700h100V309l380 391h114L400 385 718 0H601zm221 576L421 757h-92L196 887h87l92-76 92 76h87z"/><glyph glyph-name="uni01E9" unicode="ǩ" horiz-adv-x="616" d="M297 247L187 145V0H91v742h96V266l289 264h116L369 311 614 0H496zm21 702L185 819H93L-40 949h87l92-76 92 76h87z"/><glyph glyph-name="uni01EA" unicode="Ǫ" horiz-adv-x="840" d="M611 661.5c56.667-31 100.997-73.665 132.997-127.998s48-115.5 48-183.5c0-58-11.833-110.833-35.5-158.5s-55.667-87.334-96-119.001S574.664 18.667 523.997 6C479.33-6 443.663-22.833 416.996-44.5s-40-45.5-40-71.5c0-16 5.667-28.667 17-38s26.333-14 45-14c24 0 44.333 5.667 61 17l19-49c-25.333-16-55.333-24-90-24-37.333 0-66.666 9.167-87.999 27.5s-32 42.833-32 73.5c0 20.667 5.667 41 17 61s29 38.667 53 56c-63.333 6-120.166 25-170.499 57s-89.666 74-117.999 126-42.5 109.667-42.5 173c0 68 16.167 129.167 48.5 183.5s76.833 97 133.5 128S350.333 708 421 708c70 0 133.333-15.5 190-46.5zm-51.503-545.498c41 23.333 73.333 55.5 97 96.5s35.5 86.833 35.5 137.5-11.833 96.5-35.5 137.5-56 73.167-97 96.5-87.167 35-138.5 35-97.833-11.667-139.5-35-74.334-55.5-98.001-96.5-35.5-86.833-35.5-137.5 11.833-96.5 35.5-137.5 56.334-73.167 98.001-96.5 88.167-35 139.5-35 97.5 11.667 138.5 35z"/><glyph glyph-name="uni01EB" unicode="ǫ" horiz-adv-x="635" d="M325-50c-20-21.333-29.999-42.999-29.999-64.999 0-16.667 5.667-29.667 17-39s26.333-14 45-14c10.667 0 21.5 1.5 32.5 4.5s20.5 7.167 28.5 12.5l19-49c-26.667-16-56.667-24-90-24-36.667 0-65.834 9.167-87.501 27.5S227-154.333 227-125c0 46.667 23 86.667 69 120-48.667 3.333-92.334 16.833-131.001 40.5S96.165 91 74.498 131s-32.5 84.667-32.5 134c0 52 11.833 98.5 35.5 139.5s56.5 73 98.5 96 89.333 34.5 142 34.5 99.834-11.5 141.501-34.5 74.334-55 98.001-96S593 317 593 265c0-57.333-14.333-107.833-43-151.5S482 37.333 432 16c-51.333-22.667-87-44.667-107-66zM162.501 167.501c15.667-28.333 37-50.333 64-66s57.5-23.5 91.5-23.5 64.5 7.833 91.5 23.5 48.167 37.667 63.5 66 23 60.833 23 97.5-7.667 69.167-23 97.5-36.5 50.166-63.5 65.499-57.5 23-91.5 23-64.5-7.667-91.5-23-48.333-37.166-64-65.499-23.5-60.833-23.5-97.5 7.833-69.167 23.5-97.5z"/><glyph glyph-name="uni01EE" unicode="Ǯ" horiz-adv-x="623" d="M514 344.5c40-35.667 60.003-81.832 60.003-138.499 0-40.667-10.333-77.167-31-109.5s-51.834-57.833-93.501-76.5-92.5-28-152.5-28c-54 0-104.833 7.5-152.5 22.5s-85.5 35.5-113.5 61.5l37 79c25.333-23.333 58.166-41.833 98.499-55.5s83.166-20.5 128.499-20.5c56.667 0 100.5 11.167 131.5 33.5s46.5 53.5 46.5 93.5c0 38-15.333 67.833-46 89.5s-77 32.5-139 32.5h-58v69l192 218H58v85h483v-68l-200-227c75.333-4.667 133-24.834 173-60.501zm-32.997 542.502l-133-130h-92l-133 130h87l92-76 92 76h87z"/><glyph glyph-name="uni01EF" unicode="ǯ" horiz-adv-x="527" d="M438.5 162c37-36.667 55.499-84.336 55.499-143.003 0-41.333-9.833-78.666-29.5-111.999s-49.167-59.666-88.5-78.999-87.333-29-144-29c-50.667 0-98.5 8-143.5 24s-81.167 37.333-108.5 64l37 80c23.333-24 53.833-43.167 91.5-57.5s77.5-21.5 119.5-21.5c53.333 0 94.5 11.5 123.5 34.5s43.5 55.167 43.5 96.5c0 40.667-14.167 72.334-42.5 95.001S281.333 148 224 148h-57v68l182 229H5v85h459v-69L276 225c71.333-5.333 125.5-26.333 162.5-63zm-33.501 574.998l-133-130h-92l-133 130h87l92-76 92 76h87z"/><glyph glyph-name="Aringacute" unicode="Ǻ" horiz-adv-x="732" d="M551 175H179L102 0H-1l317 700h99L733 0H628zm-35 80L365 598 214 255h302zm-59 680c12.667-18.667 18.999-39.667 18.999-63 0-30-10.667-55.5-32-76.5S396.333 764 365 764c-30.667 0-56.667 10.5-78 31.5S255 842 255 872s10.667 55.833 32 77.5 47.333 32.5 78 32.5c19.333 0 37.333-4.667 54-14l84 85 50-41zm-44.501-110c12.333 12.667 18.502 28.334 18.502 47.001 0 19.333-6.333 35.333-19 48s-28.334 19-47.001 19-34.167-6.333-46.5-19-18.5-28.667-18.5-48c0-18.667 6.167-34.334 18.5-47.001s27.833-19 46.5-19c19.333 0 35.166 6.333 47.499 19z"/><glyph glyph-name="aringacute" unicode="ǻ" horiz-adv-x="598" d="M452.5 481c39-36 58.501-89.669 58.501-161.002v-320h-91v70c-16-24.667-38.833-43.5-68.5-56.5S286.667-6.002 246-6.002c-59.333 0-106.833 14.333-142.5 43S50 103.332 50 149.999s17 84.167 51 112.5 88 42.5 162 42.5h152v19c0 41.333-12 73-36 95s-59.333 33-106 33c-31.333 0-62-5.167-92-15.5S125.667 412.333 105 395l-40 72c27.333 22 60 38.833 98 50.5S241.333 535 284 535c73.333 0 129.5-18 168.5-54zM357.001 92.498c26.667 16.333 45.998 39.5 57.998 69.5v74h-148c-81.333 0-122-27.333-122-82 0-26.667 10.333-47.667 31-63s49.334-23 86.001-23 68.334 8.167 95.001 24.5zm24.998 672.5c12.667-18.667 18.999-39.667 18.999-63 0-30-10.667-55.5-32-76.5s-47.666-31.5-78.999-31.5c-30.667 0-56.667 10.5-78 31.5s-32 46.5-32 76.5 10.667 55.833 32 77.5 47.333 32.5 78 32.5c19.333 0 37.333-4.667 54-14l84 85 50-41zm-44.501-110C349.831 667.665 356 683.332 356 701.999c0 19.333-6.333 35.333-19 48s-28.334 19-47.001 19-34.167-6.333-46.5-19-18.5-28.667-18.5-48c0-18.667 6.167-34.334 18.5-47.001s27.833-19 46.5-19c19.333 0 35.166 6.333 47.499 19z"/><glyph glyph-name="AEacute" unicode="Ǽ" horiz-adv-x="1047" d="M991 87V0H483v175H205L102 0H-1l417 700h561v-87H582V398h351v-85H582V87h409zM483 255v358h-20L252 255h231zm110 632h122L547 757h-90z"/><glyph glyph-name="aeacute" unicode="ǽ" horiz-adv-x="989" d="M944 235H512.002c5.333-47.333 25.333-85.333 60-114s78.667-43 132-43c62 0 113 21.333 153 64l54-62c-24.667-28-54.834-49.333-90.501-64s-75.5-22-119.5-22c-49.333 0-94 8.833-134 26.5s-73 44.5-99 80.5c-20.667-37.333-49.667-64.5-87-81.5s-79-25.5-125-25.5c-64 0-114.333 14.667-151 44s-55 68-55 116c0 44 17 80 51 108s88 42 162 42h152v20c0 41.333-11.833 73-35.5 95S320.667 452 274 452c-32 0-63-5.167-93-15.5s-55.333-24.166-76-41.499l-40 72c27.333 22 60 38.833 98 50.5s78 17.5 120 17.5c98 0 163.667-31.333 197-94 23.333 29.333 52.5 52.333 87.5 69s73.5 25 115.5 25c50 0 95.167-11.5 135.5-34.5s71.833-54.833 94.5-95.5S947 318.667 947 268c0-12.667-1-23.667-3-33zM570.002 414c-32-26.667-51.002-63.334-57.002-110.001h339c-5.333 46.667-24.166 83.334-56.499 110.001s-70.166 40-113.499 40c-42.667 0-80-13.333-112-40zM374.5 104c27 24 40.5 56.333 40.5 97v34H267c-81.333 0-122-26.333-122-79 0-28 10.5-49.667 31.5-65s50.167-23 87.5-23c46.667 0 83.5 12 110.5 36zM524 737h122L478 607h-90z"/><glyph glyph-name="Oslashacute" unicode="Ǿ" horiz-adv-x="840" d="M230 38.5c-56.667 31-101.167 73.833-133.5 128.5S48 282.667 48 350s16.167 128.333 48.5 183 76.833 97.5 133.5 128.5S350.334 708 421.001 708c70 0 133.333-15.5 190-46.5s101-73.667 133-128 48-115.5 48-183.5-16-129.167-48-183.5-76.333-97-133-128-120-46.5-190-46.5C350.334-8 286.667 7.5 230 38.5zM559.5 116c41 23.333 73.333 55.5 97 96.5S692 299.333 692 350s-11.833 96.5-35.5 137.5-56 73.167-97 96.5-87.167 35-138.5 35-97.833-11.667-139.5-35-74.334-55.5-98.001-96.5-35.5-86.833-35.5-137.5 11.833-96.5 35.5-137.5 56.334-73.167 98.001-96.5S369.667 81 421 81s97.5 11.667 138.5 35zM683 770h78L159-70H81zM482 887h122L436 757h-90z"/><glyph glyph-name="oslashacute" unicode="ǿ" horiz-adv-x="635" d="M176 29c-42 23.333-74.833 55.5-98.5 96.5S42 213 42 265s11.833 98.5 35.5 139.5 56.5 73 98.5 96S265.333 535 318 535s99.834-11.5 141.501-34.5 74.334-55 98.001-96 35.5-87.5 35.5-139.5-11.833-98.5-35.5-139.5-56.334-73.167-98.001-96.5S370.667-6 318-6 218 5.667 176 29zm233.5 72.5c27 15.667 48.167 37.667 63.5 66s23 60.833 23 97.5-7.667 69.167-23 97.5-36.5 50.166-63.5 65.499-57.5 23-91.5 23-64.5-7.667-91.5-23-48.333-37.166-64-65.499S139 301.667 139 265s7.833-69.167 23.5-97.5 37-50.333 64-66S284 78 318 78s64.5 7.833 91.5 23.5zM508 598h59L127-71H67zM376 737h122L330 607h-90z"/><glyph glyph-name="uni0200" unicode="Ȁ" horiz-adv-x="732" d="M551 175H179L102 0H-1l317 700h99L733 0H628zm-35 80L365 598 214 255h302zM129 887h101l89-130h-81zm173 0h102l90-130h-81z"/><glyph glyph-name="uni0201" unicode="ȁ" horiz-adv-x="598" d="M452.5 481c39-36 58.501-89.669 58.501-161.002v-320h-91v70c-16-24.667-38.833-43.5-68.5-56.5S286.667-6.002 246-6.002c-59.333 0-106.833 14.333-142.5 43S50 103.332 50 149.999s17 84.167 51 112.5 88 42.5 162 42.5h152v19c0 41.333-12 73-36 95s-59.333 33-106 33c-31.333 0-62-5.167-92-15.5S125.667 412.333 105 395l-40 72c27.333 22 60 38.833 98 50.5S241.333 535 284 535c73.333 0 129.5-18 168.5-54zM357.001 92.498c26.667 16.333 45.998 39.5 57.998 69.5v74h-148c-81.333 0-122-27.333-122-82 0-26.667 10.333-47.667 31-63s49.334-23 86.001-23 68.334 8.167 95.001 24.5zm-303.002 644.5h101l89-130h-81zm173 0h102l90-130h-81z"/><glyph glyph-name="uni0202" unicode="Ȃ" horiz-adv-x="732" d="M551 175H179L102 0H-1l317 700h99L733 0H628zm-35 80L365 598 214 255h302zM251.5 856c30.333 24.667 68.5 37 114.5 37s84.167-12.333 114.5-37 46.166-57.667 47.499-99h-65c-.667 24.667-10.167 44.167-28.5 58.5S393.333 837 366 837s-50.166-7.167-68.499-21.5-27.833-33.833-28.5-58.5h-65c1.333 41.333 17.166 74.333 47.499 99z"/><glyph glyph-name="uni0203" unicode="ȃ" horiz-adv-x="598" d="M452.5 481c39-36 58.501-89.669 58.501-161.002v-320h-91v70c-16-24.667-38.833-43.5-68.5-56.5S286.667-6.002 246-6.002c-59.333 0-106.833 14.333-142.5 43S50 103.332 50 149.999s17 84.167 51 112.5 88 42.5 162 42.5h152v19c0 41.333-12 73-36 95s-59.333 33-106 33c-31.333 0-62-5.167-92-15.5S125.667 412.333 105 395l-40 72c27.333 22 60 38.833 98 50.5S241.333 535 284 535c73.333 0 129.5-18 168.5-54zM357.001 92.498c26.667 16.333 45.998 39.5 57.998 69.5v74h-148c-81.333 0-122-27.333-122-82 0-26.667 10.333-47.667 31-63s49.334-23 86.001-23 68.334 8.167 95.001 24.5zm-180.502 613.5c30.333 24.667 68.5 37 114.5 37s84.167-12.333 114.5-37 46.166-57.667 47.499-99h-65c-.667 24.667-10.167 44.167-28.5 58.5s-41.166 21.5-68.499 21.5-50.166-7.167-68.499-21.5-27.833-33.833-28.5-58.5h-65c1.333 41.333 17.166 74.333 47.499 99z"/><glyph glyph-name="uni0204" unicode="Ȅ" horiz-adv-x="670" d="M613 87V0H105v700h494v-87H205V398h351v-85H205V87h408zM116 887h101l89-130h-81zm173 0h102l90-130h-81z"/><glyph glyph-name="uni0205" unicode="ȅ" horiz-adv-x="612" d="M568 233H137.999c6-46.667 26.5-84.167 61.5-112.5s78.5-42.5 130.5-42.5c63.333 0 114.333 21.333 153 64l53-62c-24-28-53.833-49.333-89.5-64s-75.5-22-119.5-22c-56 0-105.667 11.5-149 34.5s-76.833 55.167-100.5 96.5-35.5 88-35.5 140c0 51.333 11.5 97.666 34.5 138.999s54.667 73.5 95 96.5 85.833 34.5 136.5 34.5 95.834-11.5 135.501-34.5 70.667-55.167 93-96.5S570 315.333 570 262c0-7.333-.667-17-2-29zM192.499 412c-31-28-49.167-64.667-54.5-110h340c-5.333 44.667-23.5 81.167-54.5 109.5s-69.5 42.5-115.5 42.5-84.5-14-115.5-42zm-122.5 325h101l89-130h-81zm173 0h102l90-130h-81z"/><glyph glyph-name="uni0206" unicode="Ȇ" horiz-adv-x="670" d="M613 87V0H105v700h494v-87H205V398h351v-85H205V87h408zM238.5 856c30.333 24.667 68.5 37 114.5 37s84.167-12.333 114.5-37 46.166-57.667 47.499-99h-65c-.667 24.667-10.167 44.167-28.5 58.5S380.333 837 353 837s-50.166-7.167-68.499-21.5-27.833-33.833-28.5-58.5h-65c1.333 41.333 17.166 74.333 47.499 99z"/><glyph glyph-name="uni0207" unicode="ȇ" horiz-adv-x="612" d="M568 233H137.999c6-46.667 26.5-84.167 61.5-112.5s78.5-42.5 130.5-42.5c63.333 0 114.333 21.333 153 64l53-62c-24-28-53.833-49.333-89.5-64s-75.5-22-119.5-22c-56 0-105.667 11.5-149 34.5s-76.833 55.167-100.5 96.5-35.5 88-35.5 140c0 51.333 11.5 97.666 34.5 138.999s54.667 73.5 95 96.5 85.833 34.5 136.5 34.5 95.834-11.5 135.501-34.5 70.667-55.167 93-96.5S570 315.333 570 262c0-7.333-.667-17-2-29zM192.499 412c-31-28-49.167-64.667-54.5-110h340c-5.333 44.667-23.5 81.167-54.5 109.5s-69.5 42.5-115.5 42.5-84.5-14-115.5-42zm0 294c30.333 24.667 68.5 37 114.5 37s84.167-12.333 114.5-37 46.166-57.667 47.499-99h-65c-.667 24.667-10.167 44.167-28.5 58.5S334.332 687 306.999 687s-50.166-7.167-68.499-21.5-27.833-33.833-28.5-58.5h-65c1.333 41.333 17.166 74.333 47.499 99z"/><glyph glyph-name="uni0208" unicode="Ȉ" horiz-adv-x="310" d="M105 700h100V0H105v700zM-82 887H19l89-130H27zm173 0h102l90-130h-81z"/><glyph glyph-name="uni0209" unicode="ȉ" horiz-adv-x="279" d="M91 530h96V0H91v530zM-98 737H3l89-130H11zm173 0h102l90-130h-81z"/><glyph glyph-name="uni020A" unicode="Ȋ" horiz-adv-x="310" d="M105 700h100V0H105v700zM40.5 856c30.333 24.667 68.5 37 114.5 37s84.167-12.333 114.5-37 46.166-57.667 47.499-99h-65c-.667 24.667-10.167 44.167-28.5 58.5S182.333 837 155 837s-50.166-7.167-68.499-21.5-27.833-33.833-28.5-58.5h-65c1.333 41.333 17.166 74.333 47.499 99z"/><glyph glyph-name="uni020B" unicode="ȋ" horiz-adv-x="279" d="M91 530h96V0H91v530zM40.5 706c25.667 24.667 58.498 37 98.498 37s72.833-12.333 98.5-37 38.5-57.667 38.5-99h-62c0 24.667-6.667 44.167-20 58.5S162.332 687 138.999 687 97.333 679.833 84 665.5 64 631.667 64 607H2c0 41.333 12.833 74.333 38.5 99z"/><glyph glyph-name="uni020C" unicode="Ȍ" horiz-adv-x="840" d="M230 38.5c-56.667 31-101.167 73.833-133.5 128.5S48 282.667 48 350s16.167 128.333 48.5 183 76.833 97.5 133.5 128.5S350.334 708 421.001 708c70 0 133.333-15.5 190-46.5s101-73.667 133-128 48-115.5 48-183.5-16-129.167-48-183.5-76.333-97-133-128-120-46.5-190-46.5C350.334-8 286.667 7.5 230 38.5zM559.5 116c41 23.333 73.333 55.5 97 96.5S692 299.333 692 350s-11.833 96.5-35.5 137.5-56 73.167-97 96.5-87.167 35-138.5 35-97.833-11.667-139.5-35-74.334-55.5-98.001-96.5-35.5-86.833-35.5-137.5 11.833-96.5 35.5-137.5 56.334-73.167 98.001-96.5S369.667 81 421 81s97.5 11.667 138.5 35zM184 887h101l89-130h-81zm173 0h102l90-130h-81z"/><glyph glyph-name="uni020D" unicode="ȍ" horiz-adv-x="635" d="M176 29c-42 23.333-74.833 55.5-98.5 96.5S42 213 42 265s11.833 98.5 35.5 139.5 56.5 73 98.5 96S265.333 535 318 535s99.834-11.5 141.501-34.5 74.334-55 98.001-96 35.5-87.5 35.5-139.5-11.833-98.5-35.5-139.5-56.334-73.167-98.001-96.5S370.667-6 318-6 218 5.667 176 29zm233.5 72.5c27 15.667 48.167 37.667 63.5 66s23 60.833 23 97.5-7.667 69.167-23 97.5-36.5 50.166-63.5 65.499-57.5 23-91.5 23-64.5-7.667-91.5-23-48.333-37.166-64-65.499S139 301.667 139 265s7.833-69.167 23.5-97.5 37-50.333 64-66S284 78 318 78s64.5 7.833 91.5 23.5zM80 737h101l89-130h-81zm173 0h102l90-130h-81z"/><glyph glyph-name="uni020E" unicode="Ȏ" horiz-adv-x="840" d="M230 38.5c-56.667 31-101.167 73.833-133.5 128.5S48 282.667 48 350s16.167 128.333 48.5 183 76.833 97.5 133.5 128.5S350.334 708 421.001 708c70 0 133.333-15.5 190-46.5s101-73.667 133-128 48-115.5 48-183.5-16-129.167-48-183.5-76.333-97-133-128-120-46.5-190-46.5C350.334-8 286.667 7.5 230 38.5zM559.5 116c41 23.333 73.333 55.5 97 96.5S692 299.333 692 350s-11.833 96.5-35.5 137.5-56 73.167-97 96.5-87.167 35-138.5 35-97.833-11.667-139.5-35-74.334-55.5-98.001-96.5-35.5-86.833-35.5-137.5 11.833-96.5 35.5-137.5 56.334-73.167 98.001-96.5S369.667 81 421 81s97.5 11.667 138.5 35zm-253 740c30.333 24.667 68.5 37 114.5 37s84.167-12.333 114.5-37 46.166-57.667 47.499-99h-65c-.667 24.667-10.167 44.167-28.5 58.5S448.333 837 421 837s-50.166-7.167-68.499-21.5-27.833-33.833-28.5-58.5h-65c1.333 41.333 17.166 74.333 47.499 99z"/><glyph glyph-name="uni020F" unicode="ȏ" horiz-adv-x="635" d="M176 29c-42 23.333-74.833 55.5-98.5 96.5S42 213 42 265s11.833 98.5 35.5 139.5 56.5 73 98.5 96S265.333 535 318 535s99.834-11.5 141.501-34.5 74.334-55 98.001-96 35.5-87.5 35.5-139.5-11.833-98.5-35.5-139.5-56.334-73.167-98.001-96.5S370.667-6 318-6 218 5.667 176 29zm233.5 72.5c27 15.667 48.167 37.667 63.5 66s23 60.833 23 97.5-7.667 69.167-23 97.5-36.5 50.166-63.5 65.499-57.5 23-91.5 23-64.5-7.667-91.5-23-48.333-37.166-64-65.499S139 301.667 139 265s7.833-69.167 23.5-97.5 37-50.333 64-66S284 78 318 78s64.5 7.833 91.5 23.5zM202.5 706c30.333 24.667 68.5 37 114.5 37s84.167-12.333 114.5-37 46.166-57.667 47.499-99h-65c-.667 24.667-10.167 44.167-28.5 58.5S344.333 687 317 687s-50.166-7.167-68.499-21.5-27.833-33.833-28.5-58.5h-65c1.333 41.333 17.166 74.333 47.499 99z"/><glyph glyph-name="uni0210" unicode="Ȑ" horiz-adv-x="727" d="M573 0L422.001 215c-18.667-1.333-33.334-2-44.001-2H205V0H105v700h273c90.667 0 162-21.667 214-65s78-103 78-179c0-54-13.333-100-40-138s-64.667-65.667-114-83L682 0H573zm-52.999 339c33.333 27.333 50 66.333 50 117s-16.667 89.5-50 116.5S438.335 613 375.002 613h-170V298h170c63.333 0 111.666 13.667 144.999 41zm-386 548h101l89-130h-81zm173 0h102l90-130h-81z"/><glyph glyph-name="uni0211" unicode="ȑ" horiz-adv-x="410" d="M257 511c32.667 16 72.331 24 118.998 24v-93c-5.333.667-12.666 1-21.999 1-52 0-92.833-15.5-122.5-46.5s-44.5-75.167-44.5-132.5V0h-96v530h92v-89c16.667 30.667 41.334 54 74.001 70zM-3.003 737h101l89-130h-81zm173 0h102l90-130h-81z"/><glyph glyph-name="uni0212" unicode="Ȓ" horiz-adv-x="727" d="M573 0L422.001 215c-18.667-1.333-33.334-2-44.001-2H205V0H105v700h273c90.667 0 162-21.667 214-65s78-103 78-179c0-54-13.333-100-40-138s-64.667-65.667-114-83L682 0H573zm-52.999 339c33.333 27.333 50 66.333 50 117s-16.667 89.5-50 116.5S438.335 613 375.002 613h-170V298h170c63.333 0 111.666 13.667 144.999 41zm-263.5 517c30.333 24.667 68.5 37 114.5 37s84.167-12.333 114.5-37 46.166-57.667 47.499-99h-65c-.667 24.667-10.167 44.167-28.5 58.5S398.334 837 371.001 837s-50.166-7.167-68.499-21.5-27.833-33.833-28.5-58.5h-65c1.333 41.333 17.166 74.333 47.499 99z"/><glyph glyph-name="uni0213" unicode="ȓ" horiz-adv-x="410" d="M257 511c32.667 16 72.331 24 118.998 24v-93c-5.333.667-12.666 1-21.999 1-52 0-92.833-15.5-122.5-46.5s-44.5-75.167-44.5-132.5V0h-96v530h92v-89c16.667 30.667 41.334 54 74.001 70zM119.497 706c30.333 24.667 68.5 37 114.5 37s84.167-12.333 114.5-37 46.166-57.667 47.499-99h-65c-.667 24.667-10.167 44.167-28.5 58.5S261.33 687 233.997 687s-50.166-7.167-68.499-21.5-27.833-33.833-28.5-58.5h-65c1.333 41.333 17.166 74.333 47.499 99z"/><glyph glyph-name="uni0214" unicode="Ȕ" horiz-adv-x="791" d="M177 72c-52 53.333-78 130-78 230v398h100V306c0-150 65.667-225 197-225 64 0 113 18.5 147 55.5S594 230 594 306v394h97V302c0-100.667-26-177.5-78-230.5S488.333-8 395-8 229 18.667 177 72zm-18 815h101l89-130h-81zm173 0h102l90-130h-81z"/><glyph glyph-name="uni0215" unicode="ȕ" horiz-adv-x="677" d="M585 530l.001-530.001h-91v80c-19.333-27.333-44.833-48.5-76.5-63.5s-66.167-22.5-103.5-22.5c-70.667 0-126.334 19.5-167.001 58.5s-61 96.5-61 172.5v305h96v-294c0-51.333 12.333-90.166 37-116.499S279 80 325 80c50.667 0 90.667 15.333 120 46s44 74 44 130v274h96zM99.001 736.999h101l89-130h-81zm173 0h102l90-130h-81z"/><glyph glyph-name="uni0216" unicode="Ȗ" horiz-adv-x="791" d="M177 72c-52 53.333-78 130-78 230v398h100V306c0-150 65.667-225 197-225 64 0 113 18.5 147 55.5S594 230 594 306v394h97V302c0-100.667-26-177.5-78-230.5S488.333-8 395-8 229 18.667 177 72zm104.5 784c30.333 24.667 68.5 37 114.5 37s84.167-12.333 114.5-37 46.166-57.667 47.499-99h-65c-.667 24.667-10.167 44.167-28.5 58.5S423.333 837 396 837s-50.166-7.167-68.499-21.5-27.833-33.833-28.5-58.5h-65c1.333 41.333 17.166 74.333 47.499 99z"/><glyph glyph-name="uni0217" unicode="ȗ" horiz-adv-x="677" d="M585 530l.001-530.001h-91v80c-19.333-27.333-44.833-48.5-76.5-63.5s-66.167-22.5-103.5-22.5c-70.667 0-126.334 19.5-167.001 58.5s-61 96.5-61 172.5v305h96v-294c0-51.333 12.333-90.166 37-116.499S279 80 325 80c50.667 0 90.667 15.333 120 46s44 74 44 130v274h96zM221.501 705.999c30.333 24.667 68.5 37 114.5 37s84.167-12.333 114.5-37 46.166-57.667 47.499-99h-65c-.667 24.667-10.167 44.167-28.5 58.5s-41.166 21.5-68.499 21.5-50.166-7.167-68.499-21.5-27.833-33.833-28.5-58.5h-65c1.333 41.333 17.166 74.333 47.499 99z"/><glyph glyph-name="Scommaaccent" unicode="Ș" horiz-adv-x="621" d="M156.5 16.5c-49 16.333-87.503 37.498-115.503 63.498l37 78c26.667-24 60.834-43.5 102.501-58.5s84.5-22.5 128.5-22.5c58 0 101.333 9.833 130 29.5s43 45.834 43 78.501c0 24-7.833 43.5-23.5 58.5s-35 26.5-58 34.5-55.5 17-97.5 27c-52.667 12.667-95.167 25.334-127.5 38.001s-60 32.167-83 58.5-34.5 61.833-34.5 106.5c0 37.333 9.833 71 29.5 101s49.5 54 89.5 72 89.667 27 149 27c41.333 0 82-5.333 122-16s74.333-26 103-46l-33-80c-29.333 18.667-60.666 32.834-93.999 42.501s-66 14.5-98 14.5c-56.667 0-99.167-10.333-127.5-31s-42.5-47.334-42.5-80.001c0-24 8-43.5 24-58.5s35.833-26.667 59.5-35 55.834-17.166 96.501-26.499c52.667-12.667 95-25.334 127-38.001s59.5-32 82.5-58S580 235 580 191c0-36.667-10-70.167-30-100.5s-50.333-54.333-91-72S368.333-8 309-8C256.333-8 205.5.167 156.5 16.5zm202.497-123.502c9.333-8.667 14.002-19.666 14.002-32.999 0-16-4.333-33-13-51l-30-72h-50l23 80c-10 3.333-17.833 8.666-23.5 15.999s-8.5 16.333-8.5 27c0 13.333 4.667 24.333 14 33s21.666 13 36.999 13 27.666-4.333 36.999-13z"/><glyph glyph-name="scommaaccent" unicode="ș" horiz-adv-x="501" d="M118 11.5C78 23.167 46.669 38 24.002 56l40 76c23.333-16.667 51.666-30 84.999-40s67-15 101-15c84 0 126 24 126 72 0 16-5.667 28.667-17 38s-25.5 16.166-42.5 20.499-41.167 9.166-72.5 14.499c-42.667 6.667-77.5 14.334-104.5 23.001S89.334 268.333 70.001 289s-29 49.667-29 87c0 48 20 86.5 60 115.5s93.667 43.5 161 43.5c35.333 0 70.666-4.333 105.999-13s64.333-20.334 87-35.001l-41-76c-43.333 28-94.333 42-153 42-40.667 0-71.667-6.667-93-20s-32-31-32-53c0-17.333 6-31 18-41s26.833-17.333 44.5-22 42.5-10 74.5-16c42.667-7.333 77.167-15.166 103.5-23.499S425.333 255 444 235s28-48 28-84c0-48-20.5-86.167-61.5-114.5S313.667-6 243-6c-43.333 0-85 5.833-125 17.5zM285.002-107c9.333-8.667 14.002-19.666 14.002-32.999 0-16-4.333-33-13-51l-30-72h-50l23 80c-10 3.333-17.833 8.666-23.5 15.999s-8.5 16.333-8.5 27c0 13.333 4.667 24.333 14 33s21.666 13 36.999 13 27.666-4.333 36.999-13z"/><glyph glyph-name="uni021A" unicode="Ț" horiz-adv-x="587" d="M244 613H4v87h579v-87H343V0h-99v613zm86-720c9.333-8.667 14.002-19.666 14.002-32.999 0-16-4.333-33-13-51l-30-72h-50l23 80c-10 3.333-17.833 8.666-23.5 15.999s-8.5 16.333-8.5 27c0 13.333 4.667 24.333 14 33s21.666 13 36.999 13 27.666-4.333 36.999-13z"/><glyph glyph-name="uni021B" unicode="ț" horiz-adv-x="414" d="M389 31c-14-12-31.334-21.167-52.001-27.5s-42-9.5-64-9.5C219.666-6 178.333 8.333 149 37s-44 69.667-44 123v291H15v79h90v116h96V530h152v-79H201V164c0-28.667 7.167-50.667 21.5-66s34.833-23 61.5-23c29.333 0 54.333 8.333 75 25zm-99.001-138c9.333-8.667 14.002-19.666 14.002-32.999 0-16-4.333-33-13-51l-30-72h-50l23 80c-10 3.333-17.833 8.666-23.5 15.999s-8.5 16.333-8.5 27c0 13.333 4.667 24.333 14 33S237.667-94 253-94s27.666-4.333 36.999-13z"/><glyph glyph-name="uni021E" unicode="Ȟ" horiz-adv-x="812" d="M707 700V0H607v312H205V0H105v700h100V399h402v301h100zM584 887L451 757h-92L226 887h87l92-76 92 76h87z"/><glyph glyph-name="uni021F" unicode="ȟ" horiz-adv-x="681" d="M534.5 476.5c39.667-39 59.5-96.167 59.5-171.5V0h-96v294c0 51.333-12.333 90-37 116s-60 39-106 39c-52 0-93-15.167-123-45.5s-45-73.833-45-130.5V0H91v742h96V455c20 25.333 46.167 45 78.5 59S334 535 374 535c67.333 0 120.833-19.5 160.5-58.5zM318 949L185 819H93L-40 949h87l92-76 92 76h87z"/><glyph glyph-name="uni022A" unicode="Ȫ" horiz-adv-x="840" d="M230 38.5c-56.667 31-101.167 73.833-133.5 128.5S48 282.667 48 350s16.167 128.333 48.5 183 76.833 97.5 133.5 128.5S350.334 708 421.001 708c70 0 133.333-15.5 190-46.5s101-73.667 133-128 48-115.5 48-183.5-16-129.167-48-183.5-76.333-97-133-128-120-46.5-190-46.5C350.334-8 286.667 7.5 230 38.5zM559.5 116c41 23.333 73.333 55.5 97 96.5S692 299.333 692 350s-11.833 96.5-35.5 137.5-56 73.167-97 96.5-87.167 35-138.5 35-97.833-11.667-139.5-35-74.334-55.5-98.001-96.5-35.5-86.833-35.5-137.5 11.833-96.5 35.5-137.5 56.334-73.167 98.001-96.5S369.667 81 421 81s97.5 11.667 138.5 35zm-264 672c-9.667 9.333-14.5 21.333-14.5 36 0 14 4.833 25.667 14.5 35s21.5 14 35.5 14c13.333 0 24.833-4.667 34.5-14s14.5-21 14.5-35-4.833-25.833-14.5-35.5S344.333 774 331 774c-14 0-25.833 4.667-35.5 14zm182 .5C467.833 798.167 463 810 463 824s4.833 25.667 14.5 35 21.167 14 34.5 14c14 0 25.833-4.667 35.5-14s14.5-21 14.5-35-4.833-25.833-14.5-35.5S526 774 512 774c-13.333 0-24.833 4.833-34.5 14.5zM258 978h326v-57H258v57z"/><glyph glyph-name="uni022B" unicode="ȫ" horiz-adv-x="635" d="M176 29c-42 23.333-74.833 55.5-98.5 96.5S42 213 42 265s11.833 98.5 35.5 139.5 56.5 73 98.5 96S265.333 535 318 535s99.834-11.5 141.501-34.5 74.334-55 98.001-96 35.5-87.5 35.5-139.5-11.833-98.5-35.5-139.5-56.334-73.167-98.001-96.5S370.667-6 318-6 218 5.667 176 29zm233.5 72.5c27 15.667 48.167 37.667 63.5 66s23 60.833 23 97.5-7.667 69.167-23 97.5-36.5 50.166-63.5 65.499-57.5 23-91.5 23-64.5-7.667-91.5-23-48.333-37.166-64-65.499S139 301.667 139 265s7.833-69.167 23.5-97.5 37-50.333 64-66S284 78 318 78s64.5 7.833 91.5 23.5zM191.5 638c-9.667 9.333-14.5 21.333-14.5 36 0 14 4.833 25.667 14.5 35s21.5 14 35.5 14c13.333 0 24.833-4.667 34.5-14s14.5-21 14.5-35-4.833-25.833-14.5-35.5S240.333 624 227 624c-14 0-25.833 4.667-35.5 14zm182 .5C363.833 648.167 359 660 359 674s4.833 25.667 14.5 35 21.167 14 34.5 14c14 0 25.833-4.667 35.5-14s14.5-21 14.5-35-4.833-25.833-14.5-35.5S422 624 408 624c-13.333 0-24.833 4.833-34.5 14.5zM154 828h326v-57H154v57z"/><glyph glyph-name="uni022C" unicode="Ȭ" horiz-adv-x="840" d="M230 38.5c-56.667 31-101.167 73.833-133.5 128.5S48 282.667 48 350s16.167 128.333 48.5 183 76.833 97.5 133.5 128.5S350.334 708 421.001 708c70 0 133.333-15.5 190-46.5s101-73.667 133-128 48-115.5 48-183.5-16-129.167-48-183.5-76.333-97-133-128-120-46.5-190-46.5C350.334-8 286.667 7.5 230 38.5zM559.5 116c41 23.333 73.333 55.5 97 96.5S692 299.333 692 350s-11.833 96.5-35.5 137.5-56 73.167-97 96.5-87.167 35-138.5 35-97.833-11.667-139.5-35-74.334-55.5-98.001-96.5-35.5-86.833-35.5-137.5 11.833-96.5 35.5-137.5 56.334-73.167 98.001-96.5S369.667 81 421 81s97.5 11.667 138.5 35zm-112 654c-12.333 5.333-26.501 13.332-42.501 23.999-20.667 14.667-37 22-49 22-29.333 0-44.666-16.667-45.999-50h-54c.667 32 9.5 57.167 26.5 75.5s40.167 27.5 69.5 27.5c15.333 0 29.166-2.667 41.499-8s26.5-13.333 42.5-24c11.333-7.333 20.666-12.833 27.999-16.5s15-5.5 23-5.5c14.667 0 25.834 4.333 33.501 13s11.834 20.667 12.501 36h53c-.667-31.333-9.5-56.166-26.5-74.499S519.667 762 491 762c-16.667 0-31.167 2.667-43.5 8zM257.999 977.999h326v-57h-326v57z"/><glyph glyph-name="uni022D" unicode="ȭ" horiz-adv-x="635" d="M176 29c-42 23.333-74.833 55.5-98.5 96.5S42 213 42 265s11.833 98.5 35.5 139.5 56.5 73 98.5 96S265.333 535 318 535s99.834-11.5 141.501-34.5 74.334-55 98.001-96 35.5-87.5 35.5-139.5-11.833-98.5-35.5-139.5-56.334-73.167-98.001-96.5S370.667-6 318-6 218 5.667 176 29zm233.5 72.5c27 15.667 48.167 37.667 63.5 66s23 60.833 23 97.5-7.667 69.167-23 97.5-36.5 50.166-63.5 65.499-57.5 23-91.5 23-64.5-7.667-91.5-23-48.333-37.166-64-65.499S139 301.667 139 265s7.833-69.167 23.5-97.5 37-50.333 64-66S284 78 318 78s64.5 7.833 91.5 23.5zm-66 518.5c-12.333 5.333-26.501 13.332-42.501 23.999-20.667 14.667-37 22-49 22-29.333 0-44.666-16.667-45.999-50h-54c.667 32 9.5 57.167 26.5 75.5s40.167 27.5 69.5 27.5c15.333 0 29.166-2.667 41.499-8s26.5-13.333 42.5-24c11.333-7.333 20.666-12.833 27.999-16.5s15-5.5 23-5.5c14.667 0 25.834 4.333 33.501 13s11.834 20.667 12.501 36h53c-.667-31.333-9.5-56.166-26.5-74.499S415.667 612 387 612c-16.667 0-31.167 2.667-43.5 8zM153.999 827.999h326v-57h-326v57z"/><glyph glyph-name="uni0230" unicode="Ȱ" horiz-adv-x="840" d="M230 38.5c-56.667 31-101.167 73.833-133.5 128.5S48 282.667 48 350s16.167 128.333 48.5 183 76.833 97.5 133.5 128.5S350.334 708 421.001 708c70 0 133.333-15.5 190-46.5s101-73.667 133-128 48-115.5 48-183.5-16-129.167-48-183.5-76.333-97-133-128-120-46.5-190-46.5C350.334-8 286.667 7.5 230 38.5zM559.5 116c41 23.333 73.333 55.5 97 96.5S692 299.333 692 350s-11.833 96.5-35.5 137.5-56 73.167-97 96.5-87.167 35-138.5 35-97.833-11.667-139.5-35-74.334-55.5-98.001-96.5-35.5-86.833-35.5-137.5 11.833-96.5 35.5-137.5 56.334-73.167 98.001-96.5S369.667 81 421 81s97.5 11.667 138.5 35zM385 788c-10 10-15 22.333-15 37s5 26.834 15 36.501 22 14.5 36 14.5 26-4.833 36-14.5 15-21.834 15-36.501-5-27-15-37-22-15-36-15-26 5-36 15zM258 981h326v-57H258v57z"/><glyph glyph-name="uni0231" unicode="ȱ" horiz-adv-x="635" d="M176 29c-42 23.333-74.833 55.5-98.5 96.5S42 213 42 265s11.833 98.5 35.5 139.5 56.5 73 98.5 96S265.333 535 318 535s99.834-11.5 141.501-34.5 74.334-55 98.001-96 35.5-87.5 35.5-139.5-11.833-98.5-35.5-139.5-56.334-73.167-98.001-96.5S370.667-6 318-6 218 5.667 176 29zm233.5 72.5c27 15.667 48.167 37.667 63.5 66s23 60.833 23 97.5-7.667 69.167-23 97.5-36.5 50.166-63.5 65.499-57.5 23-91.5 23-64.5-7.667-91.5-23-48.333-37.166-64-65.499S139 301.667 139 265s7.833-69.167 23.5-97.5 37-50.333 64-66S284 78 318 78s64.5 7.833 91.5 23.5zM281 638c-10 10-15 22.333-15 37s5 26.834 15 36.501 22 14.5 36 14.5 26-4.833 36-14.5 15-21.834 15-36.501-5-27-15-37-22-15-36-15-26 5-36 15zM154 831h326v-57H154v57z"/><glyph glyph-name="uni0232" unicode="Ȳ" horiz-adv-x="647" d="M373 242V0h-99v244L-4 700h107l224-369 225 369h99zM161 852h326v-60H161v60z"/><glyph glyph-name="uni0233" unicode="ȳ" horiz-adv-x="559" d="M560 530L302.999-53c-22.667-54-49.167-92-79.5-114s-66.833-33-109.5-33c-26 0-51.167 4.167-75.5 12.5s-44.5 20.5-60.5 36.5l41 72c27.333-26 59-39 95-39 23.333 0 42.833 6.167 58.5 18.5S202.333-66 215-36l17 37L-2 530H98l185-424 183 424h94zM102.999 702h326v-60h-326v60z"/><glyph glyph-name="uni0237" unicode="ȷ" horiz-adv-x="284" d="M-42-192c-20 5.333-36.667 13.332-50 23.999l31 74c20-16.667 46-25 78-25 25.333 0 44.833 7.833 58.5 23.5S96-56.667 96-26v556h96V-24c0-54.667-14.667-97.667-44-129s-71-47-125-47c-23.333 0-45 2.667-65 8z"/><glyph glyph-name="uni0259" unicode="ə" horiz-adv-x="612" d="M44 297h430.001c-6 46.667-26.5 84.167-61.5 112.5s-78.5 42.5-130.5 42.5c-63.333 0-114.333-21.333-153-64l-53 62c24 28 53.833 49.333 89.5 64s75.5 22 119.5 22c56 0 105.667-11.5 149-34.5s76.833-55.167 100.5-96.5 35.5-88 35.5-140c0-51.333-11.5-97.666-34.5-138.999s-54.667-73.5-95-96.5-85.833-34.5-136.5-34.5-95.834 11.5-135.501 34.5-70.667 55.167-93 96.5S42 214.667 42 268c0 7.333.667 17 2 29zm375.501-179c31 28 49.167 64.667 54.5 110h-340c5.333-44.667 23.5-81.167 54.5-109.5s69.5-42.5 115.5-42.5 84.5 14 115.5 42z"/><glyph glyph-name="uni0292" unicode="ʒ" horiz-adv-x="527" d="M438.5 162c37-36.667 55.499-84.336 55.499-143.003 0-41.333-9.833-78.666-29.5-111.999s-49.167-59.666-88.5-78.999-87.333-29-144-29c-50.667 0-98.5 8-143.5 24s-81.167 37.333-108.5 64l37 80c23.333-24 53.833-43.167 91.5-57.5s77.5-21.5 119.5-21.5c53.333 0 94.5 11.5 123.5 34.5s43.5 55.167 43.5 96.5c0 40.667-14.167 72.334-42.5 95.001S281.333 148 224 148h-57v68l182 229H5v85h459v-69L276 225c71.333-5.333 125.5-26.333 162.5-63z"/><glyph glyph-name="uni02B9" unicode="ʹ" horiz-adv-x="210" d="M63 700h84l-7-270H69z"/><glyph glyph-name="uni02BA" unicode="ʺ" horiz-adv-x="391" d="M63 700h84l-7-270H69zm181 0h84l-7-270h-71z"/><glyph glyph-name="uni02BB" unicode="ʻ" horiz-adv-x="273" d="M187 689c7.333-10.667 11.003-23.667 11.003-39 0-20-6.333-36.333-19-49s-28.334-19-47.001-19c-19.333 0-35.333 6.5-48 19.5s-19 29.167-19 48.5c0 9.333 1.167 18.833 3.5 28.5S75.668 702.334 83 721.001l47 140h63l-37-149c13.334-4.667 23.667-12.334 31-23.001z"/><glyph glyph-name="uni02BC" unicode="ʼ" horiz-adv-x="174" d="M56 700h66l-16-261H53z"/><glyph glyph-name="uni02BE" unicode="ʾ" horiz-adv-x="600" d="M299 638c19.333 0 35.166 6.169 47.499 18.502s18.5 27.5 18.5 45.5c0 19.333-6.167 35.166-18.5 47.499s-28.166 18.5-47.499 18.5v44c32.667 0 59.5-10.667 80.5-32s31.5-47.333 31.5-78-10.5-56.334-31.5-77.001-47.833-31-80.5-31v44z"/><glyph glyph-name="uni02BF" unicode="ʿ" horiz-adv-x="600" d="M219 625.5c-21.333 21-32 46.501-32 76.501 0 30.667 10.667 56.667 32 78s48 32 80 32v-44c-18.667 0-34.167-6.333-46.5-19S234 720.667 234 702c0-18 6.167-33.167 18.5-45.5S280.333 638 299 638v-44c-32 0-58.667 10.5-80 31.5z"/><glyph glyph-name="circumflex" unicode="ˆ" horiz-adv-x="600" d="M392 607l-92 77-92-77h-87l133 130h92l133-130h-87z"/><glyph glyph-name="caron" unicode="ˇ" horiz-adv-x="600" d="M479 737L346 607h-92L121 737h87l92-76 92 76h87z"/><glyph glyph-name="uni02C8" unicode="ˈ" horiz-adv-x="172" d="M53 700h66V510H53v190z"/><glyph glyph-name="uni02C9" unicode="ˉ" horiz-adv-x="600" d="M137 702h326v-60H137v60z"/><glyph glyph-name="uni02CA" unicode="ˊ" horiz-adv-x="600" d="M361 737h122L315 607h-90z"/><glyph glyph-name="uni02CB" unicode="ˋ" horiz-adv-x="600" d="M117 737h122l136-130h-90z"/><glyph glyph-name="uni02CC" unicode="ˌ" horiz-adv-x="173" d="M53-30h67v-190H53v190z"/><glyph glyph-name="breve" unicode="˘" horiz-adv-x="600" d="M185.5 638c-30.333 24.667-46.166 57.667-47.499 99h65c.667-24 10.167-43.333 28.5-58s41.166-22 68.499-22 50.166 7.333 68.499 22 27.833 34 28.5 58h65c-1.333-41.333-17.166-74.333-47.499-99S346 601 300 601s-84.167 12.333-114.5 37z"/><glyph glyph-name="dotaccent" unicode="˙" horiz-adv-x="600" d="M258 642c-11.333 11.333-17 25.333-17 42s5.667 30.667 17 42 25.333 17 42 17 30.667-5.667 42-17 17-25.333 17-42-5.667-30.667-17-42-25.333-17-42-17-30.667 5.667-42 17z"/><glyph glyph-name="ring" unicode="˚" horiz-adv-x="600" d="M221 625.5c-21.333 21-32 46.5-32 76.5s10.667 55.833 32 77.5 47.333 32.5 78 32.5c31.333 0 57.666-10.833 78.999-32.5s32-47.5 32-77.5-10.667-55.5-32-76.5S330.333 594 299 594c-30.667 0-56.667 10.5-78 31.5zM346.5 655c12.333 12.667 18.502 28.334 18.502 47.001 0 19.333-6.333 35.333-19 48s-28.334 19-47.001 19-34.167-6.333-46.5-19-18.5-28.667-18.5-48c0-18.667 6.167-34.334 18.5-47.001s27.833-19 46.5-19c19.333 0 35.166 6.333 47.499 19z"/><glyph glyph-name="ogonek" unicode="˛" horiz-adv-x="600" d="M145-196.5c-21.333 18.333-32.002 42.833-32.002 73.5 0 29.333 11.333 57.5 34 84.5s59 50.5 109 70.5l45-32c-42.667-18.667-73.167-37.5-91.5-56.5s-27.5-38.833-27.5-59.5c0-16 5.667-28.667 17-38s26-14 44-14c24.667 0 45.334 5.667 62.001 17l18-49c-25.333-16-55.333-24-90-24-37.333 0-66.666 9.167-87.999 27.5z"/><glyph glyph-name="tilde" unicode="˜" horiz-adv-x="600" d="M328.5 620c-11.667 6.667-26.168 16.666-43.501 29.999-10 9.333-18.667 16.166-26 20.499s-14.666 6.5-21.999 6.5c-14.667 0-26.667-5.5-36-16.5s-14.333-26.167-15-45.5h-54c1.333 37.333 10.833 67 28.5 89s40.834 33 69.501 33c16 0 30.167-3.5 42.5-10.5s26.5-17.167 42.5-30.5c11.333-9.333 20.333-16.166 27-20.499s13.667-6.5 21-6.5c14.667 0 26.667 5.333 36 16s14.333 25.334 15 44.001h54c-1.333-36-10.833-64.833-28.5-86.5S398.667 610 370 610c-16 0-29.833 3.333-41.5 10z"/><glyph glyph-name="hungarumlaut" unicode="˝" horiz-adv-x="600" d="M262 737h102L253 607h-81zm174 0h101L428 607h-81z"/><glyph glyph-name="gravecomb" unicode="̀" d="M-483 737h122l136-130h-90z"/><glyph glyph-name="acutecomb" unicode="́" d="M-239 737h122l-168-130h-90z"/><glyph glyph-name="uni0302" unicode="̂" d="M-208 607l-92 77-92-77h-87l133 130h92l133-130h-87z"/><glyph glyph-name="tildecomb" unicode="̃" d="M-271.5 620c-11.667 6.667-26.168 16.666-43.501 29.999-10 9.333-18.667 16.166-26 20.499s-14.666 6.5-21.999 6.5c-14.667 0-26.667-5.5-36-16.5s-14.333-26.167-15-45.5h-54c1.333 37.333 10.833 67 28.5 89s40.834 33 69.501 33c16 0 30.167-3.5 42.5-10.5s26.5-17.167 42.5-30.5c11.333-9.333 20.333-16.166 27-20.499s13.667-6.5 21-6.5c14.667 0 26.667 5.333 36 16s14.333 25.334 15 44.001h54c-1.333-36-10.833-64.833-28.5-86.5S-201.333 610-230 610c-16 0-29.833 3.333-41.5 10z"/><glyph glyph-name="uni0304" unicode="̄" d="M-463 702h326v-60h-326v60z"/><glyph glyph-name="uni0306" unicode="̆" d="M-414.5 638c-30.333 24.667-46.166 57.667-47.499 99h65c.667-24 10.167-43.333 28.5-58s41.166-22 68.499-22 50.166 7.333 68.499 22 27.833 34 28.5 58h65c-1.333-41.333-17.166-74.333-47.499-99S-254 601-300 601s-84.167 12.333-114.5 37z"/><glyph glyph-name="uni0307" unicode="̇" d="M-342 642c-11.333 11.333-17 25.333-17 42s5.667 30.667 17 42 25.333 17 42 17 30.667-5.667 42-17 17-25.333 17-42-5.667-30.667-17-42-25.333-17-42-17-30.667 5.667-42 17z"/><glyph glyph-name="uni0308" unicode="̈" d="M-429 638.5c-10 9.667-15 21.834-15 36.501s5 27 15 37 22 15 36 15 26-5 36-15 15-22.333 15-37-5-26.834-15-36.501-22-14.5-36-14.5-26 4.833-36 14.5zm186 0c-10 9.667-15 21.834-15 36.501s5 27 15 37 22 15 36 15 26-5 36-15 15-22.333 15-37-5-26.834-15-36.501-22-14.5-36-14.5-26 4.833-36 14.5z"/><glyph glyph-name="hookabovecomb" unicode="̉" d="M-314 637c19.333 8.667 33.5 18.5 42.5 29.5S-258 690-258 704c0 13.333-4.833 24.5-14.5 33.5S-294.667 751-310 751c-20.667 0-40.667-6.333-60-19l-22 45c12 9.333 26 16.333 42 21s32.333 7 49 7c30 0 54.5-8.5 73.5-25.5S-199 740-199 712c0-50.667-27.333-88.667-82-114z"/><glyph glyph-name="uni030A" unicode="̊" d="M-379 625.5c-21.333 21-32 46.5-32 76.5s10.667 55.833 32 77.5 47.333 32.5 78 32.5c31.333 0 57.666-10.833 78.999-32.5s32-47.5 32-77.5-10.667-55.5-32-76.5S-269.667 594-301 594c-30.667 0-56.667 10.5-78 31.5zm125.5 29.5c12.333 12.667 18.502 28.334 18.502 47.001 0 19.333-6.333 35.333-19 48s-28.334 19-47.001 19-34.167-6.333-46.5-19-18.5-28.667-18.5-48c0-18.667 6.167-34.334 18.5-47.001s27.833-19 46.5-19c19.333 0 35.166 6.333 47.499 19z"/><glyph glyph-name="uni030B" unicode="̋" d="M-338 737h102l-111-130h-81zm174 0h101l-109-130h-81z"/><glyph glyph-name="uni030C" unicode="̌" d="M-121 737l-133-130h-92l-133 130h87l92-76 92 76h87z"/><glyph glyph-name="uni030F" unicode="̏" d="M-537 737h101l89-130h-81zm173 0h102l90-130h-81z"/><glyph glyph-name="uni0311" unicode="̑" d="M-414.5 706c30.333 24.667 68.5 37 114.5 37s84.167-12.333 114.5-37 46.166-57.667 47.499-99h-65c-.667 24.667-10.167 44.167-28.5 58.5S-272.667 687-300 687s-50.166-7.167-68.499-21.5-27.833-33.833-28.5-58.5h-65c1.333 41.333 17.166 74.333 47.499 99z"/><glyph glyph-name="uni0312" unicode="̒" d="M-253 673.5c6-7 9-15.833 9-26.5 0-14-5-25.167-15-33.5s-23.667-12.5-41-12.5-31 4.333-41 13-15 19.667-15 33 5 30 15 50l37 94h55l-29-102c10.667-3.333 19-8.5 25-15.5z"/><glyph glyph-name="uni031B" unicode="̛" d="M-318 530l18-.001c21.333 0 37.333 6 48 18s16 27.667 16 47c0 24-6.667 45-20 63l61 23c18.667-25.333 28-55 28-89 0-41.333-11.833-74.166-35.5-98.499S-258.667 457-300 457h-18v73z"/><glyph glyph-name="dotbelowcomb" unicode="̣" d="M-336-182c-10 9.333-15 21.333-15 36s5 27 15 37 22 15 36 15 26-5 36-15 15-22.333 15-37-5-26.667-15-36-22-14-36-14-26 4.667-36 14z"/><glyph glyph-name="uni0324" unicode="̤" d="M-421.5-178.5c-9.667 9.667-14.5 21.5-14.5 35.5s4.833 25.667 14.5 35 21.167 14 34.5 14c14 0 26-4.667 36-14s15-21 15-35-5-25.833-15-35.5-22-14.5-36-14.5c-13.333 0-24.833 4.833-34.5 14.5zm173-.5c-9.667 9.333-14.5 21.333-14.5 36 0 14 4.833 25.667 14.5 35S-227-94-213-94c13.333 0 24.833-4.667 34.5-14s14.5-21 14.5-35-4.833-25.833-14.5-35.5S-199.667-193-213-193c-14 0-25.833 4.667-35.5 14z"/><glyph glyph-name="uni0326" unicode="̦" d="M-263-107c9.333-8.667 14.002-19.666 14.002-32.999 0-16-4.333-33-13-51l-30-72h-50l23 80c-10 3.333-17.833 8.666-23.5 15.999s-8.5 16.333-8.5 27c0 13.333 4.667 24.333 14 33s21.666 13 36.999 13 27.666-4.333 36.999-13z"/><glyph glyph-name="uni0327" unicode="̧" d="M-414-202l21 49c20-11.333 42.667-17 68-17 37.333 0 56 13.333 56 40 0 12-4.667 21.5-14 28.5S-306.666-91-325.999-91h-27l25 98h55l-15-57c28-2.667 49.5-11.5 64.5-26.5s22.5-33.833 22.5-56.5c0-28-11.333-50.167-34-66.5s-52.667-24.5-90-24.5c-34.667 0-64.334 7.333-89.001 22z"/><glyph glyph-name="uni0328" unicode="̨" d="M-455-196.5c-21.333 18.333-32.002 42.833-32.002 73.5 0 29.333 11.333 57.5 34 84.5s59 50.5 109 70.5l45-32c-42.667-18.667-73.167-37.5-91.5-56.5s-27.5-38.833-27.5-59.5c0-16 5.667-28.667 17-38s26-14 44-14c24.667 0 45.334 5.667 62.001 17l18-49c-25.333-16-55.333-24-90-24-37.333 0-66.666 9.167-87.999 27.5z"/><glyph glyph-name="uni032E" unicode="̮" d="M-414.5-174c-30.333 23.333-46.17 54.333-47.503 93h63c0-22.667 9.333-40.834 28-54.501s42.334-20.5 71.001-20.5 52.334 6.833 71.001 20.5 28 31.834 28 54.501h63c-1.333-38.667-17.166-69.667-47.499-93S-254-209-300-209s-84.167 11.667-114.5 35z"/><glyph glyph-name="uni0331" unicode="̱" d="M-463-113h326v-61h-326v61z"/><glyph glyph-name="uni0335" unicode="̵" d="M-498 472h396v-68h-396v68z"/><glyph glyph-name="uni0336" unicode="̶" d="M-840 477h807v-79h-807v79z"/><glyph glyph-name="uni0337" unicode="̷" d="M-371 314l265 202 43-58-265-201z"/><glyph glyph-name="uni0338" unicode="̸" d="M-119 599h59L-500-70h-60z"/><glyph glyph-name="uni0394" unicode="Δ" horiz-adv-x="732" d="M733 0H-1l317 700h99zM140 87h449L365 599z"/><glyph glyph-name="uni03A9" unicode="Ω" horiz-adv-x="898" d="M9 87h196.002c-40.667 32.667-72 72.334-94 119.001s-33 97.667-33 153c0 67.333 16.167 127.5 48.5 180.5s76.666 94.333 132.999 124 119.5 44.5 189.5 44.5 133.167-14.833 189.5-44.5 100.666-71 132.999-124 48.5-113.167 48.5-180.5c0-55.333-11-106.333-33-153S733.667 119.667 693 87h196V0H543v81c57.333 28.667 101.166 67 131.499 115s45.5 100.667 45.5 158c0 51.333-11.5 97.166-34.5 137.499s-55.167 71.666-96.5 93.999-88 33.5-140 33.5-98.667-11.167-140-33.5-73.5-53.666-96.5-93.999-34.5-86.166-34.5-137.499c0-58 15.333-111 46-159S298.333 109 355 81V0H9v87z"/><glyph glyph-name="uni03BC" unicode="μ" horiz-adv-x="682" d="M590 530V-.001h-91v82c-18-30-41.833-52.167-71.5-66.5S366-6.001 332-6.001c-64 0-112.333 20.333-145 61v-249H91v724h96v-294c0-51.333 12.5-90.166 37.5-116.499S284.667 80 330 80c50.667 0 90.667 15.333 120 46s44 74 44 130v274h96z"/><glyph glyph-name="pi" unicode="π" horiz-adv-x="724" d="M714 451H567.001V0h-96v451h-149l-52-451h-96l52 451h-44c-70 0-105-29.333-105-88 0-23.333 9.667-50 29-80l-73-22c-13.333 14.667-23.5 32.667-30.5 54s-10.5 42.333-10.5 63c0 28.667 7.333 54.667 22 78s35.667 41.5 63 54.5S135.667 530 171 530h544z"/><glyph glyph-name="uni0400" unicode="Ѐ" horiz-adv-x="665" d="M617 87V0H109v700h494v-87H209V398h351v-85H209V87h408zM174 887h122l136-130h-90z"/><glyph glyph-name="uni0401" unicode="Ё" horiz-adv-x="665" d="M617 87V0H109v700h494v-87H209V398h351v-85H209V87h408zM228 788.5c-10 9.667-15 21.834-15 36.501s5 27 15 37 22 15 36 15 26-5 36-15 15-22.333 15-37-5-26.834-15-36.501-22-14.5-36-14.5-26 4.833-36 14.5zm186 0c-10 9.667-15 21.834-15 36.501s5 27 15 37 22 15 36 15 26-5 36-15 15-22.333 15-37-5-26.834-15-36.501-22-14.5-36-14.5-26 4.833-36 14.5z"/><glyph glyph-name="uni0402" unicode="Ђ" horiz-adv-x="833" d="M552 425c74.667 0 133.833-18.501 177.5-55.501s65.5-90.167 65.5-159.5c0-71.333-21.833-125-65.5-161s-99.167-54-166.5-54c-27.333 0-55.666 3-84.999 9l12 83c21.333-5.333 41.666-8 60.999-8 41.333 0 75.833 10.833 103.5 32.5S696 165.333 696 208c0 43.333-14.833 76.333-44.5 99s-69.167 34-118.5 34c-56.667 0-117-14-181-42V0h-98v613H14v87h601v-87H352V388c71.333 24.667 138 37 200 37z"/><glyph glyph-name="uni0403" unicode="Ѓ" horiz-adv-x="578" d="M567 613H207l1-613h-99v700h459zM391 887h122L345 757h-90z"/><glyph glyph-name="uni0404" unicode="Є" horiz-adv-x="708" d="M225 38.5c-53.333 31-95.331 73.665-125.998 127.998s-46 115.5-46 183.5 15.333 129.167 46 183.5 72.667 97 126 128 113.333 46.5 180 46.5c57.333 0 109.333-9.333 156-28s85.667-46 117-82l-63-63c-52.667 55.333-121 83-205 83-44.667 0-85.334-9.833-122.001-29.5s-66.667-47.167-90-82.5-37.333-75.666-42-120.999h339v-82h-338c6.667-43.333 21.667-81.666 45-114.999s53-59.333 89-78 75.667-28 119-28c83.333 0 151.666 27.667 204.999 83l63-63c-31.333-36-70.5-63.333-117.5-82S461.667-8 405-8C338.333-8 278.333 7.5 225 38.5z"/><glyph glyph-name="uni0405" unicode="Ѕ" horiz-adv-x="636" d="M164.5 16.5c-49 16.333-87.503 37.498-115.503 63.498l37 78c26.667-24 60.834-43.5 102.501-58.5s84.5-22.5 128.5-22.5c58 0 101.333 9.833 130 29.5s43 45.834 43 78.501c0 24-7.833 43.5-23.5 58.5s-35 26.5-58 34.5-55.5 17-97.5 27c-52.667 12.667-95.167 25.334-127.5 38.001s-60 32.167-83 58.5-34.5 61.833-34.5 106.5c0 37.333 9.833 71 29.5 101s49.5 54 89.5 72 89.667 27 149 27c41.333 0 82-5.333 122-16s74.333-26 103-46l-33-80c-29.333 18.667-60.666 32.834-93.999 42.501s-66 14.5-98 14.5c-56.667 0-99.167-10.333-127.5-31s-42.5-47.334-42.5-80.001c0-24 8-43.5 24-58.5s35.833-26.667 59.5-35 55.834-17.166 96.501-26.499c52.667-12.667 95-25.334 127-38.001s59.5-32 82.5-58S588 235 588 191c0-36.667-10-70.167-30-100.5s-50.333-54.333-91-72S376.333-8 317-8C264.333-8 213.5.167 164.5 16.5z"/><glyph glyph-name="uni0406" unicode="І" horiz-adv-x="317" d="M109 700h99V0h-99v700z"/><glyph glyph-name="uni0407" unicode="Ї" horiz-adv-x="310" d="M105 700h100V0H105v700zm-79 88.5c-10 9.667-15 21.834-15 36.501s5 27 15 37 22 15 36 15 26-5 36-15 15-22.333 15-37-5-26.834-15-36.501S76 774 62 774s-26 4.833-36 14.5zm186 0c-10 9.667-15 21.834-15 36.501s5 27 15 37 22 15 36 15 26-5 36-15 15-22.333 15-37-5-26.834-15-36.501-22-14.5-36-14.5-26 4.833-36 14.5z"/><glyph glyph-name="uni0408" unicode="Ј" horiz-adv-x="540" d="M105 18.5C69 36.167 40 61 18 93l58 68c38.667-55.333 87.334-83 146.001-83 39.333 0 69.166 12 89.499 36S342 173.333 342 220v393H89v87h352V225c0-77.333-18.5-135.5-55.5-174.5S294-8 222-8c-42 0-81 8.833-117 26.5z"/><glyph glyph-name="uni0409" unicode="Љ" horiz-adv-x="1187" d="M681 700l-.003-700h-98v613h-310l-7-205c-3.333-96.667-11.166-175-23.499-235s-31.833-105.167-58.5-135.5S121.331-8 75.998-8c-20.667 0-41.667 2.667-63 8l7 89C30.665 86.333 41.332 85 52 85c28.667 0 51.667 11.5 69 34.5S151.332 177 160 223s14.333 106.667 17 182l11 295h493zm400.5-300c44.333-37.333 66.502-92.333 66.502-165 0-76.667-23.833-135-71.5-175S960.668 0 872.001 0h-289v700h99V456h208c83.333 0 147.166-18.667 191.499-56zm-80-281.5c31 26.333 46.5 64.5 46.5 114.5 0 96-60 144-180 144H682V79h186c58 0 102.5 13.167 133.5 39.5z"/><glyph glyph-name="uni040A" unicode="Њ" horiz-adv-x="1180" d="M1080.5 370c42.333-36 63.501-86.667 63.501-152 0-68.667-22.833-122.167-68.5-160.5S967.001 0 887.001 0h-290v334h-389V0h-99v700h99V420h389v280h98V424h206c77.333 0 137.166-18 179.499-54zm-80.999-255.5c29 23.667 43.499 56.833 43.499 99.5 0 42-14.167 74.167-42.5 96.5S931.334 344 878.001 344h-183V79h183c52 0 92.5 11.833 121.5 35.5z"/><glyph glyph-name="uni040B" unicode="Ћ" horiz-adv-x="842" d="M728 363c43.333-39.333 65.001-97.333 65.001-174V0h-98v176c0 50.667-14.667 89.5-44 116.5s-70 40.5-122 40.5c-51.333 0-111-14.667-179-44V0h-98v613h-239v87h596v-87h-259V381c71.333 27.333 138 41 200 41 75.333 0 134.666-19.667 177.999-59z"/><glyph glyph-name="uni040C" unicode="Ќ" horiz-adv-x="711" d="M353 308H207V0h-98v700h98V396h148l220 304h107L432 361 694 0H580zm67 579h122L374 757h-90z"/><glyph glyph-name="uni040D" unicode="Ѝ" horiz-adv-x="823" d="M109 700h99V160l414 540h92V0h-98v539L201 0h-92v700zm118 187h122l136-130h-90z"/><glyph glyph-name="uni040E" unicode="Ў" horiz-adv-x="691" d="M682 700L370.999 123c-24.667-46-53.667-80.333-87-103S214.333-14 175-14c-30.667 0-62 7-94 21l26 80c24.667-8.667 46.667-13 66-13 44 0 80.333 23.333 109 70l16 25L16 700h107l227-444 233 444h99zm-468.501 84.5C183.832 808.167 168.667 842 168 886h71c.667-26 9.834-46.167 27.501-60.5s42.167-21.5 73.5-21.5c30 0 54.167 7.167 72.5 21.5s27.833 34.5 28.5 60.5h70c-.667-43.333-15.834-77-45.501-101S394 749 340 749c-54.667 0-96.834 11.833-126.501 35.5z"/><glyph glyph-name="uni040F" unicode="Џ" horiz-adv-x="807" d="M697 0H449v-159h-92V0H109v700h99V87h390v613h99V0z"/><glyph glyph-name="uni0410" unicode="А" horiz-adv-x="758" d="M564 175H192L115 0H12l317 700h99L746 0H641zm-35 80L378 598 227 255h302z"/><glyph glyph-name="uni0411" unicode="Б" horiz-adv-x="731" d="M109 700l528.001.001v-85h-429v-200h218c83.333 0 146.666-17.333 189.999-52s65-84.667 65-150C681 144.334 657.5 91.667 610.5 55S496.333 0 409 0H109v700zM405.001 79.001c57.333 0 101 11 131 33s45 54.333 45 97c0 84.667-58.667 127-176 127h-197v-257h197z"/><glyph glyph-name="uni0412" unicode="В" horiz-adv-x="747" d="M652.5 302.5c24.333-29 36.501-66.167 36.501-111.5 0-60.667-22.167-107.667-66.5-141S513.668 0 429.001 0h-320v700h301c76.667 0 136.5-15.5 179.5-46.5s64.5-75.5 64.5-133.5c0-38-9.5-70.333-28.5-97s-45.833-46.667-80.5-60c47.333-11.333 83.166-31.5 107.499-60.5zM208.001 392l194.999.001c48.667 0 85.834 9.667 111.501 29s38.5 47.666 38.5 84.999-13 65.833-39 85.5-63 29.5-111 29.5h-195V392zM588 199.001c0 40-13.5 69.5-40.5 88.5s-67.167 28.5-120.5 28.5H208v-237h219c107.333 0 161 40 161 120z"/><glyph glyph-name="uni0413" unicode="Г" horiz-adv-x="578" d="M567 613H207l1-613h-99v700h459z"/><glyph glyph-name="uni0414" unicode="Д" horiz-adv-x="804" d="M776 87v-240h-93V0H107l-1-153H13l1 240h34c44 2.667 75 37.5 93 104.5S170 353 174 475l7 225h492V87h103zM238.5 221c-12.333-64.667-32.168-109.332-59.501-133.999h395v526h-307l-5-147C258.666 367.334 250.833 285.667 238.5 221z"/><glyph glyph-name="uni0415" unicode="Е" horiz-adv-x="665" d="M617 87V0H109v700h494v-87H209V398h351v-85H209V87h408z"/><glyph glyph-name="uni0416" unicode="Ж" horiz-adv-x="1029" d="M697 308H564V0h-98v308H332L136 0H19l231 364L36 700h107l187-304h136v304h98V396h134l188 304h107L779 362 1010 0H893z"/></font>
</defs>
</svg>
