<svg><defs><font id="Montserrat-LightItalic" horiz-adv-x="0"><font-face font-family="Montserrat Light" font-weight="300" font-style="italic" panose-1="0 0 4 0 0 0 0 0 0 0" ascent="800" descent="-200" x-height="522" cap-height="700" bbox="-801 -261.002 1577 1034" underline-thickness="50" underline-position="-50" slope="-11.3" unicode-range="U+000D-U+FB02"/><glyph glyph-name="fi" unicode="fi" horiz-adv-x="669" d="M272 677c-19.333-17.333-32.665-45-39.998-83l-15-72h167l-8-43h-167l-95-479h-50l96 479h-97l8 43h97l16 79c9.333 47.333 28.166 83.333 56.499 108S305.667 746 351 746c20.667 0 40-3 58-9s32.333-14.667 43-26l-24-36c-20 18.667-46 28-78 28-32.667 0-58.667-8.667-78-26zm293.001-155h50l-104-522h-50zm29 138c-7.333 7.333-11 16-11 26 0 12 4.167 22.333 12.5 31s18.833 13 31.5 13c10.667 0 19.834-3.667 27.501-11s11.5-16 11.5-26c0-12.667-4.333-23.167-13-31.5S633.668 649 621.001 649c-10.667 0-19.667 3.667-27 11z"/><glyph glyph-name="fl" unicode="fl" horiz-adv-x="589" d="M272 677c-19.333-17.333-32.665-45-39.998-83l-15-72h167l-8-43h-167l-95-479h-50l96 479h-97l8 43h97l16 79c9.333 47.333 28.166 83.333 56.499 108S305.667 746 351 746c20.667 0 40-3 58-9s32.333-14.667 43-26l-24-36c-20 18.667-46 28-78 28-32.667 0-58.667-8.667-78-26zm257.001 65h50l-148-742h-50z"/><glyph glyph-name=".notdef" horiz-adv-x="587" d="M128 700h507L495 0H-12zM429 70l112 560H194L82 70h347z"/><glyph glyph-name="NULL"/><glyph glyph-name="NULL"/><glyph glyph-name="nonmarkingreturn" horiz-adv-x="257"/><glyph glyph-name="space" horiz-adv-x="257"/><glyph glyph-name="exclam" unicode="!" horiz-adv-x="252" d="M185 700h58L133 201H95zM52 7.5c-8 7.667-11.999 16.834-11.999 27.501 0 12 4.167 22.167 12.5 30.5s18.166 12.5 29.499 12.5 21-3.833 29-11.5S123 49.667 123 39c0-12-4.167-22.167-12.5-30.5S92-4 80-4C69.333-4 60-.167 52 7.5z"/><glyph glyph-name="quotedbl" unicode="&quot;" horiz-adv-x="357" d="M162 700h46l-55-258h-39zm162 0h46l-55-258h-39z"/><glyph glyph-name="numbersign" unicode="#" horiz-adv-x="690" d="M550 462l-72-224h145l-8-40H465L401 0h-42l64 198H205L141 0h-41l63 198H20l8 40h148l72 224H104l8 40h149l63 198h42l-64-198h218l64 198h42l-64-198h145l-8-40H550zm-42 0H290l-72-224h218z"/><glyph glyph-name="dollar" unicode="$" horiz-adv-x="609" d="M405 660l-58-291.997c42-12.667 76-24.667 102-36s48-27.5 66-48.5 27-48.5 27-82.5c0-64-25-114-75-150s-115-54.667-195-56l-23-115h-36l23 116c-46 3.333-89 13.5-129 30.5s-69.667 37.5-89 61.5l27 39c19.333-22.667 47.333-41.834 84-57.501s75.334-25.167 116.001-28.5l58 290c-38 11.333-69.5 23-94.5 35s-45.833 28.667-62.5 50-25 48.666-25 81.999c0 62.667 23.667 112.167 71 148.5s109.333 55.833 186 58.5l23 115h36l-23-116c36-1.333 70.667-7.333 104-18s61.666-24.667 84.999-42l-24-42C531 637.334 473 656.667 405 660zM208 426.003c24-18 59-34.001 105-48.001l56 281c-60-3.333-107.833-18.666-143.5-45.999s-53.5-64-53.5-110c0-33.333 12-59 36-77zm262.5-171.501c-13.667 15.667-31 28.169-52 37.502s-48.167 19-81.5 29l-56-281c64 1.333 115 15.666 153 42.999s57 64.666 57 111.999c0 24-6.833 43.833-20.5 59.5z"/><glyph glyph-name="percent" unicode="%" horiz-adv-x="817" d="M127.5 366C103.833 392 92 428 92 474c0 40 7.5 77.5 22.5 112.5S151 649.667 179 671s60.333 32 97 32c40.667 0 72.834-13 96.501-39s35.5-62 35.5-108c0-40-7.5-77.5-22.5-112.5s-36.5-63.167-64.5-84.5-60.333-32-97-32c-40.667 0-72.834 13-96.501 39zM710 700h47L142 0H95zM303 388.5c22 19 38.667 43.333 50 73s17 60.167 17 91.5c0 36.667-8.5 65.334-25.5 86.001s-40.5 31-70.5 31c-29.333 0-55-9.5-77-28.5s-38.667-43.333-50-73-17-60.167-17-91.5c0-36.667 8.5-65.334 25.5-86.001s40.5-31 70.5-31c29.333 0 55 9.5 77 28.5zM479.5 35c-23.667 26-35.499 62-35.499 108 0 40 7.667 77.5 23 112.5s37 63.167 65 84.5 60.333 32 97 32c40.667 0 72.667-13 96-39s35-62 35-108c0-40-7.5-77.5-22.5-112.5s-36.5-63.167-64.5-84.5-60.333-32-97-32C535.334-4 503.167 9 479.5 35zm176.501 22.5c22 19 38.667 43.333 50 73s17 60.167 17 91.5c0 36.667-8.5 65.334-25.5 86.001s-40.833 31-71.5 31c-29.333 0-55-9.5-77-28.5s-38.667-43.333-50-73-17-60.167-17-91.5c0-36.667 8.5-65.334 25.5-86.001s40.833-31 71.5-31c29.333 0 55 9.5 77 28.5z"/><glyph glyph-name="ampersand" unicode="&amp;" horiz-adv-x="655" d="M514 129l81.999-108-35-31-79 104c-68-66-150.333-99-247-99-62 0-111.5 14.167-148.5 42.5s-55.5 66.166-55.5 113.499c0 45.333 17.333 86.5 52 123.5s92.667 75.833 174 116.5l-1 1c-20 26.667-35 51.667-45 75s-15 46.666-15 69.999c0 51.333 17 92 51 122s78.667 45 134 45c43.333 0 78-10.667 104-32s39-49.666 39-84.999c0-28-6.667-53.167-20-75.5S469.833 467.833 441.5 447.5 374 404.667 324 380l164-217c31.333 40 58 88 80 144l40-13c-26-66.667-57.333-121.667-94-165zM256.499 482c9-20.667 23.168-43.666 42.501-68.999l1-1c47.333 22.667 83.666 42.667 108.999 60s43.5 34.666 54.5 51.999 16.5 37.333 16.5 60c0 23.333-9 42.666-27 57.999s-42.667 23-74 23c-41.333 0-74.333-11.167-99-33.5s-37-52.166-37-89.499c0-19.333 4.5-39.333 13.5-60zM457 128.001l-176 231c-50.667-25.333-90.5-48.5-119.5-69.5s-49.667-42-62-63-18.5-44.167-18.5-69.5c0-36 14-65 42-87s66.333-33 115-33c84.667 0 157.667 30.333 219 91z"/><glyph glyph-name="quotesingle" unicode="'" horiz-adv-x="194" d="M162 700h46l-55-258h-39z"/><glyph glyph-name="parenleft" unicode="(" horiz-adv-x="321" d="M105.5-69.5C97.833-23.833 94 20.665 94 63.998c0 122.667 20.333 245.5 61 368.5s95.334 226.167 164.001 309.5h50C300.334 656.665 245.167 551.832 203.5 427.499S141 181.333 141 62c0-84 13.667-169.333 41-256h-45c-13.333 37.333-23.833 78.833-31.5 124.5z"/><glyph glyph-name="parenright" unicode=")" horiz-adv-x="321" d="M178.5 120.5C220.167 244.833 241 366.668 241 486.001c0 84-13.667 169.333-41 256h45c13.333-37.333 23.833-78.833 31.5-124.5s11.5-90.167 11.5-133.5c0-122.667-20.333-245.5-61-368.5s-95.334-226.167-164.001-309.5h-50C81.666-108.666 136.833-3.833 178.5 120.5z"/><glyph glyph-name="asterisk" unicode="*" horiz-adv-x="375" d="M285 564l111-71-21-31-116 76-29-149h-35l30 145-141-73-14 31 145 74-114 73 21 31 115-76 28 148h35l-29-147 143 75 14-33z"/><glyph glyph-name="plus" unicode="+" horiz-adv-x="569" d="M511 328H320l-37-185h-45l37 185H85l9 43h190l37 186h45l-37-186h190z"/><glyph glyph-name="comma" unicode="," horiz-adv-x="200" d="M86 69c8-8 11.999-17.667 11.999-29 0-6-1.167-12-3.5-18S89.833 10.833 87.5 6.5 83.667-1 83-3L13-143h-36L38-1c-7.333 3.333-13.333 8.5-18 15.5S13 29 13 37c0 12.667 4.333 23.167 13 31.5S45 81 57 81c11.333 0 21-4 29-12z"/><glyph glyph-name="hyphen" unicode="-" horiz-adv-x="381" d="M68 291h257l-9-45H59z"/><glyph glyph-name="period" unicode="." horiz-adv-x="200" d="M25 8c-8 8-12 17.667-12 29 0 12.667 4.333 23.167 13 31.5S45 81 57 81c11.333 0 21-4 29-12s12-17.667 12-29c0-12-4.333-22.333-13-31S66-4 54-4C42.667-4 33 0 25 8z"/><glyph glyph-name="slash" unicode="/" horiz-adv-x="320" d="M420 842h49L-46-100h-50z"/><glyph glyph-name="zero" unicode="0" horiz-adv-x="658" d="M120.5 61c-39 44-58.501 105.333-58.501 184 0 79.333 14.333 154.166 43 224.499S174.333 596.665 227 639.998s113.667 65 183 65 123.333-22 162-66 58-105.333 58-184c0-79.333-14.167-154.166-42.5-224.499S518.667 103.333 466 60 352.333-5 283-5 159.5 17 120.5 61zm321.999 42c44.333 40.667 78.333 92.667 102 156s35.5 128.333 35.5 195c0 65.333-15.333 115.666-46 150.999s-73.667 53-129 53c-59.333 0-111-20.333-155-61s-77.833-92.667-101.5-156-35.5-128.333-35.5-195c0-65.333 15.167-115.666 45.5-150.999s73.5-53 129.5-53c58.667 0 110.167 20.333 154.5 61z"/><glyph glyph-name="one" unicode="1" horiz-adv-x="353" d="M319 700L179 0h-51l131 654H88l9 46h222z"/><glyph glyph-name="two" unicode="2" horiz-adv-x="563" d="M78 46l401.001-.003-9-46h-482l8 36 358 293c52 42.667 87.833 79.334 107.5 110.001s29.5 63.334 29.5 98.001c0 38-13.5 67.833-40.5 89.5s-67.833 32.5-122.5 32.5c-39.333 0-77-7.167-113-21.5s-66-34.5-90-60.5l-36 31c28.667 30.667 64.5 54.5 107.5 71.5s88.833 25.5 137.5 25.5c67.333 0 118.833-14.667 154.5-44s53.5-68.666 53.5-117.999c0-41.333-11.333-80.833-34-118.5S445.667 345 389 299z"/><glyph glyph-name="three" unicode="3" horiz-adv-x="558" d="M559 664L296.002 394c64.667-2.667 114-19.167 148-49.5s51-71.833 51-124.5c0-44-11.5-83-34.5-117s-55.667-60.5-98-79.5S271.669-5 217.002-5c-53.333 0-100.833 8.5-142.5 25.5S1.668 60.667-18.999 90l31 38C29.334 102 56.167 81.167 92.5 65.5S171.333 42 220 42c68.667 0 123 15.833 163 47.5S443 164 443 218c0 89.333-60.667 134-182 134h-38l8 37 258 265H118l9 46h438z"/><glyph glyph-name="four" unicode="4" horiz-adv-x="654" d="M626 194H479L440 0h-51l39 194H30l7 37 469 469h61L107 239h331l35 171h49l-34-171h147z"/><glyph glyph-name="five" unicode="5" horiz-adv-x="558" d="M234 654l-77-246.999h100c85.333 0 148.666-15.833 189.999-47.5s62-76.167 62-133.5c0-46.667-11.333-87.334-34-122.001s-55-61.5-97-80.5-91-28.5-147-28.5c-53.333 0-100.833 8.5-142.5 25.5S15.665 60.667-5.002 90l31 38c17.333-26 44.333-46.833 81-62.5S186.332 42 234.999 42c70 0 124.667 15.833 164 47.5s59 75.5 59 131.5c0 45.333-16.667 80-50 104S321.333 361 248 361H93l104 339h371l-9-46H234z"/><glyph glyph-name="six" unicode="6" horiz-adv-x="602" d="M257.5 606c-47.667-36-82.836-82.002-105.503-138.002s-35-115.333-37-178c20.667 42 51 73.167 91 93.5s83.667 30.5 131 30.5c42.667 0 80.834-7.667 114.501-23s60.167-37.666 79.5-66.999 29-64.333 29-105c0-45.333-10.5-85-31.5-119s-50.167-60-87.5-78-80-27-128-27c-76 0-136.833 23.167-182.5 69.5s-68.5 113.5-68.5 201.5c0 72.667 12.833 142.334 38.5 209.001s66.834 121.667 123.501 165 128.667 65 216 65c67.333 0 121.333-12.333 162-37l-26-42c-33.333 22.667-79.666 34-138.999 34-72 0-131.833-18-179.5-54zm-36.002-259.002c-31-15.333-54.999-36.333-71.999-63s-25.5-56-25.5-88c0-26.667 7.167-52 21.5-76s35.666-43.5 63.999-58.5 62.5-22.5 102.5-22.5c59.333 0 107 15.833 143 47.5s54 74.5 54 128.5c0 48.667-16.667 86.667-50 114s-77 41-131 41c-40 0-75.5-7.667-106.5-23z"/><glyph glyph-name="seven" unicode="7" horiz-adv-x="581" d="M624 700l-7-36L185 0h-58l426 654H162l-27-134H85l36 180h503z"/><glyph glyph-name="eight" unicode="8" horiz-adv-x="632" d="M537 299.5c20-26.333 29.999-57.831 29.999-94.498 0-42.667-11.5-79.834-34.5-111.501s-55.5-56-97.5-73-91-25.5-147-25.5c-78.667 0-140.167 16.167-184.5 48.5s-66.5 76.833-66.5 133.5c0 51.333 16.333 94 49 128s79 56.667 139 68C193.666 386.334 169.833 404.667 153.5 428S129 478.666 129 509.999c0 39.333 10.333 73.833 31 103.5s50 52.334 88 68.001S330.333 705 381 705c69.333 0 124.833-15 166.5-45S610 589.333 610 538c0-45.333-14-83.5-42-114.5s-67.333-52.167-118-63.5c38-14 67-34.167 87-60.5zM227.999 420.002c31.333-22.667 75.333-34 132-34 61.333 0 109.833 13.167 145.5 39.5s53.5 61.833 53.5 106.5c0 40-16.333 71.5-49 94.5s-76.667 34.5-132 34.5c-60 0-107.833-13.333-143.5-40s-53.5-62.667-53.5-108c0-39.333 15.667-70.333 47-93zm227.5-336.5c40.333 29.667 60.5 69.833 60.5 120.5 0 43.333-18 77.5-54 102.5s-86 37.5-150 37.5c-69.333 0-124-14.833-164-44.5s-60-69.5-60-119.5c0-44 17.833-78.5 53.5-103.5s85.167-37.5 148.5-37.5c70 0 125.167 14.833 165.5 44.5z"/><glyph glyph-name="nine" unicode="9" horiz-adv-x="602" d="M507 635.5c45.333-46.333 68.002-113.498 68.002-201.498 0-72.667-12.833-142.334-38.5-209.001s-66.834-121.667-123.501-165-128.667-65-216-65c-67.333 0-121 12.333-161 37l25 42c34.667-22.667 81.334-34 140.001-34 72 0 131.667 18 179 54s82.333 82 105 138 35 115.333 37 178c-20.667-42-50.834-73.167-90.501-93.5s-83.5-30.5-131.5-30.5c-42.667 0-80.834 7.667-114.501 23S125.333 346.667 106 376s-29 64.333-29 105c0 45.333 10.5 85 31.5 119s50.333 60 88 78S277 705 325 705c76 0 136.667-23.167 182-69.5zm-91.498-282.498c31 15.333 54.999 36.333 71.999 63s25.5 56 25.5 88c0 26.667-7.167 52-21.5 76s-35.666 43.5-63.999 58.5-62.5 22.5-102.5 22.5c-59.333 0-106.833-15.833-142.5-47.5s-53.5-74.5-53.5-128.5c0-48.667 16.5-86.667 49.5-114s76.5-41 130.5-41c40 0 75.5 7.667 106.5 23z"/><glyph glyph-name="colon" unicode=":" horiz-adv-x="200" d="M114 453c-8 8-12 17.667-12 29 0 12.667 4.333 23.167 13 31.5s19 12.5 31 12.5c11.333 0 21-4 29-12s12-17.667 12-29c0-12-4.333-22.333-13-31s-19-13-31-13c-11.333 0-21 4-29 12zM25 8c-8 8-12 17.667-12 29 0 12.667 4.333 23.167 13 31.5S45 81 57 81c11.333 0 21-4 29-12s12-17.667 12-29c0-12-4.333-22.333-13-31S66-4 54-4C42.667-4 33 0 25 8z"/><glyph glyph-name="semicolon" unicode=";" horiz-adv-x="200" d="M114 453c-8 8-12 17.667-12 29 0 12.667 4.333 23.167 13 31.5s19 12.5 31 12.5c11.333 0 21-4 29-12s12-17.667 12-29c0-12-4.333-22.333-13-31s-19-13-31-13c-11.333 0-21 4-29 12zM86 69c8-8 11.999-17.667 11.999-29 0-6-1.167-12-3.5-18S89.833 10.833 87.5 6.5 83.667-1 83-3L13-143h-36L38-1c-7.333 3.333-13.333 8.5-18 15.5S13 29 13 37c0 12.667 4.333 23.167 13 31.5S45 81 57 81c11.333 0 21-4 29-12z"/><glyph glyph-name="less" unicode="&lt;" horiz-adv-x="569" d="M543 499L137 347l346-151-8-43L84 326l10 48 459 173z"/><glyph glyph-name="equal" unicode="=" horiz-adv-x="569" d="M117 484h425l-9-43H109zM72 258h425l-9-42H63z"/><glyph glyph-name="greater" unicode="&gt;" horiz-adv-x="569" d="M520 374l-10-48L52 153l10 48 405 151-346 152 9 43z"/><glyph glyph-name="question" unicode="?" horiz-adv-x="562" d="M257.5 276.5c13.667 21.667 29.002 39.832 46.002 54.499s38.5 31.334 64.5 50.001c26.667 18.667 47.5 34.834 62.5 48.501s27.667 30.167 38 49.5 15.5 42 15.5 68c0 36-13.333 63.833-40 83.5s-64.334 29.5-113.001 29.5c-46.667 0-87.5-6.833-122.5-20.5s-65.833-34.5-92.5-62.5l-33 32c60.667 64 145.334 96 254.001 96 62 0 110.5-13.333 145.5-40s52.5-63.667 52.5-111c0-32.667-5.833-60.834-17.5-84.501s-25.834-43.167-42.501-58.5-39.334-33.333-68.001-54c-36.667-26.667-65-50.834-85-72.501s-33.667-49.5-41-83.5h-52c5.333 28.667 14.833 53.834 28.5 75.501zM193.002 7.498c-8 7.667-11.999 16.834-11.999 27.501 0 12 4.167 22.167 12.5 30.5s18.166 12.5 29.499 12.5 21-3.833 29-11.5 12-16.834 12-27.501c0-12-4.167-22.167-12.5-30.5s-18.5-12.5-30.5-12.5c-10.667 0-20 3.833-28 11.5z"/><glyph glyph-name="at" unicode="@" horiz-adv-x="1033" d="M802 660c60.667-30 106.665-72.167 137.998-126.5s47-117.833 47-190.5c0-60-9.5-116.667-28.5-170s-44.667-96.166-77-128.499-67.5-48.5-105.5-48.5c-28 0-50.333 7.333-67 22s-25 34.667-25 60c0 3.333.667 9.666 2 18.999-25.333-32-56.333-56.833-93-74.5S515.331-4 469.998-4c-66 0-118.833 19.167-158.5 57.5s-59.5 89.5-59.5 153.5c0 57.333 12.333 109.5 37 156.5s58.834 84 102.501 111 93.167 40.5 148.5 40.5c53.333 0 97.166-11.667 131.499-35s57.833-56.333 70.5-99l26 130h46l-79-396c-2-10-3-18.667-3-26 0-34.667 18.333-52 55-52 28.667 0 55.334 14.667 80.001 44S911.333 148.666 926 195.999s22 96.333 22 147c0 65.333-14 122.333-42 171S836.5 600.333 781.5 627 659 667 579 667c-97.333 0-183.5-22.167-258.5-66.5s-133-104.333-174-180S85 261.666 85 170.999c0-66 13.833-123.833 41.5-173.5S194.667-90.835 248-118.502s117.666-41.5 192.999-41.5c36.667 0 71.834 3.667 105.501 11s63.5 18.333 89.5 33l9-38c-28-14-60.333-25-97-33s-74-12-112-12c-80.667 0-150.5 15.333-209.5 46S122.333-79.168 91-23.501 44 96.333 44 169c0 96.667 22.167 186 66.5 268s107.333 147.167 189 195.5S475.667 705 583 705c85.333 0 158.333-15 219-45zM603.998 72c36.667 22.667 65.499 54 86.499 94s31.5 85 31.5 135c0 54.667-16.167 97-48.5 127s-77.166 45-134.499 45c-46 0-87.167-11.333-123.5-34s-64.833-54-85.5-94-31-85-31-135c0-54.667 15.833-97 47.5-127s76.167-45 133.5-45c46 0 87.333 11.333 124 34z"/><glyph glyph-name="A" unicode="A" horiz-adv-x="705" d="M546 197H139L10 0h-57l462 700h51L648 0h-52zm-11 43L432 646 167 240h368z"/><glyph glyph-name="B" unicode="B" horiz-adv-x="752" d="M648 310.5c21.333-24.333 32-55.834 32-94.501C680 146.666 654 93.333 602 56S477.667 0 385 0H70l140 700h290c66 0 117.5-12.5 154.5-37.5S710 601.333 710 554c0-50-14-91.5-42-124.5s-65.333-56.167-112-69.5c40-8.667 70.667-25.167 92-49.5zm-452 66.499h238.999c66.667 0 120.334 14.5 161.001 43.5s61 70.833 61 125.5c0 36.667-14.333 64.167-43 82.5s-69.667 27.5-123 27.5H252zm370.999-289c41.333 29.333 61.999 71.333 61.999 126 0 42-14.667 72.333-44 91s-73.666 28-132.999 28h-264l-58-289h260c76.667 0 135.667 14.667 177 44z"/><glyph glyph-name="C" unicode="C" horiz-adv-x="716" d="M214.5 31c-48.333 24-84.999 57.672-109.999 101.005s-37.5 93.666-37.5 150.999c0 76 17.333 146.333 52 211s84 116 148 154 138.667 57 224 57c54 0 102.167-8.333 144.5-25S710.667 639.67 734 609.003l-36-33c-46.667 54.667-117 82-211 82-73.333 0-138-16.833-194-50.5s-99.167-78.834-129.5-135.501-45.5-119-45.5-187c0-74.667 23.667-133.834 71-177.501s115.333-65.5 204-65.5c96 0 173 28 231 84l31-35C624.333 60.334 585.833 36.667 539.5 20S443-5 389-5C321-5 262.833 7 214.5 31z"/><glyph glyph-name="D" unicode="D" horiz-adv-x="826" d="M210 700h260c68.667 0 127.5-11.667 176.5-35s86.167-56.333 111.5-99 38-92.334 38-149.001c0-80.667-18-152.667-54-216S655 88.333 589 53 446.667 0 360 0H70zM363 46c76.667 0 143.833 15.667 201.5 47s102 75 133 131S744 343.667 744 415c0 74-23.667 132.333-71 175s-117 64-209 64H252L130 46h233z"/><glyph glyph-name="E" unicode="E" horiz-adv-x="669" d="M252 654l-55-276h372l-9-45H188L130 46h432L552 0H70l140 700h468l-10-46H252z"/><glyph glyph-name="F" unicode="F" horiz-adv-x="631" d="M252 654l-60-299h372l-9-46H183L121 0H70l140 700h468l-10-46H252z"/><glyph glyph-name="G" unicode="G" horiz-adv-x="773" d="M640.5 680c43-16.667 77.167-40.665 102.5-71.998l-36-32c-46.667 54.667-119.334 82-218.001 82-73.333 0-138.166-16.667-194.499-50s-99.833-78.5-130.5-135.5-46-119.5-46-187.5c0-74.667 23.833-133.834 71.5-177.501s116.167-65.5 205.5-65.5c73.333 0 138.666 21.333 195.999 64l49 241h49l-53-263c-31.333-28-68.5-49.833-111.5-65.5s-88.167-23.5-135.5-23.5c-67.333 0-125.166 12-173.499 36s-85.166 57.667-110.499 101-38 93.666-38 150.999c0 76.667 17.333 147.167 52 211.5S203.168 610 267.501 648 406.667 705 492 705c56 0 105.5-8.333 148.5-25z"/><glyph glyph-name="H" unicode="H" horiz-adv-x="814" d="M780 700L640 0h-51l66 332H187L121 0H70l140 700h51l-64-321h468l64 321h51z"/><glyph glyph-name="I" unicode="I" horiz-adv-x="295" d="M210 700h51L121 0H70z"/><glyph glyph-name="J" unicode="J" horiz-adv-x="491" d="M35.5 22C3.833 40-19.332 64.333-33.999 95l38 32c12.667-26.667 31.667-47.667 57-63s55-23 89-23c44 0 79.167 12.5 105.5 37.5s45.5 66.833 57.5 125.5l90 450h-258l9 46h309l-100-499c-14.667-74-39.5-126.833-74.5-158.5S206.334-5 147.001-5C104.334-5 67.167 4 35.5 22z"/><glyph glyph-name="K" unicode="K" horiz-adv-x="703" d="M383 376L642 0h-59L346 345 158 184 121 0H70l140 700h51l-89-445 521 445h69z"/><glyph glyph-name="L" unicode="L" horiz-adv-x="585" d="M210 700h51L130 46h403L523 0H70z"/><glyph glyph-name="M" unicode="M" horiz-adv-x="956" d="M921 700L781 0h-50l119 595L463 93h-25L240 602 120 0H70l140 700h42l209-541 415 541h45z"/><glyph glyph-name="N" unicode="N" horiz-adv-x="814" d="M780 700L640 0h-43L244 616 121 0H70l140 700h42L606 84l123 616h51z"/><glyph glyph-name="O" unicode="O" horiz-adv-x="838" d="M214 31c-48 24-84.498 57.667-109.498 101s-37.5 93.666-37.5 150.999c0 76 17.167 146.167 51.5 210.5s83.333 115.666 147 153.999 137.167 57.5 220.5 57.5c67.333 0 125.166-12 173.499-36s85-57.667 110-101 37.5-93.666 37.5-150.999c0-76-17.333-146.167-52-210.5S671.167 90.833 607.5 52.5 470.333-5 387-5C319.667-5 262 7 214 31zm368.002 61.5c55.333 33.667 97.999 78.999 127.999 135.999s45 119.167 45 186.5c0 74.667-23.5 133.834-70.5 177.501s-114.5 65.5-202.5 65.5c-71.333 0-134.666-16.833-189.999-50.5s-98.166-79-128.499-136-45.5-119.167-45.5-186.5c0-74 23.667-133 71-177s115-66 203-66c71.333 0 134.666 16.833 189.999 50.5z"/><glyph glyph-name="P" unicode="P" horiz-adv-x="715" d="M634 649.5c42.667-33.667 64-81.167 64-142.5 0-88.667-28.667-157.167-86-205.5S476 229 376 229H167L121 0H70l140 700h244c77.333 0 137.333-16.833 180-50.5zM576 333c46.667 38.667 70 95.333 70 170 0 48.667-16.833 86-50.5 112s-81.834 39-144.501 39h-199l-76-379h200c86.667 0 153.334 19.333 200.001 58z"/><glyph glyph-name="Q" unicode="Q" horiz-adv-x="838" d="M665-73.5c24 11 44.667 27.165 62 48.498l25-33c-20.667-24.667-45.5-43.334-74.5-56.001s-59.5-19-91.5-19c-43.333 0-82.833 10.833-118.5 32.5s-69.167 53.5-100.5 95.5c-63.333 2.667-117.5 16.334-162.5 41.001s-79.167 58.167-102.5 100.5-35 91.166-35 146.499c0 76 17.167 146.167 51.5 210.5s83.333 115.666 147 153.999 137.167 57.5 220.5 57.5c67.333 0 125.166-12 173.499-36s85-57.667 110-101 37.5-93.666 37.5-150.999c0-71.333-15.333-137.666-46-198.999s-74.167-111.666-130.5-150.999S508.333 4.333 433-3c43.333-58 95-87 155-87 27.333 0 53 5.5 77 16.5zM189 107.998c47.333-44 114.999-66.001 202.999-66.001 71.333 0 134.666 16.833 189.999 50.5s98 79 128 136 45 119.167 45 186.5c0 74.667-23.5 133.834-70.5 177.501s-114.5 65.5-202.5 65.5c-71.333 0-134.666-16.833-189.999-50.5s-98.166-79-128.499-136-45.5-119.167-45.5-186.5c0-74 23.667-133 71-177z"/><glyph glyph-name="R" unicode="R" horiz-adv-x="720" d="M640.5 330.5C602.167 284.833 548 254.667 478 240L613 0h-56L426 232c-21.333-1.333-37.666-2-48.999-2h-210l-46-230h-51l140 700h245c77.333 0 137.166-16.833 179.499-50.5S698 568.333 698 507c0-72-19.167-130.833-57.5-176.5zm-63.5 2.501c46.667 38.667 70 95.333 70 170 0 48.667-16.833 86-50.5 112s-81.834 39-144.501 39h-200l-76-379h201c86.667 0 153.334 19.333 200.001 58z"/><glyph glyph-name="S" unicode="S" horiz-adv-x="609" d="M120 21.5C74 39.167 40.002 61.333 18.002 88l27 39c21.333-25.333 52.833-46.166 94.5-62.499s84.834-24.5 129.501-24.5c67.333 0 121.166 13.667 161.499 41s60.5 65.333 60.5 114c0 25.333-7.5 46-22.5 62s-33.667 28.667-56 38-52.5 19.333-90.5 30c-44 13.333-79.333 25.666-106 36.999s-49.167 28-67.5 50-27.5 50.667-27.5 86c0 42.667 11.667 79.667 35 111s55.333 55.166 96 71.499 87.334 24.5 140.001 24.5c40.667 0 79.5-5.333 116.5-16s68.5-25.667 94.5-45l-24-42c-24.667 18.667-53.334 33-86.001 43s-67 15-103 15c-65.333 0-118-14-158-42s-60-66.333-60-115c0-26 7.667-47.333 23-64s34.166-29.667 56.499-39S304.667 380.333 344 369c44-13.333 79-25.5 105-36.5s48-27.167 66-48.5 27-49 27-83c0-65.333-25.667-116-77-152S347-5 265-5c-50.667 0-99 8.833-145 26.5z"/><glyph glyph-name="T" unicode="T" horiz-adv-x="563" d="M334 654H82l10 46h555l-9-46H386L255 0h-51z"/><glyph glyph-name="U" unicode="U" horiz-adv-x="793" d="M179.5 54c-43 39.333-64.499 94.334-64.499 165.001 0 22 2.667 48 8 78l81 403h51l-80-402c-5.333-24-8-49.333-8-76 0-58.667 17-103.334 51-134.001s82.667-46 146-46c73.333 0 132.166 20.833 176.499 62.5s75.166 106.167 92.499 193.5l80 402h51l-81-405C643.666 95 536.333-5 361-5c-78 0-138.5 19.667-181.5 59z"/><glyph glyph-name="V" unicode="V" horiz-adv-x="687" d="M769 700L316 0h-50L93 700h54L302 66l411 634h56z"/><glyph glyph-name="W" unicode="W" horiz-adv-x="1098" d="M1146 700L769 0h-54l-92 626L279 0h-54l-98 700h51l88-632 346 632h48l92-632 342 632h52z"/><glyph glyph-name="X" unicode="X" horiz-adv-x="642" d="M368 360L568 0h-54L335 324 30 0h-62l344 364-185 336h54l166-300 283 300h60z"/><glyph glyph-name="Y" unicode="Y" horiz-adv-x="625" d="M332 235L285 0h-51l48 241L92 700h53l171-414 335 414h57z"/><glyph glyph-name="Z" unicode="Z" horiz-adv-x="646" d="M681 664L77 46h491L558 0H-6l8 36 603 618H132l9 46h547z"/><glyph glyph-name="bracketleft" unicode="[" horiz-adv-x="306" d="M217 742h161l-8-43H259L89-151h111l-8-43H30z"/><glyph glyph-name="backslash" unicode="\" horiz-adv-x="320" d="M227-100L83 842h44l144-942h-44z"/><glyph glyph-name="bracketright" unicode="]" horiz-adv-x="306" d="M-67-194l9 43H53l169 850H111l9 43h161L94-194H-67z"/><glyph glyph-name="asciicircum" unicode="^" horiz-adv-x="570" d="M416 144l-79 367-225-367H66l256 412h44l91-412h-41z"/><glyph glyph-name="underscore" unicode="_" horiz-adv-x="500" d="M-52 0h500l-7-36H-59z"/><glyph glyph-name="grave" unicode="`" horiz-adv-x="600" d="M238 725h72l116-118h-54z"/><glyph glyph-name="a" unicode="a" horiz-adv-x="675" d="M622 522L518 0h-48l20 102c-25.333-33.333-56.833-59.333-94.5-78S316-4 270-4c-68 0-122.5 19.5-163.5 58.5S45 146.333 45 213c0 59.333 12.667 112.833 38 160.5s60.5 85 105.5 112S284 526 340 526c54 0 98.667-11.667 134-35s59.333-56.333 72-99l26 130h50zM405.5 75c37 22.667 66.167 54.167 87.5 94.5s32 85.833 32 136.5c0 55.333-16.167 98.333-48.5 129s-77.833 46-136.5 46c-46.667 0-88.5-11.5-125.5-34.5s-66.167-54.667-87.5-95S95 266 95 216c0-55.333 16.167-98.333 48.5-129S221.333 41 280 41c46.667 0 88.5 11.333 125.5 34z"/><glyph glyph-name="b" unicode="b" horiz-adv-x="675" d="M569 467.5c41.333-39 62-91.834 62-158.501 0-59.333-12.833-112.833-38.5-160.5s-61-85-106-112S391-4.001 335-4.001c-54.667 0-99.667 11.833-135 35.5s-59.333 57.5-72 101.5l-26-133H53l148 742h50l-63-318c25.333 32.667 56.5 57.834 93.5 75.501S359.667 526 405 526c68 0 122.667-19.5 164-58.5zM461.5 75.499c37 23 65.999 54.5 86.999 94.5s31.5 85.333 31.5 136c0 55.333-16.167 98.333-48.5 129s-77.833 46-136.5 46c-46.667 0-88.5-11.333-125.5-34s-66.167-54.167-87.5-94.5-32-85.833-32-136.5c0-55.333 16.333-98.333 49-129s78.334-46 137.001-46c46.667 0 88.5 11.5 125.5 34.5z"/><glyph glyph-name="c" unicode="c" horiz-adv-x="555" d="M108.5 55c-42.333 39.333-63.504 91.999-63.504 157.999 0 59.333 12.833 112.833 38.5 160.5s61.334 85 107.001 112 97.167 40.5 154.5 40.5c46.667 0 86.667-8.167 120-24.5s59.333-40.833 78-73.5l-41-25c-31.333 52-84.666 78-159.999 78-47.333 0-89.666-11.5-126.999-34.5s-66.666-54.5-87.999-94.5-32-85.333-32-136c0-55.333 16.333-98.333 49-129s79.334-46 140.001-46c34.667 0 67.167 6.667 97.5 20s55.5 32 75.5 56l35-28c-22.667-29.333-52.834-52.166-90.5-68.499S323.332-4 280-4c-72 0-129.168 19.667-171.5 59z"/><glyph glyph-name="d" unicode="d" horiz-adv-x="675" d="M666 742L518-.001h-48l20 102c-25.333-33.333-56.833-59.333-94.5-78s-79.5-28-125.5-28c-68 0-122.5 19.5-163.5 58.5S45 146.332 45 212.999c0 59.333 12.667 112.833 38 160.5s60.5 85 105.5 112 95.5 40.5 151.5 40.5c54 0 98.667-11.667 134-35s59.333-56.666 72-99.999l70 351h50zM405.5 74.999c37 22.667 66.167 54.167 87.5 94.5s32 85.833 32 136.5c0 55.333-16.167 98.333-48.5 129s-77.833 46-136.5 46c-46.667 0-88.5-11.5-125.5-34.5s-66.167-54.667-87.5-95-32-85.5-32-135.5c0-55.333 16.167-98.333 48.5-129s77.833-46 136.5-46c46.667 0 88.5 11.333 125.5 34z"/><glyph glyph-name="e" unicode="e" horiz-adv-x="598" d="M96 250c-1.333-14.667-2.002-25.668-2.002-33.001 0-56.667 16.333-100.167 49-130.5s80.667-45.5 144-45.5c36.667 0 70.5 6.167 101.5 18.5s56.833 29.5 77.5 51.5l23-35c-23.333-25.333-53.166-45-89.499-59s-75.166-21-116.499-21c-74 0-132.167 19.333-174.5 58S45 146.333 45 215c0 58.667 12.333 111.667 37 159s58.667 84.5 102 111.5S276 526 330 526c68 0 122-19.333 162-58s60-92 60-160c0-16-2-35.333-6-58H96zm86.498 179.999c-41-35.333-67.833-82.334-80.5-141.001h402c.667 6 1 14.667 1 26 0 52.667-16 93.834-48 123.501s-74.667 44.5-128 44.5c-56.667 0-105.5-17.667-146.5-53z"/><glyph glyph-name="f" unicode="f" horiz-adv-x="328" d="M272 677c-19.333-17.333-32.665-45-39.998-83l-15-72h167l-8-43h-167l-95-479h-50l96 479h-97l8 43h97l16 79c9.333 47.333 28.166 83.333 56.499 108S305.667 746 351 746c20.667 0 40-3 58-9s32.333-14.667 43-26l-24-36c-20 18.667-46 28-78 28-32.667 0-58.667-8.667-78-26z"/><glyph glyph-name="g" unicode="g" horiz-adv-x="682" d="M629 522L536.001 55.999c-17.333-88.667-50-153.167-98-193.5s-114.333-60.5-199-60.5c-48 0-91.333 7.167-130 21.5s-70.667 34.5-96 60.5l32 37c21.333-23.333 49-41.5 83-54.5s72.333-19.5 115-19.5c69.333 0 123.666 16.333 162.999 49S471.666-20.667 484.999 48l16 78c-26-34-58.333-60.333-97-79s-81.667-28-129-28c-70 0-125.5 18.667-166.5 56s-61.5 88-61.5 152c0 56 12.667 106.833 38 152.5S145.665 461 190.998 487s96.333 39 153 39c54.667 0 100.334-11.667 137.001-35S542.333 433.667 555 389l26 133h48zM411.001 96.499c37.333 21.667 66.666 51.667 87.999 90s32 81.5 32 129.5c0 52-16.5 92.5-49.5 121.5s-78.833 43.5-137.5 43.5c-47.333 0-89.666-10.833-126.999-32.5s-66.666-51.667-87.999-90-32-81.5-32-129.5c0-52 16.5-92.5 49.5-121.5s78.833-43.5 137.5-43.5c47.333 0 89.666 10.833 126.999 32.5z"/><glyph glyph-name="h" unicode="h" horiz-adv-x="673" d="M539 481.5c32-29.667 48.001-70.499 48.001-122.499 0-18-2-37-6-57l-60-302h-50l60 302c3.333 15.333 5 32 5 50 0 41.333-12.5 73.166-37.5 95.499s-61.5 33.5-109.5 33.5c-60 0-110-16.833-150-50.5s-66.333-82.5-79-146.5l-57-284h-50l148 742h50l-63-317C237.334 492.333 308.667 526 402 526c59.333 0 105-14.833 137-44.5z"/><glyph glyph-name="i" unicode="i" horiz-adv-x="261" d="M157 522h50L103 0H53zm29 138c-7.333 7.333-11 16-11 26 0 12 4.167 22.333 12.5 31s18.833 13 31.5 13c10.667 0 19.834-3.667 27.501-11s11.5-16 11.5-26c0-12.667-4.333-23.167-13-31.5S225.667 649 213 649c-10.667 0-19.667 3.667-27 11z"/><glyph glyph-name="j" unicode="j" horiz-adv-x="266" d="M-125.5-189c-18.333 6-33.832 14.333-46.499 25l26 38c21.333-19.333 48.666-29 81.999-29 30.667 0 55.167 8.667 73.5 26s31.166 44.333 38.499 81l114 570h50l-115-574c-9.333-49.333-27.5-86-54.5-110s-63.167-36-108.5-36c-21.333 0-41.166 3-59.499 9zm315.501 849c-7.333 7.333-11 16-11 26 0 12 4.167 22.333 12.5 31s18.833 13 31.5 13c10.667 0 19.834-3.667 27.501-11s11.5-16 11.5-26c0-12.667-4.333-23.167-13-31.5S229.668 649 217.001 649c-10.667 0-19.667 3.667-27 11z"/><glyph glyph-name="k" unicode="k" horiz-adv-x="576" d="M335 309L523 0h-58L296 279 134 154 103 0H53l148 742h50L147 219l389 303h73z"/><glyph glyph-name="l" unicode="l" horiz-adv-x="261" d="M201 742h50L103 0H53z"/><glyph glyph-name="m" unicode="m" horiz-adv-x="1064" d="M931 482.5c31.333-29 47.001-69.503 47.001-121.503 0-18-2-37.667-6-59l-61-302h-50l61 302c3.333 15.333 5 32.333 5 51 0 40.667-12 72.167-36 94.5s-59 33.5-105 33.5c-57.333 0-105.166-15.833-143.499-47.5s-63.5-77.5-75.5-137.5l-60-296h-50l61 302c3.333 15.333 5 32.333 5 51 0 40.667-12 72.167-36 94.5s-59 33.5-105 33.5c-58 0-106.333-16.833-145-50.5s-64.334-82.5-77.001-146.5l-57-284h-50l104 522h49l-20-98c24.667 34.667 54.667 60.334 90 77.001s75 25 119 25c48 0 86.667-10.167 116-30.5s48.666-49.166 57.999-86.499c26 38.667 58.333 67.834 97 87.501S748 526 796 526c58.667 0 103.667-14.5 135-43.5z"/><glyph glyph-name="n" unicode="n" horiz-adv-x="673" d="M539 481.5c32-29.667 48-70.499 48-122.499 0-18-2-37-6-57l-60-302h-50l60 302c3.333 15.333 5 32 5 50 0 41.333-12.5 73.166-37.5 95.499S437 481 389 481c-60 0-110-16.833-150-50.5S172.667 348 160 284L103 0H53l104 522h49l-20-99c24.667 34.667 55.5 60.5 92.5 77.5S356.667 526 402 526c59.333 0 105-14.833 137-44.5z"/><glyph glyph-name="o" unicode="o" horiz-adv-x="620" d="M107.5 55C65.833 94.333 45 147.002 45 213.002c0 59.333 12.833 112.666 38.5 159.999S144.667 457.667 190 485s96.666 41 153.999 41c70.667 0 126.834-19.5 168.501-58.5S575 375.667 575 309c0-59.333-12.833-112.833-38.5-160.5s-61.167-85-106.5-112S333.334-4 276.001-4C205.334-4 149.167 15.667 107.5 55zm298 20.002c37 22.667 66.167 54.167 87.5 94.5s32 85.833 32 136.5c0 55.333-16.167 98.333-48.5 129s-77.833 46-136.5 46c-46.667 0-88.5-11.5-125.5-34.5s-66.167-54.667-87.5-95-32-85.5-32-135.5c0-55.333 16.167-98.333 48.5-129s77.833-46 136.5-46c46.667 0 88.5 11.333 125.5 34z"/><glyph glyph-name="p" unicode="p" horiz-adv-x="675" d="M569 467.5c41.333-39 62.001-91.832 62.001-158.499 0-59.333-12.833-112.833-38.5-160.5s-61-85-106-112-95.5-40.5-151.5-40.5c-54 0-98.5 11.5-133.5 34.5s-59.167 56.167-72.5 99.5l-65-324h-50l143 716h49l-20-101c25.333 33.333 56.666 59.166 93.999 77.499S359 526 405 526c68 0 122.667-19.5 164-58.5zM461.501 75.501c37 23 65.999 54.5 86.999 94.5s31.5 85.333 31.5 136c0 55.333-16.167 98.333-48.5 129s-77.833 46-136.5 46c-46.667 0-88.5-11.333-125.5-34s-66.167-54.167-87.5-94.5-32-85.833-32-136.5c0-55.333 16.333-98.333 49-129s78.334-46 137.001-46c46.667 0 88.5 11.5 125.5 34.5z"/><glyph glyph-name="q" unicode="q" horiz-adv-x="675" d="M622 522L478.997-194h-50l59 293c-25.333-32.667-56.666-58-93.999-76S315.332-4 269.999-4c-68 0-122.5 19.5-163.5 58.5s-61.5 91.833-61.5 158.5c0 59.333 12.667 112.833 38 160.5s60.5 85 105.5 112 95.5 40.5 151.5 40.5c54.667 0 99.834-11.833 135.501-35.5S535 433 547 389l27 133h48zM405.497 75c37 22.667 66.167 54.167 87.5 94.5s32 85.833 32 136.5c0 55.333-16.167 98.333-48.5 129s-77.833 46-136.5 46c-46.667 0-88.5-11.5-125.5-34.5s-66.167-54.667-87.5-95-32-85.5-32-135.5c0-55.333 16.167-98.333 48.5-129s77.833-46 136.5-46c46.667 0 88.5 11.333 125.5 34z"/><glyph glyph-name="r" unicode="r" horiz-adv-x="394" d="M273.5 497.5c36.333 19 80.501 28.499 132.501 28.499l-9-49-16 1c-59.333 0-108-17.667-146-53s-64-87.666-78-156.999l-54-268h-50l104 522h49l-22-110c23.333 38 53.166 66.5 89.499 85.5z"/><glyph glyph-name="s" unicode="s" horiz-adv-x="478" d="M79.5 14.5c-37 12.333-65.831 28.169-86.498 47.502l27 39c19.333-18.667 45.166-33.5 77.499-44.5s66.5-16.5 102.5-16.5c54 0 95.833 9.5 125.5 28.5s44.5 45.5 44.5 79.5c0 19.333-6 34.666-18 45.999s-26.667 19.833-44 25.5-41.333 11.834-72 18.501c-36 7.333-65.167 15-87.5 23s-41.166 20.5-56.499 37.5-23 40.167-23 69.5c0 48 19.833 86.333 59.5 115s92.5 43 158.5 43c33.333 0 65.666-4.5 96.999-13.5s56.333-21.5 75-37.5l-23-39c-19.333 15.333-42.5 26.833-69.5 34.5s-54.833 11.5-83.5 11.5c-50.667 0-90.834-10-120.501-30s-44.5-46.333-44.5-79c0-20 6-35.833 18-47.5s27.167-20.5 45.5-26.5 42.833-12.333 73.5-19c36-7.333 64.833-14.833 86.5-22.5s40.167-19.834 55.5-36.501 23-39.334 23-68.001c0-48.667-20.333-87-61-115S264-4 196-4c-40.667 0-79.5 6.167-116.5 18.5z"/><glyph glyph-name="t" unicode="t" horiz-adv-x="398" d="M144 151c-2.667-12.667-4-25.001-4-37.001 0-50 26.667-75 80-75 32 0 60.333 9.667 85 29l15-37c-28.667-23.333-66-35-112-35-37.333 0-66.5 9.833-87.5 29.5S89 72.333 89 107c0 14 1.333 27.333 4 40l67 332H63l8 43h97l23 114h50l-23-114h166l-8-43H210z"/><glyph glyph-name="u" unicode="u" horiz-adv-x="669" d="M616 522L512.001 0h-49l20 99c-48.667-68.667-120-103-214-103C210.334-4 165.167 10.833 133.5 40.5S86 111 86 163c0 18 2 37 6 57l60 302h50l-60-302c-3.333-14.667-5-31.334-5-50.001 0-41.333 12.167-73.166 36.5-95.499S234 41 282 41c60 0 109.667 16.833 149 50.5S496.333 174 509 238l57 284h50z"/><glyph glyph-name="v" unicode="v" horiz-adv-x="528" d="M577 522L238 0h-51L55 522h51L222 55l302 467h53z"/><glyph glyph-name="w" unicode="w" horiz-adv-x="861" d="M908 522L613 0h-48l-95 454L210 0h-48L58 522h46l91-466 265 466h43l94-465 262 465h49z"/><glyph glyph-name="x" unicode="x" horiz-adv-x="519" d="M288 266L443 0h-54L255 233 30 0h-60l263 270L87 522h53l126-218 211 218h59z"/><glyph glyph-name="y" unicode="y" horiz-adv-x="528" d="M577 522L187-76.999c-29.333-45.333-57.166-76.833-83.499-94.5s-57.5-26.5-93.5-26.5c-24 0-46.667 4-68 12s-38 19.333-50 34l29 37c23.333-26 54.666-39 93.999-39 24 0 45.833 6.667 65.5 20S121-97.333 143-64l44 66L55 522h51L223 55l302 467h52z"/><glyph glyph-name="z" unicode="z" horiz-adv-x="503" d="M498 488L68 43h347l-9-43H-9l7 34 429 445H93l8 43h404z"/><glyph glyph-name="braceleft" unicode="{" horiz-adv-x="320" d="M393 742l-9.001-43.001h-28c-50.667 0-81-24.333-91-73l-56-278c-4.667-22.667-11.334-39.667-20.001-51s-20.667-19.333-36-24c19.333-8.667 29-24.667 29-48 0-7.333-1-15.666-3-24.999l-52-261c-2-11.333-3-21.333-3-30 0-20 5.5-35 16.5-45s25.833-15 44.5-15h30l-9-43h-32c-31.333 0-56.166 8-74.499 24s-27.5 39-27.5 69c0 12.667 1.333 24.667 4 36l53 266c1.333 9.333 2 15.333 2 18 0 22.667-12 34-36 34h-35l9 43h35c15.333 0 27.333 4 36 12s14.667 21 18 39l57 283c7.333 38 22.833 66.167 46.5 84.5S318.333 742 361 742h32z"/><glyph glyph-name="bar" unicode="|" horiz-adv-x="291" d="M218 742h47L78-194H31z"/><glyph glyph-name="braceright" unicode="}" horiz-adv-x="320" d="M265 295l-9-42.999h-34c-16 0-28.333-4-37-12s-14.667-21-18-39l-57-283c-7.333-38-22.666-66.167-45.999-84.5s-56.333-27.5-99-27.5h-33l9 43h29c50.667 0 81 24.333 91 73l56 278c4.667 23.333 11.167 40.5 19.5 51.5s20.166 18.833 35.499 23.5c-19.333 8.667-29 25-29 49 0 7.333 1 15.333 3 24l53 261c2 11.333 3 21 3 29 0 20.667-5.5 36-16.5 46s-26.167 15-45.5 15h-29l8 43h33c31.333 0 56-7.833 74-23.5s27-38.834 27-69.501c0-12.667-1.333-24.667-4-36l-53-266c-1.333-8-2-13.667-2-17 0-23.333 12-35 36-35h35z"/><glyph glyph-name="asciitilde" unicode="~" horiz-adv-x="569" d="M338.5 293c-15.667 10-32.499 24.332-50.499 42.999-15.333 16-28.666 27.833-39.999 35.5s-24.666 11.5-39.999 11.5c-25.333 0-47-9.167-65-27.5s-30.333-42.833-37-73.5h-37c8.667 44.667 25.5 79.334 50.5 104.001s54.5 37 88.5 37c23.333 0 42.833-5 58.5-15s32.167-24.333 49.5-43c15.333-16 28.666-27.833 39.999-35.5s24.666-11.5 39.999-11.5c25.333 0 47 9 65 27s30.667 42.333 38 73h36c-8.667-44.667-25.334-79.167-50.001-103.5S431 278 397 278c-23.333 0-42.833 5-58.5 15z"/><glyph glyph-name="uni00A0" horiz-adv-x="257"/><glyph glyph-name="exclamdown" unicode="¡" horiz-adv-x="252" d="M141 455.5c-8 7.667-12.001 16.832-12.001 27.499 0 12 4.167 22.167 12.5 30.5s18.5 12.5 30.5 12.5c11.333 0 20.833-3.833 28.5-11.5s11.5-17.167 11.5-28.5-4.167-21.166-12.5-29.499S181.333 444 170 444s-21 3.833-29 11.5zm-22.001-134.502h38l-85-475h-58z"/><glyph glyph-name="cent" unicode="¢" horiz-adv-x="555" d="M369 480L281 40.999h3c34.667 0 67.167 6.667 97.5 20s55.5 32 75.5 56l35-28c-22.667-29.333-52.834-52.166-90.501-68.499S323.332-4 279.999-4h-8l-23-116h-37l24 119c-59.333 8-106 31-140 69s-51 86.333-51 145c0 59.333 12.667 112.666 38 159.999s60.5 84.5 105.5 111.5 95.833 40.833 152.5 41.5l23 116h37l-23-117c76.667-7.333 131.667-39.666 165-96.999l-41-25c-27.333 45.333-71.666 71-132.999 77zM133.5 97.499c25.667-29.667 62.833-47.834 111.5-54.501l87 438c-45.333-1.333-86-13.666-122-36.999s-64.167-54.833-84.5-94.5S95 265.332 95 215.999s12.833-88.833 38.5-118.5z"/><glyph glyph-name="sterling" unicode="£" horiz-adv-x="629" d="M320 610.5c-41.333-31.667-68.668-80.833-82.001-147.5l-19-95h285l-7-36h-285l-58-286h403l-9-46h-570l9 46h116l57 286h-117l8 36h116l20 101c15.333 78.667 49.5 137.667 102.5 177s119.5 59 199.5 59c42 0 79.833-4.833 113.5-14.5s61.5-24.167 83.5-43.5l-26-41c-40 34.667-98 52-174 52-69.333 0-124.666-15.833-165.999-47.5z"/><glyph glyph-name="currency" unicode="¤" horiz-adv-x="700" d="M620.5 221.5c-12.333-30.333-29.498-57.499-51.498-81.499l106-105-31-32-108 107c-24.667-18.667-52-33.334-82-44.001s-61-16-93-16c-32.667 0-63.834 5.333-93.501 16S210.667 91.667 186 111L77 3 47 35l106 106c-22 24-39 51.167-51 81.5S84 284.333 84 317c0 33.333 6 65.166 18 95.499s29 57.5 51 81.5l-106 106 30 32 108-107c24.667 20 52 35.333 82 46s61.333 16 94 16 64-5.333 94-16 57.333-25.667 82-45l107 106 31-32-106-105c22-24 39.167-51.333 51.5-82s18.5-62.667 18.5-96-6.167-65.166-18.5-95.499zm-461.998-16.499c21-34 49.5-61.166 85.5-81.499s75-30.5 117-30.5 81.167 10.167 117.5 30.5 65.166 47.666 86.499 81.999 32 71.5 32 111.5c0 40.667-10.667 78.5-32 113.5s-50.166 62.667-86.499 83-75.5 30.5-117.5 30.5-81-10.167-117-30.5-64.5-48-85.5-83-31.5-72.833-31.5-113.5 10.5-78 31.5-112z"/><glyph glyph-name="yen" unicode="¥" horiz-adv-x="685" d="M401 313h206l-7-34H372l-21-104h228l-7-34H344L316 0h-52l28 141H64l7 34h228l21 104H92l7 34h211L92 700h54l209-375 357 375h56z"/><glyph glyph-name="brokenbar" unicode="¦" horiz-adv-x="291" d="M218 742h47l-70-350h-47zM101 156h47L78-194H31z"/><glyph glyph-name="section" unicode="§" horiz-adv-x="482" d="M249.5 646c-27-10.667-47.499-24.998-61.499-42.998s-21-38-21-60c0-20.667 5.667-37.334 17-50.001s25.333-22.334 42-29.001 40-14.334 70-23.001c33.333-8.667 60.5-17.5 81.5-26.5s38.667-22.5 53-40.5 21.5-41.667 21.5-71c0-34.667-10.833-65-32.5-91s-50.834-45-87.501-57c32-22 48-53.333 48-94 0-32-9.333-60.5-28-85.5s-45-44.5-79-58.5-73.333-21-118-21c-38 0-73 6-105 18s-58.333 28.333-79 49l25 38c44-42 99-63 165-63 53.333 0 95.5 11.167 126.5 33.5S334 22.665 334 57.998c0 20-5.833 36.333-17.5 49s-26.167 22.667-43.5 30-40.333 15-69 23c-33.333 10-60.5 19.5-81.5 28.5s-38.667 22.333-53 40S48 269.332 48 297.999c0 32.667 10.833 62.334 32.5 89.001s51.167 46 88.5 58c-32 22-48 53.667-48 95 0 31.333 9.5 59.5 28.5 84.5s45.667 44.5 80 58.5S303 704 347 704c34.667 0 68.334-4.667 101.001-14s58.334-22 77.001-38l-24-37c-18.667 15.333-41.834 27-69.501 35S374.667 662 344 662c-36 0-67.5-5.333-94.5-16zm140.001-295.498c-11.667 13-26.169 23.001-43.502 30.001s-40.666 14.833-69.999 23.5c-24 6-44.667 12.333-62 19-37.333-8.667-66.666-24-87.999-46s-32-47-32-75c0-20 5.833-36.5 17.5-49.5s26-23.167 43-30.5 40.167-15.333 69.5-24c30.667-8.667 51.667-15.334 63-20.001 38 8 67.5 22.667 88.5 44s31.5 47 31.5 77c0 21.333-5.833 38.5-17.5 51.5z"/><glyph glyph-name="dieresis" unicode="¨" horiz-adv-x="600" d="M269 643.5c-6.667 6.333-10 14.166-10 23.499 0 10.667 3.667 19.834 11 27.501s16.333 11.5 27 11.5c9.333 0 17.333-3.167 24-9.5s10-14.166 10-23.499c0-10.667-3.667-19.834-11-27.501S303.667 634 293 634c-9.333 0-17.333 3.167-24 9.5zm173 0c-6.667 6.333-10 14.166-10 23.499 0 10.667 3.667 19.834 11 27.501s16 11.5 26 11.5c9.333 0 17.5-3.167 24.5-9.5s10.5-14.166 10.5-23.499c0-10.667-3.833-19.834-11.5-27.501S476 634 466 634c-9.333 0-17.333 3.167-24 9.5z"/><glyph glyph-name="copyright" unicode="©" horiz-adv-x="815" d="M245.5 44c-53.667 31.333-96.001 73.999-127.001 127.999s-46.5 113.333-46.5 178 15.5 124 46.5 178 73.5 96.667 127.5 128 114 47 180 47 125.833-15.333 179.5-46S701.333 584.165 732 530.498s46-113.167 46-178.5-15.667-125.166-47-179.499S657 75.333 603 44 489.333-3 424-3 299.167 12.667 245.5 44zm342.499 25.499c49.333 29 88.335 68.335 117.002 118.002s43 104.5 43 164.5-14 114.5-42 163.5-66.5 87.667-115.5 116-103.833 42.5-164.5 42.5c-60 0-114.833-14.333-164.5-43s-88.667-67.834-117-117.501-42.5-104.167-42.5-163.5 14.167-113.833 42.5-163.5S211.667 97.666 261 68.999s103.666-43 162.999-43c60 0 114.667 14.5 164 43.5zm-260.998 98.002c-31.333 17.667-56 42.33-74 73.997s-27 67.834-27 108.501 9 76.834 27 108.501 42.667 56.334 74 74.001 66.666 26.5 105.999 26.5c32.667 0 62.5-6.333 89.5-19s49.167-30.667 66.5-54l-32-25c-14 20-31.833 35-53.5 45s-45.5 15-71.5 15c-31.333 0-59.333-7.167-84-21.5s-44.167-34.5-58.5-60.5-21.5-55.667-21.5-89 7.167-63 21.5-89 33.833-46.167 58.5-60.5 52.667-21.5 84-21.5c26 0 49.833 5 71.5 15s39.5 25 53.5 45l32-24c-17.333-24-39.5-42.333-66.5-55s-56.833-19-89.5-19c-39.333 0-74.666 8.833-105.999 26.5z"/><glyph glyph-name="ordfeminine" unicode="ª" horiz-adv-x="398" d="M367 721.5c20.667-15.667 30.998-38.833 30.998-69.5 0-8.667-1-18.667-3-30l-38-190h-38l10 50c-30-35.333-71.667-53-125-53-34 0-60.667 7-80 21s-29 32.667-29 56c0 31.333 12.167 55.666 36.5 72.999s57.5 26 99.5 26h121l4 20c2 9.333 3 17.333 3 24 0 21.333-7.5 37.333-22.5 48s-36.167 16-63.5 16c-21.333 0-42.666-3.333-63.999-10s-39.666-16-54.999-28l-14 28c17.333 12.667 38.333 22.834 63 30.501s50 11.5 76 11.5c38 0 67.333-7.833 88-23.5zm-33.002-203.499l13 61h-117c-30.667 0-54.5-6-71.5-18s-25.5-29-25.5-51c0-34.667 26.333-52 79-52 51.333 0 92 20 122 60z"/><glyph glyph-name="guillemotleft" unicode="«" horiz-adv-x="455" d="M104 260L209 74h-48L53 261l183 188h51zm167 0L376 74h-48L220 261l183 188h51z"/><glyph glyph-name="logicalnot" unicode="¬" horiz-adv-x="569" d="M475 149h-45l36 180H85l9 42h425z"/><glyph glyph-name="uni00AD" unicode="­" horiz-adv-x="381" d="M68 291h257l-9-45H59z"/><glyph glyph-name="registered" unicode="®" horiz-adv-x="815" d="M605.5 657c53.667-30.667 95.833-72.835 126.5-126.502s46-113.167 46-178.5-15.667-125.166-47-179.499S657 75.333 603 44 489.333-3 424-3 299.167 12.667 245.5 44s-96 74-127 128S72 285.333 72 350s15.5 124 46.5 178S192 624.667 246 656s114 47 180 47 125.833-15.333 179.5-46zM587.999 69.499c49.333 29 88.335 68.335 117.002 118.002s43 104.5 43 164.5-14 114.5-42 163.5-66.5 87.667-115.5 116-103.833 42.5-164.5 42.5c-60 0-114.833-14.333-164.5-43s-88.667-67.834-117-117.501-42.5-104.167-42.5-163.5 14.167-113.833 42.5-163.5S211.667 97.666 261 68.999s103.666-43 162.999-43c60 0 114.667 14.5 164 43.5zm-10.998 271.502c-16.667-22-40-37.667-70-47l97-149h-41l-92 142c-5.333-.667-14-1-26-1h-115v-141h-39v410h154c48 0 86.167-12.167 114.5-36.5s42.5-56.833 42.5-97.5c0-31.333-8.333-58-25-80zm-45 5.5c21.333 17.667 32 42.5 32 74.5 0 31.333-10.667 55.833-32 73.5s-51.333 26.5-90 26.5h-113v-201h113c38.667 0 68.667 8.833 90 26.5z"/><glyph glyph-name="macron" unicode="¯" horiz-adv-x="600" d="M237 684h294l-7-36H230z"/><glyph glyph-name="degree" unicode="°" horiz-adv-x="419" d="M189.5 415c-23.667 14-42.5 32.833-56.5 56.5S112 521 112 549c0 28.667 7 54.834 21 78.501s32.833 42.334 56.5 56.001 49.834 20.5 78.501 20.5c28 0 54-6.833 78-20.5s42.833-32.334 56.5-56.001 20.5-49.834 20.5-78.501c0-28-7-53.833-21-77.5s-32.833-42.5-56.5-56.5-49.5-21-77.5-21c-28.667 0-54.834 7-78.501 21zm165 47c23.667 24 35.5 53.001 35.5 87.001 0 34.667-11.667 63.834-35 87.501s-52.333 35.5-87 35.5-63.667-11.833-87-35.5-35-52.834-35-87.501 11.667-63.834 35-87.501 52.333-35.5 87-35.5c34 0 62.833 12 86.5 36z"/><glyph glyph-name="plusminus" unicode="±" horiz-adv-x="569" d="M523 390l-9-43H324l-37-183h-45l37 183H89l8 43h190l37 184h45l-37-184h191zM28 43h425l-9-43H20z"/><glyph glyph-name="uni00B2" unicode="²" horiz-adv-x="430" d="M133 361l259 .001-7-34H62l5 26 225 165c37.333 27.333 62.5 49.666 75.5 66.999s19.5 35.666 19.5 54.999c0 22.667-9.167 40.167-27.5 52.5s-44.5 18.5-78.5 18.5c-56.667 0-102.667-16-138-48l-24 24c19.333 18.667 43.166 33 71.499 43s59.833 15 94.5 15c44.667 0 79.334-9.167 104.001-27.5s37-43.166 37-74.499c0-24-7.333-46.667-22-68s-43-47.333-85-78z"/><glyph glyph-name="uni00B3" unicode="³" horiz-adv-x="430" d="M441 716L275.999 563.002c42-.667 74.333-10.334 97-29.001s34-43.667 34-75c0-42-16.667-75-50-99s-78.333-36-135-36c-35.333 0-67.5 5.167-96.5 15.5s-50.833 23.5-65.5 39.5l21 29c14.667-15.333 34.334-27.5 59.001-36.5s53-13.5 85-13.5c44.667 0 79.667 8.667 105 26s38 41.666 38 72.999c0 24-9 42.5-27 55.5S296.667 532 262 532h-43l5 27 160 149H132l7 34h307z"/><glyph glyph-name="acute" unicode="´" horiz-adv-x="600" d="M462 725h75L367 607h-57z"/><glyph glyph-name="uni00B5" unicode="µ" horiz-adv-x="675" d="M621 522L516.999 0h-48l20 99c-24.667-34.667-54.667-60.5-90-77.5s-74-25.5-116-25.5C199.666-4 145.333 24.333 120 81L65-194H15l143 716h50l-60-302c-3.333-14.667-5-31.334-5-50.001 0-41.333 12.167-73.166 36.5-95.499S239.666 41 286.999 41c60 0 109.833 16.833 149.5 50.5S502.333 174 515 238l56 284h50z"/><glyph glyph-name="paragraph" unicode="¶" horiz-adv-x="619" d="M254 405c-50.667.667-91.833 13.667-123.5 39S83 504.333 83 549c0 62.667 22.333 110.5 67 143.5S254 742 328 742h265L425-100h-44l160 801H356L197-100h-44z"/><glyph glyph-name="periodcentered" unicode="·" horiz-adv-x="240" d="M91 237c-8 8-12 17.667-12 29 0 12.667 4.167 23.334 12.5 32.001s18.5 13 30.5 13c11.333 0 21-4 29-12s12-17.667 12-29c0-12.667-4.167-23.334-12.5-32.001S132 225 120 225c-11.333 0-21 4-29 12z"/><glyph glyph-name="cedilla" unicode="¸" horiz-adv-x="600" d="M111-192l19 27.999c18-14 40-21 66-21 22 0 39.5 5.5 52.5 16.5s19.5 25.5 19.5 43.5c0 14-5 24.833-15 32.5s-24.333 11.5-43 11.5h-19l41 87h33l-27-59c22-2.667 39.167-10.167 51.5-22.5S308-103.667 308-123c0-27.333-10.667-49.833-32-67.5S227-217 193-217s-61.333 8.333-82 25z"/><glyph glyph-name="uni00B9" unicode="¹" horiz-adv-x="430" d="M385 360l-7-33H99l6 33h127l70 349H183l6 33h159l-76-382h113z"/><glyph glyph-name="ordmasculine" unicode="º" horiz-adv-x="412" d="M141 466.5c-27.333 25-41.001 57.834-41.001 98.501 0 33.333 8.333 63.833 25 91.5s39.667 49.334 69 65.001 62.333 23.5 99 23.5c44.667 0 80.5-12.333 107.5-37s40.5-57.334 40.5-98.001c0-34-8.167-64.833-24.5-92.5S377.333 468.167 348 452.5 285.667 429 249 429c-44.667 0-80.667 12.5-108 37.5zm189.499 16.001c23 13 40.833 30.5 53.5 52.5s19 46.667 19 74c0 30.667-10.5 55.5-31.5 74.5s-48.167 28.5-81.5 28.5c-29.333 0-55.5-6.5-78.5-19.5s-41-30.667-54-53-19.5-46.833-19.5-73.5c0-31.333 10.5-56.333 31.5-75s48.833-28 83.5-28c28.667 0 54.5 6.5 77.5 19.5z"/><glyph glyph-name="guillemotright" unicode="»" horiz-adv-x="455" d="M235 261L52 74H2l182 190L80 449h47zm167 0L219 74h-50l182 190-104 185h47z"/><glyph glyph-name="onequarter" unicode="¼" horiz-adv-x="1025" d="M377 318l-7-33H91l6 33h127l70 349H175l6 33h159l-76-382h113zm437 382h47L247 0h-47zm149-588h-94L847 0h-39l23 112H595l6 27 263 276h47L653 145h187l19 97h36l-19-97h94z"/><glyph glyph-name="onehalf" unicode="½" horiz-adv-x="1025" d="M377 318l-7-33H91l6 33h127l70 349H175l6 33h159l-76-382h113zm437 382h47L247 0h-47zM663 34l259 .001-7-34H592l5 26 225 165c37.333 27.333 62.5 49.666 75.5 66.999s19.5 35.666 19.5 54.999c0 22.667-9.167 40.167-27.5 52.5s-44.5 18.5-78.5 18.5c-56.667 0-102.667-16-138-48l-24 24c19.333 18.667 43.166 33 71.499 43s59.833 15 94.5 15c44.667 0 79.334-9.167 104.001-27.5s37-43.166 37-74.499c0-24-7.333-46.667-22-68s-43-47.333-85-78z"/><glyph glyph-name="threequarters" unicode="¾" horiz-adv-x="1025" d="M433 674L267.999 521.002c42-.667 74.333-10.334 97-29.001s34-43.667 34-75c0-42-16.667-75-50-99s-78.333-36-135-36c-35.333 0-67.5 5.167-96.5 15.5s-50.833 23.5-65.5 39.5l21 29c14.667-15.333 34.334-27.5 59.001-36.5s53-13.5 85-13.5c44.667 0 79.667 8.667 105 26s38 41.666 38 72.999c0 24-9 42.5-27 55.5S288.667 490 254 490h-43l5 27 160 149H124l7 34h307zm380.999 26.002h47l-614-700h-47zm149-588h-94l-22-112h-39l23 112h-236l6 27 263 276h47l-258-270h187l19 97h36l-19-97h94z"/><glyph glyph-name="questiondown" unicode="¿" horiz-adv-x="562" d="M310.5 455.5c-7.667 7.667-11.5 16.834-11.5 27.501 0 12 4.167 22.167 12.5 30.5s18.166 12.5 29.499 12.5 20.833-3.833 28.5-11.5 11.5-16.834 11.5-27.501c0-12-4.167-22.167-12.5-30.5S350.333 444 339 444s-20.833 3.833-28.5 11.5zM83.5-119C48.5-92.333 31.003-55.668 31.003-9.001c0 30.667 6 57.334 18 80.001s26.667 41.667 44 57 40.333 33.333 69 54c34.667 24 61.667 46 81 66s32 44.333 38 73h52c-6.667-36-20.834-65.5-42.501-88.5S238.668 184.667 200 158c-26.667-18-47.834-33.833-63.501-47.5s-28.667-30-39-49S82 20.667 82-4c0-34 13.333-60.833 40-80.5S186.334-114 235-114c46.668 0 87.5 6.833 122.5 20.5S423.335-59 450-31l33-32c-60.666-64-145.333-96-254-96-62 0-110.5 13.333-145.5 40z"/><glyph glyph-name="Agrave" unicode="À" horiz-adv-x="705" d="M546 197H139L10 0h-57l462 700h51L648 0h-52zm-11 43L432 646 167 240h368zM320 875h72l116-118h-54z"/><glyph glyph-name="Aacute" unicode="Á" horiz-adv-x="705" d="M546 197H139L10 0h-57l462 700h51L648 0h-52zm-11 43L432 646 167 240h368zm9 635h75L449 757h-57z"/><glyph glyph-name="Acircumflex" unicode="Â" horiz-adv-x="705" d="M546 197H139L10 0h-57l462 700h51L648 0h-52zm-11 43L432 646 167 240h368zm22 517l-95 87-113-87h-52l140 118h55l113-118h-48z"/><glyph glyph-name="Atilde" unicode="Ã" horiz-adv-x="705" d="M546 197H139L10 0h-57l462 700h51L648 0h-52zm-11 43L432 646 167 240h368zm-45.5 534.5c-10.333 6.333-22.502 15.832-36.502 28.499-10.667 10-20.167 17.667-28.5 23s-17.166 8-26.499 8c-14.667 0-27.167-5.833-37.5-17.5s-17.166-27.5-20.499-47.5h-33c4.667 30.667 15.167 55 31.5 73s36.5 27 60.5 27c14 0 26.167-3.167 36.5-9.5s22.5-15.833 36.5-28.5c10.667-10 20.167-17.667 28.5-23s17.166-8 26.499-8c14.667 0 27.334 5.833 38.001 17.5s17.667 26.834 21 45.501h33c-5.333-30-16-53.833-32-71.5S551 765 527 765c-14.667 0-27.167 3.167-37.5 9.5z"/><glyph glyph-name="Adieresis" unicode="Ä" horiz-adv-x="705" d="M546 197H139L10 0h-57l462 700h51L648 0h-52zm-11 43L432 646 167 240h368zM351 793.5c-6.667 6.333-10 14.166-10 23.499 0 10.667 3.667 19.834 11 27.501s16.333 11.5 27 11.5c9.333 0 17.333-3.167 24-9.5s10-14.166 10-23.499c0-10.667-3.667-19.834-11-27.501S385.667 784 375 784c-9.333 0-17.333 3.167-24 9.5zm173 0c-6.667 6.333-10 14.166-10 23.499 0 10.667 3.667 19.834 11 27.501s16 11.5 26 11.5c9.333 0 17.5-3.167 24.5-9.5s10.5-14.166 10.5-23.499c0-10.667-3.833-19.834-11.5-27.501S558 784 548 784c-9.333 0-17.333 3.167-24 9.5z"/><glyph glyph-name="Aring" unicode="Å" horiz-adv-x="705" d="M546 197H139L10 0h-57l462 700h51L648 0h-52zm-11 43L432 646 167 240h368zM403.5 802.5c-19 19-28.5 41.833-28.5 68.5 0 27.333 9.5 50.833 28.5 70.5S446 971 474 971s51.667-9.833 71-29.5 29-43.167 29-70.5c0-26.667-9.5-49.5-28.5-68.5S502.667 774 474 774c-28 0-51.5 9.5-70.5 28.5zM525 822c13.333 13.333 20 29.667 20 49 0 20-6.833 36.833-20.5 50.5S494 942 474 942s-36.5-6.833-49.5-20.5S405 891 405 871s6.5-36.5 19.5-49.5S454 802 474 802c20.667 0 37.667 6.667 51 20z"/><glyph glyph-name="AE" unicode="Æ" horiz-adv-x="1022" d="M605 654l-55-276h372l-9-45H541L483 46h432L905 0H423l39 197H172L12 0h-60l571 700h508l-10-46H605zM471 240l83 415h-9L207 240h264z"/><glyph glyph-name="Ccedilla" unicode="Ç" horiz-adv-x="716" d="M214.5 31c-48.333 24-84.999 57.672-109.999 101.005s-37.5 93.666-37.5 150.999c0 76 17.333 146.333 52 211s84 116 148 154 138.667 57 224 57c54 0 102.167-8.333 144.5-25S710.667 639.67 734 609.003l-36-33c-46.667 54.667-117 82-211 82-73.333 0-138-16.833-194-50.5s-99.167-78.834-129.5-135.501-45.5-119-45.5-187c0-74.667 23.667-133.834 71-177.501s115.333-65.5 204-65.5c96 0 173 28 231 84l31-35C624.333 60.334 585.833 36.667 539.5 20S443-5 389-5C321-5 262.833 7 214.5 31zm11.501-222.995l19 27.999c18-14 40-21 66-21 22 0 39.5 5.5 52.5 16.5s19.5 25.5 19.5 43.5c0 14-5 24.833-15 32.5s-24.333 11.5-43 11.5h-19l41 87h33l-27-59c22-2.667 39.167-10.167 51.5-22.5s18.5-28.166 18.5-47.499c0-27.333-10.667-49.833-32-67.5s-49-26.5-83-26.5-61.333 8.333-82 25z"/><glyph glyph-name="Egrave" unicode="È" horiz-adv-x="669" d="M252 654l-55-276h372l-9-45H188L130 46h432L552 0H70l140 700h468l-10-46H252zm72 221h72l116-118h-54z"/><glyph glyph-name="Eacute" unicode="É" horiz-adv-x="669" d="M252 654l-55-276h372l-9-45H188L130 46h432L552 0H70l140 700h468l-10-46H252zm296 221h75L453 757h-57z"/><glyph glyph-name="Ecircumflex" unicode="Ê" horiz-adv-x="669" d="M252 654l-55-276h372l-9-45H188L130 46h432L552 0H70l140 700h468l-10-46H252zm309 103l-95 87-113-87h-52l140 118h55l113-118h-48z"/><glyph glyph-name="Edieresis" unicode="Ë" horiz-adv-x="669" d="M252 654l-55-276h372l-9-45H188L130 46h432L552 0H70l140 700h468l-10-46H252zm103 139.5c-6.667 6.333-10 14.166-10 23.499 0 10.667 3.667 19.834 11 27.501s16.333 11.5 27 11.5c9.333 0 17.333-3.167 24-9.5s10-14.166 10-23.499c0-10.667-3.667-19.834-11-27.501S389.667 784 379 784c-9.333 0-17.333 3.167-24 9.5zm173 0c-6.667 6.333-10 14.166-10 23.499 0 10.667 3.667 19.834 11 27.501s16 11.5 26 11.5c9.333 0 17.5-3.167 24.5-9.5s10.5-14.166 10.5-23.499c0-10.667-3.833-19.834-11.5-27.501S562 784 552 784c-9.333 0-17.333 3.167-24 9.5z"/><glyph glyph-name="Igrave" unicode="Ì" horiz-adv-x="295" d="M210 700h51L121 0H70zm-95 175h72l116-118h-54z"/><glyph glyph-name="Iacute" unicode="Í" horiz-adv-x="295" d="M210 700h51L121 0H70zm129 175h75L244 757h-57z"/><glyph glyph-name="Icircumflex" unicode="Î" horiz-adv-x="295" d="M210 700h51L121 0H70zm142 57l-95 87-113-87H92l140 118h55l113-118h-48z"/><glyph glyph-name="Idieresis" unicode="Ï" horiz-adv-x="295" d="M210 700h51L121 0H70zm-64 93.5c-6.667 6.333-10 14.166-10 23.499 0 10.667 3.667 19.834 11 27.501s16.333 11.5 27 11.5c9.333 0 17.333-3.167 24-9.5s10-14.166 10-23.499c0-10.667-3.667-19.834-11-27.501S180.667 784 170 784c-9.333 0-17.333 3.167-24 9.5zm173 0c-6.667 6.333-10 14.166-10 23.499 0 10.667 3.667 19.834 11 27.501s16 11.5 26 11.5c9.333 0 17.5-3.167 24.5-9.5s10.5-14.166 10.5-23.499c0-10.667-3.833-19.834-11.5-27.501S353 784 343 784c-9.333 0-17.333 3.167-24 9.5z"/><glyph glyph-name="Eth" unicode="Ð" horiz-adv-x="829" d="M213 700h260c68.667 0 127.5-11.667 176.5-35s86.167-56.333 111.5-99 38-92.334 38-149.001c0-80.667-18-152.667-54-216S658 88.333 592 53 449.667 0 363 0H73zM366 46c76.667 0 143.833 15.667 201.5 47s102 75 133 131S747 343.667 747 415c0 74-23.667 132.333-71 175s-117 64-209 64H255L133 46h233zM38.999 377h376l-9-43h-376z"/><glyph glyph-name="Ntilde" unicode="Ñ" horiz-adv-x="814" d="M780 700L640 0h-43L244 616 121 0H70l140 700h42L606 84l123 616h51zm-235.5 74.5c-10.333 6.333-22.502 15.832-36.502 28.499-10.667 10-20.167 17.667-28.5 23s-17.166 8-26.499 8c-14.667 0-27.167-5.833-37.5-17.5s-17.166-27.5-20.499-47.5h-33c4.667 30.667 15.167 55 31.5 73s36.5 27 60.5 27c14 0 26.167-3.167 36.5-9.5s22.5-15.833 36.5-28.5c10.667-10 20.167-17.667 28.5-23s17.166-8 26.499-8c14.667 0 27.334 5.833 38.001 17.5s17.667 26.834 21 45.501h33c-5.333-30-16-53.833-32-71.5S606 765 582 765c-14.667 0-27.167 3.167-37.5 9.5z"/><glyph glyph-name="Ograve" unicode="Ò" horiz-adv-x="838" d="M214 31c-48 24-84.498 57.667-109.498 101s-37.5 93.666-37.5 150.999c0 76 17.167 146.167 51.5 210.5s83.333 115.666 147 153.999 137.167 57.5 220.5 57.5c67.333 0 125.166-12 173.499-36s85-57.667 110-101 37.5-93.666 37.5-150.999c0-76-17.333-146.167-52-210.5S671.167 90.833 607.5 52.5 470.333-5 387-5C319.667-5 262 7 214 31zm368.002 61.5c55.333 33.667 97.999 78.999 127.999 135.999s45 119.167 45 186.5c0 74.667-23.5 133.834-70.5 177.501s-114.5 65.5-202.5 65.5c-71.333 0-134.666-16.833-189.999-50.5s-98.166-79-128.499-136-45.5-119.167-45.5-186.5c0-74 23.667-133 71-177s115-66 203-66c71.333 0 134.666 16.833 189.999 50.5zM386.001 874.999h72l116-118h-54z"/><glyph glyph-name="Oacute" unicode="Ó" horiz-adv-x="838" d="M214 31c-48 24-84.498 57.667-109.498 101s-37.5 93.666-37.5 150.999c0 76 17.167 146.167 51.5 210.5s83.333 115.666 147 153.999 137.167 57.5 220.5 57.5c67.333 0 125.166-12 173.499-36s85-57.667 110-101 37.5-93.666 37.5-150.999c0-76-17.333-146.167-52-210.5S671.167 90.833 607.5 52.5 470.333-5 387-5C319.667-5 262 7 214 31zm368.002 61.5c55.333 33.667 97.999 78.999 127.999 135.999s45 119.167 45 186.5c0 74.667-23.5 133.834-70.5 177.501s-114.5 65.5-202.5 65.5c-71.333 0-134.666-16.833-189.999-50.5s-98.166-79-128.499-136-45.5-119.167-45.5-186.5c0-74 23.667-133 71-177s115-66 203-66c71.333 0 134.666 16.833 189.999 50.5zm27.999 782.499h75l-170-118h-57z"/><glyph glyph-name="Ocircumflex" unicode="Ô" horiz-adv-x="838" d="M214 31c-48 24-84.498 57.667-109.498 101s-37.5 93.666-37.5 150.999c0 76 17.167 146.167 51.5 210.5s83.333 115.666 147 153.999 137.167 57.5 220.5 57.5c67.333 0 125.166-12 173.499-36s85-57.667 110-101 37.5-93.666 37.5-150.999c0-76-17.333-146.167-52-210.5S671.167 90.833 607.5 52.5 470.333-5 387-5C319.667-5 262 7 214 31zm368.002 61.5c55.333 33.667 97.999 78.999 127.999 135.999s45 119.167 45 186.5c0 74.667-23.5 133.834-70.5 177.501s-114.5 65.5-202.5 65.5c-71.333 0-134.666-16.833-189.999-50.5s-98.166-79-128.499-136-45.5-119.167-45.5-186.5c0-74 23.667-133 71-177s115-66 203-66c71.333 0 134.666 16.833 189.999 50.5zm40.999 664.499l-95 87-113-87h-52l140 118h55l113-118h-48z"/><glyph glyph-name="Otilde" unicode="Õ" horiz-adv-x="838" d="M214 31c-48 24-84.498 57.667-109.498 101s-37.5 93.666-37.5 150.999c0 76 17.167 146.167 51.5 210.5s83.333 115.666 147 153.999 137.167 57.5 220.5 57.5c67.333 0 125.166-12 173.499-36s85-57.667 110-101 37.5-93.666 37.5-150.999c0-76-17.333-146.167-52-210.5S671.167 90.833 607.5 52.5 470.333-5 387-5C319.667-5 262 7 214 31zm368.002 61.5c55.333 33.667 97.999 78.999 127.999 135.999s45 119.167 45 186.5c0 74.667-23.5 133.834-70.5 177.501s-114.5 65.5-202.5 65.5c-71.333 0-134.666-16.833-189.999-50.5s-98.166-79-128.499-136-45.5-119.167-45.5-186.5c0-74 23.667-133 71-177s115-66 203-66c71.333 0 134.666 16.833 189.999 50.5zm-26.501 681.999c-10.333 6.333-22.502 15.832-36.502 28.499-10.667 10-20.167 17.667-28.5 23s-17.166 8-26.499 8c-14.667 0-27.167-5.833-37.5-17.5s-17.166-27.5-20.499-47.5h-33c4.667 30.667 15.167 55 31.5 73s36.5 27 60.5 27c14 0 26.167-3.167 36.5-9.5s22.5-15.833 36.5-28.5c10.667-10 20.167-17.667 28.5-23s17.166-8 26.499-8c14.667 0 27.334 5.833 38.001 17.5s17.667 26.834 21 45.501h33c-5.333-30-16-53.833-32-71.5s-36-26.5-60-26.5c-14.667 0-27.167 3.167-37.5 9.5z"/><glyph glyph-name="Odieresis" unicode="Ö" horiz-adv-x="838" d="M214 31c-48 24-84.498 57.667-109.498 101s-37.5 93.666-37.5 150.999c0 76 17.167 146.167 51.5 210.5s83.333 115.666 147 153.999 137.167 57.5 220.5 57.5c67.333 0 125.166-12 173.499-36s85-57.667 110-101 37.5-93.666 37.5-150.999c0-76-17.333-146.167-52-210.5S671.167 90.833 607.5 52.5 470.333-5 387-5C319.667-5 262 7 214 31zm368.002 61.5c55.333 33.667 97.999 78.999 127.999 135.999s45 119.167 45 186.5c0 74.667-23.5 133.834-70.5 177.501s-114.5 65.5-202.5 65.5c-71.333 0-134.666-16.833-189.999-50.5s-98.166-79-128.499-136-45.5-119.167-45.5-186.5c0-74 23.667-133 71-177s115-66 203-66c71.333 0 134.666 16.833 189.999 50.5zM417.001 793.499c-6.667 6.333-10 14.166-10 23.499 0 10.667 3.667 19.834 11 27.501s16.333 11.5 27 11.5c9.333 0 17.333-3.167 24-9.5s10-14.166 10-23.499c0-10.667-3.667-19.834-11-27.501s-16.333-11.5-27-11.5c-9.333 0-17.333 3.167-24 9.5zm173 0c-6.667 6.333-10 14.166-10 23.499 0 10.667 3.667 19.834 11 27.501s16 11.5 26 11.5c9.333 0 17.5-3.167 24.5-9.5s10.5-14.166 10.5-23.499c0-10.667-3.833-19.834-11.5-27.501s-16.5-11.5-26.5-11.5c-9.333 0-17.333 3.167-24 9.5z"/><glyph glyph-name="multiply" unicode="×" horiz-adv-x="569" d="M331 348l117-135-31-29-117 136-149-136-27 32 149 136-117 135 31 29 117-136 149 136 27-32z"/><glyph glyph-name="Oslash" unicode="Ø" horiz-adv-x="838" d="M214 31c-48 24-84.498 57.667-109.498 101s-37.5 93.666-37.5 150.999c0 76 17.167 146.167 51.5 210.5s83.333 115.666 147 153.999 137.167 57.5 220.5 57.5c67.333 0 125.166-12 173.499-36s85-57.667 110-101 37.5-93.666 37.5-150.999c0-76-17.333-146.167-52-210.5S671.167 90.833 607.5 52.5 470.333-5 387-5C319.667-5 262 7 214 31zm368.002 61.5c55.333 33.667 97.999 78.999 127.999 135.999s45 119.167 45 186.5c0 74.667-23.5 133.834-70.5 177.501s-114.5 65.5-202.5 65.5c-71.333 0-134.666-16.833-189.999-50.5s-98.166-79-128.499-136-45.5-119.167-45.5-186.5c0-74 23.667-133 71-177s115-66 203-66c71.333 0 134.666 16.833 189.999 50.5zm218.999 677.499h47l-776-840h-47z"/><glyph glyph-name="Ugrave" unicode="Ù" horiz-adv-x="793" d="M179.5 54c-43 39.333-64.499 94.334-64.499 165.001 0 22 2.667 48 8 78l81 403h51l-80-402c-5.333-24-8-49.333-8-76 0-58.667 17-103.334 51-134.001s82.667-46 146-46c73.333 0 132.166 20.833 176.499 62.5s75.166 106.167 92.499 193.5l80 402h51l-81-405C643.666 95 536.333-5 361-5c-78 0-138.5 19.667-181.5 59zm184.501 821.001h72l116-118h-54z"/><glyph glyph-name="Uacute" unicode="Ú" horiz-adv-x="793" d="M179.5 54c-43 39.333-64.499 94.334-64.499 165.001 0 22 2.667 48 8 78l81 403h51l-80-402c-5.333-24-8-49.333-8-76 0-58.667 17-103.334 51-134.001s82.667-46 146-46c73.333 0 132.166 20.833 176.499 62.5s75.166 106.167 92.499 193.5l80 402h51l-81-405C643.666 95 536.333-5 361-5c-78 0-138.5 19.667-181.5 59zm408.501 821.001h75l-170-118h-57z"/><glyph glyph-name="Ucircumflex" unicode="Û" horiz-adv-x="793" d="M179.5 54c-43 39.333-64.499 94.334-64.499 165.001 0 22 2.667 48 8 78l81 403h51l-80-402c-5.333-24-8-49.333-8-76 0-58.667 17-103.334 51-134.001s82.667-46 146-46c73.333 0 132.166 20.833 176.499 62.5s75.166 106.167 92.499 193.5l80 402h51l-81-405C643.666 95 536.333-5 361-5c-78 0-138.5 19.667-181.5 59zm421.501 703.001l-95 87-113-87h-52l140 118h55l113-118h-48z"/><glyph glyph-name="Udieresis" unicode="Ü" horiz-adv-x="793" d="M179.5 54c-43 39.333-64.499 94.334-64.499 165.001 0 22 2.667 48 8 78l81 403h51l-80-402c-5.333-24-8-49.333-8-76 0-58.667 17-103.334 51-134.001s82.667-46 146-46c73.333 0 132.166 20.833 176.499 62.5s75.166 106.167 92.499 193.5l80 402h51l-81-405C643.666 95 536.333-5 361-5c-78 0-138.5 19.667-181.5 59zm215.501 739.501c-6.667 6.333-10 14.166-10 23.499 0 10.667 3.667 19.834 11 27.501s16.333 11.5 27 11.5c9.333 0 17.333-3.167 24-9.5s10-14.166 10-23.499c0-10.667-3.667-19.834-11-27.501s-16.333-11.5-27-11.5c-9.333 0-17.333 3.167-24 9.5zm173 0c-6.667 6.333-10 14.166-10 23.499 0 10.667 3.667 19.834 11 27.501s16 11.5 26 11.5c9.333 0 17.5-3.167 24.5-9.5s10.5-14.166 10.5-23.499c0-10.667-3.833-19.834-11.5-27.501s-16.5-11.5-26.5-11.5c-9.333 0-17.333 3.167-24 9.5z"/><glyph glyph-name="Yacute" unicode="Ý" horiz-adv-x="625" d="M332 235L285 0h-51l48 241L92 700h53l171-414 335 414h57zm172 640h75L409 757h-57z"/><glyph glyph-name="Thorn" unicode="Þ" horiz-adv-x="715" d="M615.5 554.5C657.833 520.833 679 473 679 411c0-88.667-28.667-157-86-205s-136-72-236-72H148L121 0H70l140 700h51l-19-95h195c76.667 0 136.167-16.833 178.5-50.5zm-58.5-317c46.667 39 70 95.833 70 170.5 0 48.667-16.667 86-50 112s-81.333 39-144 39H233l-76-380h201c86 0 152.333 19.5 199 58.5z"/><glyph glyph-name="germandbls" unicode="ß" horiz-adv-x="661" d="M566 333c23.333-26 35.001-59.666 35.001-100.999 0-47.333-11.333-88.833-34-124.5S512.667 44.334 472 25.001s-87-29-139-29c-19.333 0-39.666 1.667-60.999 5s-38.333 7.666-51 12.999l15 43C263.334 45.667 295.667 40 333 40c66 0 118.833 17.167 158.5 51.5S551 172.333 551 231c0 40.667-14.5 71.5-43.5 92.5S439.333 355 390 355h-58l9 43c66.667.667 120.667 17.667 162 51s62 78.666 62 135.999c0 36.667-12 65.334-36 86.001s-58.667 31-104 31c-57.333 0-105.166-15.833-143.499-47.5s-64.5-81.5-78.5-149.5l-101-505h-50l101 503c16.667 82.667 48.834 143.834 96.501 183.501s107.167 59.5 178.5 59.5c57.333 0 102.666-14 135.999-42s50-66.333 50-115c0-46.667-13.333-88.334-40-125.001s-61.667-63-105-79c41.333-8.667 73.666-26 96.999-52z"/><glyph glyph-name="agrave" unicode="à" horiz-adv-x="675" d="M622 522L518 0h-48l20 102c-25.333-33.333-56.833-59.333-94.5-78S316-4 270-4c-68 0-122.5 19.5-163.5 58.5S45 146.333 45 213c0 59.333 12.667 112.833 38 160.5s60.5 85 105.5 112S284 526 340 526c54 0 98.667-11.667 134-35s59.333-56.333 72-99l26 130h50zM405.5 75c37 22.667 66.167 54.167 87.5 94.5s32 85.833 32 136.5c0 55.333-16.167 98.333-48.5 129s-77.833 46-136.5 46c-46.667 0-88.5-11.5-125.5-34.5s-66.167-54.667-87.5-95S95 266 95 216c0-55.333 16.167-98.333 48.5-129S221.333 41 280 41c46.667 0 88.5 11.333 125.5 34zM262 725h72l116-118h-54z"/><glyph glyph-name="aacute" unicode="á" horiz-adv-x="675" d="M622 522L518 0h-48l20 102c-25.333-33.333-56.833-59.333-94.5-78S316-4 270-4c-68 0-122.5 19.5-163.5 58.5S45 146.333 45 213c0 59.333 12.667 112.833 38 160.5s60.5 85 105.5 112S284 526 340 526c54 0 98.667-11.667 134-35s59.333-56.333 72-99l26 130h50zM405.5 75c37 22.667 66.167 54.167 87.5 94.5s32 85.833 32 136.5c0 55.333-16.167 98.333-48.5 129s-77.833 46-136.5 46c-46.667 0-88.5-11.5-125.5-34.5s-66.167-54.667-87.5-95S95 266 95 216c0-55.333 16.167-98.333 48.5-129S221.333 41 280 41c46.667 0 88.5 11.333 125.5 34zM486 725h75L391 607h-57z"/><glyph glyph-name="acircumflex" unicode="â" horiz-adv-x="675" d="M622 522L518 0h-48l20 102c-25.333-33.333-56.833-59.333-94.5-78S316-4 270-4c-68 0-122.5 19.5-163.5 58.5S45 146.333 45 213c0 59.333 12.667 112.833 38 160.5s60.5 85 105.5 112S284 526 340 526c54 0 98.667-11.667 134-35s59.333-56.333 72-99l26 130h50zM405.5 75c37 22.667 66.167 54.167 87.5 94.5s32 85.833 32 136.5c0 55.333-16.167 98.333-48.5 129s-77.833 46-136.5 46c-46.667 0-88.5-11.5-125.5-34.5s-66.167-54.667-87.5-95S95 266 95 216c0-55.333 16.167-98.333 48.5-129S221.333 41 280 41c46.667 0 88.5 11.333 125.5 34zM499 607l-95 87-113-87h-52l140 118h55l113-118h-48z"/><glyph glyph-name="atilde" unicode="ã" horiz-adv-x="675" d="M622 522L518 0h-48l20 102c-25.333-33.333-56.833-59.333-94.5-78S316-4 270-4c-68 0-122.5 19.5-163.5 58.5S45 146.333 45 213c0 59.333 12.667 112.833 38 160.5s60.5 85 105.5 112S284 526 340 526c54 0 98.667-11.667 134-35s59.333-56.333 72-99l26 130h50zM405.5 75c37 22.667 66.167 54.167 87.5 94.5s32 85.833 32 136.5c0 55.333-16.167 98.333-48.5 129s-77.833 46-136.5 46c-46.667 0-88.5-11.5-125.5-34.5s-66.167-54.667-87.5-95S95 266 95 216c0-55.333 16.167-98.333 48.5-129S221.333 41 280 41c46.667 0 88.5 11.333 125.5 34zm26 549.5c-10.333 6.333-22.502 15.832-36.502 28.499-10.667 10-20.167 17.667-28.5 23s-17.166 8-26.499 8c-14.667 0-27.167-5.833-37.5-17.5s-17.166-27.5-20.499-47.5h-33c4.667 30.667 15.167 55 31.5 73s36.5 27 60.5 27c14 0 26.167-3.167 36.5-9.5s22.5-15.833 36.5-28.5c10.667-10 20.167-17.667 28.5-23s17.166-8 26.499-8c14.667 0 27.334 5.833 38.001 17.5s17.667 26.834 21 45.501h33c-5.333-30-16-53.833-32-71.5S493 615 469 615c-14.667 0-27.167 3.167-37.5 9.5z"/><glyph glyph-name="adieresis" unicode="ä" horiz-adv-x="675" d="M622 522L518 0h-48l20 102c-25.333-33.333-56.833-59.333-94.5-78S316-4 270-4c-68 0-122.5 19.5-163.5 58.5S45 146.333 45 213c0 59.333 12.667 112.833 38 160.5s60.5 85 105.5 112S284 526 340 526c54 0 98.667-11.667 134-35s59.333-56.333 72-99l26 130h50zM405.5 75c37 22.667 66.167 54.167 87.5 94.5s32 85.833 32 136.5c0 55.333-16.167 98.333-48.5 129s-77.833 46-136.5 46c-46.667 0-88.5-11.5-125.5-34.5s-66.167-54.667-87.5-95S95 266 95 216c0-55.333 16.167-98.333 48.5-129S221.333 41 280 41c46.667 0 88.5 11.333 125.5 34zM293 643.5c-6.667 6.333-10 14.166-10 23.499 0 10.667 3.667 19.834 11 27.501s16.333 11.5 27 11.5c9.333 0 17.333-3.167 24-9.5s10-14.166 10-23.499c0-10.667-3.667-19.834-11-27.501S327.667 634 317 634c-9.333 0-17.333 3.167-24 9.5zm173 0c-6.667 6.333-10 14.166-10 23.499 0 10.667 3.667 19.834 11 27.501s16 11.5 26 11.5c9.333 0 17.5-3.167 24.5-9.5s10.5-14.166 10.5-23.499c0-10.667-3.833-19.834-11.5-27.501S500 634 490 634c-9.333 0-17.333 3.167-24 9.5z"/><glyph glyph-name="aring" unicode="å" horiz-adv-x="675" d="M622 522L518 0h-48l20 102c-25.333-33.333-56.833-59.333-94.5-78S316-4 270-4c-68 0-122.5 19.5-163.5 58.5S45 146.333 45 213c0 59.333 12.667 112.833 38 160.5s60.5 85 105.5 112S284 526 340 526c54 0 98.667-11.667 134-35s59.333-56.333 72-99l26 130h50zM405.5 75c37 22.667 66.167 54.167 87.5 94.5s32 85.833 32 136.5c0 55.333-16.167 98.333-48.5 129s-77.833 46-136.5 46c-46.667 0-88.5-11.5-125.5-34.5s-66.167-54.667-87.5-95S95 266 95 216c0-55.333 16.167-98.333 48.5-129S221.333 41 280 41c46.667 0 88.5 11.333 125.5 34zm-66 549.5c-19 19-28.5 41.833-28.5 68.5 0 27.333 9.5 50.833 28.5 70.5S382 793 410 793s51.667-9.833 71-29.5 29-43.167 29-70.5c0-26.667-9.5-49.5-28.5-68.5S438.667 596 410 596c-28 0-51.5 9.5-70.5 28.5zM461 644c13.333 13.333 20 29.667 20 49 0 20-6.833 36.833-20.5 50.5S430 764 410 764s-36.5-6.833-49.5-20.5S341 713 341 693s6.5-36.5 19.5-49.5S390 624 410 624c20.667 0 37.667 6.667 51 20z"/><glyph glyph-name="ae" unicode="æ" horiz-adv-x="985" d="M482 251c-1.333-14.667-2.001-26-2.001-34 0-57.333 16.5-101 49.5-131s81.167-45 144.5-45c36.667 0 70 6 100 18s55.667 29.333 77 52l25-35c-24-25.333-54.167-45-90.5-59S710.333-4 669-4C612.333-4 564.333 8 525 32s-66 59.333-80 106c-22-48-53.5-83.667-94.5-107S264-4 214-4C158-4 114.167 7.833 82.5 31.5S35 87.667 35 129c0 50 19.167 89.333 57.5 118s92.166 43 161.499 43h184l8 37c3.333 18 5 32.667 5 44 0 36-11.5 63.333-34.5 82s-56.833 28-101.5 28c-34 0-67.5-5.833-100.5-17.5s-61.5-27.167-85.5-46.5l-19 38c27.333 22 59.833 39.333 97.5 52S283.333 526 322 526c51.333 0 91.5-10 120.5-30s46.167-48.667 51.5-86c26 36.667 58.5 65.167 97.5 85.5S672.333 526 717 526c68.667 0 123-19.5 163-58.5s60-92.167 60-159.5c0-19.333-2.333-38.333-7-57H482zm87.499 179c-41-35.333-68.168-81.999-81.501-139.999h403c.667 6 1 14.333 1 25 0 53.333-16.167 94.666-48.5 123.999s-75.166 44-128.499 44c-56 0-104.5-17.667-145.5-53zM348.498 80.001c37 28.667 60.833 69.333 71.5 122l10 49h-179c-52.667 0-93.5-10.5-122.5-31.5s-43.5-50.167-43.5-87.5c0-30.667 11.167-54.167 33.5-70.5s55.5-24.5 99.5-24.5c50 0 93.5 14.333 130.5 43z"/><glyph glyph-name="ccedilla" unicode="ç" horiz-adv-x="555" d="M108.5 55c-42.333 39.333-63.504 91.999-63.504 157.999 0 59.333 12.833 112.833 38.5 160.5s61.334 85 107.001 112 97.167 40.5 154.5 40.5c46.667 0 86.667-8.167 120-24.5s59.333-40.833 78-73.5l-41-25c-31.333 52-84.666 78-159.999 78-47.333 0-89.666-11.5-126.999-34.5s-66.666-54.5-87.999-94.5-32-85.333-32-136c0-55.333 16.333-98.333 49-129s79.334-46 140.001-46c34.667 0 67.167 6.667 97.5 20s55.5 32 75.5 56l35-28c-22.667-29.333-52.834-52.166-90.5-68.499S323.332-4 280-4c-72 0-129.168 19.667-171.5 59zm35.496-249.001l19 27.999c18-14 40-21 66-21 22 0 39.5 5.5 52.5 16.5s19.5 25.5 19.5 43.5c0 14-5 24.833-15 32.5s-24.333 11.5-43 11.5h-19l41 87h33l-27-59c22-2.667 39.167-10.167 51.5-22.5s18.5-28.166 18.5-47.499c0-27.333-10.667-49.833-32-67.5s-49-26.5-83-26.5-61.333 8.333-82 25z"/><glyph glyph-name="egrave" unicode="è" horiz-adv-x="598" d="M96 250c-1.333-14.667-2.002-25.668-2.002-33.001 0-56.667 16.333-100.167 49-130.5s80.667-45.5 144-45.5c36.667 0 70.5 6.167 101.5 18.5s56.833 29.5 77.5 51.5l23-35c-23.333-25.333-53.166-45-89.499-59s-75.166-21-116.499-21c-74 0-132.167 19.333-174.5 58S45 146.333 45 215c0 58.667 12.333 111.667 37 159s58.667 84.5 102 111.5S276 526 330 526c68 0 122-19.333 162-58s60-92 60-160c0-16-2-35.333-6-58H96zm86.498 179.999c-41-35.333-67.833-82.334-80.5-141.001h402c.667 6 1 14.667 1 26 0 52.667-16 93.834-48 123.501s-74.667 44.5-128 44.5c-56.667 0-105.5-17.667-146.5-53zm48.5 294.999h72l116-118h-54z"/><glyph glyph-name="eacute" unicode="é" horiz-adv-x="598" d="M96 250c-1.333-14.667-2.002-25.668-2.002-33.001 0-56.667 16.333-100.167 49-130.5s80.667-45.5 144-45.5c36.667 0 70.5 6.167 101.5 18.5s56.833 29.5 77.5 51.5l23-35c-23.333-25.333-53.166-45-89.499-59s-75.166-21-116.499-21c-74 0-132.167 19.333-174.5 58S45 146.333 45 215c0 58.667 12.333 111.667 37 159s58.667 84.5 102 111.5S276 526 330 526c68 0 122-19.333 162-58s60-92 60-160c0-16-2-35.333-6-58H96zm86.498 179.999c-41-35.333-67.833-82.334-80.5-141.001h402c.667 6 1 14.667 1 26 0 52.667-16 93.834-48 123.501s-74.667 44.5-128 44.5c-56.667 0-105.5-17.667-146.5-53zm272.5 294.999h75l-170-118h-57z"/><glyph glyph-name="ecircumflex" unicode="ê" horiz-adv-x="598" d="M96 250c-1.333-14.667-2.002-25.668-2.002-33.001 0-56.667 16.333-100.167 49-130.5s80.667-45.5 144-45.5c36.667 0 70.5 6.167 101.5 18.5s56.833 29.5 77.5 51.5l23-35c-23.333-25.333-53.166-45-89.499-59s-75.166-21-116.499-21c-74 0-132.167 19.333-174.5 58S45 146.333 45 215c0 58.667 12.333 111.667 37 159s58.667 84.5 102 111.5S276 526 330 526c68 0 122-19.333 162-58s60-92 60-160c0-16-2-35.333-6-58H96zm86.498 179.999c-41-35.333-67.833-82.334-80.5-141.001h402c.667 6 1 14.667 1 26 0 52.667-16 93.834-48 123.501s-74.667 44.5-128 44.5c-56.667 0-105.5-17.667-146.5-53zm285.5 176.999l-95 87-113-87h-52l140 118h55l113-118h-48z"/><glyph glyph-name="edieresis" unicode="ë" horiz-adv-x="598" d="M96 250c-1.333-14.667-2.002-25.668-2.002-33.001 0-56.667 16.333-100.167 49-130.5s80.667-45.5 144-45.5c36.667 0 70.5 6.167 101.5 18.5s56.833 29.5 77.5 51.5l23-35c-23.333-25.333-53.166-45-89.499-59s-75.166-21-116.499-21c-74 0-132.167 19.333-174.5 58S45 146.333 45 215c0 58.667 12.333 111.667 37 159s58.667 84.5 102 111.5S276 526 330 526c68 0 122-19.333 162-58s60-92 60-160c0-16-2-35.333-6-58H96zm86.498 179.999c-41-35.333-67.833-82.334-80.5-141.001h402c.667 6 1 14.667 1 26 0 52.667-16 93.834-48 123.501s-74.667 44.5-128 44.5c-56.667 0-105.5-17.667-146.5-53zm79.5 213.499c-6.667 6.333-10 14.166-10 23.499 0 10.667 3.667 19.834 11 27.501s16.333 11.5 27 11.5c9.333 0 17.333-3.167 24-9.5s10-14.166 10-23.499c0-10.667-3.667-19.834-11-27.501s-16.333-11.5-27-11.5c-9.333 0-17.333 3.167-24 9.5zm173 0c-6.667 6.333-10 14.166-10 23.499 0 10.667 3.667 19.834 11 27.501s16 11.5 26 11.5c9.333 0 17.5-3.167 24.5-9.5s10.5-14.166 10.5-23.499c0-10.667-3.833-19.834-11.5-27.501s-16.5-11.5-26.5-11.5c-9.333 0-17.333 3.167-24 9.5z"/><glyph glyph-name="igrave" unicode="ì" horiz-adv-x="261" d="M157 522h50L103 0H53zM68 725h72l116-118h-54z"/><glyph glyph-name="iacute" unicode="í" horiz-adv-x="261" d="M157 522h50L103 0H53zm135 203h75L197 607h-57z"/><glyph glyph-name="icircumflex" unicode="î" horiz-adv-x="261" d="M157 522h50L103 0H53zm124 85l-71 86-90-86H70l116 118h53l89-118h-47z"/><glyph glyph-name="idieresis" unicode="ï" horiz-adv-x="261" d="M157 522h50L103 0H53zm-33.5 121.5c-6.333 6.333-9.501 14.166-9.501 23.499 0 10.667 3.667 19.834 11 27.501s16.333 11.5 27 11.5c9.333 0 17-3.167 23-9.5s9-14.166 9-23.499c0-10.667-3.667-19.834-11-27.501s-16-11.5-26-11.5c-9.333 0-17.166 3.167-23.499 9.5zm124.999 0c-6.333 6.333-9.5 14.168-9.5 23.501 0 11.333 3.5 20.666 10.5 27.999s15.833 11 26.5 11c9.333 0 17-3.167 23-9.5s9-14.166 9-23.499c0-10.667-3.5-19.834-10.5-27.501s-15.833-11.5-26.5-11.5c-8.667 0-16.167 3.167-22.5 9.5z"/><glyph glyph-name="eth" unicode="ð" horiz-adv-x="627" d="M537 638c44.667-46.667 67.004-110.001 67.004-190.001 0-74-13.667-145.833-41-215.5s-67.333-126.667-120-171-115.334-66.5-188.001-66.5c-43.333 0-81.333 7.833-114 23.5s-58 37.834-76 66.501-27 61.667-27 99c0 49.333 12 93 36 131s57.167 67.333 99.5 88 90.166 31 143.499 31c58.667 0 106.667-15 144-45s58-70.333 62-121c20 55.333 30 115 30 179 0 76-21.667 133-65 171l-283-113-14 36 257 103c-34 16-74.667 24-122 24-24.667 0-49.5-2-74.5-6s-46.833-9.333-65.5-16l-3 43c19.333 7.333 42.166 13 68.499 17s52.166 6 77.499 6c69.333 0 127-15.333 173-46l102 41 14-37zM371.004 65.999c35.333 18 64.001 42.5 86.001 73.5s33 64.833 33 101.5c0 46-15.333 82.333-46 109s-72.334 40-125.001 40c-45.333 0-85.5-8.5-120.5-25.5s-62.167-40.667-81.5-71-29-65.5-29-105.5c0-46.667 15.167-83.167 45.5-109.5s72.5-39.5 126.5-39.5c38.667 0 75.667 9 111 27z"/><glyph glyph-name="ntilde" unicode="ñ" horiz-adv-x="673" d="M539 481.5c32-29.667 48-70.499 48-122.499 0-18-2-37-6-57l-60-302h-50l60 302c3.333 15.333 5 32 5 50 0 41.333-12.5 73.166-37.5 95.499S437 481 389 481c-60 0-110-16.833-150-50.5S172.667 348 160 284L103 0H53l104 522h49l-20-99c24.667 34.667 55.5 60.5 92.5 77.5S356.667 526 402 526c59.333 0 105-14.833 137-44.5zm-93.5 143.001c-10.333 6.333-22.502 15.832-36.502 28.499-10.667 10-20.167 17.667-28.5 23s-17.166 8-26.499 8c-14.667 0-27.167-5.833-37.5-17.5S299.333 639 296 619h-33c4.667 30.667 15.167 55 31.5 73s36.5 27 60.5 27c14 0 26.167-3.167 36.5-9.5S414 693.667 428 681c10.667-10 20.167-17.667 28.5-23s17.166-8 26.499-8c14.667 0 27.334 5.833 38.001 17.5s17.667 26.834 21 45.501h33c-5.333-30-16-53.833-32-71.5s-36-26.5-60-26.5c-14.667 0-27.167 3.167-37.5 9.5z"/><glyph glyph-name="ograve" unicode="ò" horiz-adv-x="620" d="M107.5 55C65.833 94.333 45 147.002 45 213.002c0 59.333 12.833 112.666 38.5 159.999S144.667 457.667 190 485s96.666 41 153.999 41c70.667 0 126.834-19.5 168.501-58.5S575 375.667 575 309c0-59.333-12.833-112.833-38.5-160.5s-61.167-85-106.5-112S333.334-4 276.001-4C205.334-4 149.167 15.667 107.5 55zm298 20.002c37 22.667 66.167 54.167 87.5 94.5s32 85.833 32 136.5c0 55.333-16.167 98.333-48.5 129s-77.833 46-136.5 46c-46.667 0-88.5-11.5-125.5-34.5s-66.167-54.667-87.5-95-32-85.5-32-135.5c0-55.333 16.167-98.333 48.5-129s77.833-46 136.5-46c46.667 0 88.5 11.333 125.5 34zm-158.5 650h72l116-118h-54z"/><glyph glyph-name="oacute" unicode="ó" horiz-adv-x="620" d="M107.5 55C65.833 94.333 45 147.002 45 213.002c0 59.333 12.833 112.666 38.5 159.999S144.667 457.667 190 485s96.666 41 153.999 41c70.667 0 126.834-19.5 168.501-58.5S575 375.667 575 309c0-59.333-12.833-112.833-38.5-160.5s-61.167-85-106.5-112S333.334-4 276.001-4C205.334-4 149.167 15.667 107.5 55zm298 20.002c37 22.667 66.167 54.167 87.5 94.5s32 85.833 32 136.5c0 55.333-16.167 98.333-48.5 129s-77.833 46-136.5 46c-46.667 0-88.5-11.5-125.5-34.5s-66.167-54.667-87.5-95-32-85.5-32-135.5c0-55.333 16.167-98.333 48.5-129s77.833-46 136.5-46c46.667 0 88.5 11.333 125.5 34zm65.5 650h75l-170-118h-57z"/><glyph glyph-name="ocircumflex" unicode="ô" horiz-adv-x="620" d="M107.5 55C65.833 94.333 45 147.002 45 213.002c0 59.333 12.833 112.666 38.5 159.999S144.667 457.667 190 485s96.666 41 153.999 41c70.667 0 126.834-19.5 168.501-58.5S575 375.667 575 309c0-59.333-12.833-112.833-38.5-160.5s-61.167-85-106.5-112S333.334-4 276.001-4C205.334-4 149.167 15.667 107.5 55zm298 20.002c37 22.667 66.167 54.167 87.5 94.5s32 85.833 32 136.5c0 55.333-16.167 98.333-48.5 129s-77.833 46-136.5 46c-46.667 0-88.5-11.5-125.5-34.5s-66.167-54.667-87.5-95-32-85.5-32-135.5c0-55.333 16.167-98.333 48.5-129s77.833-46 136.5-46c46.667 0 88.5 11.333 125.5 34zm78.5 532l-95 87-113-87h-52l140 118h55l113-118h-48z"/><glyph glyph-name="otilde" unicode="õ" horiz-adv-x="620" d="M107.5 55C65.833 94.333 45 147.002 45 213.002c0 59.333 12.833 112.666 38.5 159.999S144.667 457.667 190 485s96.666 41 153.999 41c70.667 0 126.834-19.5 168.501-58.5S575 375.667 575 309c0-59.333-12.833-112.833-38.5-160.5s-61.167-85-106.5-112S333.334-4 276.001-4C205.334-4 149.167 15.667 107.5 55zm298 20.002c37 22.667 66.167 54.167 87.5 94.5s32 85.833 32 136.5c0 55.333-16.167 98.333-48.5 129s-77.833 46-136.5 46c-46.667 0-88.5-11.5-125.5-34.5s-66.167-54.667-87.5-95-32-85.5-32-135.5c0-55.333 16.167-98.333 48.5-129s77.833-46 136.5-46c46.667 0 88.5 11.333 125.5 34zm11 549.5c-10.333 6.333-22.502 15.832-36.502 28.499-10.667 10-20.167 17.667-28.5 23s-17.166 8-26.499 8c-14.667 0-27.167-5.833-37.5-17.5s-17.166-27.5-20.499-47.5h-33c4.667 30.667 15.167 55 31.5 73s36.5 27 60.5 27c14 0 26.167-3.167 36.5-9.5s22.5-15.833 36.5-28.5c10.667-10 20.167-17.667 28.5-23s17.166-8 26.499-8c14.667 0 27.334 5.833 38.001 17.5s17.667 26.834 21 45.501h33c-5.333-30-16-53.833-32-71.5s-36-26.5-60-26.5c-14.667 0-27.167 3.167-37.5 9.5z"/><glyph glyph-name="odieresis" unicode="ö" horiz-adv-x="620" d="M107.5 55C65.833 94.333 45 147.002 45 213.002c0 59.333 12.833 112.666 38.5 159.999S144.667 457.667 190 485s96.666 41 153.999 41c70.667 0 126.834-19.5 168.501-58.5S575 375.667 575 309c0-59.333-12.833-112.833-38.5-160.5s-61.167-85-106.5-112S333.334-4 276.001-4C205.334-4 149.167 15.667 107.5 55zm298 20.002c37 22.667 66.167 54.167 87.5 94.5s32 85.833 32 136.5c0 55.333-16.167 98.333-48.5 129s-77.833 46-136.5 46c-46.667 0-88.5-11.5-125.5-34.5s-66.167-54.667-87.5-95-32-85.5-32-135.5c0-55.333 16.167-98.333 48.5-129s77.833-46 136.5-46c46.667 0 88.5 11.333 125.5 34zM278 643.502c-6.667 6.333-10 14.166-10 23.499 0 10.667 3.667 19.834 11 27.501s16.333 11.5 27 11.5c9.333 0 17.333-3.167 24-9.5s10-14.166 10-23.499c0-10.667-3.667-19.834-11-27.501s-16.333-11.5-27-11.5c-9.333 0-17.333 3.167-24 9.5zm173 0c-6.667 6.333-10 14.166-10 23.499 0 10.667 3.667 19.834 11 27.501s16 11.5 26 11.5c9.333 0 17.5-3.167 24.5-9.5s10.5-14.166 10.5-23.499c0-10.667-3.833-19.834-11.5-27.501s-16.5-11.5-26.5-11.5c-9.333 0-17.333 3.167-24 9.5z"/><glyph glyph-name="divide" unicode="÷" horiz-adv-x="569" d="M311 508c-7.333 7.333-11 16.332-11 26.999 0 11.333 4 21 12 29s17.333 12 28 12 19.667-3.5 27-10.5 11-15.833 11-26.5c0-11.333-4-21.166-12-29.499S348.667 497 338 497s-19.667 3.667-27 11zM94 370.999h425l-8-43H85zm143-236c-7.333 7.333-11 16.333-11 27 0 11.333 3.833 21 11.5 29s17.167 12 28.5 12c10 0 18.667-3.667 26-11s11-16.333 11-27c0-11.333-3.833-21-11.5-29s-17.167-12-28.5-12c-10 0-18.667 3.667-26 11z"/><glyph glyph-name="oslash" unicode="ø" horiz-adv-x="620" d="M107.5 55C65.833 94.333 45 147.002 45 213.002c0 59.333 12.833 112.666 38.5 159.999S144.667 457.667 190 485s96.666 41 153.999 41c70.667 0 126.834-19.5 168.501-58.5S575 375.667 575 309c0-59.333-12.833-112.833-38.5-160.5s-61.167-85-106.5-112S333.334-4 276.001-4C205.334-4 149.167 15.667 107.5 55zm298 20.002c37 22.667 66.167 54.167 87.5 94.5s32 85.833 32 136.5c0 55.333-16.167 98.333-48.5 129s-77.833 46-136.5 46c-46.667 0-88.5-11.5-125.5-34.5s-66.167-54.667-87.5-95-32-85.5-32-135.5c0-55.333 16.167-98.333 48.5-129s77.833-46 136.5-46c46.667 0 88.5 11.333 125.5 34zm169.5 517h40l-573-662H2z"/><glyph glyph-name="ugrave" unicode="ù" horiz-adv-x="669" d="M616 522L512.001 0h-49l20 99c-48.667-68.667-120-103-214-103C210.334-4 165.167 10.833 133.5 40.5S86 111 86 163c0 18 2 37 6 57l60 302h50l-60-302c-3.333-14.667-5-31.334-5-50.001 0-41.333 12.167-73.166 36.5-95.499S234 41 282 41c60 0 109.667 16.833 149 50.5S496.333 174 509 238l57 284h50zM270.001 725h72l116-118h-54z"/><glyph glyph-name="uacute" unicode="ú" horiz-adv-x="669" d="M616 522L512.001 0h-49l20 99c-48.667-68.667-120-103-214-103C210.334-4 165.167 10.833 133.5 40.5S86 111 86 163c0 18 2 37 6 57l60 302h50l-60-302c-3.333-14.667-5-31.334-5-50.001 0-41.333 12.167-73.166 36.5-95.499S234 41 282 41c60 0 109.667 16.833 149 50.5S496.333 174 509 238l57 284h50zM494.001 725h75l-170-118h-57z"/><glyph glyph-name="ucircumflex" unicode="û" horiz-adv-x="669" d="M616 522L512.001 0h-49l20 99c-48.667-68.667-120-103-214-103C210.334-4 165.167 10.833 133.5 40.5S86 111 86 163c0 18 2 37 6 57l60 302h50l-60-302c-3.333-14.667-5-31.334-5-50.001 0-41.333 12.167-73.166 36.5-95.499S234 41 282 41c60 0 109.667 16.833 149 50.5S496.333 174 509 238l57 284h50zm-108.999 85l-95 87-113-87h-52l140 118h55l113-118h-48z"/><glyph glyph-name="udieresis" unicode="ü" horiz-adv-x="669" d="M616 522L512.001 0h-49l20 99c-48.667-68.667-120-103-214-103C210.334-4 165.167 10.833 133.5 40.5S86 111 86 163c0 18 2 37 6 57l60 302h50l-60-302c-3.333-14.667-5-31.334-5-50.001 0-41.333 12.167-73.166 36.5-95.499S234 41 282 41c60 0 109.667 16.833 149 50.5S496.333 174 509 238l57 284h50zM301.001 643.5c-6.667 6.333-10 14.166-10 23.499 0 10.667 3.667 19.834 11 27.501s16.333 11.5 27 11.5c9.333 0 17.333-3.167 24-9.5s10-14.166 10-23.499c0-10.667-3.667-19.834-11-27.501s-16.333-11.5-27-11.5c-9.333 0-17.333 3.167-24 9.5zm173 0c-6.667 6.333-10 14.166-10 23.499 0 10.667 3.667 19.834 11 27.501s16 11.5 26 11.5c9.333 0 17.5-3.167 24.5-9.5s10.5-14.166 10.5-23.499c0-10.667-3.833-19.834-11.5-27.501s-16.5-11.5-26.5-11.5c-9.333 0-17.333 3.167-24 9.5z"/><glyph glyph-name="yacute" unicode="ý" horiz-adv-x="528" d="M577 522L187-76.999c-29.333-45.333-57.166-76.833-83.499-94.5s-57.5-26.5-93.5-26.5c-24 0-46.667 4-68 12s-38 19.333-50 34l29 37c23.333-26 54.666-39 93.999-39 24 0 45.833 6.667 65.5 20S121-97.333 143-64l44 66L55 522h51L223 55l302 467h52zM411 725.001h75l-170-118h-57z"/><glyph glyph-name="thorn" unicode="þ" horiz-adv-x="675" d="M569 467.5c41.333-39 62-91.834 62-158.501 0-59.333-12.833-112.833-38.5-160.5s-61-85-106-112S391-4.001 335-4.001c-54 0-98.5 11.5-133.5 34.5s-59.167 56.167-72.5 99.5l-65-324H14l187 936h50l-63-318c25.333 32.667 56.5 57.834 93.5 75.501S359.667 526 405 526c68 0 122.667-19.5 164-58.5zM461.5 75.499c37 23 65.999 54.5 86.999 94.5s31.5 85.333 31.5 136c0 55.333-16.167 98.333-48.5 129s-77.833 46-136.5 46c-46.667 0-88.5-11.333-125.5-34s-66.167-54.167-87.5-94.5-32-85.833-32-136.5c0-55.333 16.333-98.333 49-129s78.334-46 137.001-46c46.667 0 88.5 11.5 125.5 34.5z"/><glyph glyph-name="ydieresis" unicode="ÿ" horiz-adv-x="528" d="M577 522L187-76.999c-29.333-45.333-57.166-76.833-83.499-94.5s-57.5-26.5-93.5-26.5c-24 0-46.667 4-68 12s-38 19.333-50 34l29 37c23.333-26 54.666-39 93.999-39 24 0 45.833 6.667 65.5 20S121-97.333 143-64l44 66L55 522h51L223 55l302 467h52zM218 643.501c-6.667 6.333-10 14.166-10 23.499 0 10.667 3.667 19.834 11 27.501s16.333 11.5 27 11.5c9.333 0 17.333-3.167 24-9.5s10-14.166 10-23.499c0-10.667-3.667-19.834-11-27.501s-16.333-11.5-27-11.5c-9.333 0-17.333 3.167-24 9.5zm173 0c-6.667 6.333-10 14.166-10 23.499 0 10.667 3.667 19.834 11 27.501s16 11.5 26 11.5c9.333 0 17.5-3.167 24.5-9.5s10.5-14.166 10.5-23.499c0-10.667-3.833-19.834-11.5-27.501s-16.5-11.5-26.5-11.5c-9.333 0-17.333 3.167-24 9.5z"/><glyph glyph-name="Amacron" unicode="Ā" horiz-adv-x="705" d="M546 197H139L10 0h-57l462 700h51L648 0h-52zm-11 43L432 646 167 240h368zM319 834h294l-7-36H312z"/><glyph glyph-name="amacron" unicode="ā" horiz-adv-x="675" d="M622 522L518 0h-48l20 102c-25.333-33.333-56.833-59.333-94.5-78S316-4 270-4c-68 0-122.5 19.5-163.5 58.5S45 146.333 45 213c0 59.333 12.667 112.833 38 160.5s60.5 85 105.5 112S284 526 340 526c54 0 98.667-11.667 134-35s59.333-56.333 72-99l26 130h50zM405.5 75c37 22.667 66.167 54.167 87.5 94.5s32 85.833 32 136.5c0 55.333-16.167 98.333-48.5 129s-77.833 46-136.5 46c-46.667 0-88.5-11.5-125.5-34.5s-66.167-54.667-87.5-95S95 266 95 216c0-55.333 16.167-98.333 48.5-129S221.333 41 280 41c46.667 0 88.5 11.333 125.5 34zM261 684h294l-7-36H254z"/><glyph glyph-name="Abreve" unicode="Ă" horiz-adv-x="705" d="M546 197H139L10 0h-57l462 700h51L648 0h-52zm-11 43L432 646 167 240h368zM363 786.5c-25.333 22.333-36.667 51.833-34 88.5h37c-1.333-27.333 7-49 25-65s42.333-24 73-24c29.333 0 54.833 8.167 76.5 24.5S575 848.333 579 875h38c-5.333-37.333-22.5-67-51.5-89s-63.833-33-104.5-33c-40 0-72.667 11.167-98 33.5z"/><glyph glyph-name="abreve" unicode="ă" horiz-adv-x="675" d="M622 522L518 0h-48l20 102c-25.333-33.333-56.833-59.333-94.5-78S316-4 270-4c-68 0-122.5 19.5-163.5 58.5S45 146.333 45 213c0 59.333 12.667 112.833 38 160.5s60.5 85 105.5 112S284 526 340 526c54 0 98.667-11.667 134-35s59.333-56.333 72-99l26 130h50zM405.5 75c37 22.667 66.167 54.167 87.5 94.5s32 85.833 32 136.5c0 55.333-16.167 98.333-48.5 129s-77.833 46-136.5 46c-46.667 0-88.5-11.5-125.5-34.5s-66.167-54.667-87.5-95S95 266 95 216c0-55.333 16.167-98.333 48.5-129S221.333 41 280 41c46.667 0 88.5 11.333 125.5 34zM305 636.5c-25.333 22.333-36.667 51.833-34 88.5h37c-1.333-27.333 7-49 25-65s42.333-24 73-24c29.333 0 54.833 8.167 76.5 24.5S517 698.333 521 725h38c-5.333-37.333-22.5-67-51.5-89s-63.833-33-104.5-33c-40 0-72.667 11.167-98 33.5z"/><glyph glyph-name="Aogonek" unicode="Ą" horiz-adv-x="705" d="M546 197H139L10 0h-57l462 700h51L648 0h-52zm-11 43L432 646 167 240h368zm-54-436.5c-16 13.667-24 32.167-24 55.5 0 65.333 56.667 120.333 170 165l21-24C547.333-38.667 497-83.667 497-135c0-16 4.833-28.167 14.5-36.5S534.667-184 552-184c25.333 0 48.333 7.333 69 22l10-30c-26-16.667-54.667-25-86-25-26.667 0-48 6.833-64 20.5z"/><glyph glyph-name="aogonek" unicode="ą" horiz-adv-x="675" d="M622 522L518 0h-48l20 102c-25.333-33.333-56.833-59.333-94.5-78S316-4 270-4c-68 0-122.5 19.5-163.5 58.5S45 146.333 45 213c0 59.333 12.667 112.833 38 160.5s60.5 85 105.5 112S284 526 340 526c54 0 98.667-11.667 134-35s59.333-56.333 72-99l26 130h50zM405.5 75c37 22.667 66.167 54.167 87.5 94.5s32 85.833 32 136.5c0 55.333-16.167 98.333-48.5 129s-77.833 46-136.5 46c-46.667 0-88.5-11.5-125.5-34.5s-66.167-54.667-87.5-95S95 266 95 216c0-55.333 16.167-98.333 48.5-129S221.333 41 280 41c46.667 0 88.5 11.333 125.5 34zM350-196.5c-16 13.667-24 32.167-24 55.5 0 65.333 56.667 120.333 170 165l21-24C416.333-38.667 366-83.667 366-135c0-16 4.833-28.167 14.5-36.5S403.667-184 421-184c25.333 0 48.333 7.333 69 22l10-30c-26-16.667-54.667-25-86-25-26.667 0-48 6.833-64 20.5z"/><glyph glyph-name="Cacute" unicode="Ć" horiz-adv-x="716" d="M214.5 31c-48.333 24-84.999 57.672-109.999 101.005s-37.5 93.666-37.5 150.999c0 76 17.333 146.333 52 211s84 116 148 154 138.667 57 224 57c54 0 102.167-8.333 144.5-25S710.667 639.67 734 609.003l-36-33c-46.667 54.667-117 82-211 82-73.333 0-138-16.833-194-50.5s-99.167-78.834-129.5-135.501-45.5-119-45.5-187c0-74.667 23.667-133.834 71-177.501s115.333-65.5 204-65.5c96 0 173 28 231 84l31-35C624.333 60.334 585.833 36.667 539.5 20S443-5 389-5C321-5 262.833 7 214.5 31zm385.501 844.005h75l-170-118h-57z"/><glyph glyph-name="cacute" unicode="ć" horiz-adv-x="555" d="M108.5 55c-42.333 39.333-63.504 91.999-63.504 157.999 0 59.333 12.833 112.833 38.5 160.5s61.334 85 107.001 112 97.167 40.5 154.5 40.5c46.667 0 86.667-8.167 120-24.5s59.333-40.833 78-73.5l-41-25c-31.333 52-84.666 78-159.999 78-47.333 0-89.666-11.5-126.999-34.5s-66.666-54.5-87.999-94.5-32-85.333-32-136c0-55.333 16.333-98.333 49-129s79.334-46 140.001-46c34.667 0 67.167 6.667 97.5 20s55.5 32 75.5 56l35-28c-22.667-29.333-52.834-52.166-90.5-68.499S323.332-4 280-4c-72 0-129.168 19.667-171.5 59zm348.496 669.999h75l-170-118h-57z"/><glyph glyph-name="Ccircumflex" unicode="Ĉ" horiz-adv-x="716" d="M214.5 31c-48.333 24-84.999 57.672-109.999 101.005s-37.5 93.666-37.5 150.999c0 76 17.333 146.333 52 211s84 116 148 154 138.667 57 224 57c54 0 102.167-8.333 144.5-25S710.667 639.67 734 609.003l-36-33c-46.667 54.667-117 82-211 82-73.333 0-138-16.833-194-50.5s-99.167-78.834-129.5-135.501-45.5-119-45.5-187c0-74.667 23.667-133.834 71-177.501s115.333-65.5 204-65.5c96 0 173 28 231 84l31-35C624.333 60.334 585.833 36.667 539.5 20S443-5 389-5C321-5 262.833 7 214.5 31zm398.501 726.005l-95 87-113-87h-52l140 118h55l113-118h-48z"/><glyph glyph-name="ccircumflex" unicode="ĉ" horiz-adv-x="555" d="M108.5 55c-42.333 39.333-63.504 91.999-63.504 157.999 0 59.333 12.833 112.833 38.5 160.5s61.334 85 107.001 112 97.167 40.5 154.5 40.5c46.667 0 86.667-8.167 120-24.5s59.333-40.833 78-73.5l-41-25c-31.333 52-84.666 78-159.999 78-47.333 0-89.666-11.5-126.999-34.5s-66.666-54.5-87.999-94.5-32-85.333-32-136c0-55.333 16.333-98.333 49-129s79.334-46 140.001-46c34.667 0 67.167 6.667 97.5 20s55.5 32 75.5 56l35-28c-22.667-29.333-52.834-52.166-90.5-68.499S323.332-4 280-4c-72 0-129.168 19.667-171.5 59zm361.496 551.999l-95 87-113-87h-52l140 118h55l113-118h-48z"/><glyph glyph-name="Cdotaccent" unicode="Ċ" horiz-adv-x="716" d="M214.5 31c-48.333 24-84.999 57.672-109.999 101.005s-37.5 93.666-37.5 150.999c0 76 17.333 146.333 52 211s84 116 148 154 138.667 57 224 57c54 0 102.167-8.333 144.5-25S710.667 639.67 734 609.003l-36-33c-46.667 54.667-117 82-211 82-73.333 0-138-16.833-194-50.5s-99.167-78.834-129.5-135.501-45.5-119-45.5-187c0-74.667 23.667-133.834 71-177.501s115.333-65.5 204-65.5c96 0 173 28 231 84l31-35C624.333 60.334 585.833 36.667 539.5 20S443-5 389-5C321-5 262.833 7 214.5 31zm277.001 764.005c-7 6.667-10.5 15-10.5 25 0 12 4 22.167 12 30.5s17.667 12.5 29 12.5c10.667 0 19.5-3.5 26.5-10.5s10.5-15.5 10.5-25.5c0-12-4-22-12-30s-17.667-12-29-12c-10.667 0-19.5 3.333-26.5 10z"/><glyph glyph-name="cdotaccent" unicode="ċ" horiz-adv-x="555" d="M108.5 55c-42.333 39.333-63.504 91.999-63.504 157.999 0 59.333 12.833 112.833 38.5 160.5s61.334 85 107.001 112 97.167 40.5 154.5 40.5c46.667 0 86.667-8.167 120-24.5s59.333-40.833 78-73.5l-41-25c-31.333 52-84.666 78-159.999 78-47.333 0-89.666-11.5-126.999-34.5s-66.666-54.5-87.999-94.5-32-85.333-32-136c0-55.333 16.333-98.333 49-129s79.334-46 140.001-46c34.667 0 67.167 6.667 97.5 20s55.5 32 75.5 56l35-28c-22.667-29.333-52.834-52.166-90.5-68.499S323.332-4 280-4c-72 0-129.168 19.667-171.5 59zm239.996 589.999c-7 6.667-10.5 15-10.5 25 0 12 4 22.167 12 30.5s17.667 12.5 29 12.5c10.667 0 19.5-3.5 26.5-10.5s10.5-15.5 10.5-25.5c0-12-4-22-12-30s-17.667-12-29-12c-10.667 0-19.5 3.333-26.5 10z"/><glyph glyph-name="Ccaron" unicode="Č" horiz-adv-x="716" d="M214.5 31c-48.333 24-84.999 57.672-109.999 101.005s-37.5 93.666-37.5 150.999c0 76 17.333 146.333 52 211s84 116 148 154 138.667 57 224 57c54 0 102.167-8.333 144.5-25S710.667 639.67 734 609.003l-36-33c-46.667 54.667-117 82-211 82-73.333 0-138-16.833-194-50.5s-99.167-78.834-129.5-135.501-45.5-119-45.5-187c0-74.667 23.667-133.834 71-177.501s115.333-65.5 204-65.5c96 0 173 28 231 84l31-35C624.333 60.334 585.833 36.667 539.5 20S443-5 389-5C321-5 262.833 7 214.5 31zm468.501 844.005l-140-118h-55l-113 118h48l95-87 112 87h53z"/><glyph glyph-name="ccaron" unicode="č" horiz-adv-x="555" d="M108.5 55c-42.333 39.333-63.504 91.999-63.504 157.999 0 59.333 12.833 112.833 38.5 160.5s61.334 85 107.001 112 97.167 40.5 154.5 40.5c46.667 0 86.667-8.167 120-24.5s59.333-40.833 78-73.5l-41-25c-31.333 52-84.666 78-159.999 78-47.333 0-89.666-11.5-126.999-34.5s-66.666-54.5-87.999-94.5-32-85.333-32-136c0-55.333 16.333-98.333 49-129s79.334-46 140.001-46c34.667 0 67.167 6.667 97.5 20s55.5 32 75.5 56l35-28c-22.667-29.333-52.834-52.166-90.5-68.499S323.332-4 280-4c-72 0-129.168 19.667-171.5 59zm431.496 669.999l-140-118h-55l-113 118h48l95-87 112 87h53z"/><glyph glyph-name="Dcaron" unicode="Ď" horiz-adv-x="826" d="M210 700h260c68.667 0 127.5-11.667 176.5-35s86.167-56.333 111.5-99 38-92.334 38-149.001c0-80.667-18-152.667-54-216S655 88.333 589 53 446.667 0 360 0H70zM363 46c76.667 0 143.833 15.667 201.5 47s102 75 133 131S744 343.667 744 415c0 74-23.667 132.333-71 175s-117 64-209 64H252L130 46h233zm296.999 828l-140-118h-55l-113 118h48l95-87 112 87h53z"/><glyph glyph-name="dcaron" unicode="ď" horiz-adv-x="675" d="M666 742L518-.001h-48l20 102c-25.333-33.333-56.833-59.333-94.5-78s-79.5-28-125.5-28c-68 0-122.5 19.5-163.5 58.5S45 146.332 45 212.999c0 59.333 12.667 112.833 38 160.5s60.5 85 105.5 112 95.5 40.5 151.5 40.5c54 0 98.667-11.667 134-35s59.333-56.666 72-99.999l70 351h50zM405.5 74.999c37 22.667 66.167 54.167 87.5 94.5s32 85.833 32 136.5c0 55.333-16.167 98.333-48.5 129s-77.833 46-136.5 46c-46.667 0-88.5-11.5-125.5-34.5s-66.167-54.667-87.5-95-32-85.5-32-135.5c0-55.333 16.167-98.333 48.5-129s77.833-46 136.5-46c46.667 0 88.5 11.333 125.5 34zm360.5 692h43l-43-185h-37z"/><glyph glyph-name="Dcroat" unicode="Đ" horiz-adv-x="829" d="M213 700h260c68.667 0 127.5-11.667 176.5-35s86.167-56.333 111.5-99 38-92.334 38-149.001c0-80.667-18-152.667-54-216S658 88.333 592 53 449.667 0 363 0H73zM366 46c76.667 0 143.833 15.667 201.5 47s102 75 133 131S747 343.667 747 415c0 74-23.667 132.333-71 175s-117 64-209 64H255L133 46h233zM38.999 377h376l-9-43h-376z"/><glyph glyph-name="dcroat" unicode="đ" horiz-adv-x="675" d="M666 742L518-.001h-48l20 102c-25.333-33.333-56.833-59.333-94.5-78s-79.5-28-125.5-28c-68 0-122.5 19.5-163.5 58.5S45 146.332 45 212.999c0 59.333 12.667 112.833 38 160.5s60.5 85 105.5 112 95.5 40.5 151.5 40.5c54 0 98.667-11.667 134-35s59.333-56.666 72-99.999l70 351h50zM405.5 74.999c37 22.667 66.167 54.167 87.5 94.5s32 85.833 32 136.5c0 55.333-16.167 98.333-48.5 129s-77.833 46-136.5 46c-46.667 0-88.5-11.5-125.5-34.5s-66.167-54.667-87.5-95-32-85.5-32-135.5c0-55.333 16.167-98.333 48.5-129s77.833-46 136.5-46c46.667 0 88.5 11.333 125.5 34zm-38.5 576h385l-7-38H359z"/><glyph glyph-name="Emacron" unicode="Ē" horiz-adv-x="669" d="M252 654l-55-276h372l-9-45H188L130 46h432L552 0H70l140 700h468l-10-46H252zm71 180h294l-7-36H316z"/><glyph glyph-name="emacron" unicode="ē" horiz-adv-x="598" d="M96 250c-1.333-14.667-2.002-25.668-2.002-33.001 0-56.667 16.333-100.167 49-130.5s80.667-45.5 144-45.5c36.667 0 70.5 6.167 101.5 18.5s56.833 29.5 77.5 51.5l23-35c-23.333-25.333-53.166-45-89.499-59s-75.166-21-116.499-21c-74 0-132.167 19.333-174.5 58S45 146.333 45 215c0 58.667 12.333 111.667 37 159s58.667 84.5 102 111.5S276 526 330 526c68 0 122-19.333 162-58s60-92 60-160c0-16-2-35.333-6-58H96zm86.498 179.999c-41-35.333-67.833-82.334-80.5-141.001h402c.667 6 1 14.667 1 26 0 52.667-16 93.834-48 123.501s-74.667 44.5-128 44.5c-56.667 0-105.5-17.667-146.5-53zm47.5 253.999h294l-7-36h-294z"/><glyph glyph-name="Ebreve" unicode="Ĕ" horiz-adv-x="669" d="M252 654l-55-276h372l-9-45H188L130 46h432L552 0H70l140 700h468l-10-46H252zm115 132.5c-25.333 22.333-36.667 51.833-34 88.5h37c-1.333-27.333 7-49 25-65s42.333-24 73-24c29.333 0 54.833 8.167 76.5 24.5S579 848.333 583 875h38c-5.333-37.333-22.5-67-51.5-89s-63.833-33-104.5-33c-40 0-72.667 11.167-98 33.5z"/><glyph glyph-name="ebreve" unicode="ĕ" horiz-adv-x="598" d="M96 250c-1.333-14.667-2.002-25.668-2.002-33.001 0-56.667 16.333-100.167 49-130.5s80.667-45.5 144-45.5c36.667 0 70.5 6.167 101.5 18.5s56.833 29.5 77.5 51.5l23-35c-23.333-25.333-53.166-45-89.499-59s-75.166-21-116.499-21c-74 0-132.167 19.333-174.5 58S45 146.333 45 215c0 58.667 12.333 111.667 37 159s58.667 84.5 102 111.5S276 526 330 526c68 0 122-19.333 162-58s60-92 60-160c0-16-2-35.333-6-58H96zm86.498 179.999c-41-35.333-67.833-82.334-80.5-141.001h402c.667 6 1 14.667 1 26 0 52.667-16 93.834-48 123.501s-74.667 44.5-128 44.5c-56.667 0-105.5-17.667-146.5-53zm91.5 206.499c-25.333 22.333-36.667 51.833-34 88.5h37c-1.333-27.333 7-49 25-65s42.333-24 73-24c29.333 0 54.833 8.167 76.5 24.5s34.5 37.833 38.5 64.5h38c-5.333-37.333-22.5-67-51.5-89s-63.833-33-104.5-33c-40 0-72.667 11.167-98 33.5z"/><glyph glyph-name="Edotaccent" unicode="Ė" horiz-adv-x="669" d="M252 654l-55-276h372l-9-45H188L130 46h432L552 0H70l140 700h468l-10-46H252zm187.5 141c-7 6.667-10.5 15-10.5 25 0 12 4 22.167 12 30.5s17.667 12.5 29 12.5c10.667 0 19.5-3.5 26.5-10.5S507 837 507 827c0-12-4-22-12-30s-17.667-12-29-12c-10.667 0-19.5 3.333-26.5 10z"/><glyph glyph-name="edotaccent" unicode="ė" horiz-adv-x="598" d="M96 250c-1.333-14.667-2.002-25.668-2.002-33.001 0-56.667 16.333-100.167 49-130.5s80.667-45.5 144-45.5c36.667 0 70.5 6.167 101.5 18.5s56.833 29.5 77.5 51.5l23-35c-23.333-25.333-53.166-45-89.499-59s-75.166-21-116.499-21c-74 0-132.167 19.333-174.5 58S45 146.333 45 215c0 58.667 12.333 111.667 37 159s58.667 84.5 102 111.5S276 526 330 526c68 0 122-19.333 162-58s60-92 60-160c0-16-2-35.333-6-58H96zm86.498 179.999c-41-35.333-67.833-82.334-80.5-141.001h402c.667 6 1 14.667 1 26 0 52.667-16 93.834-48 123.501s-74.667 44.5-128 44.5c-56.667 0-105.5-17.667-146.5-53zm164 214.999c-7 6.667-10.5 15-10.5 25 0 12 4 22.167 12 30.5s17.667 12.5 29 12.5c10.667 0 19.5-3.5 26.5-10.5s10.5-15.5 10.5-25.5c0-12-4-22-12-30s-17.667-12-29-12c-10.667 0-19.5 3.333-26.5 10z"/><glyph glyph-name="Eogonek" unicode="Ę" horiz-adv-x="669" d="M252 654l-55-276h372l-9-45H188L130 46h432L552 0H70l140 700h468l-10-46H252zm133-850.5c-16 13.667-24 32.167-24 55.5 0 65.333 56.667 120.333 170 165l21-24C451.333-38.667 401-83.667 401-135c0-16 4.833-28.167 14.5-36.5S438.667-184 456-184c25.333 0 48.333 7.333 69 22l10-30c-26-16.667-54.667-25-86-25-26.667 0-48 6.833-64 20.5z"/><glyph glyph-name="eogonek" unicode="ę" horiz-adv-x="598" d="M97 250c-1.333-14.667-2-25.667-2-33 0-56.667 16.5-100.167 49.5-130.5S225.667 41 289 41c36.667 0 70.5 6.167 101.5 18.5S447 89 467 111l24-35c-12.667-14-27-25.667-43-35-56-35.333-96.167-67-120.5-95S291-108.667 291-134c0-16 4.667-28.333 14-37s22.333-13 39-13c24.667 0 47 7.333 67 22l9-30c-24-16.667-51.667-25-83-25-25.333 0-45.666 6.667-60.999 20s-23 32-23 56c0 50 32 98 96 144C328.334-1.667 306.667-4 284-4c-74 0-132.333 19.5-175 58.5S45 147 45 215c0 58.667 12.5 111.667 37.5 159s59.333 84.5 103 111.5S278 526 332 526c68 0 122-19.5 162-58.5s60-92.167 60-159.5c0-16-2-35.333-6-58H97zm86 180c-40.667-35.333-67.332-82.332-79.999-140.999h402c.667 6 1 14.667 1 26 0 53.333-16 94.666-48 123.999s-75 44-129 44c-56.667 0-105.334-17.667-146.001-53z"/><glyph glyph-name="Ecaron" unicode="Ě" horiz-adv-x="669" d="M252 654l-55-276h372l-9-45H188L130 46h432L552 0H70l140 700h468l-10-46H252zm379 221L491 757h-55L323 875h48l95-87 112 87h53z"/><glyph glyph-name="ecaron" unicode="ě" horiz-adv-x="598" d="M96 250c-1.333-14.667-2.002-25.668-2.002-33.001 0-56.667 16.333-100.167 49-130.5s80.667-45.5 144-45.5c36.667 0 70.5 6.167 101.5 18.5s56.833 29.5 77.5 51.5l23-35c-23.333-25.333-53.166-45-89.499-59s-75.166-21-116.499-21c-74 0-132.167 19.333-174.5 58S45 146.333 45 215c0 58.667 12.333 111.667 37 159s58.667 84.5 102 111.5S276 526 330 526c68 0 122-19.333 162-58s60-92 60-160c0-16-2-35.333-6-58H96zm86.498 179.999c-41-35.333-67.833-82.334-80.5-141.001h402c.667 6 1 14.667 1 26 0 52.667-16 93.834-48 123.501s-74.667 44.5-128 44.5c-56.667 0-105.5-17.667-146.5-53zm355.5 294.999l-140-118h-55l-113 118h48l95-87 112 87h53z"/><glyph glyph-name="Gcircumflex" unicode="Ĝ" horiz-adv-x="773" d="M640.5 680c43-16.667 77.167-40.665 102.5-71.998l-36-32c-46.667 54.667-119.334 82-218.001 82-73.333 0-138.166-16.667-194.499-50s-99.833-78.5-130.5-135.5-46-119.5-46-187.5c0-74.667 23.833-133.834 71.5-177.501s116.167-65.5 205.5-65.5c73.333 0 138.666 21.333 195.999 64l49 241h49l-53-263c-31.333-28-68.5-49.833-111.5-65.5s-88.167-23.5-135.5-23.5c-67.333 0-125.166 12-173.499 36s-85.166 57.667-110.499 101-38 93.666-38 150.999c0 76.667 17.333 147.167 52 211.5S203.168 610 267.501 648 406.667 705 492 705c56 0 105.5-8.333 148.5-25zM610 756.002l-95 87-113-87h-52l140 118h55l113-118h-48z"/><glyph glyph-name="gcircumflex" unicode="ĝ" horiz-adv-x="682" d="M629 522L536.001 55.999c-17.333-88.667-50-153.167-98-193.5s-114.333-60.5-199-60.5c-48 0-91.333 7.167-130 21.5s-70.667 34.5-96 60.5l32 37c21.333-23.333 49-41.5 83-54.5s72.333-19.5 115-19.5c69.333 0 123.666 16.333 162.999 49S471.666-20.667 484.999 48l16 78c-26-34-58.333-60.333-97-79s-81.667-28-129-28c-70 0-125.5 18.667-166.5 56s-61.5 88-61.5 152c0 56 12.667 106.833 38 152.5S145.665 461 190.998 487s96.333 39 153 39c54.667 0 100.334-11.667 137.001-35S542.333 433.667 555 389l26 133h48zM411.001 96.499c37.333 21.667 66.666 51.667 87.999 90s32 81.5 32 129.5c0 52-16.5 92.5-49.5 121.5s-78.833 43.5-137.5 43.5c-47.333 0-89.666-10.833-126.999-32.5s-66.666-51.667-87.999-90-32-81.5-32-129.5c0-52 16.5-92.5 49.5-121.5s78.833-43.5 137.5-43.5c47.333 0 89.666 10.833 126.999 32.5zm84 510.5l-95 87-113-87h-52l140 118h55l113-118h-48z"/><glyph glyph-name="Gbreve" unicode="Ğ" horiz-adv-x="773" d="M640.5 680c43-16.667 77.167-40.665 102.5-71.998l-36-32c-46.667 54.667-119.334 82-218.001 82-73.333 0-138.166-16.667-194.499-50s-99.833-78.5-130.5-135.5-46-119.5-46-187.5c0-74.667 23.833-133.834 71.5-177.501s116.167-65.5 205.5-65.5c73.333 0 138.666 21.333 195.999 64l49 241h49l-53-263c-31.333-28-68.5-49.833-111.5-65.5s-88.167-23.5-135.5-23.5c-67.333 0-125.166 12-173.499 36s-85.166 57.667-110.499 101-38 93.666-38 150.999c0 76.667 17.333 147.167 52 211.5S203.168 610 267.501 648 406.667 705 492 705c56 0 105.5-8.333 148.5-25zM416 785.502c-25.333 22.333-36.667 51.833-34 88.5h37c-1.333-27.333 7-49 25-65s42.333-24 73-24c29.333 0 54.833 8.167 76.5 24.5s34.5 37.833 38.5 64.5h38c-5.333-37.333-22.5-67-51.5-89s-63.833-33-104.5-33c-40 0-72.667 11.167-98 33.5z"/><glyph glyph-name="gbreve" unicode="ğ" horiz-adv-x="682" d="M629 522L536.001 55.999c-17.333-88.667-50-153.167-98-193.5s-114.333-60.5-199-60.5c-48 0-91.333 7.167-130 21.5s-70.667 34.5-96 60.5l32 37c21.333-23.333 49-41.5 83-54.5s72.333-19.5 115-19.5c69.333 0 123.666 16.333 162.999 49S471.666-20.667 484.999 48l16 78c-26-34-58.333-60.333-97-79s-81.667-28-129-28c-70 0-125.5 18.667-166.5 56s-61.5 88-61.5 152c0 56 12.667 106.833 38 152.5S145.665 461 190.998 487s96.333 39 153 39c54.667 0 100.334-11.667 137.001-35S542.333 433.667 555 389l26 133h48zM411.001 96.499c37.333 21.667 66.666 51.667 87.999 90s32 81.5 32 129.5c0 52-16.5 92.5-49.5 121.5s-78.833 43.5-137.5 43.5c-47.333 0-89.666-10.833-126.999-32.5s-66.666-51.667-87.999-90-32-81.5-32-129.5c0-52 16.5-92.5 49.5-121.5s78.833-43.5 137.5-43.5c47.333 0 89.666 10.833 126.999 32.5zm-110 540c-25.333 22.333-36.667 51.833-34 88.5h37c-1.333-27.333 7-49 25-65s42.333-24 73-24c29.333 0 54.833 8.167 76.5 24.5s34.5 37.833 38.5 64.5h38c-5.333-37.333-22.5-67-51.5-89s-63.833-33-104.5-33c-40 0-72.667 11.167-98 33.5z"/><glyph glyph-name="Gdotaccent" unicode="Ġ" horiz-adv-x="773" d="M640.5 680c43-16.667 77.167-40.665 102.5-71.998l-36-32c-46.667 54.667-119.334 82-218.001 82-73.333 0-138.166-16.667-194.499-50s-99.833-78.5-130.5-135.5-46-119.5-46-187.5c0-74.667 23.833-133.834 71.5-177.501s116.167-65.5 205.5-65.5c73.333 0 138.666 21.333 195.999 64l49 241h49l-53-263c-31.333-28-68.5-49.833-111.5-65.5s-88.167-23.5-135.5-23.5c-67.333 0-125.166 12-173.499 36s-85.166 57.667-110.499 101-38 93.666-38 150.999c0 76.667 17.333 147.167 52 211.5S203.168 610 267.501 648 406.667 705 492 705c56 0 105.5-8.333 148.5-25zm-152 114.002c-7 6.667-10.5 15-10.5 25 0 12 4 22.167 12 30.5s17.667 12.5 29 12.5c10.667 0 19.5-3.5 26.5-10.5s10.5-15.5 10.5-25.5c0-12-4-22-12-30s-17.667-12-29-12c-10.667 0-19.5 3.333-26.5 10z"/><glyph glyph-name="gdotaccent" unicode="ġ" horiz-adv-x="682" d="M629 522L536.001 55.999c-17.333-88.667-50-153.167-98-193.5s-114.333-60.5-199-60.5c-48 0-91.333 7.167-130 21.5s-70.667 34.5-96 60.5l32 37c21.333-23.333 49-41.5 83-54.5s72.333-19.5 115-19.5c69.333 0 123.666 16.333 162.999 49S471.666-20.667 484.999 48l16 78c-26-34-58.333-60.333-97-79s-81.667-28-129-28c-70 0-125.5 18.667-166.5 56s-61.5 88-61.5 152c0 56 12.667 106.833 38 152.5S145.665 461 190.998 487s96.333 39 153 39c54.667 0 100.334-11.667 137.001-35S542.333 433.667 555 389l26 133h48zM411.001 96.499c37.333 21.667 66.666 51.667 87.999 90s32 81.5 32 129.5c0 52-16.5 92.5-49.5 121.5s-78.833 43.5-137.5 43.5c-47.333 0-89.666-10.833-126.999-32.5s-66.666-51.667-87.999-90-32-81.5-32-129.5c0-52 16.5-92.5 49.5-121.5s78.833-43.5 137.5-43.5c47.333 0 89.666 10.833 126.999 32.5zm-37.5 548.5c-7 6.667-10.5 15-10.5 25 0 12 4 22.167 12 30.5s17.667 12.5 29 12.5c10.667 0 19.5-3.5 26.5-10.5s10.5-15.5 10.5-25.5c0-12-4-22-12-30s-17.667-12-29-12c-10.667 0-19.5 3.333-26.5 10z"/><glyph glyph-name="Gcommaaccent" unicode="Ģ" horiz-adv-x="773" d="M640.5 680c43-16.667 77.167-40.665 102.5-71.998l-36-32c-46.667 54.667-119.334 82-218.001 82-73.333 0-138.166-16.667-194.499-50s-99.833-78.5-130.5-135.5-46-119.5-46-187.5c0-74.667 23.833-133.834 71.5-177.501s116.167-65.5 205.5-65.5c73.333 0 138.666 21.333 195.999 64l49 241h49l-53-263c-31.333-28-68.5-49.833-111.5-65.5s-88.167-23.5-135.5-23.5c-67.333 0-125.166 12-173.499 36s-85.166 57.667-110.499 101-38 93.666-38 150.999c0 76.667 17.333 147.167 52 211.5S203.168 610 267.501 648 406.667 705 492 705c56 0 105.5-8.333 148.5-25zm-293-801.498c6.333-6.333 9.499-13.834 9.499-22.501 0-6.667-1-12.667-3-18s-5.667-12.333-11-21l-42-78h-29l37 83c-7.333 2-13.166 5.833-17.499 11.5s-6.5 11.834-6.5 18.501c0 10 3.333 18.5 10 25.5s15.334 10.5 26.001 10.5c11.333 0 20.166-3.167 26.499-9.5z"/><glyph glyph-name="gcommaaccent" unicode="ģ" horiz-adv-x="682" d="M629 522L536.001 55.999c-17.333-88.667-50-153.167-98-193.5s-114.333-60.5-199-60.5c-48 0-91.333 7.167-130 21.5s-70.667 34.5-96 60.5l32 37c21.333-23.333 49-41.5 83-54.5s72.333-19.5 115-19.5c69.333 0 123.666 16.333 162.999 49S471.666-20.667 484.999 48l16 78c-26-34-58.333-60.333-97-79s-81.667-28-129-28c-70 0-125.5 18.667-166.5 56s-61.5 88-61.5 152c0 56 12.667 106.833 38 152.5S145.665 461 190.998 487s96.333 39 153 39c54.667 0 100.334-11.667 137.001-35S542.333 433.667 555 389l26 133h48zM411.001 96.499c37.333 21.667 66.666 51.667 87.999 90s32 81.5 32 129.5c0 52-16.5 92.5-49.5 121.5s-78.833 43.5-137.5 43.5c-47.333 0-89.666-10.833-126.999-32.5s-66.666-51.667-87.999-90-32-81.5-32-129.5c0-52 16.5-92.5 49.5-121.5s78.833-43.5 137.5-43.5c47.333 0 89.666 10.833 126.999 32.5zm16.5 561c4.333-5 6.501-11.167 6.501-18.5 0-10-3.5-18.5-10.5-25.5s-16.5-10.5-28.5-10.5c-11.333 0-20.333 3.167-27 9.5s-10 13.833-10 22.5c0 6.667 1 12.667 3 18s5.667 12.333 11 21l53 98h32l-47-104c7.333-2 13.166-5.5 17.499-10.5z"/><glyph glyph-name="Hcircumflex" unicode="Ĥ" horiz-adv-x="814" d="M780 700L640 0h-51l66 332H187L121 0H70l140 700h51l-64-321h468l64 321h51zm-168 57l-95 87-113-87h-52l140 118h55l113-118h-48z"/><glyph glyph-name="hcircumflex" unicode="ĥ" horiz-adv-x="673" d="M539 481.5c32-29.667 48.001-70.499 48.001-122.499 0-18-2-37-6-57l-60-302h-50l60 302c3.333 15.333 5 32 5 50 0 41.333-12.5 73.166-37.5 95.499s-61.5 33.5-109.5 33.5c-60 0-110-16.833-150-50.5s-66.333-82.5-79-146.5l-57-284h-50l148 742h50l-63-317C237.334 492.333 308.667 526 402 526c59.333 0 105-14.833 137-44.5zM343.001 799.001l-95 87-113-87h-52l140 118h55l113-118h-48z"/><glyph glyph-name="Hbar" unicode="Ħ" horiz-adv-x="820" d="M783 700L643 0h-51l66 332H190L124 0H73l140 700h51l-64-321h468l64 321h51zM77 565h788l-8-42H69z"/><glyph glyph-name="hbar" unicode="ħ" horiz-adv-x="673" d="M539 481.5c32-29.667 48.001-70.499 48.001-122.499 0-18-2-37-6-57l-60-302h-50l60 302c3.333 15.333 5 32 5 50 0 41.333-12.5 73.166-37.5 95.499s-61.5 33.5-109.5 33.5c-60 0-110-16.833-150-50.5s-66.333-82.5-79-146.5l-57-284h-50l148 742h50l-63-317C237.334 492.333 308.667 526 402 526c59.333 0 105-14.833 137-44.5zM78.001 651.001h385l-7-38h-386z"/><glyph glyph-name="Itilde" unicode="Ĩ" horiz-adv-x="295" d="M210 700h51L121 0H70zm74.5 74.5c-10.333 6.333-22.502 15.832-36.502 28.499-10.667 10-20.167 17.667-28.5 23s-17.166 8-26.499 8c-14.667 0-27.167-5.833-37.5-17.5s-17.166-27.5-20.499-47.5h-33c4.667 30.667 15.167 55 31.5 73s36.5 27 60.5 27c14 0 26.167-3.167 36.5-9.5s22.5-15.833 36.5-28.5c10.667-10 20.167-17.667 28.5-23s17.166-8 26.499-8c14.667 0 27.334 5.833 38.001 17.5s17.667 26.834 21 45.501h33c-5.333-30-16-53.833-32-71.5S346 765 322 765c-14.667 0-27.167 3.167-37.5 9.5z"/><glyph glyph-name="itilde" unicode="ĩ" horiz-adv-x="261" d="M157 522h50L103 0H53zm71 103.5c-9.333 7-19.335 16.834-30.002 29.501-7.333 9.333-14 16.5-20 21.5s-12.667 7.5-20 7.5c-12 0-22.167-5.833-30.5-17.5s-13.5-27.5-15.5-47.5h-33c2.667 30.667 11.334 55 26.001 73s33 27 55 27c13.333 0 24.666-3.333 33.999-10s19-16.334 29-29.001c9.333-10.667 16.5-18.167 21.5-22.5s11.167-6.5 18.5-6.5c12 0 22.333 5.667 31 17s14 26.333 16 45h33c-3.333-30-12.166-53.833-26.499-71.5s-32.5-26.5-54.5-26.5c-13.333 0-24.666 3.5-33.999 10.5z"/><glyph glyph-name="Imacron" unicode="Ī" horiz-adv-x="295" d="M210 700h51L121 0H70zm-68 135h239l-7-36H135z"/><glyph glyph-name="imacron" unicode="ī" horiz-adv-x="261" d="M157 522h50L103 0H53zM95 684h239l-7-36H88z"/><glyph glyph-name="Ibreve" unicode="Ĭ" horiz-adv-x="295" d="M210 700h51L121 0H70zm-52 86.5c-25.333 22.333-36.667 51.833-34 88.5h37c-1.333-27.333 7-49 25-65s42.333-24 73-24c29.333 0 54.833 8.167 76.5 24.5S370 848.333 374 875h38c-5.333-37.333-22.5-67-51.5-89s-63.833-33-104.5-33c-40 0-72.667 11.167-98 33.5z"/><glyph glyph-name="ibreve" unicode="ĭ" horiz-adv-x="261" d="M157 522h50L103 0H53zm-25.5 109c-19.667 18.667-29.501 43.667-29.501 75 0 8.667.333 15 1 19h35c-.667-3.333-1-8.333-1-15 0-23.333 6.5-41.5 19.5-54.5s31.167-19.5 54.5-19.5c54.667 0 85.667 29.667 93 89h37c-4.667-38.667-18.167-68.667-40.5-90S248.333 603 211 603c-33.333 0-59.833 9.333-79.5 28z"/><glyph glyph-name="Iogonek" unicode="Į" horiz-adv-x="295" d="M210 700h51L121 0H70zM15.5-198C3.167-185.333-3.002-168.334-3.002-147.001c0 30.667 9.833 60.5 29.5 89.5s45.5 55.167 77.5 78.5l17-21C93.665-23.334 72.832-47.167 58.499-71.5s-21.5-47.833-21.5-70.5c0-14 3.333-24.5 10-31.5s16-10.5 28-10.5c13.333 0 26.333 5.333 39 16l9-28c-14-14-33-21-57-21-21.333 0-38.166 6.333-50.499 19z"/><glyph glyph-name="iogonek" unicode="į" horiz-adv-x="261" d="M157 522h50L103 0H53zm28 138c-7.333 7.333-11 16-11 26 0 12 4.167 22.333 12.5 31s18.833 13 31.5 13c10.667 0 19.834-3.667 27.501-11s11.5-16 11.5-26c0-12.667-4.333-23.167-13-31.5S224.667 649 212 649c-10.667 0-19.667 3.667-27 11zM-2.5-198c-12.333 12.667-18.502 29.666-18.502 50.999 0 30.667 9.833 60.5 29.5 89.5s45.5 55.167 77.5 78.5l17-21C75.665-23.334 54.832-47.167 40.499-71.5s-21.5-47.833-21.5-70.5c0-14 3.333-24.5 10-31.5s16-10.5 28-10.5c13.333 0 26.333 5.333 39 16l9-28c-14-14-33-21-57-21-21.333 0-38.166 6.333-50.499 19z"/><glyph glyph-name="Idotaccent" unicode="İ" horiz-adv-x="295" d="M210 700h51L121 0H70zm20.5 95c-7 6.667-10.5 15-10.5 25 0 12 4 22.167 12 30.5s17.667 12.5 29 12.5c10.667 0 19.5-3.5 26.5-10.5S298 837 298 827c0-12-4-22-12-30s-17.667-12-29-12c-10.667 0-19.5 3.333-26.5 10z"/><glyph glyph-name="dotlessi" unicode="ı" horiz-adv-x="261" d="M157 522h50L103 0H53z"/><glyph glyph-name="IJ" unicode="Ĳ" horiz-adv-x="716" d="M166 13c-38 12-70.666 28.334-97.999 49.001l28 42c26-20 55.833-35.333 89.5-46s69.834-16 108.501-16c72.667 0 130.167 20.5 172.5 61.5s72.166 105.5 89.499 193.5l80 403h52l-82-408c-20-100.667-55.833-175.334-107.5-224.001S377.667-5 291-5c-45.333 0-87 6-125 18zm38.001 687.001h51l-81-403h-51z"/><glyph glyph-name="ij" unicode="ĳ" horiz-adv-x="527" d="M157 522h50L103 0H53zm29 138c-7.333 7.333-11 16-11 26 0 12 4.167 22.333 12.5 31s18.833 13 31.5 13c10.667 0 19.834-3.667 27.501-11s11.5-16 11.5-26c0-12.667-4.333-23.167-13-31.5S225.667 649 213 649c-10.667 0-19.667 3.667-27 11zm-50.5-849c-18.333 6-33.832 14.333-46.499 25l26 38c21.333-19.333 48.666-29 81.999-29 30.667 0 55.167 8.667 73.5 26s31.166 44.333 38.499 81l114 570h50l-115-574c-9.333-49.333-27.5-86-54.5-110s-63.167-36-108.5-36c-21.333 0-41.166 3-59.499 9zm315.501 849c-7.333 7.333-11 16-11 26 0 12 4.167 22.333 12.5 31s18.833 13 31.5 13c10.667 0 19.834-3.667 27.501-11s11.5-16 11.5-26c0-12.667-4.333-23.167-13-31.5S490.668 649 478.001 649c-10.667 0-19.667 3.667-27 11z"/><glyph glyph-name="Jcircumflex" unicode="Ĵ" horiz-adv-x="491" d="M35.5 22C3.833 40-19.332 64.333-33.999 95l38 32c12.667-26.667 31.667-47.667 57-63s55-23 89-23c44 0 79.167 12.5 105.5 37.5s45.5 66.833 57.5 125.5l90 450h-258l9 46h309l-100-499c-14.667-74-39.5-126.833-74.5-158.5S206.334-5 147.001-5C104.334-5 67.167 4 35.5 22zm389.502 735l-95 87-113-87h-52l140 118h55l113-118h-48z"/><glyph glyph-name="jcircumflex" unicode="ĵ" horiz-adv-x="266" d="M-125.5-189c-18.333 6-33.832 14.333-46.499 25l26 38c21.333-19.333 48.666-29 81.999-29 30.667 0 55.167 8.667 73.5 26s31.166 44.333 38.499 81l114 570h50l-115-574c-9.333-49.333-27.5-86-54.5-110s-63.167-36-108.5-36c-21.333 0-41.166 3-59.499 9zm411.501 796l-71 86-90-86h-50l116 118h53l89-118h-47z"/><glyph glyph-name="Kcommaaccent" unicode="Ķ" horiz-adv-x="703" d="M383 376L642 0h-59L346 345 158 184 121 0H70l140 700h51l-89-445 521 445h69zm-66.5-497.5c6.333-6.333 9.499-13.834 9.499-22.501 0-6.667-1-12.667-3-18s-5.667-12.333-11-21l-42-78h-29l37 83c-7.333 2-13.166 5.833-17.499 11.5S254-154.667 254-148c0 10 3.333 18.5 10 25.5s15.334 10.5 26.001 10.5c11.333 0 20.166-3.167 26.499-9.5z"/><glyph glyph-name="kcommaaccent" unicode="ķ" horiz-adv-x="576" d="M335 309L523 0h-58L296 279 134 154 103 0H53l148 742h50L147 219l389 303h73zm-81.5-430.5c6.333-6.333 9.499-13.834 9.499-22.501 0-6.667-1-12.667-3-18s-5.667-12.333-11-21l-42-78h-29l37 83c-7.333 2-13.166 5.833-17.499 11.5S191-154.667 191-148c0 10 3.333 18.5 10 25.5s15.334 10.5 26.001 10.5c11.333 0 20.166-3.167 26.499-9.5z"/><glyph glyph-name="kgreenlandic" unicode="ĸ" horiz-adv-x="576" d="M335 309L523 0h-58L296 279 134 154 103 0H53l104 522h50l-60-303 389 303h73z"/><glyph glyph-name="Lacute" unicode="Ĺ" horiz-adv-x="585" d="M210 700h51L130 46h403L523 0H70zm130 175h75L245 757h-57z"/><glyph glyph-name="lacute" unicode="ĺ" horiz-adv-x="261" d="M201 742h50L103 0H53zm129 175h75L235 799h-57z"/><glyph glyph-name="Lcommaaccent" unicode="Ļ" horiz-adv-x="585" d="M210 700h51L130 46h403L523 0H70zm93.5-821.5c6.333-6.333 9.499-13.834 9.499-22.501 0-6.667-1-12.667-3-18s-5.667-12.333-11-21l-42-78h-29l37 83c-7.333 2-13.166 5.833-17.499 11.5S241-154.667 241-148c0 10 3.333 18.5 10 25.5s15.334 10.5 26.001 10.5c11.333 0 20.166-3.167 26.499-9.5z"/><glyph glyph-name="lcommaaccent" unicode="ļ" horiz-adv-x="261" d="M201 742h50L103 0H53zM74.5-121.5c6.333-6.333 9.499-13.834 9.499-22.501 0-6.667-1-12.667-3-18s-5.667-12.333-11-21l-42-78h-29l37 83c-7.333 2-13.166 5.833-17.499 11.5S12-154.667 12-148c0 10 3.333 18.5 10 25.5S37.334-112 48.001-112c11.333 0 20.166-3.167 26.499-9.5z"/><glyph glyph-name="Lcaron" unicode="Ľ" horiz-adv-x="585" d="M210 700h51L130 46h403L523 0H70zm326 25h43l-43-185h-37z"/><glyph glyph-name="lcaron" unicode="ľ" horiz-adv-x="261" d="M201 742h50L103 0H53zm151 25h43l-43-185h-37z"/><glyph glyph-name="Ldot" unicode="Ŀ" horiz-adv-x="585" d="M210 700h51L130 46h403L523 0H70zm225-355.5c-7.333 7.667-11 16.834-11 27.501 0 12 4 22 12 30s17.667 12 29 12c10.667 0 19.667-3.833 27-11.5s11-16.834 11-27.501c0-12-4-22-12-30s-17.667-12-29-12c-10.667 0-19.667 3.833-27 11.5z"/><glyph glyph-name="ldot" unicode="ŀ" horiz-adv-x="287" d="M201 742h50L103 0H53zm65.5-417.5c-7 7-10.499 15.833-10.499 26.5 0 11.333 3.667 20.833 11 28.5s16.333 11.5 27 11.5c10 0 18.667-3.5 26-10.5s11-15.833 11-26.5c0-11.333-3.833-20.833-11.5-28.5S302.667 314 292 314c-10 0-18.5 3.5-25.5 10.5z"/><glyph glyph-name="Lslash" unicode="Ł" horiz-adv-x="588" d="M213 700h51L133 46h403L526 0H73zM34 299l311 203 22-33L56 266z"/><glyph glyph-name="lslash" unicode="ł" horiz-adv-x="267" d="M204 742h50L106 0H56zM15 286l255 166 20-32L35 254z"/><glyph glyph-name="Nacute" unicode="Ń" horiz-adv-x="814" d="M780 700L640 0h-43L244 616 121 0H70l140 700h42L606 84l123 616h51zM599 875h75L504 757h-57z"/><glyph glyph-name="nacute" unicode="ń" horiz-adv-x="673" d="M539 481.5c32-29.667 48-70.499 48-122.499 0-18-2-37-6-57l-60-302h-50l60 302c3.333 15.333 5 32 5 50 0 41.333-12.5 73.166-37.5 95.499S437 481 389 481c-60 0-110-16.833-150-50.5S172.667 348 160 284L103 0H53l104 522h49l-20-99c24.667 34.667 55.5 60.5 92.5 77.5S356.667 526 402 526c59.333 0 105-14.833 137-44.5zm-39 243.501h75l-170-118h-57z"/><glyph glyph-name="Ncommaaccent" unicode="Ņ" horiz-adv-x="814" d="M780 700L640 0h-43L244 616 121 0H70l140 700h42L606 84l123 616h51zM351.5-121.5c6.333-6.333 9.499-13.834 9.499-22.501 0-6.667-1-12.667-3-18s-5.667-12.333-11-21l-42-78h-29l37 83c-7.333 2-13.166 5.833-17.499 11.5S289-154.667 289-148c0 10 3.333 18.5 10 25.5s15.334 10.5 26.001 10.5c11.333 0 20.166-3.167 26.499-9.5z"/><glyph glyph-name="ncommaaccent" unicode="ņ" horiz-adv-x="673" d="M539 481.5c32-29.667 48-70.499 48-122.499 0-18-2-37-6-57l-60-302h-50l60 302c3.333 15.333 5 32 5 50 0 41.333-12.5 73.166-37.5 95.499S437 481 389 481c-60 0-110-16.833-150-50.5S172.667 348 160 284L103 0H53l104 522h49l-20-99c24.667 34.667 55.5 60.5 92.5 77.5S356.667 526 402 526c59.333 0 105-14.833 137-44.5zM282.5-121.499c6.333-6.333 9.499-13.834 9.499-22.501 0-6.667-1-12.667-3-18s-5.667-12.333-11-21l-42-78h-29l37 83c-7.333 2-13.166 5.833-17.499 11.5s-6.5 11.834-6.5 18.501c0 10 3.333 18.5 10 25.5s15.334 10.5 26.001 10.5c11.333 0 20.166-3.167 26.499-9.5z"/><glyph glyph-name="Ncaron" unicode="Ň" horiz-adv-x="814" d="M780 700L640 0h-43L244 616 121 0H70l140 700h42L606 84l123 616h51zm-98 175L542 757h-55L374 875h48l95-87 112 87h53z"/><glyph glyph-name="ncaron" unicode="ň" horiz-adv-x="673" d="M539 481.5c32-29.667 48-70.499 48-122.499 0-18-2-37-6-57l-60-302h-50l60 302c3.333 15.333 5 32 5 50 0 41.333-12.5 73.166-37.5 95.499S437 481 389 481c-60 0-110-16.833-150-50.5S172.667 348 160 284L103 0H53l104 522h49l-20-99c24.667 34.667 55.5 60.5 92.5 77.5S356.667 526 402 526c59.333 0 105-14.833 137-44.5zm44 243.501l-140-118h-55l-113 118h48l95-87 112 87h53z"/><glyph glyph-name="napostrophe" unicode="ŉ" horiz-adv-x="694" d="M160.38 700h39l-70.57-260h-32zM560 481.5c32-29.667 48-70.499 48-122.499 0-18-2-37-6-57l-60-302h-50l60 302c3.333 15.333 5 32 5 50 0 41.333-12.5 73.166-37.5 95.499S458 481 410 481c-60 0-110-16.833-150-50.5S193.667 348 181 284L124 0H74l104 522h49l-20-99c24.667 34.667 55.5 60.5 92.5 77.5S377.667 526 423 526c59.333 0 105-14.833 137-44.5z"/><glyph glyph-name="Eng" unicode="Ŋ" horiz-adv-x="814" d="M780 700L642 13c-15.333-76.667-40.333-131-75-163s-82-48-142-48c-38 0-72.5 8.333-103.5 25s-53.833 39-68.5 67l34 33c12.667-24.667 31.167-44.167 55.5-58.5S395.333-153 428-153c44 0 79 12.5 105 37.5S578-49 590 9l1 3-347 604L121 0H70l140 700h42L605 86l124 614h51z"/><glyph glyph-name="eng" unicode="ŋ" horiz-adv-x="673" d="M539 481.5c32-29.667 48.001-70.499 48.001-122.499 0-18-2-37-6-57l-71-354c-9.333-49.333-27.5-86-54.5-110s-63.167-36-108.5-36c-21.333 0-41.166 3-59.499 9s-33.833 14.333-46.5 25l26 38c21.333-19.333 48.666-29 81.999-29 30.667 0 55.167 8.5 73.5 25.5s31.166 43.833 38.499 80.5l70 351c3.333 15.333 5 32 5 50 0 41.333-12.5 73.166-37.5 95.499S437 481 389 481c-60 0-110-16.833-150-50.5S172.667 348 160 284L103 0H53l104 522h49l-20-99c24.667 34.667 55.5 60.5 92.5 77.5S356.667 526 402 526c59.333 0 105-14.833 137-44.5z"/><glyph glyph-name="Omacron" unicode="Ō" horiz-adv-x="838" d="M214 31c-48 24-84.498 57.667-109.498 101s-37.5 93.666-37.5 150.999c0 76 17.167 146.167 51.5 210.5s83.333 115.666 147 153.999 137.167 57.5 220.5 57.5c67.333 0 125.166-12 173.499-36s85-57.667 110-101 37.5-93.666 37.5-150.999c0-76-17.333-146.167-52-210.5S671.167 90.833 607.5 52.5 470.333-5 387-5C319.667-5 262 7 214 31zm368.002 61.5c55.333 33.667 97.999 78.999 127.999 135.999s45 119.167 45 186.5c0 74.667-23.5 133.834-70.5 177.501s-114.5 65.5-202.5 65.5c-71.333 0-134.666-16.833-189.999-50.5s-98.166-79-128.499-136-45.5-119.167-45.5-186.5c0-74 23.667-133 71-177s115-66 203-66c71.333 0 134.666 16.833 189.999 50.5zM385.001 833.999h294l-7-36h-294z"/><glyph glyph-name="omacron" unicode="ō" horiz-adv-x="620" d="M107.5 55C65.833 94.333 45 147.002 45 213.002c0 59.333 12.833 112.666 38.5 159.999S144.667 457.667 190 485s96.666 41 153.999 41c70.667 0 126.834-19.5 168.501-58.5S575 375.667 575 309c0-59.333-12.833-112.833-38.5-160.5s-61.167-85-106.5-112S333.334-4 276.001-4C205.334-4 149.167 15.667 107.5 55zm298 20.002c37 22.667 66.167 54.167 87.5 94.5s32 85.833 32 136.5c0 55.333-16.167 98.333-48.5 129s-77.833 46-136.5 46c-46.667 0-88.5-11.5-125.5-34.5s-66.167-54.667-87.5-95-32-85.5-32-135.5c0-55.333 16.167-98.333 48.5-129s77.833-46 136.5-46c46.667 0 88.5 11.333 125.5 34zm-159.5 609h294l-7-36H239z"/><glyph glyph-name="Obreve" unicode="Ŏ" horiz-adv-x="838" d="M214 31c-48 24-84.498 57.667-109.498 101s-37.5 93.666-37.5 150.999c0 76 17.167 146.167 51.5 210.5s83.333 115.666 147 153.999 137.167 57.5 220.5 57.5c67.333 0 125.166-12 173.499-36s85-57.667 110-101 37.5-93.666 37.5-150.999c0-76-17.333-146.167-52-210.5S671.167 90.833 607.5 52.5 470.333-5 387-5C319.667-5 262 7 214 31zm368.002 61.5c55.333 33.667 97.999 78.999 127.999 135.999s45 119.167 45 186.5c0 74.667-23.5 133.834-70.5 177.501s-114.5 65.5-202.5 65.5c-71.333 0-134.666-16.833-189.999-50.5s-98.166-79-128.499-136-45.5-119.167-45.5-186.5c0-74 23.667-133 71-177s115-66 203-66c71.333 0 134.666 16.833 189.999 50.5zM429.001 786.499c-25.333 22.333-36.667 51.833-34 88.5h37c-1.333-27.333 7-49 25-65s42.333-24 73-24c29.333 0 54.833 8.167 76.5 24.5s34.5 37.833 38.5 64.5h38c-5.333-37.333-22.5-67-51.5-89s-63.833-33-104.5-33c-40 0-72.667 11.167-98 33.5z"/><glyph glyph-name="obreve" unicode="ŏ" horiz-adv-x="620" d="M107.5 55C65.833 94.333 45 147.002 45 213.002c0 59.333 12.833 112.666 38.5 159.999S144.667 457.667 190 485s96.666 41 153.999 41c70.667 0 126.834-19.5 168.501-58.5S575 375.667 575 309c0-59.333-12.833-112.833-38.5-160.5s-61.167-85-106.5-112S333.334-4 276.001-4C205.334-4 149.167 15.667 107.5 55zm298 20.002c37 22.667 66.167 54.167 87.5 94.5s32 85.833 32 136.5c0 55.333-16.167 98.333-48.5 129s-77.833 46-136.5 46c-46.667 0-88.5-11.5-125.5-34.5s-66.167-54.667-87.5-95-32-85.5-32-135.5c0-55.333 16.167-98.333 48.5-129s77.833-46 136.5-46c46.667 0 88.5 11.333 125.5 34zM290 636.502c-25.333 22.333-36.667 51.833-34 88.5h37c-1.333-27.333 7-49 25-65s42.333-24 73-24c29.333 0 54.833 8.167 76.5 24.5s34.5 37.833 38.5 64.5h38c-5.333-37.333-22.5-67-51.5-89s-63.833-33-104.5-33c-40 0-72.667 11.167-98 33.5z"/><glyph glyph-name="Ohungarumlaut" unicode="Ő" horiz-adv-x="838" d="M214 31c-48 24-84.498 57.667-109.498 101s-37.5 93.666-37.5 150.999c0 76 17.167 146.167 51.5 210.5s83.333 115.666 147 153.999 137.167 57.5 220.5 57.5c67.333 0 125.166-12 173.499-36s85-57.667 110-101 37.5-93.666 37.5-150.999c0-76-17.333-146.167-52-210.5S671.167 90.833 607.5 52.5 470.333-5 387-5C319.667-5 262 7 214 31zm368.002 61.5c55.333 33.667 97.999 78.999 127.999 135.999s45 119.167 45 186.5c0 74.667-23.5 133.834-70.5 177.501s-114.5 65.5-202.5 65.5c-71.333 0-134.666-16.833-189.999-50.5s-98.166-79-128.499-136-45.5-119.167-45.5-186.5c0-74 23.667-133 71-177s115-66 203-66c71.333 0 134.666 16.833 189.999 50.5zm-52.001 782.499h63l-127-118h-51zm153 0h63l-128-118h-50z"/><glyph glyph-name="ohungarumlaut" unicode="ő" horiz-adv-x="620" d="M107.5 55C65.833 94.333 45 147.002 45 213.002c0 59.333 12.833 112.666 38.5 159.999S144.667 457.667 190 485s96.666 41 153.999 41c70.667 0 126.834-19.5 168.501-58.5S575 375.667 575 309c0-59.333-12.833-112.833-38.5-160.5s-61.167-85-106.5-112S333.334-4 276.001-4C205.334-4 149.167 15.667 107.5 55zm298 20.002c37 22.667 66.167 54.167 87.5 94.5s32 85.833 32 136.5c0 55.333-16.167 98.333-48.5 129s-77.833 46-136.5 46c-46.667 0-88.5-11.5-125.5-34.5s-66.167-54.667-87.5-95-32-85.5-32-135.5c0-55.333 16.167-98.333 48.5-129s77.833-46 136.5-46c46.667 0 88.5 11.333 125.5 34zm-14.5 650h63l-127-118h-51zm153 0h63l-128-118h-50z"/><glyph glyph-name="OE" unicode="Œ" horiz-adv-x="1117" d="M700 654l-55-276h373l-9-45H636L579 46h431l-9-46H393c-68.667 0-127.5 11.667-176.5 35S130.333 91.333 105 134s-38 92.334-38 149.001c0 80.667 17.833 152.667 53.5 216S207 611.667 273 647s142.333 53 229 53h624l-9-46H700zm-51 0l-148.999.001c-76.667 0-143.834-15.833-201.501-47.5S196.333 531.167 165 475.5 118 356.333 118 285c0-74 23.833-132.333 71.5-175S306.667 46 398 46h129z"/><glyph glyph-name="oe" unicode="œ" horiz-adv-x="1071" d="M569 250c-1.333-14.667-2-25.666-2-32.999 0-56.667 16.5-100.167 49.5-130.5s81.167-45.5 144.5-45.5c36.667 0 70.5 6.167 101.5 18.5s56.5 29.5 76.5 51.5l24-35c-23.333-25.333-53.166-45-89.499-59s-75.166-21-116.499-21c-60 0-109.667 13.167-149 39.5s-65.666 63.5-78.999 111.5c-24.667-46.667-59.334-83.5-104.001-110.5s-95.334-40.5-152.001-40.5c-45.333 0-85.333 8.833-120 26.5s-61.334 43-80.001 76-28 71.167-28 114.5C45 272.334 57.667 325.667 83 373s60.5 84.666 105.5 111.999 95.833 41 152.5 41 104-13.167 142-39.5 63.333-62.833 76-109.5c24.667 46 58.5 82.333 101.5 109s90.833 40 143.5 40c68 0 121.833-19.5 161.5-58.5s59.5-92.167 59.5-159.5c0-21.333-2-40.666-6-57.999H569zm86.5 180.001c-41-35.333-67.833-82.334-80.5-141.001h402c.667 6 1 14.667 1 26 0 52.667-16 93.834-48 123.501s-74.667 44.5-128 44.5c-56.667 0-105.5-17.667-146.5-53zM405.5 75c37 22.667 66.167 54.167 87.5 94.5s32 85.833 32 136.5c0 55.333-16.167 98.333-48.5 129s-77.833 46-136.5 46c-46.667 0-88.5-11.5-125.5-34.5s-66.167-54.667-87.5-95S95 266 95 216c0-55.333 16.167-98.333 48.5-129S221.333 41 280 41c46.667 0 88.5 11.333 125.5 34z"/><glyph glyph-name="Racute" unicode="Ŕ" horiz-adv-x="720" d="M640.5 330.5C602.167 284.833 548 254.667 478 240L613 0h-56L426 232c-21.333-1.333-37.666-2-48.999-2h-210l-46-230h-51l140 700h245c77.333 0 137.166-16.833 179.499-50.5S698 568.333 698 507c0-72-19.167-130.833-57.5-176.5zm-63.5 2.501c46.667 38.667 70 95.333 70 170 0 48.667-16.833 86-50.5 112s-81.834 39-144.501 39h-200l-76-379h201c86.667 0 153.334 19.333 200.001 58zM559 875h75L464 757h-57z"/><glyph glyph-name="racute" unicode="ŕ" horiz-adv-x="394" d="M273.5 497.5c36.333 19 80.501 28.499 132.501 28.499l-9-49-16 1c-59.333 0-108-17.667-146-53s-64-87.666-78-156.999l-54-268h-50l104 522h49l-22-110c23.333 38 53.166 66.5 89.499 85.5zm117.501 227.499h75l-170-118h-57z"/><glyph glyph-name="Rcommaaccent" unicode="Ŗ" horiz-adv-x="720" d="M640.5 330.5C602.167 284.833 548 254.667 478 240L613 0h-56L426 232c-21.333-1.333-37.666-2-48.999-2h-210l-46-230h-51l140 700h245c77.333 0 137.166-16.833 179.499-50.5S698 568.333 698 507c0-72-19.167-130.833-57.5-176.5zm-63.5 2.501c46.667 38.667 70 95.333 70 170 0 48.667-16.833 86-50.5 112s-81.834 39-144.501 39h-200l-76-379h201c86.667 0 153.334 19.333 200.001 58zM311.5-121.5c6.333-6.333 9.499-13.834 9.499-22.501 0-6.667-1-12.667-3-18s-5.667-12.333-11-21l-42-78h-29l37 83c-7.333 2-13.166 5.833-17.499 11.5S249-154.667 249-148c0 10 3.333 18.5 10 25.5s15.334 10.5 26.001 10.5c11.333 0 20.166-3.167 26.499-9.5z"/><glyph glyph-name="rcommaaccent" unicode="ŗ" horiz-adv-x="394" d="M273.5 497.5c36.333 19 80.501 28.499 132.501 28.499l-9-49-16 1c-59.333 0-108-17.667-146-53s-64-87.666-78-156.999l-54-268h-50l104 522h49l-22-110c23.333 38 53.166 66.5 89.499 85.5zM74.501-121.501C80.834-127.834 84-135.335 84-144.002c0-6.667-1-12.667-3-18s-5.667-12.333-11-21l-42-78H-1l37 83c-7.333 2-13.166 5.833-17.499 11.5s-6.5 11.834-6.5 18.501c0 10 3.333 18.5 10 25.5s15.334 10.5 26.001 10.5c11.333 0 20.166-3.167 26.499-9.5z"/><glyph glyph-name="Rcaron" unicode="Ř" horiz-adv-x="720" d="M640.5 330.5C602.167 284.833 548 254.667 478 240L613 0h-56L426 232c-21.333-1.333-37.666-2-48.999-2h-210l-46-230h-51l140 700h245c77.333 0 137.166-16.833 179.499-50.5S698 568.333 698 507c0-72-19.167-130.833-57.5-176.5zm-63.5 2.501c46.667 38.667 70 95.333 70 170 0 48.667-16.833 86-50.5 112s-81.834 39-144.501 39h-200l-76-379h201c86.667 0 153.334 19.333 200.001 58zM642 875L502 757h-55L334 875h48l95-87 112 87h53z"/><glyph glyph-name="rcaron" unicode="ř" horiz-adv-x="394" d="M273.5 497.5c36.333 19 80.501 28.499 132.501 28.499l-9-49-16 1c-59.333 0-108-17.667-146-53s-64-87.666-78-156.999l-54-268h-50l104 522h49l-22-110c23.333 38 53.166 66.5 89.499 85.5zm200.501 227.499l-140-118h-55l-113 118h48l95-87 112 87h53z"/><glyph glyph-name="Sacute" unicode="Ś" horiz-adv-x="609" d="M120 21.5C74 39.167 40.002 61.333 18.002 88l27 39c21.333-25.333 52.833-46.166 94.5-62.499s84.834-24.5 129.501-24.5c67.333 0 121.166 13.667 161.499 41s60.5 65.333 60.5 114c0 25.333-7.5 46-22.5 62s-33.667 28.667-56 38-52.5 19.333-90.5 30c-44 13.333-79.333 25.666-106 36.999s-49.167 28-67.5 50-27.5 50.667-27.5 86c0 42.667 11.667 79.667 35 111s55.333 55.166 96 71.499 87.334 24.5 140.001 24.5c40.667 0 79.5-5.333 116.5-16s68.5-25.667 94.5-45l-24-42c-24.667 18.667-53.334 33-86.001 43s-67 15-103 15c-65.333 0-118-14-158-42s-60-66.333-60-115c0-26 7.667-47.333 23-64s34.166-29.667 56.499-39S304.667 380.333 344 369c44-13.333 79-25.5 105-36.5s48-27.167 66-48.5 27-49 27-83c0-65.333-25.667-116-77-152S347-5 265-5c-50.667 0-99 8.833-145 26.5zm391.002 853.499h75l-170-118h-57z"/><glyph glyph-name="sacute" unicode="ś" horiz-adv-x="478" d="M79.5 14.5c-37 12.333-65.831 28.169-86.498 47.502l27 39c19.333-18.667 45.166-33.5 77.499-44.5s66.5-16.5 102.5-16.5c54 0 95.833 9.5 125.5 28.5s44.5 45.5 44.5 79.5c0 19.333-6 34.666-18 45.999s-26.667 19.833-44 25.5-41.333 11.834-72 18.501c-36 7.333-65.167 15-87.5 23s-41.166 20.5-56.499 37.5-23 40.167-23 69.5c0 48 19.833 86.333 59.5 115s92.5 43 158.5 43c33.333 0 65.666-4.5 96.999-13.5s56.333-21.5 75-37.5l-23-39c-19.333 15.333-42.5 26.833-69.5 34.5s-54.833 11.5-83.5 11.5c-50.667 0-90.834-10-120.501-30s-44.5-46.333-44.5-79c0-20 6-35.833 18-47.5s27.167-20.5 45.5-26.5 42.833-12.333 73.5-19c36-7.333 64.833-14.833 86.5-22.5s40.167-19.834 55.5-36.501 23-39.334 23-68.001c0-48.667-20.333-87-61-115S264-4 196-4c-40.667 0-79.5 6.167-116.5 18.5zm320.502 710.503h75l-170-118h-57z"/><glyph glyph-name="Scircumflex" unicode="Ŝ" horiz-adv-x="609" d="M120 21.5C74 39.167 40.002 61.333 18.002 88l27 39c21.333-25.333 52.833-46.166 94.5-62.499s84.834-24.5 129.501-24.5c67.333 0 121.166 13.667 161.499 41s60.5 65.333 60.5 114c0 25.333-7.5 46-22.5 62s-33.667 28.667-56 38-52.5 19.333-90.5 30c-44 13.333-79.333 25.666-106 36.999s-49.167 28-67.5 50-27.5 50.667-27.5 86c0 42.667 11.667 79.667 35 111s55.333 55.166 96 71.499 87.334 24.5 140.001 24.5c40.667 0 79.5-5.333 116.5-16s68.5-25.667 94.5-45l-24-42c-24.667 18.667-53.334 33-86.001 43s-67 15-103 15c-65.333 0-118-14-158-42s-60-66.333-60-115c0-26 7.667-47.333 23-64s34.166-29.667 56.499-39S304.667 380.333 344 369c44-13.333 79-25.5 105-36.5s48-27.167 66-48.5 27-49 27-83c0-65.333-25.667-116-77-152S347-5 265-5c-50.667 0-99 8.833-145 26.5zm404.002 735.499l-95 87-113-87h-52l140 118h55l113-118h-48z"/><glyph glyph-name="scircumflex" unicode="ŝ" horiz-adv-x="478" d="M79.5 14.5c-37 12.333-65.831 28.169-86.498 47.502l27 39c19.333-18.667 45.166-33.5 77.499-44.5s66.5-16.5 102.5-16.5c54 0 95.833 9.5 125.5 28.5s44.5 45.5 44.5 79.5c0 19.333-6 34.666-18 45.999s-26.667 19.833-44 25.5-41.333 11.834-72 18.501c-36 7.333-65.167 15-87.5 23s-41.166 20.5-56.499 37.5-23 40.167-23 69.5c0 48 19.833 86.333 59.5 115s92.5 43 158.5 43c33.333 0 65.666-4.5 96.999-13.5s56.333-21.5 75-37.5l-23-39c-19.333 15.333-42.5 26.833-69.5 34.5s-54.833 11.5-83.5 11.5c-50.667 0-90.834-10-120.501-30s-44.5-46.333-44.5-79c0-20 6-35.833 18-47.5s27.167-20.5 45.5-26.5 42.833-12.333 73.5-19c36-7.333 64.833-14.833 86.5-22.5s40.167-19.834 55.5-36.501 23-39.334 23-68.001c0-48.667-20.333-87-61-115S264-4 196-4c-40.667 0-79.5 6.167-116.5 18.5zm333.502 592.503l-95 87-113-87h-52l140 118h55l113-118h-48z"/><glyph glyph-name="Scedilla" unicode="Ş" horiz-adv-x="609" d="M120 21.5C74 39.167 40.002 61.333 18.002 88l27 39c21.333-25.333 52.833-46.166 94.5-62.499s84.834-24.5 129.501-24.5c67.333 0 121.166 13.667 161.499 41s60.5 65.333 60.5 114c0 25.333-7.5 46-22.5 62s-33.667 28.667-56 38-52.5 19.333-90.5 30c-44 13.333-79.333 25.666-106 36.999s-49.167 28-67.5 50-27.5 50.667-27.5 86c0 42.667 11.667 79.667 35 111s55.333 55.166 96 71.499 87.334 24.5 140.001 24.5c40.667 0 79.5-5.333 116.5-16s68.5-25.667 94.5-45l-24-42c-24.667 18.667-53.334 33-86.001 43s-67 15-103 15c-65.333 0-118-14-158-42s-60-66.333-60-115c0-26 7.667-47.333 23-64s34.166-29.667 56.499-39S304.667 380.333 344 369c44-13.333 79-25.5 105-36.5s48-27.167 66-48.5 27-49 27-83c0-65.333-25.667-116-77-152S347-5 265-5c-50.667 0-99 8.833-145 26.5zm10.002-213.501l19 27.999c18-14 40-21 66-21 22 0 39.5 5.5 52.5 16.5s19.5 25.5 19.5 43.5c0 14-5 24.833-15 32.5s-24.333 11.5-43 11.5h-19l41 87h33l-27-59c22-2.667 39.167-10.167 51.5-22.5s18.5-28.166 18.5-47.499c0-27.333-10.667-49.833-32-67.5s-49-26.5-83-26.5-61.333 8.333-82 25z"/><glyph glyph-name="scedilla" unicode="ş" horiz-adv-x="478" d="M79.5 14.5c-37 12.333-65.831 28.169-86.498 47.502l27 39c19.333-18.667 45.166-33.5 77.499-44.5s66.5-16.5 102.5-16.5c54 0 95.833 9.5 125.5 28.5s44.5 45.5 44.5 79.5c0 19.333-6 34.666-18 45.999s-26.667 19.833-44 25.5-41.333 11.834-72 18.501c-36 7.333-65.167 15-87.5 23s-41.166 20.5-56.499 37.5-23 40.167-23 69.5c0 48 19.833 86.333 59.5 115s92.5 43 158.5 43c33.333 0 65.666-4.5 96.999-13.5s56.333-21.5 75-37.5l-23-39c-19.333 15.333-42.5 26.833-69.5 34.5s-54.833 11.5-83.5 11.5c-50.667 0-90.834-10-120.501-30s-44.5-46.333-44.5-79c0-20 6-35.833 18-47.5s27.167-20.5 45.5-26.5 42.833-12.333 73.5-19c36-7.333 64.833-14.833 86.5-22.5s40.167-19.834 55.5-36.501 23-39.334 23-68.001c0-48.667-20.333-87-61-115S264-4 196-4c-40.667 0-79.5 6.167-116.5 18.5zM49.002-191.997l19 27.999c18-14 40-21 66-21 22 0 39.5 5.5 52.5 16.5s19.5 25.5 19.5 43.5c0 14-5 24.833-15 32.5s-24.333 11.5-43 11.5h-19l41 87h33l-27-59c22-2.667 39.167-10.167 51.5-22.5s18.5-28.166 18.5-47.499c0-27.333-10.667-49.833-32-67.5s-49-26.5-83-26.5-61.333 8.333-82 25z"/><glyph glyph-name="Scaron" unicode="Š" horiz-adv-x="609" d="M120 21.5C74 39.167 40.002 61.333 18.002 88l27 39c21.333-25.333 52.833-46.166 94.5-62.499s84.834-24.5 129.501-24.5c67.333 0 121.166 13.667 161.499 41s60.5 65.333 60.5 114c0 25.333-7.5 46-22.5 62s-33.667 28.667-56 38-52.5 19.333-90.5 30c-44 13.333-79.333 25.666-106 36.999s-49.167 28-67.5 50-27.5 50.667-27.5 86c0 42.667 11.667 79.667 35 111s55.333 55.166 96 71.499 87.334 24.5 140.001 24.5c40.667 0 79.5-5.333 116.5-16s68.5-25.667 94.5-45l-24-42c-24.667 18.667-53.334 33-86.001 43s-67 15-103 15c-65.333 0-118-14-158-42s-60-66.333-60-115c0-26 7.667-47.333 23-64s34.166-29.667 56.499-39S304.667 380.333 344 369c44-13.333 79-25.5 105-36.5s48-27.167 66-48.5 27-49 27-83c0-65.333-25.667-116-77-152S347-5 265-5c-50.667 0-99 8.833-145 26.5zm474.002 853.499l-140-118h-55l-113 118h48l95-87 112 87h53z"/><glyph glyph-name="scaron" unicode="š" horiz-adv-x="478" d="M79.5 14.5c-37 12.333-65.831 28.169-86.498 47.502l27 39c19.333-18.667 45.166-33.5 77.499-44.5s66.5-16.5 102.5-16.5c54 0 95.833 9.5 125.5 28.5s44.5 45.5 44.5 79.5c0 19.333-6 34.666-18 45.999s-26.667 19.833-44 25.5-41.333 11.834-72 18.501c-36 7.333-65.167 15-87.5 23s-41.166 20.5-56.499 37.5-23 40.167-23 69.5c0 48 19.833 86.333 59.5 115s92.5 43 158.5 43c33.333 0 65.666-4.5 96.999-13.5s56.333-21.5 75-37.5l-23-39c-19.333 15.333-42.5 26.833-69.5 34.5s-54.833 11.5-83.5 11.5c-50.667 0-90.834-10-120.501-30s-44.5-46.333-44.5-79c0-20 6-35.833 18-47.5s27.167-20.5 45.5-26.5 42.833-12.333 73.5-19c36-7.333 64.833-14.833 86.5-22.5s40.167-19.834 55.5-36.501 23-39.334 23-68.001c0-48.667-20.333-87-61-115S264-4 196-4c-40.667 0-79.5 6.167-116.5 18.5zm403.502 710.503l-140-118h-55l-113 118h48l95-87 112 87h53z"/><glyph glyph-name="uni0162" unicode="Ţ" horiz-adv-x="563" d="M334 654H82l10 46h555l-9-46H386L255 0h-51zM92-192l19 27.999c18-14 40-21 66-21 22 0 39.5 5.5 52.5 16.5s19.5 25.5 19.5 43.5c0 14-5 24.833-15 32.5s-24.333 11.5-43 11.5h-19l41 87h33l-27-59c22-2.667 39.167-10.167 51.5-22.5S289-103.667 289-123c0-27.333-10.667-49.833-32-67.5S208-217 174-217s-61.333 8.333-82 25z"/><glyph glyph-name="uni0163" unicode="ţ" horiz-adv-x="398" d="M144 151c-2.667-12.667-4-25.001-4-37.001 0-50 26.667-75 80-75 32 0 60.333 9.667 85 29l15-37c-28.667-23.333-66-35-112-35-37.333 0-66.5 9.833-87.5 29.5S89 72.333 89 107c0 14 1.333 27.333 4 40l67 332H63l8 43h97l23 114h50l-23-114h166l-8-43H210zM56-192.001l19 27.999c18-14 40-21 66-21 22 0 39.5 5.5 52.5 16.5s19.5 25.5 19.5 43.5c0 14-5 24.833-15 32.5s-24.333 11.5-43 11.5h-19l41 87h33l-27-59c22-2.667 39.167-10.167 51.5-22.5s18.5-28.166 18.5-47.499c0-27.333-10.667-49.833-32-67.5s-49-26.5-83-26.5-61.333 8.333-82 25z"/><glyph glyph-name="Tcaron" unicode="Ť" horiz-adv-x="563" d="M334 654H82l10 46h555l-9-46H386L255 0h-51zm222 221L416 757h-55L248 875h48l95-87 112 87h53z"/><glyph glyph-name="tcaron" unicode="ť" horiz-adv-x="398" d="M144 151c-2.667-12.667-4-25.001-4-37.001 0-50 26.667-75 80-75 32 0 60.333 9.667 85 29l15-37c-28.667-23.333-66-35-112-35-37.333 0-66.5 9.833-87.5 29.5S89 72.333 89 107c0 14 1.333 27.333 4 40l67 332H63l8 43h97l23 114h50l-23-114h166l-8-43H210zm219 615.999h43l-43-185h-37z"/><glyph glyph-name="Tbar" unicode="Ŧ" horiz-adv-x="563" d="M334 654H82l10 46h555l-9-46H386L255 0h-51zM116 370h376l-9-43H107z"/><glyph glyph-name="tbar" unicode="ŧ" horiz-adv-x="408" d="M149 151c-2.667-12.667-4-25.001-4-37.001 0-50 26.667-75 80-75 32 0 60.333 9.667 85 29l15-37c-28.667-23.333-66-35-112-35-37.333 0-66.5 9.833-87.5 29.5S94 72.333 94 107c0 14 1.333 27.333 4 40l67 332H68l8 43h97l23 114h50l-23-114h166l-8-43H215zM48 318.999h290l-7-38H40z"/><glyph glyph-name="Utilde" unicode="Ũ" horiz-adv-x="793" d="M179.5 54c-43 39.333-64.499 94.334-64.499 165.001 0 22 2.667 48 8 78l81 403h51l-80-402c-5.333-24-8-49.333-8-76 0-58.667 17-103.334 51-134.001s82.667-46 146-46c73.333 0 132.166 20.833 176.499 62.5s75.166 106.167 92.499 193.5l80 402h51l-81-405C643.666 95 536.333-5 361-5c-78 0-138.5 19.667-181.5 59zm354.001 720.501c-10.333 6.333-22.502 15.832-36.502 28.499-10.667 10-20.167 17.667-28.5 23s-17.166 8-26.499 8c-14.667 0-27.167-5.833-37.5-17.5S387.334 789 384.001 769h-33c4.667 30.667 15.167 55 31.5 73s36.5 27 60.5 27c14 0 26.167-3.167 36.5-9.5s22.5-15.833 36.5-28.5c10.667-10 20.167-17.667 28.5-23s17.166-8 26.499-8c14.667 0 27.334 5.833 38.001 17.5s17.667 26.834 21 45.501h33c-5.333-30-16-53.833-32-71.5s-36-26.5-60-26.5c-14.667 0-27.167 3.167-37.5 9.5z"/><glyph glyph-name="utilde" unicode="ũ" horiz-adv-x="669" d="M616 522L512.001 0h-49l20 99c-48.667-68.667-120-103-214-103C210.334-4 165.167 10.833 133.5 40.5S86 111 86 163c0 18 2 37 6 57l60 302h50l-60-302c-3.333-14.667-5-31.334-5-50.001 0-41.333 12.167-73.166 36.5-95.499S234 41 282 41c60 0 109.667 16.833 149 50.5S496.333 174 509 238l57 284h50zM439.501 624.5c-10.333 6.333-22.502 15.832-36.502 28.499-10.667 10-20.167 17.667-28.5 23s-17.166 8-26.499 8c-14.667 0-27.167-5.833-37.5-17.5s-17.166-27.5-20.499-47.5h-33c4.667 30.667 15.167 55 31.5 73s36.5 27 60.5 27c14 0 26.167-3.167 36.5-9.5s22.5-15.833 36.5-28.5c10.667-10 20.167-17.667 28.5-23s17.166-8 26.499-8c14.667 0 27.334 5.833 38.001 17.5s17.667 26.834 21 45.501h33c-5.333-30-16-53.833-32-71.5s-36-26.5-60-26.5c-14.667 0-27.167 3.167-37.5 9.5z"/><glyph glyph-name="Umacron" unicode="Ū" horiz-adv-x="793" d="M179.5 54c-43 39.333-64.499 94.334-64.499 165.001 0 22 2.667 48 8 78l81 403h51l-80-402c-5.333-24-8-49.333-8-76 0-58.667 17-103.334 51-134.001s82.667-46 146-46c73.333 0 132.166 20.833 176.499 62.5s75.166 106.167 92.499 193.5l80 402h51l-81-405C643.666 95 536.333-5 361-5c-78 0-138.5 19.667-181.5 59zm183.501 780.001h294l-7-36h-294z"/><glyph glyph-name="umacron" unicode="ū" horiz-adv-x="669" d="M616 522L512.001 0h-49l20 99c-48.667-68.667-120-103-214-103C210.334-4 165.167 10.833 133.5 40.5S86 111 86 163c0 18 2 37 6 57l60 302h50l-60-302c-3.333-14.667-5-31.334-5-50.001 0-41.333 12.167-73.166 36.5-95.499S234 41 282 41c60 0 109.667 16.833 149 50.5S496.333 174 509 238l57 284h50zM269.001 684h294l-7-36h-294z"/><glyph glyph-name="Ubreve" unicode="Ŭ" horiz-adv-x="793" d="M179.5 54c-43 39.333-64.499 94.334-64.499 165.001 0 22 2.667 48 8 78l81 403h51l-80-402c-5.333-24-8-49.333-8-76 0-58.667 17-103.334 51-134.001s82.667-46 146-46c73.333 0 132.166 20.833 176.499 62.5s75.166 106.167 92.499 193.5l80 402h51l-81-405C643.666 95 536.333-5 361-5c-78 0-138.5 19.667-181.5 59zm227.501 732.501c-25.333 22.333-36.667 51.833-34 88.5h37c-1.333-27.333 7-49 25-65s42.333-24 73-24c29.333 0 54.833 8.167 76.5 24.5s34.5 37.833 38.5 64.5h38c-5.333-37.333-22.5-67-51.5-89s-63.833-33-104.5-33c-40 0-72.667 11.167-98 33.5z"/><glyph glyph-name="ubreve" unicode="ŭ" horiz-adv-x="669" d="M616 522L512.001 0h-49l20 99c-48.667-68.667-120-103-214-103C210.334-4 165.167 10.833 133.5 40.5S86 111 86 163c0 18 2 37 6 57l60 302h50l-60-302c-3.333-14.667-5-31.334-5-50.001 0-41.333 12.167-73.166 36.5-95.499S234 41 282 41c60 0 109.667 16.833 149 50.5S496.333 174 509 238l57 284h50zM313.001 636.5c-25.333 22.333-36.667 51.833-34 88.5h37c-1.333-27.333 7-49 25-65s42.333-24 73-24c29.333 0 54.833 8.167 76.5 24.5s34.5 37.833 38.5 64.5h38c-5.333-37.333-22.5-67-51.5-89s-63.833-33-104.5-33c-40 0-72.667 11.167-98 33.5z"/><glyph glyph-name="Uring" unicode="Ů" horiz-adv-x="793" d="M179.5 54c-43 39.333-64.499 94.334-64.499 165.001 0 22 2.667 48 8 78l81 403h51l-80-402c-5.333-24-8-49.333-8-76 0-58.667 17-103.334 51-134.001s82.667-46 146-46c73.333 0 132.166 20.833 176.499 62.5s75.166 106.167 92.499 193.5l80 402h51l-81-405C643.666 95 536.333-5 361-5c-78 0-138.5 19.667-181.5 59zm268.001 748.501c-19 19-28.5 41.833-28.5 68.5 0 27.333 9.5 50.833 28.5 70.5s42.5 29.5 70.5 29.5 51.667-9.833 71-29.5 29-43.167 29-70.5c0-26.667-9.5-49.5-28.5-68.5s-42.833-28.5-71.5-28.5c-28 0-51.5 9.5-70.5 28.5zm121.5 19.5c13.333 13.333 20 29.667 20 49 0 20-6.833 36.833-20.5 50.5s-30.5 20.5-50.5 20.5-36.5-6.833-49.5-20.5-19.5-30.5-19.5-50.5 6.5-36.5 19.5-49.5 29.5-19.5 49.5-19.5c20.667 0 37.667 6.667 51 20z"/><glyph glyph-name="uring" unicode="ů" horiz-adv-x="669" d="M616 522L512.001 0h-49l20 99c-48.667-68.667-120-103-214-103C210.334-4 165.167 10.833 133.5 40.5S86 111 86 163c0 18 2 37 6 57l60 302h50l-60-302c-3.333-14.667-5-31.334-5-50.001 0-41.333 12.167-73.166 36.5-95.499S234 41 282 41c60 0 109.667 16.833 149 50.5S496.333 174 509 238l57 284h50zM347.501 624.5c-19 19-28.5 41.833-28.5 68.5 0 27.333 9.5 50.833 28.5 70.5s42.5 29.5 70.5 29.5 51.667-9.833 71-29.5 29-43.167 29-70.5c0-26.667-9.5-49.5-28.5-68.5s-42.833-28.5-71.5-28.5c-28 0-51.5 9.5-70.5 28.5zm121.5 19.5c13.333 13.333 20 29.667 20 49 0 20-6.833 36.833-20.5 50.5s-30.5 20.5-50.5 20.5-36.5-6.833-49.5-20.5-19.5-30.5-19.5-50.5 6.5-36.5 19.5-49.5 29.5-19.5 49.5-19.5c20.667 0 37.667 6.667 51 20z"/><glyph glyph-name="Uhungarumlaut" unicode="Ű" horiz-adv-x="793" d="M179.5 54c-43 39.333-64.499 94.334-64.499 165.001 0 22 2.667 48 8 78l81 403h51l-80-402c-5.333-24-8-49.333-8-76 0-58.667 17-103.334 51-134.001s82.667-46 146-46c73.333 0 132.166 20.833 176.499 62.5s75.166 106.167 92.499 193.5l80 402h51l-81-405C643.666 95 536.333-5 361-5c-78 0-138.5 19.667-181.5 59zm328.501 821.001h63l-127-118h-51zm153 0h63l-128-118h-50z"/><glyph glyph-name="uhungarumlaut" unicode="ű" horiz-adv-x="669" d="M616 522L512.001 0h-49l20 99c-48.667-68.667-120-103-214-103C210.334-4 165.167 10.833 133.5 40.5S86 111 86 163c0 18 2 37 6 57l60 302h50l-60-302c-3.333-14.667-5-31.334-5-50.001 0-41.333 12.167-73.166 36.5-95.499S234 41 282 41c60 0 109.667 16.833 149 50.5S496.333 174 509 238l57 284h50zM414.001 725h63l-127-118h-51zm153 0h63l-128-118h-50z"/><glyph glyph-name="Uogonek" unicode="Ų" horiz-adv-x="793" d="M764 700l-80.994-404.999c-32-163.333-109.333-260-232-290-58.667-14-103.834-33.833-135.501-59.5s-47.5-52.5-47.5-80.5c0-16 4.667-28.167 14-36.5s22.666-12.5 39.999-12.5c26 0 49.333 7.333 70 22l9-30c-24.667-16.667-53.334-25-86.001-25-26 0-47 6.833-63 20.5s-24 32.167-24 55.5c0 52 36.333 97.667 109 137-70.667 4-125.334 25.333-164.001 64s-58 91.667-58 159c0 22 2.667 48 8 78l81 403h51l-80-402c-5.333-24-8-49.333-8-76 0-58.667 17-103.334 51-134.001s82.667-46 146-46c73.333 0 132.166 20.833 176.499 62.5S615.667 210.667 633 298l80 402h51z"/><glyph glyph-name="uogonek" unicode="ų" horiz-adv-x="669" d="M616 522L512.001 0h-49l20 99c-48.667-68.667-120-103-214-103C210.334-4 165.167 10.833 133.5 40.5S86 111 86 163c0 18 2 37 6 57l60 302h50l-60-302c-3.333-14.667-5-31.334-5-50.001 0-41.333 12.167-73.166 36.5-95.499S234 41 282 41c60 0 109.667 16.833 149 50.5S496.333 174 509 238l57 284h50zM345.001-196.5c-16 13.667-24 32.167-24 55.5 0 65.333 56.667 120.333 170 165l21-24c-100.667-38.667-151-83.667-151-135 0-16 4.833-28.167 14.5-36.5s23.167-12.5 40.5-12.5c25.333 0 48.333 7.333 69 22l10-30c-26-16.667-54.667-25-86-25-26.667 0-48 6.833-64 20.5z"/><glyph glyph-name="Wcircumflex" unicode="Ŵ" horiz-adv-x="1098" d="M1146 700L769 0h-54l-92 626L279 0h-54l-98 700h51l88-632 346 632h48l92-632 342 632h52zm-392 57l-95 87-113-87h-52l140 118h55l113-118h-48z"/><glyph glyph-name="wcircumflex" unicode="ŵ" horiz-adv-x="861" d="M908 522L613 0h-48l-95 454L210 0h-48L58 522h46l91-466 265 466h43l94-465 262 465h49zm-302 85l-95 87-113-87h-52l140 118h55l113-118h-48z"/><glyph glyph-name="Ycircumflex" unicode="Ŷ" horiz-adv-x="625" d="M332 235L285 0h-51l48 241L92 700h53l171-414 335 414h57zm185 522l-95 87-113-87h-52l140 118h55l113-118h-48z"/><glyph glyph-name="ycircumflex" unicode="ŷ" horiz-adv-x="528" d="M577 522L187-76.999c-29.333-45.333-57.166-76.833-83.499-94.5s-57.5-26.5-93.5-26.5c-24 0-46.667 4-68 12s-38 19.333-50 34l29 37c23.333-26 54.666-39 93.999-39 24 0 45.833 6.667 65.5 20S121-97.333 143-64l44 66L55 522h51L223 55l302 467h52zm-153 85.001l-95 87-113-87h-52l140 118h55l113-118h-48z"/><glyph glyph-name="Ydieresis" unicode="Ÿ" horiz-adv-x="625" d="M332 235L285 0h-51l48 241L92 700h53l171-414 335 414h57zm-21 558.5c-6.667 6.333-10 14.166-10 23.499 0 10.667 3.667 19.834 11 27.501s16.333 11.5 27 11.5c9.333 0 17.333-3.167 24-9.5s10-14.166 10-23.499c0-10.667-3.667-19.834-11-27.501S345.667 784 335 784c-9.333 0-17.333 3.167-24 9.5zm173 0c-6.667 6.333-10 14.166-10 23.499 0 10.667 3.667 19.834 11 27.501s16 11.5 26 11.5c9.333 0 17.5-3.167 24.5-9.5s10.5-14.166 10.5-23.499c0-10.667-3.833-19.834-11.5-27.501S518 784 508 784c-9.333 0-17.333 3.167-24 9.5z"/><glyph glyph-name="Zacute" unicode="Ź" horiz-adv-x="646" d="M681 664L77 46h491L558 0H-6l8 36 603 618H132l9 46h547zM521 875h75L426 757h-57z"/><glyph glyph-name="zacute" unicode="ź" horiz-adv-x="503" d="M498 488L68 43h347l-9-43H-9l7 34 429 445H93l8 43h404zm-85 237h75L318 607h-57z"/><glyph glyph-name="Zdotaccent" unicode="Ż" horiz-adv-x="646" d="M681 664L77 46h491L558 0H-6l8 36 603 618H132l9 46h547zM412.5 795c-7 6.667-10.5 15-10.5 25 0 12 4 22.167 12 30.5s17.667 12.5 29 12.5c10.667 0 19.5-3.5 26.5-10.5S480 837 480 827c0-12-4-22-12-30s-17.667-12-29-12c-10.667 0-19.5 3.333-26.5 10z"/><glyph glyph-name="zdotaccent" unicode="ż" horiz-adv-x="503" d="M498 488L68 43h347l-9-43H-9l7 34 429 445H93l8 43h404zM304.5 645c-7 6.667-10.5 15-10.5 25 0 12 4 22.167 12 30.5s17.667 12.5 29 12.5c10.667 0 19.5-3.5 26.5-10.5S372 687 372 677c0-12-4-22-12-30s-17.667-12-29-12c-10.667 0-19.5 3.333-26.5 10z"/><glyph glyph-name="Zcaron" unicode="Ž" horiz-adv-x="646" d="M681 664L77 46h491L558 0H-6l8 36 603 618H132l9 46h547zm-77 211L464 757h-55L296 875h48l95-87 112 87h53z"/><glyph glyph-name="zcaron" unicode="ž" horiz-adv-x="503" d="M498 488L68 43h347l-9-43H-9l7 34 429 445H93l8 43h404zm-2 237L356 607h-55L188 725h48l95-87 112 87h53z"/><glyph glyph-name="longs" unicode="ſ" horiz-adv-x="286" d="M420 737c18-6 32.67-14.667 44.003-26l-25-36c-18.667 18.667-44.334 28-77.001 28-33.333 0-59.5-8.667-78.5-26s-32.167-45-39.5-83l-119-594h-50l96 479h-96l8 43h96l16 79c9.333 47.333 28.166 83.333 56.499 108S316.667 746 362 746c20.667 0 40-3 58-9z"/><glyph glyph-name="uni018F" unicode="Ə" horiz-adv-x="816" d="M641.5 669c47-24 82.831-57.669 107.498-101.002s37-93.666 37-150.999c0-76-17-146.167-51-210.5s-82-115.666-144-153.999S457.665-5 376.998-5c-64 0-119.667 12-167 36s-83.5 57.333-108.5 100-37.5 92-37.5 148c0 21.333 3.667 51.333 11 90h657c1.333 20 2 35.333 2 46 0 74-23 133-69 177s-111.667 66-197 66c-47.333 0-91.166-7-131.499-21s-74.833-34-103.5-60l-26 38c30.667 28 69.334 50 116.001 66s96.667 24 150 24c65.333 0 121.5-12 168.5-36zM540.498 77.998c47.667 24.667 87.167 58.333 118.5 101s53 91 65 145h-606c-2-14-3-28-3-42 0-48.667 10.667-91.167 32-127.5s52-64.333 92-84 87.667-29.5 143-29.5c58 0 110.833 12.333 158.5 37z"/><glyph glyph-name="florin" unicode="ƒ" horiz-adv-x="429" d="M513 737c17.333-6 31.002-14.665 41.002-25.998l-30-37c-7.333 9.333-17.5 16.5-30.5 21.5s-27.5 7.5-43.5 7.5c-30.667 0-57-9-79-27s-39-44-51-78l-26-81h167l-13-43h-166l-173-531c-14-44.667-36-79.334-66-104.001s-66.667-37-110-37c-22 0-42.167 3.167-60.5 9.5s-32.833 15.166-43.5 26.499l29 36c18-19.333 43.333-29 76-29 29.333 0 55.166 9 77.499 27s38.833 44 49.5 78l170 524h-96l13 43h96l28 85c14.667 46 37.667 81.5 69 106.5S410.667 746 456 746c20.667 0 39.667-3 57-9z"/><glyph glyph-name="Ohorn" unicode="Ơ" horiz-adv-x="838" d="M826.5 682c-24.333-20.667-58.167-30.997-101.5-30.997-11.333 0-25.666.667-42.999 2 40.667-24 71.667-56.167 93-96.5s32-86.833 32-139.5c0-76-17.333-146.167-52-210.5s-83.834-115.666-147.501-154-137.167-57.5-220.5-57.5c-67.333 0-125 12-173 36s-84.5 57.668-109.5 101-37.5 93.667-37.5 151c0 76 17.167 146.167 51.5 210.5s83.333 115.666 147 153.999 137.167 57.5 220.5 57.5c32 0 61-1.333 87-4s41-4.334 45-5.001c37.333-4.667 70.333-7 99-7 34 0 60.333 7 79 21s28 33.333 28 58c0 22-6.667 44-20 66l35 14c16-25.333 24-52 24-80 0-36.667-12.167-65.334-36.5-86.001zm-142.001-89.497c-47 43.667-114.501 65.499-202.501 65.499-71.333 0-134.666-16.833-189.999-50.5s-98.166-79-128.499-136-45.5-119.167-45.5-186.5c0-74 23.667-133 71-177s115-66 203-66c71.333 0 134.666 16.833 189.999 50.5s98 79 128 136 45 119.167 45 186.5c0 74.667-23.5 133.834-70.5 177.501z"/><glyph glyph-name="ohorn" unicode="ơ" horiz-adv-x="620" d="M591 511c-21.333-19.333-49.999-28.997-85.999-28.997h-13c26.667-18.667 47.167-42.667 61.5-72s21.5-63 21.5-101c0-59.333-12.833-112.833-38.5-160.5s-61.167-85-106.5-112-96.666-40.5-153.999-40.5c-70.667 0-126.834 19.667-168.501 59s-62.5 92-62.5 158c0 59.333 12.833 112.666 38.5 159.999s61.167 84.666 106.5 111.999S286.667 526 344 526c32 0 65.333-1.333 100-4 26.667-1.333 47-2 61-2 24.667 0 44 6.167 58 18.5s21 29.833 21 52.5c0 20.667-6.667 42.667-20 66l34 14c16.667-24.667 25-51.334 25-80.001 0-34-10.667-60.667-32-80zm-114.499-75.997c-32.333 30.667-77.833 46-136.5 46-46.667 0-88.5-11.5-125.5-34.5s-66.167-54.667-87.5-95-32-85.5-32-135.5c0-55.333 16.167-98.333 48.5-129s77.833-46 136.5-46c46.667 0 88.5 11.333 125.5 34s66.167 54.167 87.5 94.5 32 85.833 32 136.5c0 55.333-16.167 98.333-48.5 129z"/><glyph glyph-name="Uhorn" unicode="Ư" horiz-adv-x="796" d="M179.5 54c-43 39.333-64.499 94.334-64.499 165.001 0 22 2.667 48 8 78l81 403h51l-80-402c-5.333-24-8-49.333-8-76 0-58.667 17-103.334 51-134.001s82.667-46 146-46c73.333 0 132.166 20.833 176.499 62.5s75.166 106.167 92.499 193.5l80 402h51l-81-405C643.666 95 536.333-5 361-5c-78 0-138.5 19.667-181.5 59zm562.501 646.001l13 .002c22.667 0 39.5 6.333 50.5 19s16.5 29 16.5 49c0 24-6.667 46-20 66l35 14c16.667-24.667 25-51.334 25-80.001 0-32.667-9.167-58.834-27.5-78.501s-44.833-29.5-79.5-29.5h-13v40z"/><glyph glyph-name="uhorn" unicode="ư" horiz-adv-x="672" d="M616 522L512.001 0h-49l20 99c-48.667-68.667-120-103-214-103C210.334-4 165.167 10.833 133.5 40.5S86 111 86 163c0 18 2 37 6 57l60 302h50l-60-302c-3.333-14.667-5-31.334-5-50.001 0-41.333 12.167-73.166 36.5-95.499S234 41 282 41c60 0 109.667 16.833 149 50.5S496.333 174 509 238l57 284h50zm-37.999 0l13 .002c22.667 0 39.5 6.333 50.5 19s16.5 29 16.5 49c0 24-6.667 46-20 66l35 14c16.667-24.667 25-51.334 25-80.001 0-32.667-9.167-58.834-27.5-78.501s-44.833-29.5-79.5-29.5h-13v40z"/><glyph glyph-name="uni01B7" unicode="Ʒ" horiz-adv-x="586" d="M577 664L315 394c64-2.667 113-19.167 147-49.5s51-71.833 51-124.5c0-44-11.5-83-34.5-117S423 42.5 381 23.5 290.333-5 235-5C181.667-5 134 3.667 92 21S19 61.333-1 90l31 38c17.333-26 44.333-46.833 81-62.5S190 42 238 42c69.333 0 124 15.833 164 47.5S462 164 462 218c0 89.333-60.667 134-182 134h-38l7 37 258 265H136l10 46h438z"/><glyph glyph-name="uni01C4" unicode="Ǆ" horiz-adv-x="1458" d="M210 700h260c68.667 0 127.5-11.667 176.5-35s86.167-56.333 111.5-99 38-92.334 38-149.001c0-80.667-18-152.667-54-216S655 88.333 589 53 446.667 0 360 0H70zM363 46c76.667 0 143.833 15.667 201.5 47s102 75 133 131S744 343.667 744 415c0 74-23.667 132.333-71 175s-117 64-209 64H252L130 46h233zm1121 618L880 46h491l-10-46H797l8 36 603 618H935l9 46h547zm-77 211l-140-118h-55l-113 118h48l95-87 112 87h53z"/><glyph glyph-name="uni01C5" unicode="ǅ" horiz-adv-x="1329" d="M210 700h260c68.667 0 127.5-11.667 176.5-35s86.167-56.333 111.5-99 38-92.334 38-149.001c0-80.667-18-152.667-54-216S655 88.333 589 53 446.667 0 360 0H70zM363 46c76.667 0 143.833 15.667 201.5 47s102 75 133 131S744 343.667 744 415c0 74-23.667 132.333-71 175s-117 64-209 64H252L130 46h233zm961 442L894 43h347l-9-43H817l7 34 429 445H919l8 43h404zm-2 237l-140-118h-55l-113 118h48l95-87 112 87h53z"/><glyph glyph-name="uni01C6" unicode="ǆ" horiz-adv-x="1178" d="M666 742L518-.001h-48l20 102c-25.333-33.333-56.833-59.333-94.5-78s-79.5-28-125.5-28c-68 0-122.5 19.5-163.5 58.5S45 146.332 45 212.999c0 59.333 12.667 112.833 38 160.5s60.5 85 105.5 112 95.5 40.5 151.5 40.5c54 0 98.667-11.667 134-35s59.333-56.666 72-99.999l70 351h50zM405.5 74.999c37 22.667 66.167 54.167 87.5 94.5s32 85.833 32 136.5c0 55.333-16.167 98.333-48.5 129s-77.833 46-136.5 46c-46.667 0-88.5-11.5-125.5-34.5s-66.167-54.667-87.5-95-32-85.5-32-135.5c0-55.333 16.167-98.333 48.5-129s77.833-46 136.5-46c46.667 0 88.5 11.333 125.5 34zm767.5 413l-430-445h347l-9-43H666l7 34 429 445H768l8 43h404zm-2 237l-140-118h-55l-113 118h48l95-87 112 87h53z"/><glyph glyph-name="uni01C7" unicode="Ǉ" horiz-adv-x="1076" d="M210 700h51L130 46h403L523 0H70zM620.5 22c-31.667 18-54.832 42.333-69.499 73l38 32c12.667-26.667 31.667-47.667 57-63s55-23 89-23c44 0 79.167 12.5 105.5 37.5s45.5 66.833 57.5 125.5l90 450h-258l9 46h309l-100-499c-14.667-74-39.5-126.833-74.5-158.5S791.334-5 732.001-5C689.334-5 652.167 4 620.5 22z"/><glyph glyph-name="uni01C8" unicode="ǈ" horiz-adv-x="851" d="M210 700h51L130 46h403L523 0H70zm249.5-889c-18.333 6-33.832 14.333-46.499 25l26 38c21.333-19.333 48.666-29 81.999-29 30.667 0 55.167 8.667 73.5 26s31.166 44.333 38.499 81l114 570h50l-115-574c-9.333-49.333-27.5-86-54.5-110s-63.167-36-108.5-36c-21.333 0-41.166 3-59.499 9zm315.501 849c-7.333 7.333-11 16-11 26 0 12 4.167 22.333 12.5 31s18.833 13 31.5 13c10.667 0 19.834-3.667 27.501-11s11.5-16 11.5-26c0-12.667-4.333-23.167-13-31.5S814.668 649 802.001 649c-10.667 0-19.667 3.667-27 11z"/><glyph glyph-name="uni01C9" unicode="ǉ" horiz-adv-x="527" d="M201 742h50L103 0H53zm-65.5-931c-18.333 6-33.832 14.333-46.499 25l26 38c21.333-19.333 48.666-29 81.999-29 30.667 0 55.167 8.667 73.5 26s31.166 44.333 38.499 81l114 570h50l-115-574c-9.333-49.333-27.5-86-54.5-110s-63.167-36-108.5-36c-21.333 0-41.166 3-59.499 9zm315.501 849c-7.333 7.333-11 16-11 26 0 12 4.167 22.333 12.5 31s18.833 13 31.5 13c10.667 0 19.834-3.667 27.501-11s11.5-16 11.5-26c0-12.667-4.333-23.167-13-31.5S490.668 649 478.001 649c-10.667 0-19.667 3.667-27 11z"/><glyph glyph-name="uni01CA" unicode="Ǌ" horiz-adv-x="1305" d="M780 700L640 0h-43L244 616 121 0H70l140 700h42L606 84l123 616h51zm69.5-678c-31.667 18-54.832 42.333-69.499 73l38 32c12.667-26.667 31.667-47.667 57-63s55-23 89-23c44 0 79.167 12.5 105.5 37.5s45.5 66.833 57.5 125.5l90 450h-258l9 46h309l-100-499c-14.667-74-39.5-126.833-74.5-158.5S1020.334-5 961.001-5C918.334-5 881.167 4 849.5 22z"/><glyph glyph-name="uni01CB" unicode="ǋ" horiz-adv-x="1080" d="M780 700L640 0h-43L244 616 121 0H70l140 700h42L606 84l123 616h51zm-91.5-889c-18.333 6-33.832 14.333-46.499 25l26 38c21.333-19.333 48.666-29 81.999-29 30.667 0 55.167 8.667 73.5 26s31.166 44.333 38.499 81l114 570h50l-115-574c-9.333-49.333-27.5-86-54.5-110s-63.167-36-108.5-36c-21.333 0-41.166 3-59.499 9zM1004 660c-7.333 7.333-11 16-11 26 0 12 4.167 22.333 12.5 31s18.833 13 31.5 13c10.667 0 19.834-3.667 27.501-11s11.5-16 11.5-26c0-12.667-4.333-23.167-13-31.5S1043.667 649 1031 649c-10.667 0-19.667 3.667-27 11z"/><glyph glyph-name="uni01CC" unicode="ǌ" horiz-adv-x="939" d="M539 481.5c32-29.667 48-70.499 48-122.499 0-18-2-37-6-57l-60-302h-50l60 302c3.333 15.333 5 32 5 50 0 41.333-12.5 73.166-37.5 95.499S437 481 389 481c-60 0-110-16.833-150-50.5S172.667 348 160 284L103 0H53l104 522h49l-20-99c24.667 34.667 55.5 60.5 92.5 77.5S356.667 526 402 526c59.333 0 105-14.833 137-44.5zm8.5-670.499c-18.333 6-33.832 14.333-46.499 25l26 38c21.333-19.333 48.666-29 81.999-29 30.667 0 55.167 8.667 73.5 26s31.166 44.333 38.499 81l114 570h50l-115-574c-9.333-49.333-27.5-86-54.5-110s-63.167-36-108.5-36c-21.333 0-41.166 3-59.499 9zm315.501 849c-7.333 7.333-11 16-11 26 0 12 4.167 22.333 12.5 31s18.833 13 31.5 13c10.667 0 19.834-3.667 27.501-11s11.5-16 11.5-26c0-12.667-4.333-23.167-13-31.5s-19.334-12.5-32.001-12.5c-10.667 0-19.667 3.667-27 11z"/><glyph glyph-name="uni01CD" unicode="Ǎ" horiz-adv-x="705" d="M546 197H139L10 0h-57l462 700h51L648 0h-52zm-11 43L432 646 167 240h368zm92 635L487 757h-55L319 875h48l95-87 112 87h53z"/><glyph glyph-name="uni01CE" unicode="ǎ" horiz-adv-x="675" d="M622 522L518 0h-48l20 102c-25.333-33.333-56.833-59.333-94.5-78S316-4 270-4c-68 0-122.5 19.5-163.5 58.5S45 146.333 45 213c0 59.333 12.667 112.833 38 160.5s60.5 85 105.5 112S284 526 340 526c54 0 98.667-11.667 134-35s59.333-56.333 72-99l26 130h50zM405.5 75c37 22.667 66.167 54.167 87.5 94.5s32 85.833 32 136.5c0 55.333-16.167 98.333-48.5 129s-77.833 46-136.5 46c-46.667 0-88.5-11.5-125.5-34.5s-66.167-54.667-87.5-95S95 266 95 216c0-55.333 16.167-98.333 48.5-129S221.333 41 280 41c46.667 0 88.5 11.333 125.5 34zM569 725L429 607h-55L261 725h48l95-87 112 87h53z"/><glyph glyph-name="uni01D3" unicode="Ǔ" horiz-adv-x="793" d="M179.5 54c-43 39.333-64.499 94.334-64.499 165.001 0 22 2.667 48 8 78l81 403h51l-80-402c-5.333-24-8-49.333-8-76 0-58.667 17-103.334 51-134.001s82.667-46 146-46c73.333 0 132.166 20.833 176.499 62.5s75.166 106.167 92.499 193.5l80 402h51l-81-405C643.666 95 536.333-5 361-5c-78 0-138.5 19.667-181.5 59zm491.501 821.001l-140-118h-55l-113 118h48l95-87 112 87h53z"/><glyph glyph-name="uni01D4" unicode="ǔ" horiz-adv-x="669" d="M616 522L512.001 0h-49l20 99c-48.667-68.667-120-103-214-103C210.334-4 165.167 10.833 133.5 40.5S86 111 86 163c0 18 2 37 6 57l60 302h50l-60-302c-3.333-14.667-5-31.334-5-50.001 0-41.333 12.167-73.166 36.5-95.499S234 41 282 41c60 0 109.667 16.833 149 50.5S496.333 174 509 238l57 284h50zm-38.999 203l-140-118h-55l-113 118h48l95-87 112 87h53z"/><glyph glyph-name="uni01E4" unicode="Ǥ" horiz-adv-x="805" d="M640.5 680c43-16.667 77.167-40.665 102.5-71.998l-36-32c-46.667 54.667-119.334 82-218.001 82-73.333 0-138.166-16.667-194.499-50s-99.833-78.5-130.5-135.5-46-119.5-46-187.5c0-74.667 23.833-133.834 71.5-177.501s116.167-65.5 205.5-65.5c73.333 0 138.666 21.333 195.999 64l49 241h49l-53-263c-31.333-28-68.5-49.833-111.5-65.5s-88.167-23.5-135.5-23.5c-67.333 0-125.166 12-173.499 36s-85.166 57.667-110.499 101-38 93.666-38 150.999c0 76.667 17.333 147.167 52 211.5S203.168 610 267.501 648 406.667 705 492 705c56 0 105.5-8.333 148.5-25zM411.776 257.002h369.712l-8.85-43H402.926z"/><glyph glyph-name="uni01E5" unicode="ǥ" horiz-adv-x="687" d="M513-27l69.998-.002-7-38h-80c-24.667-46-58-79.667-100-101s-94-32-156-32c-48 0-91.333 7.167-130 21.5s-70.667 34.5-96 60.5l32 37c20.667-23.333 48.167-41.5 82.5-54.5s72.5-19.5 114.5-19.5c47.333 0 87.333 7.167 120 21.5s59 36.5 79 66.5h-214l7 38h228c10.667 23.333 18.334 48.333 23.001 75l18 88c-26-34.667-58.5-61.5-97.5-80.5s-82.5-28.5-130.5-28.5c-70 0-125.5 18.333-166.5 55s-61.5 86.667-61.5 150c0 55.333 12.667 105.333 38 150s60.666 79.834 105.999 105.501 96.333 38.5 153 38.5c54.667 0 100.334-11.667 137.001-35S543.333 434.333 556 391l26 131h48L537 56c-6-30-14-57.667-24-83zM410.998 102.998c37.333 21.333 66.669 50.834 88.002 88.501s32 80.167 32 127.5c0 52-16.333 92.333-49 121s-78.334 43-137.001 43c-46.667 0-88.834-10.833-126.501-32.5s-67.167-51.334-88.5-89.001-32-80.167-32-127.5c0-51.333 16.333-91.333 49-120s78.667-43 138-43c46.667 0 88.667 10.667 126 32z"/><glyph glyph-name="Gcaron" unicode="Ǧ" horiz-adv-x="773" d="M640.5 680c43-16.667 77.167-40.665 102.5-71.998l-36-32c-46.667 54.667-119.334 82-218.001 82-73.333 0-138.166-16.667-194.499-50s-99.833-78.5-130.5-135.5-46-119.5-46-187.5c0-74.667 23.833-133.834 71.5-177.501s116.167-65.5 205.5-65.5c73.333 0 138.666 21.333 195.999 64l49 241h49l-53-263c-31.333-28-68.5-49.833-111.5-65.5s-88.167-23.5-135.5-23.5c-67.333 0-125.166 12-173.499 36s-85.166 57.667-110.499 101-38 93.666-38 150.999c0 76.667 17.333 147.167 52 211.5S203.168 610 267.501 648 406.667 705 492 705c56 0 105.5-8.333 148.5-25zM680 874.002l-140-118h-55l-113 118h48l95-87 112 87h53z"/><glyph glyph-name="gcaron" unicode="ǧ" horiz-adv-x="682" d="M629 522L536.001 55.999c-17.333-88.667-50-153.167-98-193.5s-114.333-60.5-199-60.5c-48 0-91.333 7.167-130 21.5s-70.667 34.5-96 60.5l32 37c21.333-23.333 49-41.5 83-54.5s72.333-19.5 115-19.5c69.333 0 123.666 16.333 162.999 49S471.666-20.667 484.999 48l16 78c-26-34-58.333-60.333-97-79s-81.667-28-129-28c-70 0-125.5 18.667-166.5 56s-61.5 88-61.5 152c0 56 12.667 106.833 38 152.5S145.665 461 190.998 487s96.333 39 153 39c54.667 0 100.334-11.667 137.001-35S542.333 433.667 555 389l26 133h48zM411.001 96.499c37.333 21.667 66.666 51.667 87.999 90s32 81.5 32 129.5c0 52-16.5 92.5-49.5 121.5s-78.833 43.5-137.5 43.5c-47.333 0-89.666-10.833-126.999-32.5s-66.666-51.667-87.999-90-32-81.5-32-129.5c0-52 16.5-92.5 49.5-121.5s78.833-43.5 137.5-43.5c47.333 0 89.666 10.833 126.999 32.5zm154 628.5l-140-118h-55l-113 118h48l95-87 112 87h53z"/><glyph glyph-name="uni01E8" unicode="Ǩ" horiz-adv-x="703" d="M383 376L642 0h-59L346 345 158 184 121 0H70l140 700h51l-89-445 521 445h69zm264 499L507 757h-55L339 875h48l95-87 112 87h53z"/><glyph glyph-name="uni01E9" unicode="ǩ" horiz-adv-x="576" d="M335 309L523 0h-58L296 279 134 154 103 0H53l148 742h50L147 219l389 303h73zm84 636L279 827h-55L111 945h48l95-87 112 87h53z"/><glyph glyph-name="uni01EA" unicode="Ǫ" horiz-adv-x="838" d="M659.5 669c48.333-24 85.005-57.667 110.005-101s37.5-93.666 37.5-150.999c0-67.333-13.5-130.166-40.5-188.499s-65.333-107.333-115-147S543.671 15.668 477.004 3.001c-67.333-12.667-117.5-31.834-150.5-57.501s-49.5-52.5-49.5-80.5c0-16 4.833-28.167 14.5-36.5s23.167-12.5 40.5-12.5c12 0 24.167 2 36.5 6s23.166 9.333 32.499 16l10-30c-24.667-16.667-53.334-25-86.001-25-26.667 0-47.834 6.667-63.501 20s-23.5 32-23.5 56c0 27.333 9.333 52.833 28 76.5s47 43.834 85 60.501c-90 6.667-159.833 35.667-209.5 87s-74.5 118-74.5 200c0 76 17.167 146.167 51.5 210.5s83.333 115.666 147 153.999 137.167 57.5 220.5 57.5c67.333 0 125.166-12 173.499-36zM582.005 92.5c55.333 33.667 97.999 78.999 127.999 135.999s45 119.167 45 186.5c0 74.667-23.5 133.834-70.5 177.501s-114.5 65.5-202.5 65.5c-71.333 0-134.666-16.833-189.999-50.5s-98.166-79-128.499-136-45.5-119.167-45.5-186.5c0-74 23.667-133 71-177s115-66 203-66c71.333 0 134.666 16.833 189.999 50.5z"/><glyph glyph-name="uni01EB" unicode="ǫ" horiz-adv-x="620" d="M512.5 467.5c41.667-39 62.502-91.832 62.502-158.499 0-71.333-18-133.5-54-186.5s-85.333-90.5-148-112.5c-117.333-41.333-176-89.666-176-144.999 0-16 4.667-28.167 14-36.5s22.666-12.5 39.999-12.5c26 0 49.333 7.333 70 22l9-30c-24.667-16.667-53.334-25-86.001-25-26 0-47 6.833-63 20.5s-24 32.167-24 55.5c0 54 36 99.667 108 137-67.333 2-120.833 22.5-160.5 61.5S45 148.335 45 213.002c0 59.333 12.833 112.666 38.5 159.999S144.667 457.667 190 485s96.666 41 153.999 41c70.667 0 126.834-19.5 168.501-58.5zM405.502 75.001c37 22.667 66.167 54.167 87.5 94.5s32 85.833 32 136.5c0 55.333-16.167 98.333-48.5 129s-77.833 46-136.5 46c-46.667 0-88.5-11.5-125.5-34.5s-66.167-54.667-87.5-95-32-85.5-32-135.5c0-55.333 16.167-98.333 48.5-129s77.833-46 136.5-46c46.667 0 88.5 11.333 125.5 34z"/><glyph glyph-name="uni01EE" unicode="Ǯ" horiz-adv-x="586" d="M577 664L315 394c64-2.667 113-19.167 147-49.5s51-71.833 51-124.5c0-44-11.5-83-34.5-117S423 42.5 381 23.5 290.333-5 235-5C181.667-5 134 3.667 92 21S19 61.333-1 90l31 38c17.333-26 44.333-46.833 81-62.5S190 42 238 42c69.333 0 124 15.833 164 47.5S462 164 462 218c0 89.333-60.667 134-182 134h-38l7 37 258 265H136l10 46h438zm-24 211L413 757h-55L245 875h48l95-87 112 87h53z"/><glyph glyph-name="uni01EF" unicode="ǯ" horiz-adv-x="504" d="M485 486L215.997 209c66-2.667 116.333-19.334 151-50.001s52-73 52-127c0-47.333-12.833-88.5-38.5-123.5s-60-61.667-103-80-89.5-27.5-139.5-27.5c-45.333 0-88.166 7.833-128.499 23.5s-75.166 39.5-104.499 71.5l28 40c25.333-29.333 56.333-51.333 93-66s75-22 115-22c40.667 0 78.334 7.167 113.001 21.5s62.167 35.333 82.5 63S367-6.667 367 32c0 44-14.667 77.833-44 101.5S248.667 169 188 169h-40l6 35 261 272H44l9 46h438zm4.997 239l-140-118h-55l-113 118h48l95-87 112 87h53z"/><glyph glyph-name="Aringacute" unicode="Ǻ" horiz-adv-x="705" d="M546 197H139L10 0h-57l462 700h51L648 0h-52zm-11 43L432 646 167 240h368zm18 692c14-18 20.999-38.333 20.999-61 0-26.667-9.5-49.5-28.5-68.5s-42.833-28.5-71.5-28.5c-28 0-51.5 9.5-70.5 28.5s-28.5 41.833-28.5 68.5c0 27.333 9.5 50.833 28.5 70.5s42.5 29.5 70.5 29.5c20.667 0 39.334-5.667 56.001-17l81 80 30-24zm-28.001-110c13.333 13.333 20 29.667 20 49 0 20-6.833 36.833-20.5 50.5s-30.5 20.5-50.5 20.5-36.5-6.833-49.5-20.5-19.5-30.5-19.5-50.5 6.5-36.5 19.5-49.5 29.5-19.5 49.5-19.5c20.667 0 37.667 6.667 51 20z"/><glyph glyph-name="aringacute" unicode="ǻ" horiz-adv-x="675" d="M622 522L518 0h-48l20 102c-25.333-33.333-56.833-59.333-94.5-78S316-4 270-4c-68 0-122.5 19.5-163.5 58.5S45 146.333 45 213c0 59.333 12.667 112.833 38 160.5s60.5 85 105.5 112S284 526 340 526c54 0 98.667-11.667 134-35s59.333-56.333 72-99l26 130h50zM405.5 75c37 22.667 66.167 54.167 87.5 94.5s32 85.833 32 136.5c0 55.333-16.167 98.333-48.5 129s-77.833 46-136.5 46c-46.667 0-88.5-11.5-125.5-34.5s-66.167-54.667-87.5-95S95 266 95 216c0-55.333 16.167-98.333 48.5-129S221.333 41 280 41c46.667 0 88.5 11.333 125.5 34zM489 754c14-18 20.999-38.333 20.999-61 0-26.667-9.5-49.5-28.5-68.5s-42.833-28.5-71.5-28.5c-28 0-51.5 9.5-70.5 28.5s-28.5 41.833-28.5 68.5c0 27.333 9.5 50.833 28.5 70.5s42.5 29.5 70.5 29.5c20.667 0 39.334-5.667 56.001-17l81 80 30-24zm-28.001-110c13.333 13.333 20 29.667 20 49 0 20-6.833 36.833-20.5 50.5s-30.5 20.5-50.5 20.5-36.5-6.833-49.5-20.5-19.5-30.5-19.5-50.5 6.5-36.5 19.5-49.5 29.5-19.5 49.5-19.5c20.667 0 37.667 6.667 51 20z"/><glyph glyph-name="AEacute" unicode="Ǽ" horiz-adv-x="1022" d="M605 654l-55-276h372l-9-45H541L483 46h432L905 0H423l39 197H172L12 0h-60l571 700h508l-10-46H605zM471 240l83 415h-9L207 240h264zm222 635h75L598 757h-57z"/><glyph glyph-name="aeacute" unicode="ǽ" horiz-adv-x="985" d="M482 251c-1.333-14.667-2.001-26-2.001-34 0-57.333 16.5-101 49.5-131s81.167-45 144.5-45c36.667 0 70 6 100 18s55.667 29.333 77 52l25-35c-24-25.333-54.167-45-90.5-59S710.333-4 669-4C612.333-4 564.333 8 525 32s-66 59.333-80 106c-22-48-53.5-83.667-94.5-107S264-4 214-4C158-4 114.167 7.833 82.5 31.5S35 87.667 35 129c0 50 19.167 89.333 57.5 118s92.166 43 161.499 43h184l8 37c3.333 18 5 32.667 5 44 0 36-11.5 63.333-34.5 82s-56.833 28-101.5 28c-34 0-67.5-5.833-100.5-17.5s-61.5-27.167-85.5-46.5l-19 38c27.333 22 59.833 39.333 97.5 52S283.333 526 322 526c51.333 0 91.5-10 120.5-30s46.167-48.667 51.5-86c26 36.667 58.5 65.167 97.5 85.5S672.333 526 717 526c68.667 0 123-19.5 163-58.5s60-92.167 60-159.5c0-19.333-2.333-38.333-7-57H482zm87.499 179c-41-35.333-68.168-81.999-81.501-139.999h403c.667 6 1 14.333 1 25 0 53.333-16.167 94.666-48.5 123.999s-75.166 44-128.499 44c-56 0-104.5-17.667-145.5-53zM348.498 80.001c37 28.667 60.833 69.333 71.5 122l10 49h-179c-52.667 0-93.5-10.5-122.5-31.5s-43.5-50.167-43.5-87.5c0-30.667 11.167-54.167 33.5-70.5s55.5-24.5 99.5-24.5c50 0 93.5 14.333 130.5 43zM618.998 725h75l-170-118h-57z"/><glyph glyph-name="Oslashacute" unicode="Ǿ" horiz-adv-x="838" d="M214 31c-48 24-84.498 57.667-109.498 101s-37.5 93.666-37.5 150.999c0 76 17.167 146.167 51.5 210.5s83.333 115.666 147 153.999 137.167 57.5 220.5 57.5c67.333 0 125.166-12 173.499-36s85-57.667 110-101 37.5-93.666 37.5-150.999c0-76-17.333-146.167-52-210.5S671.167 90.833 607.5 52.5 470.333-5 387-5C319.667-5 262 7 214 31zm368.002 61.5c55.333 33.667 97.999 78.999 127.999 135.999s45 119.167 45 186.5c0 74.667-23.5 133.834-70.5 177.501s-114.5 65.5-202.5 65.5c-71.333 0-134.666-16.833-189.999-50.5s-98.166-79-128.499-136-45.5-119.167-45.5-186.5c0-74 23.667-133 71-177s115-66 203-66c71.333 0 134.666 16.833 189.999 50.5zm218.999 677.499h47l-776-840h-47zm-191 105h75l-170-118h-57z"/><glyph glyph-name="oslashacute" unicode="ǿ" horiz-adv-x="620" d="M107.5 55C65.833 94.333 45 147.002 45 213.002c0 59.333 12.833 112.666 38.5 159.999S144.667 457.667 190 485s96.666 41 153.999 41c70.667 0 126.834-19.5 168.501-58.5S575 375.667 575 309c0-59.333-12.833-112.833-38.5-160.5s-61.167-85-106.5-112S333.334-4 276.001-4C205.334-4 149.167 15.667 107.5 55zm298 20.002c37 22.667 66.167 54.167 87.5 94.5s32 85.833 32 136.5c0 55.333-16.167 98.333-48.5 129s-77.833 46-136.5 46c-46.667 0-88.5-11.5-125.5-34.5s-66.167-54.667-87.5-95-32-85.5-32-135.5c0-55.333 16.167-98.333 48.5-129s77.833-46 136.5-46c46.667 0 88.5 11.333 125.5 34zm169.5 517h40l-573-662H2zm-104 133h75l-170-118h-57z"/><glyph glyph-name="uni0200" unicode="Ȁ" horiz-adv-x="705" d="M546 197H139L10 0h-57l462 700h51L648 0h-52zm-11 43L432 646 167 240h368zM259 875h60l79-118h-47zm153 0h60l79-118h-47z"/><glyph glyph-name="uni0201" unicode="ȁ" horiz-adv-x="675" d="M622 522L518 0h-48l20 102c-25.333-33.333-56.833-59.333-94.5-78S316-4 270-4c-68 0-122.5 19.5-163.5 58.5S45 146.333 45 213c0 59.333 12.667 112.833 38 160.5s60.5 85 105.5 112S284 526 340 526c54 0 98.667-11.667 134-35s59.333-56.333 72-99l26 130h50zM405.5 75c37 22.667 66.167 54.167 87.5 94.5s32 85.833 32 136.5c0 55.333-16.167 98.333-48.5 129s-77.833 46-136.5 46c-46.667 0-88.5-11.5-125.5-34.5s-66.167-54.667-87.5-95S95 266 95 216c0-55.333 16.167-98.333 48.5-129S221.333 41 280 41c46.667 0 88.5 11.333 125.5 34zM201 725h60l79-118h-47zm153 0h60l79-118h-47z"/><glyph glyph-name="uni0202" unicode="Ȃ" horiz-adv-x="705" d="M546 197H139L10 0h-57l462 700h51L648 0h-52zm-11 43L432 646 167 240h368zM359 846c28.667 22 63.334 33 104.001 33 40 0 72.667-11.167 98-33.5S597.667 793.667 595 757h-37c2 27.333-6.167 49-24.5 65s-42.833 24-73.5 24c-29.333 0-54.833-8.167-76.5-24.5S349 783.667 345 757h-38c6 37.333 23.333 67 52 89z"/><glyph glyph-name="uni0203" unicode="ȃ" horiz-adv-x="675" d="M622 522L518 0h-48l20 102c-25.333-33.333-56.833-59.333-94.5-78S316-4 270-4c-68 0-122.5 19.5-163.5 58.5S45 146.333 45 213c0 59.333 12.667 112.833 38 160.5s60.5 85 105.5 112S284 526 340 526c54 0 98.667-11.667 134-35s59.333-56.333 72-99l26 130h50zM405.5 75c37 22.667 66.167 54.167 87.5 94.5s32 85.833 32 136.5c0 55.333-16.167 98.333-48.5 129s-77.833 46-136.5 46c-46.667 0-88.5-11.5-125.5-34.5s-66.167-54.667-87.5-95S95 266 95 216c0-55.333 16.167-98.333 48.5-129S221.333 41 280 41c46.667 0 88.5 11.333 125.5 34zM301 696c28.667 22 63.334 33 104.001 33 40 0 72.667-11.167 98-33.5S539.667 643.667 537 607h-37c2 27.333-6.167 49-24.5 65s-42.833 24-73.5 24c-29.333 0-54.833-8.167-76.5-24.5S291 633.667 287 607h-38c6 37.333 23.333 67 52 89z"/><glyph glyph-name="uni0204" unicode="Ȅ" horiz-adv-x="669" d="M252 654l-55-276h372l-9-45H188L130 46h432L552 0H70l140 700h468l-10-46H252zm11 221h60l79-118h-47zm153 0h60l79-118h-47z"/><glyph glyph-name="uni0205" unicode="ȅ" horiz-adv-x="598" d="M96 250c-1.333-14.667-2.002-25.668-2.002-33.001 0-56.667 16.333-100.167 49-130.5s80.667-45.5 144-45.5c36.667 0 70.5 6.167 101.5 18.5s56.833 29.5 77.5 51.5l23-35c-23.333-25.333-53.166-45-89.499-59s-75.166-21-116.499-21c-74 0-132.167 19.333-174.5 58S45 146.333 45 215c0 58.667 12.333 111.667 37 159s58.667 84.5 102 111.5S276 526 330 526c68 0 122-19.333 162-58s60-92 60-160c0-16-2-35.333-6-58H96zm86.498 179.999c-41-35.333-67.833-82.334-80.5-141.001h402c.667 6 1 14.667 1 26 0 52.667-16 93.834-48 123.501s-74.667 44.5-128 44.5c-56.667 0-105.5-17.667-146.5-53zm-12.5 294.999h60l79-118h-47zm153 0h60l79-118h-47z"/><glyph glyph-name="uni0206" unicode="Ȇ" horiz-adv-x="669" d="M252 654l-55-276h372l-9-45H188L130 46h432L552 0H70l140 700h468l-10-46H252zm111 192c28.667 22 63.334 33 104.001 33 40 0 72.667-11.167 98-33.5S601.667 793.667 599 757h-37c2 27.333-6.167 49-24.5 65s-42.833 24-73.5 24c-29.333 0-54.833-8.167-76.5-24.5S353 783.667 349 757h-38c6 37.333 23.333 67 52 89z"/><glyph glyph-name="uni0207" unicode="ȇ" horiz-adv-x="598" d="M96 250c-1.333-14.667-2.002-25.668-2.002-33.001 0-56.667 16.333-100.167 49-130.5s80.667-45.5 144-45.5c36.667 0 70.5 6.167 101.5 18.5s56.833 29.5 77.5 51.5l23-35c-23.333-25.333-53.166-45-89.499-59s-75.166-21-116.499-21c-74 0-132.167 19.333-174.5 58S45 146.333 45 215c0 58.667 12.333 111.667 37 159s58.667 84.5 102 111.5S276 526 330 526c68 0 122-19.333 162-58s60-92 60-160c0-16-2-35.333-6-58H96zm86.498 179.999c-41-35.333-67.833-82.334-80.5-141.001h402c.667 6 1 14.667 1 26 0 52.667-16 93.834-48 123.501s-74.667 44.5-128 44.5c-56.667 0-105.5-17.667-146.5-53zm87.5 265.999c28.667 22 63.334 33 104.001 33 40 0 72.667-11.167 98-33.5s36.666-51.833 33.999-88.5h-37c2 27.333-6.167 49-24.5 65s-42.833 24-73.5 24c-29.333 0-54.833-8.167-76.5-24.5s-34.5-37.833-38.5-64.5h-38c6 37.333 23.333 67 52 89z"/><glyph glyph-name="uni0208" unicode="Ȉ" horiz-adv-x="295" d="M210 700h51L121 0H70zM54 875h60l79-118h-47zm153 0h60l79-118h-47z"/><glyph glyph-name="uni0209" unicode="ȉ" horiz-adv-x="261" d="M157 522h50L103 0H53zM7 725h60l79-118H99zm153 0h60l79-118h-47z"/><glyph glyph-name="uni020A" unicode="Ȋ" horiz-adv-x="295" d="M210 700h51L121 0H70zm-56 146c28.667 22 63.334 33 104.001 33 40 0 72.667-11.167 98-33.5S392.667 793.667 390 757h-37c2 27.333-6.167 49-24.5 65s-42.833 24-73.5 24c-29.333 0-54.833-8.167-76.5-24.5S144 783.667 140 757h-38c6 37.333 23.333 67 52 89z"/><glyph glyph-name="uni020B" unicode="ȋ" horiz-adv-x="261" d="M157 522h50L103 0H53zm-36 175.5c22.667 21 52.667 31.5 90 31.5 33.333 0 59.666-9.333 78.999-28s29-43.667 29-75c0-8.667-.333-15-1-19h-35c.667 3.333 1 8.333 1 15 0 23.333-6.5 41.5-19.5 54.5s-31.167 19.5-54.5 19.5c-54.667 0-85.667-29.667-93-89h-37c4.667 39.333 18.334 69.5 41.001 90.5z"/><glyph glyph-name="uni020C" unicode="Ȍ" horiz-adv-x="838" d="M214 31c-48 24-84.498 57.667-109.498 101s-37.5 93.666-37.5 150.999c0 76 17.167 146.167 51.5 210.5s83.333 115.666 147 153.999 137.167 57.5 220.5 57.5c67.333 0 125.166-12 173.499-36s85-57.667 110-101 37.5-93.666 37.5-150.999c0-76-17.333-146.167-52-210.5S671.167 90.833 607.5 52.5 470.333-5 387-5C319.667-5 262 7 214 31zm368.002 61.5c55.333 33.667 97.999 78.999 127.999 135.999s45 119.167 45 186.5c0 74.667-23.5 133.834-70.5 177.501s-114.5 65.5-202.5 65.5c-71.333 0-134.666-16.833-189.999-50.5s-98.166-79-128.499-136-45.5-119.167-45.5-186.5c0-74 23.667-133 71-177s115-66 203-66c71.333 0 134.666 16.833 189.999 50.5zM325.001 874.999h60l79-118h-47zm153 0h60l79-118h-47z"/><glyph glyph-name="uni020D" unicode="ȍ" horiz-adv-x="620" d="M107.5 55C65.833 94.333 45 147.002 45 213.002c0 59.333 12.833 112.666 38.5 159.999S144.667 457.667 190 485s96.666 41 153.999 41c70.667 0 126.834-19.5 168.501-58.5S575 375.667 575 309c0-59.333-12.833-112.833-38.5-160.5s-61.167-85-106.5-112S333.334-4 276.001-4C205.334-4 149.167 15.667 107.5 55zm298 20.002c37 22.667 66.167 54.167 87.5 94.5s32 85.833 32 136.5c0 55.333-16.167 98.333-48.5 129s-77.833 46-136.5 46c-46.667 0-88.5-11.5-125.5-34.5s-66.167-54.667-87.5-95-32-85.5-32-135.5c0-55.333 16.167-98.333 48.5-129s77.833-46 136.5-46c46.667 0 88.5 11.333 125.5 34zm-219.5 650h60l79-118h-47zm153 0h60l79-118h-47z"/><glyph glyph-name="uni020E" unicode="Ȏ" horiz-adv-x="838" d="M214 31c-48 24-84.498 57.667-109.498 101s-37.5 93.666-37.5 150.999c0 76 17.167 146.167 51.5 210.5s83.333 115.666 147 153.999 137.167 57.5 220.5 57.5c67.333 0 125.166-12 173.499-36s85-57.667 110-101 37.5-93.666 37.5-150.999c0-76-17.333-146.167-52-210.5S671.167 90.833 607.5 52.5 470.333-5 387-5C319.667-5 262 7 214 31zm368.002 61.5c55.333 33.667 97.999 78.999 127.999 135.999s45 119.167 45 186.5c0 74.667-23.5 133.834-70.5 177.501s-114.5 65.5-202.5 65.5c-71.333 0-134.666-16.833-189.999-50.5s-98.166-79-128.499-136-45.5-119.167-45.5-186.5c0-74 23.667-133 71-177s115-66 203-66c71.333 0 134.666 16.833 189.999 50.5zM425.001 845.999c28.667 22 63.334 33 104.001 33 40 0 72.667-11.167 98-33.5s36.666-51.833 33.999-88.5h-37c2 27.333-6.167 49-24.5 65s-42.833 24-73.5 24c-29.333 0-54.833-8.167-76.5-24.5s-34.5-37.833-38.5-64.5h-38c6 37.333 23.333 67 52 89z"/><glyph glyph-name="uni020F" unicode="ȏ" horiz-adv-x="620" d="M107.5 55C65.833 94.333 45 147.002 45 213.002c0 59.333 12.833 112.666 38.5 159.999S144.667 457.667 190 485s96.666 41 153.999 41c70.667 0 126.834-19.5 168.501-58.5S575 375.667 575 309c0-59.333-12.833-112.833-38.5-160.5s-61.167-85-106.5-112S333.334-4 276.001-4C205.334-4 149.167 15.667 107.5 55zm298 20.002c37 22.667 66.167 54.167 87.5 94.5s32 85.833 32 136.5c0 55.333-16.167 98.333-48.5 129s-77.833 46-136.5 46c-46.667 0-88.5-11.5-125.5-34.5s-66.167-54.667-87.5-95-32-85.5-32-135.5c0-55.333 16.167-98.333 48.5-129s77.833-46 136.5-46c46.667 0 88.5 11.333 125.5 34zm-119.5 621c28.667 22 63.334 33 104.001 33 40 0 72.667-11.167 98-33.5s36.666-51.833 33.999-88.5h-37c2 27.333-6.167 49-24.5 65s-42.833 24-73.5 24c-29.333 0-54.833-8.167-76.5-24.5s-34.5-37.833-38.5-64.5h-38c6 37.333 23.333 67 52 89z"/><glyph glyph-name="uni0210" unicode="Ȑ" horiz-adv-x="720" d="M640.5 330.5C602.167 284.833 548 254.667 478 240L613 0h-56L426 232c-21.333-1.333-37.666-2-48.999-2h-210l-46-230h-51l140 700h245c77.333 0 137.166-16.833 179.499-50.5S698 568.333 698 507c0-72-19.167-130.833-57.5-176.5zm-63.5 2.501c46.667 38.667 70 95.333 70 170 0 48.667-16.833 86-50.5 112s-81.834 39-144.501 39h-200l-76-379h201c86.667 0 153.334 19.333 200.001 58zM274 875h60l79-118h-47zm153 0h60l79-118h-47z"/><glyph glyph-name="uni0211" unicode="ȑ" horiz-adv-x="394" d="M273.5 497.5c36.333 19 80.501 28.499 132.501 28.499l-9-49-16 1c-59.333 0-108-17.667-146-53s-64-87.666-78-156.999l-54-268h-50l104 522h49l-22-110c23.333 38 53.166 66.5 89.499 85.5zM106.001 724.999h60l79-118h-47zm153 0h60l79-118h-47z"/><glyph glyph-name="uni0212" unicode="Ȓ" horiz-adv-x="720" d="M640.5 330.5C602.167 284.833 548 254.667 478 240L613 0h-56L426 232c-21.333-1.333-37.666-2-48.999-2h-210l-46-230h-51l140 700h245c77.333 0 137.166-16.833 179.499-50.5S698 568.333 698 507c0-72-19.167-130.833-57.5-176.5zm-63.5 2.501c46.667 38.667 70 95.333 70 170 0 48.667-16.833 86-50.5 112s-81.834 39-144.501 39h-200l-76-379h201c86.667 0 153.334 19.333 200.001 58zM374 846c28.667 22 63.334 33 104.001 33 40 0 72.667-11.167 98-33.5S612.667 793.667 610 757h-37c2 27.333-6.167 49-24.5 65s-42.833 24-73.5 24c-29.333 0-54.833-8.167-76.5-24.5S364 783.667 360 757h-38c6 37.333 23.333 67 52 89z"/><glyph glyph-name="uni0213" unicode="ȓ" horiz-adv-x="394" d="M273.5 497.5c36.333 19 80.501 28.499 132.501 28.499l-9-49-16 1c-59.333 0-108-17.667-146-53s-64-87.666-78-156.999l-54-268h-50l104 522h49l-22-110c23.333 38 53.166 66.5 89.499 85.5zm-67.499 198.499c28.667 22 63.334 33 104.001 33 40 0 72.667-11.167 98-33.5s36.666-51.833 33.999-88.5h-37c2 27.333-6.167 49-24.5 65s-42.833 24-73.5 24c-29.333 0-54.833-8.167-76.5-24.5s-34.5-37.833-38.5-64.5h-38c6 37.333 23.333 67 52 89z"/><glyph glyph-name="uni0214" unicode="Ȕ" horiz-adv-x="793" d="M179.5 54c-43 39.333-64.499 94.334-64.499 165.001 0 22 2.667 48 8 78l81 403h51l-80-402c-5.333-24-8-49.333-8-76 0-58.667 17-103.334 51-134.001s82.667-46 146-46c73.333 0 132.166 20.833 176.499 62.5s75.166 106.167 92.499 193.5l80 402h51l-81-405C643.666 95 536.333-5 361-5c-78 0-138.5 19.667-181.5 59zm123.501 821.001h60l79-118h-47zm153 0h60l79-118h-47z"/><glyph glyph-name="uni0215" unicode="ȕ" horiz-adv-x="669" d="M616 522L512.001 0h-49l20 99c-48.667-68.667-120-103-214-103C210.334-4 165.167 10.833 133.5 40.5S86 111 86 163c0 18 2 37 6 57l60 302h50l-60-302c-3.333-14.667-5-31.334-5-50.001 0-41.333 12.167-73.166 36.5-95.499S234 41 282 41c60 0 109.667 16.833 149 50.5S496.333 174 509 238l57 284h50zM209.001 725h60l79-118h-47zm153 0h60l79-118h-47z"/><glyph glyph-name="uni0216" unicode="Ȗ" horiz-adv-x="793" d="M179.5 54c-43 39.333-64.499 94.334-64.499 165.001 0 22 2.667 48 8 78l81 403h51l-80-402c-5.333-24-8-49.333-8-76 0-58.667 17-103.334 51-134.001s82.667-46 146-46c73.333 0 132.166 20.833 176.499 62.5s75.166 106.167 92.499 193.5l80 402h51l-81-405C643.666 95 536.333-5 361-5c-78 0-138.5 19.667-181.5 59zm223.501 792.001c28.667 22 63.334 33 104.001 33 40 0 72.667-11.167 98-33.5s36.666-51.833 33.999-88.5h-37c2 27.333-6.167 49-24.5 65s-42.833 24-73.5 24c-29.333 0-54.833-8.167-76.5-24.5s-34.5-37.833-38.5-64.5h-38c6 37.333 23.333 67 52 89z"/><glyph glyph-name="uni0217" unicode="ȗ" horiz-adv-x="669" d="M616 522L512.001 0h-49l20 99c-48.667-68.667-120-103-214-103C210.334-4 165.167 10.833 133.5 40.5S86 111 86 163c0 18 2 37 6 57l60 302h50l-60-302c-3.333-14.667-5-31.334-5-50.001 0-41.333 12.167-73.166 36.5-95.499S234 41 282 41c60 0 109.667 16.833 149 50.5S496.333 174 509 238l57 284h50zM309.001 696c28.667 22 63.334 33 104.001 33 40 0 72.667-11.167 98-33.5s36.666-51.833 33.999-88.5h-37c2 27.333-6.167 49-24.5 65s-42.833 24-73.5 24c-29.333 0-54.833-8.167-76.5-24.5s-34.5-37.833-38.5-64.5h-38c6 37.333 23.333 67 52 89z"/><glyph glyph-name="Scommaaccent" unicode="Ș" horiz-adv-x="609" d="M120 21.5C74 39.167 40.002 61.333 18.002 88l27 39c21.333-25.333 52.833-46.166 94.5-62.499s84.834-24.5 129.501-24.5c67.333 0 121.166 13.667 161.499 41s60.5 65.333 60.5 114c0 25.333-7.5 46-22.5 62s-33.667 28.667-56 38-52.5 19.333-90.5 30c-44 13.333-79.333 25.666-106 36.999s-49.167 28-67.5 50-27.5 50.667-27.5 86c0 42.667 11.667 79.667 35 111s55.333 55.166 96 71.499 87.334 24.5 140.001 24.5c40.667 0 79.5-5.333 116.5-16s68.5-25.667 94.5-45l-24-42c-24.667 18.667-53.334 33-86.001 43s-67 15-103 15c-65.333 0-118-14-158-42s-60-66.333-60-115c0-26 7.667-47.333 23-64s34.166-29.667 56.499-39S304.667 380.333 344 369c44-13.333 79-25.5 105-36.5s48-27.167 66-48.5 27-49 27-83c0-65.333-25.667-116-77-152S347-5 265-5c-50.667 0-99 8.833-145 26.5zm143.502-143.001c6.333-6.333 9.499-13.834 9.499-22.501 0-6.667-1-12.667-3-18s-5.667-12.333-11-21l-42-78h-29l37 83c-7.333 2-13.166 5.833-17.499 11.5s-6.5 11.834-6.5 18.501c0 10 3.333 18.5 10 25.5s15.334 10.5 26.001 10.5c11.333 0 20.166-3.167 26.499-9.5z"/><glyph glyph-name="scommaaccent" unicode="ș" horiz-adv-x="478" d="M79.5 14.5c-37 12.333-65.831 28.169-86.498 47.502l27 39c19.333-18.667 45.166-33.5 77.499-44.5s66.5-16.5 102.5-16.5c54 0 95.833 9.5 125.5 28.5s44.5 45.5 44.5 79.5c0 19.333-6 34.666-18 45.999s-26.667 19.833-44 25.5-41.333 11.834-72 18.501c-36 7.333-65.167 15-87.5 23s-41.166 20.5-56.499 37.5-23 40.167-23 69.5c0 48 19.833 86.333 59.5 115s92.5 43 158.5 43c33.333 0 65.666-4.5 96.999-13.5s56.333-21.5 75-37.5l-23-39c-19.333 15.333-42.5 26.833-69.5 34.5s-54.833 11.5-83.5 11.5c-50.667 0-90.834-10-120.501-30s-44.5-46.333-44.5-79c0-20 6-35.833 18-47.5s27.167-20.5 45.5-26.5 42.833-12.333 73.5-19c36-7.333 64.833-14.833 86.5-22.5s40.167-19.834 55.5-36.501 23-39.334 23-68.001c0-48.667-20.333-87-61-115S264-4 196-4c-40.667 0-79.5 6.167-116.5 18.5zm103.002-135.997c6.333-6.333 9.499-13.834 9.499-22.501 0-6.667-1-12.667-3-18s-5.667-12.333-11-21l-42-78h-29l37 83c-7.333 2-13.166 5.833-17.499 11.5s-6.5 11.834-6.5 18.501c0 10 3.333 18.5 10 25.5s15.334 10.5 26.001 10.5c11.333 0 20.166-3.167 26.499-9.5z"/><glyph glyph-name="uni021A" unicode="Ț" horiz-adv-x="563" d="M334 654H82l10 46h555l-9-46H386L255 0h-51zM225.5-121.5c6.333-6.333 9.499-13.834 9.499-22.501 0-6.667-1-12.667-3-18s-5.667-12.333-11-21l-42-78h-29l37 83c-7.333 2-13.166 5.833-17.499 11.5S163-154.667 163-148c0 10 3.333 18.5 10 25.5s15.334 10.5 26.001 10.5c11.333 0 20.166-3.167 26.499-9.5z"/><glyph glyph-name="uni021B" unicode="ț" horiz-adv-x="398" d="M144 151c-2.667-12.667-4-25.001-4-37.001 0-50 26.667-75 80-75 32 0 60.333 9.667 85 29l15-37c-28.667-23.333-66-35-112-35-37.333 0-66.5 9.833-87.5 29.5S89 72.333 89 107c0 14 1.333 27.333 4 40l67 332H63l8 43h97l23 114h50l-23-114h166l-8-43H210zm45.5-272.501c6.333-6.333 9.499-13.834 9.499-22.501 0-6.667-1-12.667-3-18s-5.667-12.333-11-21l-42-78h-29l37 83c-7.333 2-13.166 5.833-17.499 11.5s-6.5 11.834-6.5 18.501c0 10 3.333 18.5 10 25.5s15.334 10.5 26.001 10.5c11.333 0 20.166-3.167 26.499-9.5z"/><glyph glyph-name="uni021E" unicode="Ȟ" horiz-adv-x="814" d="M780 700L640 0h-51l66 332H187L121 0H70l140 700h51l-64-321h468l64 321h51zm-98 175L542 757h-55L374 875h48l95-87 112 87h53z"/><glyph glyph-name="uni021F" unicode="ȟ" horiz-adv-x="673" d="M539 481.5c32-29.667 48.001-70.499 48.001-122.499 0-18-2-37-6-57l-60-302h-50l60 302c3.333 15.333 5 32 5 50 0 41.333-12.5 73.166-37.5 95.499s-61.5 33.5-109.5 33.5c-60 0-110-16.833-150-50.5s-66.333-82.5-79-146.5l-57-284h-50l148 742h50l-63-317C237.334 492.333 308.667 526 402 526c59.333 0 105-14.833 137-44.5zM419.001 945.001l-140-118h-55l-113 118h48l95-87 112 87h53z"/><glyph glyph-name="uni022A" unicode="Ȫ" horiz-adv-x="838" d="M214 31c-48 24-84.498 57.667-109.498 101s-37.5 93.666-37.5 150.999c0 76 17.167 146.167 51.5 210.5s83.333 115.666 147 153.999 137.167 57.5 220.5 57.5c67.333 0 125.166-12 173.499-36s85-57.667 110-101 37.5-93.666 37.5-150.999c0-76-17.333-146.167-52-210.5S671.167 90.833 607.5 52.5 470.333-5 387-5C319.667-5 262 7 214 31zm368.002 61.5c55.333 33.667 97.999 78.999 127.999 135.999s45 119.167 45 186.5c0 74.667-23.5 133.834-70.5 177.501s-114.5 65.5-202.5 65.5c-71.333 0-134.666-16.833-189.999-50.5s-98.166-79-128.499-136-45.5-119.167-45.5-186.5c0-74 23.667-133 71-177s115-66 203-66c71.333 0 134.666 16.833 189.999 50.5zM418.001 793.499c-6.667 6.333-10 13.831-10 22.498 0 10.667 3.667 19.834 11 27.501s16 11.5 26 11.5c9.333 0 17.333-3.167 24-9.5s10-14.166 10-23.499c0-10.667-3.667-19.667-11-27s-16-11-26-11c-9.333 0-17.333 3.167-24 9.5zm171-.002c-6.667 6.333-10 13.831-10 22.498 0 10.667 3.667 19.834 11 27.501s16 11.5 26 11.5c9.333 0 17.333-3.167 24-9.5s10-14.166 10-23.499c0-10.667-3.667-19.667-11-27s-16-11-26-11c-9.333 0-17.333 3.167-24 9.5zm-182 148.498h294l-7-34h-294z"/><glyph glyph-name="uni022B" unicode="ȫ" horiz-adv-x="620" d="M107.5 55C65.833 94.333 45 147.002 45 213.002c0 59.333 12.833 112.666 38.5 159.999S144.667 457.667 190 485s96.666 41 153.999 41c70.667 0 126.834-19.5 168.501-58.5S575 375.667 575 309c0-59.333-12.833-112.833-38.5-160.5s-61.167-85-106.5-112S333.334-4 276.001-4C205.334-4 149.167 15.667 107.5 55zm298 20.002c37 22.667 66.167 54.167 87.5 94.5s32 85.833 32 136.5c0 55.333-16.167 98.333-48.5 129s-77.833 46-136.5 46c-46.667 0-88.5-11.5-125.5-34.5s-66.167-54.667-87.5-95-32-85.5-32-135.5c0-55.333 16.167-98.333 48.5-129s77.833-46 136.5-46c46.667 0 88.5 11.333 125.5 34zM279 643.502c-6.667 6.333-10 13.831-10 22.498 0 10.667 3.667 19.834 11 27.501s16 11.5 26 11.5c9.333 0 17.333-3.167 24-9.5s10-14.166 10-23.499c0-10.667-3.667-19.667-11-27s-16-11-26-11c-9.333 0-17.333 3.167-24 9.5zm171-.002c-6.667 6.333-10 13.831-10 22.498 0 10.667 3.667 19.834 11 27.501s16 11.5 26 11.5c9.333 0 17.333-3.167 24-9.5s10-14.166 10-23.499c0-10.667-3.667-19.667-11-27s-16-11-26-11c-9.333 0-17.333 3.167-24 9.5zM268 791.998h294l-7-34H261z"/><glyph glyph-name="uni022C" unicode="Ȭ" horiz-adv-x="838" d="M214 31c-48 24-84.498 57.667-109.498 101s-37.5 93.666-37.5 150.999c0 76 17.167 146.167 51.5 210.5s83.333 115.666 147 153.999 137.167 57.5 220.5 57.5c67.333 0 125.166-12 173.499-36s85-57.667 110-101 37.5-93.666 37.5-150.999c0-76-17.333-146.167-52-210.5S671.167 90.833 607.5 52.5 470.333-5 387-5C319.667-5 262 7 214 31zm368.002 61.5c55.333 33.667 97.999 78.999 127.999 135.999s45 119.167 45 186.5c0 74.667-23.5 133.834-70.5 177.501s-114.5 65.5-202.5 65.5c-71.333 0-134.666-16.833-189.999-50.5s-98.166-79-128.499-136-45.5-119.167-45.5-186.5c0-74 23.667-133 71-177s115-66 203-66c71.333 0 134.666 16.833 189.999 50.5zm-30.501 683.499c-10.333 5.333-21.501 12.667-33.501 22-10 8-18.667 14-26 18s-15.333 6-24 6c-16 0-29.167-4.5-39.5-13.5s-17.166-21.5-20.499-37.5h-33c4.667 26 15.334 46.5 32.001 61.5s37 22.5 61 22.5c13.333 0 24.833-2.5 34.5-7.5s21.5-12.5 35.5-22.5c10-8 18.5-14 25.5-18s14.833-6 23.5-6c16 0 29.333 4.333 40 13s17.667 20.667 21 36h33c-4.667-25.333-15.334-45.333-32.001-60s-37-22-61-22c-14 0-26.167 2.667-36.5 8zM407 942h294l-7-34H400z"/><glyph glyph-name="uni022D" unicode="ȭ" horiz-adv-x="620" d="M107.5 55C65.833 94.333 45 147.002 45 213.002c0 59.333 12.833 112.666 38.5 159.999S144.667 457.667 190 485s96.666 41 153.999 41c70.667 0 126.834-19.5 168.501-58.5S575 375.667 575 309c0-59.333-12.833-112.833-38.5-160.5s-61.167-85-106.5-112S333.334-4 276.001-4C205.334-4 149.167 15.667 107.5 55zm298 20.002c37 22.667 66.167 54.167 87.5 94.5s32 85.833 32 136.5c0 55.333-16.167 98.333-48.5 129s-77.833 46-136.5 46c-46.667 0-88.5-11.5-125.5-34.5s-66.167-54.667-87.5-95-32-85.5-32-135.5c0-55.333 16.167-98.333 48.5-129s77.833-46 136.5-46c46.667 0 88.5 11.333 125.5 34zm7 551c-10.333 5.333-21.501 12.667-33.501 22-10 8-18.667 14-26 18s-15.333 6-24 6c-16 0-29.167-4.5-39.5-13.5s-17.166-21.5-20.499-37.5h-33c4.667 26 15.334 46.5 32.001 61.5s37 22.5 61 22.5c13.333 0 24.833-2.5 34.5-7.5s21.5-12.5 35.5-22.5c10-8 18.5-14 25.5-18s14.833-6 23.5-6c16 0 29.333 4.333 40 13s17.667 20.667 21 36h33c-4.667-25.333-15.334-45.333-32.001-60s-37-22-61-22c-14 0-26.167 2.667-36.5 8zM267.999 792.003h294l-7-34h-294z"/><glyph glyph-name="uni0230" unicode="Ȱ" horiz-adv-x="838" d="M214 31c-48 24-84.498 57.667-109.498 101s-37.5 93.666-37.5 150.999c0 76 17.167 146.167 51.5 210.5s83.333 115.666 147 153.999 137.167 57.5 220.5 57.5c67.333 0 125.166-12 173.499-36s85-57.667 110-101 37.5-93.666 37.5-150.999c0-76-17.333-146.167-52-210.5S671.167 90.833 607.5 52.5 470.333-5 387-5C319.667-5 262 7 214 31zm368.002 61.5c55.333 33.667 97.999 78.999 127.999 135.999s45 119.167 45 186.5c0 74.667-23.5 133.834-70.5 177.501s-114.5 65.5-202.5 65.5c-71.333 0-134.666-16.833-189.999-50.5s-98.166-79-128.499-136-45.5-119.167-45.5-186.5c0-74 23.667-133 71-177s115-66 203-66c71.333 0 134.666 16.833 189.999 50.5zm-79.001 700.999c-6.667 6.333-10 14.5-10 24.5 0 10.667 3.667 19.667 11 27s16.333 11 27 11c9.333 0 17.333-3.167 24-9.5s10-14.166 10-23.499c0-10.667-3.667-19.834-11-27.501s-16.333-11.5-27-11.5c-9.333 0-17.333 3.167-24 9.5zm-96 150.5h294l-7-34h-294z"/><glyph glyph-name="uni0231" unicode="ȱ" horiz-adv-x="620" d="M107.5 55C65.833 94.333 45 147.002 45 213.002c0 59.333 12.833 112.666 38.5 159.999S144.667 457.667 190 485s96.666 41 153.999 41c70.667 0 126.834-19.5 168.501-58.5S575 375.667 575 309c0-59.333-12.833-112.833-38.5-160.5s-61.167-85-106.5-112S333.334-4 276.001-4C205.334-4 149.167 15.667 107.5 55zm298 20.002c37 22.667 66.167 54.167 87.5 94.5s32 85.833 32 136.5c0 55.333-16.167 98.333-48.5 129s-77.833 46-136.5 46c-46.667 0-88.5-11.5-125.5-34.5s-66.167-54.667-87.5-95-32-85.5-32-135.5c0-55.333 16.167-98.333 48.5-129s77.833-46 136.5-46c46.667 0 88.5 11.333 125.5 34zm-41.5 568.5c-6.667 6.333-10 14.5-10 24.5 0 10.667 3.667 19.667 11 27s16.333 11 27 11c9.333 0 17.333-3.167 24-9.5s10-14.166 10-23.499c0-10.667-3.667-19.834-11-27.501s-16.333-11.5-27-11.5c-9.333 0-17.333 3.167-24 9.5zm-96 150.5h294l-7-34H261z"/><glyph glyph-name="uni0232" unicode="Ȳ" horiz-adv-x="625" d="M332 235L285 0h-51l48 241L92 700h53l171-414 335 414h57zm-53 599h294l-7-36H272z"/><glyph glyph-name="uni0233" unicode="ȳ" horiz-adv-x="528" d="M577 522L187-76.999c-29.333-45.333-57.166-76.833-83.499-94.5s-57.5-26.5-93.5-26.5c-24 0-46.667 4-68 12s-38 19.333-50 34l29 37c23.333-26 54.666-39 93.999-39 24 0 45.833 6.667 65.5 20S121-97.333 143-64l44 66L55 522h51L223 55l302 467h52zM186 684.001h294l-7-36H179z"/><glyph glyph-name="uni0237" unicode="ȷ" horiz-adv-x="266" d="M-125.5-189c-18.333 6-33.832 14.333-46.499 25l26 38c21.333-19.333 48.666-29 81.999-29 30.667 0 55.167 8.667 73.5 26s31.166 44.333 38.499 81l114 570h50l-115-574c-9.333-49.333-27.5-86-54.5-110s-63.167-36-108.5-36c-21.333 0-41.166 3-59.499 9z"/><glyph glyph-name="uni0259" unicode="ə" horiz-adv-x="598" d="M502 272c1.333 14.667 2.002 25.668 2.002 33.001 0 56.667-16.333 100.167-49 130.5s-80.667 45.5-144 45.5c-36.667 0-70.5-6.167-101.5-18.5s-56.833-29.5-77.5-51.5l-23 35c23.333 25.333 53.166 45 89.499 59s75.166 21 116.499 21c74 0 132.167-19.333 174.5-58S553 375.667 553 307c0-58.667-12.333-111.667-37-159S457.333 63.5 414 36.5 322-4 268-4c-68 0-122 19.333-162 58s-60 92-60 160c0 16 2 35.333 6 58h450zM415.502 92.001c41 35.333 67.833 82.334 80.5 141.001h-402c-.667-6-1-14.667-1-26 0-52.667 16-93.834 48-123.501s74.667-44.5 128-44.5c56.667 0 105.5 17.667 146.5 53z"/><glyph glyph-name="uni0292" unicode="ʒ" horiz-adv-x="504" d="M485 486L215.997 209c66-2.667 116.333-19.334 151-50.001s52-73 52-127c0-47.333-12.833-88.5-38.5-123.5s-60-61.667-103-80-89.5-27.5-139.5-27.5c-45.333 0-88.166 7.833-128.499 23.5s-75.166 39.5-104.499 71.5l28 40c25.333-29.333 56.333-51.333 93-66s75-22 115-22c40.667 0 78.334 7.167 113.001 21.5s62.167 35.333 82.5 63S367-6.667 367 32c0 44-14.667 77.833-44 101.5S248.667 169 188 169h-40l6 35 261 272H44l9 46h438z"/><glyph glyph-name="uni02B9" unicode="ʹ" horiz-adv-x="194" d="M162 700h46l-55-258h-39z"/><glyph glyph-name="uni02BA" unicode="ʺ" horiz-adv-x="357" d="M324 700h47l-55-258h-39zm-163 0h47l-55-258h-39z"/><glyph glyph-name="uni02BB" unicode="ʻ" horiz-adv-x="261" d="M221 664.5c4.667-7 7.001-14.5 7.001-22.5 0-12-4.333-22.333-13-31s-19-13-31-13c-11.333 0-21 3.833-29 11.5s-12 17.5-12 29.5c0 6 1.167 12 3.5 18s4.666 11.167 6.999 15.5 3.833 7.5 4.5 9.5l70 140h35l-60-142c7.333-3.333 13.333-8.5 18-15.5z"/><glyph glyph-name="uni02BC" unicode="ʼ" horiz-adv-x="165" d="M153 700h39l-63-260H97z"/><glyph glyph-name="uni02BE" unicode="ʾ" horiz-adv-x="600" d="M386 627c20 0 36.667 6.835 50 20.502s20 30.5 20 50.5c0 16.667-5 31.167-15 43.5s-23.333 20.166-40 23.499l5 28c24-4.667 43.333-15.834 58-33.501s22-38.167 22-61.5c0-28-9.5-51.667-28.5-71s-42.833-29-71.5-29c-7.333 0-13.666.333-18.999 1l6 29c3.333-.667 7.666-1 12.999-1z"/><glyph glyph-name="uni02BF" unicode="ʿ" horiz-adv-x="600" d="M387 764c-20 0-36.667-6.834-50-20.501s-20-30.5-20-50.5c0-17.333 5-32.166 15-44.499s23.333-19.833 40-22.5l-5-28c-24 4-43.333 14.833-58 32.5S287 669 287 693c0 27.333 9.5 50.833 28.5 70.5S358.333 793 387 793c7.333 0 13.666-.667 18.999-2l-6-28c-3.333.667-7.666 1-12.999 1z"/><glyph glyph-name="circumflex" unicode="ˆ" horiz-adv-x="600" d="M475 607l-95 87-113-87h-52l140 118h55l113-118h-48z"/><glyph glyph-name="caron" unicode="ˇ" horiz-adv-x="600" d="M545 725L405 607h-55L237 725h48l95-87 112 87h53z"/><glyph glyph-name="uni02C8" unicode="ˈ" horiz-adv-x="161" d="M149 699h38l-36-184h-39z"/><glyph glyph-name="uni02C9" unicode="ˉ" horiz-adv-x="600" d="M238 684h294l-7-36H231z"/><glyph glyph-name="uni02CA" unicode="ˊ" horiz-adv-x="600" d="M462 725h75L367 607h-57z"/><glyph glyph-name="uni02CB" unicode="ˋ" horiz-adv-x="600" d="M238 725h72l116-118h-54z"/><glyph glyph-name="uni02CC" unicode="ˌ" horiz-adv-x="162" d="M3-30h39L5-214h-39z"/><glyph glyph-name="breve" unicode="˘" horiz-adv-x="600" d="M281 636.5c-25.333 22.333-36.667 51.833-34 88.5h37c-1.333-27.333 7-49 25-65s42.333-24 73-24c29.333 0 54.833 8.167 76.5 24.5S493 698.333 497 725h38c-5.333-37.333-22.5-67-51.5-89s-63.833-33-104.5-33c-40 0-72.667 11.167-98 33.5z"/><glyph glyph-name="dotaccent" unicode="˙" horiz-adv-x="600" d="M353.5 645c-7 6.667-10.5 15-10.5 25 0 12 4 22.167 12 30.5s17.667 12.5 29 12.5c10.667 0 19.5-3.5 26.5-10.5S421 687 421 677c0-12-4-22-12-30s-17.667-12-29-12c-10.667 0-19.5 3.333-26.5 10z"/><glyph glyph-name="ring" unicode="˚" horiz-adv-x="600" d="M315.5 624.5c-19 19-28.5 41.833-28.5 68.5 0 27.333 9.5 50.833 28.5 70.5S358 793 386 793s51.667-9.833 71-29.5 29-43.167 29-70.5c0-26.667-9.5-49.5-28.5-68.5S414.667 596 386 596c-28 0-51.5 9.5-70.5 28.5zM437 644c13.333 13.333 20 29.667 20 49 0 20-6.833 36.833-20.5 50.5S406 764 386 764s-36.5-6.833-49.5-20.5S317 713 317 693s6.5-36.5 19.5-49.5S366 624 386 624c20.667 0 37.667 6.667 51 20z"/><glyph glyph-name="ogonek" unicode="˛" horiz-adv-x="600" d="M82-196.5c-16 13.667-24 32.167-24 55.5 0 65.333 56.667 120.333 170 165l21-24C148.333-38.667 98-83.667 98-135c0-16 4.833-28.167 14.5-36.5S135.667-184 153-184c25.333 0 48.333 7.333 69 22l10-30c-26-16.667-54.667-25-86-25-26.667 0-48 6.833-64 20.5z"/><glyph glyph-name="tilde" unicode="˜" horiz-adv-x="600" d="M407.5 624.5c-10.333 6.333-22.502 15.832-36.502 28.499-10.667 10-20.167 17.667-28.5 23s-17.166 8-26.499 8c-14.667 0-27.167-5.833-37.5-17.5s-17.166-27.5-20.499-47.5h-33c4.667 30.667 15.167 55 31.5 73s36.5 27 60.5 27c14 0 26.167-3.167 36.5-9.5s22.5-15.833 36.5-28.5c10.667-10 20.167-17.667 28.5-23s17.166-8 26.499-8c14.667 0 27.334 5.833 38.001 17.5s17.667 26.834 21 45.501h33c-5.333-30-16-53.833-32-71.5S469 615 445 615c-14.667 0-27.167 3.167-37.5 9.5z"/><glyph glyph-name="hungarumlaut" unicode="˝" horiz-adv-x="600" d="M382 725h63L318 607h-51zm153 0h63L470 607h-50z"/><glyph glyph-name="gravecomb" unicode="̀" d="M-362 725h72l116-118h-54z"/><glyph glyph-name="acutecomb" unicode="́" d="M-138 725h75l-170-118h-57z"/><glyph glyph-name="uni0302" unicode="̂" d="M-125 607l-95 87-113-87h-52l140 118h55l113-118h-48z"/><glyph glyph-name="tildecomb" unicode="̃" d="M-192.5 624.5c-10.333 6.333-22.502 15.832-36.502 28.499-10.667 10-20.167 17.667-28.5 23s-17.166 8-26.499 8c-14.667 0-27.167-5.833-37.5-17.5s-17.166-27.5-20.499-47.5h-33c4.667 30.667 15.167 55 31.5 73s36.5 27 60.5 27c14 0 26.167-3.167 36.5-9.5s22.5-15.833 36.5-28.5c10.667-10 20.167-17.667 28.5-23s17.166-8 26.499-8c14.667 0 27.334 5.833 38.001 17.5S-99.333 694.333-96 713h33c-5.333-30-16-53.833-32-71.5s-36-26.5-60-26.5c-14.667 0-27.167 3.167-37.5 9.5z"/><glyph glyph-name="uni0304" unicode="̄" d="M-363 684h294l-7-36h-294z"/><glyph glyph-name="uni0306" unicode="̆" d="M-319 636.5c-25.333 22.333-36.667 51.833-34 88.5h37c-1.333-27.333 7-49 25-65s42.333-24 73-24c29.333 0 54.833 8.167 76.5 24.5S-107 698.333-103 725h38c-5.333-37.333-22.5-67-51.5-89s-63.833-33-104.5-33c-40 0-72.667 11.167-98 33.5z"/><glyph glyph-name="uni0307" unicode="̇" d="M-246.5 645c-7 6.667-10.5 15-10.5 25 0 12 4 22.167 12 30.5s17.667 12.5 29 12.5c10.667 0 19.5-3.5 26.5-10.5S-179 687-179 677c0-12-4-22-12-30s-17.667-12-29-12c-10.667 0-19.5 3.333-26.5 10z"/><glyph glyph-name="uni0308" unicode="̈" d="M-331 643.5c-6.667 6.333-10 14.166-10 23.499 0 10.667 3.667 19.834 11 27.501s16.333 11.5 27 11.5c9.333 0 17.333-3.167 24-9.5s10-14.166 10-23.499c0-10.667-3.667-19.834-11-27.501s-16.333-11.5-27-11.5c-9.333 0-17.333 3.167-24 9.5zm173 0c-6.667 6.333-10 14.166-10 23.499 0 10.667 3.667 19.834 11 27.501s16 11.5 26 11.5c9.333 0 17.5-3.167 24.5-9.5S-96 682.334-96 673.001c0-10.667-3.833-19.834-11.5-27.501S-124 634-134 634c-9.333 0-17.333 3.167-24 9.5z"/><glyph glyph-name="hookabovecomb" unicode="̉" d="M-232 626c46 20 68.998 46.333 68.998 79 0 14-4.833 25.167-14.5 33.5s-22.167 12.5-37.5 12.5c-20.667 0-41-6.667-61-20l-13 28c24 16 51 24 81 24 24.667 0 44.334-6.333 59.001-19s22-30 22-52c0-24-7.167-45.167-21.5-63.5S-185.667 614-217 600z"/><glyph glyph-name="uni030A" unicode="̊" d="M-284.5 624.5c-19 19-28.5 41.833-28.5 68.5 0 27.333 9.5 50.833 28.5 70.5S-242 793-214 793s51.667-9.833 71-29.5 29-43.167 29-70.5c0-26.667-9.5-49.5-28.5-68.5S-185.333 596-214 596c-28 0-51.5 9.5-70.5 28.5zM-163 644c13.333 13.333 20 29.667 20 49 0 20-6.833 36.833-20.5 50.5S-194 764-214 764s-36.5-6.833-49.5-20.5S-283 713-283 693s6.5-36.5 19.5-49.5S-234 624-214 624c20.667 0 37.667 6.667 51 20z"/><glyph glyph-name="uni030B" unicode="̋" d="M-218 725h63l-127-118h-51zm153 0h63l-128-118h-50z"/><glyph glyph-name="uni030C" unicode="̌" d="M-55 725l-140-118h-55l-113 118h48l95-87 112 87h53z"/><glyph glyph-name="uni030F" unicode="̏" d="M-423 725h60l79-118h-47zm153 0h60l79-118h-47z"/><glyph glyph-name="uni0311" unicode="̑" d="M-323 696c28.667 22 63.334 33 104.001 33 40 0 72.667-11.167 98-33.5S-84.333 643.667-87 607h-37c2 27.333-6.167 49-24.5 65s-42.833 24-73.5 24c-29.333 0-54.833-8.167-76.5-24.5S-333 633.667-337 607h-38c6 37.333 23.333 67 52 89z"/></font>
</defs>
</svg>
